<svg width="548" height="111" viewBox="0 0 548 111" fill="none" xmlns="http://www.w3.org/2000/svg">
<path d="M95.1155 40.8129C93.8952 40.8129 92.9522 40.4985 92.2865 39.8699C91.6578 39.2042 91.3435 38.2612 91.3435 37.0409V5.47822C91.3435 4.25787 91.6578 3.33337 92.2865 2.7047C92.9522 2.03906 93.8952 1.70623 95.1155 1.70623H108.428C111.165 1.70623 113.495 2.11302 115.418 2.92658C117.341 3.74015 118.801 4.90503 119.8 6.42122C120.835 7.93741 121.353 9.74944 121.353 11.8573C121.353 14.2241 120.669 16.221 119.301 17.8481C117.932 19.4753 116.065 20.5662 113.698 21.1209V20.2888C116.435 20.6956 118.561 21.731 120.077 23.3952C121.593 25.0593 122.351 27.2226 122.351 29.8852C122.351 33.3613 121.168 36.0609 118.801 37.9839C116.472 39.8699 113.217 40.8129 109.039 40.8129H95.1155ZM98.1664 35.4322H108.151C110.666 35.4322 112.515 34.9515 113.698 33.99C114.881 32.9915 115.473 31.5123 115.473 29.5524C115.473 27.5554 114.881 26.0762 113.698 25.1147C112.515 24.1533 110.666 23.6725 108.151 23.6725H98.1664V35.4322ZM98.1664 18.2919H107.208C109.649 18.2919 111.461 17.8296 112.644 16.9051C113.864 15.9436 114.475 14.5384 114.475 12.6894C114.475 10.8404 113.864 9.4536 112.644 8.52909C111.461 7.56761 109.649 7.08686 107.208 7.08686H98.1664V18.2919ZM130.088 41.2012C128.979 41.2012 128.128 40.8683 127.537 40.2027C126.945 39.537 126.649 38.6125 126.649 37.4292V17.0715C126.649 15.8512 126.945 14.9267 127.537 14.298C128.128 13.6324 128.979 13.2995 130.088 13.2995C131.198 13.2995 132.048 13.6324 132.64 14.298C133.269 14.9267 133.583 15.8512 133.583 17.0715V37.4292C133.583 38.6125 133.287 39.537 132.695 40.2027C132.104 40.8683 131.235 41.2012 130.088 41.2012ZM130.088 8.1408C128.794 8.1408 127.777 7.82647 127.037 7.1978C126.335 6.53216 125.983 5.62614 125.983 4.47975C125.983 3.29639 126.335 2.39037 127.037 1.7617C127.777 1.13304 128.794 0.818708 130.088 0.818708C131.42 0.818708 132.437 1.13304 133.139 1.7617C133.842 2.39037 134.193 3.29639 134.193 4.47975C134.193 5.62614 133.842 6.53216 133.139 7.1978C132.437 7.82647 131.42 8.1408 130.088 8.1408ZM150.939 41.3676C148.128 41.3676 145.687 40.7944 143.617 39.648C141.546 38.5016 139.937 36.8745 138.791 34.7666C137.644 32.6217 137.071 30.1071 137.071 27.2226C137.071 25.0408 137.385 23.0993 138.014 21.3982C138.68 19.6602 139.623 18.1809 140.843 16.9606C142.063 15.7033 143.524 14.7603 145.225 14.1316C146.926 13.466 148.831 13.1331 150.939 13.1331C153.749 13.1331 156.19 13.7063 158.261 14.8527C160.332 15.9991 161.94 17.6262 163.087 19.7341C164.233 21.842 164.806 24.3382 164.806 27.2226C164.806 29.4045 164.473 31.3644 163.808 33.1025C163.179 34.8406 162.255 36.3383 161.034 37.5956C159.814 38.8159 158.353 39.7589 156.652 40.4246C154.951 41.0532 153.047 41.3676 150.939 41.3676ZM150.939 36.0979C152.307 36.0979 153.509 35.7651 154.544 35.0994C155.58 34.4338 156.375 33.4538 156.929 32.1595C157.521 30.8282 157.817 29.1826 157.817 27.2226C157.817 24.2642 157.188 22.0639 155.931 20.6216C154.674 19.1424 153.01 18.4028 150.939 18.4028C149.57 18.4028 148.369 18.7356 147.333 19.4013C146.298 20.03 145.484 21.0099 144.892 22.3412C144.338 23.6355 144.06 25.2627 144.06 27.2226C144.06 30.1441 144.689 32.3629 145.946 33.8791C147.204 35.3583 148.868 36.0979 150.939 36.0979ZM171.675 28.7203C170.861 28.7203 170.177 28.4615 169.622 27.9437C169.104 27.389 168.846 26.7234 168.846 25.9468C168.846 25.1332 169.104 24.4676 169.622 23.9499C170.177 23.4321 170.861 23.1733 171.675 23.1733H183.49C184.266 23.1733 184.914 23.4321 185.431 23.9499C185.986 24.4676 186.263 25.1332 186.263 25.9468C186.263 26.7234 185.986 27.389 185.431 27.9437C184.914 28.4615 184.266 28.7203 183.49 28.7203H171.675ZM202.197 41.3676C199.83 41.3676 197.741 40.7944 195.929 39.648C194.154 38.5016 192.767 36.8745 191.768 34.7666C190.77 32.6217 190.271 30.1071 190.271 27.2226C190.271 24.3012 190.77 21.805 191.768 19.7341C192.767 17.6262 194.154 15.9991 195.929 14.8527C197.741 13.7063 199.83 13.1331 202.197 13.1331C204.453 13.1331 206.413 13.6878 208.077 14.7972C209.778 15.9067 210.924 17.3674 211.516 19.1794H210.906V4.75711C210.906 3.61072 211.201 2.74168 211.793 2.15C212.385 1.55831 213.235 1.26247 214.345 1.26247C215.454 1.26247 216.305 1.55831 216.896 2.15C217.525 2.74168 217.839 3.61072 217.839 4.75711V37.7065C217.839 38.8529 217.544 39.7404 216.952 40.3691C216.36 40.9608 215.51 41.2566 214.4 41.2566C213.291 41.2566 212.44 40.9608 211.849 40.3691C211.257 39.7404 210.961 38.8529 210.961 37.7065V33.3798L211.571 35.0439C211.017 36.9669 209.889 38.5016 208.188 39.648C206.486 40.7944 204.49 41.3676 202.197 41.3676ZM204.138 36.0979C205.506 36.0979 206.708 35.7651 207.744 35.0994C208.779 34.4338 209.574 33.4538 210.129 32.1595C210.721 30.8282 211.017 29.1826 211.017 27.2226C211.017 24.2642 210.388 22.0639 209.131 20.6216C207.873 19.1424 206.209 18.4028 204.138 18.4028C202.77 18.4028 201.568 18.7356 200.533 19.4013C199.497 20.03 198.684 21.0099 198.092 22.3412C197.537 23.6355 197.26 25.2627 197.26 27.2226C197.26 30.1441 197.889 32.3629 199.146 33.8791C200.403 35.3583 202.067 36.0979 204.138 36.0979ZM236.178 41.3676C233.109 41.3676 230.465 40.7944 228.246 39.648C226.027 38.5016 224.308 36.8745 223.087 34.7666C221.904 32.6587 221.312 30.1625 221.312 27.2781C221.312 24.4676 221.886 22.0084 223.032 19.9005C224.215 17.7927 225.824 16.147 227.858 14.9637C229.929 13.7433 232.277 13.1331 234.903 13.1331C236.826 13.1331 238.545 13.4475 240.061 14.0761C241.615 14.7048 242.927 15.6108 244 16.7942C245.109 17.9776 245.941 19.4198 246.496 21.1209C247.088 22.785 247.383 24.671 247.383 26.7789C247.383 27.4445 247.143 27.9622 246.662 28.332C246.219 28.6648 245.571 28.8313 244.721 28.8313H226.915V24.8374H242.502L241.615 25.6694C241.615 23.9684 241.356 22.5446 240.838 21.3982C240.357 20.2518 239.636 19.3828 238.675 18.7911C237.75 18.1625 236.585 17.8481 235.18 17.8481C233.627 17.8481 232.296 18.2179 231.186 18.9575C230.114 19.6602 229.282 20.6771 228.69 22.0084C228.135 23.3027 227.858 24.8559 227.858 26.6679V27.0562C227.858 30.0886 228.561 32.3629 229.966 33.8791C231.408 35.3583 233.516 36.0979 236.289 36.0979C237.251 36.0979 238.323 35.9869 239.507 35.7651C240.727 35.5062 241.873 35.0809 242.946 34.4892C243.722 34.0455 244.407 33.8606 244.998 33.9345C245.59 33.9715 246.052 34.1749 246.385 34.5447C246.755 34.9145 246.977 35.3768 247.051 35.9315C247.125 36.4492 247.014 36.9854 246.718 37.5401C246.459 38.0948 245.997 38.5756 245.331 38.9823C244.037 39.7959 242.539 40.4061 240.838 40.8129C239.174 41.1827 237.621 41.3676 236.178 41.3676ZM263.303 51.3522C261.306 51.3522 259.365 51.1673 257.479 50.7975C255.63 50.4277 253.947 49.8545 252.431 49.078C251.728 48.7082 251.247 48.2644 250.989 47.7467C250.767 47.2289 250.693 46.6927 250.767 46.138C250.878 45.6203 251.1 45.158 251.432 44.7513C251.802 44.3445 252.246 44.0671 252.764 43.9192C253.281 43.7713 253.818 43.8452 254.372 44.1411C255.999 44.9547 257.534 45.4724 258.976 45.6943C260.456 45.9531 261.713 46.0826 262.748 46.0826C265.226 46.0826 267.075 45.4724 268.295 44.252C269.553 43.0687 270.181 41.2936 270.181 38.9269V33.9345H270.681C270.126 35.8205 268.961 37.3367 267.186 38.4831C265.448 39.5925 263.469 40.1472 261.251 40.1472C258.81 40.1472 256.684 39.5925 254.872 38.4831C253.06 37.3367 251.654 35.7466 250.656 33.7127C249.657 31.6787 249.158 29.312 249.158 26.6124C249.158 24.5785 249.435 22.748 249.99 21.1209C250.582 19.4568 251.395 18.033 252.431 16.8497C253.503 15.6663 254.779 14.7603 256.258 14.1316C257.775 13.466 259.439 13.1331 261.251 13.1331C263.543 13.1331 265.54 13.7063 267.241 14.8527C268.98 15.9621 270.107 17.4413 270.625 19.2904L270.07 20.6771V16.7387C270.07 15.5923 270.366 14.7233 270.958 14.1316C271.587 13.5399 272.437 13.2441 273.51 13.2441C274.619 13.2441 275.47 13.5399 276.061 14.1316C276.653 14.7233 276.949 15.5923 276.949 16.7387V38.0948C276.949 42.4955 275.784 45.8052 273.454 48.024C271.124 50.2428 267.741 51.3522 263.303 51.3522ZM263.137 34.8775C264.579 34.8775 265.818 34.5447 266.853 33.8791C267.889 33.2134 268.684 32.2704 269.238 31.0501C269.83 29.7927 270.126 28.3135 270.126 26.6124C270.126 24.0608 269.497 22.0639 268.24 20.6216C266.983 19.1424 265.282 18.4028 263.137 18.4028C261.694 18.4028 260.456 18.7356 259.42 19.4013C258.385 20.0669 257.571 21.0099 256.979 22.2303C256.425 23.4506 256.147 24.9114 256.147 26.6124C256.147 29.1641 256.776 31.1795 258.033 32.6587C259.291 34.1379 260.992 34.8775 263.137 34.8775ZM285.464 41.2566C284.318 41.2566 283.43 40.9608 282.802 40.3691C282.21 39.7404 281.914 38.8529 281.914 37.7065V16.7387C281.914 15.5923 282.21 14.7233 282.802 14.1316C283.393 13.5399 284.225 13.2441 285.298 13.2441C286.37 13.2441 287.202 13.5399 287.794 14.1316C288.386 14.7233 288.682 15.5923 288.682 16.7387V20.2333H288.127C288.645 18.0145 289.662 16.3319 291.178 15.1855C292.694 14.0392 294.709 13.355 297.224 13.1331C298.001 13.0592 298.611 13.2626 299.055 13.7433C299.535 14.1871 299.813 14.8897 299.887 15.8512C299.961 16.7757 299.739 17.5338 299.221 18.1255C298.74 18.6802 298.001 19.013 297.002 19.1239L295.782 19.2349C293.526 19.4568 291.825 20.1594 290.679 21.3428C289.532 22.4891 288.959 24.1163 288.959 26.2242V37.7065C288.959 38.8529 288.663 39.7404 288.071 40.3691C287.48 40.9608 286.611 41.2566 285.464 41.2566ZM310.078 41.3676C308.118 41.3676 306.361 40.9978 304.808 40.2582C303.292 39.4816 302.09 38.4461 301.202 37.1518C300.352 35.8575 299.927 34.3968 299.927 32.7697C299.927 30.7727 300.444 29.2011 301.48 28.0547C302.515 26.8713 304.198 26.0208 306.527 25.503C308.857 24.9853 311.982 24.7264 315.902 24.7264H318.676V28.7203H315.957C313.665 28.7203 311.834 28.8313 310.466 29.0531C309.098 29.275 308.118 29.6633 307.526 30.218C306.971 30.7357 306.694 31.4753 306.694 32.4368C306.694 33.6572 307.119 34.6557 307.97 35.4322C308.82 36.2088 310.004 36.5971 311.52 36.5971C312.74 36.5971 313.813 36.3198 314.737 35.7651C315.699 35.1734 316.457 34.3783 317.011 33.3798C317.566 32.3814 317.843 31.235 317.843 29.9407V23.5616C317.843 21.7126 317.437 20.3813 316.623 19.5677C315.81 18.7541 314.441 18.3474 312.518 18.3474C311.446 18.3474 310.281 18.4768 309.024 18.7356C307.803 18.9945 306.509 19.4383 305.141 20.0669C304.438 20.3998 303.809 20.4922 303.255 20.3443C302.737 20.1964 302.33 19.9005 302.034 19.4568C301.739 18.976 301.591 18.4583 301.591 17.9036C301.591 17.3489 301.739 16.8127 302.034 16.2949C302.33 15.7402 302.829 15.3335 303.532 15.0746C305.233 14.372 306.86 13.8727 308.413 13.5769C310.004 13.2811 311.446 13.1331 312.74 13.1331C315.403 13.1331 317.585 13.5399 319.286 14.3535C321.024 15.1671 322.318 16.4059 323.169 18.07C324.019 19.6971 324.444 21.805 324.444 24.3936V37.7065C324.444 38.8529 324.167 39.7404 323.612 40.3691C323.058 40.9608 322.263 41.2566 321.227 41.2566C320.192 41.2566 319.378 40.9608 318.786 40.3691C318.232 39.7404 317.954 38.8529 317.954 37.7065V35.0439H318.398C318.139 36.3383 317.622 37.4662 316.845 38.4276C316.105 39.3521 315.162 40.0733 314.016 40.591C312.87 41.1087 311.557 41.3676 310.078 41.3676ZM339.692 41.3676C337.325 41.3676 335.236 40.7944 333.424 39.648C331.649 38.5016 330.262 36.8745 329.263 34.7666C328.265 32.6217 327.766 30.1071 327.766 27.2226C327.766 24.3012 328.265 21.805 329.263 19.7341C330.262 17.6262 331.649 15.9991 333.424 14.8527C335.236 13.7063 337.325 13.1331 339.692 13.1331C341.948 13.1331 343.908 13.6878 345.572 14.7972C347.273 15.9067 348.419 17.3674 349.011 19.1794H348.401V4.75711C348.401 3.61072 348.697 2.74168 349.288 2.15C349.88 1.55831 350.73 1.26247 351.84 1.26247C352.949 1.26247 353.8 1.55831 354.392 2.15C355.02 2.74168 355.335 3.61072 355.335 4.75711V37.7065C355.335 38.8529 355.039 39.7404 354.447 40.3691C353.855 40.9608 353.005 41.2566 351.895 41.2566C350.786 41.2566 349.935 40.9608 349.344 40.3691C348.752 39.7404 348.456 38.8529 348.456 37.7065V33.3798L349.066 35.0439C348.512 36.9669 347.384 38.5016 345.683 39.648C343.982 40.7944 341.985 41.3676 339.692 41.3676ZM341.633 36.0979C343.002 36.0979 344.203 35.7651 345.239 35.0994C346.274 34.4338 347.069 33.4538 347.624 32.1595C348.216 30.8282 348.512 29.1826 348.512 27.2226C348.512 24.2642 347.883 22.0639 346.626 20.6216C345.368 19.1424 343.704 18.4028 341.633 18.4028C340.265 18.4028 339.063 18.7356 338.028 19.4013C336.992 20.03 336.179 21.0099 335.587 22.3412C335.032 23.6355 334.755 25.2627 334.755 27.2226C334.755 30.1441 335.384 32.3629 336.641 33.8791C337.898 35.3583 339.562 36.0979 341.633 36.0979ZM369.236 41.3676C367.276 41.3676 365.519 40.9978 363.966 40.2582C362.45 39.4816 361.248 38.4461 360.361 37.1518C359.51 35.8575 359.085 34.3968 359.085 32.7697C359.085 30.7727 359.603 29.2011 360.638 28.0547C361.673 26.8713 363.356 26.0208 365.686 25.503C368.016 24.9853 371.14 24.7264 375.06 24.7264H377.834V28.7203H375.116C372.823 28.7203 370.992 28.8313 369.624 29.0531C368.256 29.275 367.276 29.6633 366.684 30.218C366.13 30.7357 365.852 31.4753 365.852 32.4368C365.852 33.6572 366.277 34.6557 367.128 35.4322C367.979 36.2088 369.162 36.5971 370.678 36.5971C371.898 36.5971 372.971 36.3198 373.895 35.7651C374.857 35.1734 375.615 34.3783 376.17 33.3798C376.724 32.3814 377.002 31.235 377.002 29.9407V23.5616C377.002 21.7126 376.595 20.3813 375.781 19.5677C374.968 18.7541 373.6 18.3474 371.677 18.3474C370.604 18.3474 369.439 18.4768 368.182 18.7356C366.962 18.9945 365.667 19.4383 364.299 20.0669C363.596 20.3998 362.968 20.4922 362.413 20.3443C361.895 20.1964 361.489 19.9005 361.193 19.4568C360.897 18.976 360.749 18.4583 360.749 17.9036C360.749 17.3489 360.897 16.8127 361.193 16.2949C361.489 15.7402 361.988 15.3335 362.69 15.0746C364.391 14.372 366.019 13.8727 367.572 13.5769C369.162 13.2811 370.604 13.1331 371.898 13.1331C374.561 13.1331 376.743 13.5399 378.444 14.3535C380.182 15.1671 381.476 16.4059 382.327 18.07C383.177 19.6971 383.603 21.805 383.603 24.3936V37.7065C383.603 38.8529 383.325 39.7404 382.771 40.3691C382.216 40.9608 381.421 41.2566 380.385 41.2566C379.35 41.2566 378.536 40.9608 377.945 40.3691C377.39 39.7404 377.113 38.8529 377.113 37.7065V35.0439H377.556C377.298 36.3383 376.78 37.4662 376.003 38.4276C375.264 39.3521 374.321 40.0733 373.174 40.591C372.028 41.1087 370.715 41.3676 369.236 41.3676ZM404.064 41.3676C401.772 41.3676 399.756 40.7944 398.018 39.648C396.317 38.5016 395.189 36.9669 394.634 35.0439L395.245 33.6572V37.7065C395.245 38.8529 394.949 39.7404 394.357 40.3691C393.765 40.9608 392.933 41.2566 391.861 41.2566C390.751 41.2566 389.901 40.9608 389.309 40.3691C388.718 39.7404 388.422 38.8529 388.422 37.7065V4.75711C388.422 3.61072 388.718 2.74168 389.309 2.15C389.901 1.55831 390.751 1.26247 391.861 1.26247C392.97 1.26247 393.821 1.55831 394.413 2.15C395.041 2.74168 395.356 3.61072 395.356 4.75711V19.1794H394.69C395.282 17.3674 396.428 15.9067 398.129 14.7972C399.83 13.6878 401.809 13.1331 404.064 13.1331C406.468 13.1331 408.557 13.7063 410.333 14.8527C412.108 15.9991 413.494 17.6262 414.493 19.7341C415.491 21.805 415.991 24.3012 415.991 27.2226C415.991 30.1071 415.491 32.6217 414.493 34.7666C413.494 36.8745 412.089 38.5016 410.277 39.648C408.502 40.7944 406.431 41.3676 404.064 41.3676ZM402.123 36.0979C403.491 36.0979 404.693 35.7651 405.729 35.0994C406.764 34.4338 407.559 33.4538 408.114 32.1595C408.705 30.8282 409.001 29.1826 409.001 27.2226C409.001 24.2642 408.373 22.0639 407.115 20.6216C405.858 19.1424 404.194 18.4028 402.123 18.4028C400.755 18.4028 399.553 18.7356 398.517 19.4013C397.482 20.03 396.668 21.0099 396.077 22.3412C395.522 23.6355 395.245 25.2627 395.245 27.2226C395.245 30.1441 395.873 32.3629 397.131 33.8791C398.388 35.3583 400.052 36.0979 402.123 36.0979ZM428.727 41.3676C425.658 41.3676 423.346 40.4985 421.793 38.7605C420.24 36.9854 419.463 34.3968 419.463 30.9946V4.75711C419.463 3.61072 419.759 2.74168 420.351 2.15C420.943 1.55831 421.793 1.26247 422.903 1.26247C424.012 1.26247 424.863 1.55831 425.454 2.15C426.083 2.74168 426.397 3.61072 426.397 4.75711V30.6618C426.397 32.3629 426.749 33.6202 427.451 34.4338C428.191 35.2473 429.226 35.6541 430.558 35.6541C430.853 35.6541 431.131 35.6541 431.39 35.6541C431.648 35.6171 431.907 35.5802 432.166 35.5432C432.684 35.4692 433.035 35.6171 433.22 35.9869C433.405 36.3198 433.497 37.0224 433.497 38.0948C433.497 39.0193 433.313 39.7404 432.943 40.2582C432.573 40.7759 431.963 41.0902 431.112 41.2012C430.742 41.2381 430.354 41.2751 429.947 41.3121C429.541 41.3491 429.134 41.3676 428.727 41.3676ZM448.056 41.3676C444.987 41.3676 442.342 40.7944 440.124 39.648C437.905 38.5016 436.185 36.8745 434.965 34.7666C433.781 32.6587 433.19 30.1625 433.19 27.2781C433.19 24.4676 433.763 22.0084 434.909 19.9005C436.093 17.7927 437.701 16.147 439.735 14.9637C441.806 13.7433 444.154 13.1331 446.78 13.1331C448.703 13.1331 450.423 13.4475 451.939 14.0761C453.492 14.7048 454.805 15.6108 455.877 16.7942C456.987 17.9776 457.819 19.4198 458.373 21.1209C458.965 22.785 459.261 24.671 459.261 26.7789C459.261 27.4445 459.021 27.9622 458.54 28.332C458.096 28.6648 457.449 28.8313 456.598 28.8313H438.792V24.8374H454.38L453.492 25.6694C453.492 23.9684 453.233 22.5446 452.715 21.3982C452.235 20.2518 451.514 19.3828 450.552 18.7911C449.628 18.1625 448.463 17.8481 447.057 17.8481C445.504 17.8481 444.173 18.2179 443.064 18.9575C441.991 19.6602 441.159 20.6771 440.567 22.0084C440.013 23.3027 439.735 24.8559 439.735 26.6679V27.0562C439.735 30.0886 440.438 32.3629 441.843 33.8791C443.285 35.3583 445.393 36.0979 448.167 36.0979C449.128 36.0979 450.201 35.9869 451.384 35.7651C452.604 35.5062 453.751 35.0809 454.823 34.4892C455.6 34.0455 456.284 33.8606 456.876 33.9345C457.467 33.9715 457.93 34.1749 458.262 34.5447C458.632 34.9145 458.854 35.3768 458.928 35.9315C459.002 36.4492 458.891 36.9854 458.595 37.5401C458.336 38.0948 457.874 38.5756 457.208 38.9823C455.914 39.7959 454.416 40.4061 452.715 40.8129C451.051 41.1827 449.498 41.3676 448.056 41.3676ZM15.686 100.368C13.3932 100.368 11.3778 99.7944 9.63973 98.648C7.93864 97.5016 6.81074 95.9669 6.25604 94.0439L6.86621 92.6572V96.7065C6.86621 97.8529 6.57037 98.7404 5.97868 99.3691C5.387 99.9608 4.55494 100.257 3.48252 100.257C2.37311 100.257 1.52256 99.9608 0.930877 99.3691C0.339193 98.7404 0.0433508 97.8529 0.0433508 96.7065V63.7571C0.0433508 62.6107 0.339193 61.7417 0.930877 61.15C1.52256 60.5583 2.37311 60.2625 3.48252 60.2625C4.59192 60.2625 5.44247 60.5583 6.03415 61.15C6.66282 61.7417 6.97715 62.6107 6.97715 63.7571V78.1794H6.31151C6.90319 76.3674 8.04958 74.9067 9.75067 73.7972C11.4518 72.6878 13.4302 72.1331 15.686 72.1331C18.0897 72.1331 20.1791 72.7063 21.9542 73.8527C23.7292 74.9991 25.116 76.6262 26.1144 78.7341C27.1129 80.805 27.6121 83.3012 27.6121 86.2226C27.6121 89.1071 27.1129 91.6217 26.1144 93.7666C25.116 95.8745 23.7107 97.5016 21.8987 98.648C20.1236 99.7944 18.0527 100.368 15.686 100.368ZM13.7445 95.0979C15.1128 95.0979 16.3147 94.7651 17.3501 94.0994C18.3856 93.4338 19.1806 92.4538 19.7353 91.1595C20.327 89.8282 20.6229 88.1826 20.6229 86.2226C20.6229 83.2642 19.9942 81.0639 18.7369 79.6216C17.4795 78.1424 15.8154 77.4028 13.7445 77.4028C12.3763 77.4028 11.1744 77.7356 10.139 78.4013C9.10352 79.03 8.28995 80.0099 7.69827 81.3412C7.14356 82.6355 6.86621 84.2627 6.86621 86.2226C6.86621 89.1441 7.49487 91.3629 8.7522 92.8791C10.0095 94.3583 11.6736 95.0979 13.7445 95.0979ZM40.0158 100.368C38.0559 100.368 36.2993 99.9978 34.7462 99.2582C33.23 98.4816 32.0281 97.4461 31.1406 96.1518C30.29 94.8575 29.8648 93.3968 29.8648 91.7697C29.8648 89.7727 30.3825 88.2011 31.4179 87.0547C32.4534 85.8713 34.136 85.0208 36.4657 84.503C38.7955 83.9853 41.9203 83.7264 45.8402 83.7264H48.6138V87.7203H45.8957C43.6029 87.7203 41.7724 87.8313 40.4041 88.0531C39.0359 88.275 38.0559 88.6633 37.4642 89.218C36.9095 89.7357 36.6321 90.4753 36.6321 91.4368C36.6321 92.6572 37.0574 93.6557 37.908 94.4322C38.7585 95.2088 39.9419 95.5971 41.4581 95.5971C42.6784 95.5971 43.7508 95.3198 44.6754 94.7651C45.6368 94.1734 46.3949 93.3783 46.9496 92.3798C47.5043 91.3814 47.7817 90.235 47.7817 88.9407V82.5616C47.7817 80.7126 47.3749 79.3813 46.5613 78.5677C45.7478 77.7541 44.3795 77.3474 42.4565 77.3474C41.3841 77.3474 40.2192 77.4768 38.9619 77.7356C37.7416 77.9945 36.4472 78.4383 35.079 79.0669C34.3764 79.3998 33.7477 79.4922 33.193 79.3443C32.6753 79.1964 32.2685 78.9005 31.9726 78.4568C31.6768 77.976 31.5289 77.4583 31.5289 76.9036C31.5289 76.3489 31.6768 75.8127 31.9726 75.2949C32.2685 74.7402 32.7677 74.3335 33.4703 74.0746C35.1714 73.372 36.7986 72.8727 38.3517 72.5769C39.9419 72.2811 41.3841 72.1331 42.6784 72.1331C45.341 72.1331 47.5228 72.5399 49.2239 73.3535C50.962 74.1671 52.2563 75.4059 53.1069 77.07C53.9574 78.6971 54.3827 80.805 54.3827 83.3936V96.7065C54.3827 97.8529 54.1053 98.7404 53.5506 99.3691C52.9959 99.9608 52.2008 100.257 51.1654 100.257C50.1299 100.257 49.3164 99.9608 48.7247 99.3691C48.17 98.7404 47.8926 97.8529 47.8926 96.7065V94.0439H48.3364C48.0775 95.3383 47.5598 96.4662 46.7832 97.4276C46.0436 98.3521 45.1006 99.0733 43.9542 99.591C42.8079 100.109 41.4951 100.368 40.0158 100.368ZM62.6408 100.257C61.5314 100.257 60.6809 99.9608 60.0892 99.3691C59.4975 98.7404 59.2017 97.8529 59.2017 96.7065V75.7387C59.2017 74.5923 59.4975 73.7233 60.0892 73.1316C60.6809 72.5399 61.5129 72.2441 62.5854 72.2441C63.6578 72.2441 64.4898 72.5399 65.0815 73.1316C65.6732 73.7233 65.969 74.5923 65.969 75.7387V79.5107L65.3589 78.1239C66.1724 76.164 67.4298 74.6848 69.1309 73.6863C70.8689 72.6509 72.8289 72.1331 75.0107 72.1331C77.1926 72.1331 78.9861 72.5399 80.3914 73.3535C81.7966 74.1671 82.8505 75.4059 83.5532 77.07C84.2558 78.6971 84.6071 80.768 84.6071 83.2827V96.7065C84.6071 97.8529 84.3113 98.7404 83.7196 99.3691C83.1279 99.9608 82.2773 100.257 81.1679 100.257C80.0585 100.257 79.1895 99.9608 78.5608 99.3691C77.9691 98.7404 77.6733 97.8529 77.6733 96.7065V83.6155C77.6733 81.5076 77.2665 79.973 76.453 79.0115C75.6764 78.05 74.456 77.5692 72.7919 77.5692C70.758 77.5692 69.1309 78.2164 67.9105 79.5107C66.7271 80.768 66.1355 82.4506 66.1355 84.5585V96.7065C66.1355 99.0733 64.9706 100.257 62.6408 100.257ZM99.8593 100.368C97.4926 100.368 95.4032 99.7944 93.5911 98.648C91.8161 97.5016 90.4293 95.8745 89.4309 93.7666C88.4324 91.6217 87.9332 89.1071 87.9332 86.2226C87.9332 83.3012 88.4324 80.805 89.4309 78.7341C90.4293 76.6262 91.8161 74.9991 93.5911 73.8527C95.4032 72.7063 97.4926 72.1331 99.8593 72.1331C102.115 72.1331 104.075 72.6878 105.739 73.7972C107.44 74.9067 108.587 76.3674 109.178 78.1794H108.568V63.7571C108.568 62.6107 108.864 61.7417 109.456 61.15C110.047 60.5583 110.898 60.2625 112.007 60.2625C113.117 60.2625 113.967 60.5583 114.559 61.15C115.188 61.7417 115.502 62.6107 115.502 63.7571V96.7065C115.502 97.8529 115.206 98.7404 114.614 99.3691C114.023 99.9608 113.172 100.257 112.063 100.257C110.953 100.257 110.103 99.9608 109.511 99.3691C108.919 98.7404 108.624 97.8529 108.624 96.7065V92.3798L109.234 94.0439C108.679 95.9669 107.551 97.5016 105.85 98.648C104.149 99.7944 102.152 100.368 99.8593 100.368ZM101.801 95.0979C103.169 95.0979 104.371 94.7651 105.406 94.0994C106.442 93.4338 107.237 92.4538 107.792 91.1595C108.383 89.8282 108.679 88.1826 108.679 86.2226C108.679 83.2642 108.05 81.0639 106.793 79.6216C105.536 78.1424 103.872 77.4028 101.801 77.4028C100.432 77.4028 99.2306 77.7356 98.1952 78.4013C97.1597 79.03 96.3462 80.0099 95.7545 81.3412C95.1998 82.6355 94.9224 84.2627 94.9224 86.2226C94.9224 89.1441 95.5511 91.3629 96.8084 92.8791C98.0658 94.3583 99.7299 95.0979 101.801 95.0979ZM129.403 100.368C127.443 100.368 125.687 99.9978 124.134 99.2582C122.617 98.4816 121.416 97.4461 120.528 96.1518C119.678 94.8575 119.252 93.3968 119.252 91.7697C119.252 89.7727 119.77 88.2011 120.805 87.0547C121.841 85.8713 123.523 85.0208 125.853 84.503C128.183 83.9853 131.308 83.7264 135.228 83.7264H138.001V87.7203H135.283C132.99 87.7203 131.16 87.8313 129.792 88.0531C128.423 88.275 127.443 88.6633 126.852 89.218C126.297 89.7357 126.02 90.4753 126.02 91.4368C126.02 92.6572 126.445 93.6557 127.295 94.4322C128.146 95.2088 129.329 95.5971 130.846 95.5971C132.066 95.5971 133.138 95.3198 134.063 94.7651C135.024 94.1734 135.782 93.3783 136.337 92.3798C136.892 91.3814 137.169 90.235 137.169 88.9407V82.5616C137.169 80.7126 136.762 79.3813 135.949 78.5677C135.135 77.7541 133.767 77.3474 131.844 77.3474C130.772 77.3474 129.607 77.4768 128.349 77.7356C127.129 77.9945 125.835 78.4383 124.466 79.0669C123.764 79.3998 123.135 79.4922 122.58 79.3443C122.063 79.1964 121.656 78.9005 121.36 78.4568C121.064 77.976 120.916 77.4583 120.916 76.9036C120.916 76.3489 121.064 75.8127 121.36 75.2949C121.656 74.7402 122.155 74.3335 122.858 74.0746C124.559 73.372 126.186 72.8727 127.739 72.5769C129.329 72.2811 130.772 72.1331 132.066 72.1331C134.729 72.1331 136.91 72.5399 138.611 73.3535C140.35 74.1671 141.644 75.4059 142.494 77.07C143.345 78.6971 143.77 80.805 143.77 83.3936V96.7065C143.77 97.8529 143.493 98.7404 142.938 99.3691C142.383 99.9608 141.588 100.257 140.553 100.257C139.517 100.257 138.704 99.9608 138.112 99.3691C137.558 98.7404 137.28 97.8529 137.28 96.7065V94.0439H137.724C137.465 95.3383 136.947 96.4662 136.171 97.4276C135.431 98.3521 134.488 99.0733 133.342 99.591C132.195 100.109 130.883 100.368 129.403 100.368ZM161.236 110.352C159.239 110.352 157.298 110.167 155.412 109.798C153.563 109.428 151.88 108.855 150.364 108.078C149.662 107.708 149.181 107.264 148.922 106.747C148.7 106.229 148.626 105.693 148.7 105.138C148.811 104.62 149.033 104.158 149.366 103.751C149.736 103.344 150.179 103.067 150.697 102.919C151.215 102.771 151.751 102.845 152.306 103.141C153.933 103.955 155.468 104.472 156.91 104.694C158.389 104.953 159.646 105.083 160.682 105.083C163.159 105.083 165.008 104.472 166.229 103.252C167.486 102.069 168.115 100.294 168.115 97.9269V92.9345H168.614C168.059 94.8205 166.894 96.3367 165.119 97.4831C163.381 98.5925 161.403 99.1472 159.184 99.1472C156.743 99.1472 154.617 98.5925 152.805 97.4831C150.993 96.3367 149.588 94.7466 148.589 92.7127C147.591 90.6787 147.091 88.312 147.091 85.6124C147.091 83.5785 147.369 81.748 147.924 80.1209C148.515 78.4568 149.329 77.033 150.364 75.8497C151.437 74.6663 152.712 73.7603 154.192 73.1316C155.708 72.466 157.372 72.1331 159.184 72.1331C161.477 72.1331 163.474 72.7063 165.175 73.8527C166.913 74.9621 168.041 76.4413 168.559 78.2904L168.004 79.6771V75.7387C168.004 74.5923 168.3 73.7233 168.891 73.1316C169.52 72.5399 170.371 72.2441 171.443 72.2441C172.552 72.2441 173.403 72.5399 173.995 73.1316C174.586 73.7233 174.882 74.5923 174.882 75.7387V97.0948C174.882 101.495 173.717 104.805 171.388 107.024C169.058 109.243 165.674 110.352 161.236 110.352ZM161.07 93.8775C162.512 93.8775 163.751 93.5447 164.787 92.8791C165.822 92.2134 166.617 91.2704 167.172 90.0501C167.763 88.7927 168.059 87.3135 168.059 85.6124C168.059 83.0608 167.431 81.0639 166.173 79.6216C164.916 78.1424 163.215 77.4028 161.07 77.4028C159.628 77.4028 158.389 77.7356 157.353 78.4013C156.318 79.0669 155.504 80.0099 154.913 81.2303C154.358 82.4506 154.081 83.9114 154.081 85.6124C154.081 88.1641 154.709 90.1795 155.967 91.6587C157.224 93.1379 158.925 93.8775 161.07 93.8775ZM193.216 100.368C190.147 100.368 187.503 99.7944 185.284 98.648C183.065 97.5016 181.345 95.8745 180.125 93.7666C178.942 91.6587 178.35 89.1625 178.35 86.2781C178.35 83.4676 178.923 81.0084 180.069 78.9005C181.253 76.7927 182.862 75.147 184.895 73.9637C186.966 72.7433 189.315 72.1331 191.94 72.1331C193.863 72.1331 195.583 72.4475 197.099 73.0761C198.652 73.7048 199.965 74.6108 201.037 75.7942C202.147 76.9776 202.979 78.4198 203.533 80.1209C204.125 81.785 204.421 83.671 204.421 85.7789C204.421 86.4445 204.181 86.9622 203.7 87.332C203.256 87.6648 202.609 87.8313 201.758 87.8313H183.952V83.8374H199.54L198.652 84.6694C198.652 82.9684 198.393 81.5446 197.875 80.3982C197.395 79.2518 196.674 78.3828 195.712 77.7911C194.788 77.1625 193.623 76.8481 192.218 76.8481C190.664 76.8481 189.333 77.2179 188.224 77.9575C187.151 78.6602 186.319 79.6771 185.727 81.0084C185.173 82.3027 184.895 83.8559 184.895 85.6679V86.0562C184.895 89.0886 185.598 91.3629 187.003 92.8791C188.446 94.3583 190.553 95.0979 193.327 95.0979C194.288 95.0979 195.361 94.9869 196.544 94.7651C197.765 94.5062 198.911 94.0809 199.983 93.4892C200.76 93.0455 201.444 92.8606 202.036 92.9345C202.627 92.9715 203.09 93.1749 203.423 93.5447C203.792 93.9145 204.014 94.3768 204.088 94.9315C204.162 95.4492 204.051 95.9854 203.755 96.5401C203.496 97.0948 203.034 97.5756 202.369 97.9823C201.074 98.7959 199.577 99.4061 197.875 99.8129C196.211 100.183 194.658 100.368 193.216 100.368ZM217.623 100.368C216.032 100.368 214.35 100.201 212.575 99.8683C210.8 99.5355 209.21 98.9623 207.804 98.1488C207.213 97.779 206.787 97.3537 206.528 96.8729C206.307 96.3552 206.214 95.856 206.251 95.3752C206.325 94.8575 206.51 94.4137 206.806 94.0439C207.139 93.6741 207.545 93.4338 208.026 93.3228C208.544 93.2119 209.099 93.3043 209.69 93.6002C211.169 94.3028 212.556 94.802 213.851 95.0979C215.145 95.3567 216.421 95.4862 217.678 95.4862C219.453 95.4862 220.766 95.1903 221.616 94.5986C222.504 93.97 222.948 93.1564 222.948 92.158C222.948 91.3074 222.652 90.6602 222.06 90.2165C221.505 89.7357 220.655 89.3844 219.509 89.1625L213.961 88.1086C211.669 87.6648 209.912 86.8328 208.692 85.6124C207.508 84.3551 206.917 82.7465 206.917 80.7865C206.917 79.0115 207.397 77.4768 208.359 76.1825C209.357 74.8882 210.726 73.8897 212.464 73.1871C214.202 72.4844 216.199 72.1331 218.455 72.1331C220.082 72.1331 221.598 72.318 223.003 72.6878C224.445 73.0207 225.832 73.5569 227.163 74.2965C227.718 74.5923 228.088 74.9806 228.273 75.4614C228.495 75.9421 228.55 76.4413 228.439 76.9591C228.328 77.4398 228.106 77.8836 227.774 78.2904C227.441 78.6602 227.016 78.9005 226.498 79.0115C226.017 79.0854 225.462 78.9745 224.834 78.6786C223.687 78.087 222.578 77.6617 221.505 77.4028C220.47 77.144 219.472 77.0145 218.51 77.0145C216.698 77.0145 215.348 77.3289 214.461 77.9575C213.61 78.5862 213.185 79.4182 213.185 80.4537C213.185 81.2303 213.444 81.8774 213.961 82.3952C214.479 82.9129 215.274 83.2642 216.347 83.4491L221.894 84.503C224.297 84.9468 226.109 85.7604 227.33 86.9437C228.587 88.1271 229.216 89.7173 229.216 91.7142C229.216 94.4137 228.162 96.5401 226.054 98.0933C223.946 99.6095 221.136 100.368 217.623 100.368ZM257.826 100.368C255.422 100.368 253.406 99.9608 251.779 99.1472C250.189 98.3337 249.006 97.1503 248.229 95.5971C247.453 94.007 247.064 92.047 247.064 89.7173V77.9021H244.18C243.292 77.9021 242.608 77.6802 242.127 77.2364C241.647 76.7557 241.406 76.1085 241.406 75.2949C241.406 74.4444 241.647 73.7972 242.127 73.3535C242.608 72.9097 243.292 72.6878 244.18 72.6878H247.064V67.64C247.064 66.4936 247.36 65.6246 247.952 65.0329C248.58 64.4412 249.45 64.1454 250.559 64.1454C251.668 64.1454 252.519 64.4412 253.111 65.0329C253.702 65.6246 253.998 66.4936 253.998 67.64V72.6878H259.878C260.765 72.6878 261.45 72.9097 261.93 73.3535C262.411 73.7972 262.651 74.4444 262.651 75.2949C262.651 76.1085 262.411 76.7557 261.93 77.2364C261.45 77.6802 260.765 77.9021 259.878 77.9021H253.998V89.329C253.998 91.104 254.386 92.4353 255.163 93.3228C255.94 94.2104 257.197 94.6541 258.935 94.6541C259.564 94.6541 260.118 94.5986 260.599 94.4877C261.08 94.3768 261.505 94.3028 261.875 94.2658C262.319 94.2288 262.688 94.3768 262.984 94.7096C263.28 95.0054 263.428 95.6341 263.428 96.5956C263.428 97.3352 263.299 98.0008 263.04 98.5925C262.818 99.1472 262.393 99.5355 261.764 99.7574C261.283 99.9053 260.655 100.035 259.878 100.146C259.101 100.294 258.417 100.368 257.826 100.368ZM276.569 100.368C273.759 100.368 271.318 99.7944 269.247 98.648C267.176 97.5016 265.568 95.8745 264.421 93.7666C263.275 91.6217 262.702 89.1071 262.702 86.2226C262.702 84.0408 263.016 82.0993 263.645 80.3982C264.31 78.6602 265.253 77.1809 266.474 75.9606C267.694 74.7033 269.155 73.7603 270.856 73.1316C272.557 72.466 274.461 72.1331 276.569 72.1331C279.38 72.1331 281.821 72.7063 283.891 73.8527C285.962 74.9991 287.571 76.6262 288.717 78.7341C289.864 80.842 290.437 83.3382 290.437 86.2226C290.437 88.4045 290.104 90.3644 289.438 92.1025C288.81 93.8406 287.885 95.3383 286.665 96.5956C285.445 97.8159 283.984 98.7589 282.283 99.4246C280.582 100.053 278.677 100.368 276.569 100.368ZM276.569 95.0979C277.938 95.0979 279.139 94.7651 280.175 94.0994C281.21 93.4338 282.005 92.4538 282.56 91.1595C283.152 89.8282 283.448 88.1826 283.448 86.2226C283.448 83.2642 282.819 81.0639 281.562 79.6216C280.304 78.1424 278.64 77.4028 276.569 77.4028C275.201 77.4028 273.999 77.7356 272.964 78.4013C271.928 79.03 271.115 80.0099 270.523 81.3412C269.968 82.6355 269.691 84.2627 269.691 86.2226C269.691 89.1441 270.32 91.3629 271.577 92.8791C272.834 94.3583 274.498 95.0979 276.569 95.0979ZM319.207 100.368C316.803 100.368 314.788 99.9608 313.161 99.1472C311.571 98.3337 310.387 97.1503 309.611 95.5971C308.834 94.007 308.446 92.047 308.446 89.7173V77.9021H305.561C304.674 77.9021 303.99 77.6802 303.509 77.2364C303.028 76.7557 302.788 76.1085 302.788 75.2949C302.788 74.4444 303.028 73.7972 303.509 73.3535C303.99 72.9097 304.674 72.6878 305.561 72.6878H308.446V67.64C308.446 66.4936 308.742 65.6246 309.333 65.0329C309.962 64.4412 310.831 64.1454 311.94 64.1454C313.05 64.1454 313.9 64.4412 314.492 65.0329C315.084 65.6246 315.38 66.4936 315.38 67.64V72.6878H321.259C322.147 72.6878 322.831 72.9097 323.312 73.3535C323.793 73.7972 324.033 74.4444 324.033 75.2949C324.033 76.1085 323.793 76.7557 323.312 77.2364C322.831 77.6802 322.147 77.9021 321.259 77.9021H315.38V89.329C315.38 91.104 315.768 92.4353 316.544 93.3228C317.321 94.2104 318.578 94.6541 320.316 94.6541C320.945 94.6541 321.5 94.5986 321.981 94.4877C322.461 94.3768 322.887 94.3028 323.256 94.2658C323.7 94.2288 324.07 94.3768 324.366 94.7096C324.662 95.0054 324.81 95.6341 324.81 96.5956C324.81 97.3352 324.68 98.0008 324.421 98.5925C324.199 99.1472 323.774 99.5355 323.145 99.7574C322.665 99.9053 322.036 100.035 321.259 100.146C320.483 100.294 319.799 100.368 319.207 100.368ZM329.995 100.257C328.886 100.257 328.035 99.9608 327.444 99.3691C326.852 98.7404 326.556 97.8529 326.556 96.7065V63.7571C326.556 62.6107 326.852 61.7417 327.444 61.15C328.035 60.5583 328.886 60.2625 329.995 60.2625C331.105 60.2625 331.955 60.5583 332.547 61.15C333.175 61.7417 333.49 62.6107 333.49 63.7571V78.1239H332.713C333.527 76.164 334.784 74.6848 336.485 73.6863C338.223 72.6509 340.183 72.1331 342.365 72.1331C344.547 72.1331 346.34 72.5399 347.746 73.3535C349.151 74.1671 350.205 75.4059 350.907 77.07C351.61 78.6971 351.961 80.768 351.961 83.2827V96.7065C351.961 97.8529 351.666 98.7404 351.074 99.3691C350.482 99.9608 349.632 100.257 348.522 100.257C347.413 100.257 346.544 99.9608 345.915 99.3691C345.323 98.7404 345.028 97.8529 345.028 96.7065V83.6155C345.028 81.5076 344.621 79.973 343.807 79.0115C343.031 78.05 341.81 77.5692 340.146 77.5692C338.112 77.5692 336.485 78.2164 335.265 79.5107C334.081 80.768 333.49 82.4506 333.49 84.5585V96.7065C333.49 99.0733 332.325 100.257 329.995 100.257ZM370.154 100.368C367.084 100.368 364.44 99.7944 362.221 98.648C360.002 97.5016 358.283 95.8745 357.063 93.7666C355.879 91.6587 355.287 89.1625 355.287 86.2781C355.287 83.4676 355.861 81.0084 357.007 78.9005C358.19 76.7927 359.799 75.147 361.833 73.9637C363.904 72.7433 366.252 72.1331 368.878 72.1331C370.801 72.1331 372.52 72.4475 374.036 73.0761C375.59 73.7048 376.902 74.6108 377.975 75.7942C379.084 76.9776 379.916 78.4198 380.471 80.1209C381.063 81.785 381.359 83.671 381.359 85.7789C381.359 86.4445 381.118 86.9622 380.637 87.332C380.194 87.6648 379.547 87.8313 378.696 87.8313H360.89V83.8374H376.477L375.59 84.6694C375.59 82.9684 375.331 81.5446 374.813 80.3982C374.332 79.2518 373.611 78.3828 372.65 77.7911C371.725 77.1625 370.56 76.8481 369.155 76.8481C367.602 76.8481 366.271 77.2179 365.161 77.9575C364.089 78.6602 363.257 79.6771 362.665 81.0084C362.11 82.3027 361.833 83.8559 361.833 85.6679V86.0562C361.833 89.0886 362.536 91.3629 363.941 92.8791C365.383 94.3583 367.491 95.0979 370.264 95.0979C371.226 95.0979 372.298 94.9869 373.482 94.7651C374.702 94.5062 375.848 94.0809 376.921 93.4892C377.698 93.0455 378.382 92.8606 378.973 92.9345C379.565 92.9715 380.027 93.1749 380.36 93.5447C380.73 93.9145 380.952 94.3768 381.026 94.9315C381.1 95.4492 380.989 95.9854 380.693 96.5401C380.434 97.0948 379.972 97.5756 379.306 97.9823C378.012 98.7959 376.514 99.4061 374.813 99.8129C373.149 100.183 371.596 100.368 370.154 100.368ZM401.022 100.257C399.875 100.257 398.988 99.9608 398.359 99.3691C397.767 98.7404 397.471 97.8529 397.471 96.7065V75.7387C397.471 74.5923 397.767 73.7233 398.359 73.1316C398.951 72.5399 399.783 72.2441 400.855 72.2441C401.928 72.2441 402.76 72.5399 403.351 73.1316C403.943 73.7233 404.239 74.5923 404.239 75.7387V79.2333H403.684C404.202 77.0145 405.219 75.3319 406.735 74.1855C408.251 73.0392 410.267 72.355 412.781 72.1331C413.558 72.0592 414.168 72.2626 414.612 72.7433C415.093 73.1871 415.37 73.8897 415.444 74.8512C415.518 75.7757 415.296 76.5338 414.778 77.1255C414.297 77.6802 413.558 78.013 412.559 78.1239L411.339 78.2349C409.083 78.4568 407.382 79.1594 406.236 80.3428C405.089 81.4891 404.516 83.1163 404.516 85.2242V96.7065C404.516 97.8529 404.22 98.7404 403.629 99.3691C403.037 99.9608 402.168 100.257 401.022 100.257ZM429.91 100.368C426.841 100.368 424.196 99.7944 421.978 98.648C419.759 97.5016 418.039 95.8745 416.819 93.7666C415.636 91.6587 415.044 89.1625 415.044 86.2781C415.044 83.4676 415.617 81.0084 416.763 78.9005C417.947 76.7927 419.555 75.147 421.589 73.9637C423.66 72.7433 426.008 72.1331 428.634 72.1331C430.557 72.1331 432.277 72.4475 433.793 73.0761C435.346 73.7048 436.659 74.6108 437.731 75.7942C438.841 76.9776 439.673 78.4198 440.227 80.1209C440.819 81.785 441.115 83.671 441.115 85.7789C441.115 86.4445 440.875 86.9622 440.394 87.332C439.95 87.6648 439.303 87.8313 438.452 87.8313H420.646V83.8374H436.234L435.346 84.6694C435.346 82.9684 435.087 81.5446 434.569 80.3982C434.089 79.2518 433.368 78.3828 432.406 77.7911C431.482 77.1625 430.317 76.8481 428.911 76.8481C427.358 76.8481 426.027 77.2179 424.918 77.9575C423.845 78.6602 423.013 79.6771 422.421 81.0084C421.867 82.3027 421.589 83.8559 421.589 85.6679V86.0562C421.589 89.0886 422.292 91.3629 423.697 92.8791C425.139 94.3583 427.247 95.0979 430.021 95.0979C430.982 95.0979 432.055 94.9869 433.238 94.7651C434.458 94.5062 435.605 94.0809 436.677 93.4892C437.454 93.0455 438.138 92.8606 438.73 92.9345C439.321 92.9715 439.784 93.1749 440.116 93.5447C440.486 93.9145 440.708 94.3768 440.782 94.9315C440.856 95.4492 440.745 95.9854 440.449 96.5401C440.19 97.0948 439.728 97.5756 439.063 97.9823C437.768 98.7959 436.271 99.4061 434.569 99.8129C432.905 100.183 431.352 100.368 429.91 100.368ZM454.316 100.368C452.726 100.368 451.044 100.201 449.269 99.8683C447.494 99.5355 445.903 98.9623 444.498 98.1488C443.907 97.779 443.481 97.3537 443.222 96.8729C443 96.3552 442.908 95.856 442.945 95.3752C443.019 94.8575 443.204 94.4137 443.5 94.0439C443.833 93.6741 444.239 93.4338 444.72 93.3228C445.238 93.2119 445.793 93.3043 446.384 93.6002C447.863 94.3028 449.25 94.802 450.544 95.0979C451.839 95.3567 453.115 95.4862 454.372 95.4862C456.147 95.4862 457.46 95.1903 458.31 94.5986C459.198 93.97 459.642 93.1564 459.642 92.158C459.642 91.3074 459.346 90.6602 458.754 90.2165C458.199 89.7357 457.349 89.3844 456.202 89.1625L450.655 88.1086C448.363 87.6648 446.606 86.8328 445.386 85.6124C444.202 84.3551 443.611 82.7465 443.611 80.7865C443.611 79.0115 444.091 77.4768 445.053 76.1825C446.051 74.8882 447.42 73.8897 449.158 73.1871C450.896 72.4844 452.893 72.1331 455.149 72.1331C456.776 72.1331 458.292 72.318 459.697 72.6878C461.139 73.0207 462.526 73.5569 463.857 74.2965C464.412 74.5923 464.782 74.9806 464.967 75.4614C465.189 75.9421 465.244 76.4413 465.133 76.9591C465.022 77.4398 464.8 77.8836 464.468 78.2904C464.135 78.6602 463.709 78.9005 463.192 79.0115C462.711 79.0854 462.156 78.9745 461.528 78.6786C460.381 78.087 459.272 77.6617 458.199 77.4028C457.164 77.144 456.165 77.0145 455.204 77.0145C453.392 77.0145 452.042 77.3289 451.155 77.9575C450.304 78.5862 449.879 79.4182 449.879 80.4537C449.879 81.2303 450.138 81.8774 450.655 82.3952C451.173 82.9129 451.968 83.2642 453.041 83.4491L458.588 84.503C460.991 84.9468 462.803 85.7604 464.024 86.9437C465.281 88.1271 465.91 89.7173 465.91 91.7142C465.91 94.4137 464.856 96.5401 462.748 98.0933C460.64 99.6095 457.83 100.368 454.316 100.368ZM481.79 100.368C478.942 100.368 476.465 99.7944 474.357 98.648C472.249 97.4646 470.622 95.8005 469.475 93.6557C468.329 91.5108 467.756 88.9961 467.756 86.1117C467.756 83.9298 468.07 81.9884 468.699 80.2873C469.365 78.5492 470.308 77.0885 471.528 75.9051C472.748 74.6848 474.227 73.7603 475.966 73.1316C477.704 72.466 479.645 72.1331 481.79 72.1331C483.01 72.1331 484.323 72.2995 485.728 72.6324C487.171 72.9652 488.52 73.5199 489.778 74.2965C490.369 74.6663 490.758 75.11 490.943 75.6278C491.127 76.1455 491.164 76.6817 491.053 77.2364C490.943 77.7541 490.702 78.2164 490.332 78.6232C490 78.993 489.574 79.2333 489.057 79.3443C488.539 79.4182 487.966 79.2888 487.337 78.956C486.523 78.4753 485.691 78.1239 484.841 77.9021C483.99 77.6432 483.177 77.5138 482.4 77.5138C481.18 77.5138 480.107 77.7172 479.183 78.1239C478.258 78.4937 477.463 79.0484 476.798 79.7881C476.169 80.4907 475.688 81.3782 475.355 82.4506C475.023 83.5231 474.856 84.7619 474.856 86.1671C474.856 88.9037 475.503 91.067 476.798 92.6572C478.129 94.2104 479.996 94.9869 482.4 94.9869C483.177 94.9869 483.972 94.876 484.785 94.6541C485.636 94.4322 486.486 94.0809 487.337 93.6002C487.966 93.2674 488.52 93.1564 489.001 93.2674C489.519 93.3783 489.944 93.6372 490.277 94.0439C490.61 94.4137 490.813 94.876 490.887 95.4307C490.961 95.9484 490.887 96.4662 490.665 96.9839C490.48 97.5016 490.11 97.9269 489.556 98.2597C488.335 98.9993 487.041 99.5355 485.673 99.8683C484.305 100.201 483.01 100.368 481.79 100.368ZM503.017 100.368C500.761 100.368 498.894 99.9608 497.415 99.1472C495.936 98.2967 494.826 97.0393 494.087 95.3752C493.384 93.7111 493.033 91.6402 493.033 89.1625V75.7387C493.033 74.5553 493.328 73.6863 493.92 73.1316C494.512 72.5399 495.362 72.2441 496.472 72.2441C497.581 72.2441 498.432 72.5399 499.023 73.1316C499.652 73.6863 499.966 74.5553 499.966 75.7387V89.2735C499.966 91.1965 500.355 92.6202 501.131 93.5447C501.908 94.4692 503.147 94.9315 504.848 94.9315C506.697 94.9315 508.213 94.3028 509.396 93.0455C510.58 91.7512 511.171 90.0501 511.171 87.9422V75.7387C511.171 74.5553 511.467 73.6863 512.059 73.1316C512.651 72.5399 513.501 72.2441 514.611 72.2441C515.72 72.2441 516.571 72.5399 517.162 73.1316C517.791 73.6863 518.105 74.5553 518.105 75.7387V96.7065C518.105 99.0733 516.977 100.257 514.722 100.257C513.649 100.257 512.817 99.9608 512.225 99.3691C511.634 98.7404 511.338 97.8529 511.338 96.7065V92.4908L512.114 94.1549C511.338 96.1518 510.154 97.6865 508.564 98.7589C507.011 99.8314 505.162 100.368 503.017 100.368ZM536.472 100.368C533.402 100.368 530.758 99.7944 528.539 98.648C526.321 97.5016 524.601 95.8745 523.381 93.7666C522.197 91.6587 521.606 89.1625 521.606 86.2781C521.606 83.4676 522.179 81.0084 523.325 78.9005C524.509 76.7927 526.117 75.147 528.151 73.9637C530.222 72.7433 532.57 72.1331 535.196 72.1331C537.119 72.1331 538.838 72.4475 540.355 73.0761C541.908 73.7048 543.221 74.6108 544.293 75.7942C545.402 76.9776 546.234 78.4198 546.789 80.1209C547.381 81.785 547.677 83.671 547.677 85.7789C547.677 86.4445 547.436 86.9622 546.956 87.332C546.512 87.6648 545.865 87.8313 545.014 87.8313H527.208V83.8374H542.795L541.908 84.6694C541.908 82.9684 541.649 81.5446 541.131 80.3982C540.65 79.2518 539.929 78.3828 538.968 77.7911C538.043 77.1625 536.878 76.8481 535.473 76.8481C533.92 76.8481 532.589 77.2179 531.479 77.9575C530.407 78.6602 529.575 79.6771 528.983 81.0084C528.428 82.3027 528.151 83.8559 528.151 85.6679V86.0562C528.151 89.0886 528.854 91.3629 530.259 92.8791C531.701 94.3583 533.809 95.0979 536.583 95.0979C537.544 95.0979 538.616 94.9869 539.8 94.7651C541.02 94.5062 542.167 94.0809 543.239 93.4892C544.016 93.0455 544.7 92.8606 545.291 92.9345C545.883 92.9715 546.345 93.1749 546.678 93.5447C547.048 93.9145 547.27 94.3768 547.344 94.9315C547.418 95.4492 547.307 95.9854 547.011 96.5401C546.752 97.0948 546.29 97.5756 545.624 97.9823C544.33 98.7959 542.832 99.4061 541.131 99.8129C539.467 100.183 537.914 100.368 536.472 100.368Z" fill="#343434"/>
</svg>
