<svg width="92" height="22" viewBox="0 0 92 22" fill="none" xmlns="http://www.w3.org/2000/svg">
<path d="M2.312 17C1.88 17 1.544 16.888 1.304 16.664C1.08 16.424 0.968 16.088 0.968 15.656V1.424C0.968 0.991999 1.08 0.663999 1.304 0.439999C1.544 0.199999 1.88 0.079999 2.312 0.079999H8.024C9.192 0.079999 10.184 0.255999 11 0.607999C11.832 0.96 12.464 1.464 12.896 2.12C13.344 2.776 13.568 3.568 13.568 4.496C13.568 5.52 13.264 6.384 12.656 7.088C12.048 7.792 11.224 8.264 10.184 8.504V8.144C11.368 8.304 12.296 8.752 12.968 9.488C13.64 10.208 13.976 11.152 13.976 12.32C13.976 13.824 13.48 14.984 12.488 15.8C11.496 16.6 10.104 17 8.312 17H2.312ZM3.368 15.08H8.024C9.224 15.08 10.112 14.848 10.688 14.384C11.264 13.904 11.552 13.184 11.552 12.224C11.552 11.264 11.264 10.552 10.688 10.088C10.112 9.624 9.224 9.392 8.024 9.392H3.368V15.08ZM3.368 7.472H7.64C8.792 7.472 9.664 7.24 10.256 6.776C10.848 6.312 11.144 5.632 11.144 4.736C11.144 3.84 10.848 3.16 10.256 2.696C9.664 2.232 8.792 2 7.64 2H3.368V7.472ZM20.7594 17.216C19.8154 17.216 19.0234 17.04 18.3834 16.688C17.7594 16.336 17.2874 15.816 16.9674 15.128C16.6634 14.424 16.5114 13.544 16.5114 12.488V6.344C16.5114 5.928 16.6154 5.624 16.8234 5.432C17.0314 5.224 17.3274 5.12 17.7114 5.12C18.0954 5.12 18.3914 5.224 18.5994 5.432C18.8234 5.624 18.9354 5.928 18.9354 6.344V12.512C18.9354 13.456 19.1274 14.152 19.5114 14.6C19.8954 15.048 20.5034 15.272 21.3354 15.272C22.2474 15.272 22.9834 14.968 23.5434 14.36C24.1194 13.736 24.4074 12.92 24.4074 11.912V6.344C24.4074 5.928 24.5114 5.624 24.7194 5.432C24.9274 5.224 25.2314 5.12 25.6314 5.12C26.0154 5.12 26.3114 5.224 26.5194 5.432C26.7274 5.624 26.8314 5.928 26.8314 6.344V15.944C26.8314 16.76 26.4394 17.168 25.6554 17.168C25.2874 17.168 24.9994 17.064 24.7914 16.856C24.5834 16.632 24.4794 16.328 24.4794 15.944V13.904L24.7914 14.432C24.4714 15.328 23.9594 16.016 23.2554 16.496C22.5514 16.976 21.7194 17.216 20.7594 17.216ZM32.5274 21.488C32.2394 21.488 31.9994 21.408 31.8074 21.248C31.6314 21.104 31.5274 20.904 31.4954 20.648C31.4794 20.408 31.5274 20.144 31.6394 19.856L33.2714 16.184V17.216L28.7834 6.776C28.6714 6.488 28.6314 6.216 28.6634 5.96C28.6954 5.704 28.8154 5.504 29.0234 5.36C29.2314 5.2 29.5114 5.12 29.8634 5.12C30.1674 5.12 30.4074 5.192 30.5834 5.336C30.7594 5.48 30.9194 5.728 31.0634 6.08L34.6874 15.032H34.0154L37.6874 6.08C37.8314 5.712 37.9994 5.464 38.1914 5.336C38.3834 5.192 38.6474 5.12 38.9834 5.12C39.2714 5.12 39.4954 5.2 39.6554 5.36C39.8314 5.504 39.9354 5.704 39.9674 5.96C40.0154 6.2 39.9754 6.464 39.8474 6.752L33.8474 20.552C33.6874 20.92 33.5034 21.168 33.2954 21.296C33.1034 21.424 32.8474 21.488 32.5274 21.488ZM48.8043 17.168C48.4203 17.168 48.1243 17.064 47.9163 16.856C47.7083 16.632 47.6043 16.328 47.6043 15.944V6.344C47.6043 5.944 47.7083 5.64 47.9163 5.432C48.1243 5.224 48.4123 5.12 48.7803 5.12C49.1643 5.12 49.4523 5.224 49.6443 5.432C49.8523 5.64 49.9563 5.944 49.9563 6.344V8.216L49.6923 7.784C50.0443 6.888 50.5963 6.216 51.3483 5.768C52.1003 5.304 52.9643 5.072 53.9403 5.072C54.8683 5.072 55.6363 5.248 56.2443 5.6C56.8683 5.936 57.3323 6.456 57.6363 7.16C57.9403 7.848 58.0923 8.72 58.0923 9.776V15.944C58.0923 16.328 57.9883 16.632 57.7803 16.856C57.5723 17.064 57.2763 17.168 56.8923 17.168C56.4923 17.168 56.1883 17.064 55.9803 16.856C55.7723 16.632 55.6683 16.328 55.6683 15.944V9.92C55.6683 8.912 55.4683 8.176 55.0683 7.712C54.6843 7.248 54.0763 7.016 53.2443 7.016C52.2683 7.016 51.4843 7.32 50.8923 7.928C50.3163 8.536 50.0283 9.352 50.0283 10.376V15.944C50.0283 16.76 49.6203 17.168 48.8043 17.168ZM66.0404 17.216C64.8564 17.216 63.8324 16.968 62.9684 16.472C62.1204 15.976 61.4564 15.272 60.9764 14.36C60.4964 13.448 60.2564 12.376 60.2564 11.144C60.2564 10.2 60.3924 9.36 60.6644 8.624C60.9364 7.888 61.3204 7.256 61.8164 6.728C62.3284 6.184 62.9364 5.776 63.6404 5.504C64.3604 5.216 65.1604 5.072 66.0404 5.072C67.2084 5.072 68.2164 5.32 69.0644 5.816C69.9284 6.312 70.6004 7.016 71.0804 7.928C71.5604 8.824 71.8004 9.896 71.8004 11.144C71.8004 12.072 71.6644 12.912 71.3924 13.664C71.1204 14.416 70.7284 15.056 70.2164 15.584C69.7204 16.112 69.1124 16.52 68.3924 16.808C67.6884 17.08 66.9044 17.216 66.0404 17.216ZM66.0404 15.344C66.6964 15.344 67.2724 15.184 67.7684 14.864C68.2644 14.544 68.6484 14.072 68.9204 13.448C69.2084 12.824 69.3524 12.056 69.3524 11.144C69.3524 9.768 69.0484 8.728 68.4404 8.024C67.8324 7.32 67.0324 6.968 66.0404 6.968C65.3684 6.968 64.7844 7.128 64.2884 7.448C63.7924 7.752 63.4004 8.216 63.1124 8.84C62.8404 9.464 62.7044 10.232 62.7044 11.144C62.7044 12.504 63.0084 13.544 63.6164 14.264C64.2244 14.984 65.0324 15.344 66.0404 15.344ZM78.1038 17.168C77.7678 17.168 77.4718 17.088 77.2158 16.928C76.9758 16.752 76.7838 16.48 76.6398 16.112L73.1118 6.776C72.9838 6.456 72.9438 6.176 72.9918 5.936C73.0398 5.68 73.1598 5.48 73.3518 5.336C73.5598 5.192 73.8238 5.12 74.1438 5.12C74.4318 5.12 74.6638 5.192 74.8398 5.336C75.0318 5.464 75.1918 5.72 75.3198 6.104L78.4638 14.96H77.8878L81.1518 6.008C81.2638 5.704 81.4158 5.48 81.6078 5.336C81.7998 5.192 82.0478 5.12 82.3518 5.12C82.6558 5.12 82.9038 5.192 83.0958 5.336C83.3038 5.48 83.4558 5.704 83.5518 6.008L86.7438 14.96H86.2158L89.4078 6.056C89.5358 5.688 89.6958 5.44 89.8878 5.312C90.0958 5.184 90.3278 5.12 90.5838 5.12C90.9038 5.12 91.1438 5.2 91.3038 5.36C91.4798 5.52 91.5758 5.728 91.5918 5.984C91.6238 6.224 91.5838 6.488 91.4718 6.776L87.9438 16.112C87.7998 16.464 87.5998 16.728 87.3438 16.904C87.1038 17.08 86.8238 17.168 86.5038 17.168C86.1678 17.168 85.8718 17.08 85.6158 16.904C85.3758 16.728 85.1838 16.464 85.0398 16.112L81.6798 7.016H82.8798L79.5438 16.112C79.4158 16.464 79.2238 16.728 78.9678 16.904C78.7278 17.08 78.4398 17.168 78.1038 17.168Z" fill="#252121"/>
</svg>
