<svg width="199" height="54" viewBox="0 0 199 54" fill="none" xmlns="http://www.w3.org/2000/svg">
<rect width="199" height="54" rx="27" fill="#E5682E"/>
<path d="M44.66 32C44.404 32 44.2067 31.9307 44.068 31.792C43.9293 31.6533 43.86 31.456 43.86 31.2V21.52C43.86 21.264 43.9293 21.0667 44.068 20.928C44.2067 20.7893 44.404 20.72 44.66 20.72H48.452C49.2307 20.72 49.892 20.8373 50.436 21.072C50.9907 21.3067 51.412 21.6427 51.7 22.08C51.988 22.5173 52.132 23.0453 52.132 23.664C52.132 24.3573 51.9293 24.9387 51.524 25.408C51.1187 25.8773 50.564 26.192 49.86 26.352V26.112C50.6493 26.208 51.268 26.5013 51.716 26.992C52.1747 27.472 52.404 28.1013 52.404 28.88C52.404 29.8827 52.0733 30.656 51.412 31.2C50.7613 31.7333 49.8387 32 48.644 32H44.66ZM45.3 30.832H48.484C49.316 30.832 49.9347 30.672 50.34 30.352C50.7453 30.0213 50.948 29.52 50.948 28.848C50.948 28.176 50.7453 27.68 50.34 27.36C49.9347 27.04 49.316 26.88 48.484 26.88H45.3V30.832ZM45.3 25.696H48.228C49.0387 25.696 49.6467 25.536 50.052 25.216C50.468 24.8853 50.676 24.4107 50.676 23.792C50.676 23.1733 50.468 22.704 50.052 22.384C49.6467 22.0533 49.0387 21.888 48.228 21.888H45.3V25.696ZM56.9914 32.144C56.362 32.144 55.834 32.0267 55.4074 31.792C54.9914 31.5573 54.682 31.2107 54.4794 30.752C54.2767 30.2933 54.1754 29.7173 54.1754 29.024V24.832C54.1754 24.5867 54.234 24.4053 54.3514 24.288C54.4794 24.16 54.6607 24.096 54.8954 24.096C55.13 24.096 55.3114 24.16 55.4394 24.288C55.5674 24.4053 55.6314 24.5867 55.6314 24.832V29.024C55.6314 29.6853 55.7647 30.176 56.0314 30.496C56.298 30.8053 56.7194 30.96 57.2954 30.96C57.9354 30.96 58.4527 30.7467 58.8474 30.32C59.2527 29.8933 59.4554 29.328 59.4554 28.624V24.832C59.4554 24.5867 59.514 24.4053 59.6314 24.288C59.7594 24.16 59.9407 24.096 60.1754 24.096C60.41 24.096 60.5914 24.16 60.7194 24.288C60.8474 24.4053 60.9114 24.5867 60.9114 24.832V31.36C60.9114 31.8613 60.6767 32.112 60.2074 32.112C59.9727 32.112 59.7914 32.048 59.6634 31.92C59.546 31.792 59.4874 31.6053 59.4874 31.36V29.968L59.6954 30.24C59.482 30.8587 59.1354 31.3333 58.6554 31.664C58.186 31.984 57.6314 32.144 56.9914 32.144ZM64.7263 34.992C64.5556 34.992 64.4116 34.944 64.2943 34.848C64.1876 34.7627 64.1236 34.64 64.1023 34.48C64.0916 34.3307 64.1236 34.1707 64.1983 34L65.2863 31.536V32.144L62.2623 25.104C62.1876 24.9227 62.1609 24.7573 62.1823 24.608C62.2036 24.4587 62.2729 24.336 62.3903 24.24C62.5183 24.144 62.6889 24.096 62.9023 24.096C63.0836 24.096 63.2276 24.1387 63.3343 24.224C63.4409 24.3093 63.5423 24.4587 63.6383 24.672L66.1503 30.864H65.7023L68.2623 24.672C68.3476 24.4587 68.4489 24.3093 68.5663 24.224C68.6836 24.1387 68.8436 24.096 69.0463 24.096C69.2276 24.096 69.3663 24.144 69.4623 24.24C69.5689 24.336 69.6329 24.4587 69.6543 24.608C69.6756 24.7573 69.6436 24.9173 69.5583 25.088L65.5263 34.416C65.4196 34.64 65.3076 34.7893 65.1903 34.864C65.0836 34.9493 64.9289 34.992 64.7263 34.992ZM79.7397 32.144C78.6731 32.144 77.7504 31.9093 76.9717 31.44C76.1931 30.96 75.5851 30.288 75.1477 29.424C74.7211 28.5493 74.5077 27.5253 74.5077 26.352C74.5077 25.4667 74.6304 24.672 74.8757 23.968C75.1211 23.2533 75.4677 22.6453 75.9157 22.144C76.3744 21.632 76.9237 21.2427 77.5637 20.976C78.2144 20.7093 78.9397 20.576 79.7397 20.576C80.8064 20.576 81.7291 20.8107 82.5077 21.28C83.2864 21.7493 83.8891 22.416 84.3158 23.28C84.7424 24.144 84.9557 25.1627 84.9557 26.336C84.9557 27.2213 84.8331 28.0213 84.5877 28.736C84.3424 29.4507 83.9904 30.064 83.5317 30.576C83.0837 31.088 82.5397 31.4773 81.8997 31.744C81.2597 32.0107 80.5397 32.144 79.7397 32.144ZM79.7397 30.832C80.5077 30.832 81.1637 30.656 81.7077 30.304C82.2517 29.952 82.6677 29.44 82.9557 28.768C83.2544 28.096 83.4037 27.2907 83.4037 26.352C83.4037 24.9333 83.0837 23.8347 82.4437 23.056C81.8144 22.2773 80.9131 21.888 79.7397 21.888C78.9717 21.888 78.3104 22.064 77.7557 22.416C77.2117 22.7573 76.7957 23.264 76.5077 23.936C76.2197 24.5973 76.0757 25.4027 76.0757 26.352C76.0757 27.76 76.3957 28.8587 77.0357 29.648C77.6757 30.4373 78.5771 30.832 79.7397 30.832ZM87.4755 32.112C87.2515 32.112 87.0755 32.048 86.9475 31.92C86.8195 31.792 86.7555 31.6053 86.7555 31.36V24.832C86.7555 24.5867 86.8195 24.4053 86.9475 24.288C87.0755 24.16 87.2515 24.096 87.4755 24.096C87.6995 24.096 87.8702 24.16 87.9875 24.288C88.1155 24.4053 88.1795 24.5867 88.1795 24.832V26.144L88.0035 25.904C88.2275 25.296 88.5902 24.8373 89.0915 24.528C89.6035 24.2187 90.1848 24.064 90.8355 24.064C91.4648 24.064 91.9822 24.176 92.3875 24.4C92.7928 24.624 93.0968 24.9653 93.2995 25.424C93.5022 25.8827 93.6035 26.464 93.6035 27.168V31.36C93.6035 31.6053 93.5395 31.792 93.4115 31.92C93.2942 32.048 93.1182 32.112 92.8835 32.112C92.6488 32.112 92.4675 32.048 92.3395 31.92C92.2115 31.792 92.1475 31.6053 92.1475 31.36V27.248C92.1475 26.5547 92.0142 26.048 91.7475 25.728C91.4808 25.408 91.0542 25.248 90.4675 25.248C89.7848 25.248 89.2355 25.4613 88.8195 25.888C88.4142 26.304 88.2115 26.8693 88.2115 27.584V31.36C88.2115 31.8613 87.9662 32.112 87.4755 32.112ZM99.4756 32.112C99.2836 32.112 99.129 32.0693 99.0116 31.984C98.905 31.8987 98.841 31.7813 98.8196 31.632C98.7983 31.4827 98.8303 31.3173 98.9156 31.136L103.284 21.248C103.38 21.024 103.502 20.864 103.652 20.768C103.801 20.6613 103.966 20.608 104.148 20.608C104.329 20.608 104.489 20.6613 104.628 20.768C104.777 20.864 104.905 21.024 105.012 21.248L109.38 31.136C109.465 31.3173 109.497 31.488 109.476 31.648C109.465 31.7973 109.406 31.9147 109.3 32C109.193 32.0747 109.044 32.112 108.852 32.112C108.638 32.112 108.468 32.0587 108.34 31.952C108.212 31.8347 108.1 31.6693 108.004 31.456L106.868 28.8L107.556 29.184H100.708L101.396 28.8L100.26 31.456C100.164 31.6907 100.057 31.8613 99.9396 31.968C99.8223 32.064 99.6676 32.112 99.4756 32.112ZM104.116 22.4L101.62 28.304L101.236 27.968H107.028L106.66 28.304L104.148 22.4H104.116ZM111.61 32.112C111.386 32.112 111.21 32.048 111.082 31.92C110.954 31.792 110.89 31.6053 110.89 31.36V24.832C110.89 24.5867 110.954 24.4053 111.082 24.288C111.21 24.16 111.386 24.096 111.61 24.096C111.834 24.096 112.005 24.16 112.122 24.288C112.25 24.4053 112.314 24.5867 112.314 24.832V26.192L112.138 25.904C112.341 25.3173 112.666 24.864 113.114 24.544C113.573 24.224 114.117 24.064 114.746 24.064C115.407 24.064 115.941 24.224 116.346 24.544C116.751 24.8533 117.023 25.328 117.162 25.968H116.938C117.13 25.3813 117.471 24.9173 117.962 24.576C118.463 24.2347 119.045 24.064 119.706 24.064C120.293 24.064 120.773 24.1813 121.146 24.416C121.53 24.64 121.818 24.9813 122.01 25.44C122.202 25.888 122.298 26.464 122.298 27.168V31.36C122.298 31.6053 122.234 31.792 122.106 31.92C121.978 32.048 121.802 32.112 121.578 32.112C121.343 32.112 121.162 32.048 121.034 31.92C120.906 31.792 120.842 31.6053 120.842 31.36V27.232C120.842 26.5493 120.725 26.048 120.49 25.728C120.255 25.408 119.861 25.248 119.306 25.248C118.698 25.248 118.213 25.4613 117.85 25.888C117.498 26.304 117.322 26.88 117.322 27.616V31.36C117.322 31.6053 117.258 31.792 117.13 31.92C117.013 32.048 116.837 32.112 116.602 32.112C116.367 32.112 116.186 32.048 116.058 31.92C115.93 31.792 115.866 31.6053 115.866 31.36V27.232C115.866 26.5493 115.749 26.048 115.514 25.728C115.279 25.408 114.885 25.248 114.33 25.248C113.722 25.248 113.237 25.4613 112.874 25.888C112.522 26.304 112.346 26.88 112.346 27.616V31.36C112.346 31.8613 112.101 32.112 111.61 32.112ZM126.799 32.144C126.266 32.144 125.781 32.0373 125.343 31.824C124.917 31.6107 124.581 31.3227 124.335 30.96C124.101 30.5973 123.983 30.192 123.983 29.744C123.983 29.168 124.127 28.7147 124.415 28.384C124.703 28.0533 125.189 27.8187 125.871 27.68C126.554 27.5307 127.471 27.456 128.623 27.456H129.375V28.384H128.655C127.834 28.384 127.183 28.4213 126.703 28.496C126.234 28.5707 125.903 28.704 125.711 28.896C125.519 29.0773 125.423 29.3333 125.423 29.664C125.423 30.08 125.567 30.4213 125.855 30.688C126.154 30.9547 126.559 31.088 127.071 31.088C127.477 31.088 127.834 30.992 128.143 30.8C128.453 30.5973 128.698 30.3307 128.879 30C129.061 29.6587 129.151 29.2693 129.151 28.832V26.992C129.151 26.3627 129.023 25.9093 128.767 25.632C128.511 25.344 128.079 25.2 127.471 25.2C127.119 25.2 126.757 25.248 126.383 25.344C126.01 25.44 125.621 25.5893 125.215 25.792C125.055 25.8667 124.917 25.8933 124.799 25.872C124.682 25.84 124.586 25.776 124.511 25.68C124.447 25.5733 124.41 25.4613 124.399 25.344C124.399 25.216 124.426 25.0933 124.479 24.976C124.543 24.8587 124.65 24.7733 124.799 24.72C125.269 24.4853 125.733 24.32 126.191 24.224C126.661 24.1173 127.098 24.064 127.503 24.064C128.197 24.064 128.767 24.176 129.215 24.4C129.663 24.6133 129.999 24.9493 130.223 25.408C130.447 25.856 130.559 26.432 130.559 27.136V31.36C130.559 31.6053 130.501 31.792 130.383 31.92C130.266 32.048 130.095 32.112 129.871 32.112C129.658 32.112 129.487 32.048 129.359 31.92C129.242 31.792 129.183 31.6053 129.183 31.36V30.224H129.327C129.242 30.6187 129.082 30.96 128.847 31.248C128.613 31.536 128.319 31.76 127.967 31.92C127.626 32.0693 127.237 32.144 126.799 32.144ZM132.771 32C132.611 32 132.483 31.9627 132.387 31.888C132.291 31.8133 132.221 31.7173 132.179 31.6C132.147 31.4827 132.147 31.3547 132.179 31.216C132.221 31.0773 132.301 30.9387 132.419 30.8L136.851 24.96V25.328H132.675C132.493 25.328 132.349 25.28 132.243 25.184C132.147 25.0773 132.099 24.9387 132.099 24.768C132.099 24.5867 132.147 24.448 132.243 24.352C132.349 24.256 132.493 24.208 132.675 24.208H137.555C137.736 24.208 137.88 24.2453 137.987 24.32C138.104 24.3947 138.179 24.4907 138.211 24.608C138.253 24.7253 138.259 24.8533 138.227 24.992C138.195 25.12 138.12 25.248 138.003 25.376L133.507 31.28V30.88H137.891C138.275 30.88 138.467 31.0667 138.467 31.44C138.467 31.6107 138.413 31.7493 138.307 31.856C138.211 31.952 138.072 32 137.891 32H132.771ZM142.819 32.144C142.051 32.144 141.385 31.9787 140.819 31.648C140.254 31.3173 139.817 30.848 139.507 30.24C139.198 29.632 139.043 28.9173 139.043 28.096C139.043 27.4773 139.129 26.9227 139.299 26.432C139.481 25.9307 139.737 25.504 140.067 25.152C140.398 24.8 140.793 24.5333 141.251 24.352C141.721 24.16 142.243 24.064 142.819 24.064C143.587 24.064 144.254 24.2293 144.819 24.56C145.385 24.8907 145.822 25.36 146.131 25.968C146.441 26.5653 146.595 27.2747 146.595 28.096C146.595 28.7147 146.505 29.2747 146.323 29.776C146.153 30.2773 145.902 30.704 145.571 31.056C145.241 31.408 144.841 31.68 144.371 31.872C143.913 32.0533 143.395 32.144 142.819 32.144ZM142.819 30.992C143.289 30.992 143.694 30.88 144.035 30.656C144.387 30.432 144.654 30.1067 144.835 29.68C145.027 29.2533 145.123 28.7253 145.123 28.096C145.123 27.1573 144.915 26.4427 144.499 25.952C144.083 25.4613 143.523 25.216 142.819 25.216C142.361 25.216 141.955 25.328 141.603 25.552C141.262 25.7653 140.995 26.0853 140.803 26.512C140.611 26.9387 140.515 27.4667 140.515 28.096C140.515 29.0347 140.723 29.7547 141.139 30.256C141.566 30.7467 142.126 30.992 142.819 30.992ZM148.861 32.112C148.637 32.112 148.461 32.048 148.333 31.92C148.205 31.792 148.141 31.6053 148.141 31.36V24.832C148.141 24.5867 148.205 24.4053 148.333 24.288C148.461 24.16 148.637 24.096 148.861 24.096C149.085 24.096 149.255 24.16 149.373 24.288C149.501 24.4053 149.565 24.5867 149.565 24.832V26.144L149.389 25.904C149.613 25.296 149.975 24.8373 150.477 24.528C150.989 24.2187 151.57 24.064 152.221 24.064C152.85 24.064 153.367 24.176 153.773 24.4C154.178 24.624 154.482 24.9653 154.685 25.424C154.887 25.8827 154.989 26.464 154.989 27.168V31.36C154.989 31.6053 154.925 31.792 154.797 31.92C154.679 32.048 154.503 32.112 154.269 32.112C154.034 32.112 153.853 32.048 153.725 31.92C153.597 31.792 153.533 31.6053 153.533 31.36V27.248C153.533 26.5547 153.399 26.048 153.133 25.728C152.866 25.408 152.439 25.248 151.853 25.248C151.17 25.248 150.621 25.4613 150.205 25.888C149.799 26.304 149.597 26.8693 149.597 27.584V31.36C149.597 31.8613 149.351 32.112 148.861 32.112Z" fill="white"/>
</svg>
