<svg width="95" height="46" viewBox="0 0 95 46" fill="none" xmlns="http://www.w3.org/2000/svg">
<rect x="0.5" width="94" height="46" rx="23" fill="#E5682E"/>
<path d="M18.66 28C18.404 28 18.2067 27.9307 18.068 27.792C17.9293 27.6533 17.86 27.456 17.86 27.2V17.52C17.86 17.264 17.9293 17.0667 18.068 16.928C18.2067 16.7893 18.404 16.72 18.66 16.72H22.452C23.2307 16.72 23.892 16.8373 24.436 17.072C24.9907 17.3067 25.412 17.6427 25.7 18.08C25.988 18.5173 26.132 19.0453 26.132 19.664C26.132 20.3573 25.9293 20.9387 25.524 21.408C25.1187 21.8773 24.564 22.192 23.86 22.352V22.112C24.6493 22.208 25.268 22.5013 25.716 22.992C26.1747 23.472 26.404 24.1013 26.404 24.88C26.404 25.8827 26.0733 26.656 25.412 27.2C24.7613 27.7333 23.8387 28 22.644 28H18.66ZM19.3 26.832H22.484C23.316 26.832 23.9347 26.672 24.34 26.352C24.7453 26.0213 24.948 25.52 24.948 24.848C24.948 24.176 24.7453 23.68 24.34 23.36C23.9347 23.04 23.316 22.88 22.484 22.88H19.3V26.832ZM19.3 21.696H22.228C23.0387 21.696 23.6467 21.536 24.052 21.216C24.468 20.8853 24.676 20.4107 24.676 19.792C24.676 19.1733 24.468 18.704 24.052 18.384C23.6467 18.0533 23.0387 17.888 22.228 17.888H19.3V21.696ZM30.9914 28.144C30.362 28.144 29.834 28.0267 29.4074 27.792C28.9914 27.5573 28.682 27.2107 28.4794 26.752C28.2767 26.2933 28.1754 25.7173 28.1754 25.024V20.832C28.1754 20.5867 28.234 20.4053 28.3514 20.288C28.4794 20.16 28.6607 20.096 28.8954 20.096C29.13 20.096 29.3114 20.16 29.4394 20.288C29.5674 20.4053 29.6314 20.5867 29.6314 20.832V25.024C29.6314 25.6853 29.7647 26.176 30.0314 26.496C30.298 26.8053 30.7194 26.96 31.2954 26.96C31.9354 26.96 32.4527 26.7467 32.8474 26.32C33.2527 25.8933 33.4554 25.328 33.4554 24.624V20.832C33.4554 20.5867 33.514 20.4053 33.6314 20.288C33.7594 20.16 33.9407 20.096 34.1754 20.096C34.41 20.096 34.5914 20.16 34.7194 20.288C34.8474 20.4053 34.9114 20.5867 34.9114 20.832V27.36C34.9114 27.8613 34.6767 28.112 34.2074 28.112C33.9727 28.112 33.7914 28.048 33.6634 27.92C33.546 27.792 33.4874 27.6053 33.4874 27.36V25.968L33.6954 26.24C33.482 26.8587 33.1354 27.3333 32.6554 27.664C32.186 27.984 31.6314 28.144 30.9914 28.144ZM38.7263 30.992C38.5556 30.992 38.4116 30.944 38.2943 30.848C38.1876 30.7627 38.1236 30.64 38.1023 30.48C38.0916 30.3307 38.1236 30.1707 38.1983 30L39.2863 27.536V28.144L36.2623 21.104C36.1876 20.9227 36.1609 20.7573 36.1823 20.608C36.2036 20.4587 36.2729 20.336 36.3903 20.24C36.5183 20.144 36.6889 20.096 36.9023 20.096C37.0836 20.096 37.2276 20.1387 37.3343 20.224C37.4409 20.3093 37.5423 20.4587 37.6383 20.672L40.1503 26.864H39.7023L42.2623 20.672C42.3476 20.4587 42.4489 20.3093 42.5663 20.224C42.6836 20.1387 42.8436 20.096 43.0463 20.096C43.2276 20.096 43.3663 20.144 43.4623 20.24C43.5689 20.336 43.6329 20.4587 43.6543 20.608C43.6756 20.7573 43.6436 20.9173 43.5583 21.088L39.5263 30.416C39.4196 30.64 39.3076 30.7893 39.1903 30.864C39.0836 30.9493 38.9289 30.992 38.7263 30.992ZM49.4517 28.112C49.2277 28.112 49.0517 28.048 48.9237 27.92C48.7957 27.792 48.7317 27.6053 48.7317 27.36V20.832C48.7317 20.5867 48.7957 20.4053 48.9237 20.288C49.0517 20.16 49.2277 20.096 49.4517 20.096C49.6757 20.096 49.8464 20.16 49.9637 20.288C50.0917 20.4053 50.1557 20.5867 50.1557 20.832V22.144L49.9797 21.904C50.2037 21.296 50.5664 20.8373 51.0677 20.528C51.5797 20.2187 52.1611 20.064 52.8117 20.064C53.4411 20.064 53.9584 20.176 54.3637 20.4C54.7691 20.624 55.0731 20.9653 55.2757 21.424C55.4784 21.8827 55.5798 22.464 55.5798 23.168V27.36C55.5798 27.6053 55.5157 27.792 55.3877 27.92C55.2704 28.048 55.0944 28.112 54.8597 28.112C54.6251 28.112 54.4437 28.048 54.3157 27.92C54.1877 27.792 54.1237 27.6053 54.1237 27.36V23.248C54.1237 22.5547 53.9904 22.048 53.7237 21.728C53.4571 21.408 53.0304 21.248 52.4437 21.248C51.7611 21.248 51.2117 21.4613 50.7957 21.888C50.3904 22.304 50.1877 22.8693 50.1877 23.584V27.36C50.1877 27.8613 49.9424 28.112 49.4517 28.112ZM60.88 28.144C60.112 28.144 59.4453 27.9787 58.88 27.648C58.3147 27.3173 57.8773 26.848 57.568 26.24C57.2587 25.632 57.104 24.9173 57.104 24.096C57.104 23.4773 57.1893 22.9227 57.36 22.432C57.5413 21.9307 57.7973 21.504 58.128 21.152C58.4587 20.8 58.8533 20.5333 59.312 20.352C59.7813 20.16 60.304 20.064 60.88 20.064C61.648 20.064 62.3147 20.2293 62.88 20.56C63.4453 20.8907 63.8827 21.36 64.192 21.968C64.5013 22.5653 64.656 23.2747 64.656 24.096C64.656 24.7147 64.5653 25.2747 64.384 25.776C64.2133 26.2773 63.9627 26.704 63.632 27.056C63.3013 27.408 62.9013 27.68 62.432 27.872C61.9733 28.0533 61.456 28.144 60.88 28.144ZM60.88 26.992C61.3493 26.992 61.7547 26.88 62.096 26.656C62.448 26.432 62.7147 26.1067 62.896 25.68C63.088 25.2533 63.184 24.7253 63.184 24.096C63.184 23.1573 62.976 22.4427 62.56 21.952C62.144 21.4613 61.584 21.216 60.88 21.216C60.4213 21.216 60.016 21.328 59.664 21.552C59.3227 21.7653 59.056 22.0853 58.864 22.512C58.672 22.9387 58.576 23.4667 58.576 24.096C58.576 25.0347 58.784 25.7547 59.2 26.256C59.6267 26.7467 60.1867 26.992 60.88 26.992ZM68.8441 28.112C68.6415 28.112 68.4655 28.064 68.3161 27.968C68.1668 27.8613 68.0495 27.6907 67.9641 27.456L65.5801 21.104C65.5055 20.9013 65.4841 20.7253 65.5161 20.576C65.5481 20.4267 65.6228 20.3093 65.7401 20.224C65.8575 20.1387 66.0121 20.096 66.2041 20.096C66.3855 20.096 66.5295 20.1387 66.6361 20.224C66.7428 20.3093 66.8335 20.464 66.9081 20.688L69.0841 26.832H68.7001L70.9401 20.656C71.0148 20.464 71.1108 20.3253 71.2281 20.24C71.3561 20.144 71.5108 20.096 71.6921 20.096C71.8841 20.096 72.0441 20.144 72.1721 20.24C72.3001 20.3253 72.3908 20.464 72.4441 20.656L74.6521 26.832H74.2841L76.4921 20.656C76.5668 20.4427 76.6628 20.2987 76.7801 20.224C76.8975 20.1387 77.0415 20.096 77.2121 20.096C77.4041 20.096 77.5481 20.144 77.6441 20.24C77.7401 20.336 77.7935 20.464 77.8041 20.624C77.8255 20.7733 77.8041 20.9333 77.7401 21.104L75.3561 27.456C75.2815 27.68 75.1641 27.8453 75.0041 27.952C74.8548 28.0587 74.6788 28.112 74.4761 28.112C74.2735 28.112 74.0921 28.0587 73.9321 27.952C73.7828 27.8453 73.6655 27.68 73.5801 27.456L71.2921 21.184H72.0281L69.7401 27.456C69.6548 27.68 69.5375 27.8453 69.3881 27.952C69.2388 28.0587 69.0575 28.112 68.8441 28.112Z" fill="white"/>
</svg>
