<svg width="110" height="19" viewBox="0 0 110 19" fill="none" xmlns="http://www.w3.org/2000/svg">
<path d="M8.552 18.216C6.84 18.216 5.376 17.864 4.16 17.16C2.944 16.456 2.008 15.456 1.352 14.16C0.712 12.848 0.392 11.304 0.392 9.528C0.392 8.2 0.576 7.008 0.944 5.952C1.312 4.88 1.84 3.968 2.528 3.216C3.232 2.448 4.088 1.864 5.096 1.464C6.12 1.064 7.272 0.863999 8.552 0.863999C9.496 0.863999 10.4 0.991999 11.264 1.248C12.144 1.504 12.904 1.872 13.544 2.352C13.816 2.528 13.992 2.744 14.072 3C14.168 3.24 14.184 3.472 14.12 3.696C14.072 3.92 13.968 4.112 13.808 4.272C13.648 4.416 13.44 4.496 13.184 4.512C12.944 4.528 12.68 4.44 12.392 4.248C11.864 3.848 11.28 3.552 10.64 3.36C10 3.168 9.328 3.072 8.624 3.072C7.408 3.072 6.384 3.328 5.552 3.84C4.72 4.336 4.088 5.064 3.656 6.024C3.224 6.984 3.008 8.152 3.008 9.528C3.008 10.904 3.224 12.08 3.656 13.056C4.088 14.016 4.72 14.752 5.552 15.264C6.384 15.76 7.408 16.008 8.624 16.008C9.328 16.008 10 15.912 10.64 15.72C11.296 15.512 11.912 15.208 12.488 14.808C12.776 14.632 13.032 14.552 13.256 14.568C13.496 14.584 13.696 14.664 13.856 14.808C14.016 14.952 14.12 15.136 14.168 15.36C14.232 15.568 14.224 15.792 14.144 16.032C14.08 16.256 13.928 16.448 13.688 16.608C13.032 17.136 12.256 17.536 11.36 17.808C10.464 18.08 9.528 18.216 8.552 18.216ZM20.687 18.216C19.503 18.216 18.479 17.968 17.615 17.472C16.767 16.976 16.103 16.272 15.623 15.36C15.143 14.448 14.903 13.376 14.903 12.144C14.903 11.2 15.039 10.36 15.311 9.624C15.583 8.888 15.967 8.256 16.463 7.728C16.975 7.184 17.583 6.776 18.287 6.504C19.007 6.216 19.807 6.072 20.687 6.072C21.855 6.072 22.863 6.32 23.711 6.816C24.575 7.312 25.247 8.016 25.727 8.928C26.207 9.824 26.447 10.896 26.447 12.144C26.447 13.072 26.311 13.912 26.039 14.664C25.767 15.416 25.375 16.056 24.863 16.584C24.367 17.112 23.759 17.52 23.039 17.808C22.335 18.08 21.551 18.216 20.687 18.216ZM20.687 16.344C21.343 16.344 21.919 16.184 22.415 15.864C22.911 15.544 23.295 15.072 23.567 14.448C23.855 13.824 23.999 13.056 23.999 12.144C23.999 10.768 23.695 9.728 23.087 9.024C22.479 8.32 21.679 7.968 20.687 7.968C20.015 7.968 19.431 8.128 18.935 8.448C18.439 8.752 18.047 9.216 17.759 9.84C17.487 10.464 17.351 11.232 17.351 12.144C17.351 13.504 17.655 14.544 18.263 15.264C18.871 15.984 19.679 16.344 20.687 16.344ZM29.8893 18.168C29.5053 18.168 29.2093 18.064 29.0013 17.856C28.7933 17.632 28.6893 17.328 28.6893 16.944V7.344C28.6893 6.944 28.7933 6.64 29.0013 6.432C29.2093 6.224 29.4973 6.12 29.8653 6.12C30.2493 6.12 30.5373 6.224 30.7293 6.432C30.9373 6.64 31.0413 6.944 31.0413 7.344V9.216L30.7773 8.784C31.1293 7.888 31.6813 7.216 32.4333 6.768C33.1853 6.304 34.0493 6.072 35.0253 6.072C35.9533 6.072 36.7213 6.248 37.3293 6.6C37.9533 6.936 38.4173 7.456 38.7213 8.16C39.0253 8.848 39.1773 9.72 39.1773 10.776V16.944C39.1773 17.328 39.0733 17.632 38.8653 17.856C38.6573 18.064 38.3613 18.168 37.9773 18.168C37.5773 18.168 37.2733 18.064 37.0653 17.856C36.8573 17.632 36.7533 17.328 36.7533 16.944V10.92C36.7533 9.912 36.5533 9.176 36.1533 8.712C35.7693 8.248 35.1613 8.016 34.3293 8.016C33.3533 8.016 32.5693 8.32 31.9773 8.928C31.4013 9.536 31.1133 10.352 31.1133 11.376V16.944C31.1133 17.76 30.7053 18.168 29.8893 18.168ZM47.0294 18.216C46.0694 18.216 45.2614 18.048 44.6054 17.712C43.9494 17.376 43.4614 16.88 43.1414 16.224C42.8214 15.568 42.6614 14.768 42.6614 13.824V8.16H41.2214C40.9014 8.16 40.6534 8.08 40.4774 7.92C40.3014 7.744 40.2134 7.512 40.2134 7.224C40.2134 6.92 40.3014 6.688 40.4774 6.528C40.6534 6.368 40.9014 6.288 41.2214 6.288H42.6614V3.816C42.6614 3.416 42.7654 3.112 42.9734 2.904C43.1974 2.696 43.5014 2.592 43.8854 2.592C44.2694 2.592 44.5654 2.696 44.7734 2.904C44.9814 3.112 45.0854 3.416 45.0854 3.816V6.288H47.8934C48.2134 6.288 48.4614 6.368 48.6374 6.528C48.8134 6.688 48.9014 6.92 48.9014 7.224C48.9014 7.512 48.8134 7.744 48.6374 7.92C48.4614 8.08 48.2134 8.16 47.8934 8.16H45.0854V13.632C45.0854 14.48 45.2614 15.12 45.6134 15.552C45.9814 15.984 46.5734 16.2 47.3894 16.2C47.6774 16.2 47.9254 16.176 48.1334 16.128C48.3574 16.064 48.5414 16.024 48.6854 16.008C48.8614 16.008 49.0054 16.072 49.1174 16.2C49.2294 16.312 49.2854 16.536 49.2854 16.872C49.2854 17.112 49.2374 17.336 49.1414 17.544C49.0614 17.752 48.9094 17.888 48.6854 17.952C48.4934 18.016 48.2294 18.072 47.8934 18.12C47.5734 18.184 47.2854 18.216 47.0294 18.216ZM54.0671 18.216C53.2511 18.216 52.5151 18.056 51.8591 17.736C51.2191 17.416 50.7151 16.984 50.3471 16.44C49.9791 15.896 49.7951 15.28 49.7951 14.592C49.7951 13.728 50.0111 13.048 50.4431 12.552C50.8911 12.04 51.6191 11.68 52.6271 11.472C53.6511 11.248 55.0271 11.136 56.7551 11.136H57.8831V12.624H56.7791C55.6271 12.624 54.7151 12.68 54.0431 12.792C53.3711 12.904 52.8911 13.096 52.6031 13.368C52.3311 13.624 52.1951 13.984 52.1951 14.448C52.1951 15.056 52.4031 15.552 52.8191 15.936C53.2351 16.304 53.8111 16.488 54.5471 16.488C55.1391 16.488 55.6591 16.352 56.1071 16.08C56.5551 15.792 56.9071 15.408 57.1631 14.928C57.4351 14.448 57.5711 13.896 57.5711 13.272V10.512C57.5711 9.6 57.3791 8.944 56.9951 8.544C56.6111 8.144 55.9791 7.944 55.0991 7.944C54.5871 7.944 54.0511 8.008 53.4911 8.136C52.9471 8.264 52.3791 8.48 51.7871 8.784C51.5151 8.912 51.2831 8.952 51.0911 8.904C50.8991 8.856 50.7471 8.752 50.6351 8.592C50.5231 8.416 50.4591 8.232 50.4431 8.04C50.4431 7.832 50.4911 7.632 50.5871 7.44C50.6991 7.248 50.8831 7.104 51.1391 7.008C51.8431 6.672 52.5391 6.432 53.2271 6.288C53.9151 6.144 54.5631 6.072 55.1711 6.072C56.2431 6.072 57.1231 6.24 57.8111 6.576C58.5151 6.912 59.0351 7.424 59.3711 8.112C59.7071 8.8 59.8751 9.688 59.8751 10.776V16.944C59.8751 17.328 59.7791 17.632 59.5871 17.856C59.3951 18.064 59.1151 18.168 58.7471 18.168C58.3951 18.168 58.1151 18.064 57.9071 17.856C57.6991 17.632 57.5951 17.328 57.5951 16.944V15.384H57.8111C57.6831 15.976 57.4431 16.488 57.0911 16.92C56.7551 17.336 56.3311 17.656 55.8191 17.88C55.3071 18.104 54.7231 18.216 54.0671 18.216ZM67.8937 18.216C66.6937 18.216 65.6537 17.968 64.7737 17.472C63.9097 16.96 63.2377 16.248 62.7577 15.336C62.2777 14.408 62.0377 13.32 62.0377 12.072C62.0377 11.144 62.1737 10.312 62.4457 9.576C62.7177 8.824 63.1017 8.192 63.5977 7.68C64.1097 7.168 64.7257 6.776 65.4457 6.504C66.1817 6.216 66.9977 6.072 67.8937 6.072C68.4537 6.072 69.0377 6.16 69.6457 6.336C70.2697 6.496 70.8457 6.768 71.3737 7.152C71.5817 7.28 71.7097 7.44 71.7577 7.632C71.8217 7.808 71.8297 7.992 71.7817 8.184C71.7497 8.376 71.6617 8.544 71.5177 8.688C71.3897 8.816 71.2297 8.896 71.0377 8.928C70.8457 8.944 70.6377 8.888 70.4137 8.76C70.0297 8.488 69.6377 8.296 69.2377 8.184C68.8377 8.056 68.4537 7.992 68.0857 7.992C67.5097 7.992 66.9977 8.088 66.5497 8.28C66.1177 8.456 65.7497 8.72 65.4457 9.072C65.1417 9.408 64.9097 9.832 64.7497 10.344C64.6057 10.856 64.5337 11.44 64.5337 12.096C64.5337 13.408 64.8377 14.44 65.4457 15.192C66.0697 15.928 66.9497 16.296 68.0857 16.296C68.4537 16.296 68.8377 16.24 69.2377 16.128C69.6377 16.016 70.0297 15.824 70.4137 15.552C70.6377 15.424 70.8457 15.376 71.0377 15.408C71.2297 15.44 71.3817 15.528 71.4937 15.672C71.6217 15.8 71.7017 15.96 71.7337 16.152C71.7817 16.328 71.7737 16.512 71.7097 16.704C71.6457 16.896 71.5097 17.056 71.3017 17.184C70.7897 17.552 70.2297 17.816 69.6217 17.976C69.0297 18.136 68.4537 18.216 67.8937 18.216ZM78.4723 18.216C77.5123 18.216 76.7043 18.048 76.0483 17.712C75.3923 17.376 74.9043 16.88 74.5843 16.224C74.2643 15.568 74.1043 14.768 74.1043 13.824V8.16H72.6643C72.3443 8.16 72.0963 8.08 71.9203 7.92C71.7443 7.744 71.6563 7.512 71.6563 7.224C71.6563 6.92 71.7443 6.688 71.9203 6.528C72.0963 6.368 72.3443 6.288 72.6643 6.288H74.1043V3.816C74.1043 3.416 74.2083 3.112 74.4163 2.904C74.6403 2.696 74.9443 2.592 75.3283 2.592C75.7123 2.592 76.0083 2.696 76.2163 2.904C76.4243 3.112 76.5283 3.416 76.5283 3.816V6.288H79.3363C79.6563 6.288 79.9043 6.368 80.0803 6.528C80.2563 6.688 80.3443 6.92 80.3443 7.224C80.3443 7.512 80.2563 7.744 80.0803 7.92C79.9043 8.08 79.6563 8.16 79.3363 8.16H76.5283V13.632C76.5283 14.48 76.7043 15.12 77.0563 15.552C77.4243 15.984 78.0163 16.2 78.8323 16.2C79.1203 16.2 79.3683 16.176 79.5763 16.128C79.8003 16.064 79.9843 16.024 80.1283 16.008C80.3043 16.008 80.4483 16.072 80.5603 16.2C80.6723 16.312 80.7283 16.536 80.7283 16.872C80.7283 17.112 80.6803 17.336 80.5843 17.544C80.5043 17.752 80.3523 17.888 80.1283 17.952C79.9363 18.016 79.6723 18.072 79.3363 18.12C79.0163 18.184 78.7283 18.216 78.4723 18.216ZM91.79 18.216C90.846 18.216 90.054 18.04 89.414 17.688C88.79 17.336 88.318 16.816 87.998 16.128C87.694 15.424 87.542 14.544 87.542 13.488V7.344C87.542 6.928 87.646 6.624 87.854 6.432C88.062 6.224 88.358 6.12 88.742 6.12C89.126 6.12 89.422 6.224 89.63 6.432C89.854 6.624 89.966 6.928 89.966 7.344V13.512C89.966 14.456 90.158 15.152 90.542 15.6C90.926 16.048 91.534 16.272 92.366 16.272C93.278 16.272 94.014 15.968 94.574 15.36C95.15 14.736 95.438 13.92 95.438 12.912V7.344C95.438 6.928 95.542 6.624 95.75 6.432C95.958 6.224 96.262 6.12 96.662 6.12C97.046 6.12 97.342 6.224 97.55 6.432C97.758 6.624 97.862 6.928 97.862 7.344V16.944C97.862 17.76 97.47 18.168 96.686 18.168C96.318 18.168 96.03 18.064 95.822 17.856C95.614 17.632 95.51 17.328 95.51 16.944V14.904L95.822 15.432C95.502 16.328 94.99 17.016 94.286 17.496C93.582 17.976 92.75 18.216 91.79 18.216ZM104.902 18.216C104.198 18.216 103.47 18.136 102.718 17.976C101.982 17.816 101.302 17.544 100.678 17.16C100.47 17.016 100.326 16.856 100.246 16.68C100.166 16.504 100.134 16.328 100.15 16.152C100.182 15.96 100.254 15.8 100.366 15.672C100.494 15.528 100.646 15.44 100.822 15.408C101.014 15.376 101.214 15.416 101.422 15.528C102.046 15.88 102.646 16.128 103.222 16.272C103.798 16.4 104.366 16.464 104.926 16.464C105.774 16.464 106.414 16.312 106.846 16.008C107.278 15.704 107.494 15.296 107.494 14.784C107.494 14.368 107.35 14.048 107.062 13.824C106.774 13.584 106.342 13.4 105.766 13.272L103.486 12.816C102.494 12.608 101.742 12.24 101.23 11.712C100.718 11.184 100.462 10.512 100.462 9.696C100.462 8.96 100.662 8.32 101.062 7.776C101.462 7.232 102.022 6.816 102.742 6.528C103.462 6.224 104.294 6.072 105.238 6.072C105.942 6.072 106.606 6.16 107.23 6.336C107.854 6.512 108.43 6.776 108.958 7.128C109.166 7.24 109.302 7.392 109.366 7.584C109.43 7.76 109.438 7.936 109.39 8.112C109.358 8.288 109.278 8.448 109.15 8.592C109.022 8.72 108.862 8.8 108.67 8.832C108.494 8.848 108.294 8.8 108.07 8.688C107.59 8.384 107.11 8.168 106.63 8.04C106.166 7.912 105.702 7.848 105.238 7.848C104.39 7.848 103.75 8.008 103.318 8.328C102.902 8.632 102.694 9.048 102.694 9.576C102.694 9.976 102.822 10.304 103.078 10.56C103.334 10.816 103.734 11 104.278 11.112L106.558 11.568C107.598 11.776 108.382 12.128 108.91 12.624C109.454 13.12 109.726 13.792 109.726 14.64C109.726 15.744 109.286 16.616 108.406 17.256C107.526 17.896 106.358 18.216 104.902 18.216Z" fill="#252121"/>
</svg>
