<svg width="1440" height="1040" viewBox="0 0 1440 1040" fill="none" xmlns="http://www.w3.org/2000/svg">
<rect width="1440" height="1040" fill="white"/>
<g filter="url(#filter0_b_180_1414)">
<rect x="80" y="325.902" width="547" height="97" rx="48.5" fill="white"/>
<rect x="80.5" y="326.402" width="546" height="96" rx="48" stroke="#B2B2B2"/>
<path d="M130.343 382.402V365.242H140.351V366.946H132.431V372.778H138.815V374.482H132.431V380.698H140.783V382.402H130.343ZM143.312 382.402V369.85H145.304V371.842C145.88 370.666 147.272 369.634 149.336 369.634C151.928 369.634 153.752 371.05 153.752 374.698V382.402H151.76V374.554C151.76 372.346 150.824 371.362 148.808 371.362C146.96 371.362 145.304 372.538 145.304 374.794V382.402H143.312ZM160.992 382.57C158.712 382.57 157.608 381.226 157.608 379.258V371.53H155.808V369.85H157.608V366.994H159.6V369.85H162.528V371.53H159.6V379.066C159.6 380.29 160.152 380.89 161.16 380.89C161.784 380.89 162.264 380.794 162.696 380.626V382.306C162.288 382.45 161.808 382.57 160.992 382.57ZM170.363 382.618C166.811 382.618 164.291 380.122 164.291 376.258V376.066C164.291 372.274 166.715 369.634 170.171 369.634C173.075 369.634 175.811 371.386 175.811 375.874V376.522H166.355C166.451 379.378 167.819 380.962 170.387 380.962C172.331 380.962 173.459 380.242 173.723 378.778H175.715C175.283 381.298 173.195 382.618 170.363 382.618ZM166.427 374.914H173.771C173.579 372.322 172.235 371.29 170.171 371.29C168.131 371.29 166.763 372.682 166.427 374.914ZM178.388 382.402V369.85H180.38V372.106C181.172 370.69 182.252 369.706 184.508 369.634V371.506C181.988 371.626 180.38 372.418 180.38 375.514V382.402H178.388ZM193.931 386.77L196.307 381.106L191.387 369.85H193.523L197.363 378.85L200.843 369.85H202.883L195.947 386.77H193.931ZM209.907 380.962C212.427 380.962 214.011 379.066 214.011 376.234V376.066C214.011 373.162 212.403 371.29 209.907 371.29C207.387 371.29 205.803 373.162 205.803 376.042V376.234C205.803 379.09 207.363 380.962 209.907 380.962ZM209.883 382.618C206.307 382.618 203.739 379.906 203.739 376.234V376.042C203.739 372.274 206.355 369.634 209.907 369.634C213.459 369.634 216.075 372.25 216.075 376.018V376.21C216.075 380.002 213.459 382.618 209.883 382.618ZM222.927 382.618C220.431 382.618 218.559 381.25 218.559 377.794V369.85H220.551V377.698C220.551 379.906 221.487 380.89 223.455 380.89C225.231 380.89 226.911 379.714 226.911 377.458V369.85H228.903V382.402H226.911V380.41C226.335 381.586 224.943 382.618 222.927 382.618ZM232.449 382.402V369.85H234.441V372.106C235.233 370.69 236.313 369.706 238.569 369.634V371.506C236.049 371.626 234.441 372.418 234.441 375.514V382.402H232.449ZM247.296 382.402V371.53H245.496V369.85H247.296V367.81C247.296 365.266 248.52 363.778 250.992 363.778C251.64 363.778 251.976 363.826 252.36 363.97V365.65C252 365.506 251.616 365.434 251.064 365.434C249.792 365.434 249.288 366.322 249.288 367.594V369.85H252.36V371.53H249.288V382.402H247.296ZM254.377 382.402V369.85H256.369V382.402H254.377ZM255.337 367.234C254.617 367.234 254.017 366.634 254.017 365.914C254.017 365.194 254.617 364.594 255.337 364.594C256.057 364.594 256.657 365.194 256.657 365.914C256.657 366.634 256.057 367.234 255.337 367.234ZM259.966 382.402V369.85H261.958V372.106C262.75 370.69 263.83 369.706 266.086 369.634V371.506C263.566 371.626 261.958 372.418 261.958 375.514V382.402H259.966ZM272.281 382.618C269.281 382.618 267.481 381.106 267.361 378.538H269.305C269.449 380.026 270.241 380.962 272.257 380.962C274.153 380.962 274.993 380.314 274.993 378.97C274.993 377.65 274.009 377.218 272.065 376.858C268.801 376.258 267.697 375.346 267.697 373.162C267.697 370.834 269.977 369.634 271.945 369.634C274.201 369.634 276.145 370.546 276.481 373.258H274.561C274.273 371.89 273.505 371.29 271.921 371.29C270.481 371.29 269.545 372.01 269.545 373.09C269.545 374.218 270.169 374.674 272.473 375.082C275.065 375.562 276.889 376.138 276.889 378.802C276.889 381.082 275.329 382.618 272.281 382.618ZM283.26 382.57C280.98 382.57 279.876 381.226 279.876 379.258V371.53H278.076V369.85H279.876V366.994H281.868V369.85H284.796V371.53H281.868V379.066C281.868 380.29 282.42 380.89 283.428 380.89C284.052 380.89 284.532 380.794 284.964 380.626V382.306C284.556 382.45 284.076 382.57 283.26 382.57ZM293.367 382.402V369.85H295.359V371.842C295.935 370.666 297.327 369.634 299.391 369.634C301.983 369.634 303.807 371.05 303.807 374.698V382.402H301.815V374.554C301.815 372.346 300.879 371.362 298.863 371.362C297.015 371.362 295.359 372.538 295.359 374.794V382.402H293.367ZM310.374 382.618C308.046 382.618 306.198 381.49 306.198 378.922C306.198 376.018 309.27 375.034 312.486 375.034H314.286V374.122C314.286 372.13 313.518 371.29 311.598 371.29C309.87 371.29 308.91 372.01 308.718 373.546H306.726C306.99 370.69 309.27 369.634 311.694 369.634C314.094 369.634 316.278 370.618 316.278 374.122V382.402H314.286V380.818C313.35 381.994 312.222 382.618 310.374 382.618ZM310.566 381.034C312.678 381.034 314.286 379.954 314.286 378.01V376.45H312.558C310.038 376.45 308.19 377.074 308.19 378.922C308.19 380.218 308.814 381.034 310.566 381.034ZM319.711 382.402V369.85H321.703V371.77C322.279 370.594 323.647 369.634 325.447 369.634C327.055 369.634 328.471 370.306 329.119 371.986C329.983 370.354 331.855 369.634 333.415 369.634C335.671 369.634 337.639 370.978 337.639 374.626V382.402H335.647V374.482C335.647 372.274 334.711 371.362 332.983 371.362C331.351 371.362 329.671 372.466 329.671 374.722V382.402H327.679V374.482C327.679 372.274 326.743 371.362 325.015 371.362C323.383 371.362 321.703 372.466 321.703 374.722V382.402H319.711ZM346.211 382.618C342.659 382.618 340.139 380.122 340.139 376.258V376.066C340.139 372.274 342.563 369.634 346.019 369.634C348.923 369.634 351.659 371.386 351.659 375.874V376.522H342.203C342.299 379.378 343.667 380.962 346.235 380.962C348.179 380.962 349.307 380.242 349.571 378.778H351.563C351.131 381.298 349.043 382.618 346.211 382.618ZM342.275 374.914H349.619C349.427 372.322 348.083 371.29 346.019 371.29C343.979 371.29 342.611 372.682 342.275 374.914Z" fill="black" fill-opacity="0.3"/>
<rect x="127" y="291.902" width="165" height="26" rx="13" fill="white"/>
<path d="M132.44 309.902V298.462H139.112V299.598H133.832V303.486H138.088V304.622H133.832V308.766H139.4V309.902H132.44ZM141.407 309.902V301.534H142.735V302.862C143.119 302.078 144.047 301.39 145.423 301.39C147.151 301.39 148.367 302.334 148.367 304.766V309.902H147.039V304.67C147.039 303.198 146.415 302.542 145.071 302.542C143.839 302.542 142.735 303.326 142.735 304.83V309.902H141.407ZM153.513 310.014C151.993 310.014 151.257 309.118 151.257 307.806V302.654H150.057V301.534H151.257V299.63H152.585V301.534H154.537V302.654H152.585V307.678C152.585 308.494 152.953 308.894 153.625 308.894C154.041 308.894 154.361 308.83 154.649 308.718V309.838C154.377 309.934 154.057 310.014 153.513 310.014ZM160.081 310.046C157.713 310.046 156.033 308.382 156.033 305.806V305.678C156.033 303.15 157.649 301.39 159.953 301.39C161.889 301.39 163.713 302.558 163.713 305.55V305.982H157.409C157.473 307.886 158.385 308.942 160.097 308.942C161.393 308.942 162.145 308.462 162.321 307.486H163.649C163.361 309.166 161.969 310.046 160.081 310.046ZM157.457 304.91H162.353C162.225 303.182 161.329 302.494 159.953 302.494C158.593 302.494 157.681 303.422 157.457 304.91ZM165.75 309.902V301.534H167.078V303.038C167.606 302.094 168.326 301.438 169.83 301.39V302.638C168.15 302.718 167.078 303.246 167.078 305.31V309.902H165.75ZM176.752 312.814L178.336 309.038L175.056 301.534H176.48L179.04 307.534L181.36 301.534H182.72L178.096 312.814H176.752ZM187.723 308.942C189.403 308.942 190.459 307.678 190.459 305.79V305.678C190.459 303.742 189.387 302.494 187.723 302.494C186.043 302.494 184.987 303.742 184.987 305.662V305.79C184.987 307.694 186.027 308.942 187.723 308.942ZM187.707 310.046C185.323 310.046 183.611 308.238 183.611 305.79V305.662C183.611 303.15 185.355 301.39 187.723 301.39C190.091 301.39 191.835 303.134 191.835 305.646V305.774C191.835 308.302 190.091 310.046 187.707 310.046ZM196.723 310.046C195.059 310.046 193.811 309.134 193.811 306.83V301.534H195.139V306.766C195.139 308.238 195.763 308.894 197.075 308.894C198.259 308.894 199.379 308.11 199.379 306.606V301.534H200.707V309.902H199.379V308.574C198.995 309.358 198.067 310.046 196.723 310.046ZM203.391 309.902V301.534H204.719V303.038C205.247 302.094 205.967 301.438 207.471 301.39V302.638C205.791 302.718 204.719 303.246 204.719 305.31V309.902H203.391ZM213.929 309.902V302.654H212.729V301.534H213.929V300.174C213.929 298.478 214.745 297.486 216.393 297.486C216.825 297.486 217.049 297.518 217.305 297.614V298.734C217.065 298.638 216.809 298.59 216.441 298.59C215.593 298.59 215.257 299.182 215.257 300.03V301.534H217.305V302.654H215.257V309.902H213.929ZM218.97 309.902V301.534H220.298V309.902H218.97ZM219.61 299.79C219.13 299.79 218.73 299.39 218.73 298.91C218.73 298.43 219.13 298.03 219.61 298.03C220.09 298.03 220.49 298.43 220.49 298.91C220.49 299.39 220.09 299.79 219.61 299.79ZM223.016 309.902V301.534H224.344V303.038C224.872 302.094 225.592 301.438 227.096 301.39V302.638C225.416 302.718 224.344 303.246 224.344 305.31V309.902H223.016ZM231.545 310.046C229.545 310.046 228.345 309.038 228.265 307.326H229.561C229.657 308.318 230.185 308.942 231.529 308.942C232.793 308.942 233.353 308.51 233.353 307.614C233.353 306.734 232.697 306.446 231.401 306.206C229.225 305.806 228.489 305.198 228.489 303.742C228.489 302.19 230.009 301.39 231.321 301.39C232.825 301.39 234.121 301.998 234.345 303.806H233.065C232.873 302.894 232.361 302.494 231.305 302.494C230.345 302.494 229.721 302.974 229.721 303.694C229.721 304.446 230.137 304.75 231.673 305.022C233.401 305.342 234.617 305.726 234.617 307.502C234.617 309.022 233.577 310.046 231.545 310.046ZM239.185 310.014C237.665 310.014 236.929 309.118 236.929 307.806V302.654H235.729V301.534H236.929V299.63H238.257V301.534H240.209V302.654H238.257V307.678C238.257 308.494 238.625 308.894 239.297 308.894C239.713 308.894 240.033 308.83 240.321 308.718V309.838C240.049 309.934 239.729 310.014 239.185 310.014ZM246.563 309.902V301.534H247.891V302.862C248.275 302.078 249.203 301.39 250.579 301.39C252.307 301.39 253.523 302.334 253.523 304.766V309.902H252.195V304.67C252.195 303.198 251.571 302.542 250.227 302.542C248.995 302.542 247.891 303.326 247.891 304.83V309.902H246.563ZM258.221 310.046C256.669 310.046 255.437 309.294 255.437 307.582C255.437 305.646 257.485 304.99 259.629 304.99H260.829V304.382C260.829 303.054 260.317 302.494 259.037 302.494C257.885 302.494 257.245 302.974 257.117 303.998H255.789C255.965 302.094 257.485 301.39 259.101 301.39C260.701 301.39 262.157 302.046 262.157 304.382V309.902H260.829V308.846C260.205 309.63 259.453 310.046 258.221 310.046ZM258.349 308.99C259.757 308.99 260.829 308.27 260.829 306.974V305.934H259.677C257.997 305.934 256.765 306.35 256.765 307.582C256.765 308.446 257.181 308.99 258.349 308.99ZM264.766 309.902V301.534H266.094V302.814C266.478 302.03 267.39 301.39 268.59 301.39C269.662 301.39 270.606 301.838 271.038 302.958C271.614 301.87 272.862 301.39 273.902 301.39C275.406 301.39 276.718 302.286 276.718 304.718V309.902H275.39V304.622C275.39 303.15 274.766 302.542 273.614 302.542C272.526 302.542 271.406 303.278 271.406 304.782V309.902H270.078V304.622C270.078 303.15 269.454 302.542 268.302 302.542C267.214 302.542 266.094 303.278 266.094 304.782V309.902H264.766ZM282.752 310.046C280.384 310.046 278.704 308.382 278.704 305.806V305.678C278.704 303.15 280.32 301.39 282.624 301.39C284.56 301.39 286.384 302.558 286.384 305.55V305.982H280.08C280.144 307.886 281.056 308.942 282.768 308.942C284.064 308.942 284.816 308.462 284.992 307.486H286.32C286.032 309.166 284.64 310.046 282.752 310.046ZM280.128 304.91H285.024C284.896 303.182 284 302.494 282.624 302.494C281.264 302.494 280.352 303.422 280.128 304.91Z" fill="#303030"/>
</g>
<g filter="url(#filter1_b_180_1414)">
<rect x="647" y="325.902" width="546" height="97" rx="48.5" fill="white"/>
<rect x="647.5" y="326.402" width="545" height="96" rx="48" stroke="#B2B2B2"/>
<rect x="694" y="291.902" width="162" height="26" rx="13" fill="white"/>
<path d="M699.44 309.902V298.462H706.112V299.598H700.832V303.486H705.088V304.622H700.832V308.766H706.4V309.902H699.44ZM708.407 309.902V301.534H709.735V302.862C710.119 302.078 711.047 301.39 712.423 301.39C714.151 301.39 715.367 302.334 715.367 304.766V309.902H714.039V304.67C714.039 303.198 713.415 302.542 712.071 302.542C710.839 302.542 709.735 303.326 709.735 304.83V309.902H708.407ZM720.513 310.014C718.993 310.014 718.257 309.118 718.257 307.806V302.654H717.057V301.534H718.257V299.63H719.585V301.534H721.537V302.654H719.585V307.678C719.585 308.494 719.953 308.894 720.625 308.894C721.041 308.894 721.361 308.83 721.649 308.718V309.838C721.377 309.934 721.057 310.014 720.513 310.014ZM727.081 310.046C724.713 310.046 723.033 308.382 723.033 305.806V305.678C723.033 303.15 724.649 301.39 726.953 301.39C728.889 301.39 730.713 302.558 730.713 305.55V305.982H724.409C724.473 307.886 725.385 308.942 727.097 308.942C728.393 308.942 729.145 308.462 729.321 307.486H730.649C730.361 309.166 728.969 310.046 727.081 310.046ZM724.457 304.91H729.353C729.225 303.182 728.329 302.494 726.953 302.494C725.593 302.494 724.681 303.422 724.457 304.91ZM732.75 309.902V301.534H734.078V303.038C734.606 302.094 735.326 301.438 736.83 301.39V302.638C735.15 302.718 734.078 303.246 734.078 305.31V309.902H732.75ZM743.752 312.814L745.336 309.038L742.056 301.534H743.48L746.04 307.534L748.36 301.534H749.72L745.096 312.814H743.752ZM754.723 308.942C756.403 308.942 757.459 307.678 757.459 305.79V305.678C757.459 303.742 756.387 302.494 754.723 302.494C753.043 302.494 751.987 303.742 751.987 305.662V305.79C751.987 307.694 753.027 308.942 754.723 308.942ZM754.707 310.046C752.323 310.046 750.611 308.238 750.611 305.79V305.662C750.611 303.15 752.355 301.39 754.723 301.39C757.091 301.39 758.835 303.134 758.835 305.646V305.774C758.835 308.302 757.091 310.046 754.707 310.046ZM763.723 310.046C762.059 310.046 760.811 309.134 760.811 306.83V301.534H762.139V306.766C762.139 308.238 762.763 308.894 764.075 308.894C765.259 308.894 766.379 308.11 766.379 306.606V301.534H767.707V309.902H766.379V308.574C765.995 309.358 765.067 310.046 763.723 310.046ZM770.391 309.902V301.534H771.719V303.038C772.247 302.094 772.967 301.438 774.471 301.39V302.638C772.791 302.718 771.719 303.246 771.719 305.31V309.902H770.391ZM780.673 309.902V297.534H782.017V309.902H780.673ZM786.831 310.046C785.279 310.046 784.047 309.294 784.047 307.582C784.047 305.646 786.095 304.99 788.239 304.99H789.439V304.382C789.439 303.054 788.927 302.494 787.647 302.494C786.495 302.494 785.855 302.974 785.727 303.998H784.399C784.575 302.094 786.095 301.39 787.711 301.39C789.311 301.39 790.767 302.046 790.767 304.382V309.902H789.439V308.846C788.815 309.63 788.063 310.046 786.831 310.046ZM786.959 308.99C788.367 308.99 789.439 308.27 789.439 306.974V305.934H788.287C786.607 305.934 785.375 306.35 785.375 307.582C785.375 308.446 785.791 308.99 786.959 308.99ZM795.967 310.046C793.967 310.046 792.767 309.038 792.687 307.326H793.983C794.079 308.318 794.607 308.942 795.951 308.942C797.215 308.942 797.775 308.51 797.775 307.614C797.775 306.734 797.119 306.446 795.823 306.206C793.647 305.806 792.911 305.198 792.911 303.742C792.911 302.19 794.431 301.39 795.743 301.39C797.247 301.39 798.543 301.998 798.767 303.806H797.487C797.295 302.894 796.783 302.494 795.727 302.494C794.767 302.494 794.143 302.974 794.143 303.694C794.143 304.446 794.559 304.75 796.095 305.022C797.823 305.342 799.039 305.726 799.039 307.502C799.039 309.022 797.999 310.046 795.967 310.046ZM803.607 310.014C802.087 310.014 801.351 309.118 801.351 307.806V302.654H800.151V301.534H801.351V299.63H802.679V301.534H804.631V302.654H802.679V307.678C802.679 308.494 803.047 308.894 803.719 308.894C804.135 308.894 804.455 308.83 804.743 308.718V309.838C804.471 309.934 804.151 310.014 803.607 310.014ZM810.985 309.902V301.534H812.313V302.862C812.697 302.078 813.625 301.39 815.001 301.39C816.729 301.39 817.945 302.334 817.945 304.766V309.902H816.617V304.67C816.617 303.198 815.993 302.542 814.649 302.542C813.417 302.542 812.313 303.326 812.313 304.83V309.902H810.985ZM822.643 310.046C821.091 310.046 819.859 309.294 819.859 307.582C819.859 305.646 821.907 304.99 824.051 304.99H825.251V304.382C825.251 303.054 824.739 302.494 823.459 302.494C822.307 302.494 821.667 302.974 821.539 303.998H820.211C820.387 302.094 821.907 301.39 823.523 301.39C825.123 301.39 826.579 302.046 826.579 304.382V309.902H825.251V308.846C824.627 309.63 823.875 310.046 822.643 310.046ZM822.771 308.99C824.179 308.99 825.251 308.27 825.251 306.974V305.934H824.099C822.419 305.934 821.187 306.35 821.187 307.582C821.187 308.446 821.603 308.99 822.771 308.99ZM829.188 309.902V301.534H830.516V302.814C830.9 302.03 831.812 301.39 833.012 301.39C834.084 301.39 835.028 301.838 835.46 302.958C836.036 301.87 837.284 301.39 838.324 301.39C839.828 301.39 841.14 302.286 841.14 304.718V309.902H839.812V304.622C839.812 303.15 839.188 302.542 838.036 302.542C836.948 302.542 835.828 303.278 835.828 304.782V309.902H834.5V304.622C834.5 303.15 833.876 302.542 832.724 302.542C831.636 302.542 830.516 303.278 830.516 304.782V309.902H829.188ZM847.174 310.046C844.806 310.046 843.126 308.382 843.126 305.806V305.678C843.126 303.15 844.742 301.39 847.046 301.39C848.982 301.39 850.806 302.558 850.806 305.55V305.982H844.502C844.566 307.886 845.478 308.942 847.19 308.942C848.486 308.942 849.238 308.462 849.414 307.486H850.742C850.454 309.166 849.062 310.046 847.174 310.046ZM844.55 304.91H849.446C849.318 303.182 848.422 302.494 847.046 302.494C845.686 302.494 844.774 303.422 844.55 304.91Z" fill="#303030"/>
<path d="M697.343 382.402V365.242H707.351V366.946H699.431V372.778H705.815V374.482H699.431V380.698H707.783V382.402H697.343ZM710.312 382.402V369.85H712.304V371.842C712.88 370.666 714.272 369.634 716.336 369.634C718.928 369.634 720.752 371.05 720.752 374.698V382.402H718.76V374.554C718.76 372.346 717.824 371.362 715.808 371.362C713.96 371.362 712.304 372.538 712.304 374.794V382.402H710.312ZM727.992 382.57C725.712 382.57 724.608 381.226 724.608 379.258V371.53H722.808V369.85H724.608V366.994H726.6V369.85H729.528V371.53H726.6V379.066C726.6 380.29 727.152 380.89 728.16 380.89C728.784 380.89 729.264 380.794 729.696 380.626V382.306C729.288 382.45 728.808 382.57 727.992 382.57ZM737.363 382.618C733.811 382.618 731.291 380.122 731.291 376.258V376.066C731.291 372.274 733.715 369.634 737.171 369.634C740.075 369.634 742.811 371.386 742.811 375.874V376.522H733.355C733.451 379.378 734.819 380.962 737.387 380.962C739.331 380.962 740.459 380.242 740.723 378.778H742.715C742.283 381.298 740.195 382.618 737.363 382.618ZM733.427 374.914H740.771C740.579 372.322 739.235 371.29 737.171 371.29C735.131 371.29 733.763 372.682 733.427 374.914ZM745.388 382.402V369.85H747.38V372.106C748.172 370.69 749.252 369.706 751.508 369.634V371.506C748.988 371.626 747.38 372.418 747.38 375.514V382.402H745.388ZM760.931 386.77L763.307 381.106L758.387 369.85H760.523L764.363 378.85L767.843 369.85H769.883L762.947 386.77H760.931ZM776.907 380.962C779.427 380.962 781.011 379.066 781.011 376.234V376.066C781.011 373.162 779.403 371.29 776.907 371.29C774.387 371.29 772.803 373.162 772.803 376.042V376.234C772.803 379.09 774.363 380.962 776.907 380.962ZM776.883 382.618C773.307 382.618 770.739 379.906 770.739 376.234V376.042C770.739 372.274 773.355 369.634 776.907 369.634C780.459 369.634 783.075 372.25 783.075 376.018V376.21C783.075 380.002 780.459 382.618 776.883 382.618ZM789.927 382.618C787.431 382.618 785.559 381.25 785.559 377.794V369.85H787.551V377.698C787.551 379.906 788.487 380.89 790.455 380.89C792.231 380.89 793.911 379.714 793.911 377.458V369.85H795.903V382.402H793.911V380.41C793.335 381.586 791.943 382.618 789.927 382.618ZM799.449 382.402V369.85H801.441V372.106C802.233 370.69 803.313 369.706 805.569 369.634V371.506C803.049 371.626 801.441 372.418 801.441 375.514V382.402H799.449ZM813.912 382.402V363.85H815.928V382.402H813.912ZM822.669 382.618C820.341 382.618 818.493 381.49 818.493 378.922C818.493 376.018 821.565 375.034 824.781 375.034H826.581V374.122C826.581 372.13 825.813 371.29 823.893 371.29C822.165 371.29 821.205 372.01 821.013 373.546H819.021C819.285 370.69 821.565 369.634 823.989 369.634C826.389 369.634 828.573 370.618 828.573 374.122V382.402H826.581V380.818C825.645 381.994 824.517 382.618 822.669 382.618ZM822.861 381.034C824.973 381.034 826.581 379.954 826.581 378.01V376.45H824.853C822.333 376.45 820.485 377.074 820.485 378.922C820.485 380.218 821.109 381.034 822.861 381.034ZM835.893 382.618C832.893 382.618 831.093 381.106 830.973 378.538H832.917C833.061 380.026 833.853 380.962 835.869 380.962C837.765 380.962 838.605 380.314 838.605 378.97C838.605 377.65 837.621 377.218 835.677 376.858C832.413 376.258 831.309 375.346 831.309 373.162C831.309 370.834 833.589 369.634 835.557 369.634C837.813 369.634 839.757 370.546 840.093 373.258H838.173C837.885 371.89 837.117 371.29 835.533 371.29C834.093 371.29 833.157 372.01 833.157 373.09C833.157 374.218 833.781 374.674 836.085 375.082C838.677 375.562 840.501 376.138 840.501 378.802C840.501 381.082 838.941 382.618 835.893 382.618ZM846.873 382.57C844.593 382.57 843.489 381.226 843.489 379.258V371.53H841.689V369.85H843.489V366.994H845.481V369.85H848.409V371.53H845.481V379.066C845.481 380.29 846.033 380.89 847.041 380.89C847.665 380.89 848.145 380.794 848.577 380.626V382.306C848.169 382.45 847.689 382.57 846.873 382.57ZM856.98 382.402V369.85H858.972V371.842C859.548 370.666 860.94 369.634 863.004 369.634C865.596 369.634 867.42 371.05 867.42 374.698V382.402H865.428V374.554C865.428 372.346 864.492 371.362 862.476 371.362C860.628 371.362 858.972 372.538 858.972 374.794V382.402H856.98ZM873.987 382.618C871.659 382.618 869.811 381.49 869.811 378.922C869.811 376.018 872.883 375.034 876.099 375.034H877.899V374.122C877.899 372.13 877.131 371.29 875.211 371.29C873.483 371.29 872.523 372.01 872.331 373.546H870.339C870.603 370.69 872.883 369.634 875.307 369.634C877.707 369.634 879.891 370.618 879.891 374.122V382.402H877.899V380.818C876.963 381.994 875.835 382.618 873.987 382.618ZM874.179 381.034C876.291 381.034 877.899 379.954 877.899 378.01V376.45H876.171C873.651 376.45 871.803 377.074 871.803 378.922C871.803 380.218 872.427 381.034 874.179 381.034ZM883.324 382.402V369.85H885.316V371.77C885.892 370.594 887.26 369.634 889.06 369.634C890.668 369.634 892.084 370.306 892.732 371.986C893.596 370.354 895.468 369.634 897.028 369.634C899.284 369.634 901.252 370.978 901.252 374.626V382.402H899.26V374.482C899.26 372.274 898.324 371.362 896.596 371.362C894.964 371.362 893.284 372.466 893.284 374.722V382.402H891.292V374.482C891.292 372.274 890.356 371.362 888.628 371.362C886.996 371.362 885.316 372.466 885.316 374.722V382.402H883.324ZM909.824 382.618C906.272 382.618 903.752 380.122 903.752 376.258V376.066C903.752 372.274 906.176 369.634 909.632 369.634C912.536 369.634 915.272 371.386 915.272 375.874V376.522H905.816C905.912 379.378 907.28 380.962 909.848 380.962C911.792 380.962 912.92 380.242 913.184 378.778H915.176C914.744 381.298 912.656 382.618 909.824 382.618ZM905.888 374.914H913.232C913.04 372.322 911.696 371.29 909.632 371.29C907.592 371.29 906.224 372.682 905.888 374.914Z" fill="black" fill-opacity="0.3"/>
</g>
<g filter="url(#filter2_b_180_1414)">
<rect x="80" y="484.902" width="547" height="97" rx="48.5" fill="white"/>
<rect x="80.5" y="485.402" width="546" height="96" rx="48" stroke="#B2B2B2"/>
<path d="M130.343 541.402V524.242H140.351V525.946H132.431V531.778H138.815V533.482H132.431V539.698H140.783V541.402H130.343ZM143.312 541.402V528.85H145.304V530.842C145.88 529.666 147.272 528.634 149.336 528.634C151.928 528.634 153.752 530.05 153.752 533.698V541.402H151.76V533.554C151.76 531.346 150.824 530.362 148.808 530.362C146.96 530.362 145.304 531.538 145.304 533.794V541.402H143.312ZM160.992 541.57C158.712 541.57 157.608 540.226 157.608 538.258V530.53H155.808V528.85H157.608V525.994H159.6V528.85H162.528V530.53H159.6V538.066C159.6 539.29 160.152 539.89 161.16 539.89C161.784 539.89 162.264 539.794 162.696 539.626V541.306C162.288 541.45 161.808 541.57 160.992 541.57ZM170.363 541.618C166.811 541.618 164.291 539.122 164.291 535.258V535.066C164.291 531.274 166.715 528.634 170.171 528.634C173.075 528.634 175.811 530.386 175.811 534.874V535.522H166.355C166.451 538.378 167.819 539.962 170.387 539.962C172.331 539.962 173.459 539.242 173.723 537.778H175.715C175.283 540.298 173.195 541.618 170.363 541.618ZM166.427 533.914H173.771C173.579 531.322 172.235 530.29 170.171 530.29C168.131 530.29 166.763 531.682 166.427 533.914ZM178.388 541.402V528.85H180.38V531.106C181.172 529.69 182.252 528.706 184.508 528.634V530.506C181.988 530.626 180.38 531.418 180.38 534.514V541.402H178.388ZM193.931 545.77L196.307 540.106L191.387 528.85H193.523L197.363 537.85L200.843 528.85H202.883L195.947 545.77H193.931ZM209.907 539.962C212.427 539.962 214.011 538.066 214.011 535.234V535.066C214.011 532.162 212.403 530.29 209.907 530.29C207.387 530.29 205.803 532.162 205.803 535.042V535.234C205.803 538.09 207.363 539.962 209.907 539.962ZM209.883 541.618C206.307 541.618 203.739 538.906 203.739 535.234V535.042C203.739 531.274 206.355 528.634 209.907 528.634C213.459 528.634 216.075 531.25 216.075 535.018V535.21C216.075 539.002 213.459 541.618 209.883 541.618ZM222.927 541.618C220.431 541.618 218.559 540.25 218.559 536.794V528.85H220.551V536.698C220.551 538.906 221.487 539.89 223.455 539.89C225.231 539.89 226.911 538.714 226.911 536.458V528.85H228.903V541.402H226.911V539.41C226.335 540.586 224.943 541.618 222.927 541.618ZM232.449 541.402V528.85H234.441V531.106C235.233 529.69 236.313 528.706 238.569 528.634V530.506C236.049 530.626 234.441 531.418 234.441 534.514V541.402H232.449ZM252 541.618C248.448 541.618 245.928 539.122 245.928 535.258V535.066C245.928 531.274 248.352 528.634 251.808 528.634C254.712 528.634 257.448 530.386 257.448 534.874V535.522H247.992C248.088 538.378 249.456 539.962 252.024 539.962C253.968 539.962 255.096 539.242 255.36 537.778H257.352C256.92 540.298 254.832 541.618 252 541.618ZM248.064 533.914H255.408C255.216 531.322 253.872 530.29 251.808 530.29C249.768 530.29 248.4 531.682 248.064 533.914ZM260.025 541.402V528.85H262.017V530.77C262.593 529.594 263.961 528.634 265.761 528.634C267.369 528.634 268.785 529.306 269.433 530.986C270.297 529.354 272.169 528.634 273.729 528.634C275.985 528.634 277.953 529.978 277.953 533.626V541.402H275.961V533.482C275.961 531.274 275.025 530.362 273.297 530.362C271.665 530.362 269.985 531.466 269.985 533.722V541.402H267.993V533.482C267.993 531.274 267.057 530.362 265.329 530.362C263.697 530.362 262.017 531.466 262.017 533.722V541.402H260.025ZM284.532 541.618C282.204 541.618 280.356 540.49 280.356 537.922C280.356 535.018 283.428 534.034 286.644 534.034H288.444V533.122C288.444 531.13 287.676 530.29 285.756 530.29C284.028 530.29 283.068 531.01 282.876 532.546H280.884C281.148 529.69 283.428 528.634 285.852 528.634C288.252 528.634 290.436 529.618 290.436 533.122V541.402H288.444V539.818C287.508 540.994 286.38 541.618 284.532 541.618ZM284.724 540.034C286.836 540.034 288.444 538.954 288.444 537.01V535.45H286.716C284.196 535.45 282.348 536.074 282.348 537.922C282.348 539.218 282.972 540.034 284.724 540.034ZM293.917 541.402V528.85H295.909V541.402H293.917ZM294.877 526.234C294.157 526.234 293.557 525.634 293.557 524.914C293.557 524.194 294.157 523.594 294.877 523.594C295.597 523.594 296.197 524.194 296.197 524.914C296.197 525.634 295.597 526.234 294.877 526.234ZM299.554 541.402V522.85H301.57V541.402H299.554Z" fill="black" fill-opacity="0.3"/>
<rect x="127" y="450.902" width="130" height="26" rx="13" fill="white"/>
<path d="M132.44 468.902V457.462H139.112V458.598H133.832V462.486H138.088V463.622H133.832V467.766H139.4V468.902H132.44ZM141.407 468.902V460.534H142.735V461.862C143.119 461.078 144.047 460.39 145.423 460.39C147.151 460.39 148.367 461.334 148.367 463.766V468.902H147.039V463.67C147.039 462.198 146.415 461.542 145.071 461.542C143.839 461.542 142.735 462.326 142.735 463.83V468.902H141.407ZM153.513 469.014C151.993 469.014 151.257 468.118 151.257 466.806V461.654H150.057V460.534H151.257V458.63H152.585V460.534H154.537V461.654H152.585V466.678C152.585 467.494 152.953 467.894 153.625 467.894C154.041 467.894 154.361 467.83 154.649 467.718V468.838C154.377 468.934 154.057 469.014 153.513 469.014ZM160.081 469.046C157.713 469.046 156.033 467.382 156.033 464.806V464.678C156.033 462.15 157.649 460.39 159.953 460.39C161.889 460.39 163.713 461.558 163.713 464.55V464.982H157.409C157.473 466.886 158.385 467.942 160.097 467.942C161.393 467.942 162.145 467.462 162.321 466.486H163.649C163.361 468.166 161.969 469.046 160.081 469.046ZM157.457 463.91H162.353C162.225 462.182 161.329 461.494 159.953 461.494C158.593 461.494 157.681 462.422 157.457 463.91ZM165.75 468.902V460.534H167.078V462.038C167.606 461.094 168.326 460.438 169.83 460.39V461.638C168.15 461.718 167.078 462.246 167.078 464.31V468.902H165.75ZM176.752 471.814L178.336 468.038L175.056 460.534H176.48L179.04 466.534L181.36 460.534H182.72L178.096 471.814H176.752ZM187.723 467.942C189.403 467.942 190.459 466.678 190.459 464.79V464.678C190.459 462.742 189.387 461.494 187.723 461.494C186.043 461.494 184.987 462.742 184.987 464.662V464.79C184.987 466.694 186.027 467.942 187.723 467.942ZM187.707 469.046C185.323 469.046 183.611 467.238 183.611 464.79V464.662C183.611 462.15 185.355 460.39 187.723 460.39C190.091 460.39 191.835 462.134 191.835 464.646V464.774C191.835 467.302 190.091 469.046 187.707 469.046ZM196.723 469.046C195.059 469.046 193.811 468.134 193.811 465.83V460.534H195.139V465.766C195.139 467.238 195.763 467.894 197.075 467.894C198.259 467.894 199.379 467.11 199.379 465.606V460.534H200.707V468.902H199.379V467.574C198.995 468.358 198.067 469.046 196.723 469.046ZM203.391 468.902V460.534H204.719V462.038C205.247 461.094 205.967 460.438 207.471 460.39V461.638C205.791 461.718 204.719 462.246 204.719 464.31V468.902H203.391ZM217.065 469.046C214.697 469.046 213.017 467.382 213.017 464.806V464.678C213.017 462.15 214.633 460.39 216.937 460.39C218.873 460.39 220.697 461.558 220.697 464.55V464.982H214.393C214.457 466.886 215.369 467.942 217.081 467.942C218.377 467.942 219.129 467.462 219.305 466.486H220.633C220.345 468.166 218.953 469.046 217.065 469.046ZM214.441 463.91H219.337C219.209 462.182 218.313 461.494 216.937 461.494C215.577 461.494 214.665 462.422 214.441 463.91ZM222.735 468.902V460.534H224.063V461.814C224.447 461.03 225.359 460.39 226.559 460.39C227.631 460.39 228.575 460.838 229.007 461.958C229.583 460.87 230.831 460.39 231.871 460.39C233.375 460.39 234.687 461.286 234.687 463.718V468.902H233.359V463.622C233.359 462.15 232.735 461.542 231.583 461.542C230.495 461.542 229.375 462.278 229.375 463.782V468.902H228.047V463.622C228.047 462.15 227.423 461.542 226.271 461.542C225.183 461.542 224.063 462.278 224.063 463.782V468.902H222.735ZM239.393 469.046C237.841 469.046 236.609 468.294 236.609 466.582C236.609 464.646 238.657 463.99 240.801 463.99H242.001V463.382C242.001 462.054 241.489 461.494 240.209 461.494C239.057 461.494 238.417 461.974 238.289 462.998H236.961C237.137 461.094 238.657 460.39 240.273 460.39C241.873 460.39 243.329 461.046 243.329 463.382V468.902H242.001V467.846C241.377 468.63 240.625 469.046 239.393 469.046ZM239.521 467.99C240.929 467.99 242.001 467.27 242.001 465.974V464.934H240.849C239.169 464.934 237.937 465.35 237.937 466.582C237.937 467.446 238.353 467.99 239.521 467.99ZM245.97 468.902V460.534H247.298V468.902H245.97ZM246.61 458.79C246.13 458.79 245.73 458.39 245.73 457.91C245.73 457.43 246.13 457.03 246.61 457.03C247.09 457.03 247.49 457.43 247.49 457.91C247.49 458.39 247.09 458.79 246.61 458.79ZM250.048 468.902V456.534H251.392V468.902H250.048Z" fill="#303030"/>
</g>
<g filter="url(#filter3_b_180_1414)">
<rect x="80" y="643.902" width="1113" height="189" rx="51" fill="white"/>
<rect x="80.5" y="644.402" width="1112" height="188" rx="50.5" stroke="#B2B2B2"/>
<path d="M130.343 700.402V683.242H140.351V684.946H132.431V690.778H138.815V692.482H132.431V698.698H140.783V700.402H130.343ZM143.312 700.402V687.85H145.304V689.842C145.88 688.666 147.272 687.634 149.336 687.634C151.928 687.634 153.752 689.05 153.752 692.698V700.402H151.76V692.554C151.76 690.346 150.824 689.362 148.808 689.362C146.96 689.362 145.304 690.538 145.304 692.794V700.402H143.312ZM160.992 700.57C158.712 700.57 157.608 699.226 157.608 697.258V689.53H155.808V687.85H157.608V684.994H159.6V687.85H162.528V689.53H159.6V697.066C159.6 698.29 160.152 698.89 161.16 698.89C161.784 698.89 162.264 698.794 162.696 698.626V700.306C162.288 700.45 161.808 700.57 160.992 700.57ZM170.363 700.618C166.811 700.618 164.291 698.122 164.291 694.258V694.066C164.291 690.274 166.715 687.634 170.171 687.634C173.075 687.634 175.811 689.386 175.811 693.874V694.522H166.355C166.451 697.378 167.819 698.962 170.387 698.962C172.331 698.962 173.459 698.242 173.723 696.778H175.715C175.283 699.298 173.195 700.618 170.363 700.618ZM166.427 692.914H173.771C173.579 690.322 172.235 689.29 170.171 689.29C168.131 689.29 166.763 690.682 166.427 692.914ZM178.388 700.402V687.85H180.38V690.106C181.172 688.69 182.252 687.706 184.508 687.634V689.506C181.988 689.626 180.38 690.418 180.38 693.514V700.402H178.388ZM193.931 704.77L196.307 699.106L191.387 687.85H193.523L197.363 696.85L200.843 687.85H202.883L195.947 704.77H193.931ZM209.907 698.962C212.427 698.962 214.011 697.066 214.011 694.234V694.066C214.011 691.162 212.403 689.29 209.907 689.29C207.387 689.29 205.803 691.162 205.803 694.042V694.234C205.803 697.09 207.363 698.962 209.907 698.962ZM209.883 700.618C206.307 700.618 203.739 697.906 203.739 694.234V694.042C203.739 690.274 206.355 687.634 209.907 687.634C213.459 687.634 216.075 690.25 216.075 694.018V694.21C216.075 698.002 213.459 700.618 209.883 700.618ZM222.927 700.618C220.431 700.618 218.559 699.25 218.559 695.794V687.85H220.551V695.698C220.551 697.906 221.487 698.89 223.455 698.89C225.231 698.89 226.911 697.714 226.911 695.458V687.85H228.903V700.402H226.911V698.41C226.335 699.586 224.943 700.618 222.927 700.618ZM232.449 700.402V687.85H234.441V690.106C235.233 688.69 236.313 687.706 238.569 687.634V689.506C236.049 689.626 234.441 690.418 234.441 693.514V700.402H232.449ZM246.864 700.402V687.85H248.856V689.77C249.432 688.594 250.8 687.634 252.6 687.634C254.208 687.634 255.624 688.306 256.272 689.986C257.136 688.354 259.008 687.634 260.568 687.634C262.824 687.634 264.792 688.978 264.792 692.626V700.402H262.8V692.482C262.8 690.274 261.864 689.362 260.136 689.362C258.504 689.362 256.824 690.466 256.824 692.722V700.402H254.832V692.482C254.832 690.274 253.896 689.362 252.168 689.362C250.536 689.362 248.856 690.466 248.856 692.722V700.402H246.864ZM273.364 700.618C269.812 700.618 267.292 698.122 267.292 694.258V694.066C267.292 690.274 269.716 687.634 273.172 687.634C276.076 687.634 278.812 689.386 278.812 693.874V694.522H269.356C269.452 697.378 270.82 698.962 273.388 698.962C275.332 698.962 276.46 698.242 276.724 696.778H278.716C278.284 699.298 276.196 700.618 273.364 700.618ZM269.428 692.914H276.772C276.58 690.322 275.236 689.29 273.172 689.29C271.132 689.29 269.764 690.682 269.428 692.914ZM285.393 700.618C282.393 700.618 280.593 699.106 280.473 696.538H282.417C282.561 698.026 283.353 698.962 285.369 698.962C287.265 698.962 288.105 698.314 288.105 696.97C288.105 695.65 287.121 695.218 285.177 694.858C281.913 694.258 280.809 693.346 280.809 691.162C280.809 688.834 283.089 687.634 285.057 687.634C287.313 687.634 289.257 688.546 289.593 691.258H287.673C287.385 689.89 286.617 689.29 285.033 689.29C283.593 689.29 282.657 690.01 282.657 691.09C282.657 692.218 283.281 692.674 285.585 693.082C288.177 693.562 290.001 694.138 290.001 696.802C290.001 699.082 288.441 700.618 285.393 700.618ZM296.445 700.618C293.445 700.618 291.645 699.106 291.525 696.538H293.469C293.613 698.026 294.405 698.962 296.421 698.962C298.317 698.962 299.157 698.314 299.157 696.97C299.157 695.65 298.173 695.218 296.229 694.858C292.965 694.258 291.861 693.346 291.861 691.162C291.861 688.834 294.141 687.634 296.109 687.634C298.365 687.634 300.309 688.546 300.645 691.258H298.725C298.437 689.89 297.669 689.29 296.085 689.29C294.645 689.29 293.709 690.01 293.709 691.09C293.709 692.218 294.333 692.674 296.637 693.082C299.229 693.562 301.053 694.138 301.053 696.802C301.053 699.082 299.493 700.618 296.445 700.618ZM306.752 700.618C304.424 700.618 302.576 699.49 302.576 696.922C302.576 694.018 305.648 693.034 308.864 693.034H310.664V692.122C310.664 690.13 309.896 689.29 307.976 689.29C306.248 689.29 305.288 690.01 305.096 691.546H303.104C303.368 688.69 305.648 687.634 308.072 687.634C310.472 687.634 312.656 688.618 312.656 692.122V700.402H310.664V698.818C309.728 699.994 308.6 700.618 306.752 700.618ZM306.944 699.034C309.056 699.034 310.664 697.954 310.664 696.01V694.45H308.936C306.416 694.45 304.568 695.074 304.568 696.922C304.568 698.218 305.192 699.034 306.944 699.034ZM321.105 704.986C317.385 704.986 315.753 703.234 315.417 701.122H317.457C317.745 702.562 318.945 703.306 321.081 703.306C323.553 703.306 325.113 702.13 325.113 699.442V697.618C324.393 698.842 322.689 699.994 320.865 699.994C317.577 699.994 315.153 697.498 315.153 694.042V693.874C315.153 690.466 317.553 687.634 321.009 687.634C323.097 687.634 324.393 688.642 325.113 689.866V687.85H327.105V699.562C327.081 703.21 324.609 704.986 321.105 704.986ZM321.081 698.338C323.409 698.338 325.185 696.706 325.185 693.898V693.73C325.185 690.922 323.649 689.29 321.201 689.29C318.705 689.29 317.217 691.138 317.217 693.778V693.97C317.217 696.706 318.969 698.338 321.081 698.338ZM335.792 700.618C332.24 700.618 329.72 698.122 329.72 694.258V694.066C329.72 690.274 332.144 687.634 335.6 687.634C338.504 687.634 341.24 689.386 341.24 693.874V694.522H331.784C331.88 697.378 333.248 698.962 335.816 698.962C337.76 698.962 338.888 698.242 339.152 696.778H341.144C340.712 699.298 338.624 700.618 335.792 700.618ZM331.856 692.914H339.2C339.008 690.322 337.664 689.29 335.6 689.29C333.56 689.29 332.192 690.682 331.856 692.914Z" fill="black" fill-opacity="0.3"/>
<rect x="127" y="609.902" width="157" height="26" rx="13" fill="white"/>
<path d="M132.44 627.902V616.462H139.112V617.598H133.832V621.486H138.088V622.622H133.832V626.766H139.4V627.902H132.44ZM141.407 627.902V619.534H142.735V620.862C143.119 620.078 144.047 619.39 145.423 619.39C147.151 619.39 148.367 620.334 148.367 622.766V627.902H147.039V622.67C147.039 621.198 146.415 620.542 145.071 620.542C143.839 620.542 142.735 621.326 142.735 622.83V627.902H141.407ZM153.513 628.014C151.993 628.014 151.257 627.118 151.257 625.806V620.654H150.057V619.534H151.257V617.63H152.585V619.534H154.537V620.654H152.585V625.678C152.585 626.494 152.953 626.894 153.625 626.894C154.041 626.894 154.361 626.83 154.649 626.718V627.838C154.377 627.934 154.057 628.014 153.513 628.014ZM160.081 628.046C157.713 628.046 156.033 626.382 156.033 623.806V623.678C156.033 621.15 157.649 619.39 159.953 619.39C161.889 619.39 163.713 620.558 163.713 623.55V623.982H157.409C157.473 625.886 158.385 626.942 160.097 626.942C161.393 626.942 162.145 626.462 162.321 625.486H163.649C163.361 627.166 161.969 628.046 160.081 628.046ZM157.457 622.91H162.353C162.225 621.182 161.329 620.494 159.953 620.494C158.593 620.494 157.681 621.422 157.457 622.91ZM165.75 627.902V619.534H167.078V621.038C167.606 620.094 168.326 619.438 169.83 619.39V620.638C168.15 620.718 167.078 621.246 167.078 623.31V627.902H165.75ZM176.752 630.814L178.336 627.038L175.056 619.534H176.48L179.04 625.534L181.36 619.534H182.72L178.096 630.814H176.752ZM187.723 626.942C189.403 626.942 190.459 625.678 190.459 623.79V623.678C190.459 621.742 189.387 620.494 187.723 620.494C186.043 620.494 184.987 621.742 184.987 623.662V623.79C184.987 625.694 186.027 626.942 187.723 626.942ZM187.707 628.046C185.323 628.046 183.611 626.238 183.611 623.79V623.662C183.611 621.15 185.355 619.39 187.723 619.39C190.091 619.39 191.835 621.134 191.835 623.646V623.774C191.835 626.302 190.091 628.046 187.707 628.046ZM196.723 628.046C195.059 628.046 193.811 627.134 193.811 624.83V619.534H195.139V624.766C195.139 626.238 195.763 626.894 197.075 626.894C198.259 626.894 199.379 626.11 199.379 624.606V619.534H200.707V627.902H199.379V626.574C198.995 627.358 198.067 628.046 196.723 628.046ZM203.391 627.902V619.534H204.719V621.038C205.247 620.094 205.967 619.438 207.471 619.39V620.638C205.791 620.718 204.719 621.246 204.719 623.31V627.902H203.391ZM213.641 627.902V619.534H214.969V620.814C215.353 620.03 216.265 619.39 217.465 619.39C218.537 619.39 219.481 619.838 219.913 620.958C220.489 619.87 221.737 619.39 222.777 619.39C224.281 619.39 225.593 620.286 225.593 622.718V627.902H224.265V622.622C224.265 621.15 223.641 620.542 222.489 620.542C221.401 620.542 220.281 621.278 220.281 622.782V627.902H218.953V622.622C218.953 621.15 218.329 620.542 217.177 620.542C216.089 620.542 214.969 621.278 214.969 622.782V627.902H213.641ZM231.627 628.046C229.259 628.046 227.579 626.382 227.579 623.806V623.678C227.579 621.15 229.195 619.39 231.499 619.39C233.435 619.39 235.259 620.558 235.259 623.55V623.982H228.955C229.019 625.886 229.931 626.942 231.643 626.942C232.939 626.942 233.691 626.462 233.867 625.486H235.195C234.907 627.166 233.515 628.046 231.627 628.046ZM229.003 622.91H233.899C233.771 621.182 232.875 620.494 231.499 620.494C230.139 620.494 229.227 621.422 229.003 622.91ZM239.967 628.046C237.967 628.046 236.767 627.038 236.687 625.326H237.983C238.079 626.318 238.607 626.942 239.951 626.942C241.215 626.942 241.775 626.51 241.775 625.614C241.775 624.734 241.119 624.446 239.823 624.206C237.647 623.806 236.911 623.198 236.911 621.742C236.911 620.19 238.431 619.39 239.743 619.39C241.247 619.39 242.543 619.998 242.767 621.806H241.487C241.295 620.894 240.783 620.494 239.727 620.494C238.767 620.494 238.143 620.974 238.143 621.694C238.143 622.446 238.559 622.75 240.095 623.022C241.823 623.342 243.039 623.726 243.039 625.502C243.039 627.022 241.999 628.046 239.967 628.046ZM247.655 628.046C245.655 628.046 244.455 627.038 244.375 625.326H245.671C245.767 626.318 246.295 626.942 247.639 626.942C248.903 626.942 249.463 626.51 249.463 625.614C249.463 624.734 248.807 624.446 247.511 624.206C245.335 623.806 244.599 623.198 244.599 621.742C244.599 620.19 246.119 619.39 247.431 619.39C248.935 619.39 250.231 619.998 250.455 621.806H249.175C248.983 620.894 248.471 620.494 247.415 620.494C246.455 620.494 245.831 620.974 245.831 621.694C245.831 622.446 246.247 622.75 247.783 623.022C249.511 623.342 250.727 623.726 250.727 625.502C250.727 627.022 249.687 628.046 247.655 628.046ZM254.846 628.046C253.294 628.046 252.062 627.294 252.062 625.582C252.062 623.646 254.11 622.99 256.254 622.99H257.454V622.382C257.454 621.054 256.942 620.494 255.662 620.494C254.51 620.494 253.87 620.974 253.742 621.998H252.414C252.59 620.094 254.11 619.39 255.726 619.39C257.326 619.39 258.782 620.046 258.782 622.382V627.902H257.454V626.846C256.83 627.63 256.078 628.046 254.846 628.046ZM254.974 626.99C256.382 626.99 257.454 626.27 257.454 624.974V623.934H256.302C254.622 623.934 253.39 624.35 253.39 625.582C253.39 626.446 253.806 626.99 254.974 626.99ZM264.735 630.958C262.255 630.958 261.167 629.79 260.943 628.382H262.303C262.495 629.342 263.295 629.838 264.719 629.838C266.367 629.838 267.407 629.054 267.407 627.262V626.046C266.927 626.862 265.791 627.63 264.575 627.63C262.383 627.63 260.767 625.966 260.767 623.662V623.55C260.767 621.278 262.367 619.39 264.671 619.39C266.063 619.39 266.927 620.062 267.407 620.878V619.534H268.735V627.342C268.719 629.774 267.071 630.958 264.735 630.958ZM264.719 626.526C266.271 626.526 267.455 625.438 267.455 623.566V623.454C267.455 621.582 266.431 620.494 264.799 620.494C263.135 620.494 262.143 621.726 262.143 623.486V623.614C262.143 625.438 263.311 626.526 264.719 626.526ZM274.846 628.046C272.478 628.046 270.798 626.382 270.798 623.806V623.678C270.798 621.15 272.414 619.39 274.718 619.39C276.654 619.39 278.478 620.558 278.478 623.55V623.982H272.174C272.238 625.886 273.15 626.942 274.862 626.942C276.158 626.942 276.91 626.462 277.086 625.486H278.414C278.126 627.166 276.734 628.046 274.846 628.046ZM272.222 622.91H277.118C276.99 621.182 276.094 620.494 274.718 620.494C273.358 620.494 272.446 621.422 272.222 622.91Z" fill="#303030"/>
</g>
<rect x="80" y="881.902" width="135" height="59" rx="29.5" fill="#E5682E"/>
<path d="M122.32 918.082C121.693 918.082 121.087 918.028 120.5 917.922C119.913 917.828 119.36 917.682 118.84 917.482C118.32 917.282 117.853 917.035 117.44 916.742C117.267 916.622 117.14 916.475 117.06 916.302C116.993 916.128 116.973 915.962 117 915.802C117.04 915.628 117.113 915.482 117.22 915.362C117.34 915.242 117.48 915.168 117.64 915.142C117.8 915.115 117.973 915.168 118.16 915.302C118.773 915.715 119.413 916.015 120.08 916.202C120.76 916.388 121.507 916.482 122.32 916.482C123.493 916.482 124.353 916.268 124.9 915.842C125.46 915.415 125.74 914.855 125.74 914.162C125.74 913.588 125.54 913.142 125.14 912.822C124.74 912.488 124.067 912.228 123.12 912.042L121 911.602C119.747 911.335 118.807 910.895 118.18 910.282C117.567 909.668 117.26 908.848 117.26 907.822C117.26 907.195 117.387 906.628 117.64 906.122C117.893 905.602 118.253 905.155 118.72 904.782C119.187 904.408 119.733 904.122 120.36 903.922C121 903.722 121.707 903.622 122.48 903.622C123.307 903.622 124.08 903.735 124.8 903.962C125.533 904.188 126.193 904.522 126.78 904.962C126.94 905.082 127.047 905.228 127.1 905.402C127.153 905.562 127.16 905.722 127.12 905.882C127.093 906.042 127.02 906.175 126.9 906.282C126.793 906.388 126.653 906.448 126.48 906.462C126.32 906.475 126.14 906.415 125.94 906.282C125.407 905.908 124.86 905.642 124.3 905.482C123.74 905.308 123.127 905.222 122.46 905.222C121.78 905.222 121.187 905.328 120.68 905.542C120.187 905.755 119.8 906.055 119.52 906.442C119.253 906.815 119.12 907.255 119.12 907.762C119.12 908.375 119.307 908.855 119.68 909.202C120.053 909.548 120.68 909.815 121.56 910.002L123.66 910.422C124.993 910.702 125.98 911.135 126.62 911.722C127.273 912.295 127.6 913.068 127.6 914.042C127.6 914.655 127.473 915.208 127.22 915.702C126.98 916.195 126.633 916.622 126.18 916.982C125.727 917.328 125.173 917.602 124.52 917.802C123.867 917.988 123.133 918.082 122.32 918.082ZM132.903 918.082C132.117 918.082 131.457 917.935 130.923 917.642C130.403 917.348 130.017 916.915 129.763 916.342C129.51 915.768 129.383 915.048 129.383 914.182V908.942C129.383 908.635 129.457 908.408 129.603 908.262C129.763 908.102 129.99 908.022 130.283 908.022C130.577 908.022 130.803 908.102 130.963 908.262C131.123 908.408 131.203 908.635 131.203 908.942V914.182C131.203 915.008 131.37 915.622 131.703 916.022C132.037 916.408 132.563 916.602 133.283 916.602C134.083 916.602 134.73 916.335 135.223 915.802C135.73 915.268 135.983 914.562 135.983 913.682V908.942C135.983 908.635 136.057 908.408 136.203 908.262C136.363 908.102 136.59 908.022 136.883 908.022C137.177 908.022 137.403 908.102 137.563 908.262C137.723 908.408 137.803 908.635 137.803 908.942V917.102C137.803 917.728 137.51 918.042 136.923 918.042C136.63 918.042 136.403 917.962 136.243 917.802C136.097 917.642 136.023 917.408 136.023 917.102V915.362L136.283 915.702C136.017 916.475 135.583 917.068 134.983 917.482C134.397 917.882 133.703 918.082 132.903 918.082ZM145.432 918.082C144.552 918.082 143.799 917.862 143.172 917.422C142.545 916.982 142.125 916.388 141.912 915.642L142.132 915.342V917.102C142.132 917.408 142.052 917.642 141.892 917.802C141.745 917.962 141.525 918.042 141.232 918.042C140.952 918.042 140.732 917.962 140.572 917.802C140.412 917.642 140.332 917.408 140.332 917.102V904.582C140.332 904.275 140.412 904.048 140.572 903.902C140.732 903.742 140.952 903.662 141.232 903.662C141.525 903.662 141.752 903.742 141.912 903.902C142.072 904.048 142.152 904.275 142.152 904.582V910.362H141.932C142.145 909.642 142.565 909.068 143.192 908.642C143.819 908.202 144.565 907.982 145.432 907.982C146.299 907.982 147.052 908.188 147.692 908.602C148.345 909.002 148.845 909.582 149.192 910.342C149.552 911.088 149.732 911.982 149.732 913.022C149.732 914.048 149.552 914.948 149.192 915.722C148.832 916.482 148.332 917.068 147.692 917.482C147.052 917.882 146.299 918.082 145.432 918.082ZM145.012 916.642C145.585 916.642 146.085 916.502 146.512 916.222C146.952 915.942 147.292 915.535 147.532 915.002C147.772 914.468 147.892 913.808 147.892 913.022C147.892 911.848 147.632 910.955 147.112 910.342C146.592 909.728 145.892 909.422 145.012 909.422C144.425 909.422 143.912 909.562 143.472 909.842C143.045 910.108 142.712 910.508 142.472 911.042C142.245 911.575 142.132 912.235 142.132 913.022C142.132 914.195 142.392 915.095 142.912 915.722C143.432 916.335 144.132 916.642 145.012 916.642ZM152.61 918.042C152.33 918.042 152.11 917.962 151.95 917.802C151.79 917.642 151.71 917.408 151.71 917.102V908.942C151.71 908.635 151.79 908.408 151.95 908.262C152.11 908.102 152.33 908.022 152.61 908.022C152.89 908.022 153.103 908.102 153.25 908.262C153.41 908.408 153.49 908.635 153.49 908.942V910.642L153.27 910.282C153.523 909.548 153.93 908.982 154.49 908.582C155.063 908.182 155.743 907.982 156.53 907.982C157.357 907.982 158.023 908.182 158.53 908.582C159.037 908.968 159.377 909.562 159.55 910.362H159.27C159.51 909.628 159.937 909.048 160.55 908.622C161.177 908.195 161.903 907.982 162.73 907.982C163.463 907.982 164.063 908.128 164.53 908.422C165.01 908.702 165.37 909.128 165.61 909.702C165.85 910.262 165.97 910.982 165.97 911.862V917.102C165.97 917.408 165.89 917.642 165.73 917.802C165.57 917.962 165.35 918.042 165.07 918.042C164.777 918.042 164.55 917.962 164.39 917.802C164.23 917.642 164.15 917.408 164.15 917.102V911.942C164.15 911.088 164.003 910.462 163.71 910.062C163.417 909.662 162.923 909.462 162.23 909.462C161.47 909.462 160.863 909.728 160.41 910.262C159.97 910.782 159.75 911.502 159.75 912.422V917.102C159.75 917.408 159.67 917.642 159.51 917.802C159.363 917.962 159.143 918.042 158.85 918.042C158.557 918.042 158.33 917.962 158.17 917.802C158.01 917.642 157.93 917.408 157.93 917.102V911.942C157.93 911.088 157.783 910.462 157.49 910.062C157.197 909.662 156.703 909.462 156.01 909.462C155.25 909.462 154.643 909.728 154.19 910.262C153.75 910.782 153.53 911.502 153.53 912.422V917.102C153.53 917.728 153.223 918.042 152.61 918.042ZM169.397 918.002C169.117 918.002 168.897 917.915 168.737 917.742C168.577 917.568 168.497 917.328 168.497 917.022V909.042C168.497 908.722 168.577 908.482 168.737 908.322C168.897 908.148 169.117 908.062 169.397 908.062C169.69 908.062 169.917 908.148 170.077 908.322C170.237 908.482 170.317 908.722 170.317 909.042V917.022C170.317 917.328 170.237 917.568 170.077 917.742C169.93 917.915 169.703 918.002 169.397 918.002ZM169.397 905.902C169.037 905.902 168.75 905.808 168.537 905.622C168.337 905.422 168.237 905.162 168.237 904.842C168.237 904.495 168.337 904.235 168.537 904.062C168.75 903.875 169.037 903.782 169.397 903.782C169.783 903.782 170.07 903.875 170.257 904.062C170.457 904.235 170.557 904.495 170.557 904.842C170.557 905.162 170.457 905.422 170.257 905.622C170.07 905.808 169.783 905.902 169.397 905.902ZM176.883 918.082C176.096 918.082 175.436 917.942 174.903 917.662C174.383 917.382 173.989 916.975 173.723 916.442C173.469 915.908 173.343 915.255 173.343 914.482V909.562H172.063C171.823 909.562 171.636 909.502 171.503 909.382C171.369 909.248 171.303 909.075 171.303 908.862C171.303 908.635 171.369 908.462 171.503 908.342C171.636 908.222 171.823 908.162 172.063 908.162H173.343V905.982C173.343 905.675 173.423 905.448 173.583 905.302C173.743 905.142 173.969 905.062 174.263 905.062C174.556 905.062 174.776 905.142 174.923 905.302C175.083 905.448 175.163 905.675 175.163 905.982V908.162H177.583C177.836 908.162 178.029 908.222 178.163 908.342C178.296 908.462 178.363 908.635 178.363 908.862C178.363 909.075 178.296 909.248 178.163 909.382C178.029 909.502 177.836 909.562 177.583 909.562H175.163V914.322C175.163 915.055 175.316 915.608 175.623 915.982C175.929 916.355 176.436 916.542 177.143 916.542C177.396 916.542 177.609 916.522 177.783 916.482C177.956 916.428 178.109 916.402 178.243 916.402C178.363 916.388 178.463 916.428 178.543 916.522C178.636 916.615 178.683 916.788 178.683 917.042C178.683 917.228 178.649 917.402 178.583 917.562C178.529 917.708 178.416 917.808 178.243 917.862C178.083 917.915 177.869 917.962 177.603 918.002C177.336 918.055 177.096 918.082 176.883 918.082Z" fill="white"/>
<path d="M104.608 228.561C100.247 228.561 96.5093 227.647 93.3943 225.82C90.2794 223.992 87.8705 221.396 86.1676 218.032C84.5063 214.626 83.6757 210.619 83.6757 206.008C83.6757 202.561 84.1533 199.467 85.1085 196.726C86.0638 193.943 87.4344 191.576 89.2203 189.624C91.0062 187.63 93.1867 186.114 95.7617 185.076C98.3783 184.038 101.327 183.518 104.608 183.518C107.1 183.518 109.488 183.871 111.773 184.577C114.098 185.284 116.092 186.28 117.753 187.568C118.418 188.025 118.854 188.544 119.062 189.125C119.269 189.707 119.29 190.267 119.124 190.807C118.999 191.306 118.729 191.742 118.314 192.116C117.94 192.448 117.463 192.635 116.881 192.676C116.3 192.676 115.677 192.448 115.012 191.991C113.558 190.87 111.959 190.06 110.215 189.561C108.512 189.021 106.685 188.752 104.733 188.752C101.535 188.752 98.8144 189.437 96.5716 190.807C94.3703 192.136 92.6883 194.088 91.5253 196.664C90.404 199.197 89.8433 202.312 89.8433 206.008C89.8433 209.663 90.404 212.799 91.5253 215.416C92.6883 217.991 94.3703 219.963 96.5716 221.334C98.8144 222.663 101.535 223.328 104.733 223.328C106.685 223.328 108.533 223.058 110.277 222.518C112.063 221.978 113.704 221.147 115.199 220.026C115.864 219.569 116.466 219.361 117.006 219.403C117.587 219.444 118.065 219.631 118.439 219.963C118.812 220.254 119.062 220.669 119.186 221.209C119.352 221.708 119.352 222.227 119.186 222.767C119.02 223.307 118.646 223.784 118.065 224.2C116.362 225.653 114.327 226.754 111.959 227.502C109.634 228.208 107.183 228.561 104.608 228.561ZM135.424 228.561C132.434 228.561 129.838 227.917 127.637 226.629C125.436 225.342 123.733 223.514 122.528 221.147C121.324 218.78 120.722 215.997 120.722 212.799C120.722 210.39 121.054 208.23 121.719 206.32C122.425 204.368 123.421 202.707 124.709 201.336C125.996 199.965 127.533 198.927 129.319 198.221C131.146 197.473 133.182 197.1 135.424 197.1C138.415 197.1 141.011 197.743 143.212 199.031C145.413 200.318 147.116 202.146 148.32 204.513C149.525 206.839 150.127 209.601 150.127 212.799C150.127 215.208 149.774 217.388 149.068 219.34C148.403 221.292 147.427 222.954 146.14 224.324C144.852 225.695 143.295 226.754 141.467 227.502C139.681 228.208 137.667 228.561 135.424 228.561ZM135.424 224.075C137.252 224.075 138.83 223.639 140.159 222.767C141.53 221.895 142.568 220.628 143.274 218.967C144.022 217.305 144.395 215.249 144.395 212.799C144.395 209.144 143.586 206.361 141.966 204.451C140.346 202.54 138.166 201.585 135.424 201.585C133.638 201.585 132.06 202.021 130.69 202.893C129.361 203.724 128.322 204.97 127.575 206.631C126.827 208.293 126.453 210.349 126.453 212.799C126.453 216.454 127.263 219.257 128.883 221.209C130.544 223.12 132.725 224.075 135.424 224.075ZM158.324 228.436C157.452 228.436 156.766 228.187 156.268 227.689C155.769 227.19 155.52 226.463 155.52 225.508V200.09C155.52 199.135 155.769 198.429 156.268 197.972C156.766 197.473 157.452 197.224 158.324 197.224C159.196 197.224 159.86 197.473 160.317 197.972C160.816 198.429 161.065 199.135 161.065 200.09V205.198L160.38 204.264C161.252 201.897 162.664 200.111 164.616 198.906C166.609 197.702 168.873 197.1 171.407 197.1C173.857 197.1 175.871 197.536 177.45 198.408C179.028 199.28 180.211 200.609 181.001 202.395C181.79 204.181 182.184 206.444 182.184 209.186V225.508C182.184 226.463 181.935 227.19 181.437 227.689C180.98 228.187 180.295 228.436 179.381 228.436C178.467 228.436 177.761 228.187 177.263 227.689C176.764 227.19 176.515 226.463 176.515 225.508V209.497C176.515 206.798 175.996 204.825 174.958 203.579C173.919 202.333 172.258 201.71 169.974 201.71C167.316 201.71 165.177 202.54 163.557 204.202C161.979 205.821 161.189 208.023 161.189 210.805V225.508C161.189 227.46 160.234 228.436 158.324 228.436ZM201.887 228.561C199.437 228.561 197.381 228.125 195.72 227.252C194.1 226.38 192.875 225.113 192.044 223.452C191.255 221.791 190.86 219.756 190.86 217.347V202.021H186.873C186.126 202.021 185.544 201.834 185.129 201.461C184.714 201.045 184.506 200.505 184.506 199.841C184.506 199.135 184.714 198.595 185.129 198.221C185.544 197.847 186.126 197.66 186.873 197.66H190.86V190.87C190.86 189.914 191.11 189.208 191.608 188.752C192.106 188.253 192.812 188.004 193.726 188.004C194.64 188.004 195.325 188.253 195.782 188.752C196.28 189.208 196.53 189.914 196.53 190.87V197.66H204.068C204.857 197.66 205.459 197.847 205.875 198.221C206.29 198.595 206.498 199.135 206.498 199.841C206.498 200.505 206.29 201.045 205.875 201.461C205.459 201.834 204.857 202.021 204.068 202.021H196.53V216.848C196.53 219.133 197.007 220.856 197.963 222.019C198.918 223.182 200.496 223.764 202.697 223.764C203.486 223.764 204.151 223.701 204.691 223.577C205.231 223.411 205.708 223.328 206.124 223.328C206.498 223.286 206.809 223.411 207.058 223.701C207.349 223.992 207.494 224.532 207.494 225.321C207.494 225.903 207.39 226.443 207.183 226.941C207.017 227.398 206.664 227.709 206.124 227.875C205.625 228.042 204.961 228.187 204.13 228.311C203.299 228.478 202.552 228.561 201.887 228.561ZM219.418 228.561C217.342 228.561 215.452 228.145 213.749 227.315C212.088 226.484 210.779 225.363 209.824 223.951C208.91 222.538 208.454 220.96 208.454 219.216C208.454 216.973 209.014 215.208 210.136 213.92C211.257 212.633 213.147 211.719 215.805 211.179C218.463 210.598 222.035 210.307 226.52 210.307H229.448V213.92H226.645C223.447 213.92 220.913 214.066 219.044 214.356C217.217 214.647 215.93 215.166 215.182 215.914C214.434 216.62 214.061 217.617 214.061 218.904C214.061 220.524 214.621 221.853 215.743 222.891C216.906 223.93 218.484 224.449 220.477 224.449C222.056 224.449 223.447 224.075 224.651 223.328C225.856 222.538 226.811 221.5 227.517 220.213C228.223 218.884 228.576 217.368 228.576 215.665V208.5C228.576 206.05 228.078 204.285 227.081 203.205C226.084 202.084 224.402 201.523 222.035 201.523C220.664 201.523 219.252 201.71 217.798 202.084C216.345 202.457 214.829 203.039 213.251 203.828C212.628 204.119 212.088 204.222 211.631 204.139C211.174 204.015 210.8 203.766 210.509 203.392C210.26 202.976 210.115 202.54 210.073 202.084C210.073 201.585 210.177 201.108 210.385 200.651C210.634 200.194 211.049 199.862 211.631 199.654C213.458 198.74 215.265 198.096 217.051 197.723C218.878 197.307 220.581 197.1 222.159 197.1C224.859 197.1 227.081 197.536 228.825 198.408C230.57 199.239 231.878 200.547 232.75 202.333C233.622 204.077 234.059 206.32 234.059 209.061V225.508C234.059 226.463 233.83 227.19 233.373 227.689C232.916 228.187 232.252 228.436 231.38 228.436C230.549 228.436 229.885 228.187 229.386 227.689C228.929 227.19 228.701 226.463 228.701 225.508V221.085H229.262C228.929 222.622 228.306 223.951 227.393 225.072C226.479 226.193 225.337 227.066 223.966 227.689C222.637 228.27 221.121 228.561 219.418 228.561ZM254.256 228.561C251.183 228.561 248.525 227.917 246.282 226.629C244.039 225.3 242.315 223.452 241.111 221.085C239.907 218.676 239.304 215.852 239.304 212.612C239.304 210.203 239.637 208.043 240.301 206.133C241.007 204.222 242.004 202.603 243.292 201.274C244.579 199.903 246.137 198.865 247.964 198.159C249.833 197.453 251.93 197.1 254.256 197.1C255.71 197.1 257.247 197.328 258.866 197.785C260.486 198.242 261.981 198.989 263.352 200.028C263.809 200.36 264.099 200.754 264.224 201.211C264.349 201.627 264.349 202.063 264.224 202.52C264.141 202.976 263.933 203.371 263.601 203.703C263.31 203.994 262.916 204.16 262.417 204.202C261.961 204.243 261.462 204.098 260.922 203.766C259.925 203.018 258.866 202.478 257.745 202.146C256.665 201.814 255.627 201.647 254.63 201.647C253.093 201.647 251.723 201.897 250.518 202.395C249.355 202.893 248.359 203.62 247.528 204.576C246.739 205.489 246.137 206.631 245.721 208.002C245.306 209.331 245.098 210.888 245.098 212.674C245.098 216.205 245.929 218.987 247.59 221.022C249.251 223.016 251.598 224.013 254.63 224.013C255.627 224.013 256.665 223.867 257.745 223.577C258.825 223.244 259.884 222.705 260.922 221.957C261.462 221.625 261.961 221.5 262.417 221.583C262.874 221.625 263.248 221.812 263.539 222.144C263.871 222.435 264.079 222.808 264.162 223.265C264.245 223.681 264.203 224.117 264.037 224.574C263.913 225.03 263.622 225.404 263.165 225.695C261.836 226.692 260.382 227.419 258.804 227.875C257.226 228.332 255.71 228.561 254.256 228.561ZM280.847 228.561C278.396 228.561 276.34 228.125 274.679 227.252C273.059 226.38 271.834 225.113 271.003 223.452C270.214 221.791 269.82 219.756 269.82 217.347V202.021H265.833C265.085 202.021 264.504 201.834 264.088 201.461C263.673 201.045 263.465 200.505 263.465 199.841C263.465 199.135 263.673 198.595 264.088 198.221C264.504 197.847 265.085 197.66 265.833 197.66H269.82V190.87C269.82 189.914 270.069 189.208 270.567 188.752C271.066 188.253 271.772 188.004 272.686 188.004C273.599 188.004 274.285 188.253 274.741 188.752C275.24 189.208 275.489 189.914 275.489 190.87V197.66H283.027C283.816 197.66 284.419 197.847 284.834 198.221C285.249 198.595 285.457 199.135 285.457 199.841C285.457 200.505 285.249 201.045 284.834 201.461C284.419 201.834 283.816 202.021 283.027 202.021H275.489V216.848C275.489 219.133 275.967 220.856 276.922 222.019C277.877 223.182 279.455 223.764 281.657 223.764C282.446 223.764 283.11 223.701 283.65 223.577C284.19 223.411 284.668 223.328 285.083 223.328C285.457 223.286 285.768 223.411 286.018 223.701C286.308 223.992 286.454 224.532 286.454 225.321C286.454 225.903 286.35 226.443 286.142 226.941C285.976 227.398 285.623 227.709 285.083 227.875C284.585 228.042 283.92 228.187 283.089 228.311C282.259 228.478 281.511 228.561 280.847 228.561ZM313.936 228.561C311.486 228.561 309.43 228.104 307.769 227.19C306.149 226.276 304.945 224.927 304.155 223.141C303.366 221.355 302.972 219.112 302.972 216.412V200.09C302.972 199.135 303.2 198.429 303.657 197.972C304.155 197.473 304.861 197.224 305.775 197.224C306.689 197.224 307.395 197.473 307.893 197.972C308.392 198.429 308.641 199.135 308.641 200.09V216.412C308.641 218.987 309.16 220.898 310.198 222.144C311.237 223.348 312.877 223.951 315.12 223.951C317.612 223.951 319.626 223.12 321.163 221.459C322.741 219.797 323.53 217.596 323.53 214.855V200.09C323.53 199.135 323.759 198.429 324.216 197.972C324.714 197.473 325.42 197.224 326.334 197.224C327.248 197.224 327.954 197.473 328.452 197.972C328.95 198.429 329.2 199.135 329.2 200.09V225.508C329.2 227.46 328.286 228.436 326.458 228.436C325.545 228.436 324.839 228.187 324.34 227.689C323.883 227.19 323.655 226.463 323.655 225.508V220.088L324.465 221.147C323.634 223.556 322.284 225.404 320.415 226.692C318.588 227.938 316.428 228.561 313.936 228.561ZM346.919 228.561C345.05 228.561 343.161 228.353 341.25 227.938C339.381 227.481 337.616 226.712 335.955 225.633C335.498 225.342 335.166 224.989 334.958 224.574C334.792 224.117 334.73 223.681 334.771 223.265C334.854 222.808 335.041 222.414 335.332 222.082C335.622 221.749 335.976 221.562 336.391 221.521C336.848 221.438 337.325 221.542 337.824 221.832C339.443 222.746 341.001 223.39 342.496 223.764C344.033 224.137 345.549 224.324 347.044 224.324C349.328 224.324 351.052 223.909 352.215 223.078C353.378 222.248 353.959 221.147 353.959 219.777C353.959 218.614 353.565 217.721 352.776 217.098C352.028 216.433 350.844 215.935 349.224 215.602L343.431 214.419C340.856 213.837 338.904 212.882 337.575 211.553C336.287 210.182 335.643 208.438 335.643 206.32C335.643 204.451 336.142 202.831 337.138 201.461C338.177 200.048 339.61 198.969 341.437 198.221C343.265 197.473 345.362 197.1 347.729 197.1C349.557 197.1 351.28 197.349 352.9 197.847C354.561 198.304 356.057 199.01 357.386 199.965C357.884 200.256 358.196 200.63 358.32 201.087C358.486 201.502 358.507 201.938 358.382 202.395C358.299 202.81 358.112 203.163 357.822 203.454C357.531 203.745 357.157 203.932 356.7 204.015C356.244 204.056 355.745 203.932 355.205 203.641C354.001 202.81 352.755 202.229 351.467 201.897C350.221 201.523 348.975 201.336 347.729 201.336C345.487 201.336 343.784 201.772 342.621 202.644C341.499 203.516 340.939 204.659 340.939 206.071C340.939 207.151 341.271 208.043 341.935 208.75C342.642 209.456 343.742 209.975 345.237 210.307L351.031 211.491C353.731 212.072 355.766 213.007 357.136 214.294C358.507 215.54 359.192 217.243 359.192 219.403C359.192 222.227 358.071 224.47 355.828 226.131C353.627 227.751 350.657 228.561 346.919 228.561Z" fill="#303030"/>
<defs>
<filter id="filter0_b_180_1414" x="70.3" y="282.202" width="566.4" height="150.4" filterUnits="userSpaceOnUse" color-interpolation-filters="sRGB">
<feFlood flood-opacity="0" result="BackgroundImageFix"/>
<feGaussianBlur in="BackgroundImageFix" stdDeviation="4.85"/>
<feComposite in2="SourceAlpha" operator="in" result="effect1_backgroundBlur_180_1414"/>
<feBlend mode="normal" in="SourceGraphic" in2="effect1_backgroundBlur_180_1414" result="shape"/>
</filter>
<filter id="filter1_b_180_1414" x="637.3" y="282.202" width="565.4" height="150.4" filterUnits="userSpaceOnUse" color-interpolation-filters="sRGB">
<feFlood flood-opacity="0" result="BackgroundImageFix"/>
<feGaussianBlur in="BackgroundImageFix" stdDeviation="4.85"/>
<feComposite in2="SourceAlpha" operator="in" result="effect1_backgroundBlur_180_1414"/>
<feBlend mode="normal" in="SourceGraphic" in2="effect1_backgroundBlur_180_1414" result="shape"/>
</filter>
<filter id="filter2_b_180_1414" x="70.3" y="441.202" width="566.4" height="150.4" filterUnits="userSpaceOnUse" color-interpolation-filters="sRGB">
<feFlood flood-opacity="0" result="BackgroundImageFix"/>
<feGaussianBlur in="BackgroundImageFix" stdDeviation="4.85"/>
<feComposite in2="SourceAlpha" operator="in" result="effect1_backgroundBlur_180_1414"/>
<feBlend mode="normal" in="SourceGraphic" in2="effect1_backgroundBlur_180_1414" result="shape"/>
</filter>
<filter id="filter3_b_180_1414" x="70.3" y="600.202" width="1132.4" height="242.4" filterUnits="userSpaceOnUse" color-interpolation-filters="sRGB">
<feFlood flood-opacity="0" result="BackgroundImageFix"/>
<feGaussianBlur in="BackgroundImageFix" stdDeviation="4.85"/>
<feComposite in2="SourceAlpha" operator="in" result="effect1_backgroundBlur_180_1414"/>
<feBlend mode="normal" in="SourceGraphic" in2="effect1_backgroundBlur_180_1414" result="shape"/>
</filter>
</defs>
</svg>
