<svg width="199" height="54" viewBox="0 0 199 54" fill="none" xmlns="http://www.w3.org/2000/svg">
<rect x="0.5" y="0.5" width="198" height="53" rx="26.5" stroke="black"/>
<path d="M57.644 32.112C57.3987 32.112 57.2067 32.0427 57.068 31.904C56.9293 31.7653 56.86 31.568 56.86 31.312V21.52C56.86 21.264 56.9293 21.0667 57.068 20.928C57.2067 20.7893 57.404 20.72 57.66 20.72H63.404C63.6173 20.72 63.7773 20.7733 63.884 20.88C63.9907 20.976 64.044 21.12 64.044 21.312C64.044 21.5147 63.9907 21.6693 63.884 21.776C63.7773 21.8827 63.6173 21.936 63.404 21.936H58.348V25.712H63.084C63.2867 25.712 63.4413 25.7653 63.548 25.872C63.6547 25.9787 63.708 26.1227 63.708 26.304C63.708 26.5067 63.6547 26.6613 63.548 26.768C63.4413 26.8747 63.2867 26.928 63.084 26.928H58.348V31.312C58.348 31.8453 58.1133 32.112 57.644 32.112ZM66.2555 32.08C66.0315 32.08 65.8555 32.0107 65.7275 31.872C65.5995 31.7333 65.5355 31.5413 65.5355 31.296V24.912C65.5355 24.656 65.5995 24.464 65.7275 24.336C65.8555 24.1973 66.0315 24.128 66.2555 24.128C66.4902 24.128 66.6715 24.1973 66.7995 24.336C66.9275 24.464 66.9915 24.656 66.9915 24.912V31.296C66.9915 31.5413 66.9275 31.7333 66.7995 31.872C66.6822 32.0107 66.5008 32.08 66.2555 32.08ZM66.2555 22.4C65.9675 22.4 65.7382 22.3253 65.5675 22.176C65.4075 22.016 65.3275 21.808 65.3275 21.552C65.3275 21.2747 65.4075 21.0667 65.5675 20.928C65.7382 20.7787 65.9675 20.704 66.2555 20.704C66.5648 20.704 66.7942 20.7787 66.9435 20.928C67.1035 21.0667 67.1835 21.2747 67.1835 21.552C67.1835 21.808 67.1035 22.016 66.9435 22.176C66.7942 22.3253 66.5648 22.4 66.2555 22.4ZM69.7324 32.112C69.5084 32.112 69.3324 32.048 69.2044 31.92C69.0764 31.792 69.0124 31.6053 69.0124 31.36V24.832C69.0124 24.5867 69.0764 24.4053 69.2044 24.288C69.3324 24.16 69.5084 24.096 69.7324 24.096C69.9564 24.096 70.127 24.16 70.2444 24.288C70.3724 24.4053 70.4364 24.5867 70.4364 24.832V26.144L70.2604 25.904C70.4844 25.296 70.847 24.8373 71.3484 24.528C71.8604 24.2187 72.4417 24.064 73.0924 24.064C73.7217 24.064 74.239 24.176 74.6444 24.4C75.0497 24.624 75.3537 24.9653 75.5564 25.424C75.759 25.8827 75.8604 26.464 75.8604 27.168V31.36C75.8604 31.6053 75.7964 31.792 75.6684 31.92C75.551 32.048 75.375 32.112 75.1404 32.112C74.9057 32.112 74.7244 32.048 74.5964 31.92C74.4684 31.792 74.4044 31.6053 74.4044 31.36V27.248C74.4044 26.5547 74.271 26.048 74.0044 25.728C73.7377 25.408 73.311 25.248 72.7244 25.248C72.0417 25.248 71.4924 25.4613 71.0764 25.888C70.671 26.304 70.4684 26.8693 70.4684 27.584V31.36C70.4684 31.8613 70.223 32.112 69.7324 32.112ZM80.8246 32.144C80.142 32.144 79.5393 31.984 79.0166 31.664C78.5046 31.3333 78.1046 30.864 77.8166 30.256C77.5286 29.6373 77.3846 28.9173 77.3846 28.096C77.3846 27.264 77.5233 26.5493 77.8006 25.952C78.0886 25.344 78.4886 24.88 79.0006 24.56C79.5233 24.2293 80.1313 24.064 80.8246 24.064C81.518 24.064 82.1153 24.24 82.6166 24.592C83.118 24.9333 83.454 25.392 83.6246 25.968H83.4486V21.344C83.4486 21.0987 83.5073 20.9173 83.6246 20.8C83.7526 20.672 83.934 20.608 84.1686 20.608C84.4033 20.608 84.5846 20.672 84.7126 20.8C84.8406 20.9173 84.9046 21.0987 84.9046 21.344V31.36C84.9046 31.6053 84.8406 31.792 84.7126 31.92C84.5846 32.048 84.4033 32.112 84.1686 32.112C83.9446 32.112 83.7686 32.048 83.6406 31.92C83.5126 31.792 83.4486 31.6053 83.4486 31.36V29.904L83.6246 30.192C83.4646 30.7893 83.1286 31.264 82.6166 31.616C82.1153 31.968 81.518 32.144 80.8246 32.144ZM81.1606 30.992C81.63 30.992 82.0353 30.88 82.3766 30.656C82.7286 30.432 82.9953 30.1067 83.1766 29.68C83.3686 29.2533 83.4646 28.7253 83.4646 28.096C83.4646 27.1573 83.2566 26.4427 82.8406 25.952C82.4246 25.4613 81.8646 25.216 81.1606 25.216C80.702 25.216 80.2966 25.328 79.9446 25.552C79.6033 25.7653 79.3366 26.0853 79.1446 26.512C78.9526 26.9387 78.8566 27.4667 78.8566 28.096C78.8566 29.0347 79.0646 29.7547 79.4806 30.256C79.9073 30.7467 80.4673 30.992 81.1606 30.992ZM91.4911 32.08C91.2671 32.08 91.0911 32.0107 90.9631 31.872C90.8351 31.7333 90.7711 31.5413 90.7711 31.296V24.912C90.7711 24.656 90.8351 24.464 90.9631 24.336C91.0911 24.1973 91.2671 24.128 91.4911 24.128C91.7258 24.128 91.9071 24.1973 92.0351 24.336C92.1631 24.464 92.2271 24.656 92.2271 24.912V31.296C92.2271 31.5413 92.1631 31.7333 92.0351 31.872C91.9178 32.0107 91.7365 32.08 91.4911 32.08ZM91.4911 22.4C91.2031 22.4 90.9738 22.3253 90.8031 22.176C90.6431 22.016 90.5631 21.808 90.5631 21.552C90.5631 21.2747 90.6431 21.0667 90.8031 20.928C90.9738 20.7787 91.2031 20.704 91.4911 20.704C91.8005 20.704 92.0298 20.7787 92.1791 20.928C92.3391 21.0667 92.4191 21.2747 92.4191 21.552C92.4191 21.808 92.3391 22.016 92.1791 22.176C92.0298 22.3253 91.8005 22.4 91.4911 22.4ZM94.968 32.112C94.744 32.112 94.568 32.048 94.44 31.92C94.312 31.792 94.248 31.6053 94.248 31.36V24.832C94.248 24.5867 94.312 24.4053 94.44 24.288C94.568 24.16 94.744 24.096 94.968 24.096C95.192 24.096 95.3627 24.16 95.48 24.288C95.608 24.4053 95.672 24.5867 95.672 24.832V26.144L95.496 25.904C95.72 25.296 96.0827 24.8373 96.584 24.528C97.096 24.2187 97.6773 24.064 98.328 24.064C98.9573 24.064 99.4747 24.176 99.88 24.4C100.285 24.624 100.589 24.9653 100.792 25.424C100.995 25.8827 101.096 26.464 101.096 27.168V31.36C101.096 31.6053 101.032 31.792 100.904 31.92C100.787 32.048 100.611 32.112 100.376 32.112C100.141 32.112 99.96 32.048 99.832 31.92C99.704 31.792 99.64 31.6053 99.64 31.36V27.248C99.64 26.5547 99.5067 26.048 99.24 25.728C98.9733 25.408 98.5467 25.248 97.96 25.248C97.2773 25.248 96.728 25.4613 96.312 25.888C95.9067 26.304 95.704 26.8693 95.704 27.584V31.36C95.704 31.8613 95.4587 32.112 94.968 32.112ZM110.824 32.144C110.323 32.144 109.837 32.1013 109.368 32.016C108.899 31.9413 108.456 31.824 108.04 31.664C107.624 31.504 107.251 31.3067 106.92 31.072C106.781 30.976 106.68 30.8587 106.616 30.72C106.563 30.5813 106.547 30.448 106.568 30.32C106.6 30.1813 106.659 30.064 106.744 29.968C106.84 29.872 106.952 29.8133 107.08 29.792C107.208 29.7707 107.347 29.8133 107.496 29.92C107.987 30.2507 108.499 30.4907 109.032 30.64C109.576 30.7893 110.173 30.864 110.824 30.864C111.763 30.864 112.451 30.6933 112.888 30.352C113.336 30.0107 113.56 29.5627 113.56 29.008C113.56 28.5493 113.4 28.192 113.08 27.936C112.76 27.6693 112.221 27.4613 111.464 27.312L109.768 26.96C108.765 26.7467 108.013 26.3947 107.512 25.904C107.021 25.4133 106.776 24.7573 106.776 23.936C106.776 23.4347 106.877 22.9813 107.08 22.576C107.283 22.16 107.571 21.8027 107.944 21.504C108.317 21.2053 108.755 20.976 109.256 20.816C109.768 20.656 110.333 20.576 110.952 20.576C111.613 20.576 112.232 20.6667 112.808 20.848C113.395 21.0293 113.923 21.296 114.392 21.648C114.52 21.744 114.605 21.8613 114.648 22C114.691 22.128 114.696 22.256 114.664 22.384C114.643 22.512 114.584 22.6187 114.488 22.704C114.403 22.7893 114.291 22.8373 114.152 22.848C114.024 22.8587 113.88 22.8107 113.72 22.704C113.293 22.4053 112.856 22.192 112.408 22.064C111.96 21.9253 111.469 21.856 110.936 21.856C110.392 21.856 109.917 21.9413 109.512 22.112C109.117 22.2827 108.808 22.5227 108.584 22.832C108.371 23.1307 108.264 23.4827 108.264 23.888C108.264 24.3787 108.413 24.7627 108.712 25.04C109.011 25.3173 109.512 25.5307 110.216 25.68L111.896 26.016C112.963 26.24 113.752 26.5867 114.264 27.056C114.787 27.5147 115.048 28.1333 115.048 28.912C115.048 29.4027 114.947 29.8453 114.744 30.24C114.552 30.6347 114.275 30.976 113.912 31.264C113.549 31.5413 113.107 31.76 112.584 31.92C112.061 32.0693 111.475 32.144 110.824 32.144ZM119.692 32.144C119.063 32.144 118.535 32.032 118.108 31.808C117.692 31.584 117.377 31.2587 117.164 30.832C116.961 30.4053 116.86 29.8827 116.86 29.264V25.328H115.836C115.644 25.328 115.495 25.28 115.388 25.184C115.281 25.0773 115.228 24.9387 115.228 24.768C115.228 24.5867 115.281 24.448 115.388 24.352C115.495 24.256 115.644 24.208 115.836 24.208H116.86V22.464C116.86 22.2187 116.924 22.0373 117.052 21.92C117.18 21.792 117.361 21.728 117.596 21.728C117.831 21.728 118.007 21.792 118.124 21.92C118.252 22.0373 118.316 22.2187 118.316 22.464V24.208H120.252C120.455 24.208 120.609 24.256 120.716 24.352C120.823 24.448 120.876 24.5867 120.876 24.768C120.876 24.9387 120.823 25.0773 120.716 25.184C120.609 25.28 120.455 25.328 120.252 25.328H118.316V29.136C118.316 29.7227 118.439 30.1653 118.684 30.464C118.929 30.7627 119.335 30.912 119.9 30.912C120.103 30.912 120.273 30.896 120.412 30.864C120.551 30.8213 120.673 30.8 120.78 30.8C120.876 30.7893 120.956 30.8213 121.02 30.896C121.095 30.9707 121.132 31.1093 121.132 31.312C121.132 31.4613 121.105 31.6 121.052 31.728C121.009 31.8453 120.919 31.9253 120.78 31.968C120.652 32.0107 120.481 32.048 120.268 32.08C120.055 32.1227 119.863 32.144 119.692 32.144ZM125.108 32.144C124.34 32.144 123.673 31.9787 123.108 31.648C122.543 31.3173 122.105 30.848 121.796 30.24C121.487 29.632 121.332 28.9173 121.332 28.096C121.332 27.4773 121.417 26.9227 121.588 26.432C121.769 25.9307 122.025 25.504 122.356 25.152C122.687 24.8 123.081 24.5333 123.54 24.352C124.009 24.16 124.532 24.064 125.108 24.064C125.876 24.064 126.543 24.2293 127.108 24.56C127.673 24.8907 128.111 25.36 128.42 25.968C128.729 26.5653 128.884 27.2747 128.884 28.096C128.884 28.7147 128.793 29.2747 128.612 29.776C128.441 30.2773 128.191 30.704 127.86 31.056C127.529 31.408 127.129 31.68 126.66 31.872C126.201 32.0533 125.684 32.144 125.108 32.144ZM125.108 30.992C125.577 30.992 125.983 30.88 126.324 30.656C126.676 30.432 126.943 30.1067 127.124 29.68C127.316 29.2533 127.412 28.7253 127.412 28.096C127.412 27.1573 127.204 26.4427 126.788 25.952C126.372 25.4613 125.812 25.216 125.108 25.216C124.649 25.216 124.244 25.328 123.892 25.552C123.551 25.7653 123.284 26.0853 123.092 26.512C122.9 26.9387 122.804 27.4667 122.804 28.096C122.804 29.0347 123.012 29.7547 123.428 30.256C123.855 30.7467 124.415 30.992 125.108 30.992ZM131.181 32.112C130.936 32.112 130.749 32.048 130.621 31.92C130.493 31.792 130.429 31.6053 130.429 31.36V24.832C130.429 24.5867 130.493 24.4053 130.621 24.288C130.749 24.16 130.925 24.096 131.149 24.096C131.373 24.096 131.544 24.16 131.661 24.288C131.789 24.4053 131.853 24.5867 131.853 24.832V26.064H131.693C131.864 25.424 132.184 24.9387 132.653 24.608C133.123 24.2773 133.715 24.0907 134.429 24.048C134.6 24.0373 134.739 24.08 134.845 24.176C134.952 24.2613 135.011 24.4107 135.021 24.624C135.032 24.8267 134.984 24.992 134.877 25.12C134.771 25.2373 134.605 25.3067 134.381 25.328L134.093 25.344C133.389 25.4187 132.845 25.648 132.461 26.032C132.088 26.416 131.901 26.944 131.901 27.616V31.36C131.901 31.6053 131.837 31.792 131.709 31.92C131.592 32.048 131.416 32.112 131.181 32.112ZM139.444 32.144C138.601 32.144 137.876 31.984 137.268 31.664C136.67 31.3333 136.206 30.8693 135.876 30.272C135.545 29.664 135.38 28.9493 135.38 28.128C135.38 27.3173 135.54 26.608 135.86 26C136.19 25.392 136.638 24.9173 137.204 24.576C137.78 24.2347 138.436 24.064 139.172 24.064C139.694 24.064 140.164 24.1547 140.58 24.336C141.006 24.5067 141.369 24.7573 141.668 25.088C141.966 25.4187 142.19 25.824 142.34 26.304C142.5 26.7733 142.58 27.3067 142.58 27.904C142.58 28.0747 142.526 28.208 142.42 28.304C142.324 28.3893 142.18 28.432 141.988 28.432H136.516V27.504H141.62L141.348 27.728C141.348 27.1733 141.262 26.704 141.092 26.32C140.932 25.9253 140.692 25.6267 140.372 25.424C140.062 25.2213 139.673 25.12 139.204 25.12C138.692 25.12 138.254 25.2427 137.892 25.488C137.529 25.7227 137.252 26.0587 137.06 26.496C136.868 26.9227 136.772 27.4187 136.772 27.984V28.08C136.772 29.04 137.001 29.7653 137.46 30.256C137.918 30.7467 138.58 30.992 139.444 30.992C139.785 30.992 140.132 30.9493 140.484 30.864C140.846 30.7787 141.193 30.624 141.524 30.4C141.684 30.304 141.828 30.2613 141.956 30.272C142.094 30.272 142.206 30.3147 142.292 30.4C142.377 30.4747 142.43 30.5707 142.452 30.688C142.473 30.7947 142.457 30.912 142.404 31.04C142.35 31.168 142.249 31.28 142.1 31.376C141.748 31.6213 141.326 31.8133 140.836 31.952C140.356 32.08 139.892 32.144 139.444 32.144Z" fill="black"/>
</svg>
