<svg width="143" height="143" viewBox="0 0 143 143" fill="none" xmlns="http://www.w3.org/2000/svg">
<path fill-rule="evenodd" clip-rule="evenodd" d="M69.1927 41.1069H73.9826V43.4992H71.5876V45.7419C71.5876 47.9248 71.6176 47.9846 72.3361 47.9846C72.9947 47.9846 73.0845 48.1042 73.0845 49.0312C73.0845 49.9582 72.9947 50.0778 72.3361 50.0778C71.5876 50.0778 71.5876 50.1077 71.5876 55.1614H73.9826V56.3575C73.9826 57.4639 73.9227 57.5536 73.1444 57.5536C72.6953 57.5536 71.6176 57.434 69.1927 57.1051V41.1069ZM124.187 87.1875C124.397 87.1875 124.636 87.4566 124.726 87.8454C124.816 88.2042 124.846 89.3106 124.816 90.2675C124.726 91.7627 124.606 92.1215 123.977 92.5701C123.379 92.9887 121.882 93.198 117.242 93.6167C113.948 93.9157 110.865 94.0353 110.416 93.9456C109.967 93.826 109.458 93.4671 109.308 93.1382C109.129 92.8093 108.889 91.673 108.56 88.6528L109.458 88.6229C109.937 88.6229 113.38 88.2939 117.092 87.9052C120.774 87.5463 123.977 87.2174 124.187 87.1875ZM111.404 91.1945C111.314 91.2842 111.344 91.4337 111.494 91.5833C111.613 91.7029 113.499 91.6132 115.685 91.4038C117.84 91.1945 120.265 90.9254 121.044 90.8058C121.852 90.6862 122.481 90.5067 122.481 90.3871C122.481 90.2376 121.762 90.1778 120.894 90.1778C120.026 90.2077 117.571 90.417 115.445 90.6264C113.29 90.8656 111.464 91.1048 111.404 91.1945ZM22.6407 87.8753C25.5146 88.0248 26.0235 88.1145 26.6223 88.7126C27.0414 89.1611 27.2809 89.7592 27.2809 90.3871C27.2809 91.1347 27.4006 91.3739 27.9395 91.4935C28.3287 91.5534 29.7956 91.673 33.867 91.9421V94.4838L32.7294 94.2745C32.1307 94.1848 28.4784 93.826 17.701 92.9887V91.9421C17.701 91.3739 17.8807 90.3572 18.0603 89.6994C18.2399 89.0415 18.6291 88.3238 18.8686 88.1145C19.2278 87.7856 20.0661 87.7258 22.6407 87.8753ZM22.5508 90.8058C23.7483 90.9254 24.7961 90.9553 24.8859 90.8656C24.9458 90.8058 24.9458 90.6862 24.8859 90.6264C24.7961 90.5666 23.7783 90.417 22.5808 90.2974C21.4132 90.1778 20.4253 90.2077 20.4253 90.3273C20.3954 90.4768 21.3534 90.6862 22.5508 90.8058Z" fill="black"/>
<path d="M70.2404 92.9885L70.3302 89.7889L70.4201 86.5593H72.4857V93.138H79.0718V95.2312L72.6354 95.3807L72.4857 102.109H70.3901L70.2404 95.3807L63.6543 95.0817V93.2875L70.2404 92.9885Z" fill="#EE1718"/>
<path d="M69.1029 45.2931C69.043 46.0407 68.9832 45.5622 68.9832 44.2465C68.9832 42.9308 69.043 42.3327 69.1029 42.9009C69.1628 43.469 69.1628 44.5455 69.1029 45.2931Z" fill="black" fill-opacity="0.2"/>
<path d="M71.7972 45.2933C71.7374 45.712 71.6775 45.4428 71.6775 44.6953C71.6775 43.9477 71.7374 43.6187 71.7972 43.9477C71.8571 44.2766 71.8571 44.8747 71.7972 45.2933Z" fill="black" fill-opacity="0.5"/>
<path d="M71.7972 53.6658C71.7373 54.2339 71.6775 53.6957 71.6775 52.4697C71.6775 51.2436 71.7373 50.7652 71.7972 51.4231C71.8571 52.0809 71.8571 53.0976 71.7972 53.6658Z" fill="black" fill-opacity="0.3"/>
<path d="M69.1029 56.2075C69.043 56.8654 69.0131 56.2075 69.0131 54.7124C69.0131 53.2172 69.043 52.679 69.1029 53.5163C69.1627 54.3237 69.1627 55.5497 69.1029 56.2075Z" fill="black" fill-opacity="0.3"/>
<path d="M69.1029 51.2738C69.043 51.842 68.9832 51.4532 68.9832 50.3767C68.9832 49.3002 69.043 48.8517 69.1029 49.3301C69.1628 49.8085 69.1628 50.7056 69.1029 51.2738Z" fill="black" fill-opacity="0.3"/>
<path d="M70.1807 90.0283C70.1208 88.3836 70.1507 86.8586 70.2405 86.6492C70.3303 86.41 70.8093 86.2904 72.6355 86.3502L70.3902 86.5595L70.2705 92.9887L70.1807 90.0283Z" fill="#EE1819" fill-opacity="0.7"/>
<path d="M79.0719 95.2314L79.0121 94.0652H78.9821C78.9522 93.3774 79.042 92.9887 79.1917 93.1083C79.3414 93.2578 79.4012 93.826 79.2216 95.3809L72.6355 95.4108L79.0719 95.2314Z" fill="#EE1819" fill-opacity="0.7"/>
<path d="M70.1208 95.5304L66.8876 95.4407L63.6843 95.351L70.2705 95.3809L70.3004 101.96L70.1208 95.5304Z" fill="#EE1819" fill-opacity="0.7"/>
<path d="M72.6353 92.9883V89.699L72.6054 86.4097L72.785 92.8388L78.6227 93.0182L72.6353 92.9883Z" fill="#EE1819" fill-opacity="0.5"/>
<path d="M68.4741 93.0481C67.4862 93.1079 65.9295 93.1079 65.0313 93.0481C64.1033 92.9883 64.9116 92.9584 66.8276 92.9584C68.7136 92.9584 69.462 92.9883 68.4741 93.0481Z" fill="#EE1819" fill-opacity="0.5"/>
<path d="M72.7252 100.464C72.6653 101.451 72.6054 100.703 72.6054 98.8194C72.6054 96.9355 72.6653 96.1282 72.7252 97.0252C72.785 97.9223 72.785 99.4773 72.7252 100.464Z" fill="#EE1819" fill-opacity="0.5"/>
<path fill-rule="evenodd" clip-rule="evenodd" d="M65.3606 42.1536C65.4504 42.4825 65.5403 42.9909 65.5702 43.2899C65.6001 43.6188 65.3307 43.858 64.8517 43.9478C64.223 44.0674 64.1332 44.2169 64.253 44.9346C64.3128 45.3831 64.7918 48.4332 65.3008 51.7225C65.8097 55.0119 66.1989 57.7331 66.139 57.763C66.0791 57.763 65.5702 57.8527 63.9835 58.0022L62.8759 51.274C61.8281 44.6056 61.7981 44.5458 61.0796 44.6355C60.6905 44.6654 60.2713 44.5159 60.1516 44.3365C60.0318 44.1272 59.9121 43.6188 59.9121 43.2002C59.9121 42.4825 60.0319 42.4227 62.5166 42.0041C65.0912 41.5555 65.1511 41.5555 65.3606 42.1536ZM82.6642 42.3928L87.3943 43.6487L87.0949 44.5458C86.9452 45.0542 86.7656 45.4728 86.7057 45.5326C86.6159 45.5625 86.107 45.4728 85.598 45.2934C85.0592 45.1439 84.5802 45.0243 84.5502 45.0841C84.4904 45.114 84.191 46.1606 83.8916 47.3866C83.5623 48.6126 83.3228 49.6592 83.3528 49.6592C83.3827 49.6891 83.7719 49.8087 84.191 49.9583C84.8796 50.1975 84.9394 50.3171 84.6999 51.2142C84.4904 52.0814 84.3706 52.1711 83.5623 52.0216C82.7241 51.8721 82.6343 51.9618 82.3349 53.1579C82.1553 53.8457 81.7661 55.281 81.4667 56.3575C80.9578 58.2713 80.9279 58.3012 79.94 58.2414C79.3712 58.1816 78.8622 58.0919 78.7724 58.0022C78.6826 57.9125 79.5208 54.354 80.6584 50.1078L82.6642 42.3928ZM55.5712 43.6188C55.6012 43.6487 56.649 46.5194 57.9063 50.0181C59.1637 53.5167 60.1815 56.836 60.1815 57.4041C60.1815 58.1218 59.972 58.6899 59.4631 59.1983C58.9541 59.7366 58.3853 59.9459 57.6668 59.9459C56.9783 59.9459 56.3197 59.7067 55.8706 59.288C55.3317 58.8096 54.4336 56.6864 50.3921 45.4429L51.4699 45.0841C52.0686 44.8747 52.5775 44.7551 52.5775 44.785C52.5775 44.8149 53.5954 47.6856 54.8228 51.1245C56.4993 55.8492 57.1878 57.434 57.577 57.4938C57.8764 57.5237 58.0859 57.4041 58.0859 57.1948C58.0859 56.9855 57.0681 53.9952 55.8407 50.5264C54.6133 47.0876 53.6253 44.2468 53.6852 44.2169C53.7151 44.2169 54.1642 44.0674 54.6432 43.8879C55.1222 43.7384 55.5413 43.6188 55.5712 43.6188ZM91.0166 44.9944C91.1065 45.0243 91.6154 45.1738 92.1543 45.3831C92.6931 45.5924 93.0823 45.8914 93.0224 46.041C92.9625 46.2204 91.5854 49.5097 89.9688 53.3672C88.3822 57.2546 87.035 60.4542 87.035 60.514C87.0051 60.5439 86.4962 60.4542 85.8675 60.2748C85.2388 60.0954 84.7897 59.8263 84.8197 59.6768C84.8496 59.5571 86.2267 56.1781 87.8733 52.201C89.5198 48.2538 90.9268 44.9944 91.0166 44.9944ZM45.9016 47.6856C46.0213 47.6856 47.9373 50.7357 50.1526 54.4138C52.3979 58.1218 54.1343 61.2915 54.0444 61.441C53.9846 61.6204 53.5355 61.9494 52.2482 62.5773L50.6017 59.7964C49.7036 58.2414 48.8055 56.9855 48.5959 56.9556C48.3864 56.9556 48.1469 57.1051 48.0571 57.2546C47.9972 57.434 48.6558 58.7797 49.5539 60.2449C50.4819 61.7401 51.2004 63.0259 51.2004 63.0857C51.2004 63.1754 50.7813 63.5043 49.2545 64.4014L45.1532 57.4639C42.878 53.6662 41.0518 50.5264 41.1117 50.5264C41.1416 50.4965 41.5308 50.2573 41.92 49.9882C42.3391 49.719 42.7881 49.4798 42.9079 49.4798C43.0276 49.4798 43.8958 50.7656 44.8538 52.3505C45.8118 53.9055 46.7398 55.1913 46.9494 55.1913C47.1589 55.1913 47.3685 55.0717 47.4583 54.9521C47.5182 54.8325 46.7698 53.3672 45.7818 51.7225C44.7939 50.0779 44.0455 48.7322 44.1054 48.7322C44.1353 48.7023 44.5245 48.4631 44.9137 48.194C45.3328 47.9249 45.7818 47.6856 45.9016 47.6856ZM97.0639 47.6557L98.1716 48.3136C98.7703 48.6724 99.6385 49.3602 100.088 49.8387C100.537 50.2872 100.926 50.975 100.926 51.3637C100.926 51.7225 100.267 53.0981 99.4888 54.4138C98.441 56.1183 97.8423 56.836 97.3633 56.8958C96.8544 56.9556 96.7047 57.1649 96.7346 57.9424C96.7346 58.5703 96.2257 59.7665 95.2078 61.441C94.3995 62.8465 93.681 64.1024 93.6511 64.2519C93.5912 64.4014 93.1721 64.2818 92.6632 63.9828C92.1842 63.6838 91.7351 63.3847 91.7052 63.3249C91.6753 63.295 91.8848 62.7269 92.1842 62.1288C92.5135 61.5008 93.1721 60.3346 93.681 59.4973C94.2199 58.6899 94.639 57.763 94.639 57.4938C94.639 57.1948 94.4893 56.9556 94.3097 56.9556C94.16 56.9556 93.2619 58.2414 90.5676 62.6072L89.7593 62.1886C89.3102 61.9494 88.8612 61.6503 88.8013 61.5307C88.7414 61.4111 90.358 58.5404 92.4237 55.1614C94.4893 51.8123 96.3754 48.7322 96.6149 48.3435L97.0639 47.6557ZM96.1658 54.055C95.8066 54.653 95.6569 55.1614 95.8066 55.1614C95.9862 55.1614 96.5849 54.3839 97.1537 53.4569C97.7225 52.5 98.2015 51.6328 98.2015 51.5132C98.2015 51.3936 98.1117 51.274 97.992 51.274C97.8423 51.274 97.5429 51.6627 97.2735 52.1113C97.004 52.5598 96.5251 53.427 96.1658 54.055ZM37.4294 54.4437C37.8485 54.5334 38.8963 55.3109 41.3212 57.7031L39.6747 59.4076L38.4473 57.9723C37.6988 57.1051 37.0702 56.5967 36.8606 56.7463C36.681 56.8659 36.5313 57.1051 36.5313 57.2546C36.5313 57.434 38.2377 59.4375 40.2734 61.7401C42.3391 64.0426 44.1652 65.8667 44.3149 65.777C44.4945 65.7172 44.6143 65.5078 44.6143 65.3284C44.6143 65.1789 44.1652 64.4612 42.5187 62.4876L44.0156 60.9925L45.0933 62.0391C45.692 62.6372 46.3506 63.4744 46.5901 63.923C46.8296 64.3715 47.0392 65.1191 47.0392 65.5676C47.0392 66.0461 46.7398 66.704 46.2309 67.2123C45.692 67.7805 45.1532 68.0197 44.4347 68.0197C43.8659 68.0197 43.2671 67.9599 43.0576 67.9001C42.848 67.8104 41.0518 65.9863 39.076 63.8034C37.1001 61.6204 35.1841 59.4375 34.8249 58.9292C34.4357 58.4208 34.1363 57.6134 34.1363 57.1051C34.1663 56.6266 34.4058 55.909 34.6752 55.5501C34.9746 55.1913 35.5434 54.7727 35.9326 54.5932C36.3517 54.4437 37.0402 54.354 37.4294 54.4437ZM105.776 54.2643C106.045 54.2643 106.674 54.4437 107.123 54.6829C107.572 54.8923 108.111 55.4903 108.35 55.9389C108.56 56.4173 108.679 57.1948 108.56 57.6433C108.47 58.0919 107.871 59.0189 106.135 60.8729L104.638 59.4076L105.626 58.3311C106.165 57.7331 106.524 57.135 106.434 56.9556C106.374 56.8061 106.015 56.6565 105.686 56.6565C105.297 56.6565 104.848 57.1051 104.398 57.9424C104.009 58.6301 103.291 60.6336 102.812 62.3381C102.273 64.4014 101.704 65.777 101.225 66.3451C100.806 66.8236 100.058 67.4216 99.5487 67.6609C99.0098 67.93 98.2913 68.0197 97.6926 67.9001C97.1238 67.8104 96.4652 67.3917 96.1059 66.9133C95.7467 66.4049 95.5072 65.6275 95.5072 64.9696C95.5072 64.1024 95.7766 63.5641 97.7525 61.4111L99.4589 62.7867L98.5308 63.6838C98.0219 64.1921 97.6028 64.7304 97.6028 64.8799C97.6028 65.0593 97.7824 65.3583 98.0518 65.5676C98.441 65.8667 98.6506 65.8069 99.2493 65.1191C99.7283 64.5808 100.237 63.4146 100.626 61.8896C100.956 60.5738 101.435 58.9591 101.644 58.3012C101.884 57.6433 102.363 56.7163 102.692 56.2678C103.021 55.7894 103.74 55.1614 104.279 54.8325C104.818 54.5334 105.476 54.2643 105.776 54.2643ZM112.332 60.2449C112.481 60.2449 113.26 61.1719 114.098 62.2783C114.906 63.3847 115.595 64.4014 115.595 64.521C115.565 64.6407 115.176 64.9995 113.769 65.9265L113.41 65.2985C113.05 64.6706 112.841 64.7603 101.944 73.0733L101.285 72.2061C100.896 71.7277 100.596 71.2492 100.596 71.1595C100.596 71.0997 103.021 69.2158 105.985 66.9731C108.949 64.7603 111.374 62.8465 111.374 62.7269C111.374 62.6072 111.164 62.2484 110.925 61.9793C110.536 61.5008 110.566 61.3812 111.284 60.843C111.703 60.514 112.182 60.2449 112.332 60.2449ZM29.2267 61.7401C29.3165 61.7401 32.2204 63.4744 35.723 65.5976C39.2256 67.7207 42.3091 69.5448 42.6085 69.6345C42.878 69.7541 43.1174 69.9335 43.1174 70.0531C43.1174 70.1727 42.7881 70.6512 41.6206 71.9071L40.5129 71.1595C39.4651 70.4418 39.3753 70.4418 38.9861 70.9502C38.6568 71.3987 38.7466 71.5782 40.5728 73.3424L39.3753 74.9871L34.4357 70.4119C31.7414 67.9001 29.0471 65.4181 27.4005 63.8931L28.2687 62.8166C28.7477 62.2484 29.1668 61.7401 29.2267 61.7401ZM36.9804 69.5148C37.16 69.5148 36.8906 69.156 36.3816 68.7374C35.9026 68.3486 35.2141 67.8403 34.8848 67.6908C34.5555 67.5113 34.8249 67.8403 35.4835 68.4383C36.1421 69.0065 36.8307 69.5148 36.9804 69.5148ZM25.3049 69.8139C25.7839 69.8139 27.2209 70.3222 28.4483 70.9502C29.8254 71.6081 30.8133 72.3257 30.993 72.7444C31.2325 73.2826 31.472 73.4022 32.0408 73.2527C32.5796 73.1331 33.5975 73.462 35.4236 74.2993C36.8606 74.9572 38.2377 75.4955 38.4772 75.4955C38.7466 75.4955 38.9263 75.5852 38.9263 75.645C38.9263 75.7347 38.7466 76.2131 38.4772 76.6916C38.2377 77.1999 37.8485 77.5887 37.5791 77.5887C37.3396 77.5887 35.9924 77.0504 34.5854 76.3925C33.2083 75.7347 31.921 75.2861 31.7414 75.3459C31.5917 75.4356 31.442 75.6151 31.442 75.7347C31.442 75.8543 32.7892 76.6318 37.3695 78.9343L36.8906 79.9211C36.6211 80.4594 36.2918 80.9079 36.1721 80.9079C36.0523 80.878 32.8191 79.323 28.9872 77.4093C25.1552 75.5254 21.9819 73.9106 21.952 73.8209C21.8921 73.7611 22.1615 73.1331 22.4909 72.4453C22.8501 71.7277 23.4189 70.8605 23.7482 70.5016C24.1374 70.083 24.7361 69.8139 25.3049 69.8139ZM29.1369 74.5984C29.2566 74.5984 29.3464 74.5087 29.3464 74.389C29.3764 74.2694 28.6279 73.791 27.6999 73.3424C26.8018 72.8939 25.8139 72.5351 25.5444 72.5351C25.2451 72.5351 25.9037 73.0135 26.9515 73.5518C28.0292 74.1199 29.0171 74.5984 29.1369 74.5984ZM120.205 73.1331C120.385 73.1032 120.744 73.6714 121.043 74.389C121.313 75.0768 121.522 75.6749 121.493 75.7048C121.433 75.7048 118.289 77.4392 114.457 79.5025C110.625 81.5658 107.452 83.2403 107.392 83.2104C107.332 83.1506 107.063 82.7021 106.285 81.177L107.482 80.6687C108.23 80.3397 108.679 79.951 108.679 79.6221C108.679 79.323 108.56 79.024 108.38 78.9343C108.23 78.8745 107.542 78.9941 105.686 79.6819L105.327 78.7848C105.117 78.3063 105.027 77.8279 105.087 77.7681C105.177 77.6784 108.56 76.6318 112.571 75.3758C116.613 74.1498 120.056 73.1331 120.205 73.1331ZM110.925 78.396C111.104 78.4559 111.733 78.3063 112.362 78.0671C112.96 77.798 113.469 77.5289 113.469 77.4392C113.469 77.3793 113.439 77.3195 113.41 77.3195C113.35 77.3494 112.721 77.5588 111.973 77.8279C111.254 78.0671 110.775 78.3362 110.925 78.396ZM20.1857 79.6819C20.3653 79.6819 23.9578 80.25 28.1489 80.9378C32.3701 81.6256 35.8128 82.1937 35.8428 82.2236C35.9026 82.2236 35.7529 82.732 35.5434 83.36C35.2141 84.4365 35.1542 84.4664 34.1363 84.2869C33.5675 84.1972 32.9688 84.0776 32.8191 84.0776C32.6395 84.0477 32.4898 84.3169 32.4299 84.7056C32.3701 85.2438 32.5796 85.4532 33.5675 85.7522C34.7051 86.111 34.765 86.1708 34.5854 87.0081C34.4657 87.5165 34.316 87.9949 34.2561 88.0547C34.1962 88.1444 30.7834 86.8586 26.6521 85.2139C22.5208 83.5693 19.1678 82.1638 19.1678 82.0741C19.1678 82.0143 19.3475 81.4163 19.5271 80.8182C19.7067 80.1902 20.0061 79.6819 20.1857 79.6819ZM28.598 83.7188C29.3464 83.9879 29.9452 84.0477 29.9751 83.8982C29.9751 83.7487 29.5859 83.5693 29.1369 83.4497C28.6878 83.3301 28.0891 83.1805 27.8196 83.0908C27.5502 83.0011 27.3107 83.031 27.2808 83.1207C27.2808 83.2104 27.8795 83.4796 28.598 83.7188ZM123.169 80.9976L123.528 82.0741C123.708 82.6423 123.858 83.1506 123.858 83.1805C123.828 83.2104 120.415 84.0776 116.254 85.0644C112.092 86.0512 108.59 86.8586 108.47 86.8885C108.35 86.8885 108.081 86.4101 107.871 85.8419C107.512 84.7953 107.512 84.7654 108.32 84.5561C108.769 84.4664 112.302 83.5992 116.164 82.6722L123.169 80.9976Z" fill="black"/>
</svg>
