<svg width="143" height="143" viewBox="0 0 143 143" fill="none" xmlns="http://www.w3.org/2000/svg">
<path d="M100.161 68.6735C100.02 68.0703 100.15 67.4499 99.9861 66.8497C99.8533 66.8367 99.7502 66.8213 99.6472 66.8177C98.6357 66.7845 97.6249 66.7448 96.6135 66.7235C95.31 66.6957 94.0058 66.6844 92.7023 66.6631C92.5832 66.6613 92.4647 66.6376 92.3468 66.624C92.3391 66.5339 92.3338 66.483 92.3302 66.4314C92.3024 66.0374 92.2792 65.6428 92.2449 65.2493C92.2212 64.9797 92.1815 64.7119 92.1501 64.4429C92.1092 64.0939 92.1394 64.0584 92.4783 64.0489C92.5097 64.0483 92.5411 64.0495 92.572 64.0483C93.1242 64.0222 93.6758 63.9968 94.228 63.9689C94.686 63.9458 95.1441 63.9055 95.6021 63.8978C96.8013 63.8777 98.0011 63.8717 99.2004 63.8593C99.2999 63.8581 99.3989 63.8486 99.4972 63.8427C99.4972 62.8508 99.4972 61.8969 99.4972 60.911C99.3645 60.911 99.2531 60.9074 99.1417 60.9116C98.5166 60.9353 97.8909 60.9601 97.2658 60.9856C97.1616 60.9898 97.0579 60.9981 96.9542 61.0087C96.3113 61.0751 95.6702 61.1563 95.0261 61.2072C94.2262 61.27 93.4246 61.3085 92.6235 61.3559C92.5637 61.3595 92.5032 61.3482 92.4392 61.3435C92.1009 59.896 92.018 58.4337 91.9427 56.9316C92.0843 56.9062 92.2052 56.8736 92.3278 56.8641C92.8054 56.8268 93.2842 56.7995 93.7623 56.764C94.2298 56.7296 94.6979 56.6923 95.1648 56.6514C95.9013 56.5868 96.6366 56.5139 97.3731 56.4523C97.8507 56.4126 98.3294 56.3883 98.8076 56.3533C99.0025 56.3391 99.0262 56.3048 99.0096 56.127C98.9906 55.9202 98.9747 55.7134 98.961 55.5061C98.9059 54.6754 98.8526 53.8441 98.7987 53.0134C98.7856 52.8095 98.7702 52.6063 98.7554 52.3971C98.6393 52.3971 98.5557 52.3894 98.474 52.3983C98.1019 52.441 97.731 52.4919 97.3583 52.5334C96.4891 52.63 95.6181 52.7177 94.7494 52.8184C93.9116 52.9156 93.0756 53.0258 92.2384 53.1283C91.8141 53.1804 91.3905 53.2308 90.9656 53.2764C90.1166 53.3671 89.2663 53.4524 88.4172 53.5431C88.2875 53.5567 88.1595 53.5899 88.0215 53.6159C88.0215 53.7007 88.0173 53.7522 88.022 53.8026C88.0991 54.5883 88.172 55.3745 88.2573 56.1596C88.345 56.966 88.4392 57.7724 88.5429 58.5765C88.6839 59.6702 88.8403 60.7616 88.9849 61.8548C89.1235 62.9071 89.2604 63.9594 89.3884 65.0129C89.4476 65.4982 89.4767 65.987 89.5318 66.4723C89.6236 67.2775 89.7237 68.0821 89.8239 68.8868C89.8399 69.0165 89.8725 69.1439 89.9015 69.2915C90.465 69.2672 90.9953 69.2524 91.5244 69.221C92.7414 69.1487 93.9572 69.0633 95.1743 68.9917C96.7764 68.8968 98.3792 68.8097 99.9813 68.7179C100.031 68.7144 100.079 68.6942 100.161 68.6735Z" fill="black"/>
<path d="M119.651 80.2459C118.788 80.1967 117.923 80.157 117.06 80.1072C116.384 80.0681 115.708 80.0183 115.032 79.9745C114.315 79.9283 113.597 79.8844 112.879 79.837C112.625 79.8204 112.597 79.7813 112.592 79.5354C112.587 79.2961 112.572 79.0573 112.558 78.8185C112.55 78.6727 112.525 78.5282 112.523 78.3824C112.521 78.1774 112.569 78.1276 112.775 78.1027C112.94 78.0832 113.107 78.063 113.272 78.0565C114.26 78.0168 115.248 77.9706 116.236 77.9463C117.054 77.9256 117.872 77.9297 118.691 77.9268C119.076 77.925 119.46 77.9339 119.845 77.9339C119.905 77.9339 119.966 77.9149 120.057 77.8995C120.063 77.8118 120.075 77.7502 120.07 77.6904C120.043 77.3734 120.071 77.0558 119.982 76.7376C119.911 76.484 119.943 76.2026 119.913 75.9353C119.883 75.6705 119.825 75.4092 119.792 75.1449C119.758 74.8676 119.704 74.7947 119.43 74.7924C119.195 74.79 118.958 74.819 118.722 74.835C118.215 74.87 117.709 74.905 117.201 74.9411C116.35 75.0021 115.499 75.0679 114.647 75.1248C114.273 75.1497 113.898 75.1491 113.525 75.1734C113.089 75.2018 112.654 75.2569 112.218 75.2782C111.104 75.3333 109.99 75.376 108.876 75.4246C108.743 75.4305 108.611 75.4447 108.464 75.456C108.675 77.7887 108.883 80.093 109.091 82.3991C111.328 82.4358 113.524 82.4725 115.745 82.5093C115.798 83.1521 115.914 83.7695 115.93 84.3935C115.855 84.41 115.825 84.4207 115.795 84.4225C114.941 84.4628 114.087 84.506 113.233 84.5398C111.973 84.5896 110.713 84.6322 109.452 84.6785C109.39 84.6808 109.327 84.6862 109.265 84.6939C109.158 84.7069 109.094 84.7656 109.09 84.8769C109.087 84.9498 109.085 85.0227 109.091 85.095C109.144 85.7699 109.197 86.4453 109.255 87.1196C109.266 87.2624 109.295 87.404 109.318 87.5622C109.559 87.577 109.777 87.609 109.993 87.5989C110.503 87.5752 111.011 87.5255 111.522 87.497C112.531 87.4413 113.541 87.3957 114.551 87.3412C116.435 87.2399 118.319 87.1362 120.203 87.0295C120.386 87.0195 120.567 86.9821 120.768 86.9543C120.629 84.7264 120.492 82.5377 120.352 80.3146C120.123 80.2927 119.888 80.2595 119.651 80.2459Z" fill="black"/>
<path d="M104.866 86.8332C104.507 86.3485 104.136 85.8721 103.792 85.3774C103.144 84.4477 102.513 83.5068 101.873 82.5718C101.581 82.1446 101.284 81.7204 100.993 81.2991C101.134 81.0852 101.331 81.0248 101.534 80.9726C101.967 80.8613 102.409 80.7736 102.83 80.629C103.222 80.4945 103.619 80.3404 103.966 80.1194C104.707 79.6478 105.216 78.9711 105.496 78.1363C105.65 77.6789 105.753 77.2013 105.649 76.722C105.507 76.0672 105.233 75.4593 104.857 74.9035C104.772 74.7779 104.653 74.6576 104.523 74.5824C104.092 74.3329 103.664 74.0681 103.206 73.8767C102.104 73.4157 100.938 73.2688 99.7515 73.2812C99.252 73.2866 98.7525 73.3298 98.253 73.3494C97.763 73.3683 97.273 73.3737 96.783 73.3956C96.4311 73.4116 96.0803 73.4448 95.7366 73.4697C95.6596 73.8181 95.5127 89.4462 95.579 89.6879C95.9215 89.775 98.211 89.7626 98.5072 89.6678C98.5131 89.6127 98.5244 89.5522 98.525 89.4918C98.5327 88.6587 98.5321 87.8257 98.5463 86.9932C98.5671 85.7637 98.5979 84.5348 98.6251 83.3054C98.6275 83.2058 98.6376 83.1069 98.6441 83.0079C98.6642 83.0038 98.685 82.9996 98.7051 82.9949C98.7478 83.0607 98.794 83.1241 98.8319 83.1922C99.3243 84.0827 99.8167 84.9727 100.306 85.865C100.811 86.7852 101.314 87.7066 101.816 88.6285C101.97 88.9111 102.113 89.1997 102.267 89.4823C102.321 89.5825 102.383 89.6672 102.528 89.6654C103.894 89.6482 105.259 89.6376 106.626 89.6227C106.692 89.6222 106.759 89.599 106.849 89.5819C106.804 89.4894 106.782 89.4195 106.741 89.3638C106.116 88.5183 105.491 87.6757 104.866 86.8332ZM99.6176 79.7651C99.2644 79.8184 98.9332 79.7076 98.6062 79.6217C97.7992 79.409 97.2428 78.9107 97.0005 78.0942C96.9827 78.035 96.9649 77.9733 96.9619 77.9117C96.9365 77.3441 97.0242 76.7931 97.2623 76.2776C97.3423 76.1046 97.4899 75.9588 97.625 75.8172C97.7678 75.6673 97.9396 75.544 98.0853 75.3971C98.3395 75.1405 98.6571 75.028 99.0008 74.9711C99.3059 74.9207 99.5968 74.7821 99.921 74.8425C100.135 74.8822 100.358 74.8751 100.57 74.9213C100.89 74.9912 101.163 75.1565 101.383 75.4066C101.774 75.8498 102.063 76.3445 102.189 76.9287C102.247 77.2001 102.322 77.4673 102.39 77.7363C102.341 78.2838 102.218 78.7644 101.824 79.1684C101.598 79.4013 101.347 79.5257 101.04 79.569C100.566 79.6359 100.091 79.694 99.6176 79.7651Z" fill="black"/>
<path d="M92.6388 80.2776C92.5648 79.9387 92.4273 79.608 92.2027 79.3207C91.6778 78.6494 91.0384 78.1096 90.3339 77.6403C90.1787 77.5366 90.0276 77.4146 89.8564 77.3482C88.8361 76.9518 87.7927 76.7669 86.7066 77.0513C86.6266 77.0721 86.5413 77.0745 86.4601 77.091C85.9713 77.1924 85.4795 77.2801 84.9954 77.4009C84.3798 77.555 83.7701 77.7316 83.161 77.9105C83.0271 77.9502 82.8801 78.0136 82.7865 78.1114C82.3925 78.5237 82.0133 78.9509 81.6359 79.3787C81.5772 79.4457 81.5345 79.5405 81.5185 79.6288C81.4771 79.8527 81.4314 80.0803 81.4285 80.3072C81.4208 80.9519 81.3917 81.5983 81.5073 82.2382C81.608 82.7928 81.7532 83.3367 82.0085 83.8392C82.3723 84.5555 82.857 85.186 83.4199 85.7631C83.9265 86.2827 84.5054 86.6975 85.137 87.0429C85.3444 87.1567 85.5636 87.2598 85.79 87.3243C86.2296 87.4499 86.6781 87.5477 87.1237 87.6514C88.1885 87.8997 89.2491 87.8712 90.3079 87.6058C91.1125 87.4043 91.6475 86.8485 92.0469 86.1832C92.3977 85.5989 92.6495 84.9578 92.8189 84.2853C92.9066 83.9375 92.9641 83.5968 92.9617 83.2419C92.9611 83.1276 92.9617 83.0126 92.9617 82.8983C92.9617 82.6696 92.9884 82.4367 92.957 82.2121C92.8669 81.5651 92.7775 80.9157 92.6388 80.2776Z" fill="black"/>
<path d="M56.3469 60.579C56.5922 60.0072 56.7409 59.4188 56.7279 58.7902C56.6988 58.4803 56.6733 58.1698 56.6408 57.8605C56.5999 57.4724 56.4227 57.1465 56.1555 56.871C55.8586 56.5653 55.5642 56.2548 55.2442 55.9745C54.8567 55.6356 54.4656 55.3281 53.9324 55.1788C53.312 55.0052 52.6905 54.8357 52.0624 54.6983C51.5937 54.5958 51.1144 54.5697 50.6504 54.7551C50.5835 54.7818 50.5088 54.7907 50.4407 54.815C50.1764 54.908 49.8731 54.9495 49.6592 55.1095C49.2871 55.388 48.9499 55.7209 48.6353 56.0652C47.676 57.1145 46.9135 58.2966 46.2706 59.564C45.9957 60.1067 45.7438 60.6347 45.6941 61.255C45.6573 61.7124 45.6005 62.1639 45.6751 62.6225C45.7474 63.064 45.7877 63.5178 46.0656 63.8899C46.2386 64.1216 46.446 64.3284 46.6427 64.5423C47.061 64.9973 47.5113 65.4198 48.0908 65.6574C48.6478 65.8861 49.2172 66.0881 49.7883 66.2789C50.1124 66.3874 50.4478 66.4804 50.7849 66.526C51.3893 66.6084 51.9919 66.5799 52.572 66.3595C53.0792 66.1669 53.5277 65.9033 53.7884 65.3979C53.8542 65.2699 53.9359 65.1478 54.0236 65.0335C54.577 64.3153 55.0433 63.5403 55.4344 62.7268C55.7727 62.0277 56.0405 61.2941 56.3469 60.579Z" fill="black"/>
<path d="M38.3901 88.0895C38.332 87.1651 38.2829 86.2402 38.2183 85.3165C38.1727 84.663 38.1093 84.0106 38.0536 83.3577C38.0109 82.8599 37.9676 82.3622 37.9262 81.8645C37.8432 80.8685 37.7484 79.8737 37.6838 78.8765C37.6246 77.9616 37.5991 77.045 37.5576 76.129C37.5547 76.0703 37.5393 76.0123 37.531 75.9625C37.2288 75.8967 35.2261 75.9222 35.0217 75.9921C35.0311 76.1965 35.0394 76.4033 35.0507 76.6107C35.0945 77.4426 35.1378 78.2751 35.1846 79.107C35.2208 79.7516 35.2735 80.3951 35.299 81.0397C35.3464 82.2366 35.3825 83.4341 35.4163 84.6316C35.4234 84.8911 35.4234 85.1547 35.3849 85.4107C35.3067 85.928 35.1242 86.4156 34.8913 86.8825C34.8487 86.9678 34.7728 87.0585 34.6893 87.0988C34.3237 87.273 33.9486 87.4282 33.5783 87.5923C32.9929 87.8513 32.3702 87.8833 31.7439 87.9082C31.3783 87.923 31.1087 87.7547 30.8593 87.5218C30.6845 87.3583 30.5245 87.1752 30.3313 87.0366C30.0635 86.8446 29.8905 86.6023 29.804 86.2894C29.785 86.2201 29.7524 86.1537 29.7246 86.0868C29.49 85.5209 29.2903 84.9515 29.2417 84.3276C29.1439 83.0821 29.0112 81.8396 28.888 80.596C28.7718 79.4251 28.651 78.2549 28.5301 77.0847C28.4898 76.6943 28.4412 76.305 28.3956 75.905C27.7889 75.905 27.2118 75.905 26.6157 75.905C26.608 76.0075 26.5938 76.0881 26.5979 76.1681C26.6264 76.6984 26.6643 77.2281 26.6886 77.759C26.7217 78.4872 26.7383 79.2166 26.7745 79.9448C26.8361 81.1719 26.9102 82.399 26.9747 83.6261C27.0091 84.2814 27.0381 84.9373 27.0648 85.5926C27.1205 86.9453 27.1726 88.298 27.2266 89.6507C27.2479 90.1917 27.268 90.7333 27.2912 91.2742C27.2929 91.3121 27.3166 91.3489 27.3291 91.3815C27.8611 91.4058 38.1952 90.61 38.543 90.4654C38.5394 90.392 38.537 90.3309 38.5335 90.2699C38.4849 89.5435 38.4357 88.8165 38.3901 88.0895Z" fill="black"/>
<path d="M31.5264 67.4307C31.8233 67.8312 32.145 68.2134 32.4353 68.6187C32.5698 68.8065 32.7458 68.9209 32.936 69.0293C33.0261 69.0808 33.1191 69.1282 33.2127 69.1733C33.6251 69.37 34.0274 69.5957 34.454 69.7545C35.1769 70.0241 35.9388 70.0656 36.7038 70.0306C37.2483 70.0057 37.7845 69.9003 38.2822 69.6888C39.0359 69.3682 39.6948 68.9025 40.2233 68.2632C40.6357 67.7649 41.0214 67.2458 41.3384 66.6847C41.675 66.0886 41.9742 65.4707 42.2734 64.8544C42.4263 64.5392 42.5714 64.2133 42.5341 63.7861C42.3718 63.8033 42.239 63.8104 42.1087 63.833C41.976 63.8561 41.8468 63.9017 41.7135 63.926C40.8537 64.086 39.994 64.2447 39.1337 64.4012C38.9085 64.4421 38.6816 64.4735 38.4547 64.5072C38.3095 64.5286 38.2182 64.6109 38.1394 64.7342C37.9605 65.0138 37.778 65.2935 37.5742 65.5554C37.0101 66.2794 36.2375 66.5757 35.3428 66.5941C35.1354 66.5982 34.9257 66.5769 34.7195 66.5484C34.611 66.5336 34.4961 66.4969 34.406 66.4365C34.0434 66.1929 33.6802 65.9476 33.3365 65.6792C33.1517 65.5346 32.9632 65.3652 32.8501 65.1655C32.667 64.842 32.542 64.4859 32.3992 64.1405C32.3636 64.0551 32.3417 63.9603 32.3358 63.8679C32.2605 62.7451 32.4312 61.7046 33.192 60.7981C33.7667 60.1126 34.4558 59.7416 35.344 59.7405C35.6775 59.7399 36.0117 59.7488 36.3435 59.7766C36.8999 59.8234 37.4415 59.939 37.8693 60.33C38.1513 60.5878 38.4203 60.8639 38.6686 61.1542C38.7829 61.2881 38.8682 61.3598 39.0561 61.3171C39.421 61.2342 39.7926 61.1809 40.1617 61.1169C40.8253 61.0019 41.4895 60.8882 42.1626 60.772C42.2005 60.4456 42.1176 60.144 42.0453 59.843C42.0299 59.7784 41.9742 59.7191 41.9262 59.6676C41.643 59.363 41.3633 59.0543 41.0688 58.7604C40.657 58.3498 40.2488 57.9297 39.7143 57.675C39.3037 57.4788 38.8789 57.3129 38.4671 57.1198C37.6435 56.7329 36.7796 56.6061 35.8802 56.6961C35.5401 56.7299 35.1947 56.7287 34.8741 56.884C34.2846 57.169 33.6932 57.4492 33.0972 57.7188C32.4359 58.0174 31.8944 58.476 31.4405 59.0212C30.5144 60.1339 30.0848 61.4481 30.0487 62.882C30.025 63.8258 30.2081 64.7442 30.5594 65.6247C30.816 66.2617 31.1152 66.8773 31.5264 67.4307Z" fill="black"/>
<path d="M79.2563 85.482C79.1858 83.9427 79.1952 82.4003 79.091 80.8604C79.0068 79.6244 78.9956 78.3831 78.9499 77.1448C78.9476 77.0754 78.9268 77.0067 78.9097 76.9089C78.5233 76.9344 78.1506 76.9581 77.7785 76.9848C76.6664 77.0642 75.5537 77.1376 74.4427 77.2265C73.8389 77.2745 73.2358 77.3314 72.6326 77.3883L71.6194 77.3592H71.6188C71.5939 77.3581 71.5666 77.3604 71.5376 77.3634C71.1756 77.4031 70.8136 77.4481 70.4498 77.4683C69.305 77.5305 68.1591 77.5814 67.0144 77.6389C66.9255 77.6431 66.8378 77.6632 66.7211 77.6804C67.0517 81.7421 67.5204 85.7581 67.8723 89.7979C68.1247 89.7979 68.3404 89.8085 68.5543 89.7961C69.2825 89.754 70.0113 89.7131 70.7389 89.6539C71.7355 89.5727 72.7303 89.469 73.7269 89.3873C74.3396 89.3375 74.954 89.3144 75.5673 89.2729C76.2949 89.2243 77.0219 89.1651 77.7495 89.1177C78.2692 89.0839 78.79 89.0637 79.3096 89.0341C79.5105 89.0229 79.5265 88.9891 79.5093 88.7817C79.421 87.6826 79.3066 86.5835 79.2563 85.482ZM77.0462 83.6837C76.9277 84.5097 76.6024 85.2219 75.9773 85.8043C75.6022 86.1539 75.2236 86.5011 74.7798 86.7452C74.4214 86.9425 74.0149 87.077 73.6132 87.1647C72.9348 87.3129 72.2457 87.2975 71.5684 87.1179C71.3083 87.0486 71.0292 87.0119 70.7958 86.8898C69.9526 86.449 69.2606 85.831 68.7534 85.0187C68.6106 84.7894 68.4702 84.5577 68.3493 84.3165C68.296 84.2093 68.2871 84.0772 68.2705 83.9545C68.2231 83.6049 68.1828 83.2542 68.1395 82.904C68.1787 82.1847 68.3072 81.4879 68.5745 80.8278C68.7095 80.4942 68.9069 80.179 69.1148 79.8828C69.4727 79.3738 69.7773 78.8204 70.2602 78.4098C70.3769 78.3102 70.5066 78.2042 70.6488 78.1597C71.4896 77.8984 72.3399 77.7106 73.2286 77.9038C73.9468 78.0596 74.5731 78.373 75.1057 78.8885C75.626 79.3922 76.0691 79.9497 76.4205 80.5801C76.7328 81.1401 76.9058 81.7486 77.0112 82.3772C77.0841 82.8104 77.109 83.2465 77.0462 83.6837Z" fill="black"/>
<path d="M62.0499 78.6191C61.8188 78.2352 61.5563 77.8637 61.205 77.5917C60.5727 77.1029 59.9222 76.6324 59.2491 76.2017C58.7081 75.8557 58.1209 75.5813 57.5563 75.2714C56.6319 74.7648 55.662 74.4164 54.5943 74.3892C54.4124 74.3844 54.2317 74.3483 54.0338 74.3252C54.0338 74.4028 54.0302 74.4425 54.0344 74.4816C54.1173 75.2987 54.2044 76.1158 54.2844 76.9334C54.3739 77.8441 54.4586 78.756 54.5445 79.6673C54.602 80.2782 54.6589 80.8885 54.7152 81.4993C54.7892 82.3069 54.8692 83.1145 54.9338 83.9227C54.9859 84.5751 55.0156 85.2298 55.0636 85.8828C55.1234 86.6909 55.1921 87.4991 55.2567 88.3067C55.2952 88.7926 55.3331 89.2779 55.3746 89.8052C55.6099 89.7341 55.8149 89.6648 56.0228 89.6108C56.8778 89.3881 57.7103 89.0977 58.5351 88.7837C58.6607 88.7357 58.7851 88.6847 58.9119 88.6397C59.6206 88.3879 60.2907 88.0602 60.8868 87.5987C61.4307 87.1774 61.9337 86.7117 62.3135 86.1292C62.563 85.7471 62.8195 85.3696 63.066 84.9857C63.1211 84.8998 63.1508 84.7967 63.1839 84.6989C63.2236 84.581 63.2568 84.4607 63.2888 84.3404C63.405 83.9008 63.5732 83.4795 63.5863 83.0091C63.6088 82.2056 63.3641 81.4679 63.0862 80.7409C62.8047 80.005 62.4575 79.2964 62.0499 78.6191ZM61.3916 82.6796C61.2405 82.8805 61.0153 83.0351 60.8015 83.1767C60.5342 83.3533 60.2445 83.4967 59.9619 83.649C59.8996 83.6828 59.8256 83.7017 59.7551 83.7124C59.2414 83.7882 58.7265 83.8522 58.2139 83.9352C57.8436 83.995 57.5254 83.8398 57.247 83.6567C56.8589 83.4019 56.5164 83.0772 56.1573 82.7798C55.7295 82.4254 55.6104 81.9425 55.5927 81.4288C55.6205 81.0739 55.6614 80.7391 55.8226 80.4245C55.9737 80.1295 56.069 79.8036 56.2415 79.5233C56.5093 79.0878 56.8304 78.692 57.3554 78.532C57.6137 78.4532 57.875 78.3762 58.1203 78.266C58.5221 78.0847 58.9244 78.0794 59.3385 78.1925C59.8801 78.3407 60.4211 78.4864 60.8773 78.8401C61.1261 79.0327 61.3584 79.2294 61.4461 79.5535C61.4805 79.6809 61.5622 79.7959 61.6185 79.9179C62.0605 80.8802 62.0422 81.8134 61.3916 82.6796Z" fill="black"/>
<path d="M64.1474 63.7498C64.0769 63.0459 63.9874 62.3438 63.9163 61.6405C63.8452 60.9336 63.7249 60.2303 63.7024 59.5092C65.554 59.2035 67.3831 59.0109 69.1985 58.6613C69.0232 57.6209 68.8531 56.613 68.6837 55.6063C68.6214 55.6152 68.5971 55.6116 68.5823 55.6223C68.1575 55.9203 67.7427 56.2332 67.3078 56.5152C66.8131 56.8364 66.329 57.1818 65.743 57.3353C65.2998 57.4514 64.8661 57.6025 64.4205 57.708C63.9726 57.814 63.5169 57.8762 63.069 57.6866C62.8397 57.5895 62.6039 57.5047 62.3805 57.3957C62.0759 57.247 61.7465 57.1285 61.6144 56.7593C61.4674 56.3505 61.2435 55.9677 61.1937 55.5269C61.1777 55.3865 61.1824 55.2419 61.1967 55.1009C61.2079 54.9883 61.2452 54.8781 61.2755 54.7679C61.3827 54.3739 61.5131 53.9846 61.8081 53.6907C61.9971 53.5023 62.2134 53.3311 62.4433 53.196C62.9582 52.8944 63.4915 52.6331 64.1219 52.7314C64.491 52.7889 64.8608 52.847 65.2317 52.8938C66.2229 53.02 67.1609 53.3003 68.0153 53.8323C68.1688 53.9277 68.3311 54.0089 68.5409 54.1256C68.401 53.1723 68.2701 52.2788 68.1308 51.3284C67.8826 51.3509 67.6669 51.3669 67.4518 51.39C66.8617 51.4522 66.2709 51.5731 65.6814 51.5695C63.6568 51.5577 61.6357 51.6329 59.6152 51.7378C59.5364 51.7419 59.4588 51.7609 59.3723 51.7745C59.3853 51.9754 59.3895 52.1508 59.4096 52.3244C59.5092 53.19 59.6141 54.0557 59.7148 54.9214C59.8031 55.6845 59.889 56.4483 59.9737 57.212C60.0875 58.2424 60.2771 59.2615 60.3251 60.3026C60.366 61.1836 60.5153 62.0588 60.6113 62.9375C60.6575 63.3611 60.6853 63.7871 60.7339 64.2108C60.8512 65.2335 60.9733 66.2555 61.0989 67.277C61.1528 67.7185 61.2204 68.1587 61.2808 68.5942C61.5456 68.6292 64.2114 68.1409 64.5829 67.9904C64.5764 67.2895 64.4063 66.5986 64.3447 65.8965C64.2795 65.1801 64.2191 64.4644 64.1474 63.7498Z" fill="black"/>
<path d="M23.9992 81.4319C23.5435 80.8963 22.9955 80.4786 22.3342 80.2137C21.9627 80.065 21.5847 79.953 21.1859 79.9536C20.3232 79.9548 19.4813 80.1071 18.6944 80.4596C17.5858 80.9561 16.6899 81.714 16.1099 82.7953C15.8284 83.3197 15.6281 83.8808 15.6815 84.4976C15.7105 84.8294 15.7046 85.1665 15.7626 85.493C15.8444 85.9522 15.9457 86.4079 16.1727 86.828C16.7421 87.8844 17.6676 88.5048 18.74 88.9456C18.8905 89.0078 19.0629 89.0274 19.2271 89.044C20.0898 89.1305 20.9311 89.0357 21.7429 88.7246C22.1405 88.5723 22.5333 88.4188 22.8361 88.0906C23.2887 87.6 23.7219 87.0952 24.0323 86.5021C24.2581 86.0695 24.4637 85.6246 24.5147 85.1274C24.5656 84.6321 24.626 84.1379 24.6823 83.6426C24.6729 83.0969 24.7096 82.5559 24.3843 82.0701C24.2462 81.8639 24.158 81.6192 23.9992 81.4319ZM20.8506 85.2898C20.8103 85.2993 20.7706 85.3105 20.7303 85.3218C20.4885 85.3935 20.2397 85.4758 20.0258 85.2696C19.7988 85.0504 19.6004 84.8057 19.6276 84.462C19.6365 84.3518 19.6697 84.2363 19.7206 84.1379C19.8356 83.9175 19.96 83.7013 20.0963 83.4933C20.3203 83.1502 20.8132 83.0294 21.1936 83.2113C21.2126 83.2201 21.2321 83.2267 21.2511 83.2355C21.5977 83.392 21.8009 83.6379 21.753 84.0005C21.7909 84.4644 21.3785 85.166 20.8506 85.2898Z" fill="black"/>
<path d="M50.8869 77.0298C47.1001 77.3177 43.343 77.6466 39.5432 77.9837C39.7026 78.9649 39.6878 79.9301 39.859 80.9102C41.2976 80.8485 42.7078 80.7887 44.1103 80.7288C44.262 83.6713 44.4119 86.5752 44.5642 89.5217C45.5282 89.4589 46.4478 89.3997 47.4219 89.3363C47.4011 89.1064 47.3762 88.9014 47.3656 88.6964C47.3259 87.9071 47.2962 87.1179 47.2518 86.3293C47.2038 85.479 47.1434 84.6294 47.0895 83.7797C47.0539 83.2204 47.0219 82.6604 46.9858 82.1011C46.9662 81.8007 46.9372 81.5009 46.92 81.2005C46.9028 80.9036 46.8957 80.6062 46.8827 80.2756C48.3865 80.2021 49.8476 80.1304 51.3384 80.0569C51.1973 79.0384 51.0854 78.0448 50.8869 77.0298Z" fill="black"/>
<path d="M102.566 60.2689C102.6 60.3056 102.593 60.388 102.594 60.4496C102.616 61.5333 102.627 62.6176 102.66 63.7007C102.688 64.6061 102.74 65.5114 102.786 66.4162C102.795 66.5785 102.827 66.7397 102.849 66.9038C105.442 66.937 108.013 66.9696 110.625 67.0028C110.706 66.1407 110.868 65.2626 110.917 64.3311C110.539 64.6345 110.183 64.8602 109.787 65.0226C109.364 65.1962 108.942 65.3698 108.528 65.5606C108.291 65.6696 108.05 65.6987 107.797 65.6827C107.266 65.6495 106.735 65.6193 106.206 65.5754C105.776 65.5399 105.363 65.4362 105.015 65.1612C104.738 64.942 104.463 64.7186 104.2 64.4828C103.852 64.1706 103.706 63.7659 103.751 63.3055C103.782 62.9855 103.851 62.6691 103.906 62.3515C104 61.797 104.398 61.5037 104.86 61.285C105.397 61.0302 105.978 61.0747 106.551 61.0895C106.812 61.0966 107.062 61.1422 107.309 61.2483C107.709 61.4207 108.125 61.5546 108.531 61.7134C109.162 61.9605 109.787 62.2212 110.286 62.7035C110.333 62.7479 110.404 62.7663 110.486 62.8084C110.475 62.63 110.46 62.486 110.458 62.3421C110.444 61.6334 110.436 60.9248 110.42 60.2161C110.417 60.1166 110.418 59.9845 110.36 59.9264C110.26 59.8274 110.269 59.7226 110.269 59.6118C110.267 59.1111 110.276 58.611 110.268 58.1109C110.263 57.8147 110.232 57.5196 110.208 57.1528C110.12 57.2571 110.078 57.298 110.048 57.346C109.742 57.8242 109.373 58.2401 108.888 58.5446C108.395 58.8539 107.919 59.1982 107.328 59.3048C107.154 59.3362 106.975 59.3404 106.801 59.3748C106.023 59.5282 105.263 59.4423 104.528 59.1686C104.215 59.0518 103.924 58.8699 103.815 58.5198C103.704 58.1625 103.607 57.8005 103.51 57.439C103.438 57.1671 103.471 56.9087 103.597 56.651C103.884 56.0697 104.295 55.5939 104.788 55.1833C104.866 55.1181 104.96 55.0553 105.057 55.0316C105.491 54.9256 105.925 54.7686 106.364 54.7496C107.401 54.7034 108.423 54.816 109.384 55.2609C109.588 55.3552 109.8 55.4322 110.037 55.5282C110.131 54.8717 110.188 54.2472 110.184 53.593C107.526 53.641 104.912 53.8069 102.294 53.9793C102.284 54.0854 102.273 54.1464 102.273 54.2075C102.277 55.9068 102.269 57.6055 102.296 59.3043C102.299 59.6313 102.308 59.9928 102.566 60.2689Z" fill="black"/>
<path d="M128.542 86.2862C128.537 86.2518 128.533 86.2174 128.529 86.1819C128.49 86.0006 128.437 85.8222 128.373 85.6486C128.325 85.5153 128.269 85.3832 128.205 85.2546C128.107 85.1699 128.029 85.1023 127.953 85.0342C127.633 84.7521 127.328 84.4541 126.993 84.1916C126.431 83.7508 125.778 83.6199 125.083 83.7354C124.818 83.7792 124.559 83.8752 124.309 83.9748C124.081 84.0654 123.843 84.1626 123.652 84.3107C123.291 84.5904 123.041 84.966 122.954 85.4205C122.9 85.7055 122.884 85.9988 122.868 86.2891C122.857 86.4752 122.858 86.666 122.889 86.8485C122.947 87.1969 123.023 87.5423 123.108 87.8848C123.134 87.9873 123.191 88.1087 123.272 88.1662C123.576 88.3813 123.881 88.6088 124.217 88.7652C124.639 88.9614 125.08 89.1492 125.533 89.2357C126.041 89.3323 126.558 89.4063 127.079 89.1255C128.051 88.6035 128.714 87.3776 128.542 86.2862Z" fill="black"/>
<path d="M81.1079 60.8232C80.3531 60.9701 79.5941 61.1449 78.8256 61.2605C78.0518 61.3772 77.2827 61.5449 76.4923 61.6047C76.4691 61.4121 76.4502 61.2575 76.433 61.1034C76.3898 60.71 76.3471 60.3166 76.3056 59.9232C76.292 59.7958 76.2778 59.6636 76.4466 59.6228C76.7192 59.5564 76.99 59.4634 77.2667 59.4337C78.1057 59.3437 78.947 59.2791 79.7872 59.2033C80.679 59.1227 81.5713 59.0409 82.463 58.9586C82.8055 58.9271 83.1474 58.8845 83.4904 58.862C84.0829 58.8229 84.6766 58.8039 85.2686 58.7583C85.5749 58.7346 85.8783 58.6718 86.2077 58.6232C86.104 57.4743 86.0045 56.3687 85.9026 55.2352C85.7769 55.2352 85.6727 55.2198 85.5749 55.2376C84.9296 55.3567 84.2868 55.4858 83.6421 55.6055C83.1723 55.6932 82.7024 55.7856 82.229 55.8508C81.3521 55.9717 80.4722 56.0718 79.5941 56.1862C79.0466 56.2573 78.5015 56.3432 77.954 56.4131C77.1381 56.518 76.3187 56.6003 75.5045 56.7194C74.5856 56.8539 73.6648 56.9493 72.7351 56.9553C72.4253 56.9576 72.1154 56.9855 71.7741 57.0033C71.7741 57.1372 71.767 57.2397 71.7753 57.3404C71.831 58.0348 71.8837 58.7298 71.9495 59.4237C71.9915 59.8687 72.068 60.3107 72.1035 60.7562C72.1462 61.296 72.1462 61.8399 72.193 62.3791C72.286 63.4468 72.3938 64.5134 72.5041 65.5799C72.5544 66.0663 72.6107 66.5528 72.6871 67.0357C72.808 67.7959 72.9484 68.5531 73.0818 69.3109C73.0954 69.3891 73.1203 69.4662 73.1469 69.5728C74.4605 69.4638 75.7433 69.2742 77.0634 69.0923C77.0166 68.4542 76.9692 67.8433 76.9266 67.2324C76.8839 66.615 76.7488 66.0023 76.8033 65.3547C77.3022 65.2931 77.775 65.2232 78.2502 65.1776C79.2356 65.0834 80.2227 65.0034 81.2087 64.9139C81.3183 64.9038 81.4255 64.8695 81.528 64.8475C81.4243 63.0303 81.2229 61.0649 81.1079 60.8232Z" fill="black"/>
</svg>
