<svg width="143" height="143" viewBox="0 0 143 143" fill="none" xmlns="http://www.w3.org/2000/svg">
<path d="M99.4884 90.2644C99.4884 92.3629 98.3193 96.404 95.6926 98.6238C95.1672 99.0279 94.6419 98.7999 94.8728 98.211C95.6377 96.3405 97.387 92.0136 96.5672 91.0178C95.987 90.2615 93.5912 90.3193 91.5475 90.4925C90.6152 90.6108 89.7954 90.6656 89.1604 90.7955C88.5715 90.8417 88.4532 90.325 89.042 89.9209C89.8092 89.3799 90.6566 88.963 91.5533 88.6855C94.8728 87.6925 98.709 88.29 99.2603 88.9251C99.3642 89.0463 99.4884 89.3898 99.4884 90.2644ZM93.9405 93.9967C93.1815 94.582 92.3818 95.1125 91.5475 95.5843C85.4223 99.2646 77.4873 101.193 70.5972 101.193C59.5043 101.193 49.5833 97.1026 42.0553 90.2586C41.4087 89.7333 41.9427 88.9713 42.699 89.384C50.8101 94.1179 60.8494 96.9813 71.2409 96.9813C77.7817 96.9813 84.8306 95.7575 91.5475 93.125C92.018 92.9489 92.5434 92.7093 93.0023 92.5419C94.0617 92.0656 94.994 93.2404 93.9405 93.9967ZM76.1306 62.1584C76.1306 59.1535 76.2519 57.3841 75.256 55.8658C74.3728 54.6159 72.8516 53.8654 70.7271 53.9838C68.4236 54.1108 65.9499 55.6204 65.3206 58.3886C65.1965 59.0236 64.827 59.6471 64.0592 59.7828L57.0306 58.888C56.5283 58.7725 55.7634 58.3886 56.0145 57.3841C57.5241 49.4433 64.3104 46.6751 70.73 46.3027H72.2367C75.7583 46.3027 80.2843 47.3101 83.1795 49.9513C86.6924 53.2304 86.3172 57.6352 86.3172 62.4211V73.7564C86.3172 77.1567 87.6969 78.6635 89.0825 80.4358C89.4577 81.068 89.5876 81.8127 88.9554 82.3265C87.1369 83.9478 85.2922 85.5394 83.422 87.1008C82.9168 87.4847 82.0105 87.5251 81.6612 87.2307C79.4386 85.3689 78.8959 84.3355 77.5191 82.4448C75.1232 84.959 73.1113 86.3474 70.7184 87.1008C69.0358 87.529 67.305 87.7386 65.5689 87.7243C59.536 87.7243 54.7589 83.9631 54.7589 76.5246C54.7589 70.6101 57.9052 66.5892 62.5525 64.687C67.1998 62.7819 73.9542 62.1757 76.1306 62.1642M74.7538 77.151C76.2548 74.6339 76.1306 72.5729 76.1306 67.9574C74.2486 67.9574 72.3609 68.0873 70.73 68.4712C67.7136 69.3458 65.3177 71.2423 65.3177 75.2689C65.3177 78.4153 66.9573 80.5571 69.7226 80.5571C70.1036 80.5571 70.4384 80.5138 70.7271 80.4272C72.661 79.8903 73.8676 78.9204 74.7538 77.151Z" fill="black"/>
</svg>
