<svg width="1064" height="346" viewBox="0 0 1064 346" fill="none" xmlns="http://www.w3.org/2000/svg">
<g clip-path="url(#clip0_102_341)">
<rect width="1064" height="346" rx="17" fill="#9BB6E9"/>
<g opacity="0.7">
<rect x="268.581" y="-185.095" width="170.852" height="579.355" rx="85.4262" transform="rotate(36.5009 268.581 -185.095)" fill="#809FD9"/>
<rect x="1043.84" y="0.0244141" width="170.852" height="490.389" rx="85.4262" transform="rotate(83.2236 1043.84 0.0244141)" fill="#ABC4F5"/>
<rect x="814.812" y="273.372" width="138.94" height="398.793" rx="69.4701" transform="rotate(65.088 814.812 273.372)" fill="#ABC4F5"/>
<rect x="332.623" y="126.487" width="138.94" height="398.793" rx="69.4701" transform="rotate(24.3874 332.623 126.487)" fill="#ABC4F5"/>
<g opacity="0.7" filter="url(#filter0_f_102_341)">
<rect x="129.683" y="152.159" width="201.934" height="438.474" rx="34.5695" transform="rotate(-40.5555 129.683 152.159)" fill="#3D63A9"/>
</g>
</g>
<path d="M69.1157 124.5C67.6354 124.5 66.4914 124.119 65.684 123.356C64.9214 122.549 64.5401 121.405 64.5401 119.924V81.6366C64.5401 80.1563 64.9214 79.0348 65.684 78.2721C66.4914 77.4647 67.6354 77.0609 69.1157 77.0609H85.2652C88.5848 77.0609 91.411 77.5544 93.7437 78.5413C96.0764 79.5282 97.8483 80.9413 99.0595 82.7805C100.316 84.6198 100.944 86.8179 100.944 89.3749C100.944 92.2459 100.114 94.6683 98.4539 96.6422C96.7941 98.616 94.5287 99.9393 91.6577 100.612V99.6029C94.9773 100.096 97.5567 101.352 99.396 103.371C101.235 105.39 102.155 108.014 102.155 111.244C102.155 115.461 100.719 118.736 97.8483 121.068C95.0222 123.356 91.0745 124.5 86.0054 124.5H69.1157ZM72.8167 117.973H84.9288C87.9792 117.973 90.2222 117.39 91.6577 116.223C93.0932 115.012 93.811 113.218 93.811 110.84C93.811 108.418 93.0932 106.623 91.6577 105.457C90.2222 104.291 87.9792 103.708 84.9288 103.708H72.8167V117.973ZM72.8167 97.1805H83.7848C86.7456 97.1805 88.9437 96.6197 90.3792 95.4982C91.8596 94.3319 92.5998 92.6272 92.5998 90.3842C92.5998 88.1413 91.8596 86.459 90.3792 85.3375C88.9437 84.1712 86.7456 83.588 83.7848 83.588H72.8167V97.1805ZM122.912 125.173C119.189 125.173 115.981 124.478 113.29 123.087C110.598 121.696 108.512 119.722 107.032 117.165C105.596 114.608 104.879 111.58 104.879 108.081C104.879 104.672 105.574 101.689 106.964 99.1319C108.4 96.5749 110.351 94.5786 112.819 93.1431C115.331 91.6627 118.179 90.9226 121.364 90.9226C123.697 90.9226 125.783 91.3039 127.622 92.0665C129.506 92.8291 131.099 93.9282 132.4 95.3637C133.746 96.7992 134.755 98.5487 135.428 100.612C136.146 102.631 136.505 104.919 136.505 107.476C136.505 108.283 136.213 108.911 135.63 109.36C135.091 109.764 134.306 109.965 133.275 109.965H111.675V105.121H130.583L129.506 106.13C129.506 104.066 129.192 102.339 128.564 100.949C127.981 99.558 127.106 98.5038 125.94 97.7861C124.819 97.0235 123.406 96.6422 121.701 96.6422C119.817 96.6422 118.202 97.0908 116.856 97.988C115.555 98.8403 114.546 100.074 113.828 101.689C113.155 103.259 112.819 105.143 112.819 107.341V107.812C112.819 111.491 113.671 114.25 115.376 116.089C117.125 117.883 119.682 118.78 123.047 118.78C124.213 118.78 125.514 118.646 126.949 118.377C128.43 118.063 129.82 117.547 131.121 116.829C132.063 116.291 132.893 116.066 133.611 116.156C134.329 116.201 134.89 116.448 135.293 116.896C135.742 117.345 136.011 117.906 136.101 118.579C136.191 119.207 136.056 119.857 135.697 120.53C135.383 121.203 134.822 121.786 134.015 122.279C132.445 123.266 130.628 124.007 128.564 124.5C126.546 124.949 124.662 125.173 122.912 125.173ZM154.743 125.173C151.827 125.173 149.382 124.679 147.408 123.693C145.479 122.706 144.044 121.27 143.102 119.386C142.159 117.457 141.688 115.079 141.688 112.253V97.9207H138.189C137.113 97.9207 136.283 97.6515 135.7 97.1132C135.117 96.53 134.825 95.745 134.825 94.7581C134.825 93.7263 135.117 92.9412 135.7 92.4029C136.283 91.8646 137.113 91.5955 138.189 91.5955H141.688V85.4721C141.688 84.0815 142.047 83.0273 142.765 82.3095C143.528 81.5918 144.582 81.2329 145.928 81.2329C147.273 81.2329 148.305 81.5918 149.023 82.3095C149.741 83.0273 150.1 84.0815 150.1 85.4721V91.5955H157.232C158.309 91.5955 159.139 91.8646 159.722 92.4029C160.305 92.9412 160.597 93.7263 160.597 94.7581C160.597 95.745 160.305 96.53 159.722 97.1132C159.139 97.6515 158.309 97.9207 157.232 97.9207H150.1V111.782C150.1 113.936 150.571 115.551 151.513 116.627C152.455 117.704 153.98 118.242 156.088 118.242C156.851 118.242 157.524 118.175 158.107 118.04C158.69 117.906 159.206 117.816 159.655 117.771C160.193 117.726 160.642 117.906 161.001 118.309C161.359 118.668 161.539 119.431 161.539 120.597C161.539 121.494 161.382 122.302 161.068 123.02C160.799 123.693 160.283 124.164 159.52 124.433C158.937 124.612 158.174 124.769 157.232 124.904C156.29 125.083 155.46 125.173 154.743 125.173ZM175.297 125.173C172.382 125.173 169.937 124.679 167.963 123.693C166.034 122.706 164.598 121.27 163.656 119.386C162.714 117.457 162.243 115.079 162.243 112.253V97.9207H158.744C157.668 97.9207 156.838 97.6515 156.255 97.1132C155.671 96.53 155.38 95.745 155.38 94.7581C155.38 93.7263 155.671 92.9412 156.255 92.4029C156.838 91.8646 157.668 91.5955 158.744 91.5955H162.243V85.4721C162.243 84.0815 162.602 83.0273 163.32 82.3095C164.083 81.5918 165.137 81.2329 166.483 81.2329C167.828 81.2329 168.86 81.5918 169.578 82.3095C170.296 83.0273 170.654 84.0815 170.654 85.4721V91.5955H177.787C178.864 91.5955 179.694 91.8646 180.277 92.4029C180.86 92.9412 181.152 93.7263 181.152 94.7581C181.152 95.745 180.86 96.53 180.277 97.1132C179.694 97.6515 178.864 97.9207 177.787 97.9207H170.654V111.782C170.654 113.936 171.125 115.551 172.068 116.627C173.01 117.704 174.535 118.242 176.643 118.242C177.406 118.242 178.079 118.175 178.662 118.04C179.245 117.906 179.761 117.816 180.21 117.771C180.748 117.726 181.196 117.906 181.555 118.309C181.914 118.668 182.094 119.431 182.094 120.597C182.094 121.494 181.937 122.302 181.623 123.02C181.353 123.693 180.838 124.164 180.075 124.433C179.492 124.612 178.729 124.769 177.787 124.904C176.845 125.083 176.015 125.173 175.297 125.173ZM198.573 125.173C194.85 125.173 191.642 124.478 188.951 123.087C186.259 121.696 184.173 119.722 182.693 117.165C181.257 114.608 180.54 111.58 180.54 108.081C180.54 104.672 181.235 101.689 182.626 99.1319C184.061 96.5749 186.013 94.5786 188.48 93.1431C190.992 91.6627 193.841 90.9226 197.026 90.9226C199.358 90.9226 201.444 91.3039 203.284 92.0665C205.168 92.8291 206.76 93.9282 208.061 95.3637C209.407 96.7992 210.416 98.5487 211.089 100.612C211.807 102.631 212.166 104.919 212.166 107.476C212.166 108.283 211.874 108.911 211.291 109.36C210.753 109.764 209.968 109.965 208.936 109.965H187.336V105.121H206.244L205.168 106.13C205.168 104.066 204.854 102.339 204.226 100.949C203.642 99.558 202.768 98.5038 201.601 97.7861C200.48 97.0235 199.067 96.6422 197.362 96.6422C195.478 96.6422 193.863 97.0908 192.517 97.988C191.216 98.8403 190.207 100.074 189.489 101.689C188.816 103.259 188.48 105.143 188.48 107.341V107.812C188.48 111.491 189.332 114.25 191.037 116.089C192.786 117.883 195.343 118.78 198.708 118.78C199.874 118.78 201.175 118.646 202.611 118.377C204.091 118.063 205.482 117.547 206.783 116.829C207.725 116.291 208.555 116.066 209.272 116.156C209.99 116.201 210.551 116.448 210.955 116.896C211.403 117.345 211.672 117.906 211.762 118.579C211.852 119.207 211.717 119.857 211.358 120.53C211.044 121.203 210.484 121.786 209.676 122.279C208.106 123.266 206.289 124.007 204.226 124.5C202.207 124.949 200.323 125.173 198.573 125.173ZM219.769 125.038C218.378 125.038 217.302 124.679 216.539 123.962C215.821 123.199 215.462 122.122 215.462 120.732V95.2964C215.462 93.9057 215.821 92.8515 216.539 92.1338C217.257 91.416 218.266 91.0571 219.567 91.0571C220.868 91.0571 221.877 91.416 222.595 92.1338C223.313 92.8515 223.672 93.9057 223.672 95.2964V99.5356H222.999C223.627 96.844 224.861 94.8029 226.7 93.4123C228.539 92.0216 230.984 91.1917 234.034 90.9226C234.976 90.8328 235.717 91.0796 236.255 91.6627C236.838 92.2011 237.174 93.0534 237.264 94.2197C237.354 95.3412 237.085 96.2609 236.457 96.9786C235.874 97.6515 234.976 98.0552 233.765 98.1898L232.285 98.3244C229.548 98.5936 227.485 99.4459 226.094 100.881C224.703 102.272 224.008 104.246 224.008 106.803V120.732C224.008 122.122 223.649 123.199 222.932 123.962C222.214 124.679 221.16 125.038 219.769 125.038ZM259.812 125.038C258.466 125.038 257.412 124.679 256.649 123.962C255.932 123.199 255.573 122.122 255.573 120.732V97.9207H252.477C251.401 97.9207 250.571 97.6515 249.988 97.1132C249.404 96.53 249.113 95.745 249.113 94.7581C249.113 93.7263 249.404 92.9412 249.988 92.4029C250.571 91.8646 251.401 91.5955 252.477 91.5955H257.995L255.573 93.816V91.5282C255.573 86.9076 256.739 83.4534 259.072 81.1656C261.404 78.8329 264.769 77.4647 269.165 77.0609L271.453 76.8591C272.35 76.7693 273.068 76.9264 273.606 77.3301C274.145 77.689 274.503 78.1824 274.683 78.8105C274.862 79.3936 274.885 79.9992 274.75 80.6273C274.616 81.2553 274.324 81.8161 273.875 82.3095C273.472 82.7581 272.933 83.0048 272.26 83.0497L271.318 83.117C268.761 83.2964 266.9 83.9469 265.733 85.0684C264.567 86.1899 263.984 87.8945 263.984 90.1824V92.6721L262.907 91.5955H269.703C270.78 91.5955 271.61 91.8646 272.193 92.4029C272.776 92.9412 273.068 93.7263 273.068 94.7581C273.068 95.745 272.776 96.53 272.193 97.1132C271.61 97.6515 270.78 97.9207 269.703 97.9207H263.984V120.732C263.984 123.603 262.593 125.038 259.812 125.038ZM288.65 125.173C285.24 125.173 282.28 124.478 279.767 123.087C277.255 121.696 275.304 119.722 273.913 117.165C272.523 114.564 271.827 111.513 271.827 108.014C271.827 105.367 272.209 103.012 272.971 100.949C273.779 98.8403 274.923 97.0459 276.403 95.5655C277.883 94.0403 279.655 92.8964 281.719 92.1338C283.782 91.3263 286.093 90.9226 288.65 90.9226C292.059 90.9226 295.02 91.6179 297.532 93.0085C300.044 94.3992 301.995 96.373 303.386 98.93C304.777 101.487 305.472 104.515 305.472 108.014C305.472 110.661 305.068 113.038 304.261 115.147C303.498 117.255 302.377 119.072 300.896 120.597C299.416 122.078 297.644 123.222 295.58 124.029C293.517 124.792 291.207 125.173 288.65 125.173ZM288.65 118.78C290.309 118.78 291.767 118.377 293.023 117.569C294.28 116.762 295.244 115.573 295.917 114.003C296.635 112.388 296.994 110.392 296.994 108.014C296.994 104.425 296.231 101.756 294.706 100.007C293.18 98.2123 291.162 97.3151 288.65 97.3151C286.99 97.3151 285.532 97.7188 284.276 98.5263C283.02 99.2889 282.033 100.478 281.315 102.093C280.642 103.663 280.306 105.637 280.306 108.014C280.306 111.558 281.068 114.25 282.594 116.089C284.119 117.883 286.138 118.78 288.65 118.78ZM313.356 125.038C311.966 125.038 310.889 124.679 310.127 123.962C309.409 123.199 309.05 122.122 309.05 120.732V95.2964C309.05 93.9057 309.409 92.8515 310.127 92.1338C310.844 91.416 311.854 91.0571 313.155 91.0571C314.456 91.0571 315.465 91.416 316.183 92.1338C316.9 92.8515 317.259 93.9057 317.259 95.2964V99.5356H316.586C317.214 96.844 318.448 94.8029 320.287 93.4123C322.127 92.0216 324.571 91.1917 327.622 90.9226C328.564 90.8328 329.304 91.0796 329.842 91.6627C330.426 92.2011 330.762 93.0534 330.852 94.2197C330.941 95.3412 330.672 96.2609 330.044 96.9786C329.461 97.6515 328.564 98.0552 327.353 98.1898L325.872 98.3244C323.136 98.5936 321.072 99.4459 319.682 100.881C318.291 102.272 317.596 104.246 317.596 106.803V120.732C317.596 122.122 317.237 123.199 316.519 123.962C315.801 124.679 314.747 125.038 313.356 125.038ZM359.657 125.038C358.536 125.038 357.571 124.769 356.764 124.231C355.956 123.648 355.306 122.75 354.813 121.539L345.056 96.6422C344.652 95.5655 344.517 94.6235 344.652 93.816C344.831 92.9637 345.257 92.2908 345.93 91.7973C346.603 91.3039 347.5 91.0571 348.622 91.0571C349.609 91.0571 350.416 91.3039 351.044 91.7973C351.672 92.2459 352.211 93.1207 352.659 94.4216L360.801 116.829H359.254L367.665 93.8833C368.024 92.8964 368.495 92.1786 369.078 91.73C369.706 91.2814 370.513 91.0571 371.5 91.0571C372.487 91.0571 373.295 91.3039 373.923 91.7973C374.551 92.2459 375.022 92.9412 375.336 93.8833L383.612 116.829H382.199L390.409 94.2197C390.857 93.0085 391.418 92.1786 392.091 91.73C392.809 91.2814 393.594 91.0571 394.446 91.0571C395.523 91.0571 396.353 91.3263 396.936 91.8646C397.519 92.4029 397.855 93.0983 397.945 93.9506C398.035 94.7581 397.878 95.6553 397.474 96.6422L387.784 121.539C387.336 122.706 386.685 123.58 385.833 124.164C385.026 124.747 384.061 125.038 382.94 125.038C381.818 125.038 380.831 124.747 379.979 124.164C379.171 123.58 378.543 122.706 378.095 121.539L369.28 98.1898H373.115L364.502 121.472C364.054 122.683 363.426 123.58 362.618 124.164C361.811 124.747 360.824 125.038 359.657 125.038ZM415.291 125.173C411.881 125.173 408.92 124.478 406.408 123.087C403.896 121.696 401.945 119.722 400.554 117.165C399.163 114.564 398.468 111.513 398.468 108.014C398.468 105.367 398.849 103.012 399.612 100.949C400.42 98.8403 401.563 97.0459 403.044 95.5655C404.524 94.0403 406.296 92.8964 408.36 92.1338C410.423 91.3263 412.734 90.9226 415.291 90.9226C418.7 90.9226 421.661 91.6179 424.173 93.0085C426.685 94.3992 428.636 96.373 430.027 98.93C431.418 101.487 432.113 104.515 432.113 108.014C432.113 110.661 431.709 113.038 430.902 115.147C430.139 117.255 429.018 119.072 427.537 120.597C426.057 122.078 424.285 123.222 422.221 124.029C420.158 124.792 417.848 125.173 415.291 125.173ZM415.291 118.78C416.95 118.78 418.408 118.377 419.664 117.569C420.92 116.762 421.885 115.573 422.558 114.003C423.276 112.388 423.634 110.392 423.634 108.014C423.634 104.425 422.872 101.756 421.347 100.007C419.821 98.2123 417.803 97.3151 415.291 97.3151C413.631 97.3151 412.173 97.7188 410.917 98.5263C409.661 99.2889 408.674 100.478 407.956 102.093C407.283 103.663 406.947 105.637 406.947 108.014C406.947 111.558 407.709 114.25 409.234 116.089C410.76 117.883 412.778 118.78 415.291 118.78ZM447.601 125.173C444.865 125.173 442.599 124.679 440.805 123.693C439.01 122.661 437.665 121.136 436.767 119.117C435.915 117.098 435.489 114.586 435.489 111.58V95.2964C435.489 93.8609 435.848 92.8067 436.566 92.1338C437.283 91.416 438.315 91.0571 439.661 91.0571C441.007 91.0571 442.038 91.416 442.756 92.1338C443.519 92.8067 443.9 93.8609 443.9 95.2964V111.715C443.9 114.048 444.371 115.775 445.313 116.896C446.255 118.018 447.758 118.579 449.822 118.579C452.065 118.579 453.904 117.816 455.339 116.291C456.775 114.721 457.493 112.657 457.493 110.1V95.2964C457.493 93.8609 457.851 92.8067 458.569 92.1338C459.287 91.416 460.319 91.0571 461.665 91.0571C463.01 91.0571 464.042 91.416 464.76 92.1338C465.522 92.8067 465.904 93.8609 465.904 95.2964V120.732C465.904 123.603 464.536 125.038 461.799 125.038C460.498 125.038 459.489 124.679 458.771 123.962C458.053 123.199 457.694 122.122 457.694 120.732V115.618L458.637 117.636C457.694 120.059 456.259 121.921 454.33 123.222C452.446 124.522 450.203 125.173 447.601 125.173ZM475.466 125.038C474.12 125.038 473.088 124.679 472.37 123.962C471.653 123.199 471.294 122.122 471.294 120.732V95.2964C471.294 93.9057 471.653 92.8515 472.37 92.1338C473.088 91.416 474.097 91.0571 475.398 91.0571C476.699 91.0571 477.709 91.416 478.426 92.1338C479.144 92.8515 479.503 93.9057 479.503 95.2964V99.8721L478.763 98.1898C479.75 95.8123 481.275 94.0179 483.339 92.8067C485.447 91.5506 487.825 90.9226 490.471 90.9226C493.118 90.9226 495.294 91.416 496.998 92.4029C498.703 93.3898 499.981 94.8926 500.834 96.9113C501.686 98.8851 502.112 101.397 502.112 104.448V120.732C502.112 122.122 501.753 123.199 501.036 123.962C500.318 124.679 499.286 125.038 497.94 125.038C496.595 125.038 495.54 124.679 494.778 123.962C494.06 123.199 493.701 122.122 493.701 120.732V104.851C493.701 102.294 493.208 100.433 492.221 99.2665C491.279 98.1001 489.798 97.5169 487.78 97.5169C485.312 97.5169 483.339 98.302 481.858 99.8721C480.423 101.397 479.705 103.438 479.705 105.995V120.732C479.705 123.603 478.292 125.038 475.466 125.038ZM519.941 125.173C517.07 125.173 514.536 124.478 512.338 123.087C510.184 121.696 508.502 119.722 507.291 117.165C506.08 114.564 505.474 111.513 505.474 108.014C505.474 104.47 506.08 101.442 507.291 98.93C508.502 96.373 510.184 94.3992 512.338 93.0085C514.536 91.6179 517.07 90.9226 519.941 90.9226C522.678 90.9226 525.055 91.5955 527.074 92.9412C529.138 94.287 530.528 96.059 531.246 98.2571H530.506V80.7619C530.506 79.3712 530.865 78.317 531.582 77.5993C532.3 76.8815 533.332 76.5226 534.678 76.5226C536.024 76.5226 537.055 76.8815 537.773 77.5993C538.536 78.317 538.917 79.3712 538.917 80.7619V120.732C538.917 122.122 538.558 123.199 537.84 123.962C537.123 124.679 536.091 125.038 534.745 125.038C533.399 125.038 532.368 124.679 531.65 123.962C530.932 123.199 530.573 122.122 530.573 120.732V115.483L531.313 117.502C530.64 119.835 529.272 121.696 527.209 123.087C525.145 124.478 522.723 125.173 519.941 125.173ZM522.297 118.78C523.956 118.78 525.414 118.377 526.67 117.569C527.926 116.762 528.891 115.573 529.564 114.003C530.282 112.388 530.64 110.392 530.64 108.014C530.64 104.425 529.878 101.756 528.353 100.007C526.827 98.2123 524.809 97.3151 522.297 97.3151C520.637 97.3151 519.179 97.7188 517.923 98.5263C516.667 99.2889 515.68 100.478 514.962 102.093C514.289 103.663 513.953 105.637 513.953 108.014C513.953 111.558 514.715 114.25 516.24 116.089C517.766 117.883 519.784 118.78 522.297 118.78ZM556.319 125.173C554.39 125.173 552.349 124.971 550.195 124.567C548.042 124.164 546.113 123.468 544.408 122.481C543.691 122.033 543.175 121.517 542.861 120.934C542.592 120.306 542.48 119.7 542.524 119.117C542.614 118.489 542.838 117.95 543.197 117.502C543.601 117.053 544.094 116.762 544.678 116.627C545.306 116.493 545.979 116.605 546.696 116.964C548.491 117.816 550.173 118.422 551.743 118.78C553.313 119.094 554.861 119.251 556.386 119.251C558.539 119.251 560.132 118.893 561.164 118.175C562.24 117.412 562.778 116.425 562.778 115.214C562.778 114.182 562.42 113.397 561.702 112.859C561.029 112.276 559.997 111.85 558.607 111.58L551.878 110.302C549.096 109.764 546.965 108.754 545.485 107.274C544.05 105.749 543.332 103.797 543.332 101.42C543.332 99.2665 543.915 97.4048 545.081 95.8347C546.293 94.2646 547.952 93.0534 550.061 92.2011C552.169 91.3487 554.592 90.9226 557.328 90.9226C559.302 90.9226 561.141 91.1469 562.846 91.5955C564.595 91.9992 566.278 92.6497 567.892 93.5469C568.565 93.9057 569.014 94.3768 569.238 94.9599C569.507 95.5431 569.575 96.1487 569.44 96.7767C569.306 97.3599 569.036 97.8982 568.633 98.3917C568.229 98.8403 567.713 99.1319 567.085 99.2665C566.502 99.3562 565.829 99.2216 565.066 98.8627C563.676 98.145 562.33 97.6291 561.029 97.3151C559.773 97.001 558.562 96.844 557.395 96.844C555.197 96.844 553.56 97.2253 552.483 97.988C551.451 98.7506 550.936 99.7599 550.936 101.016C550.936 101.958 551.25 102.743 551.878 103.371C552.506 103.999 553.47 104.425 554.771 104.65L561.5 105.928C564.416 106.466 566.614 107.453 568.094 108.889C569.62 110.324 570.382 112.253 570.382 114.676C570.382 117.95 569.104 120.53 566.547 122.414C563.99 124.253 560.58 125.173 556.319 125.173ZM74.5662 196.173C72.1886 196.173 70.0578 195.724 68.1737 194.827C66.3344 193.885 64.8765 192.629 63.7999 191.059C62.7681 189.489 62.2522 187.717 62.2522 185.743C62.2522 183.321 62.8802 181.414 64.1363 180.023C65.3924 178.588 67.4335 177.556 70.2597 176.928C73.0858 176.3 76.8765 175.986 81.6316 175.986H84.996V180.831H81.6989C78.9176 180.831 76.697 180.965 75.0372 181.235C73.3774 181.504 72.1886 181.975 71.4709 182.648C70.798 183.276 70.4615 184.173 70.4615 185.339C70.4615 186.82 70.9774 188.031 72.0092 188.973C73.041 189.915 74.4765 190.386 76.3157 190.386C77.7961 190.386 79.097 190.05 80.2185 189.377C81.3848 188.659 82.3045 187.694 82.9774 186.483C83.6503 185.272 83.9867 183.881 83.9867 182.311V174.573C83.9867 172.33 83.4932 170.715 82.5063 169.728C81.5194 168.741 79.8596 168.248 77.5269 168.248C76.226 168.248 74.8129 168.405 73.2877 168.719C71.8073 169.033 70.2372 169.571 68.5774 170.334C67.7251 170.737 66.9625 170.85 66.2896 170.67C65.6615 170.491 65.1681 170.132 64.8092 169.594C64.4503 169.01 64.2709 168.382 64.2709 167.709C64.2709 167.037 64.4503 166.386 64.8092 165.758C65.1681 165.085 65.7737 164.592 66.626 164.278C68.6896 163.425 70.6634 162.82 72.5475 162.461C74.4765 162.102 76.226 161.923 77.7961 161.923C81.026 161.923 83.6727 162.416 85.7362 163.403C87.8446 164.39 89.4147 165.893 90.4465 167.911C91.4783 169.885 91.9941 172.442 91.9941 175.582V191.732C91.9941 193.122 91.6577 194.199 90.9848 194.962C90.3119 195.679 89.3474 196.038 88.0914 196.038C86.8353 196.038 85.8484 195.679 85.1306 194.962C84.4577 194.199 84.1213 193.122 84.1213 191.732V188.502H84.6596C84.3456 190.072 83.7175 191.44 82.7755 192.607C81.8783 193.728 80.7344 194.603 79.3437 195.231C77.9531 195.859 76.3606 196.173 74.5662 196.173ZM101.339 196.038C99.9932 196.038 98.9614 195.679 98.2437 194.962C97.5259 194.199 97.167 193.122 97.167 191.732V166.296C97.167 164.906 97.5259 163.852 98.2437 163.134C98.9614 162.416 99.9708 162.057 101.272 162.057C102.573 162.057 103.582 162.416 104.3 163.134C105.017 163.852 105.376 164.906 105.376 166.296V170.872L104.636 169.19C105.623 166.812 107.148 165.018 109.212 163.807C111.32 162.551 113.698 161.923 116.345 161.923C118.991 161.923 121.167 162.416 122.872 163.403C124.576 164.39 125.855 165.893 126.707 167.911C127.559 169.885 127.986 172.397 127.986 175.448V191.732C127.986 193.122 127.627 194.199 126.909 194.962C126.191 195.679 125.159 196.038 123.814 196.038C122.468 196.038 121.414 195.679 120.651 194.962C119.933 194.199 119.574 193.122 119.574 191.732V175.851C119.574 173.294 119.081 171.433 118.094 170.266C117.152 169.1 115.672 168.517 113.653 168.517C111.186 168.517 109.212 169.302 107.731 170.872C106.296 172.397 105.578 174.438 105.578 176.995V191.732C105.578 194.603 104.165 196.038 101.339 196.038ZM145.815 196.173C142.944 196.173 140.409 195.478 138.211 194.087C136.058 192.696 134.375 190.722 133.164 188.165C131.953 185.564 131.347 182.513 131.347 179.014C131.347 175.47 131.953 172.442 133.164 169.93C134.375 167.373 136.058 165.399 138.211 164.009C140.409 162.618 142.944 161.923 145.815 161.923C148.551 161.923 150.929 162.595 152.947 163.941C155.011 165.287 156.402 167.059 157.119 169.257H156.379V151.762C156.379 150.371 156.738 149.317 157.456 148.599C158.174 147.881 159.205 147.523 160.551 147.523C161.897 147.523 162.929 147.881 163.646 148.599C164.409 149.317 164.79 150.371 164.79 151.762V191.732C164.79 193.122 164.431 194.199 163.714 194.962C162.996 195.679 161.964 196.038 160.618 196.038C159.273 196.038 158.241 195.679 157.523 194.962C156.805 194.199 156.446 193.122 156.446 191.732V186.483L157.187 188.502C156.514 190.835 155.145 192.696 153.082 194.087C151.018 195.478 148.596 196.173 145.815 196.173ZM148.17 189.78C149.83 189.78 151.288 189.377 152.544 188.569C153.8 187.762 154.764 186.573 155.437 185.003C156.155 183.388 156.514 181.392 156.514 179.014C156.514 175.425 155.751 172.756 154.226 171.007C152.701 169.212 150.682 168.315 148.17 168.315C146.51 168.315 145.052 168.719 143.796 169.526C142.54 170.289 141.553 171.478 140.835 173.093C140.162 174.663 139.826 176.637 139.826 179.014C139.826 182.558 140.589 185.25 142.114 187.089C143.639 188.883 145.658 189.78 148.17 189.78ZM204.026 196.173C201.245 196.173 198.8 195.478 196.692 194.087C194.628 192.696 193.26 190.835 192.587 188.502L193.327 186.82V191.732C193.327 193.122 192.968 194.199 192.251 194.962C191.533 195.679 190.524 196.038 189.223 196.038C187.877 196.038 186.845 195.679 186.127 194.962C185.41 194.199 185.051 193.122 185.051 191.732V151.762C185.051 150.371 185.41 149.317 186.127 148.599C186.845 147.881 187.877 147.523 189.223 147.523C190.568 147.523 191.6 147.881 192.318 148.599C193.081 149.317 193.462 150.371 193.462 151.762V169.257H192.654C193.372 167.059 194.763 165.287 196.826 163.941C198.89 162.595 201.29 161.923 204.026 161.923C206.942 161.923 209.477 162.618 211.63 164.009C213.783 165.399 215.466 167.373 216.677 169.93C217.888 172.442 218.494 175.47 218.494 179.014C218.494 182.513 217.888 185.564 216.677 188.165C215.466 190.722 213.761 192.696 211.563 194.087C209.41 195.478 206.897 196.173 204.026 196.173ZM201.671 189.78C203.331 189.78 204.789 189.377 206.045 188.569C207.301 187.762 208.266 186.573 208.938 185.003C209.656 183.388 210.015 181.392 210.015 179.014C210.015 175.425 209.253 172.756 207.727 171.007C206.202 169.212 204.183 168.315 201.671 168.315C200.011 168.315 198.553 168.719 197.297 169.526C196.041 170.289 195.054 171.478 194.337 173.093C193.664 174.663 193.327 176.637 193.327 179.014C193.327 182.558 194.09 185.25 195.615 187.089C197.14 188.883 199.159 189.78 201.671 189.78ZM238.25 196.173C234.527 196.173 231.32 195.478 228.628 194.087C225.936 192.696 223.85 190.722 222.37 188.165C220.935 185.608 220.217 182.58 220.217 179.081C220.217 175.672 220.912 172.689 222.303 170.132C223.738 167.575 225.69 165.579 228.157 164.143C230.669 162.663 233.518 161.923 236.703 161.923C239.035 161.923 241.121 162.304 242.961 163.066C244.845 163.829 246.437 164.928 247.738 166.364C249.084 167.799 250.093 169.549 250.766 171.612C251.484 173.631 251.843 175.919 251.843 178.476C251.843 179.283 251.551 179.911 250.968 180.36C250.43 180.764 249.645 180.965 248.613 180.965H227.013V176.121H245.921L244.845 177.13C244.845 175.066 244.531 173.339 243.903 171.949C243.32 170.558 242.445 169.504 241.278 168.786C240.157 168.023 238.744 167.642 237.039 167.642C235.155 167.642 233.54 168.091 232.194 168.988C230.893 169.84 229.884 171.074 229.166 172.689C228.493 174.259 228.157 176.143 228.157 178.341V178.812C228.157 182.491 229.009 185.25 230.714 187.089C232.464 188.883 235.021 189.78 238.385 189.78C239.551 189.78 240.852 189.646 242.288 189.377C243.768 189.063 245.159 188.547 246.46 187.829C247.402 187.291 248.232 187.066 248.949 187.156C249.667 187.201 250.228 187.448 250.632 187.896C251.08 188.345 251.349 188.906 251.439 189.579C251.529 190.207 251.394 190.857 251.035 191.53C250.721 192.203 250.161 192.786 249.353 193.279C247.783 194.266 245.966 195.007 243.903 195.5C241.884 195.949 240 196.173 238.25 196.173ZM270.081 196.173C267.165 196.173 264.72 195.679 262.746 194.693C260.817 193.706 259.382 192.27 258.44 190.386C257.498 188.457 257.027 186.079 257.027 183.253V168.921H253.528C252.451 168.921 251.621 168.652 251.038 168.113C250.455 167.53 250.163 166.745 250.163 165.758C250.163 164.726 250.455 163.941 251.038 163.403C251.621 162.865 252.451 162.595 253.528 162.595H257.027V156.472C257.027 155.081 257.386 154.027 258.103 153.31C258.866 152.592 259.92 152.233 261.266 152.233C262.612 152.233 263.644 152.592 264.361 153.31C265.079 154.027 265.438 155.081 265.438 156.472V162.595H272.571C273.647 162.595 274.477 162.865 275.06 163.403C275.644 163.941 275.935 164.726 275.935 165.758C275.935 166.745 275.644 167.53 275.06 168.113C274.477 168.652 273.647 168.921 272.571 168.921H265.438V182.782C265.438 184.936 265.909 186.551 266.851 187.627C267.793 188.704 269.318 189.242 271.427 189.242C272.189 189.242 272.862 189.175 273.445 189.04C274.029 188.906 274.544 188.816 274.993 188.771C275.531 188.726 275.98 188.906 276.339 189.309C276.698 189.668 276.877 190.431 276.877 191.597C276.877 192.494 276.72 193.302 276.406 194.02C276.137 194.693 275.621 195.164 274.858 195.433C274.275 195.612 273.513 195.769 272.571 195.904C271.629 196.083 270.799 196.173 270.081 196.173ZM290.636 196.173C287.72 196.173 285.275 195.679 283.301 194.693C281.372 193.706 279.937 192.27 278.995 190.386C278.053 188.457 277.582 186.079 277.582 183.253V168.921H274.083C273.006 168.921 272.176 168.652 271.593 168.113C271.01 167.53 270.718 166.745 270.718 165.758C270.718 164.726 271.01 163.941 271.593 163.403C272.176 162.865 273.006 162.595 274.083 162.595H277.582V156.472C277.582 155.081 277.94 154.027 278.658 153.31C279.421 152.592 280.475 152.233 281.821 152.233C283.167 152.233 284.198 152.592 284.916 153.31C285.634 154.027 285.993 155.081 285.993 156.472V162.595H293.125C294.202 162.595 295.032 162.865 295.615 163.403C296.198 163.941 296.49 164.726 296.49 165.758C296.49 166.745 296.198 167.53 295.615 168.113C295.032 168.652 294.202 168.921 293.125 168.921H285.993V182.782C285.993 184.936 286.464 186.551 287.406 187.627C288.348 188.704 289.873 189.242 291.982 189.242C292.744 189.242 293.417 189.175 294 189.04C294.583 188.906 295.099 188.816 295.548 188.771C296.086 188.726 296.535 188.906 296.894 189.309C297.253 189.668 297.432 190.431 297.432 191.597C297.432 192.494 297.275 193.302 296.961 194.02C296.692 194.693 296.176 195.164 295.413 195.433C294.83 195.612 294.068 195.769 293.125 195.904C292.183 196.083 291.354 196.173 290.636 196.173ZM313.912 196.173C310.188 196.173 306.981 195.478 304.289 194.087C301.598 192.696 299.512 190.722 298.031 188.165C296.596 185.608 295.878 182.58 295.878 179.081C295.878 175.672 296.573 172.689 297.964 170.132C299.4 167.575 301.351 165.579 303.818 164.143C306.33 162.663 309.179 161.923 312.364 161.923C314.697 161.923 316.783 162.304 318.622 163.066C320.506 163.829 322.098 164.928 323.399 166.364C324.745 167.799 325.755 169.549 326.427 171.612C327.145 173.631 327.504 175.919 327.504 178.476C327.504 179.283 327.212 179.911 326.629 180.36C326.091 180.764 325.306 180.965 324.274 180.965H302.674V176.121H321.583L320.506 177.13C320.506 175.066 320.192 173.339 319.564 171.949C318.981 170.558 318.106 169.504 316.94 168.786C315.818 168.023 314.405 167.642 312.7 167.642C310.816 167.642 309.201 168.091 307.856 168.988C306.555 169.84 305.545 171.074 304.828 172.689C304.155 174.259 303.818 176.143 303.818 178.341V178.812C303.818 182.491 304.671 185.25 306.375 187.089C308.125 188.883 310.682 189.78 314.046 189.78C315.213 189.78 316.513 189.646 317.949 189.377C319.429 189.063 320.82 188.547 322.121 187.829C323.063 187.291 323.893 187.066 324.611 187.156C325.328 187.201 325.889 187.448 326.293 187.896C326.741 188.345 327.011 188.906 327.1 189.579C327.19 190.207 327.055 190.857 326.697 191.53C326.383 192.203 325.822 192.786 325.014 193.279C323.444 194.266 321.627 195.007 319.564 195.5C317.545 195.949 315.661 196.173 313.912 196.173ZM335.107 196.038C333.717 196.038 332.64 195.679 331.877 194.962C331.16 194.199 330.801 193.122 330.801 191.732V166.296C330.801 164.906 331.16 163.852 331.877 163.134C332.595 162.416 333.604 162.057 334.905 162.057C336.206 162.057 337.216 162.416 337.933 163.134C338.651 163.852 339.01 164.906 339.01 166.296V170.536H338.337C338.965 167.844 340.199 165.803 342.038 164.412C343.877 163.022 346.322 162.192 349.373 161.923C350.315 161.833 351.055 162.08 351.593 162.663C352.176 163.201 352.513 164.053 352.603 165.22C352.692 166.341 352.423 167.261 351.795 167.979C351.212 168.652 350.315 169.055 349.103 169.19L347.623 169.324C344.887 169.594 342.823 170.446 341.432 171.881C340.042 173.272 339.346 175.246 339.346 177.803V191.732C339.346 193.122 338.988 194.199 338.27 194.962C337.552 195.679 336.498 196.038 335.107 196.038ZM375.15 196.038C373.804 196.038 372.75 195.679 371.988 194.962C371.27 194.199 370.911 193.122 370.911 191.732V168.921H367.816C366.739 168.921 365.909 168.652 365.326 168.113C364.743 167.53 364.451 166.745 364.451 165.758C364.451 164.726 364.743 163.941 365.326 163.403C365.909 162.865 366.739 162.595 367.816 162.595H373.333L370.911 164.816V162.528C370.911 157.908 372.077 154.453 374.41 152.166C376.743 149.833 380.107 148.465 384.503 148.061L386.791 147.859C387.689 147.769 388.406 147.926 388.945 148.33C389.483 148.689 389.842 149.182 390.021 149.81C390.201 150.394 390.223 150.999 390.089 151.627C389.954 152.255 389.662 152.816 389.214 153.31C388.81 153.758 388.272 154.005 387.599 154.05L386.657 154.117C384.1 154.296 382.238 154.947 381.072 156.068C379.905 157.19 379.322 158.895 379.322 161.182V163.672L378.246 162.595H385.042C386.118 162.595 386.948 162.865 387.532 163.403C388.115 163.941 388.406 164.726 388.406 165.758C388.406 166.745 388.115 167.53 387.532 168.113C386.948 168.652 386.118 168.921 385.042 168.921H379.322V191.732C379.322 194.603 377.932 196.038 375.15 196.038ZM403.988 196.173C400.579 196.173 397.618 195.478 395.106 194.087C392.594 192.696 390.642 190.722 389.252 188.165C387.861 185.564 387.166 182.513 387.166 179.014C387.166 176.367 387.547 174.012 388.31 171.949C389.117 169.84 390.261 168.046 391.741 166.566C393.222 165.04 394.994 163.896 397.057 163.134C399.121 162.326 401.431 161.923 403.988 161.923C407.397 161.923 410.358 162.618 412.87 164.009C415.382 165.399 417.334 167.373 418.724 169.93C420.115 172.487 420.81 175.515 420.81 179.014C420.81 181.661 420.407 184.038 419.599 186.147C418.837 188.255 417.715 190.072 416.235 191.597C414.754 193.078 412.982 194.222 410.919 195.029C408.855 195.792 406.545 196.173 403.988 196.173ZM403.988 189.78C405.648 189.78 407.106 189.377 408.362 188.569C409.618 187.762 410.582 186.573 411.255 185.003C411.973 183.388 412.332 181.392 412.332 179.014C412.332 175.425 411.569 172.756 410.044 171.007C408.519 169.212 406.5 168.315 403.988 168.315C402.328 168.315 400.87 168.719 399.614 169.526C398.358 170.289 397.371 171.478 396.653 173.093C395.981 174.663 395.644 176.637 395.644 179.014C395.644 182.558 396.407 185.25 397.932 187.089C399.457 188.883 401.476 189.78 403.988 189.78ZM428.695 196.038C427.304 196.038 426.228 195.679 425.465 194.962C424.747 194.199 424.388 193.122 424.388 191.732V166.296C424.388 164.906 424.747 163.852 425.465 163.134C426.183 162.416 427.192 162.057 428.493 162.057C429.794 162.057 430.803 162.416 431.521 163.134C432.239 163.852 432.598 164.906 432.598 166.296V170.536H431.925C432.553 167.844 433.786 165.803 435.626 164.412C437.465 163.022 439.91 162.192 442.96 161.923C443.902 161.833 444.642 162.08 445.181 162.663C445.764 163.201 446.1 164.053 446.19 165.22C446.28 166.341 446.011 167.261 445.383 167.979C444.799 168.652 443.902 169.055 442.691 169.19L441.211 169.324C438.474 169.594 436.411 170.446 435.02 171.881C433.629 173.272 432.934 175.246 432.934 177.803V191.732C432.934 193.122 432.575 194.199 431.857 194.962C431.14 195.679 430.085 196.038 428.695 196.038ZM477.351 196.173C474.435 196.173 471.99 195.679 470.016 194.693C468.087 193.706 466.652 192.27 465.71 190.386C464.768 188.457 464.297 186.079 464.297 183.253V168.921H460.798C459.721 168.921 458.891 168.652 458.308 168.113C457.725 167.53 457.433 166.745 457.433 165.758C457.433 164.726 457.725 163.941 458.308 163.403C458.891 162.865 459.721 162.595 460.798 162.595H464.297V156.472C464.297 155.081 464.656 154.027 465.373 153.31C466.136 152.592 467.19 152.233 468.536 152.233C469.882 152.233 470.913 152.592 471.631 153.31C472.349 154.027 472.708 155.081 472.708 156.472V162.595H479.841C480.917 162.595 481.747 162.865 482.33 163.403C482.913 163.941 483.205 164.726 483.205 165.758C483.205 166.745 482.913 167.53 482.33 168.113C481.747 168.652 480.917 168.921 479.841 168.921H472.708V182.782C472.708 184.936 473.179 186.551 474.121 187.627C475.063 188.704 476.588 189.242 478.697 189.242C479.459 189.242 480.132 189.175 480.715 189.04C481.299 188.906 481.814 188.816 482.263 188.771C482.801 188.726 483.25 188.906 483.609 189.309C483.968 189.668 484.147 190.431 484.147 191.597C484.147 192.494 483.99 193.302 483.676 194.02C483.407 194.693 482.891 195.164 482.128 195.433C481.545 195.612 480.783 195.769 479.841 195.904C478.899 196.083 478.069 196.173 477.351 196.173ZM489.765 196.038C488.419 196.038 487.387 195.679 486.669 194.962C485.952 194.199 485.593 193.122 485.593 191.732V151.762C485.593 150.371 485.952 149.317 486.669 148.599C487.387 147.881 488.419 147.523 489.765 147.523C491.11 147.523 492.142 147.881 492.86 148.599C493.623 149.317 494.004 150.371 494.004 151.762V169.19H493.062C494.049 166.812 495.574 165.018 497.638 163.807C499.746 162.551 502.124 161.923 504.77 161.923C507.417 161.923 509.593 162.416 511.297 163.403C513.002 164.39 514.28 165.893 515.133 167.911C515.985 169.885 516.411 172.397 516.411 175.448V191.732C516.411 193.122 516.052 194.199 515.335 194.962C514.617 195.679 513.585 196.038 512.239 196.038C510.894 196.038 509.839 195.679 509.077 194.962C508.359 194.199 508 193.122 508 191.732V175.851C508 173.294 507.507 171.433 506.52 170.266C505.578 169.1 504.097 168.517 502.079 168.517C499.611 168.517 497.638 169.302 496.157 170.872C494.722 172.397 494.004 174.438 494.004 176.995V191.732C494.004 194.603 492.591 196.038 489.765 196.038ZM537.807 196.173C534.083 196.173 530.876 195.478 528.184 194.087C525.493 192.696 523.407 190.722 521.926 188.165C520.491 185.608 519.773 182.58 519.773 179.081C519.773 175.672 520.468 172.689 521.859 170.132C523.295 167.575 525.246 165.579 527.713 164.143C530.225 162.663 533.074 161.923 536.259 161.923C538.592 161.923 540.678 162.304 542.517 163.066C544.401 163.829 545.994 164.928 547.295 166.364C548.64 167.799 549.65 169.549 550.323 171.612C551.04 173.631 551.399 175.919 551.399 178.476C551.399 179.283 551.108 179.911 550.524 180.36C549.986 180.764 549.201 180.965 548.169 180.965H526.569V176.121H545.478L544.401 177.13C544.401 175.066 544.087 173.339 543.459 171.949C542.876 170.558 542.001 169.504 540.835 168.786C539.713 168.023 538.3 167.642 536.596 167.642C534.711 167.642 533.096 168.091 531.751 168.988C530.45 169.84 529.44 171.074 528.723 172.689C528.05 174.259 527.713 176.143 527.713 178.341V178.812C527.713 182.491 528.566 185.25 530.27 187.089C532.02 188.883 534.577 189.78 537.941 189.78C539.108 189.78 540.409 189.646 541.844 189.377C543.324 189.063 544.715 188.547 546.016 187.829C546.958 187.291 547.788 187.066 548.506 187.156C549.224 187.201 549.784 187.448 550.188 187.896C550.637 188.345 550.906 188.906 550.995 189.579C551.085 190.207 550.951 190.857 550.592 191.53C550.278 192.203 549.717 192.786 548.909 193.279C547.339 194.266 545.523 195.007 543.459 195.5C541.44 195.949 539.556 196.173 537.807 196.173ZM76.4503 267.038C75.3288 267.038 74.3643 266.769 73.5568 266.231C72.7494 265.648 72.0989 264.75 71.6054 263.539L61.8485 238.642C61.4447 237.566 61.3102 236.623 61.4447 235.816C61.6242 234.964 62.0503 234.291 62.7232 233.797C63.3961 233.304 64.2933 233.057 65.4148 233.057C66.4017 233.057 67.2092 233.304 67.8372 233.797C68.4653 234.246 69.0036 235.121 69.4522 236.422L77.5942 258.829H76.0465L84.4577 235.883C84.8166 234.896 85.2876 234.179 85.8708 233.73C86.4988 233.281 87.3063 233.057 88.2932 233.057C89.2801 233.057 90.0876 233.304 90.7157 233.797C91.3437 234.246 91.8147 234.941 92.1287 235.883L100.405 258.829H98.9923L107.202 236.22C107.65 235.009 108.211 234.179 108.884 233.73C109.602 233.281 110.387 233.057 111.239 233.057C112.316 233.057 113.145 233.326 113.729 233.865C114.312 234.403 114.648 235.098 114.738 235.951C114.828 236.758 114.671 237.655 114.267 238.642L104.577 263.539C104.129 264.706 103.478 265.58 102.626 266.164C101.818 266.747 100.854 267.038 99.7324 267.038C98.6109 267.038 97.624 266.747 96.7717 266.164C95.9642 265.58 95.3362 264.706 94.8876 263.539L86.0727 240.19H89.9082L81.2951 263.472C80.8465 264.683 80.2185 265.58 79.411 266.164C78.6035 266.747 77.6166 267.038 76.4503 267.038ZM132.083 267.173C128.674 267.173 125.713 266.478 123.201 265.087C120.689 263.696 118.738 261.722 117.347 259.165C115.956 256.564 115.261 253.513 115.261 250.014C115.261 247.367 115.642 245.012 116.405 242.949C117.212 240.84 118.356 239.046 119.837 237.566C121.317 236.04 123.089 234.896 125.153 234.134C127.216 233.326 129.526 232.923 132.083 232.923C135.493 232.923 138.453 233.618 140.966 235.009C143.478 236.399 145.429 238.373 146.82 240.93C148.21 243.487 148.906 246.515 148.906 250.014C148.906 252.661 148.502 255.038 147.695 257.147C146.932 259.255 145.81 261.072 144.33 262.597C142.85 264.078 141.078 265.222 139.014 266.029C136.951 266.792 134.64 267.173 132.083 267.173ZM132.083 260.78C133.743 260.78 135.201 260.377 136.457 259.569C137.713 258.762 138.678 257.573 139.351 256.003C140.068 254.388 140.427 252.392 140.427 250.014C140.427 246.425 139.665 243.756 138.139 242.007C136.614 240.212 134.596 239.315 132.083 239.315C130.424 239.315 128.966 239.719 127.71 240.526C126.454 241.289 125.467 242.478 124.749 244.093C124.076 245.663 123.74 247.637 123.74 250.014C123.74 253.558 124.502 256.25 126.027 258.089C127.553 259.883 129.571 260.78 132.083 260.78ZM156.79 267.038C155.4 267.038 154.323 266.679 153.56 265.962C152.843 265.199 152.484 264.122 152.484 262.732V237.296C152.484 235.906 152.843 234.852 153.56 234.134C154.278 233.416 155.287 233.057 156.588 233.057C157.889 233.057 158.899 233.416 159.616 234.134C160.334 234.852 160.693 235.906 160.693 237.296V241.536H160.02C160.648 238.844 161.882 236.803 163.721 235.412C165.56 234.022 168.005 233.192 171.056 232.923C171.998 232.833 172.738 233.08 173.276 233.663C173.859 234.201 174.196 235.053 174.285 236.22C174.375 237.341 174.106 238.261 173.478 238.979C172.895 239.652 171.998 240.055 170.786 240.19L169.306 240.324C166.57 240.594 164.506 241.446 163.115 242.881C161.725 244.272 161.029 246.246 161.029 248.803V262.732C161.029 264.122 160.671 265.199 159.953 265.962C159.235 266.679 158.181 267.038 156.79 267.038ZM186.707 267.173C182.984 267.173 180.18 266.119 178.296 264.01C176.412 261.857 175.47 258.717 175.47 254.59V222.762C175.47 221.371 175.829 220.317 176.546 219.599C177.264 218.881 178.296 218.523 179.642 218.523C180.988 218.523 182.019 218.881 182.737 219.599C183.5 220.317 183.881 221.371 183.881 222.762V254.186C183.881 256.25 184.307 257.775 185.16 258.762C186.057 259.749 187.313 260.242 188.928 260.242C189.287 260.242 189.623 260.242 189.937 260.242C190.251 260.197 190.565 260.152 190.879 260.108C191.507 260.018 191.933 260.197 192.158 260.646C192.382 261.05 192.494 261.902 192.494 263.203C192.494 264.324 192.27 265.199 191.821 265.827C191.373 266.455 190.632 266.836 189.601 266.971C189.152 267.016 188.681 267.061 188.188 267.106C187.694 267.15 187.201 267.173 186.707 267.173ZM205.915 267.173C203.044 267.173 200.51 266.478 198.311 265.087C196.158 263.696 194.476 261.722 193.265 259.165C192.054 256.564 191.448 253.513 191.448 250.014C191.448 246.47 192.054 243.442 193.265 240.93C194.476 238.373 196.158 236.399 198.311 235.009C200.51 233.618 203.044 232.923 205.915 232.923C208.652 232.923 211.029 233.595 213.048 234.941C215.111 236.287 216.502 238.059 217.22 240.257H216.48V222.762C216.48 221.371 216.839 220.317 217.556 219.599C218.274 218.881 219.306 218.523 220.652 218.523C221.997 218.523 223.029 218.881 223.747 219.599C224.51 220.317 224.891 221.371 224.891 222.762V262.732C224.891 264.122 224.532 265.199 223.814 265.962C223.096 266.679 222.065 267.038 220.719 267.038C219.373 267.038 218.341 266.679 217.624 265.962C216.906 265.199 216.547 264.122 216.547 262.732V257.483L217.287 259.502C216.614 261.835 215.246 263.696 213.182 265.087C211.119 266.478 208.696 267.173 205.915 267.173ZM208.27 260.78C209.93 260.78 211.388 260.377 212.644 259.569C213.9 258.762 214.865 257.573 215.538 256.003C216.255 254.388 216.614 252.392 216.614 250.014C216.614 246.425 215.852 243.756 214.326 242.007C212.801 240.212 210.782 239.315 208.27 239.315C206.611 239.315 205.153 239.719 203.897 240.526C202.64 241.289 201.654 242.478 200.936 244.093C200.263 245.663 199.926 247.637 199.926 250.014C199.926 253.558 200.689 256.25 202.214 258.089C203.74 259.883 205.758 260.78 208.27 260.78ZM234.285 266.836C232.76 266.836 231.526 266.365 230.584 265.423C229.687 264.481 229.238 263.27 229.238 261.79C229.238 260.354 229.687 259.188 230.584 258.291C231.526 257.349 232.76 256.878 234.285 256.878C235.855 256.878 237.066 257.349 237.919 258.291C238.816 259.188 239.264 260.354 239.264 261.79C239.264 263.27 238.816 264.481 237.919 265.423C237.066 266.365 235.855 266.836 234.285 266.836Z" fill="white"/>
<rect x="844" y="143.5" width="161" height="59" rx="29.5" fill="white"/>
<path d="M886.32 179.68C885.693 179.68 885.087 179.627 884.5 179.52C883.913 179.427 883.36 179.28 882.84 179.08C882.32 178.88 881.853 178.633 881.44 178.34C881.267 178.22 881.14 178.073 881.06 177.9C880.993 177.727 880.973 177.56 881 177.4C881.04 177.227 881.113 177.08 881.22 176.96C881.34 176.84 881.48 176.767 881.64 176.74C881.8 176.713 881.973 176.767 882.16 176.9C882.773 177.313 883.413 177.613 884.08 177.8C884.76 177.987 885.507 178.08 886.32 178.08C887.493 178.08 888.353 177.867 888.9 177.44C889.46 177.013 889.74 176.453 889.74 175.76C889.74 175.187 889.54 174.74 889.14 174.42C888.74 174.087 888.067 173.827 887.12 173.64L885 173.2C883.747 172.933 882.807 172.493 882.18 171.88C881.567 171.267 881.26 170.447 881.26 169.42C881.26 168.793 881.387 168.227 881.64 167.72C881.893 167.2 882.253 166.753 882.72 166.38C883.187 166.007 883.733 165.72 884.36 165.52C885 165.32 885.707 165.22 886.48 165.22C887.307 165.22 888.08 165.333 888.8 165.56C889.533 165.787 890.193 166.12 890.78 166.56C890.94 166.68 891.047 166.827 891.1 167C891.153 167.16 891.16 167.32 891.12 167.48C891.093 167.64 891.02 167.773 890.9 167.88C890.793 167.987 890.653 168.047 890.48 168.06C890.32 168.073 890.14 168.013 889.94 167.88C889.407 167.507 888.86 167.24 888.3 167.08C887.74 166.907 887.127 166.82 886.46 166.82C885.78 166.82 885.187 166.927 884.68 167.14C884.187 167.353 883.8 167.653 883.52 168.04C883.253 168.413 883.12 168.853 883.12 169.36C883.12 169.973 883.307 170.453 883.68 170.8C884.053 171.147 884.68 171.413 885.56 171.6L887.66 172.02C888.993 172.3 889.98 172.733 890.62 173.32C891.273 173.893 891.6 174.667 891.6 175.64C891.6 176.253 891.473 176.807 891.22 177.3C890.98 177.793 890.633 178.22 890.18 178.58C889.727 178.927 889.173 179.2 888.52 179.4C887.867 179.587 887.133 179.68 886.32 179.68ZM894.323 179.64C894.043 179.64 893.823 179.56 893.663 179.4C893.503 179.24 893.423 179.007 893.423 178.7V166.18C893.423 165.873 893.503 165.647 893.663 165.5C893.823 165.34 894.043 165.26 894.323 165.26C894.617 165.26 894.843 165.34 895.003 165.5C895.163 165.647 895.243 165.873 895.243 166.18V171.88H894.983C895.263 171.12 895.717 170.547 896.343 170.16C896.983 169.773 897.71 169.58 898.523 169.58C899.31 169.58 899.957 169.727 900.463 170.02C900.97 170.3 901.35 170.727 901.603 171.3C901.857 171.873 901.983 172.593 901.983 173.46V178.7C901.983 179.007 901.903 179.24 901.743 179.4C901.597 179.56 901.377 179.64 901.083 179.64C900.79 179.64 900.563 179.56 900.403 179.4C900.243 179.24 900.163 179.007 900.163 178.7V173.56C900.163 172.693 899.997 172.06 899.663 171.66C899.33 171.26 898.797 171.06 898.063 171.06C897.21 171.06 896.523 171.327 896.003 171.86C895.497 172.38 895.243 173.087 895.243 173.98V178.7C895.243 179.327 894.937 179.64 894.323 179.64ZM908.609 179.68C907.649 179.68 906.815 179.473 906.109 179.06C905.402 178.647 904.855 178.06 904.469 177.3C904.082 176.54 903.889 175.647 903.889 174.62C903.889 173.847 903.995 173.153 904.209 172.54C904.435 171.913 904.755 171.38 905.169 170.94C905.582 170.5 906.075 170.167 906.649 169.94C907.235 169.7 907.889 169.58 908.609 169.58C909.569 169.58 910.402 169.787 911.109 170.2C911.815 170.613 912.362 171.2 912.749 171.96C913.135 172.707 913.329 173.593 913.329 174.62C913.329 175.393 913.215 176.093 912.989 176.72C912.775 177.347 912.462 177.88 912.049 178.32C911.635 178.76 911.135 179.1 910.549 179.34C909.975 179.567 909.329 179.68 908.609 179.68ZM908.609 178.24C909.195 178.24 909.702 178.1 910.129 177.82C910.569 177.54 910.902 177.133 911.129 176.6C911.369 176.067 911.489 175.407 911.489 174.62C911.489 173.447 911.229 172.553 910.709 171.94C910.189 171.327 909.489 171.02 908.609 171.02C908.035 171.02 907.529 171.16 907.089 171.44C906.662 171.707 906.329 172.107 906.089 172.64C905.849 173.173 905.729 173.833 905.729 174.62C905.729 175.793 905.989 176.693 906.509 177.32C907.042 177.933 907.742 178.24 908.609 178.24ZM916.16 183.24C915.88 183.24 915.66 183.16 915.5 183C915.34 182.84 915.26 182.613 915.26 182.32V170.54C915.26 170.233 915.34 170.007 915.5 169.86C915.66 169.7 915.88 169.62 916.16 169.62C916.453 169.62 916.673 169.7 916.82 169.86C916.98 170.007 917.06 170.233 917.06 170.54V172.36L916.84 172C917.053 171.267 917.473 170.68 918.1 170.24C918.727 169.8 919.48 169.58 920.36 169.58C921.227 169.58 921.98 169.787 922.62 170.2C923.26 170.6 923.76 171.18 924.12 171.94C924.48 172.687 924.66 173.58 924.66 174.62C924.66 175.647 924.48 176.547 924.12 177.32C923.773 178.08 923.273 178.667 922.62 179.08C921.98 179.48 921.227 179.68 920.36 179.68C919.493 179.68 918.747 179.46 918.12 179.02C917.493 178.58 917.073 178 916.86 177.28H917.08V182.32C917.08 182.613 917 182.84 916.84 183C916.68 183.16 916.453 183.24 916.16 183.24ZM919.94 178.24C920.513 178.24 921.013 178.1 921.44 177.82C921.88 177.54 922.22 177.133 922.46 176.6C922.7 176.067 922.82 175.407 922.82 174.62C922.82 173.447 922.56 172.553 922.04 171.94C921.52 171.327 920.82 171.02 919.94 171.02C919.353 171.02 918.84 171.16 918.4 171.44C917.973 171.707 917.64 172.107 917.4 172.64C917.173 173.173 917.06 173.833 917.06 174.62C917.06 175.793 917.32 176.693 917.84 177.32C918.36 177.933 919.06 178.24 919.94 178.24ZM932.313 179.64C932.033 179.64 931.813 179.56 931.653 179.4C931.493 179.24 931.413 179.007 931.413 178.7V170.54C931.413 170.233 931.493 170.007 931.653 169.86C931.813 169.7 932.033 169.62 932.313 169.62C932.593 169.62 932.806 169.7 932.953 169.86C933.113 170.007 933.193 170.233 933.193 170.54V172.18L932.973 171.88C933.253 171.12 933.706 170.547 934.333 170.16C934.973 169.773 935.7 169.58 936.513 169.58C937.3 169.58 937.946 169.72 938.453 170C938.96 170.28 939.34 170.707 939.593 171.28C939.846 171.853 939.973 172.58 939.973 173.46V178.7C939.973 179.007 939.893 179.24 939.733 179.4C939.586 179.56 939.366 179.64 939.073 179.64C938.78 179.64 938.553 179.56 938.393 179.4C938.233 179.24 938.153 179.007 938.153 178.7V173.56C938.153 172.693 937.986 172.06 937.653 171.66C937.32 171.26 936.786 171.06 936.053 171.06C935.2 171.06 934.513 171.327 933.993 171.86C933.486 172.38 933.233 173.087 933.233 173.98V178.7C933.233 179.327 932.926 179.64 932.313 179.64ZM946.598 179.68C945.638 179.68 944.805 179.473 944.098 179.06C943.392 178.647 942.845 178.06 942.458 177.3C942.072 176.54 941.878 175.647 941.878 174.62C941.878 173.847 941.985 173.153 942.198 172.54C942.425 171.913 942.745 171.38 943.158 170.94C943.572 170.5 944.065 170.167 944.638 169.94C945.225 169.7 945.878 169.58 946.598 169.58C947.558 169.58 948.392 169.787 949.098 170.2C949.805 170.613 950.352 171.2 950.738 171.96C951.125 172.707 951.318 173.593 951.318 174.62C951.318 175.393 951.205 176.093 950.978 176.72C950.765 177.347 950.452 177.88 950.038 178.32C949.625 178.76 949.125 179.1 948.538 179.34C947.965 179.567 947.318 179.68 946.598 179.68ZM946.598 178.24C947.185 178.24 947.692 178.1 948.118 177.82C948.558 177.54 948.892 177.133 949.118 176.6C949.358 176.067 949.478 175.407 949.478 174.62C949.478 173.447 949.218 172.553 948.698 171.94C948.178 171.327 947.478 171.02 946.598 171.02C946.025 171.02 945.518 171.16 945.078 171.44C944.652 171.707 944.318 172.107 944.078 172.64C943.838 173.173 943.718 173.833 943.718 174.62C943.718 175.793 943.978 176.693 944.498 177.32C945.032 177.933 945.732 178.24 946.598 178.24ZM956.554 179.64C956.3 179.64 956.08 179.58 955.894 179.46C955.707 179.327 955.56 179.113 955.454 178.82L952.474 170.88C952.38 170.627 952.354 170.407 952.394 170.22C952.434 170.033 952.527 169.887 952.674 169.78C952.82 169.673 953.014 169.62 953.254 169.62C953.48 169.62 953.66 169.673 953.794 169.78C953.927 169.887 954.04 170.08 954.134 170.36L956.854 178.04H956.374L959.174 170.32C959.267 170.08 959.387 169.907 959.534 169.8C959.694 169.68 959.887 169.62 960.114 169.62C960.354 169.62 960.554 169.68 960.714 169.8C960.874 169.907 960.987 170.08 961.054 170.32L963.814 178.04H963.354L966.114 170.32C966.207 170.053 966.327 169.873 966.474 169.78C966.62 169.673 966.8 169.62 967.014 169.62C967.254 169.62 967.434 169.68 967.554 169.8C967.674 169.92 967.74 170.08 967.754 170.28C967.78 170.467 967.754 170.667 967.674 170.88L964.694 178.82C964.6 179.1 964.454 179.307 964.254 179.44C964.067 179.573 963.847 179.64 963.594 179.64C963.34 179.64 963.114 179.573 962.914 179.44C962.727 179.307 962.58 179.1 962.474 178.82L959.614 170.98H960.534L957.674 178.82C957.567 179.1 957.42 179.307 957.234 179.44C957.047 179.573 956.82 179.64 956.554 179.64Z" fill="black"/>
</g>
<defs>
<filter id="filter0_f_102_341" x="42.7944" y="-66.0245" width="612.292" height="638.215" filterUnits="userSpaceOnUse" color-interpolation-filters="sRGB">
<feFlood flood-opacity="0" result="BackgroundImageFix"/>
<feBlend mode="normal" in="SourceGraphic" in2="BackgroundImageFix" result="shape"/>
<feGaussianBlur stdDeviation="50.5303" result="effect1_foregroundBlur_102_341"/>
</filter>
<clipPath id="clip0_102_341">
<rect width="1064" height="346" rx="17" fill="white"/>
</clipPath>
</defs>
</svg>
