<svg width="162" height="59" viewBox="0 0 162 59" fill="none" xmlns="http://www.w3.org/2000/svg">
<rect x="0.639282" width="161" height="59" rx="29.5" fill="white"/>
<path d="M42.9593 36.18C42.3326 36.18 41.7259 36.1267 41.1393 36.02C40.5526 35.9267 39.9993 35.78 39.4793 35.58C38.9593 35.38 38.4926 35.1333 38.0793 34.84C37.9059 34.72 37.7793 34.5733 37.6993 34.4C37.6326 34.2267 37.6126 34.06 37.6393 33.9C37.6793 33.7267 37.7526 33.58 37.8593 33.46C37.9793 33.34 38.1193 33.2667 38.2793 33.24C38.4393 33.2133 38.6126 33.2667 38.7993 33.4C39.4126 33.8133 40.0526 34.1133 40.7193 34.3C41.3993 34.4867 42.1459 34.58 42.9593 34.58C44.1326 34.58 44.9926 34.3667 45.5393 33.94C46.0993 33.5133 46.3793 32.9533 46.3793 32.26C46.3793 31.6867 46.1793 31.24 45.7793 30.92C45.3793 30.5867 44.7059 30.3267 43.7593 30.14L41.6393 29.7C40.3859 29.4333 39.4459 28.9933 38.8193 28.38C38.2059 27.7667 37.8993 26.9467 37.8993 25.92C37.8993 25.2933 38.0259 24.7267 38.2793 24.22C38.5326 23.7 38.8926 23.2533 39.3593 22.88C39.8259 22.5067 40.3726 22.22 40.9993 22.02C41.6393 21.82 42.3459 21.72 43.1193 21.72C43.9459 21.72 44.7193 21.8333 45.4393 22.06C46.1726 22.2867 46.8326 22.62 47.4193 23.06C47.5793 23.18 47.6859 23.3267 47.7393 23.5C47.7926 23.66 47.7993 23.82 47.7593 23.98C47.7326 24.14 47.6593 24.2733 47.5393 24.38C47.4326 24.4867 47.2926 24.5467 47.1193 24.56C46.9593 24.5733 46.7793 24.5133 46.5793 24.38C46.0459 24.0067 45.4993 23.74 44.9393 23.58C44.3793 23.4067 43.7659 23.32 43.0993 23.32C42.4193 23.32 41.8259 23.4267 41.3193 23.64C40.8259 23.8533 40.4393 24.1533 40.1593 24.54C39.8926 24.9133 39.7593 25.3533 39.7593 25.86C39.7593 26.4733 39.9459 26.9533 40.3193 27.3C40.6926 27.6467 41.3193 27.9133 42.1993 28.1L44.2993 28.52C45.6326 28.8 46.6193 29.2333 47.2593 29.82C47.9126 30.3933 48.2393 31.1667 48.2393 32.14C48.2393 32.7533 48.1126 33.3067 47.8593 33.8C47.6193 34.2933 47.2726 34.72 46.8193 35.08C46.3659 35.4267 45.8126 35.7 45.1593 35.9C44.5059 36.0867 43.7726 36.18 42.9593 36.18ZM50.9626 36.14C50.6826 36.14 50.4626 36.06 50.3026 35.9C50.1426 35.74 50.0626 35.5067 50.0626 35.2V22.68C50.0626 22.3733 50.1426 22.1467 50.3026 22C50.4626 21.84 50.6826 21.76 50.9626 21.76C51.2559 21.76 51.4826 21.84 51.6426 22C51.8026 22.1467 51.8826 22.3733 51.8826 22.68V28.38H51.6226C51.9026 27.62 52.3559 27.0467 52.9826 26.66C53.6226 26.2733 54.3492 26.08 55.1626 26.08C55.9492 26.08 56.5959 26.2267 57.1026 26.52C57.6092 26.8 57.9892 27.2267 58.2426 27.8C58.4959 28.3733 58.6226 29.0933 58.6226 29.96V35.2C58.6226 35.5067 58.5426 35.74 58.3826 35.9C58.2359 36.06 58.0159 36.14 57.7226 36.14C57.4292 36.14 57.2026 36.06 57.0426 35.9C56.8826 35.74 56.8026 35.5067 56.8026 35.2V30.06C56.8026 29.1933 56.6359 28.56 56.3026 28.16C55.9692 27.76 55.4359 27.56 54.7026 27.56C53.8492 27.56 53.1626 27.8267 52.6426 28.36C52.1359 28.88 51.8826 29.5867 51.8826 30.48V35.2C51.8826 35.8267 51.5759 36.14 50.9626 36.14ZM65.2479 36.18C64.2879 36.18 63.4545 35.9733 62.7479 35.56C62.0412 35.1467 61.4945 34.56 61.1079 33.8C60.7212 33.04 60.5279 32.1467 60.5279 31.12C60.5279 30.3467 60.6345 29.6533 60.8479 29.04C61.0745 28.4133 61.3945 27.88 61.8079 27.44C62.2212 27 62.7145 26.6667 63.2879 26.44C63.8745 26.2 64.5279 26.08 65.2479 26.08C66.2079 26.08 67.0412 26.2867 67.7479 26.7C68.4545 27.1133 69.0012 27.7 69.3879 28.46C69.7745 29.2067 69.9679 30.0933 69.9679 31.12C69.9679 31.8933 69.8545 32.5933 69.6279 33.22C69.4145 33.8467 69.1012 34.38 68.6879 34.82C68.2745 35.26 67.7745 35.6 67.1879 35.84C66.6145 36.0667 65.9679 36.18 65.2479 36.18ZM65.2479 34.74C65.8345 34.74 66.3412 34.6 66.7679 34.32C67.2079 34.04 67.5412 33.6333 67.7679 33.1C68.0079 32.5667 68.1279 31.9067 68.1279 31.12C68.1279 29.9467 67.8679 29.0533 67.3479 28.44C66.8279 27.8267 66.1279 27.52 65.2479 27.52C64.6745 27.52 64.1679 27.66 63.7279 27.94C63.3012 28.2067 62.9679 28.6067 62.7279 29.14C62.4879 29.6733 62.3679 30.3333 62.3679 31.12C62.3679 32.2933 62.6279 33.1933 63.1479 33.82C63.6812 34.4333 64.3812 34.74 65.2479 34.74ZM72.7993 39.74C72.5193 39.74 72.2993 39.66 72.1393 39.5C71.9793 39.34 71.8993 39.1133 71.8993 38.82V27.04C71.8993 26.7333 71.9793 26.5067 72.1393 26.36C72.2993 26.2 72.5193 26.12 72.7993 26.12C73.0926 26.12 73.3126 26.2 73.4593 26.36C73.6193 26.5067 73.6993 26.7333 73.6993 27.04V28.86L73.4793 28.5C73.6926 27.7667 74.1126 27.18 74.7393 26.74C75.3659 26.3 76.1193 26.08 76.9993 26.08C77.8659 26.08 78.6193 26.2867 79.2593 26.7C79.8993 27.1 80.3993 27.68 80.7593 28.44C81.1193 29.1867 81.2993 30.08 81.2993 31.12C81.2993 32.1467 81.1193 33.0467 80.7593 33.82C80.4126 34.58 79.9126 35.1667 79.2593 35.58C78.6193 35.98 77.8659 36.18 76.9993 36.18C76.1326 36.18 75.3859 35.96 74.7593 35.52C74.1326 35.08 73.7126 34.5 73.4993 33.78H73.7193V38.82C73.7193 39.1133 73.6393 39.34 73.4793 39.5C73.3193 39.66 73.0926 39.74 72.7993 39.74ZM76.5793 34.74C77.1526 34.74 77.6526 34.6 78.0793 34.32C78.5193 34.04 78.8593 33.6333 79.0993 33.1C79.3393 32.5667 79.4593 31.9067 79.4593 31.12C79.4593 29.9467 79.1993 29.0533 78.6793 28.44C78.1593 27.8267 77.4593 27.52 76.5793 27.52C75.9926 27.52 75.4793 27.66 75.0393 27.94C74.6126 28.2067 74.2793 28.6067 74.0393 29.14C73.8126 29.6733 73.6993 30.3333 73.6993 31.12C73.6993 32.2933 73.9593 33.1933 74.4793 33.82C74.9993 34.4333 75.6993 34.74 76.5793 34.74ZM88.9524 36.14C88.6724 36.14 88.4524 36.06 88.2924 35.9C88.1324 35.74 88.0524 35.5067 88.0524 35.2V27.04C88.0524 26.7333 88.1324 26.5067 88.2924 26.36C88.4524 26.2 88.6724 26.12 88.9524 26.12C89.2324 26.12 89.4457 26.2 89.5924 26.36C89.7524 26.5067 89.8324 26.7333 89.8324 27.04V28.68L89.6124 28.38C89.8924 27.62 90.3457 27.0467 90.9724 26.66C91.6124 26.2733 92.3391 26.08 93.1524 26.08C93.9391 26.08 94.5857 26.22 95.0924 26.5C95.5991 26.78 95.9791 27.2067 96.2324 27.78C96.4857 28.3533 96.6124 29.08 96.6124 29.96V35.2C96.6124 35.5067 96.5324 35.74 96.3724 35.9C96.2257 36.06 96.0057 36.14 95.7124 36.14C95.4191 36.14 95.1924 36.06 95.0324 35.9C94.8724 35.74 94.7924 35.5067 94.7924 35.2V30.06C94.7924 29.1933 94.6257 28.56 94.2924 28.16C93.9591 27.76 93.4257 27.56 92.6924 27.56C91.8391 27.56 91.1524 27.8267 90.6324 28.36C90.1257 28.88 89.8724 29.5867 89.8724 30.48V35.2C89.8724 35.8267 89.5657 36.14 88.9524 36.14ZM103.238 36.18C102.278 36.18 101.444 35.9733 100.738 35.56C100.031 35.1467 99.4844 34.56 99.0977 33.8C98.7111 33.04 98.5177 32.1467 98.5177 31.12C98.5177 30.3467 98.6244 29.6533 98.8377 29.04C99.0644 28.4133 99.3844 27.88 99.7977 27.44C100.211 27 100.704 26.6667 101.278 26.44C101.864 26.2 102.518 26.08 103.238 26.08C104.198 26.08 105.031 26.2867 105.738 26.7C106.444 27.1133 106.991 27.7 107.378 28.46C107.764 29.2067 107.958 30.0933 107.958 31.12C107.958 31.8933 107.844 32.5933 107.618 33.22C107.404 33.8467 107.091 34.38 106.678 34.82C106.264 35.26 105.764 35.6 105.178 35.84C104.604 36.0667 103.958 36.18 103.238 36.18ZM103.238 34.74C103.824 34.74 104.331 34.6 104.758 34.32C105.198 34.04 105.531 33.6333 105.758 33.1C105.998 32.5667 106.118 31.9067 106.118 31.12C106.118 29.9467 105.858 29.0533 105.338 28.44C104.818 27.8267 104.118 27.52 103.238 27.52C102.664 27.52 102.158 27.66 101.718 27.94C101.291 28.2067 100.958 28.6067 100.718 29.14C100.478 29.6733 100.358 30.3333 100.358 31.12C100.358 32.2933 100.618 33.1933 101.138 33.82C101.671 34.4333 102.371 34.74 103.238 34.74ZM113.193 36.14C112.94 36.14 112.72 36.08 112.533 35.96C112.346 35.8267 112.2 35.6133 112.093 35.32L109.113 27.38C109.02 27.1267 108.993 26.9067 109.033 26.72C109.073 26.5333 109.166 26.3867 109.313 26.28C109.46 26.1733 109.653 26.12 109.893 26.12C110.12 26.12 110.3 26.1733 110.433 26.28C110.566 26.3867 110.68 26.58 110.773 26.86L113.493 34.54H113.013L115.813 26.82C115.906 26.58 116.026 26.4067 116.173 26.3C116.333 26.18 116.526 26.12 116.753 26.12C116.993 26.12 117.193 26.18 117.353 26.3C117.513 26.4067 117.626 26.58 117.693 26.82L120.453 34.54H119.993L122.753 26.82C122.846 26.5533 122.966 26.3733 123.113 26.28C123.26 26.1733 123.44 26.12 123.653 26.12C123.893 26.12 124.073 26.18 124.193 26.3C124.313 26.42 124.38 26.58 124.393 26.78C124.42 26.9667 124.393 27.1667 124.313 27.38L121.333 35.32C121.24 35.6 121.093 35.8067 120.893 35.94C120.706 36.0733 120.486 36.14 120.233 36.14C119.98 36.14 119.753 36.0733 119.553 35.94C119.366 35.8067 119.22 35.6 119.113 35.32L116.253 27.48H117.173L114.313 35.32C114.206 35.6 114.06 35.8067 113.873 35.94C113.686 36.0733 113.46 36.14 113.193 36.14Z" fill="black"/>
</svg>
