<svg width="1113" height="542" viewBox="0 0 1113 542" fill="none" xmlns="http://www.w3.org/2000/svg">
<g filter="url(#filter0_b_180_1559)">
<rect y="34.9016" width="547" height="97" rx="48.5" fill="white"/>
<rect x="0.5" y="35.4016" width="546" height="96" rx="48" stroke="#B2B2B2"/>
<path d="M50.3426 91.4016V74.2415H60.3506V75.9455H52.4306V81.7775H58.8146V83.4815H52.4306V89.6976H60.7826V91.4016H50.3426ZM63.3124 91.4016V78.8496H65.3044V80.8415C65.8804 79.6655 67.2724 78.6336 69.3364 78.6336C71.9284 78.6336 73.7524 80.0495 73.7524 83.6976V91.4016H71.7604V83.5535C71.7604 81.3455 70.8244 80.3616 68.8084 80.3616C66.9604 80.3616 65.3044 81.5375 65.3044 83.7936V91.4016H63.3124ZM80.9921 91.5696C78.7121 91.5696 77.6081 90.2256 77.6081 88.2576V80.5296H75.8081V78.8496H77.6081V75.9935H79.6001V78.8496H82.5281V80.5296H79.6001V88.0655C79.6001 89.2896 80.1521 89.8896 81.1601 89.8896C81.7841 89.8896 82.2641 89.7936 82.6961 89.6256V91.3056C82.2881 91.4496 81.8081 91.5696 80.9921 91.5696ZM90.3634 91.6176C86.8114 91.6176 84.2914 89.1216 84.2914 85.2576V85.0656C84.2914 81.2735 86.7154 78.6336 90.1714 78.6336C93.0754 78.6336 95.8114 80.3855 95.8114 84.8735V85.5216H86.3554C86.4514 88.3776 87.8194 89.9616 90.3874 89.9616C92.3314 89.9616 93.4594 89.2416 93.7234 87.7776H95.7154C95.2834 90.2976 93.1954 91.6176 90.3634 91.6176ZM86.4274 83.9136H93.7714C93.5794 81.3215 92.2354 80.2895 90.1714 80.2895C88.1314 80.2895 86.7634 81.6815 86.4274 83.9136ZM98.388 91.4016V78.8496H100.38V81.1055C101.172 79.6895 102.252 78.7055 104.508 78.6336V80.5055C101.988 80.6255 100.38 81.4176 100.38 84.5136V91.4016H98.388ZM113.931 95.7696L116.307 90.1056L111.387 78.8496H113.523L117.363 87.8496L120.843 78.8496H122.883L115.947 95.7696H113.931ZM129.907 89.9616C132.427 89.9616 134.011 88.0655 134.011 85.2336V85.0656C134.011 82.1615 132.403 80.2895 129.907 80.2895C127.387 80.2895 125.803 82.1615 125.803 85.0415V85.2336C125.803 88.0896 127.363 89.9616 129.907 89.9616ZM129.883 91.6176C126.307 91.6176 123.739 88.9056 123.739 85.2336V85.0415C123.739 81.2735 126.355 78.6336 129.907 78.6336C133.459 78.6336 136.075 81.2496 136.075 85.0176V85.2095C136.075 89.0016 133.459 91.6176 129.883 91.6176ZM142.927 91.6176C140.431 91.6176 138.559 90.2496 138.559 86.7936V78.8496H140.551V86.6976C140.551 88.9056 141.487 89.8896 143.455 89.8896C145.231 89.8896 146.911 88.7136 146.911 86.4575V78.8496H148.903V91.4016H146.911V89.4096C146.335 90.5856 144.943 91.6176 142.927 91.6176ZM152.449 91.4016V78.8496H154.441V81.1055C155.233 79.6895 156.313 78.7055 158.569 78.6336V80.5055C156.049 80.6255 154.441 81.4176 154.441 84.5136V91.4016H152.449ZM167.296 91.4016V80.5296H165.496V78.8496H167.296V76.8095C167.296 74.2655 168.52 72.7775 170.992 72.7775C171.64 72.7775 171.976 72.8255 172.36 72.9696V74.6495C172 74.5055 171.616 74.4335 171.064 74.4335C169.792 74.4335 169.288 75.3215 169.288 76.5935V78.8496H172.36V80.5296H169.288V91.4016H167.296ZM174.377 91.4016V78.8496H176.369V91.4016H174.377ZM175.337 76.2335C174.617 76.2335 174.017 75.6336 174.017 74.9135C174.017 74.1936 174.617 73.5935 175.337 73.5935C176.057 73.5935 176.657 74.1936 176.657 74.9135C176.657 75.6336 176.057 76.2335 175.337 76.2335ZM179.966 91.4016V78.8496H181.958V81.1055C182.75 79.6895 183.83 78.7055 186.086 78.6336V80.5055C183.566 80.6255 181.958 81.4176 181.958 84.5136V91.4016H179.966ZM192.281 91.6176C189.281 91.6176 187.481 90.1056 187.361 87.5375H189.305C189.449 89.0256 190.241 89.9616 192.257 89.9616C194.153 89.9616 194.993 89.3136 194.993 87.9696C194.993 86.6495 194.009 86.2176 192.065 85.8576C188.801 85.2576 187.697 84.3456 187.697 82.1615C187.697 79.8335 189.977 78.6336 191.945 78.6336C194.201 78.6336 196.145 79.5455 196.481 82.2576H194.561C194.273 80.8895 193.505 80.2895 191.921 80.2895C190.481 80.2895 189.545 81.0095 189.545 82.0896C189.545 83.2175 190.169 83.6735 192.473 84.0816C195.065 84.5615 196.889 85.1376 196.889 87.8016C196.889 90.0816 195.329 91.6176 192.281 91.6176ZM203.26 91.5696C200.98 91.5696 199.876 90.2256 199.876 88.2576V80.5296H198.076V78.8496H199.876V75.9935H201.868V78.8496H204.796V80.5296H201.868V88.0655C201.868 89.2896 202.42 89.8896 203.428 89.8896C204.052 89.8896 204.532 89.7936 204.964 89.6256V91.3056C204.556 91.4496 204.076 91.5696 203.26 91.5696ZM213.367 91.4016V78.8496H215.359V80.8415C215.935 79.6655 217.327 78.6336 219.391 78.6336C221.983 78.6336 223.807 80.0495 223.807 83.6976V91.4016H221.815V83.5535C221.815 81.3455 220.879 80.3616 218.863 80.3616C217.015 80.3616 215.359 81.5375 215.359 83.7936V91.4016H213.367ZM230.374 91.6176C228.046 91.6176 226.198 90.4896 226.198 87.9216C226.198 85.0176 229.27 84.0336 232.486 84.0336H234.286V83.1215C234.286 81.1295 233.518 80.2895 231.598 80.2895C229.87 80.2895 228.91 81.0095 228.718 82.5455H226.726C226.99 79.6895 229.27 78.6336 231.694 78.6336C234.094 78.6336 236.278 79.6175 236.278 83.1215V91.4016H234.286V89.8176C233.35 90.9936 232.222 91.6176 230.374 91.6176ZM230.566 90.0336C232.678 90.0336 234.286 88.9536 234.286 87.0095V85.4496H232.558C230.038 85.4496 228.19 86.0735 228.19 87.9216C228.19 89.2176 228.814 90.0336 230.566 90.0336ZM239.711 91.4016V78.8496H241.703V80.7695C242.279 79.5935 243.647 78.6336 245.447 78.6336C247.055 78.6336 248.471 79.3056 249.119 80.9855C249.983 79.3535 251.855 78.6336 253.415 78.6336C255.671 78.6336 257.639 79.9776 257.639 83.6256V91.4016H255.647V83.4815C255.647 81.2735 254.711 80.3616 252.983 80.3616C251.351 80.3616 249.671 81.4655 249.671 83.7215V91.4016H247.679V83.4815C247.679 81.2735 246.743 80.3616 245.015 80.3616C243.383 80.3616 241.703 81.4655 241.703 83.7215V91.4016H239.711ZM266.211 91.6176C262.659 91.6176 260.139 89.1216 260.139 85.2576V85.0656C260.139 81.2735 262.563 78.6336 266.019 78.6336C268.923 78.6336 271.659 80.3855 271.659 84.8735V85.5216H262.203C262.299 88.3776 263.667 89.9616 266.235 89.9616C268.179 89.9616 269.307 89.2416 269.571 87.7776H271.563C271.131 90.2976 269.043 91.6176 266.211 91.6176ZM262.275 83.9136H269.619C269.427 81.3215 268.083 80.2895 266.019 80.2895C263.979 80.2895 262.611 81.6815 262.275 83.9136Z" fill="black" fill-opacity="0.3"/>
<rect x="47" y="0.90155" width="165" height="26" rx="13" fill="white"/>
<path d="M52.44 18.9016V7.46155H59.112V8.59755H53.832V12.4855H58.088V13.6216H53.832V17.7656H59.4V18.9016H52.44ZM61.4065 18.9016V10.5336H62.7345V11.8615C63.1185 11.0775 64.0465 10.3896 65.4225 10.3896C67.1505 10.3896 68.3665 11.3335 68.3665 13.7656V18.9016H67.0385V13.6695C67.0385 12.1975 66.4145 11.5416 65.0705 11.5416C63.8385 11.5416 62.7345 12.3256 62.7345 13.8296V18.9016H61.4065ZM73.513 19.0136C71.993 19.0136 71.257 18.1176 71.257 16.8056V11.6536H70.057V10.5336H71.257V8.62955H72.585V10.5336H74.537V11.6536H72.585V16.6776C72.585 17.4936 72.953 17.8936 73.625 17.8936C74.041 17.8936 74.361 17.8296 74.649 17.7176V18.8376C74.377 18.9336 74.057 19.0136 73.513 19.0136ZM80.0805 19.0456C77.7125 19.0456 76.0325 17.3816 76.0325 14.8056V14.6776C76.0325 12.1495 77.6485 10.3896 79.9525 10.3896C81.8885 10.3896 83.7125 11.5575 83.7125 14.5496V14.9816H77.4085C77.4725 16.8856 78.3845 17.9416 80.0965 17.9416C81.3925 17.9416 82.1445 17.4616 82.3205 16.4856H83.6485C83.3605 18.1656 81.9685 19.0456 80.0805 19.0456ZM77.4565 13.9096H82.3525C82.2245 12.1816 81.3285 11.4935 79.9525 11.4935C78.5925 11.4935 77.6805 12.4215 77.4565 13.9096ZM85.7503 18.9016V10.5336H87.0783V12.0375C87.6063 11.0935 88.3263 10.4375 89.8303 10.3896V11.6375C88.1503 11.7175 87.0783 12.2456 87.0783 14.3096V18.9016H85.7503ZM96.7523 21.8136L98.3363 18.0376L95.0563 10.5336H96.4803L99.0403 16.5336L101.36 10.5336H102.72L98.0963 21.8136H96.7523ZM107.723 17.9416C109.403 17.9416 110.459 16.6776 110.459 14.7896V14.6776C110.459 12.7415 109.387 11.4935 107.723 11.4935C106.043 11.4935 104.987 12.7415 104.987 14.6616V14.7896C104.987 16.6936 106.027 17.9416 107.723 17.9416ZM107.707 19.0456C105.323 19.0456 103.611 17.2376 103.611 14.7896V14.6616C103.611 12.1495 105.355 10.3896 107.723 10.3896C110.091 10.3896 111.835 12.1336 111.835 14.6456V14.7736C111.835 17.3016 110.091 19.0456 107.707 19.0456ZM116.723 19.0456C115.059 19.0456 113.811 18.1336 113.811 15.8296V10.5336H115.139V15.7656C115.139 17.2376 115.763 17.8936 117.075 17.8936C118.259 17.8936 119.379 17.1096 119.379 15.6056V10.5336H120.707V18.9016H119.379V17.5736C118.995 18.3576 118.067 19.0456 116.723 19.0456ZM123.391 18.9016V10.5336H124.719V12.0375C125.247 11.0935 125.967 10.4375 127.471 10.3896V11.6375C125.791 11.7175 124.719 12.2456 124.719 14.3096V18.9016H123.391ZM133.929 18.9016V11.6536H132.729V10.5336H133.929V9.17355C133.929 7.47755 134.745 6.48555 136.393 6.48555C136.825 6.48555 137.049 6.51755 137.305 6.61355V7.73355C137.065 7.63755 136.809 7.58955 136.441 7.58955C135.593 7.58955 135.257 8.18155 135.257 9.02955V10.5336H137.305V11.6536H135.257V18.9016H133.929ZM138.97 18.9016V10.5336H140.298V18.9016H138.97ZM139.61 8.78955C139.13 8.78955 138.73 8.38955 138.73 7.90955C138.73 7.42955 139.13 7.02955 139.61 7.02955C140.09 7.02955 140.49 7.42955 140.49 7.90955C140.49 8.38955 140.09 8.78955 139.61 8.78955ZM143.016 18.9016V10.5336H144.344V12.0375C144.872 11.0935 145.592 10.4375 147.096 10.3896V11.6375C145.416 11.7175 144.344 12.2456 144.344 14.3096V18.9016H143.016ZM151.545 19.0456C149.545 19.0456 148.345 18.0376 148.265 16.3256H149.561C149.657 17.3176 150.185 17.9416 151.529 17.9416C152.793 17.9416 153.353 17.5096 153.353 16.6136C153.353 15.7336 152.697 15.4456 151.401 15.2056C149.225 14.8056 148.489 14.1976 148.489 12.7415C148.489 11.1895 150.009 10.3896 151.321 10.3896C152.825 10.3896 154.121 10.9976 154.345 12.8056H153.065C152.873 11.8935 152.361 11.4935 151.305 11.4935C150.345 11.4935 149.721 11.9735 149.721 12.6936C149.721 13.4455 150.137 13.7495 151.673 14.0216C153.401 14.3415 154.617 14.7256 154.617 16.5016C154.617 18.0216 153.577 19.0456 151.545 19.0456ZM159.185 19.0136C157.665 19.0136 156.929 18.1176 156.929 16.8056V11.6536H155.729V10.5336H156.929V8.62955H158.257V10.5336H160.209V11.6536H158.257V16.6776C158.257 17.4936 158.625 17.8936 159.297 17.8936C159.713 17.8936 160.033 17.8296 160.321 17.7176V18.8376C160.049 18.9336 159.729 19.0136 159.185 19.0136ZM166.563 18.9016V10.5336H167.891V11.8615C168.275 11.0775 169.203 10.3896 170.579 10.3896C172.307 10.3896 173.523 11.3335 173.523 13.7656V18.9016H172.195V13.6695C172.195 12.1975 171.571 11.5416 170.227 11.5416C168.995 11.5416 167.891 12.3256 167.891 13.8296V18.9016H166.563ZM178.221 19.0456C176.669 19.0456 175.437 18.2936 175.437 16.5816C175.437 14.6456 177.485 13.9896 179.629 13.9896H180.829V13.3815C180.829 12.0535 180.317 11.4935 179.037 11.4935C177.885 11.4935 177.245 11.9735 177.117 12.9976H175.789C175.965 11.0935 177.485 10.3896 179.101 10.3896C180.701 10.3896 182.157 11.0455 182.157 13.3815V18.9016H180.829V17.8456C180.205 18.6296 179.453 19.0456 178.221 19.0456ZM178.349 17.9896C179.757 17.9896 180.829 17.2696 180.829 15.9736V14.9336H179.677C177.997 14.9336 176.765 15.3496 176.765 16.5816C176.765 17.4456 177.181 17.9896 178.349 17.9896ZM184.766 18.9016V10.5336H186.094V11.8135C186.478 11.0296 187.39 10.3896 188.59 10.3896C189.662 10.3896 190.606 10.8376 191.038 11.9576C191.614 10.8695 192.862 10.3896 193.902 10.3896C195.406 10.3896 196.718 11.2856 196.718 13.7176V18.9016H195.39V13.6216C195.39 12.1495 194.766 11.5416 193.614 11.5416C192.526 11.5416 191.406 12.2775 191.406 13.7815V18.9016H190.078V13.6216C190.078 12.1495 189.454 11.5416 188.302 11.5416C187.214 11.5416 186.094 12.2775 186.094 13.7815V18.9016H184.766ZM202.752 19.0456C200.384 19.0456 198.704 17.3816 198.704 14.8056V14.6776C198.704 12.1495 200.32 10.3896 202.624 10.3896C204.56 10.3896 206.384 11.5575 206.384 14.5496V14.9816H200.08C200.144 16.8856 201.056 17.9416 202.768 17.9416C204.064 17.9416 204.816 17.4616 204.992 16.4856H206.32C206.032 18.1656 204.64 19.0456 202.752 19.0456ZM200.128 13.9096H205.024C204.896 12.1816 204 11.4935 202.624 11.4935C201.264 11.4935 200.352 12.4215 200.128 13.9096Z" fill="#303030"/>
</g>
<g filter="url(#filter1_b_180_1559)">
<rect x="567" y="34.9016" width="546" height="97" rx="48.5" fill="white"/>
<rect x="567.5" y="35.4016" width="545" height="96" rx="48" stroke="#B2B2B2"/>
<rect x="614" y="0.90155" width="162" height="26" rx="13" fill="white"/>
<path d="M619.44 18.9016V7.46155H626.112V8.59755H620.832V12.4855H625.088V13.6216H620.832V17.7656H626.4V18.9016H619.44ZM628.407 18.9016V10.5336H629.735V11.8615C630.119 11.0775 631.047 10.3896 632.423 10.3896C634.151 10.3896 635.367 11.3335 635.367 13.7656V18.9016H634.039V13.6695C634.039 12.1975 633.415 11.5416 632.071 11.5416C630.839 11.5416 629.735 12.3256 629.735 13.8296V18.9016H628.407ZM640.513 19.0136C638.993 19.0136 638.257 18.1176 638.257 16.8056V11.6536H637.057V10.5336H638.257V8.62955H639.585V10.5336H641.537V11.6536H639.585V16.6776C639.585 17.4936 639.953 17.8936 640.625 17.8936C641.041 17.8936 641.361 17.8296 641.649 17.7176V18.8376C641.377 18.9336 641.057 19.0136 640.513 19.0136ZM647.081 19.0456C644.713 19.0456 643.033 17.3816 643.033 14.8056V14.6776C643.033 12.1495 644.649 10.3896 646.953 10.3896C648.889 10.3896 650.713 11.5575 650.713 14.5496V14.9816H644.409C644.473 16.8856 645.385 17.9416 647.097 17.9416C648.393 17.9416 649.145 17.4616 649.321 16.4856H650.649C650.361 18.1656 648.969 19.0456 647.081 19.0456ZM644.457 13.9096H649.353C649.225 12.1816 648.329 11.4935 646.953 11.4935C645.593 11.4935 644.681 12.4215 644.457 13.9096ZM652.75 18.9016V10.5336H654.078V12.0375C654.606 11.0935 655.326 10.4375 656.83 10.3896V11.6375C655.15 11.7175 654.078 12.2456 654.078 14.3096V18.9016H652.75ZM663.752 21.8136L665.336 18.0376L662.056 10.5336H663.48L666.04 16.5336L668.36 10.5336H669.72L665.096 21.8136H663.752ZM674.723 17.9416C676.403 17.9416 677.459 16.6776 677.459 14.7896V14.6776C677.459 12.7415 676.387 11.4935 674.723 11.4935C673.043 11.4935 671.987 12.7415 671.987 14.6616V14.7896C671.987 16.6936 673.027 17.9416 674.723 17.9416ZM674.707 19.0456C672.323 19.0456 670.611 17.2376 670.611 14.7896V14.6616C670.611 12.1495 672.355 10.3896 674.723 10.3896C677.091 10.3896 678.835 12.1336 678.835 14.6456V14.7736C678.835 17.3016 677.091 19.0456 674.707 19.0456ZM683.723 19.0456C682.059 19.0456 680.811 18.1336 680.811 15.8296V10.5336H682.139V15.7656C682.139 17.2376 682.763 17.8936 684.075 17.8936C685.259 17.8936 686.379 17.1096 686.379 15.6056V10.5336H687.707V18.9016H686.379V17.5736C685.995 18.3576 685.067 19.0456 683.723 19.0456ZM690.391 18.9016V10.5336H691.719V12.0375C692.247 11.0935 692.967 10.4375 694.471 10.3896V11.6375C692.791 11.7175 691.719 12.2456 691.719 14.3096V18.9016H690.391ZM700.673 18.9016V6.53355H702.017V18.9016H700.673ZM706.831 19.0456C705.279 19.0456 704.047 18.2936 704.047 16.5816C704.047 14.6456 706.095 13.9896 708.239 13.9896H709.439V13.3815C709.439 12.0535 708.927 11.4935 707.647 11.4935C706.495 11.4935 705.855 11.9735 705.727 12.9976H704.399C704.575 11.0935 706.095 10.3896 707.711 10.3896C709.311 10.3896 710.767 11.0455 710.767 13.3815V18.9016H709.439V17.8456C708.815 18.6296 708.063 19.0456 706.831 19.0456ZM706.959 17.9896C708.367 17.9896 709.439 17.2696 709.439 15.9736V14.9336H708.287C706.607 14.9336 705.375 15.3496 705.375 16.5816C705.375 17.4456 705.791 17.9896 706.959 17.9896ZM715.967 19.0456C713.967 19.0456 712.767 18.0376 712.687 16.3256H713.983C714.079 17.3176 714.607 17.9416 715.951 17.9416C717.215 17.9416 717.775 17.5096 717.775 16.6136C717.775 15.7336 717.119 15.4456 715.823 15.2056C713.647 14.8056 712.911 14.1976 712.911 12.7415C712.911 11.1895 714.431 10.3896 715.743 10.3896C717.247 10.3896 718.543 10.9976 718.767 12.8056H717.487C717.295 11.8935 716.783 11.4935 715.727 11.4935C714.767 11.4935 714.143 11.9735 714.143 12.6936C714.143 13.4455 714.559 13.7495 716.095 14.0216C717.823 14.3415 719.039 14.7256 719.039 16.5016C719.039 18.0216 717.999 19.0456 715.967 19.0456ZM723.607 19.0136C722.087 19.0136 721.351 18.1176 721.351 16.8056V11.6536H720.151V10.5336H721.351V8.62955H722.679V10.5336H724.631V11.6536H722.679V16.6776C722.679 17.4936 723.047 17.8936 723.719 17.8936C724.135 17.8936 724.455 17.8296 724.743 17.7176V18.8376C724.471 18.9336 724.151 19.0136 723.607 19.0136ZM730.985 18.9016V10.5336H732.313V11.8615C732.697 11.0775 733.625 10.3896 735.001 10.3896C736.729 10.3896 737.945 11.3335 737.945 13.7656V18.9016H736.617V13.6695C736.617 12.1975 735.993 11.5416 734.649 11.5416C733.417 11.5416 732.313 12.3256 732.313 13.8296V18.9016H730.985ZM742.643 19.0456C741.091 19.0456 739.859 18.2936 739.859 16.5816C739.859 14.6456 741.907 13.9896 744.051 13.9896H745.251V13.3815C745.251 12.0535 744.739 11.4935 743.459 11.4935C742.307 11.4935 741.667 11.9735 741.539 12.9976H740.211C740.387 11.0935 741.907 10.3896 743.523 10.3896C745.123 10.3896 746.579 11.0455 746.579 13.3815V18.9016H745.251V17.8456C744.627 18.6296 743.875 19.0456 742.643 19.0456ZM742.771 17.9896C744.179 17.9896 745.251 17.2696 745.251 15.9736V14.9336H744.099C742.419 14.9336 741.187 15.3496 741.187 16.5816C741.187 17.4456 741.603 17.9896 742.771 17.9896ZM749.188 18.9016V10.5336H750.516V11.8135C750.9 11.0296 751.812 10.3896 753.012 10.3896C754.084 10.3896 755.028 10.8376 755.46 11.9576C756.036 10.8695 757.284 10.3896 758.324 10.3896C759.828 10.3896 761.14 11.2856 761.14 13.7176V18.9016H759.812V13.6216C759.812 12.1495 759.188 11.5416 758.036 11.5416C756.948 11.5416 755.828 12.2775 755.828 13.7815V18.9016H754.5V13.6216C754.5 12.1495 753.876 11.5416 752.724 11.5416C751.636 11.5416 750.516 12.2775 750.516 13.7815V18.9016H749.188ZM767.174 19.0456C764.806 19.0456 763.126 17.3816 763.126 14.8056V14.6776C763.126 12.1495 764.742 10.3896 767.046 10.3896C768.982 10.3896 770.806 11.5575 770.806 14.5496V14.9816H764.502C764.566 16.8856 765.478 17.9416 767.19 17.9416C768.486 17.9416 769.238 17.4616 769.414 16.4856H770.742C770.454 18.1656 769.062 19.0456 767.174 19.0456ZM764.55 13.9096H769.446C769.318 12.1816 768.422 11.4935 767.046 11.4935C765.686 11.4935 764.774 12.4215 764.55 13.9096Z" fill="#303030"/>
<path d="M617.343 91.4016V74.2415H627.351V75.9455H619.431V81.7775H625.815V83.4815H619.431V89.6976H627.783V91.4016H617.343ZM630.312 91.4016V78.8496H632.304V80.8415C632.88 79.6655 634.272 78.6336 636.336 78.6336C638.928 78.6336 640.752 80.0495 640.752 83.6976V91.4016H638.76V83.5535C638.76 81.3455 637.824 80.3616 635.808 80.3616C633.96 80.3616 632.304 81.5375 632.304 83.7936V91.4016H630.312ZM647.992 91.5696C645.712 91.5696 644.608 90.2256 644.608 88.2576V80.5296H642.808V78.8496H644.608V75.9935H646.6V78.8496H649.528V80.5296H646.6V88.0655C646.6 89.2896 647.152 89.8896 648.16 89.8896C648.784 89.8896 649.264 89.7936 649.696 89.6256V91.3056C649.288 91.4496 648.808 91.5696 647.992 91.5696ZM657.363 91.6176C653.811 91.6176 651.291 89.1216 651.291 85.2576V85.0656C651.291 81.2735 653.715 78.6336 657.171 78.6336C660.075 78.6336 662.811 80.3855 662.811 84.8735V85.5216H653.355C653.451 88.3776 654.819 89.9616 657.387 89.9616C659.331 89.9616 660.459 89.2416 660.723 87.7776H662.715C662.283 90.2976 660.195 91.6176 657.363 91.6176ZM653.427 83.9136H660.771C660.579 81.3215 659.235 80.2895 657.171 80.2895C655.131 80.2895 653.763 81.6815 653.427 83.9136ZM665.388 91.4016V78.8496H667.38V81.1055C668.172 79.6895 669.252 78.7055 671.508 78.6336V80.5055C668.988 80.6255 667.38 81.4176 667.38 84.5136V91.4016H665.388ZM680.931 95.7696L683.307 90.1056L678.387 78.8496H680.523L684.363 87.8496L687.843 78.8496H689.883L682.947 95.7696H680.931ZM696.907 89.9616C699.427 89.9616 701.011 88.0655 701.011 85.2336V85.0656C701.011 82.1615 699.403 80.2895 696.907 80.2895C694.387 80.2895 692.803 82.1615 692.803 85.0415V85.2336C692.803 88.0896 694.363 89.9616 696.907 89.9616ZM696.883 91.6176C693.307 91.6176 690.739 88.9056 690.739 85.2336V85.0415C690.739 81.2735 693.355 78.6336 696.907 78.6336C700.459 78.6336 703.075 81.2496 703.075 85.0176V85.2095C703.075 89.0016 700.459 91.6176 696.883 91.6176ZM709.927 91.6176C707.431 91.6176 705.559 90.2496 705.559 86.7936V78.8496H707.551V86.6976C707.551 88.9056 708.487 89.8896 710.455 89.8896C712.231 89.8896 713.911 88.7136 713.911 86.4575V78.8496H715.903V91.4016H713.911V89.4096C713.335 90.5856 711.943 91.6176 709.927 91.6176ZM719.449 91.4016V78.8496H721.441V81.1055C722.233 79.6895 723.313 78.7055 725.569 78.6336V80.5055C723.049 80.6255 721.441 81.4176 721.441 84.5136V91.4016H719.449ZM733.912 91.4016V72.8495H735.928V91.4016H733.912ZM742.669 91.6176C740.341 91.6176 738.493 90.4896 738.493 87.9216C738.493 85.0176 741.565 84.0336 744.781 84.0336H746.581V83.1215C746.581 81.1295 745.813 80.2895 743.893 80.2895C742.165 80.2895 741.205 81.0095 741.013 82.5455H739.021C739.285 79.6895 741.565 78.6336 743.989 78.6336C746.389 78.6336 748.573 79.6175 748.573 83.1215V91.4016H746.581V89.8176C745.645 90.9936 744.517 91.6176 742.669 91.6176ZM742.861 90.0336C744.973 90.0336 746.581 88.9536 746.581 87.0095V85.4496H744.853C742.333 85.4496 740.485 86.0735 740.485 87.9216C740.485 89.2176 741.109 90.0336 742.861 90.0336ZM755.893 91.6176C752.893 91.6176 751.093 90.1056 750.973 87.5375H752.917C753.061 89.0256 753.853 89.9616 755.869 89.9616C757.765 89.9616 758.605 89.3136 758.605 87.9696C758.605 86.6495 757.621 86.2176 755.677 85.8576C752.413 85.2576 751.309 84.3456 751.309 82.1615C751.309 79.8335 753.589 78.6336 755.557 78.6336C757.813 78.6336 759.757 79.5455 760.093 82.2576H758.173C757.885 80.8895 757.117 80.2895 755.533 80.2895C754.093 80.2895 753.157 81.0095 753.157 82.0896C753.157 83.2175 753.781 83.6735 756.085 84.0816C758.677 84.5615 760.501 85.1376 760.501 87.8016C760.501 90.0816 758.941 91.6176 755.893 91.6176ZM766.873 91.5696C764.593 91.5696 763.489 90.2256 763.489 88.2576V80.5296H761.689V78.8496H763.489V75.9935H765.481V78.8496H768.409V80.5296H765.481V88.0655C765.481 89.2896 766.033 89.8896 767.041 89.8896C767.665 89.8896 768.145 89.7936 768.577 89.6256V91.3056C768.169 91.4496 767.689 91.5696 766.873 91.5696ZM776.98 91.4016V78.8496H778.972V80.8415C779.548 79.6655 780.94 78.6336 783.004 78.6336C785.596 78.6336 787.42 80.0495 787.42 83.6976V91.4016H785.428V83.5535C785.428 81.3455 784.492 80.3616 782.476 80.3616C780.628 80.3616 778.972 81.5375 778.972 83.7936V91.4016H776.98ZM793.987 91.6176C791.659 91.6176 789.811 90.4896 789.811 87.9216C789.811 85.0176 792.883 84.0336 796.099 84.0336H797.899V83.1215C797.899 81.1295 797.131 80.2895 795.211 80.2895C793.483 80.2895 792.523 81.0095 792.331 82.5455H790.339C790.603 79.6895 792.883 78.6336 795.307 78.6336C797.707 78.6336 799.891 79.6175 799.891 83.1215V91.4016H797.899V89.8176C796.963 90.9936 795.835 91.6176 793.987 91.6176ZM794.179 90.0336C796.291 90.0336 797.899 88.9536 797.899 87.0095V85.4496H796.171C793.651 85.4496 791.803 86.0735 791.803 87.9216C791.803 89.2176 792.427 90.0336 794.179 90.0336ZM803.324 91.4016V78.8496H805.316V80.7695C805.892 79.5935 807.26 78.6336 809.06 78.6336C810.668 78.6336 812.084 79.3056 812.732 80.9855C813.596 79.3535 815.468 78.6336 817.028 78.6336C819.284 78.6336 821.252 79.9776 821.252 83.6256V91.4016H819.26V83.4815C819.26 81.2735 818.324 80.3616 816.596 80.3616C814.964 80.3616 813.284 81.4655 813.284 83.7215V91.4016H811.292V83.4815C811.292 81.2735 810.356 80.3616 808.628 80.3616C806.996 80.3616 805.316 81.4655 805.316 83.7215V91.4016H803.324ZM829.824 91.6176C826.272 91.6176 823.752 89.1216 823.752 85.2576V85.0656C823.752 81.2735 826.176 78.6336 829.632 78.6336C832.536 78.6336 835.272 80.3855 835.272 84.8735V85.5216H825.816C825.912 88.3776 827.28 89.9616 829.848 89.9616C831.792 89.9616 832.92 89.2416 833.184 87.7776H835.176C834.744 90.2976 832.656 91.6176 829.824 91.6176ZM825.888 83.9136H833.232C833.04 81.3215 831.696 80.2895 829.632 80.2895C827.592 80.2895 826.224 81.6815 825.888 83.9136Z" fill="black" fill-opacity="0.3"/>
</g>
<g filter="url(#filter2_b_180_1559)">
<rect y="193.902" width="547" height="97" rx="48.5" fill="white"/>
<rect x="0.5" y="194.402" width="546" height="96" rx="48" stroke="#B2B2B2"/>
<path d="M50.3426 250.402V233.242H60.3506V234.946H52.4306V240.778H58.8146V242.482H52.4306V248.698H60.7826V250.402H50.3426ZM63.3124 250.402V237.85H65.3044V239.842C65.8804 238.666 67.2724 237.634 69.3364 237.634C71.9284 237.634 73.7524 239.05 73.7524 242.698V250.402H71.7604V242.554C71.7604 240.346 70.8244 239.362 68.8084 239.362C66.9604 239.362 65.3044 240.538 65.3044 242.794V250.402H63.3124ZM80.9921 250.57C78.7121 250.57 77.6081 249.226 77.6081 247.258V239.53H75.8081V237.85H77.6081V234.994H79.6001V237.85H82.5281V239.53H79.6001V247.066C79.6001 248.29 80.1521 248.89 81.1601 248.89C81.7841 248.89 82.2641 248.794 82.6961 248.626V250.306C82.2881 250.45 81.8081 250.57 80.9921 250.57ZM90.3634 250.618C86.8114 250.618 84.2914 248.122 84.2914 244.258V244.066C84.2914 240.274 86.7154 237.634 90.1714 237.634C93.0754 237.634 95.8114 239.386 95.8114 243.874V244.522H86.3554C86.4514 247.378 87.8194 248.962 90.3874 248.962C92.3314 248.962 93.4594 248.242 93.7234 246.778H95.7154C95.2834 249.298 93.1954 250.618 90.3634 250.618ZM86.4274 242.914H93.7714C93.5794 240.322 92.2354 239.29 90.1714 239.29C88.1314 239.29 86.7634 240.682 86.4274 242.914ZM98.388 250.402V237.85H100.38V240.106C101.172 238.69 102.252 237.706 104.508 237.634V239.506C101.988 239.626 100.38 240.418 100.38 243.514V250.402H98.388ZM113.931 254.77L116.307 249.106L111.387 237.85H113.523L117.363 246.85L120.843 237.85H122.883L115.947 254.77H113.931ZM129.907 248.962C132.427 248.962 134.011 247.066 134.011 244.234V244.066C134.011 241.162 132.403 239.29 129.907 239.29C127.387 239.29 125.803 241.162 125.803 244.042V244.234C125.803 247.09 127.363 248.962 129.907 248.962ZM129.883 250.618C126.307 250.618 123.739 247.906 123.739 244.234V244.042C123.739 240.274 126.355 237.634 129.907 237.634C133.459 237.634 136.075 240.25 136.075 244.018V244.21C136.075 248.002 133.459 250.618 129.883 250.618ZM142.927 250.618C140.431 250.618 138.559 249.25 138.559 245.794V237.85H140.551V245.698C140.551 247.906 141.487 248.89 143.455 248.89C145.231 248.89 146.911 247.714 146.911 245.458V237.85H148.903V250.402H146.911V248.41C146.335 249.586 144.943 250.618 142.927 250.618ZM152.449 250.402V237.85H154.441V240.106C155.233 238.69 156.313 237.706 158.569 237.634V239.506C156.049 239.626 154.441 240.418 154.441 243.514V250.402H152.449ZM172 250.618C168.448 250.618 165.928 248.122 165.928 244.258V244.066C165.928 240.274 168.352 237.634 171.808 237.634C174.712 237.634 177.448 239.386 177.448 243.874V244.522H167.992C168.088 247.378 169.456 248.962 172.024 248.962C173.968 248.962 175.096 248.242 175.36 246.778H177.352C176.92 249.298 174.832 250.618 172 250.618ZM168.064 242.914H175.408C175.216 240.322 173.872 239.29 171.808 239.29C169.768 239.29 168.4 240.682 168.064 242.914ZM180.025 250.402V237.85H182.017V239.77C182.593 238.594 183.961 237.634 185.761 237.634C187.369 237.634 188.785 238.306 189.433 239.986C190.297 238.354 192.169 237.634 193.729 237.634C195.985 237.634 197.953 238.978 197.953 242.626V250.402H195.961V242.482C195.961 240.274 195.025 239.362 193.297 239.362C191.665 239.362 189.985 240.466 189.985 242.722V250.402H187.993V242.482C187.993 240.274 187.057 239.362 185.329 239.362C183.697 239.362 182.017 240.466 182.017 242.722V250.402H180.025ZM204.532 250.618C202.204 250.618 200.356 249.49 200.356 246.922C200.356 244.018 203.428 243.034 206.644 243.034H208.444V242.122C208.444 240.13 207.676 239.29 205.756 239.29C204.028 239.29 203.068 240.01 202.876 241.546H200.884C201.148 238.69 203.428 237.634 205.852 237.634C208.252 237.634 210.436 238.618 210.436 242.122V250.402H208.444V248.818C207.508 249.994 206.38 250.618 204.532 250.618ZM204.724 249.034C206.836 249.034 208.444 247.954 208.444 246.01V244.45H206.716C204.196 244.45 202.348 245.074 202.348 246.922C202.348 248.218 202.972 249.034 204.724 249.034ZM213.917 250.402V237.85H215.909V250.402H213.917ZM214.877 235.234C214.157 235.234 213.557 234.634 213.557 233.914C213.557 233.194 214.157 232.594 214.877 232.594C215.597 232.594 216.197 233.194 216.197 233.914C216.197 234.634 215.597 235.234 214.877 235.234ZM219.554 250.402V231.85H221.57V250.402H219.554Z" fill="black" fill-opacity="0.3"/>
<rect x="47" y="159.902" width="130" height="26" rx="13" fill="white"/>
<path d="M52.44 177.902V166.462H59.112V167.598H53.832V171.486H58.088V172.622H53.832V176.766H59.4V177.902H52.44ZM61.4065 177.902V169.534H62.7345V170.862C63.1185 170.078 64.0465 169.39 65.4225 169.39C67.1505 169.39 68.3665 170.334 68.3665 172.766V177.902H67.0385V172.67C67.0385 171.198 66.4145 170.542 65.0705 170.542C63.8385 170.542 62.7345 171.326 62.7345 172.83V177.902H61.4065ZM73.513 178.014C71.993 178.014 71.257 177.118 71.257 175.806V170.654H70.057V169.534H71.257V167.63H72.585V169.534H74.537V170.654H72.585V175.678C72.585 176.494 72.953 176.894 73.625 176.894C74.041 176.894 74.361 176.83 74.649 176.718V177.838C74.377 177.934 74.057 178.014 73.513 178.014ZM80.0805 178.046C77.7125 178.046 76.0325 176.382 76.0325 173.806V173.678C76.0325 171.15 77.6485 169.39 79.9525 169.39C81.8885 169.39 83.7125 170.558 83.7125 173.55V173.982H77.4085C77.4725 175.886 78.3845 176.942 80.0965 176.942C81.3925 176.942 82.1445 176.462 82.3205 175.486H83.6485C83.3605 177.166 81.9685 178.046 80.0805 178.046ZM77.4565 172.91H82.3525C82.2245 171.182 81.3285 170.494 79.9525 170.494C78.5925 170.494 77.6805 171.422 77.4565 172.91ZM85.7503 177.902V169.534H87.0783V171.038C87.6063 170.094 88.3263 169.438 89.8303 169.39V170.638C88.1503 170.718 87.0783 171.246 87.0783 173.31V177.902H85.7503ZM96.7523 180.814L98.3363 177.038L95.0563 169.534H96.4803L99.0403 175.534L101.36 169.534H102.72L98.0963 180.814H96.7523ZM107.723 176.942C109.403 176.942 110.459 175.678 110.459 173.79V173.678C110.459 171.742 109.387 170.494 107.723 170.494C106.043 170.494 104.987 171.742 104.987 173.662V173.79C104.987 175.694 106.027 176.942 107.723 176.942ZM107.707 178.046C105.323 178.046 103.611 176.238 103.611 173.79V173.662C103.611 171.15 105.355 169.39 107.723 169.39C110.091 169.39 111.835 171.134 111.835 173.646V173.774C111.835 176.302 110.091 178.046 107.707 178.046ZM116.723 178.046C115.059 178.046 113.811 177.134 113.811 174.83V169.534H115.139V174.766C115.139 176.238 115.763 176.894 117.075 176.894C118.259 176.894 119.379 176.11 119.379 174.606V169.534H120.707V177.902H119.379V176.574C118.995 177.358 118.067 178.046 116.723 178.046ZM123.391 177.902V169.534H124.719V171.038C125.247 170.094 125.967 169.438 127.471 169.39V170.638C125.791 170.718 124.719 171.246 124.719 173.31V177.902H123.391ZM137.065 178.046C134.697 178.046 133.017 176.382 133.017 173.806V173.678C133.017 171.15 134.633 169.39 136.937 169.39C138.873 169.39 140.697 170.558 140.697 173.55V173.982H134.393C134.457 175.886 135.369 176.942 137.081 176.942C138.377 176.942 139.129 176.462 139.305 175.486H140.633C140.345 177.166 138.953 178.046 137.065 178.046ZM134.441 172.91H139.337C139.209 171.182 138.313 170.494 136.937 170.494C135.577 170.494 134.665 171.422 134.441 172.91ZM142.735 177.902V169.534H144.063V170.814C144.447 170.03 145.359 169.39 146.559 169.39C147.631 169.39 148.575 169.838 149.007 170.958C149.583 169.87 150.831 169.39 151.871 169.39C153.375 169.39 154.687 170.286 154.687 172.718V177.902H153.359V172.622C153.359 171.15 152.735 170.542 151.583 170.542C150.495 170.542 149.375 171.278 149.375 172.782V177.902H148.047V172.622C148.047 171.15 147.423 170.542 146.271 170.542C145.183 170.542 144.063 171.278 144.063 172.782V177.902H142.735ZM159.393 178.046C157.841 178.046 156.609 177.294 156.609 175.582C156.609 173.646 158.657 172.99 160.801 172.99H162.001V172.382C162.001 171.054 161.489 170.494 160.209 170.494C159.057 170.494 158.417 170.974 158.289 171.998H156.961C157.137 170.094 158.657 169.39 160.273 169.39C161.873 169.39 163.329 170.046 163.329 172.382V177.902H162.001V176.846C161.377 177.63 160.625 178.046 159.393 178.046ZM159.521 176.99C160.929 176.99 162.001 176.27 162.001 174.974V173.934H160.849C159.169 173.934 157.937 174.35 157.937 175.582C157.937 176.446 158.353 176.99 159.521 176.99ZM165.97 177.902V169.534H167.298V177.902H165.97ZM166.61 167.79C166.13 167.79 165.73 167.39 165.73 166.91C165.73 166.43 166.13 166.03 166.61 166.03C167.09 166.03 167.49 166.43 167.49 166.91C167.49 167.39 167.09 167.79 166.61 167.79ZM170.048 177.902V165.534H171.392V177.902H170.048Z" fill="#303030"/>
</g>
<g filter="url(#filter3_b_180_1559)">
<rect y="352.902" width="1113" height="189" rx="51" fill="white"/>
<rect x="0.5" y="353.402" width="1112" height="188" rx="50.5" stroke="#B2B2B2"/>
<path d="M50.3426 409.402V392.242H60.3506V393.946H52.4306V399.778H58.8146V401.482H52.4306V407.698H60.7826V409.402H50.3426ZM63.3124 409.402V396.85H65.3044V398.842C65.8804 397.666 67.2724 396.634 69.3364 396.634C71.9284 396.634 73.7524 398.05 73.7524 401.698V409.402H71.7604V401.554C71.7604 399.346 70.8244 398.362 68.8084 398.362C66.9604 398.362 65.3044 399.538 65.3044 401.794V409.402H63.3124ZM80.9921 409.57C78.7121 409.57 77.6081 408.226 77.6081 406.258V398.53H75.8081V396.85H77.6081V393.994H79.6001V396.85H82.5281V398.53H79.6001V406.066C79.6001 407.29 80.1521 407.89 81.1601 407.89C81.7841 407.89 82.2641 407.794 82.6961 407.626V409.306C82.2881 409.45 81.8081 409.57 80.9921 409.57ZM90.3634 409.618C86.8114 409.618 84.2914 407.122 84.2914 403.258V403.066C84.2914 399.274 86.7154 396.634 90.1714 396.634C93.0754 396.634 95.8114 398.386 95.8114 402.874V403.522H86.3554C86.4514 406.378 87.8194 407.962 90.3874 407.962C92.3314 407.962 93.4594 407.242 93.7234 405.778H95.7154C95.2834 408.298 93.1954 409.618 90.3634 409.618ZM86.4274 401.914H93.7714C93.5794 399.322 92.2354 398.29 90.1714 398.29C88.1314 398.29 86.7634 399.682 86.4274 401.914ZM98.388 409.402V396.85H100.38V399.106C101.172 397.69 102.252 396.706 104.508 396.634V398.506C101.988 398.626 100.38 399.418 100.38 402.514V409.402H98.388ZM113.931 413.77L116.307 408.106L111.387 396.85H113.523L117.363 405.85L120.843 396.85H122.883L115.947 413.77H113.931ZM129.907 407.962C132.427 407.962 134.011 406.066 134.011 403.234V403.066C134.011 400.162 132.403 398.29 129.907 398.29C127.387 398.29 125.803 400.162 125.803 403.042V403.234C125.803 406.09 127.363 407.962 129.907 407.962ZM129.883 409.618C126.307 409.618 123.739 406.906 123.739 403.234V403.042C123.739 399.274 126.355 396.634 129.907 396.634C133.459 396.634 136.075 399.25 136.075 403.018V403.21C136.075 407.002 133.459 409.618 129.883 409.618ZM142.927 409.618C140.431 409.618 138.559 408.25 138.559 404.794V396.85H140.551V404.698C140.551 406.906 141.487 407.89 143.455 407.89C145.231 407.89 146.911 406.714 146.911 404.458V396.85H148.903V409.402H146.911V407.41C146.335 408.586 144.943 409.618 142.927 409.618ZM152.449 409.402V396.85H154.441V399.106C155.233 397.69 156.313 396.706 158.569 396.634V398.506C156.049 398.626 154.441 399.418 154.441 402.514V409.402H152.449ZM166.864 409.402V396.85H168.856V398.77C169.432 397.594 170.8 396.634 172.6 396.634C174.208 396.634 175.624 397.306 176.272 398.986C177.136 397.354 179.008 396.634 180.568 396.634C182.824 396.634 184.792 397.978 184.792 401.626V409.402H182.8V401.482C182.8 399.274 181.864 398.362 180.136 398.362C178.504 398.362 176.824 399.466 176.824 401.722V409.402H174.832V401.482C174.832 399.274 173.896 398.362 172.168 398.362C170.536 398.362 168.856 399.466 168.856 401.722V409.402H166.864ZM193.364 409.618C189.812 409.618 187.292 407.122 187.292 403.258V403.066C187.292 399.274 189.716 396.634 193.172 396.634C196.076 396.634 198.812 398.386 198.812 402.874V403.522H189.356C189.452 406.378 190.82 407.962 193.388 407.962C195.332 407.962 196.46 407.242 196.724 405.778H198.716C198.284 408.298 196.196 409.618 193.364 409.618ZM189.428 401.914H196.772C196.58 399.322 195.236 398.29 193.172 398.29C191.132 398.29 189.764 399.682 189.428 401.914ZM205.393 409.618C202.393 409.618 200.593 408.106 200.473 405.538H202.417C202.561 407.026 203.353 407.962 205.369 407.962C207.265 407.962 208.105 407.314 208.105 405.97C208.105 404.65 207.121 404.218 205.177 403.858C201.913 403.258 200.809 402.346 200.809 400.162C200.809 397.834 203.089 396.634 205.057 396.634C207.313 396.634 209.257 397.546 209.593 400.258H207.673C207.385 398.89 206.617 398.29 205.033 398.29C203.593 398.29 202.657 399.01 202.657 400.09C202.657 401.218 203.281 401.674 205.585 402.082C208.177 402.562 210.001 403.138 210.001 405.802C210.001 408.082 208.441 409.618 205.393 409.618ZM216.445 409.618C213.445 409.618 211.645 408.106 211.525 405.538H213.469C213.613 407.026 214.405 407.962 216.421 407.962C218.317 407.962 219.157 407.314 219.157 405.97C219.157 404.65 218.173 404.218 216.229 403.858C212.965 403.258 211.861 402.346 211.861 400.162C211.861 397.834 214.141 396.634 216.109 396.634C218.365 396.634 220.309 397.546 220.645 400.258H218.725C218.437 398.89 217.669 398.29 216.085 398.29C214.645 398.29 213.709 399.01 213.709 400.09C213.709 401.218 214.333 401.674 216.637 402.082C219.229 402.562 221.053 403.138 221.053 405.802C221.053 408.082 219.493 409.618 216.445 409.618ZM226.752 409.618C224.424 409.618 222.576 408.49 222.576 405.922C222.576 403.018 225.648 402.034 228.864 402.034H230.664V401.122C230.664 399.13 229.896 398.29 227.976 398.29C226.248 398.29 225.288 399.01 225.096 400.546H223.104C223.368 397.69 225.648 396.634 228.072 396.634C230.472 396.634 232.656 397.618 232.656 401.122V409.402H230.664V407.818C229.728 408.994 228.6 409.618 226.752 409.618ZM226.944 408.034C229.056 408.034 230.664 406.954 230.664 405.01V403.45H228.936C226.416 403.45 224.568 404.074 224.568 405.922C224.568 407.218 225.192 408.034 226.944 408.034ZM241.105 413.986C237.385 413.986 235.753 412.234 235.417 410.122H237.457C237.745 411.562 238.945 412.306 241.081 412.306C243.553 412.306 245.113 411.13 245.113 408.442V406.618C244.393 407.842 242.689 408.994 240.865 408.994C237.577 408.994 235.153 406.498 235.153 403.042V402.874C235.153 399.466 237.553 396.634 241.009 396.634C243.097 396.634 244.393 397.642 245.113 398.866V396.85H247.105V408.562C247.081 412.21 244.609 413.986 241.105 413.986ZM241.081 407.338C243.409 407.338 245.185 405.706 245.185 402.898V402.73C245.185 399.922 243.649 398.29 241.201 398.29C238.705 398.29 237.217 400.138 237.217 402.778V402.97C237.217 405.706 238.969 407.338 241.081 407.338ZM255.792 409.618C252.24 409.618 249.72 407.122 249.72 403.258V403.066C249.72 399.274 252.144 396.634 255.6 396.634C258.504 396.634 261.24 398.386 261.24 402.874V403.522H251.784C251.88 406.378 253.248 407.962 255.816 407.962C257.76 407.962 258.888 407.242 259.152 405.778H261.144C260.712 408.298 258.624 409.618 255.792 409.618ZM251.856 401.914H259.2C259.008 399.322 257.664 398.29 255.6 398.29C253.56 398.29 252.192 399.682 251.856 401.914Z" fill="black" fill-opacity="0.3"/>
<rect x="47" y="318.902" width="157" height="26" rx="13" fill="white"/>
<path d="M52.44 336.902V325.462H59.112V326.598H53.832V330.486H58.088V331.622H53.832V335.766H59.4V336.902H52.44ZM61.4065 336.902V328.534H62.7345V329.862C63.1185 329.078 64.0465 328.39 65.4225 328.39C67.1505 328.39 68.3665 329.334 68.3665 331.766V336.902H67.0385V331.67C67.0385 330.198 66.4145 329.542 65.0705 329.542C63.8385 329.542 62.7345 330.326 62.7345 331.83V336.902H61.4065ZM73.513 337.014C71.993 337.014 71.257 336.118 71.257 334.806V329.654H70.057V328.534H71.257V326.63H72.585V328.534H74.537V329.654H72.585V334.678C72.585 335.494 72.953 335.894 73.625 335.894C74.041 335.894 74.361 335.83 74.649 335.718V336.838C74.377 336.934 74.057 337.014 73.513 337.014ZM80.0805 337.046C77.7125 337.046 76.0325 335.382 76.0325 332.806V332.678C76.0325 330.15 77.6485 328.39 79.9525 328.39C81.8885 328.39 83.7125 329.558 83.7125 332.55V332.982H77.4085C77.4725 334.886 78.3845 335.942 80.0965 335.942C81.3925 335.942 82.1445 335.462 82.3205 334.486H83.6485C83.3605 336.166 81.9685 337.046 80.0805 337.046ZM77.4565 331.91H82.3525C82.2245 330.182 81.3285 329.494 79.9525 329.494C78.5925 329.494 77.6805 330.422 77.4565 331.91ZM85.7503 336.902V328.534H87.0783V330.038C87.6063 329.094 88.3263 328.438 89.8303 328.39V329.638C88.1503 329.718 87.0783 330.246 87.0783 332.31V336.902H85.7503ZM96.7523 339.814L98.3363 336.038L95.0563 328.534H96.4803L99.0403 334.534L101.36 328.534H102.72L98.0963 339.814H96.7523ZM107.723 335.942C109.403 335.942 110.459 334.678 110.459 332.79V332.678C110.459 330.742 109.387 329.494 107.723 329.494C106.043 329.494 104.987 330.742 104.987 332.662V332.79C104.987 334.694 106.027 335.942 107.723 335.942ZM107.707 337.046C105.323 337.046 103.611 335.238 103.611 332.79V332.662C103.611 330.15 105.355 328.39 107.723 328.39C110.091 328.39 111.835 330.134 111.835 332.646V332.774C111.835 335.302 110.091 337.046 107.707 337.046ZM116.723 337.046C115.059 337.046 113.811 336.134 113.811 333.83V328.534H115.139V333.766C115.139 335.238 115.763 335.894 117.075 335.894C118.259 335.894 119.379 335.11 119.379 333.606V328.534H120.707V336.902H119.379V335.574C118.995 336.358 118.067 337.046 116.723 337.046ZM123.391 336.902V328.534H124.719V330.038C125.247 329.094 125.967 328.438 127.471 328.39V329.638C125.791 329.718 124.719 330.246 124.719 332.31V336.902H123.391ZM133.641 336.902V328.534H134.969V329.814C135.353 329.03 136.265 328.39 137.465 328.39C138.537 328.39 139.481 328.838 139.913 329.958C140.489 328.87 141.737 328.39 142.777 328.39C144.281 328.39 145.593 329.286 145.593 331.718V336.902H144.265V331.622C144.265 330.15 143.641 329.542 142.489 329.542C141.401 329.542 140.281 330.278 140.281 331.782V336.902H138.953V331.622C138.953 330.15 138.329 329.542 137.177 329.542C136.089 329.542 134.969 330.278 134.969 331.782V336.902H133.641ZM151.627 337.046C149.259 337.046 147.579 335.382 147.579 332.806V332.678C147.579 330.15 149.195 328.39 151.499 328.39C153.435 328.39 155.259 329.558 155.259 332.55V332.982H148.955C149.019 334.886 149.931 335.942 151.643 335.942C152.939 335.942 153.691 335.462 153.867 334.486H155.195C154.907 336.166 153.515 337.046 151.627 337.046ZM149.003 331.91H153.899C153.771 330.182 152.875 329.494 151.499 329.494C150.139 329.494 149.227 330.422 149.003 331.91ZM159.967 337.046C157.967 337.046 156.767 336.038 156.687 334.326H157.983C158.079 335.318 158.607 335.942 159.951 335.942C161.215 335.942 161.775 335.51 161.775 334.614C161.775 333.734 161.119 333.446 159.823 333.206C157.647 332.806 156.911 332.198 156.911 330.742C156.911 329.19 158.431 328.39 159.743 328.39C161.247 328.39 162.543 328.998 162.767 330.806H161.487C161.295 329.894 160.783 329.494 159.727 329.494C158.767 329.494 158.143 329.974 158.143 330.694C158.143 331.446 158.559 331.75 160.095 332.022C161.823 332.342 163.039 332.726 163.039 334.502C163.039 336.022 161.999 337.046 159.967 337.046ZM167.655 337.046C165.655 337.046 164.455 336.038 164.375 334.326H165.671C165.767 335.318 166.295 335.942 167.639 335.942C168.903 335.942 169.463 335.51 169.463 334.614C169.463 333.734 168.807 333.446 167.511 333.206C165.335 332.806 164.599 332.198 164.599 330.742C164.599 329.19 166.119 328.39 167.431 328.39C168.935 328.39 170.231 328.998 170.455 330.806H169.175C168.983 329.894 168.471 329.494 167.415 329.494C166.455 329.494 165.831 329.974 165.831 330.694C165.831 331.446 166.247 331.75 167.783 332.022C169.511 332.342 170.727 332.726 170.727 334.502C170.727 336.022 169.687 337.046 167.655 337.046ZM174.846 337.046C173.294 337.046 172.062 336.294 172.062 334.582C172.062 332.646 174.11 331.99 176.254 331.99H177.454V331.382C177.454 330.054 176.942 329.494 175.662 329.494C174.51 329.494 173.87 329.974 173.742 330.998H172.414C172.59 329.094 174.11 328.39 175.726 328.39C177.326 328.39 178.782 329.046 178.782 331.382V336.902H177.454V335.846C176.83 336.63 176.078 337.046 174.846 337.046ZM174.974 335.99C176.382 335.99 177.454 335.27 177.454 333.974V332.934H176.302C174.622 332.934 173.39 333.35 173.39 334.582C173.39 335.446 173.806 335.99 174.974 335.99ZM184.735 339.958C182.255 339.958 181.167 338.79 180.943 337.382H182.303C182.495 338.342 183.295 338.838 184.719 338.838C186.367 338.838 187.407 338.054 187.407 336.262V335.046C186.927 335.862 185.791 336.63 184.575 336.63C182.383 336.63 180.767 334.966 180.767 332.662V332.55C180.767 330.278 182.367 328.39 184.671 328.39C186.063 328.39 186.927 329.062 187.407 329.878V328.534H188.735V336.342C188.719 338.774 187.071 339.958 184.735 339.958ZM184.719 335.526C186.271 335.526 187.455 334.438 187.455 332.566V332.454C187.455 330.582 186.431 329.494 184.799 329.494C183.135 329.494 182.143 330.726 182.143 332.486V332.614C182.143 334.438 183.311 335.526 184.719 335.526ZM194.846 337.046C192.478 337.046 190.798 335.382 190.798 332.806V332.678C190.798 330.15 192.414 328.39 194.718 328.39C196.654 328.39 198.478 329.558 198.478 332.55V332.982H192.174C192.238 334.886 193.15 335.942 194.862 335.942C196.158 335.942 196.91 335.462 197.086 334.486H198.414C198.126 336.166 196.734 337.046 194.846 337.046ZM192.222 331.91H197.118C196.99 330.182 196.094 329.494 194.718 329.494C193.358 329.494 192.446 330.422 192.222 331.91Z" fill="#303030"/>
</g>
<defs>
<filter id="filter0_b_180_1559" x="-9.7" y="-8.79845" width="566.4" height="150.4" filterUnits="userSpaceOnUse" color-interpolation-filters="sRGB">
<feFlood flood-opacity="0" result="BackgroundImageFix"/>
<feGaussianBlur in="BackgroundImageFix" stdDeviation="4.85"/>
<feComposite in2="SourceAlpha" operator="in" result="effect1_backgroundBlur_180_1559"/>
<feBlend mode="normal" in="SourceGraphic" in2="effect1_backgroundBlur_180_1559" result="shape"/>
</filter>
<filter id="filter1_b_180_1559" x="557.3" y="-8.79845" width="565.4" height="150.4" filterUnits="userSpaceOnUse" color-interpolation-filters="sRGB">
<feFlood flood-opacity="0" result="BackgroundImageFix"/>
<feGaussianBlur in="BackgroundImageFix" stdDeviation="4.85"/>
<feComposite in2="SourceAlpha" operator="in" result="effect1_backgroundBlur_180_1559"/>
<feBlend mode="normal" in="SourceGraphic" in2="effect1_backgroundBlur_180_1559" result="shape"/>
</filter>
<filter id="filter2_b_180_1559" x="-9.7" y="150.202" width="566.4" height="150.4" filterUnits="userSpaceOnUse" color-interpolation-filters="sRGB">
<feFlood flood-opacity="0" result="BackgroundImageFix"/>
<feGaussianBlur in="BackgroundImageFix" stdDeviation="4.85"/>
<feComposite in2="SourceAlpha" operator="in" result="effect1_backgroundBlur_180_1559"/>
<feBlend mode="normal" in="SourceGraphic" in2="effect1_backgroundBlur_180_1559" result="shape"/>
</filter>
<filter id="filter3_b_180_1559" x="-9.7" y="309.202" width="1132.4" height="242.4" filterUnits="userSpaceOnUse" color-interpolation-filters="sRGB">
<feFlood flood-opacity="0" result="BackgroundImageFix"/>
<feGaussianBlur in="BackgroundImageFix" stdDeviation="4.85"/>
<feComposite in2="SourceAlpha" operator="in" result="effect1_backgroundBlur_180_1559"/>
<feBlend mode="normal" in="SourceGraphic" in2="effect1_backgroundBlur_180_1559" result="shape"/>
</filter>
</defs>
</svg>
