<svg width="135" height="60" viewBox="0 0 135 60" fill="none" xmlns="http://www.w3.org/2000/svg">
<rect y="0.90155" width="135" height="59" rx="29.5" fill="#E5682E"/>
<path d="M42.32 37.0816C41.6933 37.0816 41.0867 37.0282 40.5 36.9216C39.9133 36.8282 39.36 36.6816 38.84 36.4816C38.32 36.2816 37.8533 36.0349 37.44 35.7416C37.2667 35.6216 37.14 35.4749 37.06 35.3016C36.9933 35.1282 36.9733 34.9616 37 34.8016C37.04 34.6282 37.1133 34.4816 37.22 34.3616C37.34 34.2416 37.48 34.1682 37.64 34.1416C37.8 34.1149 37.9733 34.1682 38.16 34.3016C38.7733 34.7149 39.4133 35.0149 40.08 35.2016C40.76 35.3882 41.5067 35.4816 42.32 35.4816C43.4933 35.4816 44.3533 35.2682 44.9 34.8416C45.46 34.4149 45.74 33.8549 45.74 33.1616C45.74 32.5882 45.54 32.1416 45.14 31.8216C44.74 31.4882 44.0667 31.2282 43.12 31.0416L41 30.6015C39.7467 30.3349 38.8067 29.8949 38.18 29.2816C37.5667 28.6682 37.26 27.8482 37.26 26.8216C37.26 26.1949 37.3867 25.6282 37.64 25.1215C37.8933 24.6015 38.2533 24.1549 38.72 23.7815C39.1867 23.4082 39.7333 23.1215 40.36 22.9215C41 22.7215 41.7067 22.6215 42.48 22.6215C43.3067 22.6215 44.08 22.7349 44.8 22.9615C45.5333 23.1882 46.1933 23.5216 46.78 23.9615C46.94 24.0816 47.0467 24.2282 47.1 24.4016C47.1533 24.5615 47.16 24.7215 47.12 24.8816C47.0933 25.0415 47.02 25.1749 46.9 25.2815C46.7933 25.3882 46.6533 25.4482 46.48 25.4615C46.32 25.4749 46.14 25.4149 45.94 25.2815C45.4067 24.9082 44.86 24.6415 44.3 24.4815C43.74 24.3082 43.1267 24.2216 42.46 24.2216C41.78 24.2216 41.1867 24.3282 40.68 24.5415C40.1867 24.7549 39.8 25.0549 39.52 25.4416C39.2533 25.8149 39.12 26.2549 39.12 26.7615C39.12 27.3749 39.3067 27.8549 39.68 28.2015C40.0533 28.5482 40.68 28.8149 41.56 29.0016L43.66 29.4216C44.9933 29.7016 45.98 30.1349 46.62 30.7215C47.2733 31.2949 47.6 32.0682 47.6 33.0416C47.6 33.6549 47.4733 34.2082 47.22 34.7016C46.98 35.1949 46.6333 35.6216 46.18 35.9816C45.7267 36.3282 45.1733 36.6016 44.52 36.8016C43.8667 36.9882 43.1333 37.0816 42.32 37.0816ZM52.9033 37.0816C52.1166 37.0816 51.4566 36.9349 50.9233 36.6416C50.4033 36.3482 50.0166 35.9149 49.7633 35.3416C49.5099 34.7682 49.3833 34.0482 49.3833 33.1816V27.9416C49.3833 27.6349 49.4566 27.4082 49.6033 27.2615C49.7633 27.1015 49.9899 27.0215 50.2833 27.0215C50.5766 27.0215 50.8033 27.1015 50.9633 27.2615C51.1233 27.4082 51.2033 27.6349 51.2033 27.9416V33.1816C51.2033 34.0082 51.3699 34.6216 51.7033 35.0216C52.0366 35.4082 52.5633 35.6016 53.2833 35.6016C54.0833 35.6016 54.7299 35.3349 55.2233 34.8016C55.7299 34.2682 55.9833 33.5616 55.9833 32.6816V27.9416C55.9833 27.6349 56.0566 27.4082 56.2033 27.2615C56.3633 27.1015 56.5899 27.0215 56.8833 27.0215C57.1766 27.0215 57.4033 27.1015 57.5633 27.2615C57.7233 27.4082 57.8033 27.6349 57.8033 27.9416V36.1016C57.8033 36.7282 57.5099 37.0416 56.9233 37.0416C56.6299 37.0416 56.4033 36.9616 56.2433 36.8016C56.0966 36.6416 56.0233 36.4082 56.0233 36.1016V34.3616L56.2833 34.7016C56.0166 35.4749 55.5833 36.0682 54.9833 36.4816C54.3966 36.8816 53.7033 37.0816 52.9033 37.0816ZM65.4319 37.0816C64.5519 37.0816 63.7985 36.8616 63.1719 36.4216C62.5452 35.9816 62.1252 35.3882 61.9119 34.6416L62.1319 34.3416V36.1016C62.1319 36.4082 62.0519 36.6416 61.8919 36.8016C61.7452 36.9616 61.5252 37.0416 61.2319 37.0416C60.9519 37.0416 60.7319 36.9616 60.5719 36.8016C60.4119 36.6416 60.3319 36.4082 60.3319 36.1016V23.5816C60.3319 23.2749 60.4119 23.0482 60.5719 22.9015C60.7319 22.7415 60.9519 22.6616 61.2319 22.6616C61.5252 22.6616 61.7519 22.7415 61.9119 22.9015C62.0719 23.0482 62.1519 23.2749 62.1519 23.5816V29.3616H61.9319C62.1452 28.6415 62.5652 28.0682 63.1919 27.6415C63.8185 27.2015 64.5652 26.9815 65.4319 26.9815C66.2985 26.9815 67.0519 27.1882 67.6919 27.6015C68.3452 28.0015 68.8452 28.5815 69.1919 29.3415C69.5519 30.0882 69.7319 30.9815 69.7319 32.0215C69.7319 33.0482 69.5519 33.9482 69.1919 34.7216C68.8319 35.4816 68.3319 36.0682 67.6919 36.4816C67.0519 36.8816 66.2985 37.0816 65.4319 37.0816ZM65.0119 35.6416C65.5852 35.6416 66.0852 35.5016 66.5119 35.2216C66.9519 34.9416 67.2919 34.5349 67.5319 34.0016C67.7719 33.4682 67.8919 32.8082 67.8919 32.0215C67.8919 30.8482 67.6319 29.9549 67.1119 29.3415C66.5919 28.7282 65.8919 28.4215 65.0119 28.4215C64.4252 28.4215 63.9119 28.5615 63.4719 28.8415C63.0452 29.1082 62.7119 29.5082 62.4719 30.0415C62.2452 30.5749 62.1319 31.2349 62.1319 32.0215C62.1319 33.1949 62.3919 34.0949 62.9119 34.7216C63.4319 35.3349 64.1319 35.6416 65.0119 35.6416ZM72.6102 37.0416C72.3302 37.0416 72.1102 36.9616 71.9502 36.8016C71.7902 36.6416 71.7102 36.4082 71.7102 36.1016V27.9416C71.7102 27.6349 71.7902 27.4082 71.9502 27.2615C72.1102 27.1015 72.3302 27.0215 72.6102 27.0215C72.8902 27.0215 73.1035 27.1015 73.2502 27.2615C73.4102 27.4082 73.4902 27.6349 73.4902 27.9416V29.6416L73.2702 29.2816C73.5235 28.5482 73.9302 27.9815 74.4902 27.5815C75.0635 27.1815 75.7435 26.9815 76.5302 26.9815C77.3568 26.9815 78.0235 27.1815 78.5302 27.5815C79.0368 27.9682 79.3768 28.5616 79.5502 29.3616H79.2702C79.5102 28.6282 79.9368 28.0482 80.5502 27.6215C81.1768 27.1949 81.9035 26.9815 82.7302 26.9815C83.4635 26.9815 84.0635 27.1282 84.5302 27.4215C85.0102 27.7015 85.3702 28.1282 85.6102 28.7015C85.8502 29.2615 85.9702 29.9815 85.9702 30.8615V36.1016C85.9702 36.4082 85.8902 36.6416 85.7302 36.8016C85.5702 36.9616 85.3502 37.0416 85.0702 37.0416C84.7768 37.0416 84.5502 36.9616 84.3902 36.8016C84.2302 36.6416 84.1502 36.4082 84.1502 36.1016V30.9416C84.1502 30.0882 84.0035 29.4615 83.7102 29.0615C83.4168 28.6615 82.9235 28.4615 82.2302 28.4615C81.4702 28.4615 80.8635 28.7282 80.4102 29.2615C79.9702 29.7815 79.7502 30.5015 79.7502 31.4215V36.1016C79.7502 36.4082 79.6702 36.6416 79.5102 36.8016C79.3635 36.9616 79.1435 37.0416 78.8502 37.0416C78.5568 37.0416 78.3302 36.9616 78.1702 36.8016C78.0102 36.6416 77.9302 36.4082 77.9302 36.1016V30.9416C77.9302 30.0882 77.7835 29.4615 77.4902 29.0615C77.1968 28.6615 76.7035 28.4615 76.0102 28.4615C75.2502 28.4615 74.6435 28.7282 74.1902 29.2615C73.7502 29.7815 73.5302 30.5015 73.5302 31.4215V36.1016C73.5302 36.7282 73.2235 37.0416 72.6102 37.0416ZM89.3967 37.0016C89.1167 37.0016 88.8967 36.9149 88.7367 36.7416C88.5767 36.5682 88.4967 36.3282 88.4967 36.0216V28.0415C88.4967 27.7216 88.5767 27.4815 88.7367 27.3215C88.8967 27.1482 89.1167 27.0616 89.3967 27.0616C89.6901 27.0616 89.9167 27.1482 90.0767 27.3215C90.2367 27.4815 90.3167 27.7216 90.3167 28.0415V36.0216C90.3167 36.3282 90.2367 36.5682 90.0767 36.7416C89.9301 36.9149 89.7034 37.0016 89.3967 37.0016ZM89.3967 24.9015C89.0367 24.9015 88.7501 24.8082 88.5367 24.6215C88.3367 24.4216 88.2367 24.1615 88.2367 23.8415C88.2367 23.4949 88.3367 23.2349 88.5367 23.0615C88.7501 22.8749 89.0367 22.7815 89.3967 22.7815C89.7834 22.7815 90.0701 22.8749 90.2567 23.0615C90.4567 23.2349 90.5567 23.4949 90.5567 23.8415C90.5567 24.1615 90.4567 24.4216 90.2567 24.6215C90.0701 24.8082 89.7834 24.9015 89.3967 24.9015ZM96.8828 37.0816C96.0961 37.0816 95.4361 36.9416 94.9028 36.6616C94.3828 36.3816 93.9895 35.9749 93.7228 35.4416C93.4695 34.9082 93.3428 34.2549 93.3428 33.4816V28.5615H92.0628C91.8228 28.5615 91.6361 28.5015 91.5028 28.3815C91.3695 28.2482 91.3028 28.0749 91.3028 27.8615C91.3028 27.6349 91.3695 27.4616 91.5028 27.3415C91.6361 27.2215 91.8228 27.1615 92.0628 27.1615H93.3428V24.9815C93.3428 24.6749 93.4228 24.4482 93.5828 24.3015C93.7428 24.1415 93.9695 24.0615 94.2628 24.0615C94.5561 24.0615 94.7761 24.1415 94.9228 24.3015C95.0828 24.4482 95.1628 24.6749 95.1628 24.9815V27.1615H97.5828C97.8361 27.1615 98.0295 27.2215 98.1628 27.3415C98.2961 27.4616 98.3628 27.6349 98.3628 27.8615C98.3628 28.0749 98.2961 28.2482 98.1628 28.3815C98.0295 28.5015 97.8361 28.5615 97.5828 28.5615H95.1628V33.3216C95.1628 34.0549 95.3161 34.6082 95.6228 34.9816C95.9295 35.3549 96.4361 35.5416 97.1428 35.5416C97.3961 35.5416 97.6095 35.5216 97.7828 35.4816C97.9561 35.4282 98.1095 35.4016 98.2428 35.4016C98.3628 35.3882 98.4628 35.4282 98.5428 35.5216C98.6361 35.6149 98.6828 35.7882 98.6828 36.0416C98.6828 36.2282 98.6495 36.4016 98.5828 36.5616C98.5295 36.7082 98.4161 36.8082 98.2428 36.8616C98.0828 36.9149 97.8695 36.9616 97.6028 37.0016C97.3361 37.0549 97.0961 37.0816 96.8828 37.0816Z" fill="white"/>
</svg>
