<svg width="53" height="41" viewBox="0 0 53 41" fill="none" xmlns="http://www.w3.org/2000/svg">
<rect y="0.318604" width="53" height="40" rx="12" fill="#EAEAEA"/>
<path d="M15.856 25.4626C15.1093 25.4626 14.448 25.3666 13.872 25.1746C13.3067 24.9719 12.832 24.6786 12.448 24.2946C12.064 23.8999 11.7707 23.4146 11.568 22.8386C11.376 22.2519 11.28 21.5746 11.28 20.8066V14.6786C11.28 14.4226 11.344 14.2359 11.472 14.1186C11.6 13.9906 11.7813 13.9266 12.016 13.9266C12.2613 13.9266 12.448 13.9906 12.576 14.1186C12.704 14.2359 12.768 14.4226 12.768 14.6786V20.7586C12.768 21.8999 13.0293 22.7533 13.552 23.3186C14.0747 23.8733 14.8427 24.1506 15.856 24.1506C16.8693 24.1506 17.6373 23.8733 18.16 23.3186C18.6827 22.7533 18.944 21.8999 18.944 20.7586V14.6786C18.944 14.4226 19.008 14.2359 19.136 14.1186C19.264 13.9906 19.4453 13.9266 19.68 13.9266C19.9147 13.9266 20.096 13.9906 20.224 14.1186C20.352 14.2359 20.416 14.4226 20.416 14.6786V20.8066C20.416 21.8199 20.24 22.6733 19.888 23.3666C19.5467 24.0599 19.0347 24.5826 18.352 24.9346C17.68 25.2866 16.848 25.4626 15.856 25.4626ZM26.4391 25.4626C25.9378 25.4626 25.4525 25.4199 24.9831 25.3346C24.5138 25.2599 24.0711 25.1426 23.6551 24.9826C23.2391 24.8226 22.8658 24.6253 22.5351 24.3906C22.3965 24.2946 22.2951 24.1773 22.2311 24.0386C22.1778 23.8999 22.1618 23.7666 22.1831 23.6386C22.2151 23.4999 22.2738 23.3826 22.3591 23.2866C22.4551 23.1906 22.5671 23.1319 22.6951 23.1106C22.8231 23.0893 22.9618 23.1319 23.1111 23.2386C23.6018 23.5693 24.1138 23.8093 24.6471 23.9586C25.1911 24.1079 25.7885 24.1826 26.4391 24.1826C27.3778 24.1826 28.0658 24.0119 28.5031 23.6706C28.9511 23.3293 29.1751 22.8813 29.1751 22.3266C29.1751 21.8679 29.0151 21.5106 28.6951 21.2546C28.3751 20.9879 27.8365 20.7799 27.0791 20.6306L25.3831 20.2786C24.3805 20.0653 23.6285 19.7133 23.1271 19.2226C22.6365 18.7319 22.3911 18.0759 22.3911 17.2546C22.3911 16.7533 22.4925 16.2999 22.6951 15.8946C22.8978 15.4786 23.1858 15.1213 23.5591 14.8226C23.9325 14.5239 24.3698 14.2946 24.8711 14.1346C25.3831 13.9746 25.9485 13.8946 26.5671 13.8946C27.2285 13.8946 27.8471 13.9853 28.4231 14.1666C29.0098 14.3479 29.5378 14.6146 30.0071 14.9666C30.1351 15.0626 30.2205 15.1799 30.2631 15.3186C30.3058 15.4466 30.3111 15.5746 30.2791 15.7026C30.2578 15.8306 30.1991 15.9373 30.1031 16.0226C30.0178 16.1079 29.9058 16.1559 29.7671 16.1666C29.6391 16.1773 29.4951 16.1293 29.3351 16.0226C28.9085 15.7239 28.4711 15.5106 28.0231 15.3826C27.5751 15.2439 27.0845 15.1746 26.5511 15.1746C26.0071 15.1746 25.5325 15.2599 25.1271 15.4306C24.7325 15.6013 24.4231 15.8413 24.1991 16.1506C23.9858 16.4493 23.8791 16.8013 23.8791 17.2066C23.8791 17.6973 24.0285 18.0813 24.3271 18.3586C24.6258 18.6359 25.1271 18.8493 25.8311 18.9986L27.5111 19.3346C28.5778 19.5586 29.3671 19.9053 29.8791 20.3746C30.4018 20.8333 30.6631 21.4519 30.6631 22.2306C30.6631 22.7213 30.5618 23.1639 30.3591 23.5586C30.1671 23.9533 29.8898 24.2946 29.5271 24.5826C29.1645 24.8599 28.7218 25.0786 28.1991 25.2386C27.6765 25.3879 27.0898 25.4626 26.4391 25.4626ZM32.1069 25.4306C31.9149 25.4306 31.7602 25.3879 31.6429 25.3026C31.5362 25.2173 31.4722 25.0999 31.4509 24.9506C31.4295 24.8013 31.4615 24.6359 31.5469 24.4546L35.9149 14.5666C36.0109 14.3426 36.1335 14.1826 36.2829 14.0866C36.4322 13.9799 36.5975 13.9266 36.7789 13.9266C36.9602 13.9266 37.1202 13.9799 37.2589 14.0866C37.4082 14.1826 37.5362 14.3426 37.6429 14.5666L42.0109 24.4546C42.0962 24.6359 42.1282 24.8066 42.1069 24.9666C42.0962 25.1159 42.0375 25.2333 41.9309 25.3186C41.8242 25.3933 41.6749 25.4306 41.4829 25.4306C41.2695 25.4306 41.0989 25.3773 40.9709 25.2706C40.8429 25.1533 40.7309 24.9879 40.6349 24.7746L39.4989 22.1186L40.1869 22.5026H33.3389L34.0269 22.1186L32.8909 24.7746C32.7949 25.0093 32.6882 25.1799 32.5709 25.2866C32.4535 25.3826 32.2989 25.4306 32.1069 25.4306ZM36.7469 15.7186L34.2509 21.6226L33.8669 21.2866H39.6589L39.2909 21.6226L36.7789 15.7186H36.7469Z" fill="black"/>
</svg>
