<svg width="113" height="41" viewBox="0 0 113 41" fill="none" xmlns="http://www.w3.org/2000/svg">
<rect y="0.318604" width="113" height="40" rx="12" fill="#E5682E"/>
<path d="M12.048 25.4306C11.8347 25.4306 11.664 25.3666 11.536 25.2386C11.4187 25.1106 11.36 24.9346 11.36 24.7106V14.6786C11.36 14.4333 11.4187 14.2466 11.536 14.1186C11.6533 13.9906 11.808 13.9266 12 13.9266C12.1813 13.9266 12.32 13.9586 12.416 14.0226C12.512 14.0866 12.6187 14.1986 12.736 14.3586L19.52 23.3506H19.12V14.6466C19.12 14.4119 19.1787 14.2359 19.296 14.1186C19.424 13.9906 19.6 13.9266 19.824 13.9266C20.048 13.9266 20.2187 13.9906 20.336 14.1186C20.4533 14.2359 20.512 14.4119 20.512 14.6466V24.7106C20.512 24.9346 20.4533 25.1106 20.336 25.2386C20.2293 25.3666 20.0853 25.4306 19.904 25.4306C19.7333 25.4306 19.5893 25.3933 19.472 25.3186C19.3653 25.2546 19.2533 25.1426 19.136 24.9826L12.368 15.9906H12.736V24.7106C12.736 24.9346 12.6773 25.1106 12.56 25.2386C12.4427 25.3666 12.272 25.4306 12.048 25.4306ZM26.3074 25.4626C25.4647 25.4626 24.7394 25.3026 24.1314 24.9826C23.534 24.6519 23.07 24.1879 22.7394 23.5906C22.4087 22.9826 22.2434 22.2679 22.2434 21.4466C22.2434 20.6359 22.4034 19.9266 22.7234 19.3186C23.054 18.7106 23.502 18.2359 24.0674 17.8946C24.6434 17.5533 25.2994 17.3826 26.0354 17.3826C26.558 17.3826 27.0274 17.4733 27.4434 17.6546C27.87 17.8253 28.2327 18.0759 28.5314 18.4066C28.83 18.7373 29.054 19.1426 29.2034 19.6226C29.3634 20.0919 29.4434 20.6253 29.4434 21.2226C29.4434 21.3933 29.39 21.5266 29.2834 21.6226C29.1874 21.7079 29.0434 21.7506 28.8514 21.7506H23.3794V20.8226H28.4834L28.2114 21.0466C28.2114 20.4919 28.126 20.0226 27.9554 19.6386C27.7954 19.2439 27.5554 18.9453 27.2354 18.7426C26.926 18.5399 26.5367 18.4386 26.0674 18.4386C25.5554 18.4386 25.118 18.5613 24.7554 18.8066C24.3927 19.0413 24.1154 19.3773 23.9234 19.8146C23.7314 20.2413 23.6354 20.7373 23.6354 21.3026V21.3986C23.6354 22.3586 23.8647 23.0839 24.3234 23.5746C24.782 24.0653 25.4434 24.3106 26.3074 24.3106C26.6487 24.3106 26.9954 24.2679 27.3474 24.1826C27.71 24.0973 28.0567 23.9426 28.3874 23.7186C28.5474 23.6226 28.6914 23.5799 28.8194 23.5906C28.958 23.5906 29.07 23.6333 29.1554 23.7186C29.2407 23.7933 29.294 23.8893 29.3154 24.0066C29.3367 24.1133 29.3207 24.2306 29.2674 24.3586C29.214 24.4866 29.1127 24.5986 28.9634 24.6946C28.6114 24.9399 28.19 25.1319 27.6994 25.2706C27.2194 25.3986 26.7554 25.4626 26.3074 25.4626ZM33.5929 25.4306C33.3902 25.4306 33.2142 25.3826 33.0649 25.2866C32.9155 25.1799 32.7982 25.0093 32.7129 24.7746L30.3289 18.4226C30.2542 18.2199 30.2329 18.0439 30.2649 17.8946C30.2969 17.7453 30.3715 17.6279 30.4889 17.5426C30.6062 17.4573 30.7609 17.4146 30.9529 17.4146C31.1342 17.4146 31.2782 17.4573 31.3849 17.5426C31.4915 17.6279 31.5822 17.7826 31.6569 18.0066L33.8329 24.1506H33.4489L35.6889 17.9746C35.7635 17.7826 35.8595 17.6439 35.9769 17.5586C36.1049 17.4626 36.2595 17.4146 36.4409 17.4146C36.6329 17.4146 36.7929 17.4626 36.9209 17.5586C37.0489 17.6439 37.1395 17.7826 37.1929 17.9746L39.4009 24.1506H39.0329L41.2409 17.9746C41.3155 17.7613 41.4115 17.6173 41.5289 17.5426C41.6462 17.4573 41.7902 17.4146 41.9609 17.4146C42.1529 17.4146 42.2969 17.4626 42.3929 17.5586C42.4889 17.6546 42.5422 17.7826 42.5529 17.9426C42.5742 18.0919 42.5529 18.2519 42.4889 18.4226L40.1049 24.7746C40.0302 24.9986 39.9129 25.1639 39.7529 25.2706C39.6035 25.3773 39.4275 25.4306 39.2249 25.4306C39.0222 25.4306 38.8409 25.3773 38.6809 25.2706C38.5315 25.1639 38.4142 24.9986 38.3289 24.7746L36.0409 18.5026H36.7769L34.4889 24.7746C34.4035 24.9986 34.2862 25.1639 34.1369 25.2706C33.9875 25.3773 33.8062 25.4306 33.5929 25.4306ZM48.1448 25.3186C47.9528 25.3186 47.7928 25.2813 47.6648 25.2066C47.5474 25.1213 47.4621 25.0146 47.4088 24.8866C47.3661 24.7479 47.3661 24.5933 47.4088 24.4226C47.4621 24.2519 47.5528 24.0759 47.6808 23.8946L54.2248 14.7746V15.3026H48.0328C47.8088 15.3026 47.6381 15.2493 47.5208 15.1426C47.4034 15.0253 47.3448 14.8653 47.3448 14.6626C47.3448 14.4599 47.4034 14.3053 47.5208 14.1986C47.6381 14.0919 47.8088 14.0386 48.0328 14.0386H54.8968C55.0888 14.0386 55.2434 14.0813 55.3608 14.1666C55.4888 14.2413 55.5741 14.3479 55.6168 14.4866C55.6701 14.6146 55.6754 14.7639 55.6328 14.9346C55.5901 15.1053 55.4994 15.2813 55.3608 15.4626L48.8168 24.5826V24.0546H55.2488C55.4728 24.0546 55.6434 24.1079 55.7608 24.2146C55.8781 24.3213 55.9368 24.4759 55.9368 24.6786C55.9368 24.8813 55.8781 25.0413 55.7608 25.1586C55.6434 25.2653 55.4728 25.3186 55.2488 25.3186H48.1448ZM60.3868 25.4626C59.5441 25.4626 58.8188 25.3026 58.2108 24.9826C57.6134 24.6519 57.1494 24.1879 56.8188 23.5906C56.4881 22.9826 56.3228 22.2679 56.3228 21.4466C56.3228 20.6359 56.4828 19.9266 56.8028 19.3186C57.1334 18.7106 57.5814 18.2359 58.1468 17.8946C58.7228 17.5533 59.3788 17.3826 60.1148 17.3826C60.6374 17.3826 61.1068 17.4733 61.5228 17.6546C61.9494 17.8253 62.3121 18.0759 62.6108 18.4066C62.9094 18.7373 63.1334 19.1426 63.2828 19.6226C63.4428 20.0919 63.5228 20.6253 63.5228 21.2226C63.5228 21.3933 63.4694 21.5266 63.3628 21.6226C63.2668 21.7079 63.1228 21.7506 62.9308 21.7506H57.4588V20.8226H62.5628L62.2908 21.0466C62.2908 20.4919 62.2054 20.0226 62.0348 19.6386C61.8748 19.2439 61.6348 18.9453 61.3148 18.7426C61.0054 18.5399 60.6161 18.4386 60.1468 18.4386C59.6348 18.4386 59.1974 18.5613 58.8348 18.8066C58.4721 19.0413 58.1948 19.3773 58.0028 19.8146C57.8108 20.2413 57.7148 20.7373 57.7148 21.3026V21.3986C57.7148 22.3586 57.9441 23.0839 58.4028 23.5746C58.8614 24.0653 59.5228 24.3106 60.3868 24.3106C60.7281 24.3106 61.0748 24.2679 61.4268 24.1826C61.7894 24.0973 62.1361 23.9426 62.4668 23.7186C62.6268 23.6226 62.7708 23.5799 62.8988 23.5906C63.0374 23.5906 63.1494 23.6333 63.2348 23.7186C63.3201 23.7933 63.3734 23.8893 63.3948 24.0066C63.4161 24.1133 63.4001 24.2306 63.3468 24.3586C63.2934 24.4866 63.1921 24.5986 63.0428 24.6946C62.6908 24.9399 62.2694 25.1319 61.7788 25.2706C61.2988 25.3986 60.8348 25.4626 60.3868 25.4626ZM67.4936 25.4626C66.9603 25.4626 66.475 25.3559 66.0376 25.1426C65.611 24.9293 65.275 24.6413 65.0296 24.2786C64.795 23.9159 64.6776 23.5106 64.6776 23.0626C64.6776 22.4866 64.8216 22.0333 65.1096 21.7026C65.3976 21.3719 65.883 21.1373 66.5656 20.9986C67.2483 20.8493 68.1656 20.7746 69.3176 20.7746H70.0696V21.7026H69.3496C68.5283 21.7026 67.8776 21.7399 67.3976 21.8146C66.9283 21.8893 66.5976 22.0226 66.4056 22.2146C66.2136 22.3959 66.1176 22.6519 66.1176 22.9826C66.1176 23.3986 66.2616 23.7399 66.5496 24.0066C66.8483 24.2733 67.2536 24.4066 67.7656 24.4066C68.171 24.4066 68.5283 24.3106 68.8376 24.1186C69.147 23.9159 69.3923 23.6493 69.5736 23.3186C69.755 22.9773 69.8456 22.5879 69.8456 22.1506V20.3106C69.8456 19.6813 69.7176 19.2279 69.4616 18.9506C69.2056 18.6626 68.7736 18.5186 68.1656 18.5186C67.8136 18.5186 67.451 18.5666 67.0776 18.6626C66.7043 18.7586 66.315 18.9079 65.9096 19.1106C65.7496 19.1853 65.611 19.2119 65.4936 19.1906C65.3763 19.1586 65.2803 19.0946 65.2056 18.9986C65.1416 18.8919 65.1043 18.7799 65.0936 18.6626C65.0936 18.5346 65.1203 18.4119 65.1736 18.2946C65.2376 18.1773 65.3443 18.0919 65.4936 18.0386C65.963 17.8039 66.427 17.6386 66.8856 17.5426C67.355 17.4359 67.7923 17.3826 68.1976 17.3826C68.891 17.3826 69.4616 17.4946 69.9096 17.7186C70.3576 17.9319 70.6936 18.2679 70.9176 18.7266C71.1416 19.1746 71.2536 19.7506 71.2536 20.4546V24.6786C71.2536 24.9239 71.195 25.1106 71.0776 25.2386C70.9603 25.3666 70.7896 25.4306 70.5656 25.4306C70.3523 25.4306 70.1816 25.3666 70.0536 25.2386C69.9363 25.1106 69.8776 24.9239 69.8776 24.6786V23.5426H70.0216C69.9363 23.9373 69.7763 24.2786 69.5416 24.5666C69.307 24.8546 69.0136 25.0786 68.6616 25.2386C68.3203 25.3879 67.931 25.4626 67.4936 25.4626ZM75.6729 25.4626C74.8729 25.4626 74.2649 25.2279 73.8489 24.7586C73.4329 24.2786 73.2249 23.5906 73.2249 22.6946V14.6626C73.2249 14.4173 73.2889 14.2359 73.4169 14.1186C73.5449 13.9906 73.7209 13.9266 73.9449 13.9266C74.1795 13.9266 74.3609 13.9906 74.4889 14.1186C74.6169 14.2359 74.6809 14.4173 74.6809 14.6626V22.5826C74.6809 23.1373 74.7929 23.5533 75.0169 23.8306C75.2515 24.0973 75.5822 24.2306 76.0089 24.2306C76.1049 24.2306 76.1902 24.2306 76.2649 24.2306C76.3395 24.2199 76.4142 24.2093 76.4889 24.1986C76.6062 24.1879 76.6915 24.2199 76.7449 24.2946C76.7982 24.3693 76.8249 24.5186 76.8249 24.7426C76.8249 24.9453 76.7769 25.1053 76.6809 25.2226C76.5955 25.3293 76.4515 25.3986 76.2489 25.4306C76.1529 25.4413 76.0569 25.4466 75.9609 25.4466C75.8649 25.4573 75.7689 25.4626 75.6729 25.4626ZM80.1974 25.4626C79.664 25.4626 79.1787 25.3559 78.7414 25.1426C78.3147 24.9293 77.9787 24.6413 77.7334 24.2786C77.4987 23.9159 77.3814 23.5106 77.3814 23.0626C77.3814 22.4866 77.5254 22.0333 77.8134 21.7026C78.1014 21.3719 78.5867 21.1373 79.2694 20.9986C79.952 20.8493 80.8694 20.7746 82.0214 20.7746H82.7734V21.7026H82.0534C81.232 21.7026 80.5814 21.7399 80.1014 21.8146C79.632 21.8893 79.3014 22.0226 79.1094 22.2146C78.9174 22.3959 78.8214 22.6519 78.8214 22.9826C78.8214 23.3986 78.9654 23.7399 79.2534 24.0066C79.552 24.2733 79.9574 24.4066 80.4694 24.4066C80.8747 24.4066 81.232 24.3106 81.5414 24.1186C81.8507 23.9159 82.096 23.6493 82.2774 23.3186C82.4587 22.9773 82.5494 22.5879 82.5494 22.1506V20.3106C82.5494 19.6813 82.4214 19.2279 82.1654 18.9506C81.9094 18.6626 81.4774 18.5186 80.8694 18.5186C80.5174 18.5186 80.1547 18.5666 79.7814 18.6626C79.408 18.7586 79.0187 18.9079 78.6134 19.1106C78.4534 19.1853 78.3147 19.2119 78.1974 19.1906C78.08 19.1586 77.984 19.0946 77.9094 18.9986C77.8454 18.8919 77.808 18.7799 77.7974 18.6626C77.7974 18.5346 77.824 18.4119 77.8774 18.2946C77.9414 18.1773 78.048 18.0919 78.1974 18.0386C78.6667 17.8039 79.1307 17.6386 79.5894 17.5426C80.0587 17.4359 80.496 17.3826 80.9014 17.3826C81.5947 17.3826 82.1654 17.4946 82.6134 17.7186C83.0614 17.9319 83.3974 18.2679 83.6214 18.7266C83.8454 19.1746 83.9574 19.7506 83.9574 20.4546V24.6786C83.9574 24.9239 83.8987 25.1106 83.7814 25.2386C83.664 25.3666 83.4934 25.4306 83.2694 25.4306C83.056 25.4306 82.8854 25.3666 82.7574 25.2386C82.64 25.1106 82.5814 24.9239 82.5814 24.6786V23.5426H82.7254C82.64 23.9373 82.48 24.2786 82.2454 24.5666C82.0107 24.8546 81.7174 25.0786 81.3654 25.2386C81.024 25.3879 80.6347 25.4626 80.1974 25.4626ZM86.6486 25.4306C86.4246 25.4306 86.2486 25.3666 86.1206 25.2386C85.9926 25.1106 85.9286 24.9239 85.9286 24.6786V18.1506C85.9286 17.9053 85.9926 17.7239 86.1206 17.6066C86.2486 17.4786 86.4246 17.4146 86.6486 17.4146C86.8726 17.4146 87.0433 17.4786 87.1606 17.6066C87.2886 17.7239 87.3526 17.9053 87.3526 18.1506V19.4626L87.1766 19.2226C87.4006 18.6146 87.7633 18.1559 88.2646 17.8466C88.7766 17.5373 89.358 17.3826 90.0086 17.3826C90.638 17.3826 91.1553 17.4946 91.5606 17.7186C91.966 17.9426 92.27 18.2839 92.4726 18.7426C92.6753 19.2013 92.7766 19.7826 92.7766 20.4866V24.6786C92.7766 24.9239 92.7126 25.1106 92.5846 25.2386C92.4673 25.3666 92.2913 25.4306 92.0566 25.4306C91.822 25.4306 91.6406 25.3666 91.5126 25.2386C91.3846 25.1106 91.3206 24.9239 91.3206 24.6786V20.5666C91.3206 19.8733 91.1873 19.3666 90.9206 19.0466C90.654 18.7266 90.2273 18.5666 89.6406 18.5666C88.958 18.5666 88.4086 18.7799 87.9926 19.2066C87.5873 19.6226 87.3846 20.1879 87.3846 20.9026V24.6786C87.3846 25.1799 87.1393 25.4306 86.6486 25.4306ZM97.7409 25.4626C97.0582 25.4626 96.4555 25.3026 95.9329 24.9826C95.4209 24.6519 95.0209 24.1826 94.7329 23.5746C94.4449 22.9559 94.3009 22.2359 94.3009 21.4146C94.3009 20.5826 94.4395 19.8679 94.7169 19.2706C95.0049 18.6626 95.4049 18.1986 95.9169 17.8786C96.4395 17.5479 97.0475 17.3826 97.7409 17.3826C98.4342 17.3826 99.0315 17.5586 99.5329 17.9106C100.034 18.2519 100.37 18.7106 100.541 19.2866H100.365V14.6626C100.365 14.4173 100.424 14.2359 100.541 14.1186C100.669 13.9906 100.85 13.9266 101.085 13.9266C101.32 13.9266 101.501 13.9906 101.629 14.1186C101.757 14.2359 101.821 14.4173 101.821 14.6626V24.6786C101.821 24.9239 101.757 25.1106 101.629 25.2386C101.501 25.3666 101.32 25.4306 101.085 25.4306C100.861 25.4306 100.685 25.3666 100.557 25.2386C100.429 25.1106 100.365 24.9239 100.365 24.6786V23.2226L100.541 23.5106C100.381 24.1079 100.045 24.5826 99.5329 24.9346C99.0315 25.2866 98.4342 25.4626 97.7409 25.4626ZM98.0769 24.3106C98.5462 24.3106 98.9515 24.1986 99.2929 23.9746C99.6449 23.7506 99.9115 23.4253 100.093 22.9986C100.285 22.5719 100.381 22.0439 100.381 21.4146C100.381 20.4759 100.173 19.7613 99.7569 19.2706C99.3409 18.7799 98.7809 18.5346 98.0769 18.5346C97.6182 18.5346 97.2129 18.6466 96.8609 18.8706C96.5195 19.0839 96.2529 19.4039 96.0609 19.8306C95.8689 20.2573 95.7729 20.7853 95.7729 21.4146C95.7729 22.3533 95.9809 23.0733 96.3969 23.5746C96.8235 24.0653 97.3835 24.3106 98.0769 24.3106Z" fill="white"/>
</svg>
