<svg width="414" height="55" viewBox="0 0 414 55" fill="none" xmlns="http://www.w3.org/2000/svg">
<rect y="0.972656" width="414" height="54" rx="27" fill="#E5682E"/>
<path d="M178.16 32.9727C177.904 32.9727 177.707 32.9033 177.568 32.7647C177.429 32.626 177.36 32.4287 177.36 32.1727V22.4927C177.36 22.2367 177.429 22.0393 177.568 21.9007C177.707 21.762 177.904 21.6927 178.16 21.6927H181.952C182.731 21.6927 183.392 21.81 183.936 22.0447C184.491 22.2793 184.912 22.6153 185.2 23.0527C185.488 23.49 185.632 24.018 185.632 24.6367C185.632 25.33 185.429 25.9113 185.024 26.3807C184.619 26.85 184.064 27.1647 183.36 27.3247V27.0847C184.149 27.1807 184.768 27.474 185.216 27.9647C185.675 28.4447 185.904 29.074 185.904 29.8527C185.904 30.8553 185.573 31.6287 184.912 32.1727C184.261 32.706 183.339 32.9727 182.144 32.9727H178.16ZM178.8 31.8047H181.984C182.816 31.8047 183.435 31.6447 183.84 31.3247C184.245 30.994 184.448 30.4927 184.448 29.8207C184.448 29.1487 184.245 28.6527 183.84 28.3327C183.435 28.0127 182.816 27.8527 181.984 27.8527H178.8V31.8047ZM178.8 26.6687H181.728C182.539 26.6687 183.147 26.5087 183.552 26.1887C183.968 25.858 184.176 25.3833 184.176 24.7647C184.176 24.146 183.968 23.6767 183.552 23.3567C183.147 23.026 182.539 22.8607 181.728 22.8607H178.8V26.6687ZM190.491 33.1167C189.862 33.1167 189.334 32.9993 188.907 32.7647C188.491 32.53 188.182 32.1833 187.979 31.7247C187.777 31.266 187.675 30.69 187.675 29.9967V25.8047C187.675 25.5593 187.734 25.378 187.851 25.2607C187.979 25.1327 188.161 25.0687 188.395 25.0687C188.63 25.0687 188.811 25.1327 188.939 25.2607C189.067 25.378 189.131 25.5593 189.131 25.8047V29.9967C189.131 30.658 189.265 31.1487 189.531 31.4687C189.798 31.778 190.219 31.9327 190.795 31.9327C191.435 31.9327 191.953 31.7193 192.347 31.2927C192.753 30.866 192.955 30.3007 192.955 29.5967V25.8047C192.955 25.5593 193.014 25.378 193.131 25.2607C193.259 25.1327 193.441 25.0687 193.675 25.0687C193.91 25.0687 194.091 25.1327 194.219 25.2607C194.347 25.378 194.411 25.5593 194.411 25.8047V32.3327C194.411 32.834 194.177 33.0847 193.707 33.0847C193.473 33.0847 193.291 33.0207 193.163 32.8927C193.046 32.7647 192.987 32.578 192.987 32.3327V30.9407L193.195 31.2127C192.982 31.8313 192.635 32.306 192.155 32.6367C191.686 32.9567 191.131 33.1167 190.491 33.1167ZM198.226 35.9647C198.056 35.9647 197.912 35.9167 197.794 35.8207C197.688 35.7353 197.624 35.6127 197.602 35.4527C197.592 35.3033 197.624 35.1433 197.698 34.9727L198.786 32.5087V33.1167L195.762 26.0767C195.688 25.8953 195.661 25.73 195.682 25.5807C195.704 25.4313 195.773 25.3087 195.89 25.2127C196.018 25.1167 196.189 25.0687 196.402 25.0687C196.584 25.0687 196.728 25.1113 196.834 25.1967C196.941 25.282 197.042 25.4313 197.138 25.6447L199.65 31.8367H199.202L201.762 25.6447C201.848 25.4313 201.949 25.282 202.066 25.1967C202.184 25.1113 202.344 25.0687 202.546 25.0687C202.728 25.0687 202.866 25.1167 202.962 25.2127C203.069 25.3087 203.133 25.4313 203.154 25.5807C203.176 25.73 203.144 25.89 203.058 26.0607L199.026 35.3887C198.92 35.6127 198.808 35.762 198.69 35.8367C198.584 35.922 198.429 35.9647 198.226 35.9647ZM208.952 33.0847C208.728 33.0847 208.552 33.0207 208.424 32.8927C208.296 32.7647 208.232 32.578 208.232 32.3327V25.8047C208.232 25.5593 208.296 25.378 208.424 25.2607C208.552 25.1327 208.728 25.0687 208.952 25.0687C209.176 25.0687 209.346 25.1327 209.464 25.2607C209.592 25.378 209.656 25.5593 209.656 25.8047V27.1167L209.48 26.8767C209.704 26.2687 210.066 25.81 210.568 25.5007C211.08 25.1913 211.661 25.0367 212.312 25.0367C212.941 25.0367 213.458 25.1487 213.864 25.3727C214.269 25.5967 214.573 25.938 214.776 26.3967C214.978 26.8553 215.08 27.4367 215.08 28.1407V32.3327C215.08 32.578 215.016 32.7647 214.888 32.8927C214.77 33.0207 214.594 33.0847 214.36 33.0847C214.125 33.0847 213.944 33.0207 213.816 32.8927C213.688 32.7647 213.624 32.578 213.624 32.3327V28.2207C213.624 27.5273 213.49 27.0207 213.224 26.7007C212.957 26.3807 212.53 26.2207 211.944 26.2207C211.261 26.2207 210.712 26.434 210.296 26.8607C209.89 27.2767 209.688 27.842 209.688 28.5567V32.3327C209.688 32.834 209.442 33.0847 208.952 33.0847ZM220.38 33.1167C219.612 33.1167 218.945 32.9513 218.38 32.6207C217.815 32.29 217.377 31.8207 217.068 31.2127C216.759 30.6047 216.604 29.89 216.604 29.0687C216.604 28.45 216.689 27.8953 216.86 27.4047C217.041 26.9033 217.297 26.4767 217.628 26.1247C217.959 25.7727 218.353 25.506 218.812 25.3247C219.281 25.1327 219.804 25.0367 220.38 25.0367C221.148 25.0367 221.815 25.202 222.38 25.5327C222.945 25.8633 223.383 26.3327 223.692 26.9407C224.001 27.538 224.156 28.2473 224.156 29.0687C224.156 29.6873 224.065 30.2473 223.884 30.7487C223.713 31.25 223.463 31.6767 223.132 32.0287C222.801 32.3807 222.401 32.6527 221.932 32.8447C221.473 33.026 220.956 33.1167 220.38 33.1167ZM220.38 31.9647C220.849 31.9647 221.255 31.8527 221.596 31.6287C221.948 31.4047 222.215 31.0793 222.396 30.6527C222.588 30.226 222.684 29.698 222.684 29.0687C222.684 28.13 222.476 27.4153 222.06 26.9247C221.644 26.434 221.084 26.1887 220.38 26.1887C219.921 26.1887 219.516 26.3007 219.164 26.5247C218.823 26.738 218.556 27.058 218.364 27.4847C218.172 27.9113 218.076 28.4393 218.076 29.0687C218.076 30.0073 218.284 30.7273 218.7 31.2287C219.127 31.7193 219.687 31.9647 220.38 31.9647ZM228.344 33.0847C228.141 33.0847 227.965 33.0367 227.816 32.9407C227.667 32.834 227.549 32.6633 227.464 32.4287L225.08 26.0767C225.005 25.874 224.984 25.698 225.016 25.5487C225.048 25.3993 225.123 25.282 225.24 25.1967C225.357 25.1113 225.512 25.0687 225.704 25.0687C225.885 25.0687 226.029 25.1113 226.136 25.1967C226.243 25.282 226.333 25.4367 226.408 25.6607L228.584 31.8047H228.2L230.44 25.6287C230.515 25.4367 230.611 25.298 230.728 25.2127C230.856 25.1167 231.011 25.0687 231.192 25.0687C231.384 25.0687 231.544 25.1167 231.672 25.2127C231.8 25.298 231.891 25.4367 231.944 25.6287L234.152 31.8047H233.784L235.992 25.6287C236.067 25.4153 236.163 25.2713 236.28 25.1967C236.397 25.1113 236.541 25.0687 236.712 25.0687C236.904 25.0687 237.048 25.1167 237.144 25.2127C237.24 25.3087 237.293 25.4367 237.304 25.5967C237.325 25.746 237.304 25.906 237.24 26.0767L234.856 32.4287C234.781 32.6527 234.664 32.818 234.504 32.9247C234.355 33.0313 234.179 33.0847 233.976 33.0847C233.773 33.0847 233.592 33.0313 233.432 32.9247C233.283 32.818 233.165 32.6527 233.08 32.4287L230.792 26.1567H231.528L229.24 32.4287C229.155 32.6527 229.037 32.818 228.888 32.9247C228.739 33.0313 228.557 33.0847 228.344 33.0847Z" fill="white"/>
</svg>
