<svg width="143" height="143" viewBox="0 0 143 143" fill="none" xmlns="http://www.w3.org/2000/svg">
<mask id="mask0_102_321" style="mask-type:luminance" maskUnits="userSpaceOnUse" x="21" y="42" width="101" height="60">
<path d="M118.977 42.1509H24.0873C22.8153 42.1509 21.7842 43.182 21.7842 44.454V99.2688C21.7842 100.541 22.8153 101.572 24.0873 101.572H118.977C120.249 101.572 121.28 100.541 121.28 99.2688V44.454C121.28 43.182 120.249 42.1509 118.977 42.1509Z" fill="white"/>
</mask>
<g mask="url(#mask0_102_321)">
<path d="M101.21 69.4054V64.4937H83.0433V85.5927C83.0433 86.583 83.8328 87.3839 84.8047 87.3839H101.208V82.4723H91.6696V78.3937H101.208V73.4821H91.6696V69.4034H101.21V69.4054Z" fill="#1F513F"/>
<path d="M84.3133 92.4997C84.2574 92.407 84.1643 92.407 84.1085 92.4997L83.2576 93.9103C83.2017 94.0032 83.2017 94.1565 83.2576 94.2512L84.1085 95.6618C84.1643 95.7546 84.2574 95.7546 84.3133 95.6618L85.1642 94.2512C85.22 94.1584 85.22 94.005 85.1642 93.9103L84.3133 92.4997Z" fill="#1F513F"/>
<path d="M56.1033 92.6854V95.4763C56.1033 97.0006 57.3228 98.2409 58.8218 98.2409H67.7701V95.732H58.8218C58.6858 95.732 58.5704 95.6146 58.5704 95.4763V92.6854C58.5704 92.5472 58.6858 92.4298 58.8218 92.4298H67.7701V89.9209H58.8218C57.3228 89.9209 56.1033 91.1611 56.1033 92.6854Z" fill="#1F513F"/>
<path d="M79.2395 89.9209H71.9742C70.4754 89.9209 69.2559 91.1611 69.2559 92.6854V95.4763C69.2559 97.0006 70.4754 98.2409 71.9742 98.2409H79.2395C80.7383 98.2409 81.9579 97.0006 81.9579 95.4763V92.6854C81.9579 91.1611 80.7383 89.9209 79.2395 89.9209ZM79.4909 95.4763C79.4909 95.6146 79.3754 95.732 79.2395 95.732H71.9742C71.8384 95.732 71.723 95.6146 71.723 95.4763V92.6854C71.723 92.5472 71.8384 92.4298 71.9742 92.4298H79.2395C79.3754 92.4298 79.4909 92.5472 79.4909 92.6854V95.4763Z" fill="#1F513F"/>
<path d="M110.633 89.9209H100.65V101.571H103.117V98.2409H110.633C112.132 98.2409 113.352 97.0006 113.352 95.4763V92.6854C113.352 91.1611 112.132 89.9209 110.633 89.9209ZM110.885 95.4763C110.885 95.6146 110.769 95.732 110.633 95.732H103.117V92.4298H110.633C110.769 92.4298 110.885 92.5472 110.885 92.6854V95.4763Z" fill="#1F513F"/>
<path d="M104.722 87.3857H111.631C112.581 87.3857 113.352 86.6019 113.352 85.6362V64.4937H104.724V87.3857H104.722Z" fill="#1F513F"/>
<path d="M89.8711 56.1002L76.0053 43.7907L75.9941 43.8021L74.1917 42.1509L45.384 71.4979L42.0549 64.492H44.6933L36.175 48.1457L27.8522 64.4939H30.4905L24.8806 75.9533L28.4182 75.957L21.7842 89.9214L53.0124 98.2414L46.8755 84.1085L56.1013 71.6436V87.3974H64.7331V81.4027H67.4162L71.425 87.3992H81.1088L76.1282 79.9503L79.528 76.4929V64.5091H70.9017L64.7387 67.6976V65.4199C64.7387 64.9161 64.3385 64.5091 63.8433 64.5091H61.3873L74.944 46.1954L90.9715 60.8168L99.2328 51.658L109.781 60.8131H113.35L99.1211 48.1816L89.8711 56.1002ZM64.7387 72.6435L70.9017 69.4549V75.9533H64.735L64.7387 72.6435Z" fill="#1F513F"/>
<path d="M96.4456 89.9209H89.1804C87.6815 89.9209 86.4619 91.1611 86.4619 92.6854V95.4763C86.4619 97.0006 87.6815 98.2409 89.1804 98.2409H96.4456C97.9445 98.2409 99.1641 97.0006 99.1641 95.4763V92.6854C99.1641 91.1611 97.9445 89.9209 96.4456 89.9209ZM96.697 95.4763C96.697 95.6146 96.5816 95.732 96.4456 95.732H89.1804C89.0444 95.732 88.929 95.6146 88.929 95.4763V92.6854C88.929 92.5472 89.0444 92.4298 89.1804 92.4298H96.4456C96.5816 92.4298 96.697 92.5472 96.697 92.6854V95.4763Z" fill="#1F513F"/>
<path d="M119.448 66.5386V66.5254C119.448 65.9138 119.006 65.6279 118.325 65.6279H117.295V68.6063H117.936V67.4495H118.245L118.954 68.6063H119.623L118.848 67.3415C119.194 67.2317 119.448 66.9856 119.448 66.5386ZM118.818 66.5652C118.818 66.8511 118.643 67.0007 118.31 67.0007H117.936V66.1297H118.31C118.632 66.1297 118.818 66.2376 118.818 66.5519V66.5652Z" fill="#1F513F"/>
<path d="M118.31 64.1436C116.651 64.1436 115.342 65.4898 115.342 67.1636C115.342 68.864 116.666 70.1553 118.31 70.1553C119.969 70.1553 121.28 68.8488 121.28 67.1503C121.28 65.4765 119.997 64.1436 118.31 64.1436ZM118.31 69.6649C116.947 69.6649 115.877 68.6595 115.877 67.1636C115.877 65.6811 116.893 64.634 118.31 64.634C119.727 64.634 120.744 65.6678 120.744 67.1503C120.744 68.6329 119.688 69.6649 118.31 69.6649Z" fill="#1F513F"/>
</g>
</svg>
