<svg width="704" height="137" viewBox="0 0 704 137" fill="none" xmlns="http://www.w3.org/2000/svg">
<path d="M26.6554 52.7344C21.1044 52.7344 16.4075 51.6906 12.5645 49.603C8.76893 47.5155 5.87483 44.5502 3.88217 40.7073C1.88951 36.8643 0.893184 32.3096 0.893184 27.0433C0.893184 23.058 1.46252 19.476 2.60118 16.2972C3.78728 13.1184 5.47155 10.4141 7.65399 8.18423C9.88387 5.90691 12.5882 4.17519 15.767 2.98909C18.9457 1.75554 22.5515 1.13876 26.5842 1.13876C29.2411 1.13876 31.898 1.47087 34.5549 2.13509C37.2592 2.75187 39.7975 3.81936 42.1697 5.33758C42.9762 5.85946 43.4981 6.49996 43.7353 7.25907C44.02 8.01818 44.0674 8.80101 43.8777 9.60756C43.6879 10.3667 43.3321 11.0309 42.8102 11.6002C42.2883 12.1695 41.6241 12.5254 40.8175 12.6677C40.0584 12.81 39.2044 12.6203 38.2555 12.0984C36.4526 11.0546 34.626 10.2955 32.7757 9.82105C30.9254 9.34661 28.8616 9.10939 26.5842 9.10939C23.0734 9.10939 20.1081 9.82106 17.6884 11.2444C15.2688 12.6203 13.4422 14.6366 12.2086 17.2935C11.0225 19.9504 10.4295 23.2003 10.4295 27.0433C10.4295 32.879 11.8291 37.315 14.6283 40.3514C17.4275 43.3879 21.5789 44.9061 27.0824 44.9061C28.9802 44.9061 30.9017 44.7163 32.8469 44.3367C34.7921 43.9572 36.6899 43.4353 38.5402 42.7711L36.761 46.8276V31.6691H28.9327C27.7466 31.6691 26.8215 31.3607 26.1572 30.744C25.5405 30.1272 25.2321 29.2969 25.2321 28.2531C25.2321 27.1619 25.5405 26.3317 26.1572 25.7623C26.8215 25.193 27.7466 24.9083 28.9327 24.9083H40.6752C41.8613 24.9083 42.7627 25.2404 43.3795 25.9047C44.0437 26.5214 44.3758 27.4229 44.3758 28.609V45.9024C44.3758 46.9462 44.1623 47.8239 43.7353 48.5356C43.3558 49.2472 42.7153 49.7691 41.8138 50.1012C39.7263 50.8603 37.3304 51.5008 34.626 52.0227C31.9217 52.4971 29.2648 52.7344 26.6554 52.7344ZM68.3822 52.7344C64.4444 52.7344 61.0521 51.999 58.2054 50.5282C55.3588 49.0574 53.1526 46.9699 51.587 44.2656C50.0688 41.5613 49.3097 38.3588 49.3097 34.6581C49.3097 31.0524 50.045 27.8973 51.5158 25.193C53.034 22.4887 55.0978 20.3774 57.7073 18.8592C60.3642 17.2935 63.3769 16.5107 66.7454 16.5107C69.2125 16.5107 71.4187 16.914 73.3639 17.7205C75.3565 18.5271 77.0408 19.6895 78.4167 21.2077C79.84 22.7259 80.9075 24.5762 81.6192 26.7586C82.3783 28.8936 82.7578 31.3133 82.7578 34.0176C82.7578 34.8716 82.4495 35.5358 81.8327 36.0103C81.2633 36.4373 80.4331 36.6508 79.3419 36.6508H56.4975V31.5268H76.4952L75.3565 32.5943C75.3565 30.4119 75.0244 28.5853 74.3602 27.1145C73.7434 25.6437 72.8183 24.5288 71.5847 23.7697C70.3986 22.9631 68.9041 22.5598 67.1012 22.5598C65.1086 22.5598 63.4006 23.0343 61.9773 23.9832C60.6014 24.8846 59.5339 26.1893 58.7748 27.8973C58.0631 29.5579 57.7073 31.5505 57.7073 33.8753V34.3734C57.7073 38.2639 58.6087 41.1817 60.4116 43.1269C62.2619 45.0247 64.9663 45.9736 68.5246 45.9736C69.7581 45.9736 71.134 45.8312 72.6522 45.5466C74.2179 45.2145 75.6886 44.6688 77.0645 43.9097C78.0609 43.3404 78.9386 43.1032 79.6977 43.1981C80.4568 43.2455 81.0498 43.5065 81.4768 43.9809C81.9513 44.4553 82.236 45.0484 82.3308 45.7601C82.4257 46.4243 82.2834 47.1122 81.9038 47.8239C81.5717 48.5356 80.9787 49.1523 80.1247 49.6742C78.4641 50.718 76.5426 51.5008 74.3602 52.0227C72.2252 52.4971 70.2326 52.7344 68.3822 52.7344ZM102.758 52.7344C99.6745 52.7344 97.0888 52.2125 95.0012 51.1687C92.9611 50.1249 91.4429 48.6067 90.4466 46.6141C89.4503 44.574 88.9521 42.0594 88.9521 39.0704V23.912H85.2514C84.1128 23.912 83.2351 23.6273 82.6183 23.058C82.0015 22.4412 81.6931 21.6109 81.6931 20.5672C81.6931 19.476 82.0015 18.6457 82.6183 18.0764C83.2351 17.507 84.1128 17.2224 85.2514 17.2224H88.9521V10.7462C88.9521 9.27545 89.3316 8.16051 90.0908 7.4014C90.8973 6.64229 92.0122 6.26274 93.4356 6.26274C94.8589 6.26274 95.9501 6.64229 96.7092 7.4014C97.4683 8.16051 97.8479 9.27545 97.8479 10.7462V17.2224H105.392C106.53 17.2224 107.408 17.507 108.025 18.0764C108.641 18.6457 108.95 19.476 108.95 20.5672C108.95 21.6109 108.641 22.4412 108.025 23.058C107.408 23.6273 106.53 23.912 105.392 23.912H97.8479V38.5723C97.8479 40.8496 98.3461 42.5576 99.3424 43.6962C100.339 44.8349 101.952 45.4042 104.182 45.4042C104.988 45.4042 105.7 45.3331 106.317 45.1907C106.933 45.0484 107.479 44.9535 107.954 44.9061C108.523 44.8586 108.997 45.0484 109.377 45.4754C109.756 45.855 109.946 46.6615 109.946 47.8951C109.946 48.8439 109.78 49.6979 109.448 50.457C109.163 51.1687 108.618 51.6669 107.811 51.9515C107.194 52.1413 106.388 52.3074 105.392 52.4497C104.395 52.6395 103.517 52.7344 102.758 52.7344ZM146.26 52.592C144.979 52.592 143.936 52.2836 143.129 51.6669C142.37 51.0501 141.753 50.0775 141.279 48.7491L126.405 6.68974C125.883 5.17152 125.978 3.89053 126.69 2.84675C127.449 1.80298 128.706 1.28109 130.462 1.28109C131.743 1.28109 132.739 1.58948 133.451 2.20626C134.162 2.77559 134.732 3.70075 135.159 4.98175L147.968 42.9846H145.122L158.501 5.05291C158.976 3.77192 159.569 2.82303 160.28 2.20626C160.992 1.58948 161.917 1.28109 163.056 1.28109C164.194 1.28109 165.096 1.58948 165.76 2.20626C166.424 2.82303 166.994 3.79564 167.468 5.12408L180.42 42.9846H177.93L190.953 4.98175C191.38 3.74819 191.949 2.82303 192.661 2.20626C193.373 1.58948 194.345 1.28109 195.579 1.28109C197.097 1.28109 198.212 1.80298 198.924 2.84675C199.635 3.89053 199.73 5.17152 199.208 6.68974L184.192 48.8202C183.718 50.1012 183.101 51.0501 182.342 51.6669C181.583 52.2836 180.563 52.592 179.282 52.592C178.001 52.592 176.981 52.2836 176.222 51.6669C175.462 51.0501 174.846 50.0775 174.371 48.7491L161.988 13.4505H163.625L151.1 48.8202C150.625 50.1012 150.009 51.0501 149.249 51.6669C148.538 52.2836 147.541 52.592 146.26 52.592ZM215.561 52.7344C211.955 52.7344 208.824 51.999 206.167 50.5282C203.51 49.0574 201.446 46.9699 199.975 44.2656C198.505 41.5138 197.769 38.2876 197.769 34.5869C197.769 31.7877 198.173 29.2969 198.979 27.1145C199.833 24.8846 201.043 22.9868 202.609 21.4212C204.174 19.8081 206.048 18.5982 208.231 17.7917C210.413 16.9377 212.857 16.5107 215.561 16.5107C219.167 16.5107 222.298 17.2461 224.955 18.7169C227.612 20.1876 229.676 22.2752 231.146 24.9795C232.617 27.6838 233.353 30.8863 233.353 34.5869C233.353 37.3862 232.926 39.9007 232.072 42.1306C231.265 44.3605 230.079 46.282 228.513 47.8951C226.948 49.4607 225.073 50.6705 222.891 51.5245C220.709 52.3311 218.265 52.7344 215.561 52.7344ZM215.561 45.9736C217.316 45.9736 218.858 45.5466 220.187 44.6926C221.515 43.8386 222.535 42.5813 223.247 40.9208C224.006 39.2128 224.386 37.1015 224.386 34.5869C224.386 30.7914 223.579 27.9685 221.966 26.1182C220.353 24.2204 218.218 23.2715 215.561 23.2715C213.805 23.2715 212.264 23.6985 210.935 24.5525C209.607 25.359 208.563 26.6163 207.804 28.3243C207.092 29.9849 206.736 32.0724 206.736 34.5869C206.736 38.335 207.543 41.1817 209.156 43.1269C210.769 45.0247 212.904 45.9736 215.561 45.9736ZM253.718 52.7344C250.113 52.7344 246.981 51.999 244.324 50.5282C241.667 49.0574 239.604 46.9699 238.133 44.2656C236.662 41.5138 235.927 38.2876 235.927 34.5869C235.927 31.7877 236.33 29.2969 237.137 27.1145C237.991 24.8846 239.2 22.9868 240.766 21.4212C242.332 19.8081 244.206 18.5982 246.388 17.7917C248.571 16.9377 251.014 16.5107 253.718 16.5107C257.324 16.5107 260.455 17.2461 263.112 18.7169C265.769 20.1876 267.833 22.2752 269.304 24.9795C270.775 27.6838 271.51 30.8863 271.51 34.5869C271.51 37.3862 271.083 39.9007 270.229 42.1306C269.422 44.3605 268.236 46.282 266.671 47.8951C265.105 49.4607 263.231 50.6705 261.048 51.5245C258.866 52.3311 256.423 52.7344 253.718 52.7344ZM253.718 45.9736C255.474 45.9736 257.016 45.5466 258.344 44.6926C259.673 43.8386 260.693 42.5813 261.404 40.9208C262.163 39.2128 262.543 37.1015 262.543 34.5869C262.543 30.7914 261.736 27.9685 260.123 26.1182C258.51 24.2204 256.375 23.2715 253.718 23.2715C251.963 23.2715 250.421 23.6985 249.093 24.5525C247.764 25.359 246.72 26.6163 245.961 28.3243C245.25 29.9849 244.894 32.0724 244.894 34.5869C244.894 38.335 245.7 41.1817 247.313 43.1269C248.926 45.0247 251.061 45.9736 253.718 45.9736ZM287.89 52.7344C283.953 52.7344 280.987 51.6194 278.995 49.3896C277.002 47.1122 276.006 43.7911 276.006 39.4263V5.76457C276.006 4.2938 276.385 3.17886 277.144 2.41976C277.903 1.66065 278.995 1.28109 280.418 1.28109C281.841 1.28109 282.932 1.66065 283.692 2.41976C284.498 3.17886 284.901 4.2938 284.901 5.76457V38.9993C284.901 41.1817 285.352 42.7948 286.254 43.8386C287.202 44.8823 288.531 45.4042 290.239 45.4042C290.618 45.4042 290.974 45.4042 291.306 45.4042C291.639 45.3568 291.971 45.3093 292.303 45.2619C292.967 45.167 293.418 45.3568 293.655 45.8312C293.892 46.2582 294.011 47.1597 294.011 48.5356C294.011 49.7217 293.774 50.6468 293.299 51.311C292.825 51.9753 292.042 52.3785 290.951 52.5209C290.476 52.5683 289.978 52.6158 289.456 52.6632C288.934 52.7106 288.412 52.7344 287.89 52.7344ZM297.237 52.592C296.098 52.592 295.173 52.3311 294.462 51.8092C293.797 51.2873 293.394 50.5994 293.252 49.7454C293.109 48.8439 293.276 47.8476 293.75 46.7564L312.538 5.12408C313.155 3.74819 313.89 2.77559 314.744 2.20626C315.645 1.58948 316.666 1.28109 317.804 1.28109C318.895 1.28109 319.868 1.58948 320.722 2.20626C321.623 2.77559 322.383 3.74819 322.999 5.12408L341.858 46.7564C342.38 47.8476 342.57 48.8439 342.428 49.7454C342.285 50.6468 341.882 51.3585 341.218 51.8804C340.554 52.3548 339.676 52.592 338.585 52.592C337.256 52.592 336.213 52.2836 335.453 51.6669C334.742 51.0027 334.101 50.0063 333.532 48.6779L328.906 37.9318L332.749 40.4226H302.717L306.56 37.9318L302.005 48.6779C301.388 50.0538 300.748 51.0501 300.084 51.6669C299.42 52.2836 298.471 52.592 297.237 52.592ZM317.662 11.7425L307.699 35.4409L305.848 33.1636H329.618L327.839 35.4409L317.804 11.7425H317.662ZM350.408 52.5209C348.985 52.5209 347.894 52.0939 347.135 51.2399C346.376 50.3859 345.996 49.1998 345.996 47.6816V21.5635C345.996 19.9978 346.376 18.8117 347.135 18.0052C347.894 17.1512 348.985 16.7242 350.408 16.7242C351.832 16.7242 352.923 17.1512 353.682 18.0052C354.489 18.8117 354.892 19.9978 354.892 21.5635V47.6816C354.892 49.1998 354.512 50.3859 353.753 51.2399C352.994 52.0939 351.879 52.5209 350.408 52.5209ZM350.408 10.1057C348.748 10.1057 347.443 9.70245 346.494 8.8959C345.593 8.0419 345.142 6.87951 345.142 5.40874C345.142 3.89053 345.593 2.72814 346.494 1.92159C347.443 1.11504 348.748 0.711765 350.408 0.711765C352.116 0.711765 353.421 1.11504 354.323 1.92159C355.224 2.72814 355.675 3.89053 355.675 5.40874C355.675 6.87951 355.224 8.0419 354.323 8.8959C353.421 9.70245 352.116 10.1057 350.408 10.1057ZM374.668 52.7344C371.631 52.7344 368.951 51.999 366.626 50.5282C364.349 49.0574 362.569 46.9699 361.288 44.2656C360.007 41.5138 359.367 38.2876 359.367 34.5869C359.367 30.8389 360.007 27.6364 361.288 24.9795C362.569 22.2752 364.349 20.1876 366.626 18.7169C368.951 17.2461 371.631 16.5107 374.668 16.5107C377.562 16.5107 380.076 17.2224 382.211 18.6457C384.394 20.069 385.865 21.9431 386.624 24.2678H385.841V5.76457C385.841 4.2938 386.22 3.17886 386.98 2.41976C387.739 1.66065 388.83 1.28109 390.253 1.28109C391.677 1.28109 392.768 1.66065 393.527 2.41976C394.333 3.17886 394.737 4.2938 394.737 5.76457V48.0374C394.737 49.5082 394.357 50.6468 393.598 51.4534C392.839 52.2125 391.748 52.592 390.324 52.592C388.901 52.592 387.81 52.2125 387.051 51.4534C386.292 50.6468 385.912 49.5082 385.912 48.0374V42.4864L386.695 44.6214C385.983 47.0885 384.536 49.0574 382.354 50.5282C380.171 51.999 377.609 52.7344 374.668 52.7344ZM377.159 45.9736C378.914 45.9736 380.456 45.5466 381.784 44.6926C383.113 43.8386 384.133 42.5813 384.845 40.9208C385.604 39.2128 385.983 37.1015 385.983 34.5869C385.983 30.7914 385.177 27.9685 383.564 26.1182C381.95 24.2204 379.815 23.2715 377.159 23.2715C375.403 23.2715 373.861 23.6985 372.533 24.5525C371.204 25.359 370.161 26.6163 369.401 28.3243C368.69 29.9849 368.334 32.0724 368.334 34.5869C368.334 38.335 369.14 41.1817 370.754 43.1269C372.367 45.0247 374.502 45.9736 377.159 45.9736ZM423.281 52.0227C421.715 52.0227 420.506 51.6194 419.652 50.8129C418.845 49.9589 418.442 48.7491 418.442 47.1834V6.68974C418.442 5.12408 418.845 3.93797 419.652 3.13142C420.506 2.27742 421.715 1.85042 423.281 1.85042H437.087C445.485 1.85042 451.961 4.00914 456.516 8.32656C461.118 12.644 463.419 18.8355 463.419 26.901C463.419 30.9337 462.826 34.5158 461.64 37.6471C460.501 40.731 458.793 43.3404 456.516 45.4754C454.286 47.6104 451.534 49.2472 448.26 50.3859C445.034 51.4771 441.31 52.0227 437.087 52.0227H423.281ZM427.551 44.4791H436.518C439.46 44.4791 441.998 44.1232 444.133 43.4116C446.315 42.6525 448.118 41.5613 449.541 40.1379C451.012 38.6672 452.103 36.8405 452.815 34.6581C453.527 32.4282 453.883 29.8425 453.883 26.901C453.883 21.0179 452.436 16.6293 449.541 13.7352C446.647 10.8411 442.306 9.39406 436.518 9.39406H427.551V44.4791ZM486.101 52.7344C482.163 52.7344 478.771 51.999 475.924 50.5282C473.077 49.0574 470.871 46.9699 469.306 44.2656C467.787 41.5613 467.028 38.3588 467.028 34.6581C467.028 31.0524 467.764 27.8973 469.234 25.193C470.753 22.4887 472.817 20.3774 475.426 18.8592C478.083 17.2935 481.096 16.5107 484.464 16.5107C486.931 16.5107 489.137 16.914 491.083 17.7205C493.075 18.5271 494.759 19.6895 496.135 21.2077C497.559 22.7259 498.626 24.5762 499.338 26.7586C500.097 28.8936 500.477 31.3133 500.477 34.0176C500.477 34.8716 500.168 35.5358 499.551 36.0103C498.982 36.4373 498.152 36.6508 497.061 36.6508H474.216V31.5268H494.214L493.075 32.5943C493.075 30.4119 492.743 28.5853 492.079 27.1145C491.462 25.6437 490.537 24.5288 489.303 23.7697C488.117 22.9631 486.623 22.5598 484.82 22.5598C482.827 22.5598 481.119 23.0343 479.696 23.9832C478.32 24.8846 477.253 26.1893 476.493 27.8973C475.782 29.5579 475.426 31.5505 475.426 33.8753V34.3734C475.426 38.2639 476.327 41.1817 478.13 43.1269C479.981 45.0247 482.685 45.9736 486.243 45.9736C487.477 45.9736 488.853 45.8312 490.371 45.5466C491.937 45.2145 493.407 44.6688 494.783 43.9097C495.78 43.3404 496.657 43.1032 497.416 43.1981C498.175 43.2455 498.769 43.5065 499.196 43.9809C499.67 44.4553 499.955 45.0484 500.05 45.7601C500.144 46.4243 500.002 47.1122 499.623 47.8239C499.29 48.5356 498.697 49.1523 497.843 49.6742C496.183 50.718 494.261 51.5008 492.079 52.0227C489.944 52.4971 487.951 52.7344 486.101 52.7344ZM516.56 52.7344C512.622 52.7344 509.656 51.6194 507.664 49.3896C505.671 47.1122 504.675 43.7911 504.675 39.4263V5.76457C504.675 4.2938 505.054 3.17886 505.813 2.41976C506.573 1.66065 507.664 1.28109 509.087 1.28109C510.51 1.28109 511.602 1.66065 512.361 2.41976C513.167 3.17886 513.571 4.2938 513.571 5.76457V38.9993C513.571 41.1817 514.021 42.7948 514.923 43.8386C515.872 44.8823 517.2 45.4042 518.908 45.4042C519.288 45.4042 519.643 45.4042 519.976 45.4042C520.308 45.3568 520.64 45.3093 520.972 45.2619C521.636 45.167 522.087 45.3568 522.324 45.8312C522.561 46.2582 522.68 47.1597 522.68 48.5356C522.68 49.7217 522.443 50.6468 521.968 51.311C521.494 51.9753 520.711 52.3785 519.62 52.5209C519.145 52.5683 518.647 52.6158 518.125 52.6632C517.603 52.7106 517.081 52.7344 516.56 52.7344ZM528.966 52.5209C527.543 52.5209 526.452 52.0939 525.693 51.2399C524.934 50.3859 524.554 49.1998 524.554 47.6816V21.5635C524.554 19.9978 524.934 18.8117 525.693 18.0052C526.452 17.1512 527.543 16.7242 528.966 16.7242C530.39 16.7242 531.481 17.1512 532.24 18.0052C533.047 18.8117 533.45 19.9978 533.45 21.5635V47.6816C533.45 49.1998 533.07 50.3859 532.311 51.2399C531.552 52.0939 530.437 52.5209 528.966 52.5209ZM528.966 10.1057C527.306 10.1057 526.001 9.70245 525.052 8.8959C524.151 8.0419 523.7 6.87951 523.7 5.40874C523.7 3.89053 524.151 2.72814 525.052 1.92159C526.001 1.11504 527.306 0.711765 528.966 0.711765C530.674 0.711765 531.979 1.11504 532.881 1.92159C533.782 2.72814 534.233 3.89053 534.233 5.40874C534.233 6.87951 533.782 8.0419 532.881 8.8959C531.979 9.70245 530.674 10.1057 528.966 10.1057ZM553.937 52.592C552.751 52.592 551.708 52.2836 550.806 51.6669C549.952 51.0501 549.24 50.1012 548.671 48.8202L537.356 22.5598C536.929 21.5161 536.763 20.5435 536.858 19.642C537 18.7406 537.427 18.0289 538.139 17.507C538.898 16.9377 539.918 16.653 541.199 16.653C542.29 16.653 543.168 16.914 543.832 17.4359C544.496 17.9103 545.089 18.8355 545.611 20.2113L555.218 44.1944H553.083L562.976 20.1402C563.497 18.8117 564.091 17.9103 564.755 17.4359C565.466 16.914 566.415 16.653 567.601 16.653C568.645 16.653 569.475 16.9377 570.092 17.507C570.709 18.0289 571.089 18.7406 571.231 19.642C571.373 20.496 571.207 21.4449 570.733 22.4887L559.204 48.8202C558.682 50.1012 557.97 51.0501 557.069 51.6669C556.215 52.2836 555.171 52.592 553.937 52.592ZM590.985 52.7344C587.047 52.7344 583.655 51.999 580.808 50.5282C577.962 49.0574 575.756 46.9699 574.19 44.2656C572.672 41.5613 571.913 38.3588 571.913 34.6581C571.913 31.0524 572.648 27.8973 574.119 25.193C575.637 22.4887 577.701 20.3774 580.31 18.8592C582.967 17.2935 585.98 16.5107 589.348 16.5107C591.815 16.5107 594.022 16.914 595.967 17.7205C597.959 18.5271 599.644 19.6895 601.02 21.2077C602.443 22.7259 603.51 24.5762 604.222 26.7586C604.981 28.8936 605.361 31.3133 605.361 34.0176C605.361 34.8716 605.052 35.5358 604.436 36.0103C603.866 36.4373 603.036 36.6508 601.945 36.6508H579.1V31.5268H599.098L597.959 32.5943C597.959 30.4119 597.627 28.5853 596.963 27.1145C596.346 25.6437 595.421 24.5288 594.188 23.7697C593.002 22.9631 591.507 22.5598 589.704 22.5598C587.712 22.5598 586.004 23.0343 584.58 23.9832C583.204 24.8846 582.137 26.1893 581.378 27.8973C580.666 29.5579 580.31 31.5505 580.31 33.8753V34.3734C580.31 38.2639 581.212 41.1817 583.015 43.1269C584.865 45.0247 587.569 45.9736 591.127 45.9736C592.361 45.9736 593.737 45.8312 595.255 45.5466C596.821 45.2145 598.292 44.6688 599.667 43.9097C600.664 43.3404 601.541 43.1032 602.301 43.1981C603.06 43.2455 603.653 43.5065 604.08 43.9809C604.554 44.4553 604.839 45.0484 604.934 45.7601C605.029 46.4243 604.886 47.1122 604.507 47.8239C604.175 48.5356 603.582 49.1523 602.728 49.6742C601.067 50.718 599.146 51.5008 596.963 52.0227C594.828 52.4971 592.835 52.7344 590.985 52.7344ZM614.114 52.592C612.643 52.592 611.504 52.2125 610.698 51.4534C609.938 50.6468 609.559 49.5082 609.559 48.0374V21.1365C609.559 19.6657 609.938 18.5508 610.698 17.7917C611.457 17.0326 612.524 16.653 613.9 16.653C615.276 16.653 616.343 17.0326 617.103 17.7917C617.862 18.5508 618.241 19.6657 618.241 21.1365V25.62H617.53C618.194 22.7733 619.498 20.6146 621.444 19.1438C623.389 17.6731 625.975 16.7954 629.201 16.5107C630.197 16.4158 630.98 16.6767 631.549 17.2935C632.166 17.8629 632.522 18.7643 632.617 19.9978C632.712 21.184 632.427 22.1566 631.763 22.9157C631.146 23.6273 630.197 24.0543 628.916 24.1967L627.351 24.339C624.456 24.6237 622.274 25.5251 620.803 27.0433C619.332 28.5141 618.597 30.6016 618.597 33.306V48.0374C618.597 49.5082 618.217 50.6468 617.458 51.4534C616.699 52.2125 615.584 52.592 614.114 52.592ZM651.176 52.7344C647.238 52.7344 643.846 51.999 641 50.5282C638.153 49.0574 635.947 46.9699 634.381 44.2656C632.863 41.5613 632.104 38.3588 632.104 34.6581C632.104 31.0524 632.839 27.8973 634.31 25.193C635.828 22.4887 637.892 20.3774 640.501 18.8592C643.158 17.2935 646.171 16.5107 649.539 16.5107C652.007 16.5107 654.213 16.914 656.158 17.7205C658.151 18.5271 659.835 19.6895 661.211 21.2077C662.634 22.7259 663.702 24.5762 664.413 26.7586C665.172 28.8936 665.552 31.3133 665.552 34.0176C665.552 34.8716 665.244 35.5358 664.627 36.0103C664.057 36.4373 663.227 36.6508 662.136 36.6508H639.292V31.5268H659.289L658.151 32.5943C658.151 30.4119 657.819 28.5853 657.154 27.1145C656.538 25.6437 655.612 24.5288 654.379 23.7697C653.193 22.9631 651.698 22.5598 649.895 22.5598C647.903 22.5598 646.195 23.0343 644.771 23.9832C643.395 24.8846 642.328 26.1893 641.569 27.8973C640.857 29.5579 640.501 31.5505 640.501 33.8753V34.3734C640.501 38.2639 641.403 41.1817 643.206 43.1269C645.056 45.0247 647.76 45.9736 651.319 45.9736C652.552 45.9736 653.928 45.8312 655.446 45.5466C657.012 45.2145 658.483 44.6688 659.859 43.9097C660.855 43.3404 661.733 43.1032 662.492 43.1981C663.251 43.2455 663.844 43.5065 664.271 43.9809C664.745 44.4553 665.03 45.0484 665.125 45.7601C665.22 46.4243 665.077 47.1122 664.698 47.8239C664.366 48.5356 663.773 49.1523 662.919 49.6742C661.258 50.718 659.337 51.5008 657.154 52.0227C655.019 52.4971 653.027 52.7344 651.176 52.7344ZM683.129 52.7344C680.093 52.7344 677.412 51.999 675.088 50.5282C672.81 49.0574 671.031 46.9699 669.75 44.2656C668.469 41.5138 667.829 38.2876 667.829 34.5869C667.829 30.8389 668.469 27.6364 669.75 24.9795C671.031 22.2752 672.81 20.1876 675.088 18.7169C677.412 17.2461 680.093 16.5107 683.129 16.5107C686.023 16.5107 688.538 17.2224 690.673 18.6457C692.855 20.069 694.326 21.9431 695.085 24.2678H694.302V5.76457C694.302 4.2938 694.682 3.17886 695.441 2.41976C696.2 1.66065 697.291 1.28109 698.715 1.28109C700.138 1.28109 701.229 1.66065 701.988 2.41976C702.795 3.17886 703.198 4.2938 703.198 5.76457V48.0374C703.198 49.5082 702.819 50.6468 702.06 51.4534C701.3 52.2125 700.209 52.592 698.786 52.592C697.363 52.592 696.271 52.2125 695.512 51.4534C694.753 50.6468 694.374 49.5082 694.374 48.0374V42.4864L695.156 44.6214C694.445 47.0885 692.998 49.0574 690.815 50.5282C688.633 51.999 686.071 52.7344 683.129 52.7344ZM685.62 45.9736C687.376 45.9736 688.918 45.5466 690.246 44.6926C691.574 43.8386 692.594 42.5813 693.306 40.9208C694.065 39.2128 694.445 37.1015 694.445 34.5869C694.445 30.7914 693.638 27.9685 692.025 26.1182C690.412 24.2204 688.277 23.2715 685.62 23.2715C683.865 23.2715 682.323 23.6985 680.994 24.5525C679.666 25.359 678.622 26.6163 677.863 28.3243C677.151 29.9849 676.796 32.0724 676.796 34.5869C676.796 38.335 677.602 41.1817 679.215 43.1269C680.828 45.0247 682.963 45.9736 685.62 45.9736ZM108.08 123.592C106.609 123.592 105.47 123.189 104.664 122.382C103.905 121.528 103.525 120.366 103.525 118.895V80.4652H89.6476C88.4141 80.4652 87.4415 80.1331 86.7298 79.4689C86.0656 78.7572 85.7335 77.8083 85.7335 76.6222C85.7335 75.3887 86.0656 74.4635 86.7298 73.8468C87.4415 73.1825 88.4141 72.8504 89.6476 72.8504H126.512C127.745 72.8504 128.694 73.1825 129.358 73.8468C130.07 74.4635 130.426 75.3887 130.426 76.6222C130.426 77.8083 130.07 78.7572 129.358 79.4689C128.694 80.1331 127.745 80.4652 126.512 80.4652H112.634V118.895C112.634 120.366 112.255 121.528 111.496 122.382C110.737 123.189 109.598 123.592 108.08 123.592ZM142.237 123.734C138.632 123.734 135.5 122.999 132.843 121.528C130.187 120.057 128.123 117.97 126.652 115.266C125.181 112.514 124.446 109.288 124.446 105.587C124.446 102.788 124.849 100.297 125.656 98.1145C126.51 95.8846 127.719 93.9868 129.285 92.4212C130.851 90.8081 132.725 89.5982 134.907 88.7917C137.09 87.9377 139.533 87.5107 142.237 87.5107C145.843 87.5107 148.974 88.2461 151.631 89.7169C154.288 91.1876 156.352 93.2752 157.823 95.9795C159.294 98.6838 160.029 101.886 160.029 105.587C160.029 108.386 159.602 110.901 158.748 113.131C157.941 115.36 156.755 117.282 155.19 118.895C153.624 120.461 151.75 121.671 149.567 122.525C147.385 123.331 144.942 123.734 142.237 123.734ZM142.237 116.974C143.993 116.974 145.535 116.547 146.863 115.693C148.192 114.839 149.212 113.581 149.923 111.921C150.682 110.213 151.062 108.101 151.062 105.587C151.062 101.791 150.255 98.9685 148.642 97.1182C147.029 95.2204 144.894 94.2715 142.237 94.2715C140.482 94.2715 138.94 94.6985 137.612 95.5525C136.283 96.359 135.239 97.6163 134.48 99.3243C133.769 100.985 133.413 103.072 133.413 105.587C133.413 109.335 134.219 112.182 135.832 114.127C137.445 116.025 139.58 116.974 142.237 116.974ZM198.363 123.592C196.892 123.592 195.754 123.189 194.947 122.382C194.188 121.528 193.808 120.342 193.808 118.824V97.1893L195.73 102.669L178.579 78.5437C177.962 77.6897 177.677 76.7883 177.725 75.8394C177.82 74.8431 178.223 74.0128 178.935 73.3486C179.646 72.6369 180.643 72.2811 181.924 72.2811C182.873 72.2811 183.727 72.5183 184.486 72.9928C185.292 73.4672 186.051 74.2026 186.763 75.1989L199.502 93.2752H197.509L210.319 75.1989C211.078 74.1551 211.814 73.4198 212.525 72.9928C213.237 72.5183 214.115 72.2811 215.158 72.2811C216.392 72.2811 217.341 72.6132 218.005 73.2774C218.717 73.8942 219.073 74.677 219.073 75.6259C219.12 76.5748 218.788 77.5711 218.076 78.6149L201.067 102.669L202.918 97.1893V118.824C202.918 122.003 201.4 123.592 198.363 123.592ZM232.107 123.734C228.501 123.734 225.37 122.999 222.713 121.528C220.056 120.057 217.992 117.97 216.522 115.266C215.051 112.514 214.316 109.288 214.316 105.587C214.316 102.788 214.719 100.297 215.525 98.1145C216.379 95.8846 217.589 93.9868 219.155 92.4212C220.72 90.8081 222.595 89.5982 224.777 88.7917C226.959 87.9377 229.403 87.5107 232.107 87.5107C235.713 87.5107 238.844 88.2461 241.501 89.7169C244.158 91.1876 246.222 93.2752 247.693 95.9795C249.163 98.6838 249.899 101.886 249.899 105.587C249.899 108.386 249.472 110.901 248.618 113.131C247.811 115.36 246.625 117.282 245.059 118.895C243.494 120.461 241.62 121.671 239.437 122.525C237.255 123.331 234.811 123.734 232.107 123.734ZM232.107 116.974C233.863 116.974 235.404 116.547 236.733 115.693C238.061 114.839 239.081 113.581 239.793 111.921C240.552 110.213 240.932 108.101 240.932 105.587C240.932 101.791 240.125 98.9685 238.512 97.1182C236.899 95.2204 234.764 94.2715 232.107 94.2715C230.352 94.2715 228.81 94.6985 227.481 95.5525C226.153 96.359 225.109 97.6163 224.35 99.3243C223.638 100.985 223.282 103.072 223.282 105.587C223.282 109.335 224.089 112.182 225.702 114.127C227.315 116.025 229.45 116.974 232.107 116.974ZM266.991 123.734C264.097 123.734 261.701 123.212 259.803 122.169C257.905 121.077 256.482 119.464 255.533 117.329C254.632 115.194 254.181 112.538 254.181 109.359V92.1365C254.181 90.6183 254.56 89.5034 255.32 88.7917C256.079 88.0326 257.17 87.653 258.593 87.653C260.017 87.653 261.108 88.0326 261.867 88.7917C262.673 89.5034 263.077 90.6183 263.077 92.1365V109.501C263.077 111.968 263.575 113.795 264.571 114.981C265.568 116.167 267.157 116.76 269.339 116.76C271.712 116.76 273.657 115.954 275.175 114.34C276.693 112.68 277.452 110.497 277.452 107.793V92.1365C277.452 90.6183 277.832 89.5034 278.591 88.7917C279.35 88.0326 280.441 87.653 281.865 87.653C283.288 87.653 284.379 88.0326 285.138 88.7917C285.945 89.5034 286.348 90.6183 286.348 92.1365V119.037C286.348 122.074 284.901 123.592 282.007 123.592C280.631 123.592 279.564 123.212 278.804 122.453C278.045 121.647 277.666 120.508 277.666 119.037V113.629L278.662 115.764C277.666 118.326 276.148 120.295 274.108 121.671C272.115 123.046 269.743 123.734 266.991 123.734ZM297.315 123.592C295.844 123.592 294.706 123.212 293.899 122.453C293.14 121.647 292.76 120.508 292.76 119.037V92.1365C292.76 90.6657 293.14 89.5508 293.899 88.7917C294.658 88.0326 295.726 87.653 297.101 87.653C298.477 87.653 299.545 88.0326 300.304 88.7917C301.063 89.5508 301.443 90.6657 301.443 92.1365V96.62H300.731C301.395 93.7733 302.7 91.6146 304.645 90.1438C306.59 88.6731 309.176 87.7954 312.402 87.5107C313.399 87.4158 314.181 87.6767 314.751 88.2935C315.367 88.8629 315.723 89.7643 315.818 90.9978C315.913 92.184 315.628 93.1566 314.964 93.9157C314.347 94.6273 313.399 95.0543 312.118 95.1967L310.552 95.339C307.658 95.6237 305.475 96.5251 304.005 98.0433C302.534 99.5141 301.798 101.602 301.798 104.306V119.037C301.798 120.508 301.419 121.647 300.66 122.453C299.901 123.212 298.786 123.592 297.315 123.592ZM339.95 123.023C338.384 123.023 337.174 122.619 336.32 121.813C335.514 120.959 335.11 119.749 335.11 118.183V77.6897C335.11 76.1241 335.514 74.938 336.32 74.1314C337.174 73.2774 338.384 72.8504 339.95 72.8504H353.756C362.154 72.8504 368.63 75.0091 373.184 79.3266C377.786 83.644 380.088 89.8355 380.088 97.901C380.088 101.934 379.494 105.516 378.308 108.647C377.17 111.731 375.462 114.34 373.184 116.475C370.955 118.61 368.203 120.247 364.929 121.386C361.703 122.477 357.979 123.023 353.756 123.023H339.95ZM344.22 115.479H353.187C356.128 115.479 358.666 115.123 360.801 114.412C362.984 113.652 364.787 112.561 366.21 111.138C367.681 109.667 368.772 107.841 369.484 105.658C370.195 103.428 370.551 100.843 370.551 97.901C370.551 92.0179 369.104 87.6293 366.21 84.7352C363.316 81.8411 358.975 80.3941 353.187 80.3941H344.22V115.479ZM401.489 123.734C397.883 123.734 394.752 122.999 392.095 121.528C389.438 120.057 387.374 117.97 385.903 115.266C384.432 112.514 383.697 109.288 383.697 105.587C383.697 102.788 384.1 100.297 384.907 98.1145C385.761 95.8846 386.971 93.9868 388.536 92.4212C390.102 90.8081 391.976 89.5982 394.158 88.7917C396.341 87.9377 398.784 87.5107 401.489 87.5107C405.094 87.5107 408.226 88.2461 410.883 89.7169C413.539 91.1876 415.603 93.2752 417.074 95.9795C418.545 98.6838 419.28 101.886 419.28 105.587C419.28 108.386 418.853 110.901 417.999 113.131C417.193 115.36 416.007 117.282 414.441 118.895C412.875 120.461 411.001 121.671 408.819 122.525C406.636 123.331 404.193 123.734 401.489 123.734ZM401.489 116.974C403.244 116.974 404.786 116.547 406.114 115.693C407.443 114.839 408.463 113.581 409.175 111.921C409.934 110.213 410.313 108.101 410.313 105.587C410.313 101.791 409.507 98.9685 407.894 97.1182C406.28 95.2204 404.145 94.2715 401.489 94.2715C399.733 94.2715 398.191 94.6985 396.863 95.5525C395.534 96.359 394.491 97.6163 393.731 99.3243C393.02 100.985 392.664 103.072 392.664 105.587C392.664 109.335 393.471 112.182 395.084 114.127C396.697 116.025 398.832 116.974 401.489 116.974ZM439.646 123.734C436.04 123.734 432.909 122.999 430.252 121.528C427.595 120.057 425.531 117.97 424.061 115.266C422.59 112.514 421.854 109.288 421.854 105.587C421.854 102.788 422.258 100.297 423.064 98.1145C423.918 95.8846 425.128 93.9868 426.694 92.4212C428.259 90.8081 430.133 89.5982 432.316 88.7917C434.498 87.9377 436.942 87.5107 439.646 87.5107C443.252 87.5107 446.383 88.2461 449.04 89.7169C451.697 91.1876 453.761 93.2752 455.231 95.9795C456.702 98.6838 457.438 101.886 457.438 105.587C457.438 108.386 457.011 110.901 456.157 113.131C455.35 115.36 454.164 117.282 452.598 118.895C451.033 120.461 449.159 121.671 446.976 122.525C444.794 123.331 442.35 123.734 439.646 123.734ZM439.646 116.974C441.401 116.974 442.943 116.547 444.272 115.693C445.6 114.839 446.62 113.581 447.332 111.921C448.091 110.213 448.471 108.101 448.471 105.587C448.471 101.791 447.664 98.9685 446.051 97.1182C444.438 95.2204 442.303 94.2715 439.646 94.2715C437.891 94.2715 436.349 94.6985 435.02 95.5525C433.692 96.359 432.648 97.6163 431.889 99.3243C431.177 100.985 430.821 103.072 430.821 105.587C430.821 109.335 431.628 112.182 433.241 114.127C434.854 116.025 436.989 116.974 439.646 116.974ZM466.488 123.592C465.017 123.592 463.878 123.212 463.072 122.453C462.313 121.647 461.933 120.508 461.933 119.037V92.1365C461.933 90.6657 462.313 89.5508 463.072 88.7917C463.831 88.0326 464.899 87.653 466.274 87.653C467.65 87.653 468.718 88.0326 469.477 88.7917C470.236 89.5508 470.616 90.6657 470.616 92.1365V96.62H469.904C470.568 93.7733 471.873 91.6146 473.818 90.1438C475.763 88.6731 478.349 87.7954 481.575 87.5107C482.572 87.4158 483.354 87.6767 483.924 88.2935C484.54 88.8629 484.896 89.7643 484.991 90.9978C485.086 92.184 484.801 93.1566 484.137 93.9157C483.52 94.6273 482.572 95.0543 481.291 95.1967L479.725 95.339C476.831 95.6237 474.648 96.5251 473.178 98.0433C471.707 99.5141 470.971 101.602 470.971 104.306V119.037C470.971 120.508 470.592 121.647 469.833 122.453C469.074 123.212 467.959 123.592 466.488 123.592ZM499.347 123.734C497.307 123.734 495.148 123.521 492.871 123.094C490.593 122.667 488.553 121.931 486.75 120.888C485.991 120.413 485.446 119.868 485.113 119.251C484.829 118.587 484.71 117.946 484.758 117.329C484.853 116.665 485.09 116.096 485.469 115.621C485.896 115.147 486.418 114.839 487.035 114.696C487.699 114.554 488.411 114.673 489.17 115.052C491.068 115.954 492.847 116.594 494.507 116.974C496.168 117.306 497.805 117.472 499.418 117.472C501.695 117.472 503.38 117.092 504.471 116.333C505.609 115.527 506.179 114.483 506.179 113.202C506.179 112.111 505.799 111.28 505.04 110.711C504.328 110.094 503.237 109.643 501.766 109.359L494.65 108.007C491.708 107.437 489.455 106.37 487.889 104.804C486.371 103.191 485.612 101.127 485.612 98.6126C485.612 96.3353 486.228 94.3664 487.462 92.7058C488.743 91.0453 490.498 89.7643 492.728 88.8629C494.958 87.9614 497.52 87.5107 500.414 87.5107C502.502 87.5107 504.447 87.7479 506.25 88.2224C508.1 88.6494 509.879 89.3373 511.587 90.2862C512.299 90.6657 512.773 91.1639 513.011 91.7807C513.295 92.3975 513.367 93.0379 513.224 93.7022C513.082 94.3189 512.797 94.8883 512.37 95.4102C511.943 95.8846 511.398 96.193 510.733 96.3353C510.117 96.4302 509.405 96.2879 508.598 95.9083C507.128 95.1492 505.704 94.6036 504.328 94.2715C503 93.9394 501.719 93.7733 500.485 93.7733C498.161 93.7733 496.429 94.1766 495.29 94.9832C494.199 95.7897 493.653 96.8572 493.653 98.1856C493.653 99.182 493.986 100.012 494.65 100.676C495.314 101.341 496.334 101.791 497.71 102.029L504.827 103.381C507.91 103.95 510.235 104.994 511.801 106.512C513.414 108.03 514.221 110.07 514.221 112.632C514.221 116.096 512.868 118.824 510.164 120.817C507.46 122.762 503.854 123.734 499.347 123.734ZM534.104 123.734C531.02 123.734 528.435 123.212 526.347 122.169C524.307 121.125 522.789 119.607 521.793 117.614C520.796 115.574 520.298 113.059 520.298 110.07V94.912H516.597C515.459 94.912 514.581 94.6273 513.964 94.058C513.347 93.4412 513.039 92.6109 513.039 91.5672C513.039 90.476 513.347 89.6457 513.964 89.0764C514.581 88.507 515.459 88.2224 516.597 88.2224H520.298V81.7462C520.298 80.2754 520.678 79.1605 521.437 78.4014C522.243 77.6423 523.358 77.2627 524.782 77.2627C526.205 77.2627 527.296 77.6423 528.055 78.4014C528.814 79.1605 529.194 80.2754 529.194 81.7462V88.2224H536.737C537.876 88.2224 538.754 88.507 539.371 89.0764C539.987 89.6457 540.296 90.476 540.296 91.5672C540.296 92.6109 539.987 93.4412 539.371 94.058C538.754 94.6273 537.876 94.912 536.737 94.912H529.194V109.572C529.194 111.85 529.692 113.558 530.688 114.696C531.685 115.835 533.298 116.404 535.528 116.404C536.334 116.404 537.046 116.333 537.663 116.191C538.279 116.048 538.825 115.954 539.299 115.906C539.869 115.859 540.343 116.048 540.723 116.475C541.102 116.855 541.292 117.662 541.292 118.895C541.292 119.844 541.126 120.698 540.794 121.457C540.509 122.169 539.964 122.667 539.157 122.952C538.54 123.141 537.734 123.307 536.737 123.45C535.741 123.639 534.863 123.734 534.104 123.734ZM559.433 123.734C555.495 123.734 552.103 122.999 549.256 121.528C546.409 120.057 544.203 117.97 542.638 115.266C541.119 112.561 540.36 109.359 540.36 105.658C540.36 102.052 541.096 98.8973 542.566 96.193C544.085 93.4887 546.148 91.3774 548.758 89.8592C551.415 88.2935 554.427 87.5107 557.796 87.5107C560.263 87.5107 562.469 87.914 564.414 88.7205C566.407 89.5271 568.091 90.6895 569.467 92.2077C570.891 93.7259 571.958 95.5762 572.67 97.7586C573.429 99.8936 573.808 102.313 573.808 105.018C573.808 105.872 573.5 106.536 572.883 107.01C572.314 107.437 571.484 107.651 570.392 107.651H547.548V102.527H567.546L566.407 103.594C566.407 101.412 566.075 99.5853 565.411 98.1145C564.794 96.6437 563.869 95.5288 562.635 94.7697C561.449 93.9631 559.955 93.5598 558.152 93.5598C556.159 93.5598 554.451 94.0343 553.028 94.9832C551.652 95.8846 550.584 97.1893 549.825 98.8973C549.114 100.558 548.758 102.551 548.758 104.875V105.373C548.758 109.264 549.659 112.182 551.462 114.127C553.313 116.025 556.017 116.974 559.575 116.974C560.809 116.974 562.185 116.831 563.703 116.547C565.268 116.214 566.739 115.669 568.115 114.91C569.111 114.34 569.989 114.103 570.748 114.198C571.507 114.246 572.1 114.506 572.527 114.981C573.002 115.455 573.287 116.048 573.381 116.76C573.476 117.424 573.334 118.112 572.954 118.824C572.622 119.536 572.029 120.152 571.175 120.674C569.515 121.718 567.593 122.501 565.411 123.023C563.276 123.497 561.283 123.734 559.433 123.734ZM582.419 136.402C580.996 136.402 579.904 136.022 579.145 135.263C578.386 134.504 578.007 133.389 578.007 131.918V92.1365C578.007 90.6657 578.386 89.5508 579.145 88.7917C579.904 88.0326 580.972 87.653 582.348 87.653C583.771 87.653 584.862 88.0326 585.621 88.7917C586.381 89.5508 586.76 90.6657 586.76 92.1365V97.6875L585.977 95.5525C586.689 93.1328 588.136 91.1876 590.318 89.7169C592.548 88.2461 595.134 87.5107 598.076 87.5107C601.112 87.5107 603.769 88.2461 606.046 89.7169C608.371 91.1876 610.174 93.2752 611.455 95.9795C612.736 98.6364 613.376 101.839 613.376 105.587C613.376 109.288 612.736 112.514 611.455 115.266C610.174 117.97 608.395 120.057 606.117 121.528C603.84 122.999 601.159 123.734 598.076 123.734C595.181 123.734 592.643 123.023 590.461 121.599C588.278 120.129 586.808 118.231 586.048 115.906H586.902V131.918C586.902 133.389 586.499 134.504 585.693 135.263C584.934 136.022 583.842 136.402 582.419 136.402ZM595.585 116.974C597.34 116.974 598.882 116.547 600.211 115.693C601.539 114.839 602.559 113.581 603.271 111.921C604.03 110.213 604.409 108.101 604.409 105.587C604.409 101.791 603.603 98.9685 601.99 97.1182C600.377 95.2204 598.242 94.2715 595.585 94.2715C593.829 94.2715 592.287 94.6985 590.959 95.5525C589.631 96.359 588.587 97.6163 587.828 99.3243C587.116 100.985 586.76 103.072 586.76 105.587C586.76 109.335 587.567 112.182 589.18 114.127C590.793 116.025 592.928 116.974 595.585 116.974Z" fill="#3B3A3A"/>
</svg>
