<svg width="243" height="206" viewBox="0 0 243 206" fill="none" xmlns="http://www.w3.org/2000/svg">
<path d="M24.5753 90.1411L3.06478 25.2386H15.5817L34.7743 83.929H28.5622L48.4965 25.2386H59.6227L79.0007 83.929H72.974L92.6302 25.2386H104.127L82.6167 90.1411H69.8216L52.1125 37.1992H55.4504L37.4631 90.1411H24.5753ZM129.52 90.7901C124.451 90.7901 119.939 89.7084 115.983 87.545C112.027 85.3198 108.905 82.291 106.618 78.4587C104.331 74.6263 103.188 70.2686 103.188 65.3854C103.188 60.4405 104.331 56.0828 106.618 52.3122C108.905 48.4799 112.027 45.482 115.983 43.3186C119.939 41.1552 124.451 40.0735 129.52 40.0735C134.65 40.0735 139.193 41.1552 143.149 43.3186C147.167 45.482 150.288 48.449 152.514 52.2195C154.801 55.99 155.944 60.3787 155.944 65.3854C155.944 70.2686 154.801 74.6263 152.514 78.4587C150.288 82.291 147.167 85.3198 143.149 87.545C139.193 89.7084 134.65 90.7901 129.52 90.7901ZM129.52 80.8693C132.363 80.8693 134.897 80.2512 137.122 79.015C139.348 77.7787 141.078 75.9862 142.315 73.6373C143.613 71.2885 144.262 68.5379 144.262 65.3854C144.262 62.1712 143.613 59.4206 142.315 57.1336C141.078 54.7847 139.348 52.9922 137.122 51.7559C134.897 50.5197 132.394 49.9016 129.612 49.9016C126.769 49.9016 124.235 50.5197 122.009 51.7559C119.846 52.9922 118.115 54.7847 116.817 57.1336C115.519 59.4206 114.87 62.1712 114.87 65.3854C114.87 68.5379 115.519 71.2885 116.817 73.6373C118.115 75.9862 119.846 77.7787 122.009 79.015C124.235 80.2512 126.738 80.8693 129.52 80.8693ZM187.425 90.7901C182.356 90.7901 177.844 89.7084 173.888 87.545C169.932 85.3198 166.811 82.291 164.524 78.4587C162.236 74.6263 161.093 70.2686 161.093 65.3854C161.093 60.4405 162.236 56.0828 164.524 52.3122C166.811 48.4799 169.932 45.482 173.888 43.3186C177.844 41.1552 182.356 40.0735 187.425 40.0735C192.555 40.0735 197.098 41.1552 201.054 43.3186C205.072 45.482 208.194 48.449 210.419 52.2195C212.706 55.99 213.849 60.3787 213.849 65.3854C213.849 70.2686 212.706 74.6263 210.419 78.4587C208.194 82.291 205.072 85.3198 201.054 87.545C197.098 89.7084 192.555 90.7901 187.425 90.7901ZM187.425 80.8693C190.268 80.8693 192.802 80.2512 195.028 79.015C197.253 77.7787 198.984 75.9862 200.22 73.6373C201.518 71.2885 202.167 68.5379 202.167 65.3854C202.167 62.1712 201.518 59.4206 200.22 57.1336C198.984 54.7847 197.253 52.9922 195.028 51.7559C192.802 50.5197 190.299 49.9016 187.518 49.9016C184.674 49.9016 182.14 50.5197 179.915 51.7559C177.751 52.9922 176.021 54.7847 174.722 57.1336C173.424 59.4206 172.775 62.1712 172.775 65.3854C172.775 68.5379 173.424 71.2885 174.722 73.6373C176.021 75.9862 177.751 77.7787 179.915 79.015C182.14 80.2512 184.643 80.8693 187.425 80.8693ZM223.078 90.1411V21.3445H234.667V90.1411H223.078Z" fill="#252121"/>
<path d="M76.2377 182.859L105.444 117.956H117.312L146.611 182.859H134.001L108.874 124.354H113.696L88.6619 182.859H76.2377ZM89.6818 167.839L92.9269 158.381H127.974L131.219 167.839H89.6818ZM151.898 182.859V133.348H163.487V182.859H151.898ZM157.739 125.188C155.575 125.188 153.783 124.508 152.361 123.149C151.001 121.789 150.321 120.151 150.321 118.235C150.321 116.257 151.001 114.619 152.361 113.32C153.783 111.961 155.575 111.281 157.739 111.281C159.902 111.281 161.664 111.93 163.024 113.228C164.445 114.464 165.156 116.04 165.156 117.956C165.156 119.996 164.476 121.727 163.117 123.149C161.757 124.508 159.964 125.188 157.739 125.188ZM197.799 183.508C193.039 183.508 188.743 182.457 184.911 180.356C181.14 178.192 178.173 175.225 176.01 171.455C173.847 167.684 172.765 163.234 172.765 158.103C172.765 152.973 173.847 148.522 176.01 144.752C178.173 140.981 181.14 138.045 184.911 135.944C188.743 133.842 193.039 132.791 197.799 132.791C201.94 132.791 205.649 133.718 208.925 135.573C212.201 137.365 214.797 140.116 216.713 143.825C218.629 147.533 219.587 152.293 219.587 158.103C219.587 163.852 218.66 168.611 216.806 172.382C214.952 176.09 212.386 178.872 209.11 180.726C205.834 182.581 202.064 183.508 197.799 183.508ZM199.19 173.587C201.971 173.587 204.444 172.969 206.607 171.733C208.832 170.497 210.594 168.704 211.892 166.355C213.252 164.006 213.932 161.256 213.932 158.103C213.932 154.889 213.252 152.138 211.892 149.851C210.594 147.502 208.832 145.71 206.607 144.474C204.444 143.237 201.971 142.619 199.19 142.619C196.408 142.619 193.905 143.237 191.679 144.474C189.516 145.71 187.754 147.502 186.394 149.851C185.096 152.138 184.447 154.889 184.447 158.103C184.447 161.256 185.096 164.006 186.394 166.355C187.754 168.704 189.516 170.497 191.679 171.733C193.905 172.969 196.408 173.587 199.19 173.587ZM214.21 182.859V171.176L214.673 158.011L213.746 144.845V114.062H225.243V182.859H214.21Z" fill="#252121"/>
<path d="M39.9487 122.546C39.9487 118.953 42.8616 116.04 46.4548 116.04H50.5773C51.8937 116.04 52.9609 117.107 52.9609 118.424V132.388C52.9609 138.969 47.6265 144.303 41.0461 144.303C40.4401 144.303 39.9487 143.812 39.9487 143.206V122.546Z" fill="#252121"/>
<path d="M52.9611 179.072C52.9611 182.665 50.0482 185.578 46.455 185.578H42.3325C41.0161 185.578 39.9489 184.511 39.9489 183.194V169.23C39.9489 162.649 45.2833 157.315 51.8636 157.315C52.4697 157.315 52.9611 157.806 52.9611 158.412V179.072Z" fill="#252121"/>
<path d="M74.7178 144.302C78.311 144.302 81.2239 147.215 81.2239 150.808C81.2239 154.402 78.311 157.314 74.7178 157.314L52.9609 157.314L52.9609 144.302L74.7178 144.302Z" fill="#252121"/>
<path d="M18.1919 144.302C14.5987 144.302 11.6858 147.215 11.6858 150.808C11.6858 154.402 14.5987 157.314 18.1919 157.314L39.9488 157.314L39.9488 144.302L18.1919 144.302Z" fill="#252121"/>
</svg>
