<svg width="51" height="13" viewBox="0 0 51 13" fill="none" xmlns="http://www.w3.org/2000/svg">
<path d="M1.012 12.096C0.788 12.1067 0.612 12.048 0.484 11.92C0.356 11.792 0.292 11.632 0.292 11.44C0.292 11.2907 0.34 11.1627 0.436 11.056C0.521333 10.9387 0.66 10.8747 0.852 10.864L1.348 10.816C1.87067 10.7733 2.27067 10.592 2.548 10.272C2.82533 9.952 2.964 9.51467 2.964 8.96V1.36C2.964 1.11467 3.028 0.927999 3.156 0.799999C3.284 0.672 3.46533 0.608 3.7 0.608C3.93467 0.608 4.116 0.672 4.244 0.799999C4.372 0.927999 4.436 1.11467 4.436 1.36V8.96C4.436 9.58933 4.324 10.128 4.1 10.576C3.88667 11.0133 3.56667 11.36 3.14 11.616C2.71333 11.8613 2.18 12.0107 1.54 12.064L1.012 12.096ZM9.95687 12.144C9.18887 12.144 8.52221 11.9787 7.95687 11.648C7.39154 11.3173 6.95421 10.848 6.64487 10.24C6.33554 9.632 6.18087 8.91733 6.18087 8.096C6.18087 7.47733 6.26621 6.92267 6.43687 6.432C6.61821 5.93067 6.87421 5.504 7.20487 5.152C7.53554 4.8 7.93021 4.53333 8.38888 4.352C8.85821 4.16 9.38087 4.064 9.95687 4.064C10.7249 4.064 11.3915 4.22933 11.9569 4.56C12.5222 4.89067 12.9595 5.36 13.2689 5.968C13.5782 6.56533 13.7329 7.27467 13.7329 8.096C13.7329 8.71467 13.6422 9.27467 13.4609 9.776C13.2902 10.2773 13.0395 10.704 12.7089 11.056C12.3782 11.408 11.9782 11.68 11.5089 11.872C11.0502 12.0533 10.5329 12.144 9.95687 12.144ZM9.95687 10.992C10.4262 10.992 10.8315 10.88 11.1729 10.656C11.5249 10.432 11.7915 10.1067 11.9729 9.68C12.1649 9.25333 12.2609 8.72533 12.2609 8.096C12.2609 7.15733 12.0529 6.44267 11.6369 5.952C11.2209 5.46133 10.6609 5.216 9.95687 5.216C9.49821 5.216 9.09288 5.328 8.74088 5.552C8.39954 5.76533 8.13287 6.08533 7.94088 6.512C7.74887 6.93867 7.65287 7.46667 7.65287 8.096C7.65287 9.03467 7.86087 9.75467 8.27688 10.256C8.70354 10.7467 9.26354 10.992 9.95687 10.992ZM18.062 12.144C17.4327 12.144 16.9047 12.0267 16.478 11.792C16.062 11.5573 15.7527 11.2107 15.55 10.752C15.3473 10.2933 15.246 9.71733 15.246 9.024V4.832C15.246 4.58667 15.3047 4.40533 15.422 4.288C15.55 4.16 15.7313 4.096 15.966 4.096C16.2007 4.096 16.382 4.16 16.51 4.288C16.638 4.40533 16.702 4.58667 16.702 4.832V9.024C16.702 9.68533 16.8353 10.176 17.102 10.496C17.3687 10.8053 17.79 10.96 18.366 10.96C19.006 10.96 19.5233 10.7467 19.918 10.32C20.3233 9.89333 20.526 9.328 20.526 8.624V4.832C20.526 4.58667 20.5847 4.40533 20.702 4.288C20.83 4.16 21.0113 4.096 21.246 4.096C21.4807 4.096 21.662 4.16 21.79 4.288C21.918 4.40533 21.982 4.58667 21.982 4.832V11.36C21.982 11.8613 21.7473 12.112 21.278 12.112C21.0433 12.112 20.862 12.048 20.734 11.92C20.6167 11.792 20.558 11.6053 20.558 11.36V9.968L20.766 10.24C20.5527 10.8587 20.206 11.3333 19.726 11.664C19.2567 11.984 18.702 12.144 18.062 12.144ZM24.7569 12.112C24.5115 12.112 24.3249 12.048 24.1969 11.92C24.0689 11.792 24.0049 11.6053 24.0049 11.36V4.832C24.0049 4.58667 24.0689 4.40533 24.1969 4.288C24.3249 4.16 24.5009 4.096 24.7249 4.096C24.9489 4.096 25.1195 4.16 25.2369 4.288C25.3649 4.40533 25.4289 4.58667 25.4289 4.832V6.064H25.2689C25.4395 5.424 25.7595 4.93867 26.2289 4.608C26.6982 4.27733 27.2902 4.09067 28.0049 4.048C28.1755 4.03733 28.3142 4.08 28.4209 4.176C28.5275 4.26133 28.5862 4.41067 28.5969 4.624C28.6075 4.82667 28.5595 4.992 28.4529 5.12C28.3462 5.23733 28.1809 5.30667 27.9569 5.328L27.6689 5.344C26.9649 5.41867 26.4209 5.648 26.0369 6.032C25.6635 6.416 25.4769 6.944 25.4769 7.616V11.36C25.4769 11.6053 25.4129 11.792 25.2849 11.92C25.1675 12.048 24.9915 12.112 24.7569 12.112ZM30.2486 12.112C30.0246 12.112 29.8486 12.048 29.7206 11.92C29.5926 11.792 29.5286 11.6053 29.5286 11.36V4.832C29.5286 4.58667 29.5926 4.40533 29.7206 4.288C29.8486 4.16 30.0246 4.096 30.2486 4.096C30.4726 4.096 30.6433 4.16 30.7606 4.288C30.8886 4.40533 30.9526 4.58667 30.9526 4.832V6.144L30.7766 5.904C31.0006 5.296 31.3633 4.83733 31.8646 4.528C32.3766 4.21867 32.958 4.064 33.6086 4.064C34.238 4.064 34.7553 4.176 35.1606 4.4C35.566 4.624 35.87 4.96533 36.0726 5.424C36.2753 5.88267 36.3766 6.464 36.3766 7.168V11.36C36.3766 11.6053 36.3126 11.792 36.1846 11.92C36.0673 12.048 35.8913 12.112 35.6566 12.112C35.422 12.112 35.2406 12.048 35.1126 11.92C34.9846 11.792 34.9206 11.6053 34.9206 11.36V7.248C34.9206 6.55467 34.7873 6.048 34.5206 5.728C34.254 5.408 33.8273 5.248 33.2406 5.248C32.558 5.248 32.0086 5.46133 31.5926 5.888C31.1873 6.304 30.9846 6.86933 30.9846 7.584V11.36C30.9846 11.8613 30.7393 12.112 30.2486 12.112ZM40.8449 12.144C40.3115 12.144 39.8262 12.0373 39.3889 11.824C38.9622 11.6107 38.6262 11.3227 38.3809 10.96C38.1462 10.5973 38.0289 10.192 38.0289 9.744C38.0289 9.168 38.1729 8.71467 38.4609 8.384C38.7489 8.05333 39.2342 7.81867 39.9169 7.68C40.5995 7.53067 41.5169 7.456 42.6689 7.456H43.4209V8.384H42.7009C41.8795 8.384 41.2289 8.42133 40.7489 8.496C40.2795 8.57067 39.9489 8.704 39.7569 8.896C39.5649 9.07733 39.4689 9.33333 39.4689 9.664C39.4689 10.08 39.6129 10.4213 39.9009 10.688C40.1995 10.9547 40.6049 11.088 41.1169 11.088C41.5222 11.088 41.8795 10.992 42.1889 10.8C42.4982 10.5973 42.7435 10.3307 42.9249 10C43.1062 9.65867 43.1969 9.26933 43.1969 8.832V6.992C43.1969 6.36267 43.0689 5.90933 42.8129 5.632C42.5569 5.344 42.1249 5.2 41.5169 5.2C41.1649 5.2 40.8022 5.248 40.4289 5.344C40.0555 5.44 39.6662 5.58933 39.2609 5.792C39.1009 5.86667 38.9622 5.89333 38.8449 5.872C38.7275 5.84 38.6315 5.776 38.5569 5.68C38.4929 5.57333 38.4555 5.46133 38.4449 5.344C38.4449 5.216 38.4715 5.09333 38.5249 4.976C38.5889 4.85867 38.6955 4.77333 38.8449 4.72C39.3142 4.48533 39.7782 4.32 40.2369 4.224C40.7062 4.11733 41.1435 4.064 41.5489 4.064C42.2422 4.064 42.8129 4.176 43.2609 4.4C43.7089 4.61333 44.0449 4.94933 44.2689 5.408C44.4929 5.856 44.6049 6.432 44.6049 7.136V11.36C44.6049 11.6053 44.5462 11.792 44.4289 11.92C44.3115 12.048 44.1409 12.112 43.9169 12.112C43.7035 12.112 43.5329 12.048 43.4049 11.92C43.2875 11.792 43.2289 11.6053 43.2289 11.36V10.224H43.3729C43.2875 10.6187 43.1275 10.96 42.8929 11.248C42.6582 11.536 42.3649 11.76 42.0129 11.92C41.6715 12.0693 41.2822 12.144 40.8449 12.144ZM49.0241 12.144C48.2241 12.144 47.6161 11.9093 47.2001 11.44C46.7841 10.96 46.5761 10.272 46.5761 9.376V1.344C46.5761 1.09867 46.6401 0.917333 46.7681 0.799999C46.8961 0.672 47.0721 0.608 47.2961 0.608C47.5308 0.608 47.7121 0.672 47.8401 0.799999C47.9681 0.917333 48.0321 1.09867 48.0321 1.344V9.264C48.0321 9.81867 48.1441 10.2347 48.3681 10.512C48.6028 10.7787 48.9335 10.912 49.3601 10.912C49.4561 10.912 49.5415 10.912 49.6161 10.912C49.6908 10.9013 49.7655 10.8907 49.8401 10.88C49.9575 10.8693 50.0428 10.9013 50.0961 10.976C50.1495 11.0507 50.1761 11.2 50.1761 11.424C50.1761 11.6267 50.1281 11.7867 50.0321 11.904C49.9468 12.0107 49.8028 12.08 49.6001 12.112C49.5041 12.1227 49.4081 12.128 49.3121 12.128C49.2161 12.1387 49.1201 12.144 49.0241 12.144Z" fill="#252121"/>
</svg>
