<svg width="77" height="19" viewBox="0 0 77 19" fill="none" xmlns="http://www.w3.org/2000/svg">
<path d="M1.864 18.144C1.496 18.16 1.208 18.064 1 17.856C0.792 17.648 0.688 17.384 0.688 17.064C0.688 16.824 0.768 16.608 0.928 16.416C1.072 16.224 1.288 16.12 1.576 16.104L2.32 16.056C3.088 15.992 3.672 15.736 4.072 15.288C4.472 14.824 4.672 14.184 4.672 13.368V2.16C4.672 1.744 4.776 1.432 4.984 1.224C5.192 1.016 5.496 0.912 5.896 0.912C6.296 0.912 6.6 1.016 6.808 1.224C7.032 1.432 7.144 1.744 7.144 2.16V13.368C7.144 14.328 6.968 15.152 6.616 15.84C6.28 16.512 5.784 17.04 5.128 17.424C4.472 17.808 3.656 18.032 2.68 18.096L1.864 18.144ZM15.4214 18.216C14.2374 18.216 13.2134 17.968 12.3494 17.472C11.5014 16.976 10.8374 16.272 10.3574 15.36C9.87738 14.448 9.63738 13.376 9.63738 12.144C9.63738 11.2 9.77338 10.36 10.0454 9.624C10.3174 8.888 10.7014 8.256 11.1974 7.728C11.7094 7.184 12.3174 6.776 13.0214 6.504C13.7414 6.216 14.5414 6.072 15.4214 6.072C16.5894 6.072 17.5974 6.32 18.4454 6.816C19.3094 7.312 19.9814 8.016 20.4614 8.928C20.9414 9.824 21.1814 10.896 21.1814 12.144C21.1814 13.072 21.0454 13.912 20.7734 14.664C20.5014 15.416 20.1094 16.056 19.5974 16.584C19.1014 17.112 18.4934 17.52 17.7734 17.808C17.0694 18.08 16.2854 18.216 15.4214 18.216ZM15.4214 16.344C16.0774 16.344 16.6534 16.184 17.1494 15.864C17.6454 15.544 18.0294 15.072 18.3014 14.448C18.5894 13.824 18.7334 13.056 18.7334 12.144C18.7334 10.768 18.4294 9.728 17.8214 9.024C17.2134 8.32 16.4134 7.968 15.4214 7.968C14.7494 7.968 14.1654 8.128 13.6694 8.448C13.1734 8.752 12.7814 9.216 12.4934 9.84C12.2214 10.464 12.0854 11.232 12.0854 12.144C12.0854 13.504 12.3894 14.544 12.9974 15.264C13.6054 15.984 14.4134 16.344 15.4214 16.344ZM27.5997 18.216C26.6557 18.216 25.8637 18.04 25.2237 17.688C24.5997 17.336 24.1277 16.816 23.8077 16.128C23.5037 15.424 23.3517 14.544 23.3517 13.488V7.344C23.3517 6.928 23.4557 6.624 23.6637 6.432C23.8717 6.224 24.1677 6.12 24.5517 6.12C24.9357 6.12 25.2317 6.224 25.4397 6.432C25.6637 6.624 25.7757 6.928 25.7757 7.344V13.512C25.7757 14.456 25.9677 15.152 26.3517 15.6C26.7357 16.048 27.3437 16.272 28.1757 16.272C29.0877 16.272 29.8237 15.968 30.3837 15.36C30.9597 14.736 31.2477 13.92 31.2477 12.912V7.344C31.2477 6.928 31.3517 6.624 31.5597 6.432C31.7677 6.224 32.0717 6.12 32.4717 6.12C32.8557 6.12 33.1517 6.224 33.3597 6.432C33.5677 6.624 33.6717 6.928 33.6717 7.344V16.944C33.6717 17.76 33.2797 18.168 32.4957 18.168C32.1277 18.168 31.8397 18.064 31.6317 17.856C31.4237 17.632 31.3197 17.328 31.3197 16.944V14.904L31.6317 15.432C31.3117 16.328 30.7997 17.016 30.0957 17.496C29.3917 17.976 28.5597 18.216 27.5997 18.216ZM37.8318 18.168C37.4318 18.168 37.1278 18.064 36.9198 17.856C36.7118 17.632 36.6078 17.328 36.6078 16.944V7.344C36.6078 6.944 36.7118 6.64 36.9198 6.432C37.1278 6.224 37.4158 6.12 37.7838 6.12C38.1678 6.12 38.4558 6.224 38.6478 6.432C38.8558 6.64 38.9598 6.944 38.9598 7.344V9.096H38.7198C38.9758 8.136 39.4478 7.408 40.1358 6.912C40.8238 6.416 41.7038 6.128 42.7758 6.048C43.0638 6.032 43.2878 6.104 43.4478 6.264C43.6238 6.424 43.7198 6.672 43.7358 7.008C43.7678 7.344 43.6958 7.616 43.5198 7.824C43.3438 8.016 43.0718 8.128 42.7038 8.16L42.2478 8.208C41.2078 8.304 40.4158 8.632 39.8718 9.192C39.3278 9.752 39.0558 10.52 39.0558 11.496V16.944C39.0558 17.328 38.9518 17.632 38.7438 17.856C38.5518 18.064 38.2478 18.168 37.8318 18.168ZM46.2809 18.168C45.8969 18.168 45.6009 18.064 45.3929 17.856C45.1849 17.632 45.0809 17.328 45.0809 16.944V7.344C45.0809 6.944 45.1849 6.64 45.3929 6.432C45.6009 6.224 45.8889 6.12 46.2569 6.12C46.6409 6.12 46.9289 6.224 47.1209 6.432C47.3289 6.64 47.4329 6.944 47.4329 7.344V9.216L47.1689 8.784C47.5209 7.888 48.0729 7.216 48.8249 6.768C49.5769 6.304 50.4409 6.072 51.4169 6.072C52.3449 6.072 53.1129 6.248 53.7209 6.6C54.3449 6.936 54.8089 7.456 55.1129 8.16C55.4169 8.848 55.5689 9.72 55.5689 10.776V16.944C55.5689 17.328 55.4649 17.632 55.2569 17.856C55.0489 18.064 54.7529 18.168 54.3689 18.168C53.9689 18.168 53.6649 18.064 53.4569 17.856C53.2489 17.632 53.1449 17.328 53.1449 16.944V10.92C53.1449 9.912 52.9449 9.176 52.5449 8.712C52.1609 8.248 51.5529 8.016 50.7209 8.016C49.7449 8.016 48.9609 8.32 48.3689 8.928C47.7929 9.536 47.5049 10.352 47.5049 11.376V16.944C47.5049 17.76 47.0969 18.168 46.2809 18.168ZM62.173 18.216C61.357 18.216 60.621 18.056 59.965 17.736C59.325 17.416 58.821 16.984 58.453 16.44C58.085 15.896 57.901 15.28 57.901 14.592C57.901 13.728 58.117 13.048 58.549 12.552C58.997 12.04 59.725 11.68 60.733 11.472C61.757 11.248 63.133 11.136 64.861 11.136H65.989V12.624H64.885C63.733 12.624 62.821 12.68 62.149 12.792C61.477 12.904 60.997 13.096 60.709 13.368C60.437 13.624 60.301 13.984 60.301 14.448C60.301 15.056 60.509 15.552 60.925 15.936C61.341 16.304 61.917 16.488 62.653 16.488C63.245 16.488 63.765 16.352 64.213 16.08C64.661 15.792 65.013 15.408 65.269 14.928C65.541 14.448 65.677 13.896 65.677 13.272V10.512C65.677 9.6 65.485 8.944 65.101 8.544C64.717 8.144 64.085 7.944 63.205 7.944C62.693 7.944 62.157 8.008 61.597 8.136C61.053 8.264 60.485 8.48 59.893 8.784C59.621 8.912 59.389 8.952 59.197 8.904C59.005 8.856 58.853 8.752 58.741 8.592C58.629 8.416 58.565 8.232 58.549 8.04C58.549 7.832 58.597 7.632 58.693 7.44C58.805 7.248 58.989 7.104 59.245 7.008C59.949 6.672 60.645 6.432 61.333 6.288C62.021 6.144 62.669 6.072 63.277 6.072C64.349 6.072 65.229 6.24 65.917 6.576C66.621 6.912 67.141 7.424 67.477 8.112C67.813 8.8 67.981 9.688 67.981 10.776V16.944C67.981 17.328 67.885 17.632 67.693 17.856C67.501 18.064 67.221 18.168 66.853 18.168C66.501 18.168 66.221 18.064 66.013 17.856C65.805 17.632 65.701 17.328 65.701 16.944V15.384H65.917C65.789 15.976 65.549 16.488 65.197 16.92C64.861 17.336 64.437 17.656 63.925 17.88C63.413 18.104 62.829 18.216 62.173 18.216ZM74.6076 18.216C73.3596 18.216 72.4156 17.856 71.7756 17.136C71.1516 16.4 70.8396 15.344 70.8396 13.968V2.136C70.8396 1.736 70.9436 1.432 71.1516 1.224C71.3596 1.016 71.6556 0.912 72.0396 0.912C72.4236 0.912 72.7196 1.016 72.9276 1.224C73.1516 1.432 73.2636 1.736 73.2636 2.136V13.824C73.2636 14.624 73.4236 15.224 73.7436 15.624C74.0796 16.008 74.5596 16.2 75.1836 16.2C75.3276 16.2 75.4556 16.2 75.5676 16.2C75.6796 16.184 75.7916 16.168 75.9036 16.152C76.0956 16.136 76.2316 16.192 76.3116 16.32C76.3916 16.432 76.4316 16.672 76.4316 17.04C76.4316 17.376 76.3596 17.64 76.2156 17.832C76.0716 18.008 75.8396 18.12 75.5196 18.168C75.3756 18.184 75.2236 18.192 75.0636 18.192C74.9036 18.208 74.7516 18.216 74.6076 18.216Z" fill="#252121"/>
</svg>
