<svg width="46" height="40" viewBox="0 0 46 40" fill="none" xmlns="http://www.w3.org/2000/svg">
<path d="M16.618 5.72487H19.44L15.3369 17.8437H12.5149L9.96999 9.10083L7.39041 17.8437H4.58577L0.5 5.72487H3.44314L6.07466 14.9698L8.68886 5.72487H11.3723L14.0211 14.9698L16.618 5.72487ZM23.5462 8.44295C24.5272 8.44295 25.3929 8.63916 26.1431 9.03158C26.9048 9.424 27.4934 9.978 27.9089 10.6936C28.3245 11.4092 28.5322 12.2402 28.5322 13.1866C28.5322 14.1215 28.3245 14.9525 27.9089 15.6796C27.4934 16.3952 26.9048 16.955 26.1431 17.3589C25.3929 17.7514 24.5272 17.9476 23.5462 17.9476C22.5536 17.9476 21.6764 17.7514 20.9147 17.3589C20.1644 16.955 19.5816 16.3952 19.1661 15.6796C18.7506 14.9525 18.5428 14.1215 18.5428 13.1866C18.5428 12.2402 18.7506 11.4092 19.1661 10.6936C19.5816 9.978 20.1644 9.424 20.9147 9.03158C21.6764 8.63916 22.5536 8.44295 23.5462 8.44295ZM23.5462 10.659C22.8537 10.659 22.2881 10.8956 21.8495 11.3688C21.4225 11.842 21.209 12.4595 21.209 13.2212C21.209 13.983 21.4225 14.6005 21.8495 15.0737C22.2881 15.5469 22.8537 15.7835 23.5462 15.7835C24.2271 15.7835 24.7811 15.5469 25.2082 15.0737C25.6468 14.6005 25.8661 13.983 25.8661 13.2212C25.8661 12.4595 25.6468 11.842 25.2082 11.3688C24.7811 10.8956 24.2271 10.659 23.5462 10.659ZM34.1556 8.44295C35.1366 8.44295 36.0022 8.63916 36.7524 9.03158C37.5142 9.424 38.1028 9.978 38.5183 10.6936C38.9338 11.4092 39.1416 12.2402 39.1416 13.1866C39.1416 14.1215 38.9338 14.9525 38.5183 15.6796C38.1028 16.3952 37.5142 16.955 36.7524 17.3589C36.0022 17.7514 35.1366 17.9476 34.1556 17.9476C33.163 17.9476 32.2858 17.7514 31.524 17.3589C30.7738 16.955 30.191 16.3952 29.7755 15.6796C29.36 14.9525 29.1522 14.1215 29.1522 13.1866C29.1522 12.2402 29.36 11.4092 29.7755 10.6936C30.191 9.978 30.7738 9.424 31.524 9.03158C32.2858 8.63916 33.163 8.44295 34.1556 8.44295ZM34.1556 10.659C33.463 10.659 32.8975 10.8956 32.4589 11.3688C32.0319 11.842 31.8184 12.4595 31.8184 13.2212C31.8184 13.983 32.0319 14.6005 32.4589 15.0737C32.8975 15.5469 33.463 15.7835 34.1556 15.7835C34.8365 15.7835 35.3905 15.5469 35.8176 15.0737C36.2561 14.6005 36.4754 13.983 36.4754 13.2212C36.4754 12.4595 36.2561 11.842 35.8176 11.3688C35.3905 10.8956 34.8365 10.659 34.1556 10.659ZM40.6445 4.99774H43.3107V17.8437H40.6445V4.99774Z" fill="#252121"/>
<path d="M25.3302 35.1563L24.378 32.8018H18.7687L17.8165 35.1563H14.9946L20.2576 23.0375H23.0796L28.256 35.1563H25.3302ZM19.669 30.6031H23.4951L21.5907 25.8941L19.669 30.6031ZM29.118 25.8421H31.7842V35.1563H29.118V25.8421ZM30.4338 21.7044C30.8608 21.7044 31.2071 21.8429 31.4725 22.1199C31.7495 22.3969 31.888 22.7547 31.888 23.1933C31.888 23.6319 31.7495 23.9897 31.4725 24.2667C31.2071 24.5437 30.8608 24.6822 30.4338 24.6822C30.0183 24.6822 29.672 24.5437 29.395 24.2667C29.1296 23.9781 28.9968 23.6204 28.9968 23.1933C28.9968 22.7547 29.1296 22.3969 29.395 22.1199C29.672 21.8429 30.0183 21.7044 30.4338 21.7044ZM43.189 22.3104V35.1563H40.5401V33.7886C40.2054 34.2734 39.7899 34.6427 39.2936 34.8966C38.7973 35.139 38.2318 35.2602 37.597 35.2602C36.7198 35.2602 35.9465 35.064 35.2771 34.6716C34.6192 34.2676 34.1056 33.7021 33.7363 32.9749C33.3785 32.2478 33.1996 31.411 33.1996 30.4646C33.1996 29.5297 33.3785 28.7045 33.7363 27.9889C34.0941 27.2733 34.6019 26.7193 35.2598 26.3269C35.9177 25.9345 36.6737 25.7383 37.5277 25.7383C38.8435 25.7383 39.8476 26.2288 40.5401 27.2098V22.3104H43.189ZM38.2202 33.1134C38.9012 33.1134 39.4552 32.8768 39.8823 32.4036C40.3208 31.9189 40.5401 31.2956 40.5401 30.5338C40.5401 29.7721 40.3208 29.1546 39.8823 28.6814C39.4552 28.1966 38.9012 27.9543 38.2202 27.9543C37.5277 27.9543 36.9622 28.1966 36.5236 28.6814C36.0966 29.1546 35.8773 29.7721 35.8657 30.5338C35.8773 31.2956 36.0966 31.9189 36.5236 32.4036C36.9622 32.8768 37.5277 33.1134 38.2202 33.1134Z" fill="#252121"/>
<path d="M7.85449 23.6993C7.85449 23.0283 8.39839 22.4844 9.06933 22.4844H9.83909C10.0849 22.4844 10.2842 22.6837 10.2842 22.9295V25.537C10.2842 26.7657 9.28811 27.7618 8.0594 27.7618C7.94623 27.7618 7.85449 27.6701 7.85449 27.5569V23.6993Z" fill="#252121"/>
<path d="M10.2842 34.254C10.2842 34.925 9.74028 35.4689 9.06934 35.4689H8.29958C8.05377 35.4689 7.8545 35.2696 7.8545 35.0238V32.4163C7.8545 31.1876 8.85056 30.1915 10.0793 30.1915C10.1924 30.1915 10.2842 30.2832 10.2842 30.3964V34.254Z" fill="#252121"/>
<path d="M14.3467 27.7618C15.0176 27.7618 15.5615 28.3057 15.5615 28.9767C15.5615 29.6476 15.0176 30.1915 14.3467 30.1915L10.2842 30.1915L10.2842 27.7618L14.3467 27.7618Z" fill="#252121"/>
<path d="M3.79199 27.7618C3.12105 27.7618 2.57715 28.3057 2.57715 28.9767C2.57715 29.6476 3.12105 30.1915 3.79199 30.1915L7.85451 30.1915L7.85451 27.7618L3.79199 27.7618Z" fill="#252121"/>
</svg>
