<svg width="148" height="23" viewBox="0 0 148 23" fill="none" xmlns="http://www.w3.org/2000/svg">
<path d="M8.312 18.216C6.712 18.216 5.312 17.864 4.112 17.16C2.928 16.44 2.008 15.432 1.352 14.136C0.712 12.824 0.392 11.288 0.392 9.528C0.392 8.2 0.576 7.008 0.944 5.952C1.312 4.88 1.84 3.968 2.528 3.216C3.216 2.448 4.048 1.864 5.024 1.464C6 1.064 7.096 0.863999 8.312 0.863999C9.928 0.863999 11.328 1.216 12.512 1.92C13.696 2.624 14.608 3.624 15.248 4.92C15.904 6.216 16.232 7.744 16.232 9.504C16.232 10.832 16.048 12.032 15.68 13.104C15.312 14.176 14.776 15.096 14.072 15.864C13.384 16.632 12.552 17.216 11.576 17.616C10.6 18.016 9.512 18.216 8.312 18.216ZM8.312 16.056C9.432 16.056 10.384 15.8 11.168 15.288C11.968 14.776 12.576 14.032 12.992 13.056C13.424 12.08 13.64 10.904 13.64 9.528C13.64 7.464 13.176 5.864 12.248 4.728C11.32 3.592 10.008 3.024 8.312 3.024C7.192 3.024 6.232 3.28 5.432 3.792C4.648 4.288 4.04 5.024 3.608 6C3.192 6.976 2.984 8.152 2.984 9.528C2.984 11.576 3.448 13.176 4.376 14.328C5.32 15.48 6.632 16.056 8.312 16.056ZM23.0094 18.216C22.0654 18.216 21.2734 18.04 20.6334 17.688C20.0094 17.336 19.5374 16.816 19.2174 16.128C18.9134 15.424 18.7614 14.544 18.7614 13.488V7.344C18.7614 6.928 18.8654 6.624 19.0734 6.432C19.2814 6.224 19.5774 6.12 19.9614 6.12C20.3454 6.12 20.6414 6.224 20.8494 6.432C21.0734 6.624 21.1854 6.928 21.1854 7.344V13.512C21.1854 14.456 21.3774 15.152 21.7614 15.6C22.1454 16.048 22.7534 16.272 23.5854 16.272C24.4974 16.272 25.2334 15.968 25.7934 15.36C26.3694 14.736 26.6574 13.92 26.6574 12.912V7.344C26.6574 6.928 26.7614 6.624 26.9694 6.432C27.1774 6.224 27.4814 6.12 27.8814 6.12C28.2654 6.12 28.5614 6.224 28.7694 6.432C28.9774 6.624 29.0814 6.928 29.0814 7.344V16.944C29.0814 17.76 28.6894 18.168 27.9054 18.168C27.5374 18.168 27.2494 18.064 27.0414 17.856C26.8334 17.632 26.7294 17.328 26.7294 16.944V14.904L27.0414 15.432C26.7214 16.328 26.2094 17.016 25.5054 17.496C24.8014 17.976 23.9694 18.216 23.0094 18.216ZM33.2414 18.168C32.8414 18.168 32.5374 18.064 32.3294 17.856C32.1214 17.632 32.0174 17.328 32.0174 16.944V7.344C32.0174 6.944 32.1214 6.64 32.3294 6.432C32.5374 6.224 32.8254 6.12 33.1934 6.12C33.5774 6.12 33.8654 6.224 34.0574 6.432C34.2654 6.64 34.3694 6.944 34.3694 7.344V9.096H34.1294C34.3854 8.136 34.8574 7.408 35.5454 6.912C36.2334 6.416 37.1134 6.128 38.1854 6.048C38.4734 6.032 38.6974 6.104 38.8574 6.264C39.0334 6.424 39.1294 6.672 39.1454 7.008C39.1774 7.344 39.1054 7.616 38.9294 7.824C38.7534 8.016 38.4814 8.128 38.1134 8.16L37.6574 8.208C36.6174 8.304 35.8254 8.632 35.2814 9.192C34.7374 9.752 34.4654 10.52 34.4654 11.496V16.944C34.4654 17.328 34.3614 17.632 34.1534 17.856C33.9614 18.064 33.6574 18.168 33.2414 18.168ZM52.6267 18.216C51.6027 18.216 50.7147 17.96 49.9627 17.448C49.2107 16.92 48.7067 16.224 48.4507 15.36L48.7147 14.928V16.944C48.7147 17.328 48.6107 17.632 48.4027 17.856C48.1947 18.064 47.9067 18.168 47.5387 18.168C47.1547 18.168 46.8587 18.064 46.6507 17.856C46.4427 17.632 46.3387 17.328 46.3387 16.944V2.136C46.3387 1.736 46.4427 1.432 46.6507 1.224C46.8587 1.016 47.1547 0.912 47.5387 0.912C47.9227 0.912 48.2187 1.016 48.4267 1.224C48.6507 1.432 48.7627 1.736 48.7627 2.136V8.856H48.4747C48.7307 8.008 49.2347 7.336 49.9867 6.84C50.7387 6.328 51.6187 6.072 52.6267 6.072C53.6827 6.072 54.5947 6.32 55.3627 6.816C56.1307 7.312 56.7227 8.008 57.1387 8.904C57.5707 9.8 57.7867 10.88 57.7867 12.144C57.7867 13.376 57.5707 14.456 57.1387 15.384C56.7227 16.296 56.1227 17 55.3387 17.496C54.5707 17.976 53.6667 18.216 52.6267 18.216ZM52.0267 16.344C52.6987 16.344 53.2827 16.184 53.7787 15.864C54.2747 15.544 54.6587 15.072 54.9307 14.448C55.2027 13.824 55.3387 13.056 55.3387 12.144C55.3387 10.768 55.0347 9.728 54.4267 9.024C53.8347 8.32 53.0347 7.968 52.0267 7.968C51.3707 7.968 50.7867 8.128 50.2747 8.448C49.7787 8.752 49.3947 9.216 49.1227 9.84C48.8507 10.464 48.7147 11.232 48.7147 12.144C48.7147 13.504 49.0187 14.544 49.6267 15.264C50.2347 15.984 51.0347 16.344 52.0267 16.344ZM63.7824 18.216C62.9664 18.216 62.2304 18.056 61.5744 17.736C60.9344 17.416 60.4304 16.984 60.0624 16.44C59.6944 15.896 59.5104 15.28 59.5104 14.592C59.5104 13.728 59.7264 13.048 60.1584 12.552C60.6064 12.04 61.3344 11.68 62.3424 11.472C63.3664 11.248 64.7424 11.136 66.4704 11.136H67.5984V12.624H66.4944C65.3424 12.624 64.4304 12.68 63.7584 12.792C63.0864 12.904 62.6064 13.096 62.3184 13.368C62.0464 13.624 61.9104 13.984 61.9104 14.448C61.9104 15.056 62.1184 15.552 62.5344 15.936C62.9504 16.304 63.5264 16.488 64.2624 16.488C64.8544 16.488 65.3744 16.352 65.8224 16.08C66.2704 15.792 66.6224 15.408 66.8784 14.928C67.1504 14.448 67.2864 13.896 67.2864 13.272V10.512C67.2864 9.6 67.0944 8.944 66.7104 8.544C66.3264 8.144 65.6944 7.944 64.8144 7.944C64.3024 7.944 63.7664 8.008 63.2064 8.136C62.6624 8.264 62.0944 8.48 61.5024 8.784C61.2304 8.912 60.9984 8.952 60.8064 8.904C60.6144 8.856 60.4624 8.752 60.3504 8.592C60.2384 8.416 60.1744 8.232 60.1584 8.04C60.1584 7.832 60.2064 7.632 60.3024 7.44C60.4144 7.248 60.5984 7.104 60.8544 7.008C61.5584 6.672 62.2544 6.432 62.9424 6.288C63.6304 6.144 64.2784 6.072 64.8864 6.072C65.9584 6.072 66.8384 6.24 67.5264 6.576C68.2304 6.912 68.7504 7.424 69.0864 8.112C69.4224 8.8 69.5904 9.688 69.5904 10.776V16.944C69.5904 17.328 69.4944 17.632 69.3024 17.856C69.1104 18.064 68.8304 18.168 68.4624 18.168C68.1104 18.168 67.8304 18.064 67.6224 17.856C67.4144 17.632 67.3104 17.328 67.3104 16.944V15.384H67.5264C67.3984 15.976 67.1584 16.488 66.8064 16.92C66.4704 17.336 66.0464 17.656 65.5344 17.88C65.0224 18.104 64.4384 18.216 63.7824 18.216ZM73.649 18.168C73.265 18.168 72.969 18.064 72.761 17.856C72.553 17.632 72.449 17.328 72.449 16.944V7.344C72.449 6.944 72.553 6.64 72.761 6.432C72.969 6.224 73.257 6.12 73.625 6.12C74.009 6.12 74.297 6.224 74.489 6.432C74.697 6.64 74.801 6.944 74.801 7.344V9.216L74.537 8.784C74.889 7.888 75.441 7.216 76.193 6.768C76.945 6.304 77.809 6.072 78.785 6.072C79.713 6.072 80.481 6.248 81.089 6.6C81.713 6.936 82.177 7.456 82.481 8.16C82.785 8.848 82.937 9.72 82.937 10.776V16.944C82.937 17.328 82.833 17.632 82.625 17.856C82.417 18.064 82.121 18.168 81.737 18.168C81.337 18.168 81.033 18.064 80.825 17.856C80.617 17.632 80.513 17.328 80.513 16.944V10.92C80.513 9.912 80.313 9.176 79.913 8.712C79.529 8.248 78.921 8.016 78.089 8.016C77.113 8.016 76.329 8.32 75.737 8.928C75.161 9.536 74.873 10.352 74.873 11.376V16.944C74.873 17.76 74.465 18.168 73.649 18.168ZM90.2611 18.216C89.2371 18.216 88.3331 17.976 87.5491 17.496C86.7811 17 86.1811 16.296 85.7491 15.384C85.3171 14.456 85.1011 13.376 85.1011 12.144C85.1011 10.88 85.3171 9.8 85.7491 8.904C86.1811 8.008 86.7811 7.312 87.5491 6.816C88.3331 6.32 89.2371 6.072 90.2611 6.072C91.2851 6.072 92.1651 6.328 92.9011 6.84C93.6531 7.336 94.1571 8.008 94.4131 8.856H94.1491V2.136C94.1491 1.736 94.2531 1.432 94.4611 1.224C94.6691 1.016 94.9651 0.912 95.3491 0.912C95.7331 0.912 96.0291 1.016 96.2371 1.224C96.4611 1.432 96.5731 1.736 96.5731 2.136V16.944C96.5731 17.328 96.4691 17.632 96.2611 17.856C96.0531 18.064 95.7571 18.168 95.3731 18.168C94.9891 18.168 94.6931 18.064 94.4851 17.856C94.2771 17.632 94.1731 17.328 94.1731 16.944V14.832L94.4371 15.36C94.1811 16.224 93.6771 16.92 92.9251 17.448C92.1891 17.96 91.3011 18.216 90.2611 18.216ZM90.8851 16.344C91.5411 16.344 92.1171 16.184 92.6131 15.864C93.1091 15.544 93.4931 15.072 93.7651 14.448C94.0531 13.824 94.1971 13.056 94.1971 12.144C94.1971 10.768 93.8931 9.728 93.2851 9.024C92.6771 8.32 91.8771 7.968 90.8851 7.968C90.2131 7.968 89.6291 8.128 89.1331 8.448C88.6371 8.752 88.2451 9.216 87.9571 9.84C87.6851 10.464 87.5491 11.232 87.5491 12.144C87.5491 13.504 87.8531 14.544 88.4611 15.264C89.0691 15.984 89.8771 16.344 90.8851 16.344ZM103.241 18.216C102.425 18.216 101.689 18.056 101.033 17.736C100.393 17.416 99.8888 16.984 99.5208 16.44C99.1528 15.896 98.9688 15.28 98.9688 14.592C98.9688 13.728 99.1848 13.048 99.6168 12.552C100.065 12.04 100.793 11.68 101.801 11.472C102.825 11.248 104.201 11.136 105.929 11.136H107.057V12.624H105.953C104.801 12.624 103.889 12.68 103.217 12.792C102.545 12.904 102.065 13.096 101.777 13.368C101.505 13.624 101.369 13.984 101.369 14.448C101.369 15.056 101.577 15.552 101.993 15.936C102.409 16.304 102.985 16.488 103.721 16.488C104.313 16.488 104.833 16.352 105.281 16.08C105.729 15.792 106.081 15.408 106.337 14.928C106.609 14.448 106.745 13.896 106.745 13.272V10.512C106.745 9.6 106.553 8.944 106.169 8.544C105.785 8.144 105.153 7.944 104.273 7.944C103.761 7.944 103.225 8.008 102.665 8.136C102.121 8.264 101.553 8.48 100.961 8.784C100.689 8.912 100.457 8.952 100.265 8.904C100.073 8.856 99.9208 8.752 99.8088 8.592C99.6968 8.416 99.6328 8.232 99.6168 8.04C99.6168 7.832 99.6648 7.632 99.7608 7.44C99.8728 7.248 100.057 7.104 100.313 7.008C101.017 6.672 101.713 6.432 102.401 6.288C103.089 6.144 103.737 6.072 104.345 6.072C105.417 6.072 106.297 6.24 106.985 6.576C107.689 6.912 108.209 7.424 108.545 8.112C108.881 8.8 109.049 9.688 109.049 10.776V16.944C109.049 17.328 108.953 17.632 108.761 17.856C108.569 18.064 108.289 18.168 107.921 18.168C107.569 18.168 107.289 18.064 107.081 17.856C106.873 17.632 106.769 17.328 106.769 16.944V15.384H106.985C106.857 15.976 106.617 16.488 106.265 16.92C105.929 17.336 105.505 17.656 104.993 17.88C104.481 18.104 103.897 18.216 103.241 18.216ZM117.211 22.536C116.347 22.536 115.507 22.448 114.691 22.272C113.891 22.096 113.163 21.808 112.507 21.408C112.267 21.28 112.107 21.12 112.027 20.928C111.947 20.752 111.923 20.568 111.955 20.376C112.003 20.184 112.091 20.016 112.219 19.872C112.347 19.728 112.499 19.632 112.675 19.584C112.867 19.536 113.067 19.568 113.275 19.68C113.979 20.064 114.643 20.32 115.267 20.448C115.907 20.592 116.499 20.664 117.043 20.664C118.163 20.664 119.003 20.376 119.563 19.8C120.123 19.24 120.403 18.408 120.403 17.304V14.856H120.619C120.379 15.736 119.875 16.432 119.107 16.944C118.339 17.456 117.451 17.712 116.443 17.712C115.387 17.712 114.467 17.472 113.683 16.992C112.899 16.496 112.291 15.816 111.859 14.952C111.427 14.072 111.211 13.048 111.211 11.88C111.211 11 111.331 10.208 111.571 9.504C111.827 8.8 112.179 8.192 112.627 7.68C113.091 7.168 113.643 6.776 114.283 6.504C114.939 6.216 115.659 6.072 116.443 6.072C117.467 6.072 118.355 6.328 119.107 6.84C119.875 7.352 120.371 8.048 120.595 8.928L120.355 9.336V7.344C120.355 6.944 120.459 6.64 120.667 6.432C120.891 6.224 121.187 6.12 121.555 6.12C121.939 6.12 122.235 6.224 122.443 6.432C122.651 6.64 122.755 6.944 122.755 7.344V17.016C122.755 18.84 122.283 20.216 121.339 21.144C120.395 22.072 119.019 22.536 117.211 22.536ZM117.019 15.816C117.723 15.816 118.323 15.656 118.819 15.336C119.315 15.016 119.699 14.56 119.971 13.968C120.243 13.376 120.379 12.68 120.379 11.88C120.379 10.68 120.075 9.728 119.467 9.024C118.875 8.32 118.059 7.968 117.019 7.968C116.331 7.968 115.739 8.128 115.243 8.448C114.747 8.768 114.355 9.224 114.067 9.816C113.795 10.392 113.659 11.08 113.659 11.88C113.659 13.096 113.963 14.056 114.571 14.76C115.179 15.464 115.995 15.816 117.019 15.816ZM131.173 18.216C129.893 18.216 128.789 17.976 127.861 17.496C126.949 17 126.237 16.304 125.725 15.408C125.229 14.496 124.981 13.416 124.981 12.168C124.981 10.952 125.229 9.888 125.725 8.976C126.221 8.064 126.901 7.352 127.765 6.84C128.629 6.328 129.613 6.072 130.717 6.072C131.533 6.072 132.261 6.208 132.901 6.48C133.541 6.736 134.085 7.12 134.533 7.632C134.997 8.128 135.341 8.736 135.565 9.456C135.805 10.176 135.925 10.984 135.925 11.88C135.925 12.152 135.845 12.36 135.685 12.504C135.525 12.632 135.285 12.696 134.965 12.696H126.901V11.208H134.293L133.885 11.544C133.885 10.744 133.765 10.064 133.525 9.504C133.301 8.944 132.957 8.52 132.493 8.232C132.045 7.928 131.485 7.776 130.813 7.776C130.061 7.776 129.421 7.952 128.893 8.304C128.381 8.656 127.989 9.144 127.717 9.768C127.445 10.392 127.309 11.12 127.309 11.952V12.096C127.309 13.504 127.637 14.568 128.293 15.288C128.965 15.992 129.933 16.344 131.197 16.344C131.677 16.344 132.181 16.28 132.709 16.152C133.253 16.024 133.765 15.808 134.245 15.504C134.517 15.344 134.757 15.272 134.965 15.288C135.189 15.304 135.365 15.376 135.493 15.504C135.637 15.632 135.725 15.792 135.757 15.984C135.789 16.176 135.757 16.376 135.661 16.584C135.565 16.776 135.397 16.952 135.157 17.112C134.613 17.48 133.981 17.76 133.261 17.952C132.541 18.128 131.845 18.216 131.173 18.216ZM142.192 18.216C141.488 18.216 140.76 18.136 140.008 17.976C139.272 17.816 138.592 17.544 137.968 17.16C137.76 17.016 137.616 16.856 137.536 16.68C137.456 16.504 137.424 16.328 137.44 16.152C137.472 15.96 137.544 15.8 137.656 15.672C137.784 15.528 137.936 15.44 138.112 15.408C138.304 15.376 138.504 15.416 138.712 15.528C139.336 15.88 139.936 16.128 140.512 16.272C141.088 16.4 141.656 16.464 142.216 16.464C143.064 16.464 143.704 16.312 144.136 16.008C144.568 15.704 144.784 15.296 144.784 14.784C144.784 14.368 144.64 14.048 144.352 13.824C144.064 13.584 143.632 13.4 143.056 13.272L140.776 12.816C139.784 12.608 139.032 12.24 138.52 11.712C138.008 11.184 137.752 10.512 137.752 9.696C137.752 8.96 137.952 8.32 138.352 7.776C138.752 7.232 139.312 6.816 140.032 6.528C140.752 6.224 141.584 6.072 142.528 6.072C143.232 6.072 143.896 6.16 144.52 6.336C145.144 6.512 145.72 6.776 146.248 7.128C146.456 7.24 146.592 7.392 146.656 7.584C146.72 7.76 146.728 7.936 146.68 8.112C146.648 8.288 146.568 8.448 146.44 8.592C146.312 8.72 146.152 8.8 145.96 8.832C145.784 8.848 145.584 8.8 145.36 8.688C144.88 8.384 144.4 8.168 143.92 8.04C143.456 7.912 142.992 7.848 142.528 7.848C141.68 7.848 141.04 8.008 140.608 8.328C140.192 8.632 139.984 9.048 139.984 9.576C139.984 9.976 140.112 10.304 140.368 10.56C140.624 10.816 141.024 11 141.568 11.112L143.848 11.568C144.888 11.776 145.672 12.128 146.2 12.624C146.744 13.12 147.016 13.792 147.016 14.64C147.016 15.744 146.576 16.616 145.696 17.256C144.816 17.896 143.648 18.216 142.192 18.216Z" fill="#252121"/>
</svg>
