<svg width="65" height="15" viewBox="0 0 65 15" fill="none" xmlns="http://www.w3.org/2000/svg">
<path d="M5.676 12.144C4.60933 12.144 3.68667 11.9093 2.908 11.44C2.12933 10.96 1.52133 10.288 1.084 9.424C0.657333 8.54933 0.444 7.52533 0.444 6.352C0.444 5.46667 0.566667 4.672 0.812 3.968C1.05733 3.25333 1.404 2.64533 1.852 2.144C2.31067 1.632 2.86 1.24267 3.5 0.976C4.15067 0.709333 4.876 0.575999 5.676 0.575999C6.74267 0.575999 7.66533 0.810666 8.444 1.28C9.22267 1.74933 9.82533 2.416 10.252 3.28C10.6787 4.144 10.892 5.16267 10.892 6.336C10.892 7.22133 10.7693 8.02133 10.524 8.736C10.2787 9.45067 9.92667 10.064 9.468 10.576C9.02 11.088 8.476 11.4773 7.836 11.744C7.196 12.0107 6.476 12.144 5.676 12.144ZM5.676 10.832C6.444 10.832 7.1 10.656 7.644 10.304C8.188 9.952 8.604 9.44 8.892 8.768C9.19067 8.096 9.34 7.29067 9.34 6.352C9.34 4.93333 9.02 3.83467 8.38 3.056C7.75067 2.27733 6.84933 1.888 5.676 1.888C4.908 1.888 4.24667 2.064 3.692 2.416C3.148 2.75733 2.732 3.264 2.444 3.936C2.156 4.59733 2.012 5.40267 2.012 6.352C2.012 7.76 2.332 8.85867 2.972 9.648C3.612 10.4373 4.51333 10.832 5.676 10.832ZM15.4758 12.144C14.8464 12.144 14.3184 12.0267 13.8918 11.792C13.4758 11.5573 13.1664 11.2107 12.9638 10.752C12.7611 10.2933 12.6598 9.71733 12.6598 9.024V4.832C12.6598 4.58667 12.7184 4.40533 12.8358 4.288C12.9638 4.16 13.1451 4.096 13.3798 4.096C13.6144 4.096 13.7958 4.16 13.9238 4.288C14.0518 4.40533 14.1158 4.58667 14.1158 4.832V9.024C14.1158 9.68533 14.2491 10.176 14.5158 10.496C14.7824 10.8053 15.2038 10.96 15.7798 10.96C16.4198 10.96 16.9371 10.7467 17.3318 10.32C17.7371 9.89333 17.9398 9.328 17.9398 8.624V4.832C17.9398 4.58667 17.9984 4.40533 18.1158 4.288C18.2438 4.16 18.4251 4.096 18.6598 4.096C18.8944 4.096 19.0758 4.16 19.2038 4.288C19.3318 4.40533 19.3958 4.58667 19.3958 4.832V11.36C19.3958 11.8613 19.1611 12.112 18.6918 12.112C18.4571 12.112 18.2758 12.048 18.1478 11.92C18.0304 11.792 17.9718 11.6053 17.9718 11.36V9.968L18.1798 10.24C17.9664 10.8587 17.6198 11.3333 17.1398 11.664C16.6704 11.984 16.1158 12.144 15.4758 12.144ZM22.1706 12.112C21.9253 12.112 21.7386 12.048 21.6106 11.92C21.4826 11.792 21.4186 11.6053 21.4186 11.36V4.832C21.4186 4.58667 21.4826 4.40533 21.6106 4.288C21.7386 4.16 21.9146 4.096 22.1386 4.096C22.3626 4.096 22.5333 4.16 22.6506 4.288C22.7786 4.40533 22.8426 4.58667 22.8426 4.832V6.064H22.6826C22.8533 5.424 23.1733 4.93867 23.6426 4.608C24.112 4.27733 24.704 4.09067 25.4186 4.048C25.5893 4.03733 25.728 4.08 25.8346 4.176C25.9413 4.26133 26 4.41067 26.0106 4.624C26.0213 4.82667 25.9733 4.992 25.8666 5.12C25.76 5.23733 25.5946 5.30667 25.3706 5.328L25.0826 5.344C24.3786 5.41867 23.8346 5.648 23.4506 6.032C23.0773 6.416 22.8906 6.944 22.8906 7.616V11.36C22.8906 11.6053 22.8266 11.792 22.6986 11.92C22.5813 12.048 22.4053 12.112 22.1706 12.112ZM33.4822 12.144C33.0022 12.144 32.5169 12.0907 32.0262 11.984C31.5462 11.8667 31.0929 11.6693 30.6662 11.392C30.5489 11.3173 30.4636 11.2267 30.4102 11.12C30.3676 11.0027 30.3516 10.8907 30.3622 10.784C30.3836 10.6667 30.4316 10.5653 30.5062 10.48C30.5809 10.3947 30.6716 10.3467 30.7782 10.336C30.8956 10.3147 31.0182 10.3413 31.1462 10.416C31.5622 10.6507 31.9622 10.816 32.3462 10.912C32.7409 11.008 33.1302 11.056 33.5142 11.056C34.1009 11.056 34.5436 10.9493 34.8422 10.736C35.1409 10.5227 35.2902 10.24 35.2902 9.888C35.2902 9.58933 35.1889 9.36 34.9862 9.2C34.7942 9.02933 34.4902 8.90133 34.0742 8.816L32.5862 8.512C31.9249 8.36267 31.4236 8.11733 31.0822 7.776C30.7516 7.424 30.5862 6.976 30.5862 6.432C30.5862 5.952 30.7142 5.536 30.9702 5.184C31.2369 4.82133 31.6049 4.544 32.0742 4.352C32.5436 4.16 33.0822 4.064 33.6902 4.064C34.1596 4.064 34.6022 4.128 35.0182 4.256C35.4449 4.37333 35.8289 4.55467 36.1702 4.8C36.2982 4.87467 36.3782 4.97067 36.4102 5.088C36.4529 5.19467 36.4582 5.30667 36.4262 5.424C36.4049 5.53067 36.3569 5.62133 36.2822 5.696C36.2076 5.77067 36.1116 5.81867 35.9942 5.84C35.8769 5.85067 35.7489 5.81867 35.6102 5.744C35.3009 5.53067 34.9809 5.38133 34.6502 5.296C34.3302 5.2 34.0102 5.152 33.6902 5.152C33.1142 5.152 32.6769 5.264 32.3782 5.488C32.0902 5.712 31.9462 6.00533 31.9462 6.368C31.9462 6.64533 32.0316 6.87467 32.2022 7.056C32.3836 7.23733 32.6662 7.37067 33.0502 7.456L34.5382 7.76C35.2316 7.90933 35.7542 8.14933 36.1062 8.48C36.4582 8.8 36.6342 9.23733 36.6342 9.792C36.6342 10.5173 36.3462 11.0933 35.7702 11.52C35.2049 11.936 34.4422 12.144 33.4822 12.144ZM41.3625 12.144C40.7332 12.144 40.2052 12.032 39.7785 11.808C39.3625 11.584 39.0478 11.2587 38.8345 10.832C38.6318 10.4053 38.5305 9.88267 38.5305 9.264V5.328H37.5065C37.3145 5.328 37.1652 5.28 37.0585 5.184C36.9518 5.07733 36.8985 4.93867 36.8985 4.768C36.8985 4.58667 36.9518 4.448 37.0585 4.352C37.1652 4.256 37.3145 4.208 37.5065 4.208H38.5305V2.464C38.5305 2.21867 38.5945 2.03733 38.7225 1.92C38.8505 1.792 39.0318 1.728 39.2665 1.728C39.5012 1.728 39.6772 1.792 39.7945 1.92C39.9225 2.03733 39.9865 2.21867 39.9865 2.464V4.208H41.9225C42.1252 4.208 42.2798 4.256 42.3865 4.352C42.4932 4.448 42.5465 4.58667 42.5465 4.768C42.5465 4.93867 42.4932 5.07733 42.3865 5.184C42.2798 5.28 42.1252 5.328 41.9225 5.328H39.9865V9.136C39.9865 9.72267 40.1092 10.1653 40.3545 10.464C40.5998 10.7627 41.0052 10.912 41.5705 10.912C41.7732 10.912 41.9438 10.896 42.0825 10.864C42.2212 10.8213 42.3438 10.8 42.4505 10.8C42.5465 10.7893 42.6265 10.8213 42.6905 10.896C42.7652 10.9707 42.8025 11.1093 42.8025 11.312C42.8025 11.4613 42.7758 11.6 42.7225 11.728C42.6798 11.8453 42.5892 11.9253 42.4505 11.968C42.3225 12.0107 42.1518 12.048 41.9385 12.08C41.7252 12.1227 41.5332 12.144 41.3625 12.144ZM46.7788 12.144C46.0108 12.144 45.3441 11.9787 44.7788 11.648C44.2134 11.3173 43.7761 10.848 43.4668 10.24C43.1574 9.632 43.0028 8.91733 43.0028 8.096C43.0028 7.47733 43.0881 6.92267 43.2588 6.432C43.4401 5.93067 43.6961 5.504 44.0268 5.152C44.3574 4.8 44.7521 4.53333 45.2108 4.352C45.6801 4.16 46.2028 4.064 46.7788 4.064C47.5468 4.064 48.2134 4.22933 48.7788 4.56C49.3441 4.89067 49.7814 5.36 50.0908 5.968C50.4001 6.56533 50.5548 7.27467 50.5548 8.096C50.5548 8.71467 50.4641 9.27467 50.2828 9.776C50.1121 10.2773 49.8614 10.704 49.5308 11.056C49.2001 11.408 48.8001 11.68 48.3308 11.872C47.8721 12.0533 47.3548 12.144 46.7788 12.144ZM46.7788 10.992C47.2481 10.992 47.6534 10.88 47.9948 10.656C48.3468 10.432 48.6134 10.1067 48.7948 9.68C48.9868 9.25333 49.0828 8.72533 49.0828 8.096C49.0828 7.15733 48.8748 6.44267 48.4588 5.952C48.0428 5.46133 47.4828 5.216 46.7788 5.216C46.3201 5.216 45.9148 5.328 45.5628 5.552C45.2214 5.76533 44.9548 6.08533 44.7628 6.512C44.5708 6.93867 44.4748 7.46667 44.4748 8.096C44.4748 9.03467 44.6828 9.75467 45.0988 10.256C45.5254 10.7467 46.0854 10.992 46.7788 10.992ZM52.8519 12.112C52.6065 12.112 52.4199 12.048 52.2919 11.92C52.1639 11.792 52.0999 11.6053 52.0999 11.36V4.832C52.0999 4.58667 52.1639 4.40533 52.2919 4.288C52.4199 4.16 52.5959 4.096 52.8199 4.096C53.0439 4.096 53.2145 4.16 53.3319 4.288C53.4599 4.40533 53.5239 4.58667 53.5239 4.832V6.064H53.3639C53.5345 5.424 53.8545 4.93867 54.3239 4.608C54.7932 4.27733 55.3852 4.09067 56.0999 4.048C56.2705 4.03733 56.4092 4.08 56.5159 4.176C56.6225 4.26133 56.6812 4.41067 56.6919 4.624C56.7025 4.82667 56.6545 4.992 56.5479 5.12C56.4412 5.23733 56.2759 5.30667 56.0519 5.328L55.7639 5.344C55.0599 5.41867 54.5159 5.648 54.1319 6.032C53.7585 6.416 53.5719 6.944 53.5719 7.616V11.36C53.5719 11.6053 53.5079 11.792 53.3799 11.92C53.2625 12.048 53.0865 12.112 52.8519 12.112ZM59.9 14.992C59.7293 14.992 59.5853 14.944 59.468 14.848C59.3613 14.7627 59.2973 14.64 59.276 14.48C59.2653 14.3307 59.2973 14.1707 59.372 14L60.46 11.536V12.144L57.436 5.104C57.3613 4.92267 57.3347 4.75733 57.356 4.608C57.3773 4.45867 57.4467 4.336 57.564 4.24C57.692 4.144 57.8627 4.096 58.076 4.096C58.2573 4.096 58.4013 4.13867 58.508 4.224C58.6147 4.30933 58.716 4.45867 58.812 4.672L61.324 10.864H60.876L63.436 4.672C63.5213 4.45867 63.6227 4.30933 63.74 4.224C63.8573 4.13867 64.0173 4.096 64.22 4.096C64.4013 4.096 64.54 4.144 64.636 4.24C64.7427 4.336 64.8067 4.45867 64.828 4.608C64.8493 4.75733 64.8173 4.91733 64.732 5.088L60.7 14.416C60.5933 14.64 60.4813 14.7893 60.364 14.864C60.2573 14.9493 60.1027 14.992 59.9 14.992Z" fill="#252121"/>
</svg>
