<svg width="528" height="110" viewBox="0 0 528 110" fill="none" xmlns="http://www.w3.org/2000/svg">
<path d="M19.1268 41.0982C15.3548 41.0982 12.0451 40.2661 9.19763 38.602C6.38713 36.9379 4.2053 34.6081 2.65212 31.6127C1.09895 28.5803 0.322367 25.0302 0.322367 20.9624C0.322367 17.893 0.76613 15.138 1.65366 12.6973C2.54118 10.2196 3.79851 8.11176 5.42564 6.37369C7.08976 4.59864 9.0682 3.24886 11.361 2.32435C13.6907 1.36286 16.2794 0.882121 19.1268 0.882121C22.9358 0.882121 26.2455 1.71418 29.056 3.37829C31.8665 5.00542 34.0484 7.31669 35.6015 10.3121C37.1547 13.3075 37.9313 16.8391 37.9313 20.9069C37.9313 23.9763 37.4875 26.7498 36.6 29.2275C35.7125 31.7052 34.4367 33.8315 32.7726 35.6066C31.1454 37.3816 29.167 38.7499 26.8372 39.7114C24.5444 40.6359 21.9743 41.0982 19.1268 41.0982ZM19.1268 34.9964C21.5306 34.9964 23.5645 34.4417 25.2286 33.3323C26.9297 32.2229 28.224 30.6143 29.1115 28.5064C30.036 26.3985 30.4983 23.8838 30.4983 20.9624C30.4983 16.5248 29.4998 13.0856 27.5029 10.6449C25.5429 8.20421 22.7509 6.98387 19.1268 6.98387C16.7601 6.98387 14.7262 7.53857 13.0251 8.64798C11.324 9.7204 10.0112 11.3106 9.08669 13.4184C8.19916 15.4893 7.7554 18.004 7.7554 20.9624C7.7554 25.3631 8.75387 28.8022 10.7508 31.2799C12.7477 33.7576 15.5397 34.9964 19.1268 34.9964ZM52.0849 41.0982C49.8291 41.0982 47.9616 40.6914 46.4824 39.8778C45.0032 39.0273 43.8938 37.7699 43.1542 36.1058C42.4516 34.4417 42.1002 32.3708 42.1002 29.8931V16.4693C42.1002 15.2859 42.3961 14.4169 42.9878 13.8622C43.5795 13.2705 44.43 12.9747 45.5394 12.9747C46.6488 12.9747 47.4994 13.2705 48.091 13.8622C48.7197 14.4169 49.034 15.2859 49.034 16.4693V30.0041C49.034 31.9271 49.4223 33.3508 50.1989 34.2753C50.9755 35.1998 52.2143 35.6621 53.9154 35.6621C55.7645 35.6621 57.2806 35.0334 58.464 33.7761C59.6474 32.4818 60.2391 30.7807 60.2391 28.6728V16.4693C60.2391 15.2859 60.5349 14.4169 61.1266 13.8622C61.7183 13.2705 62.5688 12.9747 63.6782 12.9747C64.7876 12.9747 65.6382 13.2705 66.2299 13.8622C66.8585 14.4169 67.1729 15.2859 67.1729 16.4693V37.4371C67.1729 39.8039 66.045 40.9872 63.7892 40.9872C62.7167 40.9872 61.8847 40.6914 61.293 40.0997C60.7013 39.471 60.4055 38.5835 60.4055 37.4371V33.2214L61.1821 34.8855C60.4055 36.8824 59.2221 38.4171 57.632 39.4895C56.0788 40.5619 54.2298 41.0982 52.0849 41.0982ZM75.7209 40.9872C74.5745 40.9872 73.687 40.6914 73.0584 40.0997C72.4667 39.471 72.1708 38.5835 72.1708 37.4371V16.4693C72.1708 15.3229 72.4667 14.4539 73.0584 13.8622C73.65 13.2705 74.4821 12.9747 75.5545 12.9747C76.627 12.9747 77.459 13.2705 78.0507 13.8622C78.6424 14.4539 78.9382 15.3229 78.9382 16.4693V19.9639H78.3835C78.9012 17.7451 79.9182 16.0625 81.4344 14.9161C82.9506 13.7697 84.966 13.0856 87.4807 12.8637C88.2572 12.7898 88.8674 12.9932 89.3112 13.4739C89.7919 13.9177 90.0693 14.6203 90.1432 15.5818C90.2172 16.5063 89.9953 17.2644 89.4776 17.8561C88.9969 18.4108 88.2572 18.7436 87.2588 18.8545L86.0384 18.9655C83.7826 19.1874 82.0815 19.89 80.9352 21.0733C79.7888 22.2197 79.2156 23.8469 79.2156 25.9547V37.4371C79.2156 38.5835 78.9197 39.471 78.328 40.0997C77.7364 40.6914 76.8673 40.9872 75.7209 40.9872ZM120.157 41.0982C117.865 41.0982 115.849 40.525 114.111 39.3786C112.41 38.2322 111.282 36.6975 110.728 34.7745L111.338 33.3878V37.4371C111.338 38.5835 111.042 39.471 110.45 40.0997C109.858 40.6914 109.026 40.9872 107.954 40.9872C106.845 40.9872 105.994 40.6914 105.402 40.0997C104.811 39.471 104.515 38.5835 104.515 37.4371V4.4877C104.515 3.34131 104.811 2.47227 105.402 1.88059C105.994 1.2889 106.845 0.99306 107.954 0.99306C109.063 0.99306 109.914 1.2889 110.506 1.88059C111.134 2.47227 111.449 3.34131 111.449 4.4877V18.91H110.783C111.375 17.098 112.521 15.6372 114.222 14.5278C115.923 13.4184 117.902 12.8637 120.157 12.8637C122.561 12.8637 124.651 13.4369 126.426 14.5833C128.201 15.7297 129.587 17.3568 130.586 19.4647C131.584 21.5356 132.084 24.0318 132.084 26.9532C132.084 29.8377 131.584 32.3523 130.586 34.4972C129.587 36.6051 128.182 38.2322 126.37 39.3786C124.595 40.525 122.524 41.0982 120.157 41.0982ZM118.216 35.8285C119.584 35.8285 120.786 35.4957 121.822 34.83C122.857 34.1644 123.652 33.1844 124.207 31.8901C124.799 30.5588 125.094 28.9132 125.094 26.9532C125.094 23.9948 124.466 21.7945 123.208 20.3522C121.951 18.873 120.287 18.1334 118.216 18.1334C116.848 18.1334 115.646 18.4662 114.61 19.1319C113.575 19.7605 112.761 20.7405 112.17 22.0718C111.615 23.3661 111.338 24.9933 111.338 26.9532C111.338 29.8747 111.966 32.0935 113.224 33.6097C114.481 35.0889 116.145 35.8285 118.216 35.8285ZM144.487 41.0982C142.527 41.0982 140.771 40.7284 139.218 39.9888C137.701 39.2122 136.5 38.1767 135.612 36.8824C134.762 35.5881 134.336 34.1274 134.336 32.5002C134.336 30.5033 134.854 28.9317 135.889 27.7853C136.925 26.6019 138.607 25.7513 140.937 25.2336C143.267 24.7159 146.392 24.457 150.312 24.457H153.085V28.4509H150.367C148.074 28.4509 146.244 28.5619 144.876 28.7837C143.507 29.0056 142.527 29.3939 141.936 29.9486C141.381 30.4663 141.104 31.2059 141.104 32.1674C141.104 33.3878 141.529 34.3862 142.379 35.1628C143.23 35.9394 144.413 36.3277 145.93 36.3277C147.15 36.3277 148.222 36.0504 149.147 35.4957C150.108 34.904 150.866 34.1089 151.421 33.1104C151.976 32.112 152.253 30.9656 152.253 29.6713V23.2922C152.253 21.4431 151.846 20.1119 151.033 19.2983C150.219 18.4847 148.851 18.0779 146.928 18.0779C145.856 18.0779 144.691 18.2074 143.433 18.4662C142.213 18.7251 140.919 19.1689 139.55 19.7975C138.848 20.1303 138.219 20.2228 137.664 20.0749C137.147 19.927 136.74 19.6311 136.444 19.1874C136.148 18.7066 136 18.1889 136 17.6342C136 17.0795 136.148 16.5433 136.444 16.0255C136.74 15.4708 137.239 15.0641 137.942 14.8052C139.643 14.1026 141.27 13.6033 142.823 13.3075C144.413 13.0116 145.856 12.8637 147.15 12.8637C149.812 12.8637 151.994 13.2705 153.695 14.0841C155.433 14.8976 156.728 16.1365 157.578 17.8006C158.429 19.4277 158.854 21.5356 158.854 24.1242V37.4371C158.854 38.5835 158.577 39.471 158.022 40.0997C157.467 40.6914 156.672 40.9872 155.637 40.9872C154.601 40.9872 153.788 40.6914 153.196 40.0997C152.641 39.471 152.364 38.5835 152.364 37.4371V34.7745H152.808C152.549 36.0688 152.031 37.1967 151.255 38.1582C150.515 39.0827 149.572 39.8039 148.426 40.3216C147.279 40.8393 145.967 41.0982 144.487 41.0982ZM167.112 40.9872C166.003 40.9872 165.152 40.6914 164.561 40.0997C163.969 39.471 163.673 38.5835 163.673 37.4371V16.4693C163.673 15.3229 163.969 14.4539 164.561 13.8622C165.152 13.2705 165.984 12.9747 167.057 12.9747C168.129 12.9747 168.961 13.2705 169.553 13.8622C170.145 14.4539 170.441 15.3229 170.441 16.4693V20.2413L169.83 18.8545C170.644 16.8946 171.901 15.4154 173.602 14.4169C175.34 13.3815 177.3 12.8637 179.482 12.8637C181.664 12.8637 183.458 13.2705 184.863 14.0841C186.268 14.8976 187.322 16.1365 188.025 17.8006C188.727 19.4277 189.079 21.4986 189.079 24.0133V37.4371C189.079 38.5835 188.783 39.471 188.191 40.0997C187.599 40.6914 186.749 40.9872 185.639 40.9872C184.53 40.9872 183.661 40.6914 183.032 40.0997C182.441 39.471 182.145 38.5835 182.145 37.4371V24.3461C182.145 22.2382 181.738 20.7035 180.924 19.7421C180.148 18.7806 178.928 18.2998 177.263 18.2998C175.229 18.2998 173.602 18.947 172.382 20.2413C171.199 21.4986 170.607 23.1812 170.607 25.2891V37.4371C170.607 39.8039 169.442 40.9872 167.112 40.9872ZM204.331 41.0982C201.964 41.0982 199.875 40.525 198.063 39.3786C196.288 38.2322 194.901 36.6051 193.902 34.4972C192.904 32.3523 192.405 29.8377 192.405 26.9532C192.405 24.0318 192.904 21.5356 193.902 19.4647C194.901 17.3568 196.288 15.7297 198.063 14.5833C199.875 13.4369 201.964 12.8637 204.331 12.8637C206.587 12.8637 208.547 13.4184 210.211 14.5278C211.912 15.6372 213.058 17.098 213.65 18.91H213.04V4.4877C213.04 3.34131 213.335 2.47227 213.927 1.88059C214.519 1.2889 215.369 0.99306 216.479 0.99306C217.588 0.99306 218.439 1.2889 219.03 1.88059C219.659 2.47227 219.973 3.34131 219.973 4.4877V37.4371C219.973 38.5835 219.678 39.471 219.086 40.0997C218.494 40.6914 217.644 40.9872 216.534 40.9872C215.425 40.9872 214.574 40.6914 213.983 40.0997C213.391 39.471 213.095 38.5835 213.095 37.4371V33.1104L213.705 34.7745C213.151 36.6975 212.023 38.2322 210.322 39.3786C208.621 40.525 206.624 41.0982 204.331 41.0982ZM206.272 35.8285C207.641 35.8285 208.842 35.4957 209.878 34.83C210.913 34.1644 211.708 33.1844 212.263 31.8901C212.855 30.5588 213.151 28.9132 213.151 26.9532C213.151 23.9948 212.522 21.7945 211.265 20.3522C210.007 18.873 208.343 18.1334 206.272 18.1334C204.904 18.1334 203.702 18.4662 202.667 19.1319C201.631 19.7605 200.818 20.7405 200.226 22.0718C199.671 23.3661 199.394 24.9933 199.394 26.9532C199.394 29.8747 200.023 32.0935 201.28 33.6097C202.537 35.0889 204.201 35.8285 206.272 35.8285ZM233.875 41.0982C231.915 41.0982 230.158 40.7284 228.605 39.9888C227.089 39.2122 225.887 38.1767 225 36.8824C224.149 35.5881 223.724 34.1274 223.724 32.5002C223.724 30.5033 224.241 28.9317 225.277 27.7853C226.312 26.6019 227.995 25.7513 230.325 25.2336C232.654 24.7159 235.779 24.457 239.699 24.457H242.473V28.4509H239.755C237.462 28.4509 235.631 28.5619 234.263 28.7837C232.895 29.0056 231.915 29.3939 231.323 29.9486C230.768 30.4663 230.491 31.2059 230.491 32.1674C230.491 33.3878 230.916 34.3862 231.767 35.1628C232.618 35.9394 233.801 36.3277 235.317 36.3277C236.537 36.3277 237.61 36.0504 238.534 35.4957C239.496 34.904 240.254 34.1089 240.809 33.1104C241.363 32.112 241.641 30.9656 241.641 29.6713V23.2922C241.641 21.4431 241.234 20.1119 240.42 19.2983C239.607 18.4847 238.239 18.0779 236.316 18.0779C235.243 18.0779 234.078 18.2074 232.821 18.4662C231.601 18.7251 230.306 19.1689 228.938 19.7975C228.235 20.1303 227.607 20.2228 227.052 20.0749C226.534 19.927 226.127 19.6311 225.832 19.1874C225.536 18.7066 225.388 18.1889 225.388 17.6342C225.388 17.0795 225.536 16.5433 225.832 16.0255C226.127 15.4708 226.627 15.0641 227.329 14.8052C229.03 14.1026 230.658 13.6033 232.211 13.3075C233.801 13.0116 235.243 12.8637 236.537 12.8637C239.2 12.8637 241.382 13.2705 243.083 14.0841C244.821 14.8976 246.115 16.1365 246.966 17.8006C247.816 19.4277 248.242 21.5356 248.242 24.1242V37.4371C248.242 38.5835 247.964 39.471 247.41 40.0997C246.855 40.6914 246.06 40.9872 245.024 40.9872C243.989 40.9872 243.175 40.6914 242.584 40.0997C242.029 39.471 241.752 38.5835 241.752 37.4371V34.7745H242.195C241.937 36.0688 241.419 37.1967 240.642 38.1582C239.903 39.0827 238.96 39.8039 237.813 40.3216C236.667 40.8393 235.354 41.0982 233.875 41.0982ZM265.708 51.0828C263.711 51.0828 261.77 50.8979 259.884 50.5281C258.035 50.1583 256.352 49.5851 254.836 48.8085C254.133 48.4387 253.652 47.995 253.393 47.4773C253.172 46.9595 253.098 46.4233 253.172 45.8686C253.283 45.3509 253.504 44.8886 253.837 44.4819C254.207 44.0751 254.651 43.7977 255.169 43.6498C255.686 43.5019 256.222 43.5758 256.777 43.8717C258.404 44.6852 259.939 45.203 261.381 45.4249C262.86 45.6837 264.118 45.8131 265.153 45.8131C267.631 45.8131 269.48 45.203 270.7 43.9826C271.958 42.7993 272.586 41.0242 272.586 38.6575V33.6651H273.085C272.531 35.5511 271.366 37.0673 269.591 38.2137C267.853 39.3231 265.874 39.8778 263.656 39.8778C261.215 39.8778 259.088 39.3231 257.276 38.2137C255.464 37.0673 254.059 35.4772 253.061 33.4432C252.062 31.4093 251.563 29.0426 251.563 26.343C251.563 24.3091 251.84 22.4786 252.395 20.8515C252.987 19.1874 253.8 17.7636 254.836 16.5802C255.908 15.3969 257.184 14.4909 258.663 13.8622C260.179 13.1965 261.843 12.8637 263.656 12.8637C265.948 12.8637 267.945 13.4369 269.646 14.5833C271.384 15.6927 272.512 17.1719 273.03 19.0209L272.475 20.4077V16.4693C272.475 15.3229 272.771 14.4539 273.363 13.8622C273.991 13.2705 274.842 12.9747 275.914 12.9747C277.024 12.9747 277.874 13.2705 278.466 13.8622C279.058 14.4539 279.354 15.3229 279.354 16.4693V37.8254C279.354 42.2261 278.189 45.5358 275.859 47.7546C273.529 49.9734 270.146 51.0828 265.708 51.0828ZM265.541 34.6081C266.984 34.6081 268.223 34.2753 269.258 33.6097C270.293 32.944 271.089 32.001 271.643 30.7807C272.235 29.5233 272.531 28.0441 272.531 26.343C272.531 23.7914 271.902 21.7945 270.645 20.3522C269.387 18.873 267.686 18.1334 265.541 18.1334C264.099 18.1334 262.86 18.4662 261.825 19.1319C260.79 19.7975 259.976 20.7405 259.384 21.9609C258.83 23.1812 258.552 24.6419 258.552 26.343C258.552 28.8947 259.181 30.9101 260.438 32.3893C261.696 33.8685 263.397 34.6081 265.541 34.6081ZM297.687 41.0982C294.618 41.0982 291.974 40.525 289.755 39.3786C287.536 38.2322 285.817 36.6051 284.596 34.4972C283.413 32.3893 282.821 29.8931 282.821 27.0087C282.821 24.1982 283.395 21.739 284.541 19.6311C285.724 17.5232 287.333 15.8776 289.367 14.6943C291.438 13.4739 293.786 12.8637 296.412 12.8637C298.335 12.8637 300.054 13.1781 301.57 13.8067C303.124 14.4354 304.436 15.3414 305.509 16.5248C306.618 17.7081 307.45 19.1504 308.005 20.8515C308.597 22.5156 308.892 24.4016 308.892 26.5094C308.892 27.1751 308.652 27.6928 308.171 28.0626C307.728 28.3954 307.08 28.5619 306.23 28.5619H288.424V24.568H304.011L303.124 25.4C303.124 23.6989 302.865 22.2752 302.347 21.1288C301.866 19.9824 301.145 19.1134 300.184 18.5217C299.259 17.893 298.094 17.5787 296.689 17.5787C295.136 17.5787 293.805 17.9485 292.695 18.6881C291.623 19.3907 290.791 20.4077 290.199 21.739C289.644 23.0333 289.367 24.5865 289.367 26.3985V26.7868C289.367 29.8192 290.07 32.0935 291.475 33.6097C292.917 35.0889 295.025 35.8285 297.798 35.8285C298.76 35.8285 299.832 35.7175 301.016 35.4957C302.236 35.2368 303.382 34.8115 304.455 34.2198C305.231 33.7761 305.916 33.5912 306.507 33.6651C307.099 33.7021 307.561 33.9055 307.894 34.2753C308.264 34.6451 308.486 35.1074 308.56 35.6621C308.634 36.1798 308.523 36.716 308.227 37.2707C307.968 37.8254 307.506 38.3062 306.84 38.7129C305.546 39.5265 304.048 40.1367 302.347 40.5435C300.683 40.9133 299.13 41.0982 297.687 41.0982ZM322.094 41.0982C320.504 41.0982 318.821 40.9317 317.046 40.5989C315.271 40.2661 313.681 39.6929 312.276 38.8793C311.684 38.5095 311.259 38.0843 311 37.6035C310.778 37.0858 310.686 36.5866 310.723 36.1058C310.797 35.5881 310.981 35.1443 311.277 34.7745C311.61 34.4047 312.017 34.1644 312.498 34.0534C313.015 33.9425 313.57 34.0349 314.162 34.3308C315.641 35.0334 317.028 35.5326 318.322 35.8285C319.616 36.0873 320.892 36.2168 322.149 36.2168C323.925 36.2168 325.237 35.9209 326.088 35.3292C326.975 34.7006 327.419 33.887 327.419 32.8885C327.419 32.038 327.123 31.3908 326.532 30.9471C325.977 30.4663 325.126 30.115 323.98 29.8931L318.433 28.8392C316.14 28.3954 314.384 27.5634 313.163 26.343C311.98 25.0857 311.388 23.4771 311.388 21.5171C311.388 19.7421 311.869 18.2074 312.83 16.9131C313.829 15.6188 315.197 14.6203 316.935 13.9177C318.673 13.215 320.67 12.8637 322.926 12.8637C324.553 12.8637 326.069 13.0486 327.475 13.4184C328.917 13.7513 330.304 14.2875 331.635 15.0271C332.19 15.3229 332.559 15.7112 332.744 16.192C332.966 16.6727 333.022 17.1719 332.911 17.6897C332.8 18.1704 332.578 18.6142 332.245 19.0209C331.912 19.3907 331.487 19.6311 330.969 19.7421C330.489 19.816 329.934 19.7051 329.305 19.4092C328.159 18.8176 327.049 18.3923 325.977 18.1334C324.941 17.8746 323.943 17.7451 322.982 17.7451C321.17 17.7451 319.82 18.0595 318.932 18.6881C318.082 19.3168 317.656 20.1488 317.656 21.1843C317.656 21.9609 317.915 22.608 318.433 23.1258C318.951 23.6435 319.746 23.9948 320.818 24.1797L326.365 25.2336C328.769 25.6774 330.581 26.491 331.801 27.6743C333.059 28.8577 333.687 30.4478 333.687 32.4448C333.687 35.1443 332.633 37.2707 330.526 38.8239C328.418 40.3401 325.607 41.0982 322.094 41.0982ZM362.408 41.0982C359.561 41.0982 357.083 40.525 354.975 39.3786C352.867 38.1952 351.24 36.5311 350.094 34.3862C348.947 32.2414 348.374 29.7267 348.374 26.8423C348.374 24.6604 348.688 22.719 349.317 21.0179C349.983 19.2798 350.926 17.8191 352.146 16.6357C353.366 15.4154 354.846 14.4909 356.584 13.8622C358.322 13.1965 360.263 12.8637 362.408 12.8637C363.628 12.8637 364.941 13.0301 366.346 13.363C367.789 13.6958 369.138 14.2505 370.396 15.0271C370.987 15.3969 371.376 15.8406 371.561 16.3584C371.746 16.8761 371.782 17.4123 371.672 17.967C371.561 18.4847 371.32 18.947 370.95 19.3538C370.618 19.7236 370.192 19.9639 369.675 20.0749C369.157 20.1488 368.584 20.0194 367.955 19.6866C367.141 19.2058 366.309 18.8545 365.459 18.6326C364.608 18.3738 363.795 18.2444 363.018 18.2444C361.798 18.2444 360.725 18.4477 359.801 18.8545C358.876 19.2243 358.081 19.779 357.416 20.5186C356.787 21.2213 356.306 22.1088 355.973 23.1812C355.641 24.2536 355.474 25.4925 355.474 26.8977C355.474 29.6343 356.121 31.7976 357.416 33.3878C358.747 34.9409 360.614 35.7175 363.018 35.7175C363.795 35.7175 364.59 35.6066 365.403 35.3847C366.254 35.1628 367.104 34.8115 367.955 34.3308C368.584 33.9979 369.138 33.887 369.619 33.9979C370.137 34.1089 370.562 34.3678 370.895 34.7745C371.228 35.1443 371.431 35.6066 371.505 36.1613C371.579 36.679 371.505 37.1967 371.283 37.7145C371.098 38.2322 370.729 38.6575 370.174 38.9903C368.954 39.7299 367.659 40.2661 366.291 40.5989C364.923 40.9317 363.628 41.0982 362.408 41.0982ZM385.645 41.0982C382.835 41.0982 380.394 40.525 378.323 39.3786C376.252 38.2322 374.644 36.6051 373.497 34.4972C372.351 32.3523 371.778 29.8377 371.778 26.9532C371.778 24.7714 372.092 22.8299 372.721 21.1288C373.386 19.3907 374.329 17.9115 375.55 16.6912C376.77 15.4339 378.231 14.4909 379.932 13.8622C381.633 13.1965 383.537 12.8637 385.645 12.8637C388.456 12.8637 390.897 13.4369 392.967 14.5833C395.038 15.7297 396.647 17.3568 397.793 19.4647C398.94 21.5726 399.513 24.0687 399.513 26.9532C399.513 29.135 399.18 31.095 398.514 32.8331C397.886 34.5711 396.961 36.0688 395.741 37.3262C394.521 38.5465 393.06 39.4895 391.359 40.1552C389.658 40.7838 387.753 41.0982 385.645 41.0982ZM385.645 35.8285C387.014 35.8285 388.215 35.4957 389.251 34.83C390.286 34.1644 391.081 33.1844 391.636 31.8901C392.228 30.5588 392.524 28.9132 392.524 26.9532C392.524 23.9948 391.895 21.7945 390.638 20.3522C389.38 18.873 387.716 18.1334 385.645 18.1334C384.277 18.1334 383.075 18.4662 382.04 19.1319C381.004 19.7605 380.191 20.7405 379.599 22.0718C379.044 23.3661 378.767 24.9933 378.767 26.9532C378.767 29.8747 379.396 32.0935 380.653 33.6097C381.91 35.0889 383.574 35.8285 385.645 35.8285ZM406.567 40.9872C405.458 40.9872 404.607 40.6914 404.016 40.0997C403.424 39.471 403.128 38.5835 403.128 37.4371V16.4693C403.128 15.3229 403.424 14.4539 404.016 13.8622C404.607 13.2705 405.439 12.9747 406.512 12.9747C407.584 12.9747 408.416 13.2705 409.008 13.8622C409.6 14.4539 409.895 15.3229 409.895 16.4693V20.5186L409.285 18.8545C410.025 17.0055 411.171 15.5448 412.724 14.4724C414.278 13.3999 416.127 12.8637 418.271 12.8637C420.453 12.8637 422.247 13.3815 423.652 14.4169C425.057 15.4523 426.037 17.0425 426.592 19.1874H425.815C426.555 17.2274 427.775 15.6927 429.476 14.5833C431.178 13.4369 433.138 12.8637 435.356 12.8637C437.427 12.8637 439.128 13.2705 440.46 14.0841C441.828 14.8976 442.845 16.1365 443.51 17.8006C444.176 19.4277 444.509 21.4986 444.509 24.0133V37.4371C444.509 38.5835 444.195 39.471 443.566 40.0997C442.974 40.6914 442.124 40.9872 441.014 40.9872C439.905 40.9872 439.054 40.6914 438.463 40.0997C437.871 39.471 437.575 38.5835 437.575 37.4371V24.2906C437.575 22.2197 437.224 20.7035 436.521 19.7421C435.856 18.7806 434.709 18.2998 433.082 18.2998C431.27 18.2998 429.846 18.947 428.811 20.2413C427.775 21.4986 427.258 23.2552 427.258 25.511V37.4371C427.258 38.5835 426.962 39.471 426.37 40.0997C425.778 40.6914 424.928 40.9872 423.818 40.9872C422.709 40.9872 421.84 40.6914 421.211 40.0997C420.62 39.471 420.324 38.5835 420.324 37.4371V24.2906C420.324 22.2197 419.973 20.7035 419.27 19.7421C418.604 18.7806 417.476 18.2998 415.886 18.2998C414.074 18.2998 412.65 18.947 411.615 20.2413C410.58 21.4986 410.062 23.2552 410.062 25.511V37.4371C410.062 39.8039 408.897 40.9872 406.567 40.9872ZM462.812 41.0982C459.742 41.0982 457.098 40.525 454.879 39.3786C452.661 38.2322 450.941 36.6051 449.721 34.4972C448.537 32.3893 447.946 29.8931 447.946 27.0087C447.946 24.1982 448.519 21.739 449.665 19.6311C450.848 17.5232 452.457 15.8776 454.491 14.6943C456.562 13.4739 458.91 12.8637 461.536 12.8637C463.459 12.8637 465.178 13.1781 466.695 13.8067C468.248 14.4354 469.56 15.3414 470.633 16.5248C471.742 17.7081 472.574 19.1504 473.129 20.8515C473.721 22.5156 474.017 24.4016 474.017 26.5094C474.017 27.1751 473.776 27.6928 473.295 28.0626C472.852 28.3954 472.205 28.5619 471.354 28.5619H453.548V24.568H469.135L468.248 25.4C468.248 23.6989 467.989 22.2752 467.471 21.1288C466.99 19.9824 466.269 19.1134 465.308 18.5217C464.383 17.893 463.218 17.5787 461.813 17.5787C460.26 17.5787 458.929 17.9485 457.819 18.6881C456.747 19.3907 455.915 20.4077 455.323 21.739C454.768 23.0333 454.491 24.5865 454.491 26.3985V26.7868C454.491 29.8192 455.194 32.0935 456.599 33.6097C458.041 35.0889 460.149 35.8285 462.923 35.8285C463.884 35.8285 464.956 35.7175 466.14 35.4957C467.36 35.2368 468.507 34.8115 469.579 34.2198C470.356 33.7761 471.04 33.5912 471.631 33.6651C472.223 33.7021 472.685 33.9055 473.018 34.2753C473.388 34.6451 473.61 35.1074 473.684 35.6621C473.758 36.1798 473.647 36.716 473.351 37.2707C473.092 37.8254 472.63 38.3062 471.964 38.7129C470.67 39.5265 469.172 40.1367 467.471 40.5435C465.807 40.9133 464.254 41.0982 462.812 41.0982ZM493.569 40.9317C492.459 40.9317 491.609 40.5989 491.017 39.9333C490.425 39.2676 490.129 38.3431 490.129 37.1598V16.8021C490.129 15.5818 490.425 14.6573 491.017 14.0286C491.609 13.363 492.459 13.0301 493.569 13.0301C494.678 13.0301 495.529 13.363 496.12 14.0286C496.749 14.6573 497.063 15.5818 497.063 16.8021V37.1598C497.063 38.3431 496.767 39.2676 496.176 39.9333C495.584 40.5989 494.715 40.9317 493.569 40.9317ZM493.569 7.87139C492.274 7.87139 491.257 7.55706 490.518 6.9284C489.815 6.26275 489.464 5.35673 489.464 4.21034C489.464 3.02698 489.815 2.12096 490.518 1.49229C491.257 0.863631 492.274 0.549299 493.569 0.549299C494.9 0.549299 495.917 0.863631 496.619 1.49229C497.322 2.12096 497.673 3.02698 497.673 4.21034C497.673 5.35673 497.322 6.26275 496.619 6.9284C495.917 7.55706 494.9 7.87139 493.569 7.87139ZM505.488 40.9872C504.379 40.9872 503.528 40.6914 502.937 40.0997C502.345 39.471 502.049 38.5835 502.049 37.4371V16.4693C502.049 15.3229 502.345 14.4539 502.937 13.8622C503.528 13.2705 504.36 12.9747 505.433 12.9747C506.505 12.9747 507.337 13.2705 507.929 13.8622C508.521 14.4539 508.816 15.3229 508.816 16.4693V20.2413L508.206 18.8545C509.02 16.8946 510.277 15.4154 511.978 14.4169C513.716 13.3815 515.676 12.8637 517.858 12.8637C520.04 12.8637 521.834 13.2705 523.239 14.0841C524.644 14.8976 525.698 16.1365 526.401 17.8006C527.103 19.4277 527.454 21.4986 527.454 24.0133V37.4371C527.454 38.5835 527.159 39.471 526.567 40.0997C525.975 40.6914 525.125 40.9872 524.015 40.9872C522.906 40.9872 522.037 40.6914 521.408 40.0997C520.817 39.471 520.521 38.5835 520.521 37.4371V24.3461C520.521 22.2382 520.114 20.7035 519.3 19.7421C518.524 18.7806 517.303 18.2998 515.639 18.2998C513.605 18.2998 511.978 18.947 510.758 20.2413C509.575 21.4986 508.983 23.1812 508.983 25.2891V37.4371C508.983 39.8039 507.818 40.9872 505.488 40.9872ZM188.285 100.098C186.288 100.098 184.217 99.8393 182.072 99.3216C179.928 98.8039 178.06 98.0273 176.47 96.9918C175.73 96.5111 175.231 95.9564 174.972 95.3277C174.713 94.699 174.639 94.1074 174.75 93.5527C174.898 92.961 175.176 92.4617 175.582 92.055C176.026 91.6482 176.562 91.4078 177.191 91.3338C177.857 91.2599 178.578 91.4263 179.354 91.8331C180.871 92.6466 182.331 93.2383 183.737 93.6081C185.142 93.9409 186.584 94.1074 188.063 94.1074C189.69 94.1074 191.059 93.8855 192.168 93.4417C193.277 92.9979 194.11 92.3323 194.664 91.4448C195.256 90.5573 195.552 89.4848 195.552 88.2275C195.552 86.3785 194.923 85.0102 193.666 84.1227C192.445 83.1982 190.652 82.7359 188.285 82.7359H184.735C183.7 82.7359 182.904 82.4771 182.35 81.9593C181.832 81.4416 181.573 80.7205 181.573 79.796C181.573 78.8715 181.832 78.1504 182.35 77.6326C182.904 77.1149 183.7 76.8561 184.735 76.8561H187.619C189.025 76.8561 190.227 76.6342 191.225 76.1904C192.224 75.7097 193 75.044 193.555 74.1935C194.11 73.3429 194.387 72.3075 194.387 71.0871C194.387 69.386 193.814 68.0917 192.667 67.2042C191.558 66.3167 189.931 65.8729 187.786 65.8729C186.418 65.8729 185.123 66.0393 183.903 66.3722C182.72 66.668 181.407 67.2412 179.965 68.0917C179.299 68.4985 178.652 68.6649 178.023 68.591C177.431 68.517 176.932 68.2766 176.525 67.8699C176.119 67.4631 175.841 66.9823 175.693 66.4276C175.545 65.8359 175.582 65.2443 175.804 64.6526C176.026 64.0239 176.488 63.4877 177.191 63.0439C178.781 62.0085 180.538 61.2319 182.461 60.7142C184.384 60.1595 186.362 59.8821 188.396 59.8821C191.096 59.8821 193.407 60.3074 195.33 61.1579C197.253 61.9715 198.714 63.1549 199.712 64.708C200.747 66.2242 201.265 68.0733 201.265 70.2551C201.265 71.8083 200.969 73.232 200.378 74.5263C199.786 75.7836 198.954 76.8561 197.882 77.7436C196.809 78.6311 195.515 79.2598 193.999 79.6296V78.9639C196.661 79.4077 198.732 80.5171 200.211 82.2922C201.69 84.0302 202.43 86.2121 202.43 88.8377C202.43 91.1304 201.857 93.1274 200.71 94.8285C199.564 96.5296 197.937 97.8424 195.829 98.7669C193.721 99.6544 191.207 100.098 188.285 100.098ZM223.348 109.972C222.238 109.972 221.388 109.676 220.796 109.084C220.204 108.493 219.908 107.624 219.908 106.477V75.4693C219.908 74.3229 220.204 73.4539 220.796 72.8622C221.388 72.2705 222.22 71.9747 223.292 71.9747C224.402 71.9747 225.252 72.2705 225.844 72.8622C226.435 73.4539 226.731 74.3229 226.731 75.4693V79.796L226.121 78.1319C226.676 76.2459 227.804 74.7297 229.505 73.5833C231.243 72.4369 233.258 71.8637 235.551 71.8637C237.918 71.8637 239.989 72.4369 241.764 73.5833C243.576 74.7297 244.981 76.3568 245.98 78.4647C246.978 80.5356 247.477 83.0318 247.477 85.9532C247.477 88.8377 246.978 91.3523 245.98 93.4972C244.981 95.6051 243.594 97.2322 241.819 98.3786C240.044 99.525 237.955 100.098 235.551 100.098C233.295 100.098 231.317 99.5435 229.616 98.434C227.915 97.2877 226.768 95.8085 226.177 93.9964H226.842V106.477C226.842 107.624 226.528 108.493 225.899 109.084C225.308 109.676 224.457 109.972 223.348 109.972ZM233.61 94.8285C234.978 94.8285 236.18 94.4957 237.215 93.83C238.251 93.1644 239.046 92.1844 239.6 90.8901C240.192 89.5588 240.488 87.9132 240.488 85.9532C240.488 82.9948 239.859 80.7945 238.602 79.3522C237.345 77.873 235.681 77.1334 233.61 77.1334C232.241 77.1334 231.04 77.4662 230.004 78.1319C228.969 78.7605 228.155 79.7405 227.563 81.0718C227.009 82.3661 226.731 83.9933 226.731 85.9532C226.731 88.8747 227.36 91.0935 228.617 92.6097C229.875 94.0889 231.539 94.8285 233.61 94.8285ZM259.881 100.098C257.921 100.098 256.164 99.7284 254.611 98.9888C253.095 98.2122 251.893 97.1767 251.006 95.8824C250.155 94.5881 249.73 93.1274 249.73 91.5002C249.73 89.5033 250.248 87.9317 251.283 86.7853C252.318 85.6019 254.001 84.7513 256.331 84.2336C258.661 83.7159 261.785 83.457 265.705 83.457H268.479V87.4509H265.761C263.468 87.4509 261.638 87.5619 260.269 87.7837C258.901 88.0056 257.921 88.3939 257.329 88.9486C256.775 89.4663 256.497 90.2059 256.497 91.1674C256.497 92.3878 256.923 93.3862 257.773 94.1628C258.624 94.9394 259.807 95.3277 261.323 95.3277C262.544 95.3277 263.616 95.0504 264.54 94.4957C265.502 93.904 266.26 93.1089 266.815 92.1104C267.369 91.112 267.647 89.9656 267.647 88.6713V82.2922C267.647 80.4431 267.24 79.1119 266.426 78.2983C265.613 77.4847 264.245 77.0779 262.322 77.0779C261.249 77.0779 260.084 77.2074 258.827 77.4662C257.607 77.7251 256.312 78.1689 254.944 78.7975C254.241 79.1303 253.613 79.2228 253.058 79.0749C252.54 78.927 252.134 78.6311 251.838 78.1874C251.542 77.7066 251.394 77.1889 251.394 76.6342C251.394 76.0795 251.542 75.5433 251.838 75.0255C252.134 74.4708 252.633 74.0641 253.335 73.8052C255.037 73.1026 256.664 72.6033 258.217 72.3075C259.807 72.0116 261.249 71.8637 262.544 71.8637C265.206 71.8637 267.388 72.2705 269.089 73.0841C270.827 73.8976 272.121 75.1365 272.972 76.8006C273.823 78.4277 274.248 80.5356 274.248 83.1242V96.4371C274.248 97.5835 273.97 98.471 273.416 99.0997C272.861 99.6914 272.066 99.9872 271.03 99.9872C269.995 99.9872 269.181 99.6914 268.59 99.0997C268.035 98.471 267.758 97.5835 267.758 96.4371V93.7745H268.202C267.943 95.0688 267.425 96.1967 266.648 97.1582C265.909 98.0827 264.966 98.8039 263.819 99.3216C262.673 99.8393 261.36 100.098 259.881 100.098ZM291.603 100.098C288.756 100.098 286.278 99.525 284.17 98.3786C282.062 97.1952 280.435 95.5311 279.289 93.3862C278.142 91.2414 277.569 88.7267 277.569 85.8423C277.569 83.6604 277.883 81.719 278.512 80.0179C279.178 78.2798 280.121 76.8191 281.341 75.6357C282.561 74.4154 284.041 73.4909 285.779 72.8622C287.517 72.1965 289.458 71.8637 291.603 71.8637C292.823 71.8637 294.136 72.0301 295.541 72.363C296.984 72.6958 298.333 73.2505 299.591 74.0271C300.182 74.3969 300.571 74.8406 300.756 75.3584C300.941 75.8761 300.978 76.4123 300.867 76.967C300.756 77.4847 300.515 77.947 300.146 78.3538C299.813 78.7236 299.387 78.9639 298.87 79.0749C298.352 79.1488 297.779 79.0194 297.15 78.6866C296.337 78.2058 295.504 77.8545 294.654 77.6326C293.803 77.3738 292.99 77.2444 292.213 77.2444C290.993 77.2444 289.92 77.4477 288.996 77.8545C288.071 78.2243 287.276 78.779 286.611 79.5186C285.982 80.2213 285.501 81.1088 285.169 82.1812C284.836 83.2536 284.669 84.4925 284.669 85.8977C284.669 88.6343 285.316 90.7976 286.611 92.3878C287.942 93.9409 289.81 94.7175 292.213 94.7175C292.99 94.7175 293.785 94.6066 294.598 94.3847C295.449 94.1628 296.3 93.8115 297.15 93.3308C297.779 92.9979 298.333 92.887 298.814 92.9979C299.332 93.1089 299.757 93.3678 300.09 93.7745C300.423 94.1443 300.626 94.6066 300.7 95.1613C300.774 95.679 300.7 96.1967 300.478 96.7145C300.293 97.2322 299.924 97.6575 299.369 97.9903C298.149 98.7299 296.854 99.2661 295.486 99.5989C294.118 99.9317 292.823 100.098 291.603 100.098ZM306.451 99.9872C305.342 99.9872 304.491 99.6914 303.9 99.0997C303.308 98.471 303.012 97.5835 303.012 96.4371V63.4877C303.012 62.3413 303.308 61.4723 303.9 60.8806C304.491 60.2889 305.342 59.9931 306.451 59.9931C307.561 59.9931 308.411 60.2889 309.003 60.8806C309.632 61.4723 309.946 62.3413 309.946 63.4877V83.9563H310.057L319.21 74.3044C319.949 73.5648 320.596 72.9916 321.151 72.5848C321.706 72.1781 322.464 71.9747 323.425 71.9747C324.387 71.9747 325.108 72.2335 325.589 72.7513C326.106 73.232 326.365 73.8237 326.365 74.5263C326.365 75.2289 326.032 75.9316 325.367 76.6342L315.715 86.8407V83.9563L326.31 95.3832C326.975 96.0858 327.271 96.8069 327.197 97.5465C327.16 98.2491 326.864 98.8408 326.31 99.3216C325.755 99.7653 325.052 99.9872 324.202 99.9872C323.166 99.9872 322.334 99.7838 321.706 99.377C321.114 98.9703 320.448 98.3601 319.709 97.5465L310.057 87.4509H309.946V96.4371C309.946 98.8039 308.781 99.9872 306.451 99.9872ZM340.029 100.098C338.439 100.098 336.756 99.9317 334.981 99.5989C333.206 99.2661 331.616 98.6929 330.21 97.8793C329.619 97.5095 329.194 97.0843 328.935 96.6035C328.713 96.0858 328.62 95.5866 328.657 95.1058C328.731 94.5881 328.916 94.1443 329.212 93.7745C329.545 93.4047 329.952 93.1644 330.432 93.0534C330.95 92.9425 331.505 93.0349 332.096 93.3308C333.576 94.0334 334.962 94.5326 336.257 94.8285C337.551 95.0873 338.827 95.2168 340.084 95.2168C341.859 95.2168 343.172 94.9209 344.023 94.3292C344.91 93.7006 345.354 92.887 345.354 91.8885C345.354 91.038 345.058 90.3908 344.466 89.9471C343.912 89.4663 343.061 89.115 341.915 88.8931L336.368 87.8392C334.075 87.3954 332.318 86.5634 331.098 85.343C329.915 84.0857 329.323 82.4771 329.323 80.5171C329.323 78.7421 329.804 77.2074 330.765 75.9131C331.764 74.6188 333.132 73.6203 334.87 72.9177C336.608 72.215 338.605 71.8637 340.861 71.8637C342.488 71.8637 344.004 72.0486 345.409 72.4184C346.852 72.7513 348.238 73.2875 349.57 74.0271C350.124 74.3229 350.494 74.7112 350.679 75.192C350.901 75.6727 350.956 76.1719 350.845 76.6897C350.735 77.1704 350.513 77.6142 350.18 78.0209C349.847 78.3907 349.422 78.6311 348.904 78.7421C348.423 78.816 347.869 78.7051 347.24 78.4092C346.093 77.8176 344.984 77.3923 343.912 77.1334C342.876 76.8746 341.878 76.7451 340.916 76.7451C339.104 76.7451 337.754 77.0595 336.867 77.6881C336.016 78.3168 335.591 79.1488 335.591 80.1843C335.591 80.9609 335.85 81.608 336.368 82.1258C336.885 82.6435 337.68 82.9948 338.753 83.1797L344.3 84.2336C346.704 84.6774 348.516 85.491 349.736 86.6743C350.993 87.8577 351.622 89.4478 351.622 91.4448C351.622 94.1443 350.568 96.2707 348.46 97.8239C346.352 99.3401 343.542 100.098 340.029 100.098Z" fill="#343434"/>
</svg>
