<svg width="99" height="23" viewBox="0 0 99 23" fill="none" xmlns="http://www.w3.org/2000/svg">
<path d="M8.312 18.216C6.712 18.216 5.312 17.864 4.112 17.16C2.928 16.44 2.008 15.432 1.352 14.136C0.712 12.824 0.392 11.288 0.392 9.528C0.392 8.2 0.576 7.008 0.944 5.952C1.312 4.88 1.84 3.968 2.528 3.216C3.216 2.448 4.048 1.864 5.024 1.464C6 1.064 7.096 0.863999 8.312 0.863999C9.928 0.863999 11.328 1.216 12.512 1.92C13.696 2.624 14.608 3.624 15.248 4.92C15.904 6.216 16.232 7.744 16.232 9.504C16.232 10.832 16.048 12.032 15.68 13.104C15.312 14.176 14.776 15.096 14.072 15.864C13.384 16.632 12.552 17.216 11.576 17.616C10.6 18.016 9.512 18.216 8.312 18.216ZM8.312 16.056C9.432 16.056 10.384 15.8 11.168 15.288C11.968 14.776 12.576 14.032 12.992 13.056C13.424 12.08 13.64 10.904 13.64 9.528C13.64 7.464 13.176 5.864 12.248 4.728C11.32 3.592 10.008 3.024 8.312 3.024C7.192 3.024 6.232 3.28 5.432 3.792C4.648 4.288 4.04 5.024 3.608 6C3.192 6.976 2.984 8.152 2.984 9.528C2.984 11.576 3.448 13.176 4.376 14.328C5.32 15.48 6.632 16.056 8.312 16.056ZM23.0094 18.216C22.0654 18.216 21.2734 18.04 20.6334 17.688C20.0094 17.336 19.5374 16.816 19.2174 16.128C18.9134 15.424 18.7614 14.544 18.7614 13.488V7.344C18.7614 6.928 18.8654 6.624 19.0734 6.432C19.2814 6.224 19.5774 6.12 19.9614 6.12C20.3454 6.12 20.6414 6.224 20.8494 6.432C21.0734 6.624 21.1854 6.928 21.1854 7.344V13.512C21.1854 14.456 21.3774 15.152 21.7614 15.6C22.1454 16.048 22.7534 16.272 23.5854 16.272C24.4974 16.272 25.2334 15.968 25.7934 15.36C26.3694 14.736 26.6574 13.92 26.6574 12.912V7.344C26.6574 6.928 26.7614 6.624 26.9694 6.432C27.1774 6.224 27.4814 6.12 27.8814 6.12C28.2654 6.12 28.5614 6.224 28.7694 6.432C28.9774 6.624 29.0814 6.928 29.0814 7.344V16.944C29.0814 17.76 28.6894 18.168 27.9054 18.168C27.5374 18.168 27.2494 18.064 27.0414 17.856C26.8334 17.632 26.7294 17.328 26.7294 16.944V14.904L27.0414 15.432C26.7214 16.328 26.2094 17.016 25.5054 17.496C24.8014 17.976 23.9694 18.216 23.0094 18.216ZM33.2414 18.168C32.8414 18.168 32.5374 18.064 32.3294 17.856C32.1214 17.632 32.0174 17.328 32.0174 16.944V7.344C32.0174 6.944 32.1214 6.64 32.3294 6.432C32.5374 6.224 32.8254 6.12 33.1934 6.12C33.5774 6.12 33.8654 6.224 34.0574 6.432C34.2654 6.64 34.3694 6.944 34.3694 7.344V9.096H34.1294C34.3854 8.136 34.8574 7.408 35.5454 6.912C36.2334 6.416 37.1134 6.128 38.1854 6.048C38.4734 6.032 38.6974 6.104 38.8574 6.264C39.0334 6.424 39.1294 6.672 39.1454 7.008C39.1774 7.344 39.1054 7.616 38.9294 7.824C38.7534 8.016 38.4814 8.128 38.1134 8.16L37.6574 8.208C36.6174 8.304 35.8254 8.632 35.2814 9.192C34.7374 9.752 34.4654 10.52 34.4654 11.496V16.944C34.4654 17.328 34.3614 17.632 34.1534 17.856C33.9614 18.064 33.6574 18.168 33.2414 18.168ZM50.4427 18.216C49.7387 18.216 49.0107 18.136 48.2587 17.976C47.5227 17.816 46.8427 17.544 46.2187 17.16C46.0107 17.016 45.8667 16.856 45.7867 16.68C45.7067 16.504 45.6747 16.328 45.6907 16.152C45.7227 15.96 45.7947 15.8 45.9067 15.672C46.0347 15.528 46.1867 15.44 46.3627 15.408C46.5547 15.376 46.7547 15.416 46.9627 15.528C47.5867 15.88 48.1867 16.128 48.7627 16.272C49.3387 16.4 49.9067 16.464 50.4667 16.464C51.3147 16.464 51.9547 16.312 52.3867 16.008C52.8187 15.704 53.0347 15.296 53.0347 14.784C53.0347 14.368 52.8907 14.048 52.6027 13.824C52.3147 13.584 51.8827 13.4 51.3067 13.272L49.0267 12.816C48.0347 12.608 47.2827 12.24 46.7707 11.712C46.2587 11.184 46.0027 10.512 46.0027 9.696C46.0027 8.96 46.2027 8.32 46.6027 7.776C47.0027 7.232 47.5627 6.816 48.2827 6.528C49.0027 6.224 49.8347 6.072 50.7787 6.072C51.4827 6.072 52.1467 6.16 52.7707 6.336C53.3947 6.512 53.9707 6.776 54.4987 7.128C54.7067 7.24 54.8427 7.392 54.9067 7.584C54.9707 7.76 54.9787 7.936 54.9307 8.112C54.8987 8.288 54.8187 8.448 54.6907 8.592C54.5627 8.72 54.4027 8.8 54.2107 8.832C54.0347 8.848 53.8347 8.8 53.6107 8.688C53.1307 8.384 52.6507 8.168 52.1707 8.04C51.7067 7.912 51.2427 7.848 50.7787 7.848C49.9307 7.848 49.2907 8.008 48.8587 8.328C48.4427 8.632 48.2347 9.048 48.2347 9.576C48.2347 9.976 48.3627 10.304 48.6187 10.56C48.8747 10.816 49.2747 11 49.8187 11.112L52.0987 11.568C53.1387 11.776 53.9227 12.128 54.4507 12.624C54.9947 13.12 55.2667 13.792 55.2667 14.64C55.2667 15.744 54.8267 16.616 53.9467 17.256C53.0667 17.896 51.8987 18.216 50.4427 18.216ZM62.3585 18.216C61.3985 18.216 60.5905 18.048 59.9345 17.712C59.2785 17.376 58.7905 16.88 58.4705 16.224C58.1505 15.568 57.9905 14.768 57.9905 13.824V8.16H56.5505C56.2305 8.16 55.9825 8.08 55.8065 7.92C55.6305 7.744 55.5425 7.512 55.5425 7.224C55.5425 6.92 55.6305 6.688 55.8065 6.528C55.9825 6.368 56.2305 6.288 56.5505 6.288H57.9905V3.816C57.9905 3.416 58.0945 3.112 58.3025 2.904C58.5265 2.696 58.8305 2.592 59.2145 2.592C59.5985 2.592 59.8945 2.696 60.1025 2.904C60.3105 3.112 60.4145 3.416 60.4145 3.816V6.288H63.2225C63.5425 6.288 63.7905 6.368 63.9665 6.528C64.1425 6.688 64.2305 6.92 64.2305 7.224C64.2305 7.512 64.1425 7.744 63.9665 7.92C63.7905 8.08 63.5425 8.16 63.2225 8.16H60.4145V13.632C60.4145 14.48 60.5905 15.12 60.9425 15.552C61.3105 15.984 61.9025 16.2 62.7185 16.2C63.0065 16.2 63.2545 16.176 63.4625 16.128C63.6865 16.064 63.8705 16.024 64.0145 16.008C64.1905 16.008 64.3345 16.072 64.4465 16.2C64.5585 16.312 64.6145 16.536 64.6145 16.872C64.6145 17.112 64.5665 17.336 64.4705 17.544C64.3905 17.752 64.2385 17.888 64.0145 17.952C63.8225 18.016 63.5585 18.072 63.2225 18.12C62.9025 18.184 62.6145 18.216 62.3585 18.216ZM70.6229 18.216C69.4389 18.216 68.4149 17.968 67.5509 17.472C66.7029 16.976 66.0389 16.272 65.5589 15.36C65.0789 14.448 64.8389 13.376 64.8389 12.144C64.8389 11.2 64.9749 10.36 65.2469 9.624C65.5189 8.888 65.9029 8.256 66.3989 7.728C66.9109 7.184 67.5189 6.776 68.2229 6.504C68.9429 6.216 69.7429 6.072 70.6229 6.072C71.7909 6.072 72.7989 6.32 73.6469 6.816C74.5109 7.312 75.1829 8.016 75.6629 8.928C76.1429 9.824 76.3829 10.896 76.3829 12.144C76.3829 13.072 76.2469 13.912 75.9749 14.664C75.7029 15.416 75.3109 16.056 74.7989 16.584C74.3029 17.112 73.6949 17.52 72.9749 17.808C72.2709 18.08 71.4869 18.216 70.6229 18.216ZM70.6229 16.344C71.2789 16.344 71.8549 16.184 72.3509 15.864C72.8469 15.544 73.2309 15.072 73.5029 14.448C73.7909 13.824 73.9349 13.056 73.9349 12.144C73.9349 10.768 73.6309 9.728 73.0229 9.024C72.4149 8.32 71.6149 7.968 70.6229 7.968C69.9509 7.968 69.3669 8.128 68.8709 8.448C68.3749 8.752 67.9829 9.216 67.6949 9.84C67.4229 10.464 67.2869 11.232 67.2869 12.144C67.2869 13.504 67.5909 14.544 68.1989 15.264C68.8069 15.984 69.6149 16.344 70.6229 16.344ZM79.8492 18.168C79.4492 18.168 79.1452 18.064 78.9372 17.856C78.7292 17.632 78.6252 17.328 78.6252 16.944V7.344C78.6252 6.944 78.7292 6.64 78.9372 6.432C79.1452 6.224 79.4332 6.12 79.8012 6.12C80.1852 6.12 80.4732 6.224 80.6652 6.432C80.8732 6.64 80.9772 6.944 80.9772 7.344V9.096H80.7372C80.9932 8.136 81.4652 7.408 82.1532 6.912C82.8412 6.416 83.7212 6.128 84.7932 6.048C85.0812 6.032 85.3052 6.104 85.4652 6.264C85.6412 6.424 85.7372 6.672 85.7533 7.008C85.7852 7.344 85.7132 7.616 85.5373 7.824C85.3612 8.016 85.0892 8.128 84.7212 8.16L84.2652 8.208C83.2252 8.304 82.4332 8.632 81.8892 9.192C81.3452 9.752 81.0732 10.52 81.0732 11.496V16.944C81.0732 17.328 80.9692 17.632 80.7612 17.856C80.5692 18.064 80.2652 18.168 79.8492 18.168ZM90.5849 22.488C90.2969 22.488 90.0569 22.408 89.8649 22.248C89.6889 22.104 89.5849 21.904 89.5529 21.648C89.5369 21.408 89.5849 21.144 89.6969 20.856L91.3289 17.184V18.216L86.8409 7.776C86.7289 7.488 86.6889 7.216 86.7209 6.96C86.7529 6.704 86.8729 6.504 87.0809 6.36C87.2889 6.2 87.5689 6.12 87.9209 6.12C88.2249 6.12 88.4649 6.192 88.6409 6.336C88.8169 6.48 88.9769 6.728 89.1209 7.08L92.7449 16.032H92.0729L95.7449 7.08C95.8889 6.712 96.0569 6.464 96.2489 6.336C96.4409 6.192 96.7049 6.12 97.0409 6.12C97.3289 6.12 97.5529 6.2 97.7129 6.36C97.8889 6.504 97.9929 6.704 98.0249 6.96C98.0729 7.2 98.0329 7.464 97.9049 7.752L91.9049 21.552C91.7449 21.92 91.5609 22.168 91.3529 22.296C91.1609 22.424 90.9049 22.488 90.5849 22.488Z" fill="#252121"/>
</svg>
