<svg width="98" height="16" viewBox="0 0 98 16" fill="none" xmlns="http://www.w3.org/2000/svg">
<path d="M5.676 12.144C4.60933 12.144 3.68667 11.9093 2.908 11.44C2.12933 10.96 1.52133 10.288 1.084 9.424C0.657333 8.54933 0.444 7.52533 0.444 6.352C0.444 5.46667 0.566667 4.672 0.812 3.968C1.05733 3.25333 1.404 2.64533 1.852 2.144C2.31067 1.632 2.86 1.24267 3.5 0.976C4.15067 0.709333 4.876 0.575999 5.676 0.575999C6.74267 0.575999 7.66533 0.810666 8.444 1.28C9.22267 1.74933 9.82533 2.416 10.252 3.28C10.6787 4.144 10.892 5.16267 10.892 6.336C10.892 7.22133 10.7693 8.02133 10.524 8.736C10.2787 9.45067 9.92667 10.064 9.468 10.576C9.02 11.088 8.476 11.4773 7.836 11.744C7.196 12.0107 6.476 12.144 5.676 12.144ZM5.676 10.832C6.444 10.832 7.1 10.656 7.644 10.304C8.188 9.952 8.604 9.44 8.892 8.768C9.19067 8.096 9.34 7.29067 9.34 6.352C9.34 4.93333 9.02 3.83467 8.38 3.056C7.75067 2.27733 6.84933 1.888 5.676 1.888C4.908 1.888 4.24667 2.064 3.692 2.416C3.148 2.75733 2.732 3.264 2.444 3.936C2.156 4.59733 2.012 5.40267 2.012 6.352C2.012 7.76 2.332 8.85867 2.972 9.648C3.612 10.4373 4.51333 10.832 5.676 10.832ZM15.4758 12.144C14.8464 12.144 14.3184 12.0267 13.8918 11.792C13.4758 11.5573 13.1664 11.2107 12.9638 10.752C12.7611 10.2933 12.6598 9.71733 12.6598 9.024V4.832C12.6598 4.58667 12.7184 4.40533 12.8358 4.288C12.9638 4.16 13.1451 4.096 13.3798 4.096C13.6144 4.096 13.7958 4.16 13.9238 4.288C14.0518 4.40533 14.1158 4.58667 14.1158 4.832V9.024C14.1158 9.68533 14.2491 10.176 14.5158 10.496C14.7824 10.8053 15.2038 10.96 15.7798 10.96C16.4198 10.96 16.9371 10.7467 17.3318 10.32C17.7371 9.89333 17.9398 9.328 17.9398 8.624V4.832C17.9398 4.58667 17.9984 4.40533 18.1158 4.288C18.2438 4.16 18.4251 4.096 18.6598 4.096C18.8944 4.096 19.0758 4.16 19.2038 4.288C19.3318 4.40533 19.3958 4.58667 19.3958 4.832V11.36C19.3958 11.8613 19.1611 12.112 18.6918 12.112C18.4571 12.112 18.2758 12.048 18.1478 11.92C18.0304 11.792 17.9718 11.6053 17.9718 11.36V9.968L18.1798 10.24C17.9664 10.8587 17.6198 11.3333 17.1398 11.664C16.6704 11.984 16.1158 12.144 15.4758 12.144ZM22.1706 12.112C21.9253 12.112 21.7386 12.048 21.6106 11.92C21.4826 11.792 21.4186 11.6053 21.4186 11.36V4.832C21.4186 4.58667 21.4826 4.40533 21.6106 4.288C21.7386 4.16 21.9146 4.096 22.1386 4.096C22.3626 4.096 22.5333 4.16 22.6506 4.288C22.7786 4.40533 22.8426 4.58667 22.8426 4.832V6.064H22.6826C22.8533 5.424 23.1733 4.93867 23.6426 4.608C24.112 4.27733 24.704 4.09067 25.4186 4.048C25.5893 4.03733 25.728 4.08 25.8346 4.176C25.9413 4.26133 26 4.41067 26.0106 4.624C26.0213 4.82667 25.9733 4.992 25.8666 5.12C25.76 5.23733 25.5946 5.30667 25.3706 5.328L25.0826 5.344C24.3786 5.41867 23.8346 5.648 23.4506 6.032C23.0773 6.416 22.8906 6.944 22.8906 7.616V11.36C22.8906 11.6053 22.8266 11.792 22.6986 11.92C22.5813 12.048 22.4053 12.112 22.1706 12.112ZM34.8742 12.144C34.1702 12.144 33.5676 11.968 33.0662 11.616C32.5649 11.264 32.2289 10.7893 32.0582 10.192L32.2342 9.952V11.36C32.2342 11.6053 32.1702 11.792 32.0422 11.92C31.9249 12.048 31.7489 12.112 31.5142 12.112C31.2902 12.112 31.1142 12.048 30.9862 11.92C30.8582 11.792 30.7942 11.6053 30.7942 11.36V1.344C30.7942 1.09867 30.8582 0.917333 30.9862 0.799999C31.1142 0.672 31.2902 0.608 31.5142 0.608C31.7489 0.608 31.9302 0.672 32.0582 0.799999C32.1862 0.917333 32.2502 1.09867 32.2502 1.344V5.968H32.0742C32.2449 5.392 32.5809 4.93333 33.0822 4.592C33.5836 4.24 34.1809 4.064 34.8742 4.064C35.5676 4.064 36.1702 4.22933 36.6822 4.56C37.2049 4.88 37.6049 5.344 37.8822 5.952C38.1702 6.54933 38.3142 7.264 38.3142 8.096C38.3142 8.91733 38.1702 9.63733 37.8822 10.256C37.5942 10.864 37.1942 11.3333 36.6822 11.664C36.1702 11.984 35.5676 12.144 34.8742 12.144ZM34.5382 10.992C34.9969 10.992 35.3969 10.88 35.7382 10.656C36.0902 10.432 36.3622 10.1067 36.5542 9.68C36.7462 9.25333 36.8422 8.72533 36.8422 8.096C36.8422 7.15733 36.6342 6.44267 36.2182 5.952C35.8022 5.46133 35.2422 5.216 34.5382 5.216C34.0689 5.216 33.6582 5.328 33.3062 5.552C32.9649 5.76533 32.6982 6.08533 32.5062 6.512C32.3249 6.93867 32.2342 7.46667 32.2342 8.096C32.2342 9.03467 32.4422 9.75467 32.8582 10.256C33.2742 10.7467 33.8342 10.992 34.5382 10.992ZM42.3449 12.144C41.8115 12.144 41.3262 12.0373 40.8889 11.824C40.4622 11.6107 40.1262 11.3227 39.8809 10.96C39.6462 10.5973 39.5289 10.192 39.5289 9.744C39.5289 9.168 39.6729 8.71467 39.9609 8.384C40.2489 8.05333 40.7342 7.81867 41.4169 7.68C42.0995 7.53067 43.0169 7.456 44.1689 7.456H44.9209V8.384H44.2009C43.3795 8.384 42.7289 8.42133 42.2489 8.496C41.7795 8.57067 41.4489 8.704 41.2569 8.896C41.0649 9.07733 40.9689 9.33333 40.9689 9.664C40.9689 10.08 41.1129 10.4213 41.4009 10.688C41.6995 10.9547 42.1049 11.088 42.6169 11.088C43.0222 11.088 43.3795 10.992 43.6889 10.8C43.9982 10.5973 44.2435 10.3307 44.4249 10C44.6062 9.65867 44.6969 9.26933 44.6969 8.832V6.992C44.6969 6.36267 44.5689 5.90933 44.3129 5.632C44.0569 5.344 43.6249 5.2 43.0169 5.2C42.6649 5.2 42.3022 5.248 41.9289 5.344C41.5555 5.44 41.1662 5.58933 40.7609 5.792C40.6009 5.86667 40.4622 5.89333 40.3449 5.872C40.2275 5.84 40.1315 5.776 40.0569 5.68C39.9929 5.57333 39.9555 5.46133 39.9449 5.344C39.9449 5.216 39.9715 5.09333 40.0249 4.976C40.0889 4.85867 40.1955 4.77333 40.3449 4.72C40.8142 4.48533 41.2782 4.32 41.7369 4.224C42.2062 4.11733 42.6435 4.064 43.0489 4.064C43.7422 4.064 44.3129 4.176 44.7609 4.4C45.2089 4.61333 45.5449 4.94933 45.7689 5.408C45.9929 5.856 46.1049 6.432 46.1049 7.136V11.36C46.1049 11.6053 46.0462 11.792 45.9289 11.92C45.8115 12.048 45.6409 12.112 45.4169 12.112C45.2035 12.112 45.0329 12.048 44.9049 11.92C44.7875 11.792 44.7289 11.6053 44.7289 11.36V10.224H44.8729C44.7875 10.6187 44.6275 10.96 44.3929 11.248C44.1582 11.536 43.8649 11.76 43.5129 11.92C43.1715 12.0693 42.7822 12.144 42.3449 12.144ZM48.7961 12.112C48.5721 12.112 48.3961 12.048 48.2681 11.92C48.1401 11.792 48.0761 11.6053 48.0761 11.36V4.832C48.0761 4.58667 48.1401 4.40533 48.2681 4.288C48.3961 4.16 48.5721 4.096 48.7961 4.096C49.0201 4.096 49.1908 4.16 49.3081 4.288C49.4361 4.40533 49.5001 4.58667 49.5001 4.832V6.144L49.3241 5.904C49.5481 5.296 49.9108 4.83733 50.4121 4.528C50.9241 4.21867 51.5055 4.064 52.1561 4.064C52.7855 4.064 53.3028 4.176 53.7081 4.4C54.1135 4.624 54.4175 4.96533 54.6201 5.424C54.8228 5.88267 54.9241 6.464 54.9241 7.168V11.36C54.9241 11.6053 54.8601 11.792 54.7321 11.92C54.6148 12.048 54.4388 12.112 54.2041 12.112C53.9695 12.112 53.7881 12.048 53.6601 11.92C53.5321 11.792 53.4681 11.6053 53.4681 11.36V7.248C53.4681 6.55467 53.3348 6.048 53.0681 5.728C52.8015 5.408 52.3748 5.248 51.7881 5.248C51.1055 5.248 50.5561 5.46133 50.1401 5.888C49.7348 6.304 49.5321 6.86933 49.5321 7.584V11.36C49.5321 11.8613 49.2868 12.112 48.7961 12.112ZM59.8884 12.144C59.2057 12.144 58.603 11.984 58.0804 11.664C57.5684 11.3333 57.1684 10.864 56.8804 10.256C56.5924 9.63733 56.4484 8.91733 56.4484 8.096C56.4484 7.264 56.587 6.54933 56.8644 5.952C57.1524 5.344 57.5524 4.88 58.0644 4.56C58.587 4.22933 59.195 4.064 59.8884 4.064C60.5817 4.064 61.179 4.24 61.6804 4.592C62.1817 4.93333 62.5177 5.392 62.6884 5.968H62.5124V1.344C62.5124 1.09867 62.571 0.917333 62.6884 0.799999C62.8164 0.672 62.9977 0.608 63.2324 0.608C63.467 0.608 63.6484 0.672 63.7764 0.799999C63.9044 0.917333 63.9684 1.09867 63.9684 1.344V11.36C63.9684 11.6053 63.9044 11.792 63.7764 11.92C63.6484 12.048 63.467 12.112 63.2324 12.112C63.0084 12.112 62.8324 12.048 62.7044 11.92C62.5764 11.792 62.5124 11.6053 62.5124 11.36V9.904L62.6884 10.192C62.5284 10.7893 62.1924 11.264 61.6804 11.616C61.179 11.968 60.5817 12.144 59.8884 12.144ZM60.2244 10.992C60.6937 10.992 61.099 10.88 61.4404 10.656C61.7924 10.432 62.059 10.1067 62.2404 9.68C62.4324 9.25333 62.5284 8.72533 62.5284 8.096C62.5284 7.15733 62.3204 6.44267 61.9044 5.952C61.4884 5.46133 60.9284 5.216 60.2244 5.216C59.7657 5.216 59.3604 5.328 59.0084 5.552C58.667 5.76533 58.4004 6.08533 58.2084 6.512C58.0164 6.93867 57.9204 7.46667 57.9204 8.096C57.9204 9.03467 58.1284 9.75467 58.5444 10.256C58.971 10.7467 59.531 10.992 60.2244 10.992ZM68.463 12.144C67.9297 12.144 67.4443 12.0373 67.007 11.824C66.5803 11.6107 66.2443 11.3227 65.999 10.96C65.7643 10.5973 65.647 10.192 65.647 9.744C65.647 9.168 65.791 8.71467 66.079 8.384C66.367 8.05333 66.8523 7.81867 67.535 7.68C68.2177 7.53067 69.135 7.456 70.287 7.456H71.039V8.384H70.319C69.4977 8.384 68.847 8.42133 68.367 8.496C67.8977 8.57067 67.567 8.704 67.375 8.896C67.183 9.07733 67.087 9.33333 67.087 9.664C67.087 10.08 67.231 10.4213 67.519 10.688C67.8177 10.9547 68.223 11.088 68.735 11.088C69.1403 11.088 69.4977 10.992 69.807 10.8C70.1163 10.5973 70.3617 10.3307 70.543 10C70.7243 9.65867 70.815 9.26933 70.815 8.832V6.992C70.815 6.36267 70.687 5.90933 70.431 5.632C70.175 5.344 69.743 5.2 69.135 5.2C68.783 5.2 68.4203 5.248 68.047 5.344C67.6737 5.44 67.2843 5.58933 66.879 5.792C66.719 5.86667 66.5803 5.89333 66.463 5.872C66.3457 5.84 66.2497 5.776 66.175 5.68C66.111 5.57333 66.0737 5.46133 66.063 5.344C66.063 5.216 66.0897 5.09333 66.143 4.976C66.207 4.85867 66.3137 4.77333 66.463 4.72C66.9323 4.48533 67.3963 4.32 67.855 4.224C68.3243 4.11733 68.7617 4.064 69.167 4.064C69.8603 4.064 70.431 4.176 70.879 4.4C71.327 4.61333 71.663 4.94933 71.887 5.408C72.111 5.856 72.223 6.432 72.223 7.136V11.36C72.223 11.6053 72.1643 11.792 72.047 11.92C71.9297 12.048 71.759 12.112 71.535 12.112C71.3217 12.112 71.151 12.048 71.023 11.92C70.9057 11.792 70.847 11.6053 70.847 11.36V10.224H70.991C70.9057 10.6187 70.7457 10.96 70.511 11.248C70.2763 11.536 69.983 11.76 69.631 11.92C69.2897 12.0693 68.9003 12.144 68.463 12.144ZM77.6983 15.024C77.1223 15.024 76.5623 14.96 76.0183 14.832C75.4849 14.704 74.9996 14.5067 74.5623 14.24C74.4236 14.1547 74.3276 14.0533 74.2743 13.936C74.2316 13.8293 74.2209 13.7173 74.2423 13.6C74.2743 13.4827 74.3276 13.376 74.4023 13.28C74.4876 13.1947 74.5836 13.136 74.6903 13.104C74.8076 13.0827 74.9249 13.1093 75.0423 13.184C75.5116 13.4507 75.9596 13.632 76.3863 13.728C76.8129 13.824 77.2183 13.872 77.6023 13.872C78.3596 13.872 78.9249 13.6747 79.2983 13.28C79.6823 12.896 79.8743 12.3307 79.8743 11.584V9.856H80.0183C79.8689 10.4533 79.5329 10.928 79.0103 11.28C78.4983 11.632 77.9009 11.808 77.2183 11.808C76.5143 11.808 75.9009 11.648 75.3783 11.328C74.8556 10.9973 74.4503 10.544 74.1623 9.968C73.8743 9.38133 73.7303 8.704 73.7303 7.936C73.7303 7.34933 73.8103 6.82133 73.9703 6.352C74.1409 5.872 74.3756 5.46667 74.6743 5.136C74.9836 4.79467 75.3516 4.53333 75.7783 4.352C76.2049 4.16 76.6849 4.064 77.2183 4.064C77.9116 4.064 78.5143 4.24 79.0263 4.592C79.5383 4.944 79.8689 5.41867 80.0183 6.016L79.8423 6.24V4.832C79.8423 4.58667 79.9063 4.40533 80.0343 4.288C80.1623 4.16 80.3436 4.096 80.5783 4.096C80.8023 4.096 80.9783 4.16 81.1063 4.288C81.2343 4.40533 81.2983 4.58667 81.2983 4.832V11.392C81.2983 12.5973 80.9889 13.504 80.3703 14.112C79.7623 14.72 78.8716 15.024 77.6983 15.024ZM77.5383 10.656C78.0183 10.656 78.4289 10.5493 78.7703 10.336C79.1223 10.112 79.3889 9.79733 79.5703 9.392C79.7623 8.976 79.8583 8.49067 79.8583 7.936C79.8583 7.09333 79.6503 6.432 79.2343 5.952C78.8183 5.46133 78.2529 5.216 77.5383 5.216C77.0583 5.216 76.6423 5.328 76.2903 5.552C75.9489 5.76533 75.6823 6.07467 75.4903 6.48C75.2983 6.88533 75.2023 7.37067 75.2023 7.936C75.2023 8.768 75.4103 9.42933 75.8263 9.92C76.2529 10.4107 76.8236 10.656 77.5383 10.656ZM86.9118 12.144C86.0691 12.144 85.3438 11.984 84.7358 11.664C84.1384 11.3333 83.6744 10.8693 83.3438 10.272C83.0131 9.664 82.8478 8.94933 82.8478 8.128C82.8478 7.31733 83.0078 6.608 83.3278 6C83.6584 5.392 84.1064 4.91733 84.6718 4.576C85.2478 4.23467 85.9038 4.064 86.6398 4.064C87.1624 4.064 87.6318 4.15467 88.0478 4.336C88.4744 4.50667 88.8371 4.75733 89.1358 5.088C89.4344 5.41867 89.6584 5.824 89.8078 6.304C89.9678 6.77333 90.0478 7.30667 90.0478 7.904C90.0478 8.07467 89.9944 8.208 89.8878 8.304C89.7918 8.38933 89.6478 8.432 89.4558 8.432H83.9838V7.504H89.0878L88.8158 7.728C88.8158 7.17333 88.7304 6.704 88.5598 6.32C88.3998 5.92533 88.1598 5.62667 87.8398 5.424C87.5304 5.22133 87.1411 5.12 86.6718 5.12C86.1598 5.12 85.7224 5.24267 85.3598 5.488C84.9971 5.72267 84.7198 6.05867 84.5278 6.496C84.3358 6.92267 84.2398 7.41867 84.2398 7.984V8.08C84.2398 9.04 84.4691 9.76533 84.9278 10.256C85.3864 10.7467 86.0478 10.992 86.9118 10.992C87.2531 10.992 87.5998 10.9493 87.9518 10.864C88.3144 10.7787 88.6611 10.624 88.9918 10.4C89.1518 10.304 89.2958 10.2613 89.4238 10.272C89.5624 10.272 89.6744 10.3147 89.7598 10.4C89.8451 10.4747 89.8984 10.5707 89.9198 10.688C89.9411 10.7947 89.9251 10.912 89.8718 11.04C89.8184 11.168 89.7171 11.28 89.5678 11.376C89.2158 11.6213 88.7944 11.8133 88.3038 11.952C87.8238 12.08 87.3598 12.144 86.9118 12.144ZM94.2266 12.144C93.7466 12.144 93.2613 12.0907 92.7706 11.984C92.2906 11.8667 91.8373 11.6693 91.4106 11.392C91.2933 11.3173 91.208 11.2267 91.1546 11.12C91.112 11.0027 91.096 10.8907 91.1066 10.784C91.128 10.6667 91.176 10.5653 91.2506 10.48C91.3253 10.3947 91.416 10.3467 91.5226 10.336C91.64 10.3147 91.7626 10.3413 91.8906 10.416C92.3066 10.6507 92.7066 10.816 93.0906 10.912C93.4853 11.008 93.8746 11.056 94.2586 11.056C94.8453 11.056 95.288 10.9493 95.5866 10.736C95.8853 10.5227 96.0346 10.24 96.0346 9.888C96.0346 9.58933 95.9333 9.36 95.7306 9.2C95.5386 9.02933 95.2346 8.90133 94.8186 8.816L93.3306 8.512C92.6693 8.36267 92.168 8.11733 91.8266 7.776C91.496 7.424 91.3306 6.976 91.3306 6.432C91.3306 5.952 91.4586 5.536 91.7146 5.184C91.9813 4.82133 92.3493 4.544 92.8186 4.352C93.288 4.16 93.8266 4.064 94.4346 4.064C94.904 4.064 95.3466 4.128 95.7626 4.256C96.1893 4.37333 96.5733 4.55467 96.9146 4.8C97.0426 4.87467 97.1226 4.97067 97.1546 5.088C97.1973 5.19467 97.2026 5.30667 97.1706 5.424C97.1493 5.53067 97.1013 5.62133 97.0266 5.696C96.952 5.77067 96.856 5.81867 96.7386 5.84C96.6213 5.85067 96.4933 5.81867 96.3546 5.744C96.0453 5.53067 95.7253 5.38133 95.3946 5.296C95.0746 5.2 94.7546 5.152 94.4346 5.152C93.8586 5.152 93.4213 5.264 93.1226 5.488C92.8346 5.712 92.6906 6.00533 92.6906 6.368C92.6906 6.64533 92.776 6.87467 92.9466 7.056C93.128 7.23733 93.4106 7.37067 93.7946 7.456L95.2826 7.76C95.976 7.90933 96.4986 8.14933 96.8506 8.48C97.2026 8.8 97.3786 9.23733 97.3786 9.792C97.3786 10.5173 97.0906 11.0933 96.5146 11.52C95.9493 11.936 95.1866 12.144 94.2266 12.144Z" fill="#252121"/>
</svg>
