<svg width="481" height="42" viewBox="0 0 481 42" fill="none" xmlns="http://www.w3.org/2000/svg">
<path d="M15.6968 41.192C14.0697 41.192 12.4426 41.0625 10.8155 40.8037C9.18832 40.5818 7.65364 40.2305 6.21141 39.7497C4.76918 39.232 3.47487 38.6034 2.32848 37.8637C1.66284 37.42 1.20058 36.8838 0.941721 36.2551C0.682859 35.6264 0.590409 35.0163 0.664369 34.4246C0.77531 33.7959 1.01568 33.2597 1.38548 32.8159C1.79227 32.3352 2.2915 32.0394 2.88319 31.9284C3.47487 31.8175 4.12202 31.9839 4.82465 32.4276C6.45178 33.3891 8.17136 34.0918 9.9834 34.5355C11.7954 34.9793 13.6999 35.2012 15.6968 35.2012C18.6183 35.2012 20.7447 34.7204 22.0759 33.7589C23.4072 32.7605 24.0729 31.4847 24.0729 29.9315C24.0729 28.6372 23.5921 27.6202 22.6306 26.8806C21.7061 26.141 20.0975 25.5308 17.8047 25.0501L11.703 23.7743C8.18985 23.0347 5.56425 21.7958 3.82618 20.0577C2.12509 18.2827 1.27454 15.9529 1.27454 13.0685C1.27454 11.2564 1.64435 9.61082 2.38395 8.13161C3.12356 6.6524 4.159 5.37658 5.49029 4.30416C6.85856 3.23173 8.46721 2.41816 10.3162 1.86346C12.2022 1.27177 14.2731 0.975932 16.5289 0.975932C18.7477 0.975932 20.8556 1.25328 22.8525 1.80799C24.8495 2.36269 26.643 3.17626 28.2332 4.24869C28.8248 4.65547 29.2131 5.1547 29.398 5.74639C29.6199 6.33807 29.6754 6.92975 29.5644 7.52144C29.4535 8.07614 29.1946 8.55689 28.7879 8.96367C28.3811 9.37045 27.8634 9.61082 27.2347 9.68478C26.643 9.75874 25.9589 9.57384 25.1823 9.13008C23.814 8.35349 22.4273 7.79879 21.022 7.46597C19.6168 7.13314 18.1006 6.96673 16.4734 6.96673C14.7723 6.96673 13.3116 7.20711 12.0913 7.68785C10.8709 8.16859 9.92793 8.85273 9.26228 9.74025C8.63362 10.5908 8.31928 11.6078 8.31928 12.7911C8.31928 14.1224 8.76305 15.1948 9.65057 16.0084C10.5381 16.785 12.0543 17.3952 14.1991 17.8389L20.2454 19.1148C23.9065 19.8913 26.6245 21.1117 28.3996 22.7758C30.2116 24.4399 31.1176 26.6587 31.1176 29.4322C31.1176 31.2073 30.7478 32.8159 30.0082 34.2582C29.3056 35.7004 28.2701 36.9392 26.9019 37.9747C25.5706 39.0101 23.9619 39.8052 22.0759 40.3599C20.1899 40.9146 18.0636 41.192 15.6968 41.192ZM47.6955 41.192C44.6261 41.192 41.982 40.6188 39.7632 39.4724C37.5444 38.326 35.8248 36.6989 34.6045 34.591C33.4211 32.4831 32.8294 29.987 32.8294 27.1025C32.8294 24.292 33.4026 21.8328 34.549 19.7249C35.7324 17.6171 37.341 15.9714 39.3749 14.7881C41.4458 13.5677 43.7941 12.9575 46.4197 12.9575C48.3426 12.9575 50.0622 13.2719 51.5784 13.9005C53.1316 14.5292 54.4444 15.4352 55.5168 16.6186C56.6262 17.802 57.4583 19.2442 58.013 20.9453C58.6046 22.6094 58.9005 24.4954 58.9005 26.6033C58.9005 27.2689 58.6601 27.7866 58.1794 28.1564C57.7356 28.4893 57.0885 28.6557 56.2379 28.6557H38.4319V24.6618H54.0191L53.1316 25.4938C53.1316 23.7928 52.8727 22.369 52.355 21.2226C51.8742 20.0762 51.1531 19.2072 50.1916 18.6155C49.2671 17.9869 48.1023 17.6725 46.697 17.6725C45.1438 17.6725 43.8125 18.0423 42.7031 18.7819C41.6307 19.4846 40.7986 20.5015 40.207 21.8328C39.6523 23.1271 39.3749 24.6803 39.3749 26.4923V26.8806C39.3749 29.913 40.0775 32.1873 41.4828 33.7035C42.925 35.1827 45.0329 35.9223 47.8064 35.9223C48.7679 35.9223 49.8403 35.8113 51.0237 35.5895C52.244 35.3306 53.3904 34.9053 54.4629 34.3136C55.2394 33.8699 55.9236 33.685 56.5153 33.7589C57.1069 33.7959 57.5692 33.9993 57.902 34.3691C58.2718 34.7389 58.4937 35.2012 58.5677 35.7559C58.6416 36.2736 58.5307 36.8098 58.2348 37.3645C57.976 37.9192 57.5137 38.4 56.8481 38.8067C55.5538 39.6203 54.0561 40.2305 52.355 40.6373C50.6909 41.0071 49.1377 41.192 47.6955 41.192ZM71.4364 41.192C68.367 41.192 66.0557 40.3229 64.5026 38.5849C62.9494 36.8098 62.1728 34.2212 62.1728 30.819V4.58151C62.1728 3.43512 62.4686 2.56608 63.0603 1.9744C63.652 1.38271 64.5026 1.08687 65.612 1.08687C66.7214 1.08687 67.5719 1.38271 68.1636 1.9744C68.7923 2.56608 69.1066 3.43512 69.1066 4.58151V30.4862C69.1066 32.1873 69.4579 33.4446 70.1605 34.2582C70.9001 35.0717 71.9356 35.4785 73.2669 35.4785C73.5627 35.4785 73.8401 35.4785 74.0989 35.4785C74.3578 35.4415 74.6167 35.4046 74.8755 35.3676C75.3933 35.2936 75.7446 35.4415 75.9295 35.8113C76.1144 36.1442 76.2068 36.8468 76.2068 37.9192C76.2068 38.8437 76.0219 39.5648 75.6521 40.0826C75.2823 40.6003 74.6721 40.9146 73.8216 41.0256C73.4518 41.0625 73.0635 41.0995 72.6567 41.1365C72.2499 41.1735 71.8431 41.192 71.4364 41.192ZM90.7652 41.192C87.6958 41.192 85.0518 40.6188 82.8329 39.4724C80.6141 38.326 78.8945 36.6989 77.6742 34.591C76.4908 32.4831 75.8991 29.987 75.8991 27.1025C75.8991 24.292 76.4723 21.8328 77.6187 19.7249C78.8021 17.6171 80.4107 15.9714 82.4446 14.7881C84.5155 13.5677 86.8638 12.9575 89.4894 12.9575C91.4124 12.9575 93.1319 13.2719 94.6481 13.9005C96.2013 14.5292 97.5141 15.4352 98.5865 16.6186C99.6959 17.802 100.528 19.2442 101.083 20.9453C101.674 22.6094 101.97 24.4954 101.97 26.6033C101.97 27.2689 101.73 27.7866 101.249 28.1564C100.805 28.4893 100.158 28.6557 99.3076 28.6557H81.5016V24.6618H97.0888L96.2013 25.4938C96.2013 23.7928 95.9424 22.369 95.4247 21.2226C94.944 20.0762 94.2229 19.2072 93.2614 18.6155C92.3369 17.9869 91.172 17.6725 89.7667 17.6725C88.2136 17.6725 86.8823 18.0423 85.7729 18.7819C84.7004 19.4846 83.8684 20.5015 83.2767 21.8328C82.722 23.1271 82.4446 24.6803 82.4446 26.4923V26.8806C82.4446 29.913 83.1473 32.1873 84.5525 33.7035C85.9947 35.1827 88.1026 35.9223 90.8761 35.9223C91.8376 35.9223 92.9101 35.8113 94.0934 35.5895C95.3138 35.3306 96.4602 34.9053 97.5326 34.3136C98.3092 33.8699 98.9933 33.685 99.585 33.7589C100.177 33.7959 100.639 33.9993 100.972 34.3691C101.342 34.7389 101.563 35.2012 101.637 35.7559C101.711 36.2736 101.6 36.8098 101.305 37.3645C101.046 37.9192 100.583 38.4 99.9178 38.8067C98.6235 39.6203 97.1258 40.2305 95.4247 40.6373C93.7606 41.0071 92.2074 41.192 90.7652 41.192ZM117.779 41.192C114.931 41.192 112.454 40.6188 110.346 39.4724C108.238 38.289 106.611 36.6249 105.464 34.4801C104.318 32.3352 103.745 29.8205 103.745 26.9361C103.745 24.7542 104.059 22.8128 104.688 21.1117C105.353 19.3736 106.296 17.9129 107.517 16.7295C108.737 15.5092 110.216 14.5847 111.954 13.956C113.693 13.2904 115.634 12.9575 117.779 12.9575C118.999 12.9575 120.312 13.124 121.717 13.4568C123.159 13.7896 124.509 14.3443 125.767 15.1209C126.358 15.4907 126.747 15.9344 126.931 16.4522C127.116 16.9699 127.153 17.5061 127.042 18.0608C126.931 18.5785 126.691 19.0408 126.321 19.4476C125.988 19.8174 125.563 20.0577 125.045 20.1687C124.528 20.2427 123.955 20.1132 123.326 19.7804C122.512 19.2997 121.68 18.9483 120.83 18.7265C119.979 18.4676 119.166 18.3382 118.389 18.3382C117.169 18.3382 116.096 18.5416 115.172 18.9483C114.247 19.3181 113.452 19.8728 112.787 20.6125C112.158 21.3151 111.677 22.2026 111.344 23.275C111.011 24.3475 110.845 25.5863 110.845 26.9915C110.845 29.7281 111.492 31.8914 112.787 33.4816C114.118 35.0348 115.985 35.8113 118.389 35.8113C119.166 35.8113 119.961 35.7004 120.774 35.4785C121.625 35.2566 122.475 34.9053 123.326 34.4246C123.955 34.0918 124.509 33.9808 124.99 34.0918C125.508 34.2027 125.933 34.4616 126.266 34.8683C126.599 35.2381 126.802 35.7004 126.876 36.2551C126.95 36.7728 126.876 37.2906 126.654 37.8083C126.469 38.326 126.099 38.7513 125.545 39.0841C124.324 39.8237 123.03 40.3599 121.662 40.6927C120.294 41.0256 118.999 41.192 117.779 41.192ZM141.722 41.192C139.318 41.192 137.303 40.7852 135.675 39.9716C134.085 39.1581 132.902 37.9747 132.125 36.4215C131.349 34.8314 130.96 32.8714 130.96 30.5417V18.7265H128.076C127.188 18.7265 126.504 18.5046 126.024 18.0608C125.543 17.5801 125.302 16.9329 125.302 16.1194C125.302 15.2688 125.543 14.6216 126.024 14.1779C126.504 13.7341 127.188 13.5122 128.076 13.5122H130.96V8.46443C130.96 7.31805 131.256 6.44901 131.848 5.85733C132.477 5.26564 133.346 4.9698 134.455 4.9698C135.564 4.9698 136.415 5.26564 137.007 5.85733C137.598 6.44901 137.894 7.31805 137.894 8.46443V13.5122H143.774C144.662 13.5122 145.346 13.7341 145.827 14.1779C146.307 14.6216 146.548 15.2688 146.548 16.1194C146.548 16.9329 146.307 17.5801 145.827 18.0608C145.346 18.5046 144.662 18.7265 143.774 18.7265H137.894V30.1534C137.894 31.9284 138.283 33.2597 139.059 34.1472C139.836 35.0348 141.093 35.4785 142.831 35.4785C143.46 35.4785 144.014 35.4231 144.495 35.3121C144.976 35.2012 145.401 35.1272 145.771 35.0902C146.215 35.0532 146.585 35.2012 146.88 35.534C147.176 35.8298 147.324 36.4585 147.324 37.42C147.324 38.1596 147.195 38.8252 146.936 39.4169C146.714 39.9716 146.289 40.3599 145.66 40.5818C145.179 40.7297 144.551 40.8591 143.774 40.9701C142.998 41.118 142.313 41.192 141.722 41.192ZM170.138 41.192C168.178 41.192 166.421 40.8222 164.868 40.0826C163.352 39.306 162.15 38.2705 161.262 36.9762C160.412 35.6819 159.987 34.2212 159.987 32.5941C159.987 30.5971 160.504 29.0255 161.54 27.8791C162.575 26.6957 164.258 25.8452 166.588 25.3274C168.917 24.8097 172.042 24.5509 175.962 24.5509H178.736V28.5447H176.018C173.725 28.5447 171.894 28.6557 170.526 28.8775C169.158 29.0994 168.178 29.4877 167.586 30.0424C167.031 30.5601 166.754 31.2998 166.754 32.2612C166.754 33.4816 167.179 34.4801 168.03 35.2566C168.88 36.0332 170.064 36.4215 171.58 36.4215C172.8 36.4215 173.873 36.1442 174.797 35.5895C175.759 34.9978 176.517 34.2027 177.072 33.2042C177.626 32.2058 177.904 31.0594 177.904 29.7651V23.386C177.904 21.537 177.497 20.2057 176.683 19.3921C175.87 18.5785 174.501 18.1718 172.578 18.1718C171.506 18.1718 170.341 18.3012 169.084 18.56C167.863 18.8189 166.569 19.2627 165.201 19.8913C164.498 20.2242 163.87 20.3166 163.315 20.1687C162.797 20.0208 162.39 19.7249 162.094 19.2812C161.799 18.8004 161.651 18.2827 161.651 17.728C161.651 17.1733 161.799 16.6371 162.094 16.1194C162.39 15.5646 162.89 15.1579 163.592 14.899C165.293 14.1964 166.92 13.6971 168.474 13.4013C170.064 13.1055 171.506 12.9575 172.8 12.9575C175.463 12.9575 177.645 13.3643 179.346 14.1779C181.084 14.9915 182.378 16.2303 183.229 17.8944C184.079 19.5215 184.505 21.6294 184.505 24.218V37.5309C184.505 38.6773 184.227 39.5648 183.672 40.1935C183.118 40.7852 182.323 41.081 181.287 41.081C180.252 41.081 179.438 40.7852 178.847 40.1935C178.292 39.5648 178.015 38.6773 178.015 37.5309V34.8683H178.458C178.199 36.1627 177.682 37.2906 176.905 38.252C176.165 39.1765 175.222 39.8977 174.076 40.4154C172.93 40.9331 171.617 41.192 170.138 41.192ZM212.093 41.192C210.503 41.192 208.821 41.0256 207.045 40.6927C205.27 40.3599 203.68 39.7867 202.275 38.9732C201.683 38.6034 201.258 38.1781 200.999 37.6973C200.777 37.1796 200.685 36.6804 200.722 36.1996C200.796 35.6819 200.981 35.2381 201.277 34.8683C201.609 34.4985 202.016 34.2582 202.497 34.1472C203.015 34.0363 203.569 34.1287 204.161 34.4246C205.64 35.1272 207.027 35.6264 208.321 35.9223C209.616 36.1811 210.891 36.3106 212.149 36.3106C213.924 36.3106 215.237 36.0147 216.087 35.4231C216.975 34.7944 217.418 33.9808 217.418 32.9824C217.418 32.1318 217.123 31.4847 216.531 31.0409C215.976 30.5601 215.126 30.2088 213.979 29.987L208.432 28.933C206.139 28.4893 204.383 27.6572 203.163 26.4368C201.979 25.1795 201.387 23.5709 201.387 21.6109C201.387 19.8359 201.868 18.3012 202.83 17.0069C203.828 15.7126 205.196 14.7141 206.935 14.0115C208.673 13.3089 210.67 12.9575 212.925 12.9575C214.552 12.9575 216.069 13.1424 217.474 13.5122C218.916 13.8451 220.303 14.3813 221.634 15.1209C222.189 15.4167 222.559 15.805 222.744 16.2858C222.965 16.7665 223.021 17.2657 222.91 17.7835C222.799 18.2642 222.577 18.708 222.244 19.1148C221.912 19.4846 221.486 19.7249 220.969 19.8359C220.488 19.9098 219.933 19.7989 219.304 19.503C218.158 18.9114 217.049 18.4861 215.976 18.2272C214.941 17.9684 213.942 17.8389 212.981 17.8389C211.169 17.8389 209.819 18.1533 208.931 18.7819C208.081 19.4106 207.656 20.2427 207.656 21.2781C207.656 22.0547 207.914 22.7018 208.432 23.2196C208.95 23.7373 209.745 24.0886 210.817 24.2735L216.364 25.3274C218.768 25.7712 220.58 26.5848 221.801 27.7681C223.058 28.9515 223.687 30.5417 223.687 32.5386C223.687 35.2381 222.633 37.3645 220.525 38.9177C218.417 40.4339 215.606 41.192 212.093 41.192ZM239.185 41.192C236.781 41.192 234.766 40.7852 233.139 39.9716C231.549 39.1581 230.365 37.9747 229.589 36.4215C228.812 34.8314 228.424 32.8714 228.424 30.5417V18.7265H225.539C224.652 18.7265 223.968 18.5046 223.487 18.0608C223.006 17.5801 222.766 16.9329 222.766 16.1194C222.766 15.2688 223.006 14.6216 223.487 14.1779C223.968 13.7341 224.652 13.5122 225.539 13.5122H228.424V8.46443C228.424 7.31805 228.72 6.44901 229.311 5.85733C229.94 5.26564 230.809 4.9698 231.918 4.9698C233.028 4.9698 233.878 5.26564 234.47 5.85733C235.062 6.44901 235.357 7.31805 235.357 8.46443V13.5122H241.237C242.125 13.5122 242.809 13.7341 243.29 14.1779C243.77 14.6216 244.011 15.2688 244.011 16.1194C244.011 16.9329 243.77 17.5801 243.29 18.0608C242.809 18.5046 242.125 18.7265 241.237 18.7265H235.357V30.1534C235.357 31.9284 235.746 33.2597 236.522 34.1472C237.299 35.0348 238.556 35.4785 240.294 35.4785C240.923 35.4785 241.478 35.4231 241.958 35.3121C242.439 35.2012 242.864 35.1272 243.234 35.0902C243.678 35.0532 244.048 35.2012 244.344 35.534C244.64 35.8298 244.787 36.4585 244.787 37.42C244.787 38.1596 244.658 38.8252 244.399 39.4169C244.177 39.9716 243.752 40.3599 243.123 40.5818C242.643 40.7297 242.014 40.8591 241.237 40.9701C240.461 41.118 239.777 41.192 239.185 41.192ZM257.929 41.192C255.118 41.192 252.678 40.6188 250.607 39.4724C248.536 38.326 246.927 36.6989 245.781 34.591C244.634 32.4461 244.061 29.9315 244.061 27.047C244.061 24.8652 244.375 22.9237 245.004 21.2226C245.67 19.4846 246.613 18.0053 247.833 16.785C249.053 15.5277 250.514 14.5847 252.215 13.956C253.916 13.2904 255.821 12.9575 257.929 12.9575C260.739 12.9575 263.18 13.5307 265.251 14.6771C267.322 15.8235 268.93 17.4506 270.077 19.5585C271.223 21.6664 271.796 24.1626 271.796 27.047C271.796 29.2289 271.464 31.1888 270.798 32.9269C270.169 34.665 269.245 36.1627 268.024 37.42C266.804 38.6403 265.343 39.5833 263.642 40.249C261.941 40.8776 260.037 41.192 257.929 41.192ZM257.929 35.9223C259.297 35.9223 260.499 35.5895 261.534 34.9238C262.57 34.2582 263.365 33.2782 263.92 31.9839C264.511 30.6526 264.807 29.007 264.807 27.047C264.807 24.0886 264.178 21.8883 262.921 20.446C261.664 18.9668 260 18.2272 257.929 18.2272C256.56 18.2272 255.359 18.56 254.323 19.2257C253.288 19.8544 252.474 20.8343 251.882 22.1656C251.328 23.4599 251.05 25.0871 251.05 27.047C251.05 29.9685 251.679 32.1873 252.936 33.7035C254.194 35.1827 255.858 35.9223 257.929 35.9223ZM278.851 41.081C277.704 41.081 276.817 40.7852 276.188 40.1935C275.596 39.5648 275.3 38.6773 275.3 37.5309V16.5631C275.3 15.4167 275.596 14.5477 276.188 13.956C276.78 13.3643 277.612 13.0685 278.684 13.0685C279.757 13.0685 280.589 13.3643 281.18 13.956C281.772 14.5477 282.068 15.4167 282.068 16.5631V20.0577H281.513C282.031 17.8389 283.048 16.1563 284.564 15.0099C286.08 13.8636 288.096 13.1794 290.61 12.9575C291.387 12.8836 291.997 13.087 292.441 13.5677C292.922 14.0115 293.199 14.7141 293.273 15.6756C293.347 16.6001 293.125 17.3582 292.607 17.9499C292.127 18.5046 291.387 18.8374 290.388 18.9483L289.168 19.0593C286.912 19.2812 285.211 19.9838 284.065 21.1672C282.918 22.3135 282.345 23.9407 282.345 26.0486V37.5309C282.345 38.6773 282.049 39.5648 281.458 40.1935C280.866 40.7852 279.997 41.081 278.851 41.081ZM307.739 41.192C304.67 41.192 302.026 40.6188 299.807 39.4724C297.588 38.326 295.868 36.6989 294.648 34.591C293.465 32.4831 292.873 29.987 292.873 27.1025C292.873 24.292 293.446 21.8328 294.592 19.7249C295.776 17.6171 297.384 15.9714 299.418 14.7881C301.489 13.5677 303.838 12.9575 306.463 12.9575C308.386 12.9575 310.106 13.2719 311.622 13.9005C313.175 14.5292 314.488 15.4352 315.56 16.6186C316.67 17.802 317.502 19.2442 318.056 20.9453C318.648 22.6094 318.944 24.4954 318.944 26.6033C318.944 27.2689 318.704 27.7866 318.223 28.1564C317.779 28.4893 317.132 28.6557 316.281 28.6557H298.475V24.6618H314.063L313.175 25.4938C313.175 23.7928 312.916 22.369 312.398 21.2226C311.918 20.0762 311.197 19.2072 310.235 18.6155C309.311 17.9869 308.146 17.6725 306.74 17.6725C305.187 17.6725 303.856 18.0423 302.747 18.7819C301.674 19.4846 300.842 20.5015 300.25 21.8328C299.696 23.1271 299.418 24.6803 299.418 26.4923V26.8806C299.418 29.913 300.121 32.1873 301.526 33.7035C302.969 35.1827 305.076 35.9223 307.85 35.9223C308.811 35.9223 309.884 35.8113 311.067 35.5895C312.288 35.3306 313.434 34.9053 314.506 34.3136C315.283 33.8699 315.967 33.685 316.559 33.7589C317.15 33.7959 317.613 33.9993 317.946 34.3691C318.315 34.7389 318.537 35.2012 318.611 35.7559C318.685 36.2736 318.574 36.8098 318.278 37.3645C318.019 37.9192 317.557 38.4 316.892 38.8067C315.597 39.6203 314.1 40.2305 312.398 40.6373C310.734 41.0071 309.181 41.192 307.739 41.192ZM350.699 41.192C348.407 41.192 346.391 40.6188 344.653 39.4724C342.952 38.326 341.824 36.7913 341.27 34.8683L341.88 33.4816V37.5309C341.88 38.6773 341.584 39.5648 340.992 40.1935C340.4 40.7852 339.568 41.081 338.496 41.081C337.387 41.081 336.536 40.7852 335.944 40.1935C335.353 39.5648 335.057 38.6773 335.057 37.5309V4.58151C335.057 3.43512 335.353 2.56608 335.944 1.9744C336.536 1.38271 337.387 1.08687 338.496 1.08687C339.605 1.08687 340.456 1.38271 341.048 1.9744C341.676 2.56608 341.991 3.43512 341.991 4.58151V19.0038H341.325C341.917 17.1918 343.063 15.7311 344.764 14.6217C346.465 13.5122 348.444 12.9575 350.699 12.9575C353.103 12.9575 355.193 13.5307 356.968 14.6771C358.743 15.8235 360.129 17.4506 361.128 19.5585C362.126 21.6294 362.626 24.1256 362.626 27.047C362.626 29.9315 362.126 32.4461 361.128 34.591C360.129 36.6989 358.724 38.326 356.912 39.4724C355.137 40.6188 353.066 41.192 350.699 41.192ZM348.758 35.9223C350.126 35.9223 351.328 35.5895 352.364 34.9238C353.399 34.2582 354.194 33.2782 354.749 31.9839C355.341 30.6526 355.636 29.007 355.636 27.047C355.636 24.0886 355.008 21.8883 353.75 20.446C352.493 18.9668 350.829 18.2272 348.758 18.2272C347.39 18.2272 346.188 18.56 345.152 19.2257C344.117 19.8544 343.303 20.8343 342.712 22.1656C342.157 23.4599 341.88 25.0871 341.88 27.047C341.88 29.9685 342.508 32.1873 343.766 33.7035C345.023 35.1827 346.687 35.9223 348.758 35.9223ZM379.467 41.192C376.398 41.192 373.754 40.6188 371.535 39.4724C369.316 38.326 367.596 36.6989 366.376 34.591C365.193 32.4831 364.601 29.987 364.601 27.1025C364.601 24.292 365.174 21.8328 366.32 19.7249C367.504 17.6171 369.112 15.9714 371.146 14.7881C373.217 13.5677 375.566 12.9575 378.191 12.9575C380.114 12.9575 381.834 13.2719 383.35 13.9005C384.903 14.5292 386.216 15.4352 387.288 16.6186C388.398 17.802 389.23 19.2442 389.784 20.9453C390.376 22.6094 390.672 24.4954 390.672 26.6033C390.672 27.2689 390.432 27.7866 389.951 28.1564C389.507 28.4893 388.86 28.6557 388.009 28.6557H370.203V24.6618H385.791L384.903 25.4938C384.903 23.7928 384.644 22.369 384.126 21.2226C383.646 20.0762 382.925 19.2072 381.963 18.6155C381.039 17.9869 379.874 17.6725 378.468 17.6725C376.915 17.6725 375.584 18.0423 374.475 18.7819C373.402 19.4846 372.57 20.5015 371.978 21.8328C371.424 23.1271 371.146 24.6803 371.146 26.4923V26.8806C371.146 29.913 371.849 32.1873 373.254 33.7035C374.696 35.1827 376.804 35.9223 379.578 35.9223C380.539 35.9223 381.612 35.8113 382.795 35.5895C384.016 35.3306 385.162 34.9053 386.234 34.3136C387.011 33.8699 387.695 33.685 388.287 33.7589C388.878 33.7959 389.341 33.9993 389.674 34.3691C390.043 34.7389 390.265 35.2012 390.339 35.7559C390.413 36.2736 390.302 36.8098 390.006 37.3645C389.747 37.9192 389.285 38.4 388.62 38.8067C387.325 39.6203 385.828 40.2305 384.126 40.6373C382.462 41.0071 380.909 41.192 379.467 41.192ZM403.208 41.192C400.138 41.192 397.827 40.3229 396.274 38.5849C394.721 36.8098 393.944 34.2212 393.944 30.819V4.58151C393.944 3.43512 394.24 2.56608 394.832 1.9744C395.424 1.38271 396.274 1.08687 397.383 1.08687C398.493 1.08687 399.343 1.38271 399.935 1.9744C400.564 2.56608 400.878 3.43512 400.878 4.58151V30.4862C400.878 32.1873 401.229 33.4446 401.932 34.2582C402.672 35.0717 403.707 35.4785 405.038 35.4785C405.334 35.4785 405.612 35.4785 405.87 35.4785C406.129 35.4415 406.388 35.4046 406.647 35.3676C407.165 35.2936 407.516 35.4415 407.701 35.8113C407.886 36.1442 407.978 36.8468 407.978 37.9192C407.978 38.8437 407.793 39.5648 407.424 40.0826C407.054 40.6003 406.444 40.9146 405.593 41.0256C405.223 41.0625 404.835 41.0995 404.428 41.1365C404.021 41.1735 403.615 41.192 403.208 41.192ZM421.538 41.192C418.728 41.192 416.287 40.6188 414.216 39.4724C412.145 38.326 410.537 36.6989 409.39 34.591C408.244 32.4461 407.671 29.9315 407.671 27.047C407.671 24.8652 407.985 22.9237 408.614 21.2226C409.279 19.4846 410.222 18.0053 411.443 16.785C412.663 15.5277 414.124 14.5847 415.825 13.956C417.526 13.2904 419.43 12.9575 421.538 12.9575C424.349 12.9575 426.789 13.5307 428.86 14.6771C430.931 15.8235 432.54 17.4506 433.686 19.5585C434.833 21.6664 435.406 24.1626 435.406 27.047C435.406 29.2289 435.073 31.1888 434.407 32.9269C433.779 34.665 432.854 36.1627 431.634 37.42C430.413 38.6403 428.953 39.5833 427.252 40.249C425.551 40.8776 423.646 41.192 421.538 41.192ZM421.538 35.9223C422.906 35.9223 424.108 35.5895 425.144 34.9238C426.179 34.2582 426.974 33.2782 427.529 31.9839C428.121 30.6526 428.417 29.007 428.417 27.047C428.417 24.0886 427.788 21.8883 426.531 20.446C425.273 18.9668 423.609 18.2272 421.538 18.2272C420.17 18.2272 418.968 18.56 417.933 19.2257C416.897 19.8544 416.084 20.8343 415.492 22.1656C414.937 23.4599 414.66 25.0871 414.66 27.047C414.66 29.9685 415.289 32.1873 416.546 33.7035C417.803 35.1827 419.467 35.9223 421.538 35.9223ZM448.852 41.081C447.928 41.081 447.133 40.8591 446.467 40.4154C445.801 39.9346 445.265 39.195 444.858 38.1966L436.815 17.6725C436.482 16.785 436.371 16.0084 436.482 15.3428C436.63 14.6401 436.982 14.0854 437.536 13.6787C438.091 13.2719 438.831 13.0685 439.755 13.0685C440.569 13.0685 441.234 13.2719 441.752 13.6787C442.27 14.0485 442.713 14.7696 443.083 15.842L449.795 34.3136H448.519L455.453 15.3982C455.749 14.5847 456.137 13.993 456.618 13.6232C457.136 13.2534 457.801 13.0685 458.615 13.0685C459.429 13.0685 460.094 13.2719 460.612 13.6787C461.13 14.0485 461.518 14.6217 461.777 15.3982L468.6 34.3136H467.435L474.202 15.6756C474.572 14.6771 475.034 13.993 475.589 13.6232C476.181 13.2534 476.828 13.0685 477.53 13.0685C478.418 13.0685 479.102 13.2904 479.583 13.7341C480.064 14.1779 480.341 14.7511 480.415 15.4537C480.489 16.1194 480.359 16.859 480.027 17.6725L472.039 38.1966C471.669 39.1581 471.133 39.8792 470.43 40.3599C469.765 40.8407 468.969 41.081 468.045 41.081C467.12 41.081 466.307 40.8407 465.604 40.3599C464.939 39.8792 464.421 39.1581 464.051 38.1966L456.784 18.9483H459.946L452.846 38.1411C452.476 39.1396 451.959 39.8792 451.293 40.3599C450.627 40.8407 449.814 41.081 448.852 41.081Z" fill="#343434"/>
</svg>
