<svg width="622" height="136" viewBox="0 0 622 136" fill="none" xmlns="http://www.w3.org/2000/svg">
<path d="M21.1291 51.6576C19.8481 51.6576 18.8043 51.3493 17.9977 50.7325C17.2386 50.1157 16.6219 49.1431 16.1474 47.8147L1.27365 5.75535C0.751766 4.23713 0.846654 2.95614 1.55832 1.91237C2.31743 0.868592 3.5747 0.346705 5.33013 0.346705C6.61113 0.346705 7.60746 0.655093 8.31912 1.27187C9.03079 1.8412 9.60012 2.76636 10.0271 4.04736L22.8371 42.0502H19.9904L33.3697 4.11852C33.8441 2.83753 34.4372 1.88864 35.1488 1.27187C35.8605 0.655093 36.7857 0.346705 37.9243 0.346705C39.063 0.346705 39.9644 0.655093 40.6286 1.27187C41.2929 1.88864 41.8622 2.86125 42.3366 4.18969L55.2889 42.0502H52.7981L65.8215 4.04736C66.2485 2.81381 66.8179 1.88864 67.5295 1.27187C68.2412 0.655093 69.2138 0.346705 70.4473 0.346705C71.9656 0.346705 73.0805 0.868592 73.7922 1.91237C74.5038 2.95614 74.5987 4.23713 74.0768 5.75535L59.0607 47.8858C58.5863 49.1668 57.9695 50.1157 57.2104 50.7325C56.4513 51.3493 55.4312 51.6576 54.1503 51.6576C52.8693 51.6576 51.8492 51.3493 51.0901 50.7325C50.331 50.1157 49.7142 49.1431 49.2398 47.8147L36.8568 12.5162H38.4937L25.9684 47.8858C25.4939 49.1668 24.8772 50.1157 24.1181 50.7325C23.4064 51.3493 22.4101 51.6576 21.1291 51.6576ZM91.7105 51.8C87.7726 51.8 84.3804 51.0646 81.5337 49.5938C78.6871 48.1231 76.4809 46.0355 74.9153 43.3312C73.397 40.6269 72.6379 37.4244 72.6379 33.7237C72.6379 30.118 73.3733 26.9629 74.8441 24.2586C76.3623 21.5543 78.4261 19.443 81.0356 17.9248C83.6924 16.3591 86.7051 15.5763 90.0737 15.5763C92.5408 15.5763 94.7469 15.9796 96.6922 16.7861C98.6848 17.5927 100.369 18.7551 101.745 20.2733C103.168 21.7915 104.236 23.6418 104.947 25.8243C105.707 27.9593 106.086 30.3789 106.086 33.0832C106.086 33.9372 105.778 34.6014 105.161 35.0759C104.592 35.5029 103.761 35.7164 102.67 35.7164H79.8257V30.5924H99.8235L98.6848 31.6599C98.6848 29.4775 98.3527 27.6509 97.6885 26.1801C97.0717 24.7093 96.1465 23.5944 94.913 22.8353C93.7269 22.0287 92.2324 21.6254 90.4295 21.6254C88.4369 21.6254 86.7289 22.0999 85.3055 23.0488C83.9297 23.9502 82.8622 25.2549 82.1031 26.9629C81.3914 28.6235 81.0356 30.6161 81.0356 32.9409V33.4391C81.0356 37.3295 81.937 40.2473 83.7399 42.1925C85.5902 44.0903 88.2945 45.0392 91.8528 45.0392C93.0864 45.0392 94.4623 44.8968 95.9805 44.6122C97.5462 44.2801 99.0169 43.7345 100.393 42.9754C101.389 42.406 102.267 42.1688 103.026 42.2637C103.785 42.3111 104.378 42.5721 104.805 43.0465C105.28 43.521 105.564 44.114 105.659 44.8257C105.754 45.4899 105.612 46.1778 105.232 46.8895C104.9 47.6012 104.307 48.2179 103.453 48.7398C101.792 49.7836 99.8709 50.5664 97.6885 51.0883C95.5535 51.5628 93.5608 51.8 91.7105 51.8ZM150.955 51.8C145.736 51.8 141.252 50.7562 137.504 48.6687C133.804 46.5337 130.957 43.5447 128.964 39.7017C126.972 35.8113 125.975 31.2329 125.975 25.9666C125.975 22.0287 126.545 18.4941 127.683 15.3628C128.822 12.184 130.459 9.47972 132.594 7.24984C134.729 4.97252 137.338 3.24081 140.422 2.0547C143.554 0.82115 147.064 0.204374 150.955 0.204374C153.564 0.204374 156.126 0.536484 158.641 1.2007C161.155 1.86492 163.362 2.81381 165.259 4.04736C166.256 4.66413 166.92 5.42324 167.252 6.32468C167.584 7.17868 167.655 8.03267 167.465 8.88667C167.276 9.69322 166.872 10.3812 166.256 10.9505C165.686 11.5198 164.951 11.8519 164.049 11.9468C163.195 11.9943 162.247 11.6859 161.203 11.0217C159.732 10.0728 158.143 9.38484 156.435 8.95784C154.727 8.53084 152.995 8.31734 151.239 8.31734C147.871 8.31734 145.024 9.00528 142.7 10.3812C140.375 11.757 138.619 13.7497 137.433 16.3591C136.247 18.9686 135.654 22.1711 135.654 25.9666C135.654 29.7147 136.247 32.9172 137.433 35.5741C138.619 38.2309 140.375 40.2473 142.7 41.6232C145.024 42.9991 147.871 43.687 151.239 43.687C153.042 43.687 154.822 43.4735 156.577 43.0465C158.332 42.5721 159.993 41.8604 161.559 40.9115C162.602 40.2948 163.528 40.0338 164.334 40.1287C165.188 40.1761 165.9 40.4608 166.469 40.9827C167.038 41.5046 167.418 42.1688 167.608 42.9754C167.798 43.7345 167.75 44.541 167.465 45.395C167.181 46.2016 166.611 46.9132 165.757 47.53C163.86 48.9059 161.582 49.9734 158.925 50.7325C156.316 51.4441 153.659 51.8 150.955 51.8ZM176.837 51.6576C175.366 51.6576 174.228 51.2781 173.421 50.519C172.662 49.7124 172.283 48.5738 172.283 47.103V20.2021C172.283 18.7313 172.662 17.6164 173.421 16.8573C174.18 16.0982 175.248 15.7186 176.624 15.7186C178 15.7186 179.067 16.0982 179.826 16.8573C180.585 17.6164 180.965 18.7313 180.965 20.2021V24.6856H180.253C180.917 21.8389 182.222 19.6802 184.167 18.2095C186.112 16.7387 188.698 15.861 191.924 15.5763C192.921 15.4814 193.704 15.7424 194.273 16.3591C194.89 16.9285 195.246 17.8299 195.34 19.0635C195.435 20.2496 195.151 21.2222 194.486 21.9813C193.87 22.6929 192.921 23.1199 191.64 23.2623L190.074 23.4046C187.18 23.6893 184.998 24.5907 183.527 26.1089C182.056 27.5797 181.321 29.6672 181.321 32.3716V47.103C181.321 48.5738 180.941 49.7124 180.182 50.519C179.423 51.2781 178.308 51.6576 176.837 51.6576ZM208.415 51.8C205.9 51.8 203.647 51.3255 201.654 50.3767C199.709 49.3803 198.167 48.0519 197.028 46.3913C195.937 44.7308 195.392 42.8567 195.392 40.7692C195.392 38.2072 196.056 36.1908 197.384 34.7201C198.713 33.2018 200.871 32.1106 203.86 31.4464C206.849 30.7822 210.858 30.4501 215.887 30.4501H219.446V35.5741H215.959C213.017 35.5741 210.669 35.7164 208.913 36.0011C207.158 36.2857 205.9 36.7839 205.141 37.4955C204.43 38.1598 204.074 39.1086 204.074 40.3422C204.074 41.9079 204.619 43.1889 205.711 44.1852C206.802 45.1815 208.32 45.6797 210.265 45.6797C211.831 45.6797 213.207 45.3238 214.393 44.6122C215.627 43.8531 216.599 42.833 217.311 41.552C218.022 40.271 218.378 38.8003 218.378 37.1397V28.9556C218.378 26.5834 217.856 24.8754 216.813 23.8316C215.769 22.7878 214.013 22.2659 211.546 22.2659C210.17 22.2659 208.676 22.432 207.063 22.7641C205.497 23.0962 203.837 23.6655 202.081 24.4721C201.18 24.8991 200.373 25.0177 199.662 24.8279C198.997 24.6382 198.475 24.2586 198.096 23.6893C197.716 23.0725 197.527 22.4083 197.527 21.6966C197.527 20.9849 197.716 20.297 198.096 19.6328C198.475 18.9211 199.116 18.3992 200.017 18.0671C202.2 17.1657 204.287 16.5252 206.28 16.1456C208.32 15.7661 210.17 15.5763 211.831 15.5763C215.247 15.5763 218.046 16.0982 220.229 17.142C222.458 18.1857 224.119 19.7751 225.21 21.9101C226.301 23.9977 226.847 26.702 226.847 30.0231V47.103C226.847 48.5738 226.491 49.7124 225.78 50.519C225.068 51.2781 224.048 51.6576 222.719 51.6576C221.391 51.6576 220.347 51.2781 219.588 50.519C218.876 49.7124 218.521 48.5738 218.521 47.103V43.687H219.09C218.758 45.3476 218.094 46.7946 217.097 48.0282C216.148 49.2143 214.939 50.1394 213.468 50.8037C211.997 51.4679 210.313 51.8 208.415 51.8ZM239.862 51.6576C238.438 51.6576 237.323 51.2781 236.517 50.519C235.758 49.7124 235.378 48.5738 235.378 47.103V22.9776H232.104C230.966 22.9776 230.088 22.6929 229.471 22.1236C228.855 21.5068 228.546 20.6766 228.546 19.6328C228.546 18.5416 228.855 17.7113 229.471 17.142C230.088 16.5726 230.966 16.288 232.104 16.288H237.94L235.378 18.6365V16.2168C235.378 11.33 236.612 7.67684 239.079 5.25718C241.546 2.79008 245.104 1.34304 249.754 0.916037L252.173 0.702541C253.122 0.607651 253.881 0.773705 254.451 1.2007C255.02 1.58026 255.4 2.10214 255.589 2.76636C255.779 3.38314 255.803 4.02364 255.661 4.68786C255.518 5.35208 255.21 5.94513 254.735 6.46701C254.308 6.94146 253.739 7.2024 253.027 7.24984L252.031 7.32101C249.327 7.51079 247.358 8.19873 246.124 9.38483C244.891 10.5709 244.274 12.3738 244.274 14.7935V17.4266L243.135 16.288H250.323C251.462 16.288 252.339 16.5726 252.956 17.142C253.573 17.7113 253.881 18.5416 253.881 19.6328C253.881 20.6766 253.573 21.5068 252.956 22.1236C252.339 22.6929 251.462 22.9776 250.323 22.9776H244.274V47.103C244.274 50.1394 242.803 51.6576 239.862 51.6576ZM270.101 51.8C267.017 51.8 264.432 51.2781 262.344 50.2343C260.304 49.1905 258.786 47.6723 257.789 45.6797C256.793 43.6396 256.295 41.125 256.295 38.136V22.9776H252.594C251.456 22.9776 250.578 22.6929 249.961 22.1236C249.344 21.5068 249.036 20.6766 249.036 19.6328C249.036 18.5416 249.344 17.7113 249.961 17.142C250.578 16.5726 251.456 16.288 252.594 16.288H256.295V9.81183C256.295 8.34106 256.674 7.22612 257.434 6.46701C258.24 5.70791 259.355 5.32835 260.778 5.32835C262.202 5.32835 263.293 5.70791 264.052 6.46701C264.811 7.22612 265.191 8.34106 265.191 9.81183V16.288H272.734C273.873 16.288 274.751 16.5726 275.368 17.142C275.984 17.7113 276.293 18.5416 276.293 19.6328C276.293 20.6766 275.984 21.5068 275.368 22.1236C274.751 22.6929 273.873 22.9776 272.734 22.9776H265.191V37.6379C265.191 39.9152 265.689 41.6232 266.685 42.7619C267.682 43.9005 269.295 44.4698 271.525 44.4698C272.331 44.4698 273.043 44.3987 273.66 44.2563C274.276 44.114 274.822 44.0191 275.296 43.9717C275.866 43.9242 276.34 44.114 276.72 44.541C277.099 44.9206 277.289 45.7271 277.289 46.9607C277.289 47.9096 277.123 48.7636 276.791 49.5227C276.506 50.2343 275.961 50.7325 275.154 51.0172C274.537 51.2069 273.731 51.373 272.734 51.5153C271.738 51.7051 270.86 51.8 270.101 51.8ZM300.793 51.0883C299.228 51.0883 298.018 50.685 297.164 49.8785C296.357 49.0245 295.954 47.8147 295.954 46.249V5.75535C295.954 4.18969 296.357 3.00358 297.164 2.19703C298.018 1.34304 299.228 0.916037 300.793 0.916037H326.2C327.386 0.916037 328.287 1.22442 328.904 1.8412C329.568 2.45798 329.9 3.33569 329.9 4.47436C329.9 5.66046 329.568 6.58562 328.904 7.24984C328.287 7.86662 327.386 8.175 326.2 8.175H304.708V21.9813H324.634C325.868 21.9813 326.793 22.2897 327.41 22.9064C328.026 23.5232 328.335 24.4247 328.335 25.6108C328.335 26.7969 328.026 27.6983 327.41 28.3151C326.793 28.9319 325.868 29.2402 324.634 29.2402H304.708V43.8293H326.2C327.386 43.8293 328.287 44.1377 328.904 44.7545C329.568 45.3713 329.9 46.2727 329.9 47.4588C329.9 48.6449 329.568 49.5464 328.904 50.1632C328.287 50.7799 327.386 51.0883 326.2 51.0883H300.793ZM348.252 51.6576C347.066 51.6576 346.022 51.3493 345.121 50.7325C344.267 50.1157 343.555 49.1668 342.986 47.8858L331.67 21.6254C331.243 20.5817 331.077 19.6091 331.172 18.7076C331.314 17.8062 331.741 17.0945 332.453 16.5726C333.212 16.0033 334.232 15.7186 335.513 15.7186C336.604 15.7186 337.482 15.9796 338.146 16.5015C338.81 16.9759 339.404 17.9011 339.925 19.277L349.533 43.26H347.398L357.29 19.2058C357.812 17.8774 358.405 16.9759 359.069 16.5015C359.781 15.9796 360.73 15.7186 361.916 15.7186C362.96 15.7186 363.79 16.0033 364.407 16.5726C365.023 17.0945 365.403 17.8062 365.545 18.7076C365.688 19.5616 365.522 20.5105 365.047 21.5543L353.518 47.8858C352.996 49.1668 352.285 50.1157 351.383 50.7325C350.529 51.3493 349.485 51.6576 348.252 51.6576ZM385.3 51.8C381.362 51.8 377.969 51.0646 375.123 49.5938C372.276 48.1231 370.07 46.0355 368.504 43.3312C366.986 40.6269 366.227 37.4244 366.227 33.7237C366.227 30.118 366.962 26.9629 368.433 24.2586C369.951 21.5543 372.015 19.443 374.625 17.9248C377.281 16.3591 380.294 15.5763 383.663 15.5763C386.13 15.5763 388.336 15.9796 390.281 16.7861C392.274 17.5927 393.958 18.7551 395.334 20.2733C396.757 21.7915 397.825 23.6418 398.536 25.8243C399.296 27.9593 399.675 30.3789 399.675 33.0832C399.675 33.9372 399.367 34.6014 398.75 35.0759C398.181 35.5029 397.35 35.7164 396.259 35.7164H373.415V30.5924H393.412L392.274 31.6599C392.274 29.4775 391.942 27.6509 391.277 26.1801C390.661 24.7093 389.736 23.5944 388.502 22.8353C387.316 22.0287 385.821 21.6254 384.019 21.6254C382.026 21.6254 380.318 22.0999 378.895 23.0488C377.519 23.9502 376.451 25.2549 375.692 26.9629C374.98 28.6235 374.625 30.6161 374.625 32.9409V33.4391C374.625 37.3295 375.526 40.2473 377.329 42.1925C379.179 44.0903 381.884 45.0392 385.442 45.0392C386.675 45.0392 388.051 44.8968 389.569 44.6122C391.135 44.2801 392.606 43.7345 393.982 42.9754C394.978 42.406 395.856 42.1688 396.615 42.2637C397.374 42.3111 397.967 42.5721 398.394 43.0465C398.869 43.521 399.153 44.114 399.248 44.8257C399.343 45.4899 399.201 46.1778 398.821 46.8895C398.489 47.6012 397.896 48.2179 397.042 48.7398C395.381 49.7836 393.46 50.5664 391.277 51.0883C389.143 51.5628 387.15 51.8 385.3 51.8ZM408.428 51.6576C406.957 51.6576 405.819 51.2781 405.012 50.519C404.253 49.7124 403.873 48.5738 403.873 47.103V20.2021C403.873 18.7313 404.253 17.6164 405.012 16.8573C405.771 16.0982 406.839 15.7186 408.215 15.7186C409.59 15.7186 410.658 16.0982 411.417 16.8573C412.176 17.6164 412.556 18.7313 412.556 20.2021V24.6856H411.844C412.508 21.8389 413.813 19.6802 415.758 18.2095C417.703 16.7387 420.289 15.861 423.515 15.5763C424.512 15.4814 425.294 15.7424 425.864 16.3591C426.481 16.9285 426.836 17.8299 426.931 19.0635C427.026 20.2496 426.741 21.2222 426.077 21.9813C425.46 22.6929 424.512 23.1199 423.231 23.2623L421.665 23.4046C418.771 23.6893 416.588 24.5907 415.118 26.1089C413.647 27.5797 412.911 29.6672 412.911 32.3716V47.103C412.911 48.5738 412.532 49.7124 411.773 50.519C411.014 51.2781 409.899 51.6576 408.428 51.6576ZM439.875 64.4676C438.831 64.4676 437.977 64.1829 437.313 63.6136C436.648 63.0917 436.245 62.38 436.103 61.4786C436.008 60.5772 436.174 59.6283 436.601 58.632L441.44 47.8858V51.5865L428.488 21.6254C428.061 20.5817 427.919 19.6091 428.061 18.7076C428.203 17.8062 428.63 17.0945 429.342 16.5726C430.101 16.0033 431.121 15.7186 432.402 15.7186C433.493 15.7186 434.371 15.9796 435.035 16.5015C435.7 16.9759 436.293 17.9011 436.815 19.277L446.422 43.26H444.287L454.108 19.2058C454.63 17.8774 455.247 16.9759 455.958 16.5015C456.67 15.9796 457.619 15.7186 458.805 15.7186C459.849 15.7186 460.679 16.0033 461.296 16.5726C461.913 17.0945 462.292 17.8062 462.434 18.7076C462.577 19.5616 462.411 20.5105 461.936 21.5543L444.643 61.0516C444.026 62.38 443.362 63.2815 442.65 63.7559C441.938 64.2304 441.013 64.4676 439.875 64.4676ZM8.31912 122.088C6.75346 122.088 5.54363 121.685 4.68964 120.878C3.88309 120.024 3.47981 118.815 3.47981 117.249V76.7554C3.47981 75.1897 3.88309 74.0036 4.68964 73.197C5.54363 72.343 6.75346 71.916 8.31912 71.916H25.399C28.9099 71.916 31.8989 72.4379 34.366 73.4817C36.8331 74.5255 38.7072 76.02 39.9881 77.9652C41.3166 79.9104 41.9808 82.2352 41.9808 84.9395C41.9808 87.9759 41.1031 90.5379 39.3477 92.6254C37.5922 94.713 35.1963 96.1126 32.1598 96.8243V95.7568C35.6707 96.2787 38.3988 97.6071 40.344 99.7421C42.2892 101.877 43.2618 104.653 43.2618 108.069C43.2618 112.528 41.7436 115.992 38.7072 118.459C35.7182 120.878 31.5431 122.088 26.1819 122.088H8.31912ZM12.2333 115.185H25.0432C28.2694 115.185 30.6416 114.568 32.1598 113.335C33.6781 112.054 34.4372 110.156 34.4372 107.642C34.4372 105.08 33.6781 103.182 32.1598 101.948C30.6416 100.715 28.2694 100.098 25.0432 100.098H12.2333V115.185ZM12.2333 93.1948H23.8334C26.9647 93.1948 29.2895 92.6017 30.8077 91.4156C32.3733 90.1821 33.1562 88.3792 33.1562 86.007C33.1562 83.6348 32.3733 81.8556 30.8077 80.6695C29.2895 79.4359 26.9647 78.8192 23.8334 78.8192H12.2333V93.1948ZM60.2333 122.8C57.7188 122.8 55.4652 122.326 53.4725 121.377C51.5273 120.38 49.9854 119.052 48.8467 117.391C47.7555 115.731 47.2099 113.857 47.2099 111.769C47.2099 109.207 47.8741 107.191 49.2025 105.72C50.531 104.202 52.6897 103.111 55.6787 102.446C58.6676 101.782 62.6767 101.45 67.7058 101.45H71.2641V106.574H67.7769C64.8354 106.574 62.4869 106.716 60.7315 107.001C58.976 107.286 57.7188 107.784 56.9597 108.496C56.248 109.16 55.8922 110.109 55.8922 111.342C55.8922 112.908 56.4378 114.189 57.529 115.185C58.6202 116.182 60.1384 116.68 62.0836 116.68C63.6493 116.68 65.0252 116.324 66.2113 115.612C67.4448 114.853 68.4174 113.833 69.1291 112.552C69.8408 111.271 70.1966 109.8 70.1966 108.14V99.9556C70.1966 97.5834 69.6747 95.8754 68.6309 94.8316C67.5872 93.7878 65.8317 93.2659 63.3646 93.2659C61.9887 93.2659 60.4943 93.432 58.8811 93.7641C57.3155 94.0962 55.6549 94.6655 53.8995 95.4721C52.9981 95.8991 52.1915 96.0177 51.4798 95.8279C50.8156 95.6382 50.2937 95.2586 49.9142 94.6893C49.5346 94.0725 49.3449 93.4083 49.3449 92.6966C49.3449 91.9849 49.5346 91.297 49.9142 90.6328C50.2937 89.9211 50.9342 89.3992 51.8357 89.0671C54.0181 88.1657 56.1057 87.5252 58.0983 87.1456C60.1384 86.7661 61.9887 86.5763 63.6493 86.5763C67.0653 86.5763 69.8645 87.0982 72.0469 88.142C74.2768 89.1857 75.9373 90.7751 77.0286 92.9101C78.1198 94.9977 78.6654 97.702 78.6654 101.023V118.103C78.6654 119.574 78.3096 120.712 77.5979 121.519C76.8862 122.278 75.8662 122.658 74.5377 122.658C73.2093 122.658 72.1655 122.278 71.4064 121.519C70.6948 120.712 70.3389 119.574 70.3389 118.103V114.687H70.9083C70.5762 116.348 69.9119 117.795 68.9156 119.028C67.9667 120.214 66.7569 121.139 65.2861 121.804C63.8153 122.468 62.1311 122.8 60.2333 122.8ZM89.2603 122.658C87.837 122.658 86.7457 122.278 85.9866 121.519C85.2275 120.712 84.848 119.574 84.848 118.103V91.2021C84.848 89.7313 85.2275 88.6164 85.9866 87.8573C86.7457 87.0982 87.8132 86.7186 89.1891 86.7186C90.565 86.7186 91.6325 87.0982 92.3916 87.8573C93.1507 88.6164 93.5303 89.7313 93.5303 91.2021V96.0414L92.7474 94.2623C93.7912 91.7477 95.4043 89.85 97.5867 88.569C99.8166 87.2405 102.331 86.5763 105.13 86.5763C107.93 86.5763 110.231 87.0982 112.034 88.142C113.836 89.1857 115.189 90.7751 116.09 92.9101C116.991 94.9977 117.442 97.6545 117.442 100.881V118.103C117.442 119.574 117.063 120.712 116.303 121.519C115.544 122.278 114.453 122.658 113.03 122.658C111.607 122.658 110.492 122.278 109.685 121.519C108.926 120.712 108.546 119.574 108.546 118.103V101.308C108.546 98.6034 108.024 96.6345 106.981 95.4009C105.984 94.1674 104.419 93.5506 102.284 93.5506C99.6743 93.5506 97.5867 94.3809 96.0211 96.0414C94.5029 97.6545 93.7438 99.8132 93.7438 102.518V118.103C93.7438 121.139 92.2493 122.658 89.2603 122.658ZM137.01 122.8C133.974 122.8 131.293 122.065 128.968 120.594C126.691 119.123 124.912 117.036 123.631 114.331C122.35 111.579 121.709 108.353 121.709 104.653C121.709 100.904 122.35 97.702 123.631 95.0451C124.912 92.3408 126.691 90.2532 128.968 88.7825C131.293 87.3117 133.974 86.5763 137.01 86.5763C139.904 86.5763 142.419 87.288 144.554 88.7113C146.736 90.1346 148.207 92.0087 148.966 94.3334H148.183V75.8302C148.183 74.3594 148.563 73.2445 149.322 72.4854C150.081 71.7263 151.172 71.3467 152.596 71.3467C154.019 71.3467 155.11 71.7263 155.869 72.4854C156.676 73.2445 157.079 74.3594 157.079 75.8302V118.103C157.079 119.574 156.699 120.712 155.94 121.519C155.181 122.278 154.09 122.658 152.667 122.658C151.243 122.658 150.152 122.278 149.393 121.519C148.634 120.712 148.254 119.574 148.254 118.103V112.552L149.037 114.687C148.326 117.154 146.879 119.123 144.696 120.594C142.514 122.065 139.952 122.8 137.01 122.8ZM139.501 116.039C141.256 116.039 142.798 115.612 144.127 114.758C145.455 113.904 146.475 112.647 147.187 110.986C147.946 109.278 148.326 107.167 148.326 104.653C148.326 100.857 147.519 98.0341 145.906 96.1838C144.293 94.286 142.158 93.3371 139.501 93.3371C137.746 93.3371 136.204 93.7641 134.875 94.6181C133.547 95.4247 132.503 96.6819 131.744 98.3899C131.032 100.05 130.676 102.138 130.676 104.653C130.676 108.401 131.483 111.247 133.096 113.193C134.709 115.09 136.844 116.039 139.501 116.039ZM174.914 122.8C172.399 122.8 170.146 122.326 168.153 121.377C166.208 120.38 164.666 119.052 163.527 117.391C162.436 115.731 161.891 113.857 161.891 111.769C161.891 109.207 162.555 107.191 163.883 105.72C165.212 104.202 167.37 103.111 170.359 102.446C173.348 101.782 177.357 101.45 182.386 101.45H185.945V106.574H182.458C179.516 106.574 177.168 106.716 175.412 107.001C173.657 107.286 172.399 107.784 171.64 108.496C170.929 109.16 170.573 110.109 170.573 111.342C170.573 112.908 171.118 114.189 172.21 115.185C173.301 116.182 174.819 116.68 176.764 116.68C178.33 116.68 179.706 116.324 180.892 115.612C182.126 114.853 183.098 113.833 183.81 112.552C184.521 111.271 184.877 109.8 184.877 108.14V99.9556C184.877 97.5834 184.355 95.8754 183.312 94.8316C182.268 93.7878 180.512 93.2659 178.045 93.2659C176.669 93.2659 175.175 93.432 173.562 93.7641C171.996 94.0962 170.336 94.6655 168.58 95.4721C167.679 95.8991 166.872 96.0177 166.161 95.8279C165.496 95.6382 164.974 95.2586 164.595 94.6893C164.215 94.0725 164.026 93.4083 164.026 92.6966C164.026 91.9849 164.215 91.297 164.595 90.6328C164.974 89.9211 165.615 89.3992 166.516 89.0671C168.699 88.1657 170.786 87.5252 172.779 87.1456C174.819 86.7661 176.669 86.5763 178.33 86.5763C181.746 86.5763 184.545 87.0982 186.728 88.142C188.957 89.1857 190.618 90.7751 191.709 92.9101C192.8 94.9977 193.346 97.702 193.346 101.023V118.103C193.346 119.574 192.99 120.712 192.279 121.519C191.567 122.278 190.547 122.658 189.218 122.658C187.89 122.658 186.846 122.278 186.087 121.519C185.375 120.712 185.02 119.574 185.02 118.103V114.687H185.589C185.257 116.348 184.593 117.795 183.596 119.028C182.647 120.214 181.438 121.139 179.967 121.804C178.496 122.468 176.812 122.8 174.914 122.8ZM215.755 135.61C213.193 135.61 210.702 135.373 208.282 134.898C205.91 134.424 203.751 133.688 201.806 132.692C200.905 132.218 200.288 131.648 199.956 130.984C199.671 130.32 199.576 129.632 199.671 128.92C199.813 128.256 200.098 127.663 200.525 127.141C200.999 126.619 201.569 126.263 202.233 126.074C202.897 125.884 203.585 125.979 204.297 126.358C206.384 127.402 208.353 128.066 210.204 128.351C212.101 128.683 213.714 128.849 215.043 128.849C218.222 128.849 220.594 128.066 222.16 126.501C223.773 124.982 224.579 122.705 224.579 119.669V113.264H225.22C224.508 115.683 223.014 117.629 220.736 119.099C218.506 120.523 215.968 121.234 213.121 121.234C209.99 121.234 207.262 120.523 204.937 119.099C202.613 117.629 200.81 115.588 199.529 112.979C198.248 110.37 197.607 107.333 197.607 103.87C197.607 101.26 197.963 98.9118 198.675 96.8243C199.434 94.6893 200.478 92.8627 201.806 91.3445C203.182 89.8262 204.819 88.6639 206.716 87.8573C208.662 87.0033 210.797 86.5763 213.121 86.5763C216.063 86.5763 218.625 87.3117 220.807 88.7825C223.037 90.2058 224.484 92.1036 225.149 94.4758L224.437 96.2549V91.2021C224.437 89.7313 224.816 88.6164 225.576 87.8573C226.382 87.0982 227.473 86.7186 228.849 86.7186C230.273 86.7186 231.364 87.0982 232.123 87.8573C232.882 88.6164 233.261 89.7313 233.261 91.2021V118.601C233.261 124.247 231.767 128.493 228.778 131.34C225.789 134.187 221.448 135.61 215.755 135.61ZM215.541 114.474C217.391 114.474 218.981 114.047 220.309 113.193C221.638 112.339 222.658 111.129 223.369 109.563C224.128 107.95 224.508 106.052 224.508 103.87C224.508 100.596 223.701 98.0341 222.088 96.1838C220.475 94.286 218.293 93.3371 215.541 93.3371C213.691 93.3371 212.101 93.7641 210.773 94.6181C209.444 95.4721 208.401 96.6819 207.642 98.2476C206.93 99.8132 206.574 101.687 206.574 103.87C206.574 107.143 207.381 109.729 208.994 111.627C210.607 113.525 212.789 114.474 215.541 114.474ZM256.783 122.8C252.845 122.8 249.453 122.065 246.606 120.594C243.76 119.123 241.553 117.036 239.988 114.331C238.47 111.627 237.711 108.424 237.711 104.724C237.711 101.118 238.446 97.9629 239.917 95.2586C241.435 92.5543 243.499 90.443 246.108 88.9248C248.765 87.3591 251.778 86.5763 255.146 86.5763C257.613 86.5763 259.82 86.9796 261.765 87.7861C263.757 88.5927 265.442 89.7551 266.818 91.2733C268.241 92.7915 269.308 94.6418 270.02 96.8243C270.779 98.9593 271.159 101.379 271.159 104.083C271.159 104.937 270.85 105.601 270.234 106.076C269.664 106.503 268.834 106.716 267.743 106.716H244.898V101.592H264.896L263.757 102.66C263.757 100.477 263.425 98.6509 262.761 97.1801C262.144 95.7093 261.219 94.5944 259.986 93.8353C258.799 93.0287 257.305 92.6254 255.502 92.6254C253.509 92.6254 251.801 93.0999 250.378 94.0488C249.002 94.9502 247.935 96.2549 247.176 97.9629C246.464 99.6235 246.108 101.616 246.108 103.941V104.439C246.108 108.329 247.01 111.247 248.812 113.193C250.663 115.09 253.367 116.039 256.925 116.039C258.159 116.039 259.535 115.897 261.053 115.612C262.619 115.28 264.09 114.734 265.465 113.975C266.462 113.406 267.339 113.169 268.099 113.264C268.858 113.311 269.451 113.572 269.878 114.047C270.352 114.521 270.637 115.114 270.732 115.826C270.827 116.49 270.684 117.178 270.305 117.89C269.973 118.601 269.38 119.218 268.526 119.74C266.865 120.784 264.944 121.566 262.761 122.088C260.626 122.563 258.633 122.8 256.783 122.8ZM310.334 122.658C309.053 122.658 308.009 122.349 307.203 121.732C306.444 121.116 305.827 120.143 305.352 118.815L290.479 76.7554C289.957 75.2371 290.052 73.9561 290.763 72.9124C291.522 71.8686 292.78 71.3467 294.535 71.3467C295.816 71.3467 296.813 71.6551 297.524 72.2719C298.236 72.8412 298.805 73.7664 299.232 75.0474L312.042 113.05H309.195L322.575 75.1185C323.049 73.8375 323.642 72.8886 324.354 72.2719C325.066 71.6551 325.991 71.3467 327.129 71.3467C328.268 71.3467 329.169 71.6551 329.834 72.2719C330.498 72.8886 331.067 73.8613 331.542 75.1897L344.494 113.05H342.003L355.027 75.0474C355.454 73.8138 356.023 72.8886 356.735 72.2719C357.446 71.6551 358.419 71.3467 359.652 71.3467C361.171 71.3467 362.286 71.8686 362.997 72.9124C363.709 73.9561 363.804 75.2371 363.282 76.7554L348.266 118.886C347.791 120.167 347.175 121.116 346.415 121.732C345.656 122.349 344.636 122.658 343.355 122.658C342.074 122.658 341.054 122.349 340.295 121.732C339.536 121.116 338.919 120.143 338.445 118.815L326.062 83.5162H327.699L315.173 118.886C314.699 120.167 314.082 121.116 313.323 121.732C312.611 122.349 311.615 122.658 310.334 122.658ZM376.169 122.586C374.746 122.586 373.655 122.159 372.895 121.305C372.136 120.451 371.757 119.265 371.757 117.747V91.6291C371.757 90.0635 372.136 88.8774 372.895 88.0708C373.655 87.2168 374.746 86.7898 376.169 86.7898C377.592 86.7898 378.684 87.2168 379.443 88.0708C380.249 88.8774 380.653 90.0635 380.653 91.6291V117.747C380.653 119.265 380.273 120.451 379.514 121.305C378.755 122.159 377.64 122.586 376.169 122.586ZM376.169 80.1713C374.509 80.1713 373.204 79.7681 372.255 78.9615C371.354 78.1075 370.903 76.9451 370.903 75.4744C370.903 73.9561 371.354 72.7938 372.255 71.9872C373.204 71.1807 374.509 70.7774 376.169 70.7774C377.877 70.7774 379.182 71.1807 380.083 71.9872C380.985 72.7938 381.435 73.9561 381.435 75.4744C381.435 76.9451 380.985 78.1075 380.083 78.9615C379.182 79.7681 377.877 80.1713 376.169 80.1713ZM402.99 122.8C399.907 122.8 397.321 122.278 395.233 121.234C393.193 120.191 391.675 118.672 390.679 116.68C389.682 114.64 389.184 112.125 389.184 109.136V93.9776H385.484C384.345 93.9776 383.467 93.6929 382.85 93.1236C382.234 92.5068 381.925 91.6766 381.925 90.6328C381.925 89.5416 382.234 88.7113 382.85 88.142C383.467 87.5726 384.345 87.288 385.484 87.288H389.184V80.8118C389.184 79.3411 389.564 78.2261 390.323 77.467C391.129 76.7079 392.244 76.3284 393.668 76.3284C395.091 76.3284 396.182 76.7079 396.941 77.467C397.7 78.2261 398.08 79.3411 398.08 80.8118V87.288H405.624C406.762 87.288 407.64 87.5726 408.257 88.142C408.874 88.7113 409.182 89.5416 409.182 90.6328C409.182 91.6766 408.874 92.5068 408.257 93.1236C407.64 93.6929 406.762 93.9776 405.624 93.9776H398.08V108.638C398.08 110.915 398.578 112.623 399.574 113.762C400.571 114.901 402.184 115.47 404.414 115.47C405.22 115.47 405.932 115.399 406.549 115.256C407.166 115.114 407.711 115.019 408.186 114.972C408.755 114.924 409.229 115.114 409.609 115.541C409.989 115.921 410.178 116.727 410.178 117.961C410.178 118.91 410.012 119.764 409.68 120.523C409.395 121.234 408.85 121.732 408.043 122.017C407.427 122.207 406.62 122.373 405.624 122.515C404.627 122.705 403.75 122.8 402.99 122.8ZM416.831 122.658C415.408 122.658 414.317 122.278 413.558 121.519C412.798 120.712 412.419 119.574 412.419 118.103V75.8302C412.419 74.3594 412.798 73.2445 413.558 72.4854C414.317 71.7263 415.408 71.3467 416.831 71.3467C418.255 71.3467 419.346 71.7263 420.105 72.4854C420.911 73.2445 421.315 74.3594 421.315 75.8302V94.2623H420.318C421.362 91.7477 422.975 89.85 425.158 88.569C427.388 87.2405 429.902 86.5763 432.701 86.5763C435.501 86.5763 437.802 87.0982 439.604 88.142C441.407 89.1857 442.759 90.7751 443.661 92.9101C444.562 94.9977 445.013 97.6545 445.013 100.881V118.103C445.013 119.574 444.634 120.712 443.874 121.519C443.115 122.278 442.024 122.658 440.601 122.658C439.177 122.658 438.063 122.278 437.256 121.519C436.497 120.712 436.117 119.574 436.117 118.103V101.308C436.117 98.6034 435.595 96.6345 434.552 95.4009C433.555 94.1674 431.99 93.5506 429.855 93.5506C427.245 93.5506 425.158 94.3809 423.592 96.0414C422.074 97.6545 421.315 99.8132 421.315 102.518V118.103C421.315 121.139 419.82 122.658 416.831 122.658ZM473.155 122.088C471.685 122.088 470.546 121.685 469.74 120.878C468.933 120.024 468.53 118.862 468.53 117.391V76.3284C468.53 74.8101 468.909 73.6715 469.668 72.9124C470.475 72.1058 471.614 71.7025 473.084 71.7025C474.555 71.7025 475.67 72.1058 476.429 72.9124C477.236 73.6715 477.639 74.8101 477.639 76.3284V114.331H498.277C499.558 114.331 500.531 114.663 501.195 115.328C501.907 115.992 502.263 116.941 502.263 118.174C502.263 119.408 501.907 120.38 501.195 121.092C500.531 121.756 499.558 122.088 498.277 122.088H473.155ZM520.313 122.8C516.707 122.8 513.576 122.065 510.919 120.594C508.262 119.123 506.199 117.036 504.728 114.331C503.257 111.579 502.522 108.353 502.522 104.653C502.522 101.853 502.925 99.3625 503.731 97.1801C504.585 94.9502 505.795 93.0524 507.361 91.4868C508.927 89.8737 510.801 88.6639 512.983 87.8573C515.166 87.0033 517.609 86.5763 520.313 86.5763C523.919 86.5763 527.05 87.3117 529.707 88.7825C532.364 90.2532 534.428 92.3408 535.899 95.0451C537.369 97.7494 538.105 100.952 538.105 104.653C538.105 107.452 537.678 109.966 536.824 112.196C536.017 114.426 534.831 116.348 533.265 117.961C531.7 119.526 529.826 120.736 527.643 121.59C525.461 122.397 523.018 122.8 520.313 122.8ZM520.313 116.039C522.069 116.039 523.611 115.612 524.939 114.758C526.267 113.904 527.288 112.647 527.999 110.986C528.758 109.278 529.138 107.167 529.138 104.653C529.138 100.857 528.331 98.0341 526.718 96.1838C525.105 94.286 522.97 93.3371 520.313 93.3371C518.558 93.3371 517.016 93.7641 515.687 94.6181C514.359 95.4247 513.315 96.6819 512.556 98.3899C511.844 100.05 511.489 102.138 511.489 104.653C511.489 108.401 512.295 111.247 513.908 113.193C515.521 115.09 517.656 116.039 520.313 116.039ZM555.996 122.658C554.81 122.658 553.767 122.349 552.865 121.732C552.011 121.116 551.299 120.167 550.73 118.886L539.415 92.6254C538.988 91.5817 538.822 90.6091 538.917 89.7076C539.059 88.8062 539.486 88.0945 540.198 87.5726C540.957 87.0033 541.977 86.7186 543.258 86.7186C544.349 86.7186 545.227 86.9796 545.891 87.5015C546.555 87.9759 547.148 88.9011 547.67 90.277L557.277 114.26H555.142L565.035 90.2058C565.556 88.8774 566.15 87.9759 566.814 87.5015C567.525 86.9796 568.474 86.7186 569.66 86.7186C570.704 86.7186 571.534 87.0033 572.151 87.5726C572.768 88.0945 573.148 88.8062 573.29 89.7076C573.432 90.5616 573.266 91.5105 572.792 92.5543L561.263 118.886C560.741 120.167 560.029 121.116 559.128 121.732C558.274 122.349 557.23 122.658 555.996 122.658ZM593.044 122.8C589.106 122.8 585.714 122.065 582.867 120.594C580.021 119.123 577.815 117.036 576.249 114.331C574.731 111.627 573.972 108.424 573.972 104.724C573.972 101.118 574.707 97.9629 576.178 95.2586C577.696 92.5543 579.76 90.443 582.369 88.9248C585.026 87.3591 588.039 86.5763 591.407 86.5763C593.874 86.5763 596.081 86.9796 598.026 87.7861C600.018 88.5927 601.703 89.7551 603.079 91.2733C604.502 92.7915 605.569 94.6418 606.281 96.8243C607.04 98.9593 607.42 101.379 607.42 104.083C607.42 104.937 607.111 105.601 606.495 106.076C605.925 106.503 605.095 106.716 604.004 106.716H581.159V101.592H601.157L600.018 102.66C600.018 100.477 599.686 98.6509 599.022 97.1801C598.405 95.7093 597.48 94.5944 596.247 93.8353C595.06 93.0287 593.566 92.6254 591.763 92.6254C589.77 92.6254 588.062 93.0999 586.639 94.0488C585.263 94.9502 584.196 96.2549 583.437 97.9629C582.725 99.6235 582.369 101.616 582.369 103.941V104.439C582.369 108.329 583.271 111.247 585.073 113.193C586.924 115.09 589.628 116.039 593.186 116.039C594.42 116.039 595.796 115.897 597.314 115.612C598.88 115.28 600.351 114.734 601.726 113.975C602.723 113.406 603.6 113.169 604.36 113.264C605.119 113.311 605.712 113.572 606.139 114.047C606.613 114.521 606.898 115.114 606.993 115.826C607.088 116.49 606.945 117.178 606.566 117.89C606.234 118.601 605.641 119.218 604.787 119.74C603.126 120.784 601.205 121.566 599.022 122.088C596.887 122.563 594.894 122.8 593.044 122.8ZM615.888 122.444C614.275 122.444 612.97 121.946 611.974 120.95C611.025 119.953 610.55 118.672 610.55 117.107C610.55 115.588 611.025 114.355 611.974 113.406C612.97 112.41 614.275 111.912 615.888 111.912C617.548 111.912 618.829 112.41 619.731 113.406C620.68 114.355 621.154 115.588 621.154 117.107C621.154 118.672 620.68 119.953 619.731 120.95C618.829 121.946 617.548 122.444 615.888 122.444Z" fill="#5AB9D9"/>
</svg>
