<svg width="666" height="274" viewBox="0 0 666 274" fill="none" xmlns="http://www.w3.org/2000/svg">
<path d="M22.1291 52.2161C20.8481 52.2161 19.8043 51.9077 18.9977 51.2909C18.2386 50.6741 17.6219 49.7015 17.1474 48.3731L2.27365 6.31376C1.75177 4.79555 1.84665 3.51455 2.55832 2.47078C3.31743 1.427 4.5747 0.905116 6.33013 0.905116C7.61113 0.905116 8.60746 1.2135 9.31912 1.83028C10.0308 2.39961 10.6001 3.32477 11.0271 4.60577L23.8371 42.6086H20.9904L34.3697 4.67693C34.8441 3.39594 35.4372 2.44705 36.1488 1.83028C36.8605 1.2135 37.7857 0.905116 38.9243 0.905116C40.063 0.905116 40.9644 1.2135 41.6286 1.83028C42.2929 2.44705 42.8622 3.41966 43.3366 4.7481L56.2889 42.6086H53.7981L66.8215 4.60577C67.2485 3.37222 67.8179 2.44705 68.5295 1.83028C69.2412 1.2135 70.2138 0.905116 71.4473 0.905116C72.9656 0.905116 74.0805 1.427 74.7922 2.47078C75.5038 3.51455 75.5987 4.79555 75.0768 6.31376L60.0607 48.4442C59.5863 49.7252 58.9695 50.6741 58.2104 51.2909C57.4513 51.9077 56.4312 52.2161 55.1503 52.2161C53.8693 52.2161 52.8492 51.9077 52.0901 51.2909C51.331 50.6741 50.7142 49.7015 50.2398 48.3731L37.8568 13.0746H39.4937L26.9684 48.4442C26.4939 49.7252 25.8772 50.6741 25.1181 51.2909C24.4064 51.9077 23.4101 52.2161 22.1291 52.2161ZM91.9989 52.3584C88.061 52.3584 84.6687 51.623 81.8221 50.1522C78.9754 48.6815 76.7693 46.5939 75.2036 43.8896C73.6854 41.1853 72.9263 37.9828 72.9263 34.2821C72.9263 30.6764 73.6617 27.5213 75.1324 24.817C76.6506 22.1127 78.7145 20.0014 81.3239 18.4832C83.9808 16.9175 86.9935 16.1347 90.362 16.1347C92.8291 16.1347 95.0353 16.538 96.9805 17.3445C98.9732 18.1511 100.657 19.3135 102.033 20.8317C103.457 22.3499 104.524 24.2002 105.236 26.3827C105.995 28.5177 106.374 30.9373 106.374 33.6416C106.374 34.4956 106.066 35.1599 105.449 35.6343C104.88 36.0613 104.05 36.2748 102.958 36.2748H80.1141V31.1508H100.112L98.9732 32.2183C98.9732 30.0359 98.641 28.2093 97.9768 26.7385C97.36 25.2677 96.4349 24.1528 95.2013 23.3937C94.0152 22.5871 92.5207 22.1839 90.7179 22.1839C88.7252 22.1839 87.0172 22.6583 85.5939 23.6072C84.218 24.5086 83.1505 25.8133 82.3914 27.5213C81.6797 29.1819 81.3239 31.1745 81.3239 33.4993V33.9975C81.3239 37.8879 82.2253 40.8057 84.0282 42.7509C85.8785 44.6487 88.5829 45.5976 92.1412 45.5976C93.3747 45.5976 94.7506 45.4553 96.2688 45.1706C97.8345 44.8385 99.3053 44.2929 100.681 43.5338C101.677 42.9644 102.555 42.7272 103.314 42.8221C104.073 42.8695 104.666 43.1305 105.093 43.6049C105.568 44.0794 105.853 44.6724 105.947 45.3841C106.042 46.0483 105.9 46.7363 105.52 47.4479C105.188 48.1596 104.595 48.7764 103.741 49.2982C102.081 50.342 100.159 51.1248 97.9768 51.6467C95.8418 52.1212 93.8492 52.3584 91.9989 52.3584ZM131.317 51.6467C129.751 51.6467 128.541 51.2435 127.687 50.4369C126.881 49.5829 126.477 48.3731 126.477 46.8074V6.31376C126.477 4.7481 126.881 3.562 127.687 2.75544C128.541 1.90145 129.751 1.47445 131.317 1.47445H145.123C153.52 1.47445 159.997 3.63316 164.551 7.95059C169.153 12.268 171.454 18.4595 171.454 26.525C171.454 30.5578 170.861 34.1398 169.675 37.2711C168.537 40.355 166.829 42.9644 164.551 45.0994C162.321 47.2344 159.57 48.8712 156.296 50.0099C153.07 51.1011 149.345 51.6467 145.123 51.6467H131.317ZM135.587 44.1031H144.554C147.495 44.1031 150.033 43.7473 152.168 43.0356C154.351 42.2765 156.154 41.1853 157.577 39.7619C159.048 38.2912 160.139 36.4646 160.851 34.2821C161.562 32.0523 161.918 29.4665 161.918 26.525C161.918 20.6419 160.471 16.2533 157.577 13.3592C154.683 10.4651 150.342 9.01808 144.554 9.01808H135.587V44.1031ZM180.686 52.1449C179.263 52.1449 178.171 51.7179 177.412 50.8639C176.653 50.0099 176.274 48.8238 176.274 47.3056V21.1875C176.274 19.6219 176.653 18.4358 177.412 17.6292C178.171 16.7752 179.263 16.3482 180.686 16.3482C182.109 16.3482 183.201 16.7752 183.96 17.6292C184.766 18.4358 185.17 19.6219 185.17 21.1875V47.3056C185.17 48.8238 184.79 50.0099 184.031 50.8639C183.272 51.7179 182.157 52.1449 180.686 52.1449ZM180.686 9.72974C179.025 9.72974 177.721 9.32647 176.772 8.51992C175.87 7.66592 175.42 6.50354 175.42 5.03277C175.42 3.51455 175.87 2.35217 176.772 1.54561C177.721 0.739063 179.025 0.335788 180.686 0.335788C182.394 0.335788 183.699 0.739063 184.6 1.54561C185.502 2.35217 185.952 3.51455 185.952 5.03277C185.952 6.50354 185.502 7.66592 184.6 8.51992C183.699 9.32647 182.394 9.72974 180.686 9.72974ZM204.234 52.3584C201.197 52.3584 198.517 51.623 196.192 50.1522C193.915 48.6815 192.135 46.5939 190.854 43.8896C189.573 41.1378 188.933 37.9116 188.933 34.211C188.933 30.4629 189.573 27.2604 190.854 24.6035C192.135 21.8992 193.915 19.8116 196.192 18.3409C198.517 16.8701 201.197 16.1347 204.234 16.1347C207.128 16.1347 209.642 16.8464 211.777 18.2697C213.96 19.693 215.431 21.5671 216.19 23.8919H215.407V5.3886C215.407 3.91783 215.786 2.80289 216.546 2.04378C217.305 1.28467 218.396 0.905116 219.819 0.905116C221.243 0.905116 222.334 1.28467 223.093 2.04378C223.899 2.80289 224.303 3.91783 224.303 5.3886V47.6614C224.303 49.1322 223.923 50.2708 223.164 51.0774C222.405 51.8365 221.314 52.2161 219.89 52.2161C218.467 52.2161 217.376 51.8365 216.617 51.0774C215.858 50.2708 215.478 49.1322 215.478 47.6614V42.1104L216.261 44.2454C215.549 46.7125 214.102 48.6815 211.92 50.1522C209.737 51.623 207.175 52.3584 204.234 52.3584ZM206.725 45.5976C208.48 45.5976 210.022 45.1706 211.35 44.3166C212.679 43.4626 213.699 42.2053 214.411 40.5448C215.17 38.8368 215.549 36.7255 215.549 34.211C215.549 30.4154 214.743 27.5925 213.13 25.7422C211.516 23.8444 209.381 22.8955 206.725 22.8955C204.969 22.8955 203.427 23.3225 202.099 24.1765C200.77 24.9831 199.727 26.2403 198.967 27.9483C198.256 29.6089 197.9 31.6964 197.9 34.211C197.9 37.9591 198.706 40.8057 200.32 42.7509C201.933 44.6487 204.068 45.5976 206.725 45.5976ZM234.38 52.2161C232.957 52.2161 231.866 51.8365 231.107 51.0774C230.348 50.2708 229.968 49.1322 229.968 47.6614V20.7605C229.968 19.2898 230.348 18.1748 231.107 17.4157C231.866 16.6566 232.933 16.2771 234.309 16.2771C235.685 16.2771 236.753 16.6566 237.512 17.4157C238.271 18.1748 238.65 19.2898 238.65 20.7605V25.5998L237.868 23.8207C238.911 21.3061 240.525 19.4084 242.707 18.1274C244.937 16.7989 247.451 16.1347 250.251 16.1347C253.05 16.1347 255.351 16.6566 257.154 17.7004C258.957 18.7442 260.309 20.3335 261.21 22.4685C262.112 24.5561 262.562 27.2129 262.562 30.4392V47.6614C262.562 49.1322 262.183 50.2708 261.424 51.0774C260.665 51.8365 259.573 52.2161 258.15 52.2161C256.727 52.2161 255.612 51.8365 254.805 51.0774C254.046 50.2708 253.667 49.1322 253.667 47.6614V30.8662C253.667 28.1618 253.145 26.1929 252.101 24.9593C251.105 23.7258 249.539 23.109 247.404 23.109C244.794 23.109 242.707 23.9393 241.141 25.5998C239.623 27.2129 238.864 29.3717 238.864 32.076V47.6614C238.864 50.6978 237.369 52.2161 234.38 52.2161ZM272.197 18.9102C271.58 19.6693 270.916 20.0963 270.204 20.1912C269.54 20.2861 268.947 20.1675 268.425 19.8354C267.903 19.4558 267.619 18.9339 267.571 18.2697C267.524 17.558 267.832 16.7989 268.496 15.9924C269.445 14.8063 270.086 13.6202 270.418 12.4341C270.75 11.248 270.916 10.2042 270.916 9.30275L271.272 11.6512C269.611 11.6512 268.259 11.1768 267.215 10.2279C266.219 9.27902 265.721 7.99803 265.721 6.38493C265.721 4.81927 266.195 3.562 267.144 2.61311C268.093 1.61678 269.374 1.11862 270.987 1.11862C272.648 1.11862 273.952 1.68795 274.901 2.82661C275.85 3.91783 276.325 5.50721 276.325 7.59476C276.325 8.73342 276.206 9.91952 275.969 11.1531C275.779 12.3392 275.376 13.5965 274.759 14.9249C274.19 16.2059 273.336 17.5343 272.197 18.9102ZM297.171 52.3584C294.088 52.3584 291.502 51.8365 289.414 50.7927C287.374 49.749 285.856 48.2307 284.86 46.2381C283.863 44.198 283.365 41.6834 283.365 38.6945V23.536H279.665C278.526 23.536 277.648 23.2514 277.031 22.682C276.415 22.0652 276.106 21.235 276.106 20.1912C276.106 19.1 276.415 18.2697 277.031 17.7004C277.648 17.131 278.526 16.8464 279.665 16.8464H283.365V10.3702C283.365 8.89947 283.745 7.78453 284.504 7.02542C285.31 6.26632 286.425 5.88676 287.849 5.88676C289.272 5.88676 290.363 6.26632 291.122 7.02542C291.881 7.78453 292.261 8.89947 292.261 10.3702V16.8464H299.805C300.943 16.8464 301.821 17.131 302.438 17.7004C303.055 18.2697 303.363 19.1 303.363 20.1912C303.363 21.235 303.055 22.0652 302.438 22.682C301.821 23.2514 300.943 23.536 299.805 23.536H292.261V38.1963C292.261 40.4736 292.759 42.1816 293.755 43.3203C294.752 44.4589 296.365 45.0283 298.595 45.0283C299.401 45.0283 300.113 44.9571 300.73 44.8148C301.347 44.6724 301.892 44.5775 302.367 44.5301C302.936 44.4826 303.41 44.6724 303.79 45.0994C304.169 45.479 304.359 46.2855 304.359 47.5191C304.359 48.468 304.193 49.322 303.861 50.0811C303.576 50.7927 303.031 51.2909 302.224 51.5756C301.607 51.7653 300.801 51.9314 299.805 52.0737C298.808 52.2635 297.931 52.3584 297.171 52.3584ZM326.298 52.2161C324.827 52.2161 323.665 51.8128 322.811 51.0062C322.004 50.1522 321.601 48.9424 321.601 47.3767V6.31376C321.601 4.7481 322.004 3.562 322.811 2.75544C323.665 1.90145 324.875 1.47445 326.44 1.47445H351.277C352.511 1.47445 353.436 1.78284 354.053 2.39961C354.67 3.01639 354.978 3.89411 354.978 5.03277C354.978 6.21887 354.67 7.14403 354.053 7.80825C353.436 8.42503 352.511 8.73342 351.277 8.73342H330.71V22.8955H349.783C350.969 22.8955 351.87 23.2039 352.487 23.8207C353.151 24.4375 353.483 25.3152 353.483 26.4538C353.483 27.6399 353.151 28.5651 352.487 29.2293C351.87 29.8461 350.969 30.1545 349.783 30.1545H330.71V47.3767C330.71 50.603 329.239 52.2161 326.298 52.2161ZM364.412 52.1449C362.989 52.1449 361.897 51.7179 361.138 50.8639C360.379 50.0099 360 48.8238 360 47.3056V21.1875C360 19.6219 360.379 18.4358 361.138 17.6292C361.897 16.7752 362.989 16.3482 364.412 16.3482C365.835 16.3482 366.927 16.7752 367.686 17.6292C368.492 18.4358 368.895 19.6219 368.895 21.1875V47.3056C368.895 48.8238 368.516 50.0099 367.757 50.8639C366.998 51.7179 365.883 52.1449 364.412 52.1449ZM364.412 9.72974C362.751 9.72974 361.447 9.32647 360.498 8.51992C359.596 7.66592 359.146 6.50354 359.146 5.03277C359.146 3.51455 359.596 2.35217 360.498 1.54561C361.447 0.739063 362.751 0.335788 364.412 0.335788C366.12 0.335788 367.425 0.739063 368.326 1.54561C369.228 2.35217 369.678 3.51455 369.678 5.03277C369.678 6.50354 369.228 7.66592 368.326 8.51992C367.425 9.32647 366.12 9.72974 364.412 9.72974ZM378.993 52.2161C377.569 52.2161 376.478 51.8365 375.719 51.0774C374.96 50.2708 374.58 49.1322 374.58 47.6614V20.7605C374.58 19.2898 374.96 18.1748 375.719 17.4157C376.478 16.6566 377.546 16.2771 378.922 16.2771C380.297 16.2771 381.365 16.6566 382.124 17.4157C382.883 18.1748 383.263 19.2898 383.263 20.7605V25.5998L382.48 23.8207C383.524 21.3061 385.137 19.4084 387.319 18.1274C389.549 16.7989 392.064 16.1347 394.863 16.1347C397.662 16.1347 399.963 16.6566 401.766 17.7004C403.569 18.7442 404.921 20.3335 405.822 22.4685C406.724 24.5561 407.175 27.2129 407.175 30.4392V47.6614C407.175 49.1322 406.795 50.2708 406.036 51.0774C405.277 51.8365 404.186 52.2161 402.762 52.2161C401.339 52.2161 400.224 51.8365 399.417 51.0774C398.658 50.2708 398.279 49.1322 398.279 47.6614V30.8662C398.279 28.1618 397.757 26.1929 396.713 24.9593C395.717 23.7258 394.151 23.109 392.016 23.109C389.407 23.109 387.319 23.9393 385.754 25.5998C384.235 27.2129 383.476 29.3717 383.476 32.076V47.6614C383.476 50.6978 381.982 52.2161 378.993 52.2161ZM426.031 52.3584C422.994 52.3584 420.314 51.623 417.989 50.1522C415.712 48.6815 413.933 46.5939 412.652 43.8896C411.371 41.1378 410.73 37.9116 410.73 34.211C410.73 30.4629 411.371 27.2604 412.652 24.6035C413.933 21.8992 415.712 19.8116 417.989 18.3409C420.314 16.8701 422.994 16.1347 426.031 16.1347C428.925 16.1347 431.44 16.8464 433.575 18.2697C435.757 19.693 437.228 21.5671 437.987 23.8919H437.204V5.3886C437.204 3.91783 437.584 2.80289 438.343 2.04378C439.102 1.28467 440.193 0.905116 441.616 0.905116C443.04 0.905116 444.131 1.28467 444.89 2.04378C445.697 2.80289 446.1 3.91783 446.1 5.3886V47.6614C446.1 49.1322 445.72 50.2708 444.961 51.0774C444.202 51.8365 443.111 52.2161 441.688 52.2161C440.264 52.2161 439.173 51.8365 438.414 51.0774C437.655 50.2708 437.275 49.1322 437.275 47.6614V42.1104L438.058 44.2454C437.346 46.7125 435.899 48.6815 433.717 50.1522C431.534 51.623 428.972 52.3584 426.031 52.3584ZM428.522 45.5976C430.277 45.5976 431.819 45.1706 433.148 44.3166C434.476 43.4626 435.496 42.2053 436.208 40.5448C436.967 38.8368 437.346 36.7255 437.346 34.211C437.346 30.4154 436.54 27.5925 434.927 25.7422C433.314 23.8444 431.179 22.8955 428.522 22.8955C426.766 22.8955 425.224 23.3225 423.896 24.1765C422.567 24.9831 421.524 26.2403 420.765 27.9483C420.053 29.6089 419.697 31.6964 419.697 34.211C419.697 37.9591 420.504 40.8057 422.117 42.7509C423.73 44.6487 425.865 45.5976 428.522 45.5976ZM468.88 52.2161C467.741 52.2161 466.816 51.9551 466.104 51.4332C465.44 50.9113 465.037 50.2234 464.894 49.3694C464.752 48.468 464.918 47.4716 465.393 46.3804L484.181 4.7481C484.797 3.37222 485.533 2.39961 486.387 1.83028C487.288 1.2135 488.308 0.905116 489.447 0.905116C490.538 0.905116 491.511 1.2135 492.365 1.83028C493.266 2.39961 494.025 3.37222 494.642 4.7481L513.501 46.3804C514.023 47.4716 514.213 48.468 514.07 49.3694C513.928 50.2708 513.525 50.9825 512.861 51.5044C512.196 51.9788 511.319 52.2161 510.227 52.2161C508.899 52.2161 507.855 51.9077 507.096 51.2909C506.384 50.6267 505.744 49.6303 505.175 48.3019L500.549 37.5558L504.392 40.0466H474.36L478.203 37.5558L473.648 48.3019C473.031 49.6778 472.391 50.6741 471.726 51.2909C471.062 51.9077 470.113 52.2161 468.88 52.2161ZM489.304 11.3666L479.341 35.065L477.491 32.7876H501.26L499.481 35.065L489.447 11.3666H489.304ZM521.339 52.2161C519.916 52.2161 518.825 51.8365 518.066 51.0774C517.307 50.2708 516.927 49.1322 516.927 47.6614V20.7605C516.927 19.2898 517.307 18.1748 518.066 17.4157C518.825 16.6566 519.892 16.2771 521.268 16.2771C522.644 16.2771 523.712 16.6566 524.471 17.4157C525.23 18.1748 525.609 19.2898 525.609 20.7605V25.5998L524.826 23.8207C525.87 21.3061 527.483 19.4084 529.666 18.1274C531.896 16.7989 534.41 16.1347 537.209 16.1347C540.009 16.1347 542.31 16.6566 544.113 17.7004C545.915 18.7442 547.268 20.3335 548.169 22.4685C549.07 24.5561 549.521 27.2129 549.521 30.4392V47.6614C549.521 49.1322 549.142 50.2708 548.383 51.0774C547.623 51.8365 546.532 52.2161 545.109 52.2161C543.686 52.2161 542.571 51.8365 541.764 51.0774C541.005 50.2708 540.625 49.1322 540.625 47.6614V30.8662C540.625 28.1618 540.104 26.1929 539.06 24.9593C538.063 23.7258 536.498 23.109 534.363 23.109C531.753 23.109 529.666 23.9393 528.1 25.5998C526.582 27.2129 525.823 29.3717 525.823 32.076V47.6614C525.823 50.6978 524.328 52.2161 521.339 52.2161ZM563.475 65.026C562.432 65.026 561.578 64.7413 560.913 64.172C560.249 63.6501 559.846 62.9385 559.704 62.037C559.609 61.1356 559.775 60.1867 560.202 59.1904L565.041 48.4442V52.1449L552.089 22.1839C551.662 21.1401 551.519 20.1675 551.662 19.266C551.804 18.3646 552.231 17.6529 552.943 17.131C553.702 16.5617 554.722 16.2771 556.003 16.2771C557.094 16.2771 557.972 16.538 558.636 17.0599C559.3 17.5343 559.893 18.4595 560.415 19.8354L570.023 43.8184H567.888L577.709 19.7642C578.231 18.4358 578.847 17.5343 579.559 17.0599C580.271 16.538 581.219 16.2771 582.406 16.2771C583.449 16.2771 584.28 16.5617 584.896 17.131C585.513 17.6529 585.893 18.3646 586.035 19.266C586.177 20.12 586.011 21.0689 585.537 22.1127L568.243 61.61C567.627 62.9385 566.962 63.8399 566.251 64.3143C565.539 64.7888 564.614 65.026 563.475 65.026ZM4.97797 123.216C3.83931 123.216 2.91415 122.955 2.20249 122.433C1.53827 121.911 1.13499 121.223 0.992658 120.369C0.850325 119.468 1.01638 118.472 1.49082 117.38L20.2787 75.7481C20.8955 74.3722 21.6309 73.3996 22.4849 72.8303C23.3863 72.2135 24.4064 71.9051 25.5451 71.9051C26.6363 71.9051 27.6089 72.2135 28.4629 72.8303C29.3643 73.3996 30.1234 74.3722 30.7402 75.7481L49.5993 117.38C50.1212 118.472 50.3109 119.468 50.1686 120.369C50.0263 121.271 49.623 121.983 48.9588 122.504C48.2946 122.979 47.4168 123.216 46.3256 123.216C44.9972 123.216 43.9534 122.908 43.1943 122.291C42.4826 121.627 41.8421 120.63 41.2728 119.302L36.647 108.556L40.49 111.047H10.4578L14.3008 108.556L9.74612 119.302C9.12934 120.678 8.48885 121.674 7.82463 122.291C7.16041 122.908 6.21152 123.216 4.97797 123.216ZM25.4027 82.3666L15.4394 106.065L13.5891 103.788H37.3587L35.5795 106.065L25.5451 82.3666H25.4027ZM64.91 123.358C60.9722 123.358 58.0069 122.243 56.0143 120.014C54.0216 117.736 53.0253 114.415 53.0253 110.05V76.3886C53.0253 74.9178 53.4048 73.8029 54.1639 73.0438C54.923 72.2847 56.0143 71.9051 57.4376 71.9051C58.8609 71.9051 59.9521 72.2847 60.7112 73.0438C61.5178 73.8029 61.9211 74.9178 61.9211 76.3886V109.623C61.9211 111.806 62.3718 113.419 63.2732 114.463C64.2221 115.506 65.5505 116.028 67.2585 116.028C67.6381 116.028 67.9939 116.028 68.326 116.028C68.6581 115.981 68.9902 115.933 69.3224 115.886C69.9866 115.791 70.4373 115.981 70.6745 116.455C70.9117 116.882 71.0304 117.784 71.0304 119.16C71.0304 120.346 70.7931 121.271 70.3187 121.935C69.8442 122.599 69.0614 123.003 67.9702 123.145C67.4958 123.192 66.9976 123.24 66.4757 123.287C65.9538 123.335 65.4319 123.358 64.91 123.358ZM87.2307 123.358C84.1468 123.358 81.5611 122.837 79.4736 121.793C77.4335 120.749 75.9153 119.231 74.9189 117.238C73.9226 115.198 73.4244 112.683 73.4244 109.694V94.536H69.7238C68.5851 94.536 67.7074 94.2514 67.0906 93.682C66.4739 93.0652 66.1655 92.235 66.1655 91.1912C66.1655 90.1 66.4739 89.2697 67.0906 88.7004C67.7074 88.131 68.5851 87.8464 69.7238 87.8464H73.4244V81.3702C73.4244 79.8995 73.804 78.7845 74.5631 78.0254C75.3696 77.2663 76.4846 76.8868 77.9079 76.8868C79.3312 76.8868 80.4225 77.2663 81.1816 78.0254C81.9407 78.7845 82.3202 79.8995 82.3202 81.3702V87.8464H89.8639C91.0025 87.8464 91.8802 88.131 92.497 88.7004C93.1138 89.2697 93.4222 90.1 93.4222 91.1912C93.4222 92.235 93.1138 93.0652 92.497 93.682C91.8802 94.2514 91.0025 94.536 89.8639 94.536H82.3202V109.196C82.3202 111.474 82.8184 113.182 83.8147 114.32C84.811 115.459 86.4242 116.028 88.654 116.028C89.4606 116.028 90.1722 115.957 90.789 115.815C91.4058 115.672 91.9514 115.578 92.4258 115.53C92.9952 115.483 93.4696 115.672 93.8492 116.099C94.2287 116.479 94.4185 117.286 94.4185 118.519C94.4185 119.468 94.2525 120.322 93.9203 121.081C93.6357 121.793 93.0901 122.291 92.2835 122.576C91.6667 122.765 90.8602 122.931 89.8639 123.074C88.8675 123.264 87.9898 123.358 87.2307 123.358ZM111.848 123.358C107.91 123.358 104.517 122.623 101.671 121.152C98.8241 119.681 96.618 117.594 95.0523 114.89C93.5341 112.185 92.775 108.983 92.775 105.282C92.775 101.676 93.5104 98.5213 94.9812 95.817C96.4994 93.1127 98.5632 91.0014 101.173 89.4832C103.83 87.9175 106.842 87.1347 110.211 87.1347C112.678 87.1347 114.884 87.538 116.829 88.3445C118.822 89.1511 120.506 90.3135 121.882 91.8317C123.305 93.3499 124.373 95.2002 125.085 97.3827C125.844 99.5177 126.223 101.937 126.223 104.642C126.223 105.496 125.915 106.16 125.298 106.634C124.729 107.061 123.898 107.275 122.807 107.275H99.9628V102.151H119.961L118.822 103.218C118.822 101.036 118.49 99.2093 117.826 97.7385C117.209 96.2677 116.284 95.1528 115.05 94.3937C113.864 93.5871 112.369 93.1839 110.567 93.1839C108.574 93.1839 106.866 93.6583 105.443 94.6072C104.067 95.5086 102.999 96.8133 102.24 98.5213C101.528 100.182 101.173 102.175 101.173 104.499V104.997C101.173 108.888 102.074 111.806 103.877 113.751C105.727 115.649 108.432 116.598 111.99 116.598C113.223 116.598 114.599 116.455 116.118 116.171C117.683 115.838 119.154 115.293 120.53 114.534C121.526 113.964 122.404 113.727 123.163 113.822C123.922 113.87 124.515 114.13 124.942 114.605C125.417 115.079 125.701 115.672 125.796 116.384C125.891 117.048 125.749 117.736 125.369 118.448C125.037 119.16 124.444 119.776 123.59 120.298C121.929 121.342 120.008 122.125 117.826 122.647C115.691 123.121 113.698 123.358 111.848 123.358ZM134.264 123.216C132.794 123.216 131.655 122.837 130.848 122.077C130.089 121.271 129.71 120.132 129.71 118.661V91.7605C129.71 90.2898 130.089 89.1748 130.848 88.4157C131.608 87.6566 132.675 87.2771 134.051 87.2771C135.427 87.2771 136.494 87.6566 137.253 88.4157C138.013 89.1748 138.392 90.2898 138.392 91.7605V96.244H137.68C138.345 93.3974 139.649 91.2386 141.595 89.7679C143.54 88.2971 146.125 87.4194 149.352 87.1347C150.348 87.0398 151.131 87.3008 151.7 87.9175C152.317 88.4869 152.673 89.3883 152.768 90.6219C152.863 91.808 152.578 92.7806 151.914 93.5397C151.297 94.2514 150.348 94.6784 149.067 94.8207L147.501 94.963C144.607 95.2477 142.425 96.1491 140.954 97.6673C139.483 99.1381 138.748 101.226 138.748 103.93V118.661C138.748 120.132 138.368 121.271 137.609 122.077C136.85 122.837 135.735 123.216 134.264 123.216ZM158.433 123.216C157.009 123.216 155.918 122.837 155.159 122.077C154.4 121.271 154.02 120.132 154.02 118.661V91.7605C154.02 90.2898 154.4 89.1748 155.159 88.4157C155.918 87.6566 156.986 87.2771 158.361 87.2771C159.737 87.2771 160.805 87.6566 161.564 88.4157C162.323 89.1748 162.703 90.2898 162.703 91.7605V96.5998L161.92 94.8207C162.964 92.3061 164.577 90.4084 166.759 89.1274C168.989 87.7989 171.504 87.1347 174.303 87.1347C177.102 87.1347 179.403 87.6566 181.206 88.7004C183.009 89.7442 184.361 91.3335 185.262 93.4685C186.164 95.5561 186.615 98.2129 186.615 101.439V118.661C186.615 120.132 186.235 121.271 185.476 122.077C184.717 122.837 183.626 123.216 182.202 123.216C180.779 123.216 179.664 122.837 178.857 122.077C178.098 121.271 177.719 120.132 177.719 118.661V101.866C177.719 99.1618 177.197 97.1929 176.153 95.9593C175.157 94.7258 173.591 94.109 171.456 94.109C168.847 94.109 166.759 94.9393 165.193 96.5998C163.675 98.2129 162.916 100.372 162.916 103.076V118.661C162.916 121.698 161.422 123.216 158.433 123.216ZM203.549 123.358C201.035 123.358 198.781 122.884 196.789 121.935C194.843 120.939 193.301 119.61 192.163 117.95C191.071 116.289 190.526 114.415 190.526 112.328C190.526 109.766 191.19 107.749 192.519 106.278C193.847 104.76 196.006 103.669 198.995 103.005C201.984 102.341 205.993 102.008 211.022 102.008H214.58V107.132H211.093C208.151 107.132 205.803 107.275 204.047 107.559C202.292 107.844 201.035 108.342 200.276 109.054C199.564 109.718 199.208 110.667 199.208 111.901C199.208 113.466 199.754 114.747 200.845 115.744C201.936 116.74 203.454 117.238 205.4 117.238C206.965 117.238 208.341 116.882 209.527 116.171C210.761 115.411 211.733 114.391 212.445 113.11C213.157 111.829 213.513 110.359 213.513 108.698V100.514C213.513 98.1418 212.991 96.4338 211.947 95.39C210.903 94.3462 209.148 93.8244 206.681 93.8244C205.305 93.8244 203.81 93.9904 202.197 94.3225C200.632 94.6546 198.971 95.224 197.216 96.0305C196.314 96.4575 195.508 96.5761 194.796 96.3863C194.132 96.1966 193.61 95.817 193.23 95.2477C192.851 94.6309 192.661 93.9667 192.661 93.255C192.661 92.5434 192.851 91.8554 193.23 91.1912C193.61 90.4795 194.25 89.9576 195.152 89.6255C197.334 88.7241 199.422 88.0836 201.414 87.704C203.454 87.3245 205.305 87.1347 206.965 87.1347C210.381 87.1347 213.181 87.6566 215.363 88.7004C217.593 89.7442 219.253 91.3335 220.345 93.4685C221.436 95.5561 221.981 98.2604 221.981 101.581V118.661C221.981 120.132 221.626 121.271 220.914 122.077C220.202 122.837 219.182 123.216 217.854 123.216C216.525 123.216 215.482 122.837 214.722 122.077C214.011 121.271 213.655 120.132 213.655 118.661V115.245H214.224C213.892 116.906 213.228 118.353 212.232 119.587C211.283 120.773 210.073 121.698 208.602 122.362C207.131 123.026 205.447 123.358 203.549 123.358ZM243.394 123.358C240.31 123.358 237.724 122.837 235.636 121.793C233.596 120.749 232.078 119.231 231.082 117.238C230.085 115.198 229.587 112.683 229.587 109.694V94.536H225.887C224.748 94.536 223.87 94.2514 223.254 93.682C222.637 93.0652 222.328 92.235 222.328 91.1912C222.328 90.1 222.637 89.2697 223.254 88.7004C223.87 88.131 224.748 87.8464 225.887 87.8464H229.587V81.3702C229.587 79.8995 229.967 78.7845 230.726 78.0254C231.533 77.2663 232.647 76.8868 234.071 76.8868C235.494 76.8868 236.585 77.2663 237.344 78.0254C238.104 78.7845 238.483 79.8995 238.483 81.3702V87.8464H246.027C247.165 87.8464 248.043 88.131 248.66 88.7004C249.277 89.2697 249.585 90.1 249.585 91.1912C249.585 92.235 249.277 93.0652 248.66 93.682C248.043 94.2514 247.165 94.536 246.027 94.536H238.483V109.196C238.483 111.474 238.981 113.182 239.978 114.32C240.974 115.459 242.587 116.028 244.817 116.028C245.623 116.028 246.335 115.957 246.952 115.815C247.569 115.672 248.114 115.578 248.589 115.53C249.158 115.483 249.633 115.672 250.012 116.099C250.392 116.479 250.581 117.286 250.581 118.519C250.581 119.468 250.415 120.322 250.083 121.081C249.799 121.793 249.253 122.291 248.446 122.576C247.83 122.765 247.023 122.931 246.027 123.074C245.03 123.264 244.153 123.358 243.394 123.358ZM256.523 123.145C255.099 123.145 254.008 122.718 253.249 121.864C252.49 121.01 252.11 119.824 252.11 118.306V92.1875C252.11 90.6219 252.49 89.4358 253.249 88.6292C254.008 87.7752 255.099 87.3482 256.523 87.3482C257.946 87.3482 259.037 87.7752 259.796 88.6292C260.603 89.4358 261.006 90.6219 261.006 92.1875V118.306C261.006 119.824 260.627 121.01 259.867 121.864C259.108 122.718 257.993 123.145 256.523 123.145ZM256.523 80.7297C254.862 80.7297 253.557 80.3265 252.609 79.5199C251.707 78.6659 251.256 77.5035 251.256 76.0328C251.256 74.5146 251.707 73.3522 252.609 72.5456C253.557 71.7391 254.862 71.3358 256.523 71.3358C258.231 71.3358 259.535 71.7391 260.437 72.5456C261.338 73.3522 261.789 74.5146 261.789 76.0328C261.789 77.5035 261.338 78.6659 260.437 79.5199C259.535 80.3265 258.231 80.7297 256.523 80.7297ZM280.782 123.216C279.596 123.216 278.552 122.908 277.651 122.291C276.797 121.674 276.085 120.725 275.516 119.444L264.2 93.1839C263.773 92.1401 263.607 91.1675 263.702 90.266C263.844 89.3646 264.271 88.6529 264.983 88.131C265.742 87.5617 266.762 87.2771 268.043 87.2771C269.134 87.2771 270.012 87.538 270.676 88.0599C271.341 88.5343 271.934 89.4595 272.456 90.8354L282.063 114.818H279.928L289.82 90.7642C290.342 89.4358 290.935 88.5343 291.599 88.0599C292.311 87.538 293.26 87.2771 294.446 87.2771C295.49 87.2771 296.32 87.5617 296.937 88.131C297.554 88.6529 297.933 89.3646 298.075 90.266C298.218 91.12 298.052 92.0689 297.577 93.1127L286.048 119.444C285.526 120.725 284.815 121.674 283.913 122.291C283.059 122.908 282.016 123.216 280.782 123.216ZM317.118 123.358C313.18 123.358 309.788 122.623 306.941 121.152C304.095 119.681 301.888 117.594 300.323 114.89C298.805 112.185 298.045 108.983 298.045 105.282C298.045 101.676 298.781 98.5213 300.252 95.817C301.77 93.1127 303.834 91.0014 306.443 89.4832C309.1 87.9175 312.113 87.1347 315.481 87.1347C317.948 87.1347 320.154 87.538 322.1 88.3445C324.092 89.1511 325.777 90.3135 327.152 91.8317C328.576 93.3499 329.643 95.2002 330.355 97.3827C331.114 99.5177 331.494 101.937 331.494 104.642C331.494 105.496 331.185 106.16 330.568 106.634C329.999 107.061 329.169 107.275 328.078 107.275H305.233V102.151H325.231L324.092 103.218C324.092 101.036 323.76 99.2093 323.096 97.7385C322.479 96.2677 321.554 95.1528 320.321 94.3937C319.134 93.5871 317.64 93.1839 315.837 93.1839C313.844 93.1839 312.136 93.6583 310.713 94.6072C309.337 95.5086 308.27 96.8133 307.511 98.5213C306.799 100.182 306.443 102.175 306.443 104.499V104.997C306.443 108.888 307.345 111.806 309.147 113.751C310.998 115.649 313.702 116.598 317.26 116.598C318.494 116.598 319.87 116.455 321.388 116.171C322.954 115.838 324.424 115.293 325.8 114.534C326.797 113.964 327.674 113.727 328.433 113.822C329.193 113.87 329.786 114.13 330.213 114.605C330.687 115.079 330.972 115.672 331.067 116.384C331.162 117.048 331.019 117.736 330.64 118.448C330.308 119.16 329.714 119.776 328.86 120.298C327.2 121.342 325.278 122.125 323.096 122.647C320.961 123.121 318.968 123.358 317.118 123.358ZM347.719 123.358C345.679 123.358 343.52 123.145 341.243 122.718C338.966 122.291 336.925 121.556 335.123 120.512C334.363 120.037 333.818 119.492 333.486 118.875C333.201 118.211 333.082 117.57 333.13 116.953C333.225 116.289 333.462 115.72 333.842 115.245C334.269 114.771 334.79 114.463 335.407 114.32C336.071 114.178 336.783 114.297 337.542 114.676C339.44 115.578 341.219 116.218 342.88 116.598C344.54 116.93 346.177 117.096 347.79 117.096C350.068 117.096 351.752 116.716 352.843 115.957C353.982 115.151 354.551 114.107 354.551 112.826C354.551 111.735 354.171 110.904 353.412 110.335C352.701 109.718 351.609 109.267 350.139 108.983L343.022 107.631C340.08 107.061 337.827 105.994 336.261 104.428C334.743 102.815 333.984 100.751 333.984 98.2367C333.984 95.9593 334.601 93.9904 335.834 92.3299C337.115 90.6693 338.871 89.3883 341.101 88.4869C343.33 87.5854 345.892 87.1347 348.787 87.1347C350.874 87.1347 352.819 87.3719 354.622 87.8464C356.472 88.2734 358.252 88.9613 359.96 89.9102C360.671 90.2898 361.146 90.7879 361.383 91.4047C361.668 92.0215 361.739 92.662 361.596 93.3262C361.454 93.943 361.169 94.5123 360.742 95.0342C360.315 95.5086 359.77 95.817 359.106 95.9593C358.489 96.0542 357.777 95.9119 356.971 95.5323C355.5 94.7732 354.077 94.2276 352.701 93.8955C351.372 93.5634 350.091 93.3974 348.858 93.3974C346.533 93.3974 344.801 93.8006 343.663 94.6072C342.571 95.4137 342.026 96.4812 342.026 97.8097C342.026 98.806 342.358 99.6363 343.022 100.3C343.686 100.965 344.706 101.415 346.082 101.653L353.199 103.005C356.283 103.574 358.607 104.618 360.173 106.136C361.786 107.654 362.593 109.694 362.593 112.256C362.593 115.72 361.241 118.448 358.536 120.441C355.832 122.386 352.226 123.358 347.719 123.358ZM399.44 123.216C397.969 123.216 396.831 122.813 396.024 122.006C395.265 121.152 394.886 119.99 394.886 118.519V80.0892H381.008C379.775 80.0892 378.802 79.7571 378.09 79.0929C377.426 78.3813 377.094 77.4324 377.094 76.2463C377.094 75.0127 377.426 74.0876 378.09 73.4708C378.802 72.8066 379.775 72.4744 381.008 72.4744H417.872C419.106 72.4744 420.055 72.8066 420.719 73.4708C421.431 74.0876 421.786 75.0127 421.786 76.2463C421.786 77.4324 421.431 78.3813 420.719 79.0929C420.055 79.7571 419.106 80.0892 417.872 80.0892H403.995V118.519C403.995 119.99 403.615 121.152 402.856 122.006C402.097 122.813 400.958 123.216 399.44 123.216ZM432.886 123.358C429.28 123.358 426.149 122.623 423.492 121.152C420.835 119.681 418.772 117.594 417.301 114.89C415.83 112.138 415.095 108.912 415.095 105.211C415.095 102.412 415.498 99.9209 416.304 97.7385C417.158 95.5086 418.368 93.6109 419.934 92.0452C421.5 90.4321 423.374 89.2223 425.556 88.4157C427.739 87.5617 430.182 87.1347 432.886 87.1347C436.492 87.1347 439.623 87.8701 442.28 89.3409C444.937 90.8116 447.001 92.8992 448.472 95.6035C449.942 98.3078 450.678 101.51 450.678 105.211C450.678 108.01 450.251 110.525 449.397 112.755C448.59 114.984 447.404 116.906 445.839 118.519C444.273 120.085 442.399 121.295 440.216 122.149C438.034 122.955 435.591 123.358 432.886 123.358ZM432.886 116.598C434.642 116.598 436.184 116.171 437.512 115.317C438.84 114.463 439.861 113.205 440.572 111.545C441.331 109.837 441.711 107.726 441.711 105.211C441.711 101.415 440.904 98.5925 439.291 96.7422C437.678 94.8444 435.543 93.8955 432.886 93.8955C431.131 93.8955 429.589 94.3225 428.26 95.1765C426.932 95.9831 425.888 97.2403 425.129 98.9483C424.417 100.609 424.062 102.696 424.062 105.211C424.062 108.959 424.868 111.806 426.481 113.751C428.094 115.649 430.229 116.598 432.886 116.598ZM475.633 123.216C474.162 123.216 473.023 122.813 472.217 122.006C471.458 121.152 471.078 119.99 471.078 118.519V77.1003C471.078 75.582 471.481 74.4434 472.288 73.6843C473.094 72.8777 474.233 72.4744 475.704 72.4744H492.855C498.359 72.4744 502.605 73.8503 505.594 76.6021C508.583 79.3539 510.077 83.1968 510.077 88.131C510.077 93.0652 508.583 96.932 505.594 99.7312C502.605 102.483 498.359 103.859 492.855 103.859H480.187V118.519C480.187 119.99 479.808 121.152 479.049 122.006C478.29 122.813 477.151 123.216 475.633 123.216ZM480.187 96.671H491.432C494.658 96.671 497.101 95.9593 498.762 94.536C500.422 93.0652 501.253 90.9303 501.253 88.131C501.253 85.3318 500.422 83.2206 498.762 81.7972C497.101 80.3739 494.658 79.6623 491.432 79.6623H480.187V96.671ZM524.975 123.358C521.038 123.358 518.072 122.243 516.08 120.014C514.087 117.736 513.091 114.415 513.091 110.05V76.3886C513.091 74.9178 513.47 73.8029 514.229 73.0438C514.988 72.2847 516.08 71.9051 517.503 71.9051C518.926 71.9051 520.018 72.2847 520.777 73.0438C521.583 73.8029 521.987 74.9178 521.987 76.3886V109.623C521.987 111.806 522.437 113.419 523.339 114.463C524.288 115.506 525.616 116.028 527.324 116.028C527.704 116.028 528.059 116.028 528.391 116.028C528.724 115.981 529.056 115.933 529.388 115.886C530.052 115.791 530.503 115.981 530.74 116.455C530.977 116.882 531.096 117.784 531.096 119.16C531.096 120.346 530.859 121.271 530.384 121.935C529.91 122.599 529.127 123.003 528.036 123.145C527.561 123.192 527.063 123.24 526.541 123.287C526.019 123.335 525.497 123.358 524.975 123.358ZM543.716 123.358C541.202 123.358 538.948 122.884 536.955 121.935C535.01 120.939 533.468 119.61 532.33 117.95C531.238 116.289 530.693 114.415 530.693 112.328C530.693 109.766 531.357 107.749 532.685 106.278C534.014 104.76 536.173 103.669 539.162 103.005C542.151 102.341 546.16 102.008 551.189 102.008H554.747V107.132H551.26C548.318 107.132 545.97 107.275 544.214 107.559C542.459 107.844 541.202 108.342 540.443 109.054C539.731 109.718 539.375 110.667 539.375 111.901C539.375 113.466 539.921 114.747 541.012 115.744C542.103 116.74 543.621 117.238 545.566 117.238C547.132 117.238 548.508 116.882 549.694 116.171C550.928 115.411 551.9 114.391 552.612 113.11C553.324 111.829 553.679 110.359 553.679 108.698V100.514C553.679 98.1418 553.158 96.4338 552.114 95.39C551.07 94.3462 549.315 93.8244 546.847 93.8244C545.472 93.8244 543.977 93.9904 542.364 94.3225C540.798 94.6546 539.138 95.224 537.382 96.0305C536.481 96.4575 535.674 96.5761 534.963 96.3863C534.298 96.1966 533.777 95.817 533.397 95.2477C533.017 94.6309 532.828 93.9667 532.828 93.255C532.828 92.5434 533.017 91.8554 533.397 91.1912C533.777 90.4795 534.417 89.9576 535.319 89.6255C537.501 88.7241 539.589 88.0836 541.581 87.704C543.621 87.3245 545.472 87.1347 547.132 87.1347C550.548 87.1347 553.347 87.6566 555.53 88.7004C557.76 89.7442 559.42 91.3335 560.511 93.4685C561.603 95.5561 562.148 98.2604 562.148 101.581V118.661C562.148 120.132 561.792 121.271 561.081 122.077C560.369 122.837 559.349 123.216 558.021 123.216C556.692 123.216 555.648 122.837 554.889 122.077C554.178 121.271 553.822 120.132 553.822 118.661V115.245H554.391C554.059 116.906 553.395 118.353 552.398 119.587C551.45 120.773 550.24 121.698 548.769 122.362C547.298 123.026 545.614 123.358 543.716 123.358ZM580.358 123.358C578.318 123.358 576.159 123.145 573.882 122.718C571.604 122.291 569.564 121.556 567.761 120.512C567.002 120.037 566.457 119.492 566.125 118.875C565.84 118.211 565.721 117.57 565.769 116.953C565.864 116.289 566.101 115.72 566.48 115.245C566.907 114.771 567.429 114.463 568.046 114.32C568.71 114.178 569.422 114.297 570.181 114.676C572.079 115.578 573.858 116.218 575.519 116.598C577.179 116.93 578.816 117.096 580.429 117.096C582.706 117.096 584.391 116.716 585.482 115.957C586.621 115.151 587.19 114.107 587.19 112.826C587.19 111.735 586.81 110.904 586.051 110.335C585.34 109.718 584.248 109.267 582.778 108.983L575.661 107.631C572.719 107.061 570.466 105.994 568.9 104.428C567.382 102.815 566.623 100.751 566.623 98.2367C566.623 95.9593 567.24 93.9904 568.473 92.3299C569.754 90.6693 571.51 89.3883 573.739 88.4869C575.969 87.5854 578.531 87.1347 581.425 87.1347C583.513 87.1347 585.458 87.3719 587.261 87.8464C589.111 88.2734 590.891 88.9613 592.599 89.9102C593.31 90.2898 593.785 90.7879 594.022 91.4047C594.307 92.0215 594.378 92.662 594.235 93.3262C594.093 93.943 593.808 94.5123 593.381 95.0342C592.954 95.5086 592.409 95.817 591.745 95.9593C591.128 96.0542 590.416 95.9119 589.61 95.5323C588.139 94.7732 586.715 94.2276 585.34 93.8955C584.011 93.5634 582.73 93.3974 581.497 93.3974C579.172 93.3974 577.44 93.8006 576.301 94.6072C575.21 95.4137 574.665 96.4812 574.665 97.8097C574.665 98.806 574.997 99.6363 575.661 100.3C576.325 100.965 577.345 101.415 578.721 101.653L585.838 103.005C588.922 103.574 591.246 104.618 592.812 106.136C594.425 107.654 595.232 109.694 595.232 112.256C595.232 115.72 593.88 118.448 591.175 120.441C588.471 122.386 584.865 123.358 580.358 123.358ZM614.404 123.358C611.32 123.358 608.734 122.837 606.647 121.793C604.607 120.749 603.088 119.231 602.092 117.238C601.096 115.198 600.598 112.683 600.598 109.694V94.536H596.897C595.758 94.536 594.881 94.2514 594.264 93.682C593.647 93.0652 593.339 92.235 593.339 91.1912C593.339 90.1 593.647 89.2697 594.264 88.7004C594.881 88.131 595.758 87.8464 596.897 87.8464H600.598V81.3702C600.598 79.8995 600.977 78.7845 601.736 78.0254C602.543 77.2663 603.658 76.8868 605.081 76.8868C606.504 76.8868 607.596 77.2663 608.355 78.0254C609.114 78.7845 609.493 79.8995 609.493 81.3702V87.8464H617.037C618.176 87.8464 619.053 88.131 619.67 88.7004C620.287 89.2697 620.595 90.1 620.595 91.1912C620.595 92.235 620.287 93.0652 619.67 93.682C619.053 94.2514 618.176 94.536 617.037 94.536H609.493V109.196C609.493 111.474 609.991 113.182 610.988 114.32C611.984 115.459 613.597 116.028 615.827 116.028C616.634 116.028 617.345 115.957 617.962 115.815C618.579 115.672 619.125 115.578 619.599 115.53C620.168 115.483 620.643 115.672 621.022 116.099C621.402 116.479 621.592 117.286 621.592 118.519C621.592 119.468 621.426 120.322 621.093 121.081C620.809 121.793 620.263 122.291 619.457 122.576C618.84 122.765 618.033 122.931 617.037 123.074C616.041 123.264 615.163 123.358 614.404 123.358ZM627.533 123.145C626.11 123.145 625.018 122.718 624.259 121.864C623.5 121.01 623.121 119.824 623.121 118.306V92.1875C623.121 90.6219 623.5 89.4358 624.259 88.6292C625.018 87.7752 626.11 87.3482 627.533 87.3482C628.956 87.3482 630.047 87.7752 630.807 88.6292C631.613 89.4358 632.016 90.6219 632.016 92.1875V118.306C632.016 119.824 631.637 121.01 630.878 121.864C630.119 122.718 629.004 123.145 627.533 123.145ZM627.533 80.7297C625.872 80.7297 624.568 80.3265 623.619 79.5199C622.717 78.6659 622.267 77.5035 622.267 76.0328C622.267 74.5146 622.717 73.3522 623.619 72.5456C624.568 71.7391 625.872 71.3358 627.533 71.3358C629.241 71.3358 630.546 71.7391 631.447 72.5456C632.348 73.3522 632.799 74.5146 632.799 76.0328C632.799 77.5035 632.348 78.6659 631.447 79.5199C630.546 80.3265 629.241 80.7297 627.533 80.7297ZM653.785 123.358C650.132 123.358 646.953 122.623 644.249 121.152C641.544 119.634 639.457 117.499 637.986 114.747C636.515 111.995 635.78 108.769 635.78 105.069C635.78 102.269 636.183 99.7786 636.99 97.5962C637.844 95.3663 639.053 93.4922 640.619 91.974C642.185 90.4084 644.083 89.2223 646.312 88.4157C648.542 87.5617 651.033 87.1347 653.785 87.1347C655.351 87.1347 657.035 87.3482 658.838 87.7752C660.688 88.2022 662.42 88.9139 664.033 89.9102C664.792 90.3846 665.29 90.954 665.527 91.6182C665.765 92.2824 665.812 92.9704 665.67 93.682C665.527 94.3462 665.219 94.9393 664.745 95.4612C664.318 95.9356 663.772 96.244 663.108 96.3863C662.443 96.4812 661.708 96.3152 660.902 95.8882C659.858 95.2714 658.79 94.8207 657.699 94.536C656.608 94.2039 655.564 94.0379 654.568 94.0379C653.002 94.0379 651.626 94.2988 650.44 94.8207C649.254 95.2951 648.234 96.0068 647.38 96.9557C646.573 97.8571 645.957 98.9958 645.53 100.372C645.103 101.748 644.889 103.337 644.889 105.14C644.889 108.651 645.719 111.426 647.38 113.466C649.088 115.459 651.484 116.455 654.568 116.455C655.564 116.455 656.584 116.313 657.628 116.028C658.719 115.744 659.81 115.293 660.902 114.676C661.708 114.249 662.42 114.107 663.037 114.249C663.701 114.391 664.246 114.724 664.673 115.245C665.1 115.72 665.361 116.313 665.456 117.025C665.551 117.689 665.456 118.353 665.172 119.017C664.934 119.681 664.46 120.227 663.748 120.654C662.183 121.603 660.522 122.291 658.767 122.718C657.011 123.145 655.351 123.358 653.785 123.358ZM9.31912 193.647C7.75346 193.647 6.54363 193.243 5.68964 192.437C4.88309 191.583 4.47981 190.373 4.47981 188.807V148.314C4.47981 146.748 4.88309 145.562 5.68964 144.755C6.54363 143.901 7.75346 143.474 9.31912 143.474H26.399C29.9099 143.474 32.8989 143.996 35.366 145.04C37.8331 146.084 39.7072 147.578 40.9881 149.524C42.3166 151.469 42.9808 153.794 42.9808 156.498C42.9808 159.534 42.1031 162.096 40.3477 164.184C38.5922 166.271 36.1963 167.671 33.1598 168.383V167.315C36.6707 167.837 39.3988 169.166 41.344 171.3C43.2892 173.435 44.2618 176.211 44.2618 179.627C44.2618 184.087 42.7436 187.55 39.7072 190.017C36.7182 192.437 32.5431 193.647 27.1819 193.647H9.31912ZM13.2333 186.744H26.0432C29.2694 186.744 31.6416 186.127 33.1598 184.893C34.6781 183.612 35.4372 181.715 35.4372 179.2C35.4372 176.638 34.6781 174.74 33.1598 173.507C31.6416 172.273 29.2694 171.656 26.0432 171.656H13.2333V186.744ZM13.2333 164.753H24.8334C27.9647 164.753 30.2895 164.16 31.8077 162.974C33.3733 161.74 34.1562 159.938 34.1562 157.565C34.1562 155.193 33.3733 153.414 31.8077 152.228C30.2895 150.994 27.9647 150.378 24.8334 150.378H13.2333V164.753ZM60.5216 194.358C58.0071 194.358 55.7535 193.884 53.7608 192.935C51.8156 191.939 50.2737 190.61 49.135 188.95C48.0438 187.289 47.4982 185.415 47.4982 183.328C47.4982 180.766 48.1624 178.749 49.4909 177.278C50.8193 175.76 52.978 174.669 55.967 174.005C58.956 173.341 62.965 173.008 67.9941 173.008H71.5524V178.132H68.0653C65.1237 178.132 62.7752 178.275 61.0198 178.559C59.2644 178.844 58.0071 179.342 57.248 180.054C56.5363 180.718 56.1805 181.667 56.1805 182.901C56.1805 184.466 56.7261 185.747 57.8173 186.744C58.9085 187.74 60.4268 188.238 62.372 188.238C63.9376 188.238 65.3135 187.882 66.4996 187.171C67.7332 186.411 68.7058 185.391 69.4174 184.11C70.1291 182.829 70.4849 181.359 70.4849 179.698V171.514C70.4849 169.142 69.963 167.434 68.9193 166.39C67.8755 165.346 66.1201 164.824 63.653 164.824C62.2771 164.824 60.7826 164.99 59.1695 165.323C57.6038 165.655 55.9433 166.224 54.1878 167.031C53.2864 167.458 52.4798 167.576 51.7682 167.386C51.104 167.197 50.5821 166.817 50.2025 166.248C49.823 165.631 49.6332 164.967 49.6332 164.255C49.6332 163.543 49.823 162.855 50.2025 162.191C50.5821 161.48 51.2226 160.958 52.124 160.626C54.3064 159.724 56.394 159.084 58.3867 158.704C60.4268 158.324 62.2771 158.135 63.9376 158.135C67.3536 158.135 70.1528 158.657 72.3353 159.7C74.5651 160.744 76.2257 162.334 77.3169 164.469C78.4081 166.556 78.9537 169.26 78.9537 172.581V189.661C78.9537 191.132 78.5979 192.271 77.8862 193.077C77.1746 193.837 76.1545 194.216 74.8261 194.216C73.4976 194.216 72.4539 193.837 71.6948 193.077C70.9831 192.271 70.6273 191.132 70.6273 189.661V186.245H71.1966C70.8645 187.906 70.2003 189.353 69.2039 190.587C68.2551 191.773 67.0452 192.698 65.5745 193.362C64.1037 194.026 62.4194 194.358 60.5216 194.358ZM88.837 194.216C87.4136 194.216 86.3224 193.837 85.5633 193.077C84.8042 192.271 84.4246 191.132 84.4246 189.661V162.761C84.4246 161.29 84.8042 160.175 85.5633 159.416C86.3224 158.657 87.3899 158.277 88.7658 158.277C90.1417 158.277 91.2092 158.657 91.9683 159.416C92.7274 160.175 93.1069 161.29 93.1069 162.761V167.6L92.3241 165.821C93.3679 163.306 94.981 161.408 97.1634 160.127C99.3933 158.799 101.908 158.135 104.707 158.135C107.506 158.135 109.807 158.657 111.61 159.7C113.413 160.744 114.765 162.334 115.667 164.469C116.568 166.556 117.019 169.213 117.019 172.439V189.661C117.019 191.132 116.639 192.271 115.88 193.077C115.121 193.837 114.03 194.216 112.607 194.216C111.183 194.216 110.068 193.837 109.262 193.077C108.503 192.271 108.123 191.132 108.123 189.661V172.866C108.123 170.162 107.601 168.193 106.557 166.959C105.561 165.726 103.995 165.109 101.86 165.109C99.251 165.109 97.1634 165.939 95.5978 167.6C94.0795 169.213 93.3204 171.372 93.3204 174.076V189.661C93.3204 192.698 91.8259 194.216 88.837 194.216ZM135.875 194.358C132.839 194.358 130.158 193.623 127.833 192.152C125.556 190.681 123.777 188.594 122.496 185.89C121.215 183.138 120.574 179.912 120.574 176.211C120.574 172.463 121.215 169.26 122.496 166.604C123.777 163.899 125.556 161.812 127.833 160.341C130.158 158.87 132.839 158.135 135.875 158.135C138.769 158.135 141.284 158.846 143.419 160.27C145.601 161.693 147.072 163.567 147.831 165.892H147.048V147.389C147.048 145.918 147.428 144.803 148.187 144.044C148.946 143.285 150.037 142.905 151.461 142.905C152.884 142.905 153.975 143.285 154.734 144.044C155.541 144.803 155.944 145.918 155.944 147.389V189.661C155.944 191.132 155.564 192.271 154.805 193.077C154.046 193.837 152.955 194.216 151.532 194.216C150.108 194.216 149.017 193.837 148.258 193.077C147.499 192.271 147.119 191.132 147.119 189.661V184.11L147.902 186.245C147.191 188.713 145.744 190.681 143.561 192.152C141.379 193.623 138.817 194.358 135.875 194.358ZM138.366 187.598C140.121 187.598 141.663 187.171 142.992 186.317C144.32 185.463 145.34 184.205 146.052 182.545C146.811 180.837 147.191 178.726 147.191 176.211C147.191 172.415 146.384 169.593 144.771 167.742C143.158 165.844 141.023 164.896 138.366 164.896C136.611 164.896 135.069 165.323 133.74 166.177C132.412 166.983 131.368 168.24 130.609 169.948C129.897 171.609 129.541 173.696 129.541 176.211C129.541 179.959 130.348 182.806 131.961 184.751C133.574 186.649 135.709 187.598 138.366 187.598ZM173.067 194.358C170.553 194.358 168.299 193.884 166.307 192.935C164.361 191.939 162.819 190.61 161.681 188.95C160.589 187.289 160.044 185.415 160.044 183.328C160.044 180.766 160.708 178.749 162.037 177.278C163.365 175.76 165.524 174.669 168.513 174.005C171.502 173.341 175.511 173.008 180.54 173.008H184.098V178.132H180.611C177.669 178.132 175.321 178.275 173.565 178.559C171.81 178.844 170.553 179.342 169.794 180.054C169.082 180.718 168.726 181.667 168.726 182.901C168.726 184.466 169.272 185.747 170.363 186.744C171.454 187.74 172.972 188.238 174.918 188.238C176.483 188.238 177.859 187.882 179.045 187.171C180.279 186.411 181.251 185.391 181.963 184.11C182.675 182.829 183.031 181.359 183.031 179.698V171.514C183.031 169.142 182.509 167.434 181.465 166.39C180.421 165.346 178.666 164.824 176.199 164.824C174.823 164.824 173.328 164.99 171.715 165.323C170.15 165.655 168.489 166.224 166.734 167.031C165.832 167.458 165.026 167.576 164.314 167.386C163.65 167.197 163.128 166.817 162.748 166.248C162.369 165.631 162.179 164.967 162.179 164.255C162.179 163.543 162.369 162.855 162.748 162.191C163.128 161.48 163.768 160.958 164.67 160.626C166.852 159.724 168.94 159.084 170.932 158.704C172.972 158.324 174.823 158.135 176.483 158.135C179.899 158.135 182.699 158.657 184.881 159.7C187.111 160.744 188.771 162.334 189.863 164.469C190.954 166.556 191.499 169.26 191.499 172.581V189.661C191.499 191.132 191.144 192.271 190.432 193.077C189.72 193.837 188.7 194.216 187.372 194.216C186.043 194.216 185 193.837 184.24 193.077C183.529 192.271 183.173 191.132 183.173 189.661V186.245H183.742C183.41 187.906 182.746 189.353 181.75 190.587C180.801 191.773 179.591 192.698 178.12 193.362C176.649 194.026 174.965 194.358 173.067 194.358ZM213.196 207.168C210.634 207.168 208.143 206.931 205.724 206.457C203.352 205.982 201.193 205.247 199.248 204.251C198.346 203.776 197.729 203.207 197.397 202.543C197.113 201.878 197.018 201.19 197.113 200.479C197.255 199.814 197.54 199.221 197.967 198.7C198.441 198.178 199.01 197.822 199.675 197.632C200.339 197.442 201.027 197.537 201.738 197.917C203.826 198.96 205.795 199.625 207.645 199.909C209.543 200.241 211.156 200.408 212.485 200.408C215.663 200.408 218.036 199.625 219.601 198.059C221.214 196.541 222.021 194.264 222.021 191.227V184.822H222.661C221.95 187.242 220.455 189.187 218.178 190.658C215.948 192.081 213.41 192.793 210.563 192.793C207.432 192.793 204.704 192.081 202.379 190.658C200.054 189.187 198.251 187.147 196.97 184.537C195.689 181.928 195.049 178.892 195.049 175.428C195.049 172.819 195.405 170.47 196.116 168.383C196.875 166.248 197.919 164.421 199.248 162.903C200.624 161.385 202.26 160.222 204.158 159.416C206.103 158.562 208.238 158.135 210.563 158.135C213.505 158.135 216.067 158.87 218.249 160.341C220.479 161.764 221.926 163.662 222.59 166.034L221.879 167.813V162.761C221.879 161.29 222.258 160.175 223.017 159.416C223.824 158.657 224.915 158.277 226.291 158.277C227.714 158.277 228.805 158.657 229.565 159.416C230.324 160.175 230.703 161.29 230.703 162.761V190.16C230.703 195.805 229.209 200.052 226.22 202.898C223.231 205.745 218.89 207.168 213.196 207.168ZM212.983 186.032C214.833 186.032 216.422 185.605 217.751 184.751C219.079 183.897 220.099 182.687 220.811 181.121C221.57 179.508 221.95 177.611 221.95 175.428C221.95 172.154 221.143 169.593 219.53 167.742C217.917 165.844 215.735 164.896 212.983 164.896C211.132 164.896 209.543 165.323 208.215 166.177C206.886 167.031 205.842 168.24 205.083 169.806C204.372 171.372 204.016 173.246 204.016 175.428C204.016 178.702 204.822 181.288 206.435 183.185C208.049 185.083 210.231 186.032 212.983 186.032ZM253.513 194.358C249.575 194.358 246.183 193.623 243.336 192.152C240.49 190.681 238.284 188.594 236.718 185.89C235.2 183.185 234.441 179.983 234.441 176.282C234.441 172.676 235.176 169.521 236.647 166.817C238.165 164.113 240.229 162.001 242.838 160.483C245.495 158.918 248.508 158.135 251.876 158.135C254.343 158.135 256.55 158.538 258.495 159.345C260.487 160.151 262.172 161.313 263.548 162.832C264.971 164.35 266.038 166.2 266.75 168.383C267.509 170.518 267.889 172.937 267.889 175.642C267.889 176.496 267.58 177.16 266.964 177.634C266.394 178.061 265.564 178.275 264.473 178.275H241.628V173.151H261.626L260.487 174.218C260.487 172.036 260.155 170.209 259.491 168.739C258.874 167.268 257.949 166.153 256.716 165.394C255.529 164.587 254.035 164.184 252.232 164.184C250.239 164.184 248.531 164.658 247.108 165.607C245.732 166.509 244.665 167.813 243.906 169.521C243.194 171.182 242.838 173.175 242.838 175.499V175.997C242.838 179.888 243.74 182.806 245.542 184.751C247.393 186.649 250.097 187.598 253.655 187.598C254.889 187.598 256.265 187.455 257.783 187.171C259.349 186.838 260.82 186.293 262.195 185.534C263.192 184.964 264.069 184.727 264.829 184.822C265.588 184.87 266.181 185.13 266.608 185.605C267.082 186.079 267.367 186.672 267.462 187.384C267.557 188.048 267.414 188.736 267.035 189.448C266.703 190.16 266.11 190.776 265.256 191.298C263.595 192.342 261.674 193.125 259.491 193.647C257.356 194.121 255.363 194.358 253.513 194.358ZM284.114 194.358C282.074 194.358 279.915 194.145 277.638 193.718C275.361 193.291 273.321 192.556 271.518 191.512C270.759 191.037 270.213 190.492 269.881 189.875C269.596 189.211 269.478 188.57 269.525 187.953C269.62 187.289 269.857 186.72 270.237 186.245C270.664 185.771 271.186 185.463 271.802 185.32C272.467 185.178 273.178 185.297 273.937 185.676C275.835 186.578 277.614 187.218 279.275 187.598C280.935 187.93 282.572 188.096 284.185 188.096C286.463 188.096 288.147 187.716 289.238 186.957C290.377 186.151 290.946 185.107 290.946 183.826C290.946 182.735 290.566 181.904 289.807 181.335C289.096 180.718 288.004 180.267 286.534 179.983L279.417 178.631C276.476 178.061 274.222 176.994 272.656 175.428C271.138 173.815 270.379 171.751 270.379 169.237C270.379 166.959 270.996 164.99 272.229 163.33C273.51 161.669 275.266 160.388 277.496 159.487C279.725 158.585 282.287 158.135 285.182 158.135C287.269 158.135 289.214 158.372 291.017 158.846C292.868 159.273 294.647 159.961 296.355 160.91C297.066 161.29 297.541 161.788 297.778 162.405C298.063 163.021 298.134 163.662 297.992 164.326C297.849 164.943 297.565 165.512 297.138 166.034C296.711 166.509 296.165 166.817 295.501 166.959C294.884 167.054 294.172 166.912 293.366 166.532C291.895 165.773 290.472 165.228 289.096 164.896C287.767 164.563 286.486 164.397 285.253 164.397C282.928 164.397 281.196 164.801 280.058 165.607C278.966 166.414 278.421 167.481 278.421 168.81C278.421 169.806 278.753 170.636 279.417 171.3C280.081 171.965 281.101 172.415 282.477 172.653L289.594 174.005C292.678 174.574 295.003 175.618 296.568 177.136C298.181 178.654 298.988 180.694 298.988 183.256C298.988 186.72 297.636 189.448 294.931 191.441C292.227 193.386 288.621 194.358 284.114 194.358ZM306.489 194.003C304.876 194.003 303.571 193.504 302.575 192.508C301.626 191.512 301.151 190.231 301.151 188.665C301.151 187.147 301.626 185.913 302.575 184.964C303.571 183.968 304.876 183.47 306.489 183.47C308.149 183.47 309.43 183.968 310.332 184.964C311.281 185.913 311.755 187.147 311.755 188.665C311.755 190.231 311.281 191.512 310.332 192.508C309.43 193.504 308.149 194.003 306.489 194.003ZM21.7732 265.358C19.6857 265.358 17.5981 265.192 15.5106 264.86C13.423 264.576 11.4541 264.125 9.60379 263.508C7.75346 262.844 6.09291 262.037 4.62214 261.088C3.76815 260.519 3.17509 259.831 2.84298 259.025C2.51087 258.218 2.39226 257.435 2.48715 256.676C2.62948 255.87 2.93787 255.182 3.41231 254.612C3.9342 253.995 4.5747 253.616 5.33381 253.474C6.09291 253.331 6.92319 253.545 7.82463 254.114C9.91217 255.348 12.1183 256.249 14.4431 256.818C16.7679 257.388 19.2112 257.672 21.7732 257.672C25.5213 257.672 28.2494 257.056 29.9574 255.822C31.6654 254.541 32.5194 252.904 32.5194 250.912C32.5194 249.251 31.9026 247.946 30.669 246.997C29.4829 246.049 27.4191 245.266 24.4776 244.649L16.6493 243.012C12.1421 242.063 8.77351 240.474 6.54363 238.244C4.3612 235.967 3.26998 232.978 3.26998 229.277C3.26998 226.952 3.74442 224.841 4.69331 222.943C5.64219 221.045 6.97063 219.409 8.67862 218.033C10.4341 216.657 12.4979 215.613 14.8701 214.901C17.2898 214.142 19.9466 213.763 22.8407 213.763C25.6874 213.763 28.3917 214.119 30.9537 214.83C33.5157 215.542 35.8167 216.586 37.8568 217.962C38.6159 218.483 39.1141 219.124 39.3513 219.883C39.636 220.642 39.7072 221.401 39.5648 222.16C39.4225 222.872 39.0904 223.489 38.5685 224.011C38.0466 224.533 37.3824 224.841 36.5758 224.936C35.8167 225.031 34.939 224.794 33.9427 224.224C32.1872 223.228 30.4081 222.516 28.6052 222.089C26.8023 221.662 24.8571 221.449 22.7696 221.449C20.5871 221.449 18.7131 221.757 17.1474 222.374C15.5818 222.991 14.3719 223.868 13.5179 225.007C12.7114 226.098 12.3081 227.403 12.3081 228.921C12.3081 230.629 12.8774 232.005 14.0161 233.049C15.1548 234.045 17.1 234.828 19.8517 235.397L27.6089 237.034C32.3059 238.031 35.793 239.596 38.0703 241.731C40.3951 243.866 41.5575 246.713 41.5575 250.271C41.5575 252.548 41.083 254.612 40.1342 256.463C39.2327 258.313 37.9043 259.902 36.1488 261.231C34.4408 262.559 32.377 263.579 29.9574 264.291C27.5377 265.003 24.8097 265.358 21.7732 265.358ZM60.8336 265.358C57.2278 265.358 54.0965 264.623 51.4396 263.152C48.7827 261.681 46.7189 259.594 45.2481 256.89C43.7773 254.138 43.042 250.912 43.042 247.211C43.042 244.412 43.4452 241.921 44.2518 239.739C45.1058 237.509 46.3156 235.611 47.8813 234.045C49.4469 232.432 51.321 231.222 53.5034 230.416C55.6859 229.562 58.1292 229.135 60.8336 229.135C64.4393 229.135 67.5706 229.87 70.2275 231.341C72.8844 232.812 74.9482 234.899 76.419 237.604C77.8898 240.308 78.6251 243.51 78.6251 247.211C78.6251 250.01 78.1981 252.525 77.3441 254.755C76.5376 256.984 75.3515 258.906 73.7858 260.519C72.2202 262.085 70.3461 263.295 68.1637 264.149C65.9813 264.955 63.5379 265.358 60.8336 265.358ZM60.8336 258.598C62.589 258.598 64.1309 258.171 65.4594 257.317C66.7878 256.463 67.8079 255.205 68.5195 253.545C69.2786 251.837 69.6582 249.726 69.6582 247.211C69.6582 243.415 68.8516 240.593 67.2385 238.742C65.6254 236.844 63.4904 235.896 60.8336 235.896C59.0781 235.896 57.5362 236.323 56.2077 237.177C54.8793 237.983 53.8355 239.24 53.0764 240.948C52.3648 242.609 52.0089 244.696 52.0089 247.211C52.0089 250.959 52.8155 253.806 54.4286 255.751C56.0417 257.649 58.1767 258.598 60.8336 258.598ZM86.4974 272.262C85.8806 273.021 85.2164 273.448 84.5047 273.543C83.8405 273.685 83.2474 273.566 82.7255 273.187C82.2037 272.807 81.919 272.262 81.8715 271.55C81.8241 270.886 82.1325 270.15 82.7967 269.344C83.7456 268.158 84.3861 266.971 84.7182 265.785C85.0503 264.599 85.2164 263.532 85.2164 262.583L85.5722 265.003C83.9117 265.003 82.5595 264.528 81.5157 263.579C80.5194 262.583 80.0212 261.278 80.0212 259.665C80.0212 258.147 80.4957 256.913 81.4446 255.964C82.3934 254.968 83.6744 254.47 85.2875 254.47C86.9481 254.47 88.2528 255.039 89.2017 256.178C90.1506 257.269 90.625 258.859 90.625 260.946C90.625 262.085 90.5064 263.271 90.2692 264.504C90.0794 265.691 89.6761 266.924 89.0594 268.205C88.49 269.533 87.636 270.886 86.4974 272.262ZM129.448 265.216C128.167 265.216 127.124 264.908 126.317 264.291C125.558 263.674 124.941 262.702 124.467 261.373L109.593 219.314C109.071 217.796 109.166 216.515 109.878 215.471C110.637 214.427 111.894 213.905 113.65 213.905C114.931 213.905 115.927 214.214 116.639 214.83C117.35 215.4 117.92 216.325 118.347 217.606L131.156 255.609H128.31L141.689 217.677C142.164 216.396 142.757 215.447 143.468 214.83C144.18 214.214 145.105 213.905 146.244 213.905C147.382 213.905 148.284 214.214 148.948 214.83C149.612 215.447 150.182 216.42 150.656 217.748L163.608 255.609H161.118L174.141 217.606C174.568 216.372 175.137 215.447 175.849 214.83C176.561 214.214 177.533 213.905 178.767 213.905C180.285 213.905 181.4 214.427 182.112 215.471C182.823 216.515 182.918 217.796 182.396 219.314L167.38 261.444C166.906 262.725 166.289 263.674 165.53 264.291C164.771 264.908 163.751 265.216 162.47 265.216C161.189 265.216 160.169 264.908 159.41 264.291C158.65 263.674 158.034 262.702 157.559 261.373L145.176 226.075H146.813L134.288 261.444C133.813 262.725 133.197 263.674 132.437 264.291C131.726 264.908 130.729 265.216 129.448 265.216ZM199.318 265.358C195.38 265.358 191.988 264.623 189.141 263.152C186.295 261.681 184.089 259.594 182.523 256.89C181.005 254.185 180.246 250.983 180.246 247.282C180.246 243.676 180.981 240.521 182.452 237.817C183.97 235.113 186.034 233.001 188.643 231.483C191.3 229.918 194.313 229.135 197.681 229.135C200.149 229.135 202.355 229.538 204.3 230.345C206.293 231.151 207.977 232.313 209.353 233.832C210.776 235.35 211.844 237.2 212.555 239.383C213.314 241.518 213.694 243.937 213.694 246.642C213.694 247.496 213.385 248.16 212.769 248.634C212.199 249.061 211.369 249.275 210.278 249.275H187.433V244.151H207.431L206.293 245.218C206.293 243.036 205.96 241.209 205.296 239.739C204.679 238.268 203.754 237.153 202.521 236.394C201.335 235.587 199.84 235.184 198.037 235.184C196.045 235.184 194.337 235.658 192.913 236.607C191.537 237.509 190.47 238.813 189.711 240.521C188.999 242.182 188.643 244.175 188.643 246.499V246.997C188.643 250.888 189.545 253.806 191.348 255.751C193.198 257.649 195.902 258.598 199.461 258.598C200.694 258.598 202.07 258.455 203.588 258.171C205.154 257.838 206.625 257.293 208.001 256.534C208.997 255.964 209.875 255.727 210.634 255.822C211.393 255.87 211.986 256.13 212.413 256.605C212.887 257.079 213.172 257.672 213.267 258.384C213.362 259.048 213.219 259.736 212.84 260.448C212.508 261.16 211.915 261.776 211.061 262.298C209.4 263.342 207.479 264.125 205.296 264.647C203.161 265.121 201.169 265.358 199.318 265.358ZM257.139 265.358C251.92 265.358 247.437 264.315 243.689 262.227C239.988 260.092 237.142 257.103 235.149 253.26C233.156 249.37 232.16 244.791 232.16 239.525C232.16 235.587 232.729 232.053 233.868 228.921C235.007 225.742 236.643 223.038 238.778 220.808C240.913 218.531 243.523 216.799 246.607 215.613C249.738 214.38 253.249 213.763 257.139 213.763C259.749 213.763 262.311 214.095 264.825 214.759C267.34 215.423 269.546 216.372 271.444 217.606C272.44 218.223 273.104 218.982 273.436 219.883C273.768 220.737 273.84 221.591 273.65 222.445C273.46 223.252 273.057 223.94 272.44 224.509C271.871 225.078 271.135 225.41 270.234 225.505C269.38 225.553 268.431 225.244 267.387 224.58C265.916 223.631 264.327 222.943 262.619 222.516C260.911 222.089 259.179 221.876 257.424 221.876C254.055 221.876 251.209 222.564 248.884 223.94C246.559 225.315 244.804 227.308 243.618 229.918C242.432 232.527 241.839 235.729 241.839 239.525C241.839 243.273 242.432 246.476 243.618 249.132C244.804 251.789 246.559 253.806 248.884 255.182C251.209 256.557 254.055 257.245 257.424 257.245C259.227 257.245 261.006 257.032 262.761 256.605C264.517 256.13 266.177 255.419 267.743 254.47C268.787 253.853 269.712 253.592 270.519 253.687C271.373 253.735 272.084 254.019 272.654 254.541C273.223 255.063 273.602 255.727 273.792 256.534C273.982 257.293 273.935 258.099 273.65 258.953C273.365 259.76 272.796 260.472 271.942 261.088C270.044 262.464 267.767 263.532 265.11 264.291C262.5 265.003 259.844 265.358 257.139 265.358ZM282.31 265.216C280.839 265.216 279.7 264.837 278.894 264.077C278.135 263.271 277.755 262.132 277.755 260.661V233.761C277.755 232.29 278.135 231.175 278.894 230.416C279.653 229.657 280.721 229.277 282.096 229.277C283.472 229.277 284.54 229.657 285.299 230.416C286.058 231.175 286.438 232.29 286.438 233.761V238.244H285.726C286.39 235.397 287.695 233.239 289.64 231.768C291.585 230.297 294.171 229.419 297.397 229.135C298.394 229.04 299.176 229.301 299.746 229.918C300.362 230.487 300.718 231.388 300.813 232.622C300.908 233.808 300.623 234.781 299.959 235.54C299.342 236.251 298.394 236.678 297.113 236.821L295.547 236.963C292.653 237.248 290.47 238.149 289 239.667C287.529 241.138 286.793 243.226 286.793 245.93V260.661C286.793 262.132 286.414 263.271 285.655 264.077C284.896 264.837 283.781 265.216 282.31 265.216ZM318.661 265.358C314.723 265.358 311.331 264.623 308.484 263.152C305.637 261.681 303.431 259.594 301.866 256.89C300.347 254.185 299.588 250.983 299.588 247.282C299.588 243.676 300.324 240.521 301.794 237.817C303.313 235.113 305.377 233.001 307.986 231.483C310.643 229.918 313.656 229.135 317.024 229.135C319.491 229.135 321.697 229.538 323.643 230.345C325.635 231.151 327.319 232.313 328.695 233.832C330.119 235.35 331.186 237.2 331.898 239.383C332.657 241.518 333.037 243.937 333.037 246.642C333.037 247.496 332.728 248.16 332.111 248.634C331.542 249.061 330.712 249.275 329.621 249.275H306.776V244.151H326.774L325.635 245.218C325.635 243.036 325.303 241.209 324.639 239.739C324.022 238.268 323.097 237.153 321.863 236.394C320.677 235.587 319.183 235.184 317.38 235.184C315.387 235.184 313.679 235.658 312.256 236.607C310.88 237.509 309.813 238.813 309.053 240.521C308.342 242.182 307.986 244.175 307.986 246.499V246.997C307.986 250.888 308.887 253.806 310.69 255.751C312.541 257.649 315.245 258.598 318.803 258.598C320.037 258.598 321.413 258.455 322.931 258.171C324.497 257.838 325.967 257.293 327.343 256.534C328.34 255.964 329.217 255.727 329.976 255.822C330.735 255.87 331.329 256.13 331.756 256.605C332.23 257.079 332.515 257.672 332.61 258.384C332.704 259.048 332.562 259.736 332.183 260.448C331.85 261.16 331.257 261.776 330.403 262.298C328.743 263.342 326.821 264.125 324.639 264.647C322.504 265.121 320.511 265.358 318.661 265.358ZM347.981 265.358C345.466 265.358 343.213 264.884 341.22 263.935C339.275 262.939 337.733 261.61 336.594 259.95C335.503 258.289 334.957 256.415 334.957 254.328C334.957 251.766 335.622 249.749 336.95 248.278C338.279 246.76 340.437 245.669 343.426 245.005C346.415 244.341 350.424 244.008 355.453 244.008H359.012V249.132H355.525C352.583 249.132 350.234 249.275 348.479 249.559C346.724 249.844 345.466 250.342 344.707 251.054C343.996 251.718 343.64 252.667 343.64 253.901C343.64 255.466 344.185 256.747 345.277 257.744C346.368 258.74 347.886 259.238 349.831 259.238C351.397 259.238 352.773 258.882 353.959 258.171C355.192 257.411 356.165 256.391 356.877 255.11C357.588 253.829 357.944 252.359 357.944 250.698V242.514C357.944 240.142 357.422 238.434 356.379 237.39C355.335 236.346 353.579 235.824 351.112 235.824C349.736 235.824 348.242 235.99 346.629 236.323C345.063 236.655 343.403 237.224 341.647 238.031C340.746 238.458 339.939 238.576 339.227 238.386C338.563 238.197 338.041 237.817 337.662 237.248C337.282 236.631 337.092 235.967 337.092 235.255C337.092 234.543 337.282 233.855 337.662 233.191C338.041 232.48 338.682 231.958 339.583 231.626C341.766 230.724 343.853 230.084 345.846 229.704C347.886 229.324 349.736 229.135 351.397 229.135C354.813 229.135 357.612 229.657 359.794 230.7C362.024 231.744 363.685 233.334 364.776 235.469C365.867 237.556 366.413 240.26 366.413 243.581V260.661C366.413 262.132 366.057 263.271 365.345 264.077C364.634 264.837 363.614 265.216 362.285 265.216C360.957 265.216 359.913 264.837 359.154 264.077C358.442 263.271 358.086 262.132 358.086 260.661V257.245H358.656C358.324 258.906 357.659 260.353 356.663 261.587C355.714 262.773 354.504 263.698 353.034 264.362C351.563 265.026 349.879 265.358 347.981 265.358ZM387.825 265.358C384.741 265.358 382.156 264.837 380.068 263.793C378.028 262.749 376.51 261.231 375.513 259.238C374.517 257.198 374.019 254.683 374.019 251.694V236.536H370.318C369.18 236.536 368.302 236.251 367.685 235.682C367.068 235.065 366.76 234.235 366.76 233.191C366.76 232.1 367.068 231.27 367.685 230.7C368.302 230.131 369.18 229.846 370.318 229.846H374.019V223.37C374.019 221.899 374.398 220.785 375.158 220.025C375.964 219.266 377.079 218.887 378.502 218.887C379.926 218.887 381.017 219.266 381.776 220.025C382.535 220.785 382.915 221.899 382.915 223.37V229.846H390.458C391.597 229.846 392.475 230.131 393.091 230.7C393.708 231.27 394.017 232.1 394.017 233.191C394.017 234.235 393.708 235.065 393.091 235.682C392.475 236.251 391.597 236.536 390.458 236.536H382.915V251.196C382.915 253.474 383.413 255.182 384.409 256.32C385.405 257.459 387.019 258.028 389.248 258.028C390.055 258.028 390.767 257.957 391.383 257.815C392 257.672 392.546 257.578 393.02 257.53C393.59 257.483 394.064 257.672 394.444 258.099C394.823 258.479 395.013 259.286 395.013 260.519C395.013 261.468 394.847 262.322 394.515 263.081C394.23 263.793 393.684 264.291 392.878 264.576C392.261 264.765 391.455 264.931 390.458 265.074C389.462 265.264 388.584 265.358 387.825 265.358ZM412.442 265.358C408.504 265.358 405.112 264.623 402.265 263.152C399.419 261.681 397.212 259.594 395.647 256.89C394.129 254.185 393.369 250.983 393.369 247.282C393.369 243.676 394.105 240.521 395.576 237.817C397.094 235.113 399.158 233.001 401.767 231.483C404.424 229.918 407.437 229.135 410.805 229.135C413.272 229.135 415.478 229.538 417.424 230.345C419.416 231.151 421.101 232.313 422.476 233.832C423.9 235.35 424.967 237.2 425.679 239.383C426.438 241.518 426.818 243.937 426.818 246.642C426.818 247.496 426.509 248.16 425.892 248.634C425.323 249.061 424.493 249.275 423.402 249.275H400.557V244.151H420.555L419.416 245.218C419.416 243.036 419.084 241.209 418.42 239.739C417.803 238.268 416.878 237.153 415.645 236.394C414.458 235.587 412.964 235.184 411.161 235.184C409.168 235.184 407.46 235.658 406.037 236.607C404.661 237.509 403.594 238.813 402.835 240.521C402.123 242.182 401.767 244.175 401.767 246.499V246.997C401.767 250.888 402.669 253.806 404.471 255.751C406.322 257.649 409.026 258.598 412.584 258.598C413.818 258.598 415.194 258.455 416.712 258.171C418.278 257.838 419.748 257.293 421.124 256.534C422.121 255.964 422.998 255.727 423.757 255.822C424.517 255.87 425.11 256.13 425.537 256.605C426.011 257.079 426.296 257.672 426.391 258.384C426.486 259.048 426.343 259.736 425.964 260.448C425.632 261.16 425.038 261.776 424.184 262.298C422.524 263.342 420.602 264.125 418.42 264.647C416.285 265.121 414.292 265.358 412.442 265.358ZM443.683 265.358C440.647 265.358 437.966 264.623 435.642 263.152C433.364 261.681 431.585 259.594 430.304 256.89C429.023 254.138 428.383 250.912 428.383 247.211C428.383 243.463 429.023 240.26 430.304 237.604C431.585 234.899 433.364 232.812 435.642 231.341C437.966 229.87 440.647 229.135 443.683 229.135C446.578 229.135 449.092 229.846 451.227 231.27C453.41 232.693 454.88 234.567 455.639 236.892H454.857V218.389C454.857 216.918 455.236 215.803 455.995 215.044C456.754 214.285 457.846 213.905 459.269 213.905C460.692 213.905 461.783 214.285 462.543 215.044C463.349 215.803 463.752 216.918 463.752 218.389V260.661C463.752 262.132 463.373 263.271 462.614 264.077C461.855 264.837 460.763 265.216 459.34 265.216C457.917 265.216 456.826 264.837 456.066 264.077C455.307 263.271 454.928 262.132 454.928 260.661V255.11L455.711 257.245C454.999 259.713 453.552 261.681 451.369 263.152C449.187 264.623 446.625 265.358 443.683 265.358ZM446.174 258.598C447.93 258.598 449.472 258.171 450.8 257.317C452.129 256.463 453.149 255.205 453.86 253.545C454.619 251.837 454.999 249.726 454.999 247.211C454.999 243.415 454.192 240.593 452.579 238.742C450.966 236.844 448.831 235.896 446.174 235.896C444.419 235.896 442.877 236.323 441.549 237.177C440.22 237.983 439.176 239.24 438.417 240.948C437.706 242.609 437.35 244.696 437.35 247.211C437.35 250.959 438.156 253.806 439.769 255.751C441.382 257.649 443.517 258.598 446.174 258.598ZM508.523 265.358C503.683 265.358 499.437 264.291 495.784 262.156C492.178 260.021 489.379 257.032 487.386 253.189C485.394 249.299 484.397 244.744 484.397 239.525C484.397 235.587 484.967 232.053 486.105 228.921C487.244 225.742 488.857 223.038 490.945 220.808C493.08 218.531 495.618 216.799 498.559 215.613C501.548 214.38 504.87 213.763 508.523 213.763C513.409 213.763 517.656 214.83 521.262 216.965C524.867 219.053 527.666 222.018 529.659 225.861C531.652 229.704 532.648 234.235 532.648 239.454C532.648 243.392 532.079 246.95 530.94 250.129C529.801 253.308 528.165 256.036 526.03 258.313C523.942 260.59 521.404 262.346 518.415 263.579C515.473 264.765 512.176 265.358 508.523 265.358ZM508.523 257.53C511.607 257.53 514.216 256.818 516.351 255.395C518.533 253.972 520.194 251.908 521.333 249.204C522.519 246.499 523.112 243.273 523.112 239.525C523.112 233.832 521.831 229.419 519.269 226.288C516.754 223.157 513.172 221.591 508.523 221.591C505.486 221.591 502.877 222.303 500.694 223.726C498.512 225.102 496.828 227.142 495.642 229.846C494.503 232.503 493.934 235.729 493.934 239.525C493.934 245.171 495.215 249.583 497.777 252.762C500.339 255.941 503.921 257.53 508.523 257.53ZM541.911 265.216C540.488 265.216 539.396 264.837 538.637 264.077C537.878 263.271 537.499 262.132 537.499 260.661V233.761C537.499 232.29 537.878 231.175 538.637 230.416C539.396 229.657 540.464 229.277 541.84 229.277C543.216 229.277 544.283 229.657 545.042 230.416C545.801 231.175 546.181 232.29 546.181 233.761V238.6L545.398 236.821C546.442 234.306 548.055 232.408 550.237 231.127C552.467 229.799 554.982 229.135 557.781 229.135C560.58 229.135 562.881 229.657 564.684 230.7C566.487 231.744 567.839 233.334 568.741 235.469C569.642 237.556 570.093 240.213 570.093 243.439V260.661C570.093 262.132 569.713 263.271 568.954 264.077C568.195 264.837 567.104 265.216 565.68 265.216C564.257 265.216 563.142 264.837 562.336 264.077C561.577 263.271 561.197 262.132 561.197 260.661V243.866C561.197 241.162 560.675 239.193 559.631 237.959C558.635 236.726 557.069 236.109 554.934 236.109C552.325 236.109 550.237 236.939 548.672 238.6C547.153 240.213 546.394 242.372 546.394 245.076V260.661C546.394 263.698 544.9 265.216 541.911 265.216ZM592.721 265.358C588.783 265.358 585.391 264.623 582.544 263.152C579.697 261.681 577.491 259.594 575.926 256.89C574.407 254.185 573.648 250.983 573.648 247.282C573.648 243.676 574.384 240.521 575.854 237.817C577.373 235.113 579.436 233.001 582.046 231.483C584.703 229.918 587.716 229.135 591.084 229.135C593.551 229.135 595.757 229.538 597.703 230.345C599.695 231.151 601.379 232.313 602.755 233.832C604.179 235.35 605.246 237.2 605.958 239.383C606.717 241.518 607.096 243.937 607.096 246.642C607.096 247.496 606.788 248.16 606.171 248.634C605.602 249.061 604.772 249.275 603.68 249.275H580.836V244.151H600.834L599.695 245.218C599.695 243.036 599.363 241.209 598.699 239.739C598.082 238.268 597.157 237.153 595.923 236.394C594.737 235.587 593.243 235.184 591.44 235.184C589.447 235.184 587.739 235.658 586.316 236.607C584.94 237.509 583.873 238.813 583.113 240.521C582.402 242.182 582.046 244.175 582.046 246.499V246.997C582.046 250.888 582.947 253.806 584.75 255.751C586.601 257.649 589.305 258.598 592.863 258.598C594.097 258.598 595.473 258.455 596.991 258.171C598.557 257.838 600.027 257.293 601.403 256.534C602.399 255.964 603.277 255.727 604.036 255.822C604.795 255.87 605.388 256.13 605.815 256.605C606.29 257.079 606.575 257.672 606.669 258.384C606.764 259.048 606.622 259.736 606.242 260.448C605.91 261.16 605.317 261.776 604.463 262.298C602.803 263.342 600.881 264.125 598.699 264.647C596.564 265.121 594.571 265.358 592.721 265.358ZM614.853 265.003C613.24 265.003 611.935 264.504 610.939 263.508C609.99 262.512 609.516 261.231 609.516 259.665C609.516 258.147 609.99 256.913 610.939 255.964C611.935 254.968 613.24 254.47 614.853 254.47C616.514 254.47 617.795 254.968 618.696 255.964C619.645 256.913 620.119 258.147 620.119 259.665C620.119 261.231 619.645 262.512 618.696 263.508C617.795 264.504 616.514 265.003 614.853 265.003Z" fill="#3B3A3A"/>
</svg>
