<svg width="704" height="136" viewBox="0 0 704 136" fill="none" xmlns="http://www.w3.org/2000/svg">
<path d="M20.8174 51.9914C19.5364 51.9914 18.4927 51.6831 17.6861 51.0663C16.927 50.4495 16.3102 49.4769 15.8358 48.1485L0.962007 6.08915C0.44012 4.57094 0.535009 3.28994 1.24667 2.24617C2.00578 1.20239 3.26305 0.680506 5.01849 0.680506C6.29948 0.680506 7.29581 0.988894 8.00748 1.60567C8.71914 2.175 9.28847 3.10017 9.71547 4.38116L22.5254 42.384H19.6788L33.058 4.45233C33.5325 3.17133 34.1255 2.22245 34.8372 1.60567C35.5489 0.988894 36.474 0.680506 37.6127 0.680506C38.7513 0.680506 39.6528 0.988894 40.317 1.60567C40.9812 2.22245 41.5506 3.19505 42.025 4.52349L54.9773 42.384H52.4864L65.5099 4.38116C65.9369 3.14761 66.5062 2.22245 67.2179 1.60567C67.9295 0.988894 68.9022 0.680506 70.1357 0.680506C71.6539 0.680506 72.7689 1.20239 73.4805 2.24617C74.1922 3.28994 74.2871 4.57094 73.7652 6.08915L58.7491 48.2196C58.2746 49.5006 57.6579 50.4495 56.8988 51.0663C56.1397 51.6831 55.1196 51.9914 53.8386 51.9914C52.5576 51.9914 51.5376 51.6831 50.7785 51.0663C50.0193 50.4495 49.4026 49.4769 48.9281 48.1485L36.5452 12.85H38.182L25.6567 48.2196C25.1823 49.5006 24.5655 50.4495 23.8064 51.0663C23.0947 51.6831 22.0984 51.9914 20.8174 51.9914ZM90.1179 52.1338C86.5121 52.1338 83.3808 51.3984 80.7239 49.9276C78.067 48.4569 76.0032 46.3693 74.5324 43.665C73.0617 40.9132 72.3263 37.687 72.3263 33.9864C72.3263 31.1872 72.7296 28.6963 73.5361 26.5139C74.3901 24.284 75.5999 22.3862 77.1656 20.8206C78.7313 19.2075 80.6053 17.9977 82.7877 17.1911C84.9702 16.3371 87.4136 15.9101 90.1179 15.9101C93.7236 15.9101 96.855 16.6455 99.5118 18.1163C102.169 19.587 104.233 21.6746 105.703 24.3789C107.174 27.0832 107.909 30.2857 107.909 33.9864C107.909 36.7856 107.482 39.3001 106.628 41.53C105.822 43.7599 104.636 45.6814 103.07 47.2945C101.504 48.8601 99.6304 50.07 97.448 50.924C95.2656 51.7305 92.8222 52.1338 90.1179 52.1338ZM90.1179 45.373C91.8733 45.373 93.4152 44.946 94.7437 44.092C96.0721 43.238 97.0922 41.9807 97.8038 40.3202C98.5629 38.6122 98.9425 36.5009 98.9425 33.9864C98.9425 30.1908 98.136 27.3679 96.5228 25.5176C94.9097 23.6198 92.7748 22.6709 90.1179 22.6709C88.3624 22.6709 86.8205 23.0979 85.4921 23.9519C84.1636 24.7585 83.1198 26.0157 82.3607 27.7237C81.6491 29.3843 81.2932 31.4718 81.2932 33.9864C81.2932 37.7345 82.0998 40.5811 83.7129 42.5263C85.326 44.4241 87.461 45.373 90.1179 45.373ZM128.275 52.1338C124.67 52.1338 121.538 51.3984 118.881 49.9276C116.224 48.4569 114.161 46.3693 112.69 43.665C111.219 40.9132 110.484 37.687 110.484 33.9864C110.484 31.1872 110.887 28.6963 111.694 26.5139C112.548 24.284 113.757 22.3862 115.323 20.8206C116.889 19.2075 118.763 17.9977 120.945 17.1911C123.128 16.3371 125.571 15.9101 128.275 15.9101C131.881 15.9101 135.012 16.6455 137.669 18.1163C140.326 19.587 142.39 21.6746 143.861 24.3789C145.331 27.0832 146.067 30.2857 146.067 33.9864C146.067 36.7856 145.64 39.3001 144.786 41.53C143.979 43.7599 142.793 45.6814 141.228 47.2945C139.662 48.8601 137.788 50.07 135.605 50.924C133.423 51.7305 130.98 52.1338 128.275 52.1338ZM128.275 45.373C130.031 45.373 131.573 44.946 132.901 44.092C134.23 43.238 135.25 41.9807 135.961 40.3202C136.72 38.6122 137.1 36.5009 137.1 33.9864C137.1 30.1908 136.293 27.3679 134.68 25.5176C133.067 23.6198 130.932 22.6709 128.275 22.6709C126.52 22.6709 124.978 23.0979 123.649 23.9519C122.321 24.7585 121.277 26.0157 120.518 27.7237C119.806 29.3843 119.451 31.4718 119.451 33.9864C119.451 37.7345 120.257 40.5811 121.87 42.5263C123.483 44.4241 125.618 45.373 128.275 45.373ZM162.447 52.1338C158.509 52.1338 155.544 51.0188 153.552 48.789C151.559 46.5116 150.563 43.1905 150.563 38.8257V5.16399C150.563 3.69322 150.942 2.57828 151.701 1.81917C152.46 1.06006 153.552 0.680506 154.975 0.680506C156.398 0.680506 157.489 1.06006 158.249 1.81917C159.055 2.57828 159.458 3.69322 159.458 5.16399V38.3987C159.458 40.5811 159.909 42.1942 160.811 43.238C161.759 44.2818 163.088 44.8036 164.796 44.8036C165.175 44.8036 165.531 44.8036 165.863 44.8036C166.195 44.7562 166.528 44.7088 166.86 44.6613C167.524 44.5664 167.975 44.7562 168.212 45.2306C168.449 45.6576 168.568 46.5591 168.568 47.935C168.568 49.1211 168.33 50.0462 167.856 50.7105C167.382 51.3747 166.599 51.778 165.508 51.9203C165.033 51.9677 164.535 52.0152 164.013 52.0626C163.491 52.1101 162.969 52.1338 162.447 52.1338ZM171.794 51.9914C170.655 51.9914 169.73 51.7305 169.019 51.2086C168.354 50.6867 167.951 49.9988 167.809 49.1448C167.666 48.2434 167.832 47.247 168.307 46.1558L187.095 4.52349C187.712 3.14761 188.447 2.175 189.301 1.60567C190.202 0.988894 191.222 0.680506 192.361 0.680506C193.452 0.680506 194.425 0.988894 195.279 1.60567C196.18 2.175 196.94 3.14761 197.556 4.52349L216.415 46.1558C216.937 47.247 217.127 48.2434 216.985 49.1448C216.842 50.0462 216.439 50.7579 215.775 51.2798C215.111 51.7542 214.233 51.9914 213.142 51.9914C211.813 51.9914 210.77 51.6831 210.01 51.0663C209.299 50.4021 208.658 49.4057 208.089 48.0773L203.463 37.3312L207.306 39.822H177.274L181.117 37.3312L176.562 48.0773C175.945 49.4532 175.305 50.4495 174.641 51.0663C173.976 51.6831 173.028 51.9914 171.794 51.9914ZM192.219 11.142L182.256 34.8404L180.405 32.563H204.175L202.396 34.8404L192.361 11.142H192.219ZM224.965 51.9203C223.542 51.9203 222.451 51.4933 221.692 50.6393C220.933 49.7853 220.553 48.5992 220.553 47.081V20.9629C220.553 19.3973 220.933 18.2112 221.692 17.4046C222.451 16.5506 223.542 16.1236 224.965 16.1236C226.389 16.1236 227.48 16.5506 228.239 17.4046C229.046 18.2112 229.449 19.3973 229.449 20.9629V47.081C229.449 48.5992 229.069 49.7853 228.31 50.6393C227.551 51.4933 226.436 51.9203 224.965 51.9203ZM224.965 9.50513C223.305 9.50513 222 9.10186 221.051 8.29531C220.15 7.44131 219.699 6.27893 219.699 4.80816C219.699 3.28994 220.15 2.12756 221.051 1.321C222 0.514454 223.305 0.111179 224.965 0.111179C226.673 0.111179 227.978 0.514454 228.879 1.321C229.781 2.12756 230.232 3.28994 230.232 4.80816C230.232 6.27893 229.781 7.44131 228.879 8.29531C227.978 9.10186 226.673 9.50513 224.965 9.50513ZM249.225 52.1338C246.188 52.1338 243.508 51.3984 241.183 49.9276C238.906 48.4569 237.126 46.3693 235.845 43.665C234.564 40.9132 233.924 37.687 233.924 33.9864C233.924 30.2383 234.564 27.0358 235.845 24.3789C237.126 21.6746 238.906 19.587 241.183 18.1163C243.508 16.6455 246.188 15.9101 249.225 15.9101C252.119 15.9101 254.633 16.6218 256.768 18.0451C258.951 19.4684 260.422 21.3425 261.181 23.6672H260.398V5.16399C260.398 3.69322 260.777 2.57828 261.536 1.81917C262.296 1.06006 263.387 0.680506 264.81 0.680506C266.233 0.680506 267.325 1.06006 268.084 1.81917C268.89 2.57828 269.294 3.69322 269.294 5.16399V47.4368C269.294 48.9076 268.914 50.0462 268.155 50.8528C267.396 51.6119 266.305 51.9914 264.881 51.9914C263.458 51.9914 262.367 51.6119 261.608 50.8528C260.849 50.0462 260.469 48.9076 260.469 47.4368V41.8858L261.252 44.0208C260.54 46.4879 259.093 48.4569 256.911 49.9276C254.728 51.3984 252.166 52.1338 249.225 52.1338ZM251.716 45.373C253.471 45.373 255.013 44.946 256.341 44.092C257.67 43.238 258.69 41.9807 259.401 40.3202C260.161 38.6122 260.54 36.5009 260.54 33.9864C260.54 30.1908 259.734 27.3679 258.121 25.5176C256.507 23.6198 254.372 22.6709 251.716 22.6709C249.96 22.6709 248.418 23.0979 247.09 23.9519C245.761 24.7585 244.718 26.0157 243.958 27.7237C243.247 29.3843 242.891 31.4718 242.891 33.9864C242.891 37.7345 243.697 40.5811 245.311 42.5263C246.924 44.4241 249.059 45.373 251.716 45.373ZM296.557 51.9203C295.134 51.9203 294.042 51.4933 293.283 50.6393C292.524 49.7853 292.145 48.5992 292.145 47.081V20.9629C292.145 19.3973 292.524 18.2112 293.283 17.4046C294.042 16.5506 295.134 16.1236 296.557 16.1236C297.98 16.1236 299.072 16.5506 299.831 17.4046C300.637 18.2112 301.04 19.3973 301.04 20.9629V47.081C301.04 48.5992 300.661 49.7853 299.902 50.6393C299.143 51.4933 298.028 51.9203 296.557 51.9203ZM296.557 9.50513C294.896 9.50513 293.592 9.10186 292.643 8.29531C291.741 7.44131 291.291 6.27893 291.291 4.80816C291.291 3.28994 291.741 2.12756 292.643 1.321C293.592 0.514454 294.896 0.111179 296.557 0.111179C298.265 0.111179 299.57 0.514454 300.471 1.321C301.373 2.12756 301.823 3.28994 301.823 4.80816C301.823 6.27893 301.373 7.44131 300.471 8.29531C299.57 9.10186 298.265 9.50513 296.557 9.50513ZM320.176 52.1338C318.136 52.1338 315.977 51.9203 313.7 51.4933C311.422 51.0663 309.382 50.3309 307.579 49.2871C306.82 48.8127 306.275 48.2671 305.943 47.6503C305.658 46.9861 305.539 46.3456 305.587 45.7288C305.682 45.0646 305.919 44.4953 306.298 44.0208C306.725 43.5464 307.247 43.238 307.864 43.0957C308.528 42.9533 309.24 43.0719 309.999 43.4515C311.897 44.3529 313.676 44.9934 315.337 45.373C316.997 45.7051 318.634 45.8711 320.247 45.8711C322.524 45.8711 324.209 45.4916 325.3 44.7325C326.439 43.9259 327.008 42.8822 327.008 41.6012C327.008 40.5099 326.628 39.6797 325.869 39.1103C325.158 38.4936 324.066 38.0428 322.596 37.7582L315.479 36.406C312.537 35.8367 310.284 34.7692 308.718 33.2035C307.2 31.5904 306.441 29.5266 306.441 27.0121C306.441 24.7347 307.058 22.7658 308.291 21.1053C309.572 19.4447 311.328 18.1637 313.557 17.2623C315.787 16.3608 318.349 15.9101 321.243 15.9101C323.331 15.9101 325.276 16.1473 327.079 16.6218C328.929 17.0488 330.709 17.7367 332.417 18.6856C333.128 19.0652 333.603 19.5633 333.84 20.1801C334.125 20.7969 334.196 21.4374 334.053 22.1016C333.911 22.7184 333.626 23.2877 333.199 23.8096C332.772 24.284 332.227 24.5924 331.563 24.7347C330.946 24.8296 330.234 24.6873 329.428 24.3077C327.957 23.5486 326.533 23.003 325.158 22.6709C323.829 22.3388 322.548 22.1727 321.315 22.1727C318.99 22.1727 317.258 22.576 316.119 23.3826C315.028 24.1891 314.483 25.2566 314.483 26.5851C314.483 27.5814 314.815 28.4117 315.479 29.0759C316.143 29.7401 317.163 30.1908 318.539 30.428L325.656 31.7802C328.74 32.3495 331.064 33.3933 332.63 34.9115C334.243 36.4297 335.05 38.4698 335.05 41.0318C335.05 44.4953 333.698 47.2233 330.993 49.216C328.289 51.1612 324.683 52.1338 320.176 52.1338ZM367.271 52.1338C364.757 52.1338 362.503 51.6593 360.511 50.7105C358.565 49.7141 357.023 48.3857 355.885 46.7251C354.794 45.0646 354.248 43.1905 354.248 41.103C354.248 38.541 354.912 36.5246 356.241 35.0539C357.569 33.5356 359.728 32.4444 362.717 31.7802C365.706 31.116 369.715 30.7839 374.744 30.7839H378.302V35.9079H374.815C371.873 35.9079 369.525 36.0502 367.77 36.3349C366.014 36.6195 364.757 37.1177 363.998 37.8293C363.286 38.4936 362.93 39.4424 362.93 40.676C362.93 42.2417 363.476 43.5227 364.567 44.519C365.658 45.5153 367.176 46.0135 369.122 46.0135C370.687 46.0135 372.063 45.6576 373.249 44.946C374.483 44.1869 375.455 43.1668 376.167 41.8858C376.879 40.6048 377.235 39.1341 377.235 37.4735V29.2894C377.235 26.9172 376.713 25.2092 375.669 24.1654C374.625 23.1216 372.87 22.5997 370.403 22.5997C369.027 22.5997 367.532 22.7658 365.919 23.0979C364.354 23.43 362.693 23.9993 360.938 24.8059C360.036 25.2329 359.23 25.3515 358.518 25.1617C357.854 24.972 357.332 24.5924 356.952 24.0231C356.573 23.4063 356.383 22.7421 356.383 22.0304C356.383 21.3188 356.573 20.6308 356.952 19.9666C357.332 19.2549 357.972 18.733 358.874 18.4009C361.056 17.4995 363.144 16.859 365.136 16.4794C367.176 16.0999 369.027 15.9101 370.687 15.9101C374.103 15.9101 376.903 16.432 379.085 17.4758C381.315 18.5195 382.975 20.1089 384.067 22.2439C385.158 24.3315 385.703 27.0358 385.703 30.3569V47.4368C385.703 48.9076 385.348 50.0462 384.636 50.8528C383.924 51.6119 382.904 51.9914 381.576 51.9914C380.247 51.9914 379.204 51.6119 378.444 50.8528C377.733 50.0462 377.377 48.9076 377.377 47.4368V44.0208H377.946C377.614 45.6814 376.95 47.1284 375.954 48.362C375.005 49.5481 373.795 50.4732 372.324 51.1375C370.853 51.8017 369.169 52.1338 367.271 52.1338ZM405.629 51.9914C404.443 51.9914 403.4 51.6831 402.498 51.0663C401.644 50.4495 400.932 49.5006 400.363 48.2196L389.048 21.9592C388.621 20.9155 388.455 19.9429 388.55 19.0414C388.692 18.14 389.119 17.4283 389.831 16.9064C390.59 16.3371 391.61 16.0524 392.891 16.0524C393.982 16.0524 394.86 16.3134 395.524 16.8353C396.188 17.3097 396.781 18.2349 397.303 19.6108L406.91 43.5938H404.775L414.668 19.5396C415.189 18.2112 415.783 17.3097 416.447 16.8353C417.158 16.3134 418.107 16.0524 419.293 16.0524C420.337 16.0524 421.167 16.3371 421.784 16.9064C422.401 17.4283 422.781 18.14 422.923 19.0414C423.065 19.8954 422.899 20.8443 422.425 21.8881L410.896 48.2196C410.374 49.5006 409.662 50.4495 408.761 51.0663C407.907 51.6831 406.863 51.9914 405.629 51.9914ZM436.984 52.1338C434.469 52.1338 432.216 51.6593 430.223 50.7105C428.278 49.7141 426.736 48.3857 425.597 46.7251C424.506 45.0646 423.96 43.1905 423.96 41.103C423.96 38.541 424.625 36.5246 425.953 35.0539C427.281 33.5356 429.44 32.4444 432.429 31.7802C435.418 31.116 439.427 30.7839 444.456 30.7839H448.015V35.9079H444.527C441.586 35.9079 439.237 36.0502 437.482 36.3349C435.727 36.6195 434.469 37.1177 433.71 37.8293C432.998 38.4936 432.643 39.4424 432.643 40.676C432.643 42.2417 433.188 43.5227 434.279 44.519C435.371 45.5153 436.889 46.0135 438.834 46.0135C440.4 46.0135 441.776 45.6576 442.962 44.946C444.195 44.1869 445.168 43.1668 445.88 41.8858C446.591 40.6048 446.947 39.1341 446.947 37.4735V29.2894C446.947 26.9172 446.425 25.2092 445.381 24.1654C444.338 23.1216 442.582 22.5997 440.115 22.5997C438.739 22.5997 437.245 22.7658 435.632 23.0979C434.066 23.43 432.405 23.9993 430.65 24.8059C429.749 25.2329 428.942 25.3515 428.23 25.1617C427.566 24.972 427.044 24.5924 426.665 24.0231C426.285 23.4063 426.095 22.7421 426.095 22.0304C426.095 21.3188 426.285 20.6308 426.665 19.9666C427.044 19.2549 427.685 18.733 428.586 18.4009C430.769 17.4995 432.856 16.859 434.849 16.4794C436.889 16.0999 438.739 15.9101 440.4 15.9101C443.816 15.9101 446.615 16.432 448.797 17.4758C451.027 18.5195 452.688 20.1089 453.779 22.2439C454.87 24.3315 455.416 27.0358 455.416 30.3569V47.4368C455.416 48.9076 455.06 50.0462 454.348 50.8528C453.637 51.6119 452.617 51.9914 451.288 51.9914C449.96 51.9914 448.916 51.6119 448.157 50.8528C447.445 50.0462 447.089 48.9076 447.089 47.4368V44.0208H447.659C447.327 45.6814 446.662 47.1284 445.666 48.362C444.717 49.5481 443.507 50.4732 442.037 51.1375C440.566 51.8017 438.882 52.1338 436.984 52.1338ZM466.011 51.9203C464.587 51.9203 463.496 51.4933 462.737 50.6393C461.978 49.7853 461.598 48.5992 461.598 47.081V20.9629C461.598 19.3973 461.978 18.2112 462.737 17.4046C463.496 16.5506 464.587 16.1236 466.011 16.1236C467.434 16.1236 468.525 16.5506 469.284 17.4046C470.091 18.2112 470.494 19.3973 470.494 20.9629V47.081C470.494 48.5992 470.115 49.7853 469.356 50.6393C468.596 51.4933 467.482 51.9203 466.011 51.9203ZM466.011 9.50513C464.35 9.50513 463.045 9.10186 462.097 8.29531C461.195 7.44131 460.744 6.27893 460.744 4.80816C460.744 3.28994 461.195 2.12756 462.097 1.321C463.045 0.514454 464.35 0.111179 466.011 0.111179C467.719 0.111179 469.023 0.514454 469.925 1.321C470.826 2.12756 471.277 3.28994 471.277 4.80816C471.277 6.27893 470.826 7.44131 469.925 8.29531C469.023 9.10186 467.719 9.50513 466.011 9.50513ZM488.776 52.1338C484.838 52.1338 481.873 51.0188 479.88 48.789C477.887 46.5116 476.891 43.1905 476.891 38.8257V5.16399C476.891 3.69322 477.27 2.57828 478.03 1.81917C478.789 1.06006 479.88 0.680506 481.303 0.680506C482.727 0.680506 483.818 1.06006 484.577 1.81917C485.383 2.57828 485.787 3.69322 485.787 5.16399V38.3987C485.787 40.5811 486.237 42.1942 487.139 43.238C488.088 44.2818 489.416 44.8036 491.124 44.8036C491.504 44.8036 491.86 44.8036 492.192 44.8036C492.524 44.7562 492.856 44.7088 493.188 44.6613C493.852 44.5664 494.303 44.7562 494.54 45.2306C494.777 45.6576 494.896 46.5591 494.896 47.935C494.896 49.1211 494.659 50.0462 494.184 50.7105C493.71 51.3747 492.927 51.778 491.836 51.9203C491.361 51.9677 490.863 52.0152 490.341 52.0626C489.819 52.1101 489.298 52.1338 488.776 52.1338ZM508.228 52.1338C505.713 52.1338 503.46 51.6593 501.467 50.7105C499.522 49.7141 497.98 48.3857 496.841 46.7251C495.75 45.0646 495.205 43.1905 495.205 41.103C495.205 38.541 495.869 36.5246 497.197 35.0539C498.526 33.5356 500.684 32.4444 503.673 31.7802C506.662 31.116 510.671 30.7839 515.7 30.7839H519.259V35.9079H515.772C512.83 35.9079 510.482 36.0502 508.726 36.3349C506.971 36.6195 505.713 37.1177 504.954 37.8293C504.243 38.4936 503.887 39.4424 503.887 40.676C503.887 42.2417 504.432 43.5227 505.524 44.519C506.615 45.5153 508.133 46.0135 510.078 46.0135C511.644 46.0135 513.02 45.6576 514.206 44.946C515.44 44.1869 516.412 43.1668 517.124 41.8858C517.835 40.6048 518.191 39.1341 518.191 37.4735V29.2894C518.191 26.9172 517.669 25.2092 516.626 24.1654C515.582 23.1216 513.826 22.5997 511.359 22.5997C509.983 22.5997 508.489 22.7658 506.876 23.0979C505.31 23.43 503.65 23.9993 501.894 24.8059C500.993 25.2329 500.186 25.3515 499.475 25.1617C498.81 24.972 498.288 24.5924 497.909 24.0231C497.529 23.4063 497.34 22.7421 497.34 22.0304C497.34 21.3188 497.529 20.6308 497.909 19.9666C498.288 19.2549 498.929 18.733 499.83 18.4009C502.013 17.4995 504.1 16.859 506.093 16.4794C508.133 16.0999 509.983 15.9101 511.644 15.9101C515.06 15.9101 517.859 16.432 520.042 17.4758C522.271 18.5195 523.932 20.1089 525.023 22.2439C526.114 24.3315 526.66 27.0358 526.66 30.3569V47.4368C526.66 48.9076 526.304 50.0462 525.593 50.8528C524.881 51.6119 523.861 51.9914 522.532 51.9914C521.204 51.9914 520.16 51.6119 519.401 50.8528C518.689 50.0462 518.334 48.9076 518.334 47.4368V44.0208H518.903C518.571 45.6814 517.907 47.1284 516.91 48.362C515.961 49.5481 514.752 50.4732 513.281 51.1375C511.81 51.8017 510.126 52.1338 508.228 52.1338ZM552.912 52.1338C549.97 52.1338 547.384 51.3984 545.154 49.9276C542.972 48.4569 541.525 46.4879 540.813 44.0208L541.596 42.2417V47.4368C541.596 48.9076 541.217 50.0462 540.457 50.8528C539.698 51.6119 538.631 51.9914 537.255 51.9914C535.832 51.9914 534.74 51.6119 533.981 50.8528C533.222 50.0462 532.843 48.9076 532.843 47.4368V5.16399C532.843 3.69322 533.222 2.57828 533.981 1.81917C534.74 1.06006 535.832 0.680506 537.255 0.680506C538.678 0.680506 539.769 1.06006 540.529 1.81917C541.335 2.57828 541.738 3.69322 541.738 5.16399V23.6672H540.884C541.644 21.3425 543.114 19.4684 545.297 18.0451C547.479 16.6218 550.017 15.9101 552.912 15.9101C555.995 15.9101 558.676 16.6455 560.953 18.1163C563.231 19.587 565.01 21.6746 566.291 24.3789C567.572 27.0358 568.212 30.2383 568.212 33.9864C568.212 37.687 567.572 40.9132 566.291 43.665C565.01 46.3693 563.207 48.4569 560.882 49.9276C558.605 51.3984 555.948 52.1338 552.912 52.1338ZM550.421 45.373C552.176 45.373 553.718 44.946 555.047 44.092C556.375 43.238 557.395 41.9807 558.107 40.3202C558.866 38.6122 559.245 36.5009 559.245 33.9864C559.245 30.1908 558.439 27.3679 556.826 25.5176C555.213 23.6198 553.078 22.6709 550.421 22.6709C548.665 22.6709 547.123 23.0979 545.795 23.9519C544.466 24.7585 543.423 26.0157 542.664 27.7237C541.952 29.3843 541.596 31.4718 541.596 33.9864C541.596 37.7345 542.403 40.5811 544.016 42.5263C545.629 44.4241 547.764 45.373 550.421 45.373ZM584.553 52.1338C580.615 52.1338 577.65 51.0188 575.657 48.789C573.664 46.5116 572.668 43.1905 572.668 38.8257V5.16399C572.668 3.69322 573.048 2.57828 573.807 1.81917C574.566 1.06006 575.657 0.680506 577.08 0.680506C578.504 0.680506 579.595 1.06006 580.354 1.81917C581.161 2.57828 581.564 3.69322 581.564 5.16399V38.3987C581.564 40.5811 582.015 42.1942 582.916 43.238C583.865 44.2818 585.193 44.8036 586.901 44.8036C587.281 44.8036 587.637 44.8036 587.969 44.8036C588.301 44.7562 588.633 44.7088 588.965 44.6613C589.629 44.5664 590.08 44.7562 590.317 45.2306C590.554 45.6576 590.673 46.5591 590.673 47.935C590.673 49.1211 590.436 50.0462 589.961 50.7105C589.487 51.3747 588.704 51.778 587.613 51.9203C587.138 51.9677 586.64 52.0152 586.118 52.0626C585.597 52.1101 585.075 52.1338 584.553 52.1338ZM609.351 52.1338C605.413 52.1338 602.021 51.3984 599.174 49.9276C596.327 48.4569 594.121 46.3693 592.556 43.665C591.037 40.9607 590.278 37.7582 590.278 34.0575C590.278 30.4518 591.014 27.2967 592.485 24.5924C594.003 21.8881 596.067 19.7768 598.676 18.2586C601.333 16.6929 604.346 15.9101 607.714 15.9101C610.181 15.9101 612.387 16.3134 614.333 17.1199C616.325 17.9265 618.01 19.0889 619.385 20.6071C620.809 22.1253 621.876 23.9756 622.588 26.1581C623.347 28.2931 623.727 30.7127 623.727 33.417C623.727 34.271 623.418 34.9352 622.801 35.4097C622.232 35.8367 621.402 36.0502 620.311 36.0502H597.466V30.9262H617.464L616.325 31.9937C616.325 29.8113 615.993 27.9847 615.329 26.5139C614.712 25.0431 613.787 23.9282 612.553 23.1691C611.367 22.3625 609.873 21.9592 608.07 21.9592C606.077 21.9592 604.369 22.4337 602.946 23.3826C601.57 24.284 600.503 25.5887 599.743 27.2967C599.032 28.9573 598.676 30.9499 598.676 33.2747V33.7729C598.676 37.6633 599.577 40.5811 601.38 42.5263C603.231 44.4241 605.935 45.373 609.493 45.373C610.727 45.373 612.103 45.2306 613.621 44.946C615.187 44.6139 616.657 44.0683 618.033 43.3092C619.03 42.7398 619.907 42.5026 620.666 42.5975C621.425 42.6449 622.019 42.9059 622.446 43.3803C622.92 43.8548 623.205 44.4478 623.3 45.1595C623.394 45.8237 623.252 46.5116 622.873 47.2233C622.54 47.935 621.947 48.5517 621.093 49.0736C619.433 50.1174 617.511 50.9002 615.329 51.4221C613.194 51.8966 611.201 52.1338 609.351 52.1338ZM655.856 52.1338C653.342 52.1338 651.088 51.6593 649.096 50.7105C647.15 49.7141 645.609 48.3857 644.47 46.7251C643.379 45.0646 642.833 43.1905 642.833 41.103C642.833 38.541 643.497 36.5246 644.826 35.0539C646.154 33.5356 648.313 32.4444 651.302 31.7802C654.291 31.116 658.3 30.7839 663.329 30.7839H666.887V35.9079H663.4C660.459 35.9079 658.11 36.0502 656.355 36.3349C654.599 36.6195 653.342 37.1177 652.583 37.8293C651.871 38.4936 651.515 39.4424 651.515 40.676C651.515 42.2417 652.061 43.5227 653.152 44.519C654.243 45.5153 655.762 46.0135 657.707 46.0135C659.272 46.0135 660.648 45.6576 661.834 44.946C663.068 44.1869 664.041 43.1668 664.752 41.8858C665.464 40.6048 665.82 39.1341 665.82 37.4735V29.2894C665.82 26.9172 665.298 25.2092 664.254 24.1654C663.21 23.1216 661.455 22.5997 658.988 22.5997C657.612 22.5997 656.117 22.7658 654.504 23.0979C652.939 23.43 651.278 23.9993 649.523 24.8059C648.621 25.2329 647.815 25.3515 647.103 25.1617C646.439 24.972 645.917 24.5924 645.537 24.0231C645.158 23.4063 644.968 22.7421 644.968 22.0304C644.968 21.3188 645.158 20.6308 645.537 19.9666C645.917 19.2549 646.557 18.733 647.459 18.4009C649.641 17.4995 651.729 16.859 653.721 16.4794C655.762 16.0999 657.612 15.9101 659.272 15.9101C662.688 15.9101 665.488 16.432 667.67 17.4758C669.9 18.5195 671.561 20.1089 672.652 22.2439C673.743 24.3315 674.289 27.0358 674.289 30.3569V47.4368C674.289 48.9076 673.933 50.0462 673.221 50.8528C672.509 51.6119 671.489 51.9914 670.161 51.9914C668.832 51.9914 667.789 51.6119 667.03 50.8528C666.318 50.0462 665.962 48.9076 665.962 47.4368V44.0208H666.531C666.199 45.6814 665.535 47.1284 664.539 48.362C663.59 49.5481 662.38 50.4732 660.909 51.1375C659.439 51.8017 657.754 52.1338 655.856 52.1338ZM696.412 52.1338C693.329 52.1338 690.743 51.6119 688.655 50.5681C686.615 49.5243 685.097 48.0061 684.101 46.0135C683.104 43.9734 682.606 41.4588 682.606 38.4698V23.3114H678.905C677.767 23.3114 676.889 23.0267 676.272 22.4574C675.656 21.8406 675.347 21.0104 675.347 19.9666C675.347 18.8754 675.656 18.0451 676.272 17.4758C676.889 16.9064 677.767 16.6218 678.905 16.6218H682.606V10.1456C682.606 8.67486 682.986 7.55992 683.745 6.80081C684.551 6.04171 685.666 5.66215 687.09 5.66215C688.513 5.66215 689.604 6.04171 690.363 6.80081C691.122 7.55992 691.502 8.67486 691.502 10.1456V16.6218H699.046C700.184 16.6218 701.062 16.9064 701.679 17.4758C702.295 18.0451 702.604 18.8754 702.604 19.9666C702.604 21.0104 702.295 21.8406 701.679 22.4574C701.062 23.0267 700.184 23.3114 699.046 23.3114H691.502V37.9717C691.502 40.249 692 41.957 692.996 43.0957C693.993 44.2343 695.606 44.8036 697.836 44.8036C698.642 44.8036 699.354 44.7325 699.971 44.5901C700.588 44.4478 701.133 44.3529 701.608 44.3055C702.177 44.258 702.651 44.4478 703.031 44.8748C703.41 45.2544 703.6 46.0609 703.6 47.2945C703.6 48.2434 703.434 49.0974 703.102 49.8565C702.817 50.5681 702.272 51.0663 701.465 51.351C700.848 51.5407 700.042 51.7068 699.046 51.8491C698.049 52.0389 697.172 52.1338 696.412 52.1338ZM79.0109 135.801C77.9672 135.801 77.1132 135.517 76.4489 134.947C75.7847 134.426 75.3814 133.714 75.2391 132.812C75.1442 131.911 75.3103 130.962 75.7373 129.966L80.5766 119.22V122.92L67.6243 92.9592C67.1973 91.9155 67.055 90.9429 67.1973 90.0414C67.3396 89.14 67.7666 88.4283 68.4783 87.9064C69.2374 87.3371 70.2575 87.0524 71.5385 87.0524C72.6297 87.0524 73.5074 87.3134 74.1716 87.8353C74.8358 88.3097 75.4289 89.2349 75.9508 90.6108L85.5582 114.594H83.4232L93.2442 90.5396C93.7661 89.2112 94.3829 88.3097 95.0945 87.8353C95.8062 87.3134 96.7551 87.0524 97.9412 87.0524C98.985 87.0524 99.8152 87.3371 100.432 87.9064C101.049 88.4283 101.428 89.14 101.571 90.0414C101.713 90.8954 101.547 91.8443 101.072 92.8881L83.7791 132.385C83.1623 133.714 82.4981 134.615 81.7864 135.09C81.0748 135.564 80.1496 135.801 79.0109 135.801ZM119.974 123.134C116.369 123.134 113.237 122.398 110.58 120.928C107.924 119.457 105.86 117.369 104.389 114.665C102.918 111.913 102.183 108.687 102.183 104.986C102.183 102.187 102.586 99.6963 103.393 97.5139C104.247 95.284 105.456 93.3862 107.022 91.8206C108.588 90.2075 110.462 88.9977 112.644 88.1911C114.827 87.3371 117.27 86.9101 119.974 86.9101C123.58 86.9101 126.711 87.6455 129.368 89.1163C132.025 90.587 134.089 92.6746 135.56 95.3789C137.031 98.0832 137.766 101.286 137.766 104.986C137.766 107.786 137.339 110.3 136.485 112.53C135.678 114.76 134.492 116.681 132.927 118.294C131.361 119.86 129.487 121.07 127.305 121.924C125.122 122.731 122.679 123.134 119.974 123.134ZM119.974 116.373C121.73 116.373 123.272 115.946 124.6 115.092C125.929 114.238 126.949 112.981 127.66 111.32C128.419 109.612 128.799 107.501 128.799 104.986C128.799 101.191 127.992 98.3679 126.379 96.5176C124.766 94.6198 122.631 93.6709 119.974 93.6709C118.219 93.6709 116.677 94.0979 115.349 94.9519C114.02 95.7585 112.976 97.0157 112.217 98.7237C111.506 100.384 111.15 102.472 111.15 104.986C111.15 108.734 111.956 111.581 113.569 113.526C115.183 115.424 117.318 116.373 119.974 116.373ZM154.858 123.134C151.964 123.134 149.568 122.612 147.67 121.568C145.773 120.477 144.349 118.864 143.4 116.729C142.499 114.594 142.048 111.937 142.048 108.758V91.5359C142.048 90.0177 142.428 88.9028 143.187 88.1911C143.946 87.432 145.037 87.0524 146.461 87.0524C147.884 87.0524 148.975 87.432 149.734 88.1911C150.541 88.9028 150.944 90.0177 150.944 91.5359V108.901C150.944 111.368 151.442 113.194 152.438 114.38C153.435 115.566 155.024 116.159 157.207 116.159C159.579 116.159 161.524 115.353 163.042 113.74C164.56 112.079 165.32 109.897 165.32 107.193V91.5359C165.32 90.0177 165.699 88.9028 166.458 88.1911C167.217 87.432 168.309 87.0524 169.732 87.0524C171.155 87.0524 172.246 87.432 173.006 88.1911C173.812 88.9028 174.215 90.0177 174.215 91.5359V118.437C174.215 121.473 172.768 122.991 169.874 122.991C168.498 122.991 167.431 122.612 166.672 121.853C165.913 121.046 165.533 119.908 165.533 118.437V113.028L166.529 115.163C165.533 117.725 164.015 119.694 161.975 121.07C159.982 122.446 157.61 123.134 154.858 123.134ZM185.182 122.991C183.711 122.991 182.573 122.612 181.766 121.853C181.007 121.046 180.628 119.908 180.628 118.437V91.5359C180.628 90.0651 181.007 88.9502 181.766 88.1911C182.525 87.432 183.593 87.0524 184.969 87.0524C186.345 87.0524 187.412 87.432 188.171 88.1911C188.93 88.9502 189.31 90.0651 189.31 91.5359V96.0194H188.598C189.262 93.1727 190.567 91.014 192.512 89.5433C194.458 88.0725 197.043 87.1948 200.269 86.9101C201.266 86.8152 202.049 87.0762 202.618 87.6929C203.235 88.2623 203.591 89.1637 203.685 90.3973C203.78 91.5834 203.496 92.556 202.831 93.3151C202.215 94.0267 201.266 94.4537 199.985 94.5961L198.419 94.7384C195.525 95.0231 193.343 95.9245 191.872 97.4427C190.401 98.9135 189.666 101.001 189.666 103.705V118.437C189.666 119.908 189.286 121.046 188.527 121.853C187.768 122.612 186.653 122.991 185.182 122.991ZM226.536 122.991C225.113 122.991 224.021 122.612 223.262 121.853C222.503 121.046 222.124 119.908 222.124 118.437V91.5359C222.124 90.0651 222.503 88.9502 223.262 88.1911C224.021 87.432 225.089 87.0524 226.465 87.0524C227.841 87.0524 228.908 87.432 229.667 88.1911C230.426 88.9502 230.806 90.0651 230.806 91.5359V96.3752L230.023 94.5961C231.067 92.0815 232.68 90.1838 234.862 88.9028C237.092 87.5743 239.607 86.9101 242.406 86.9101C245.205 86.9101 247.506 87.432 249.309 88.4758C251.112 89.5195 252.464 91.1089 253.366 93.2439C254.267 95.3315 254.718 97.9883 254.718 101.215V118.437C254.718 119.908 254.338 121.046 253.579 121.853C252.82 122.612 251.729 122.991 250.306 122.991C248.882 122.991 247.767 122.612 246.961 121.853C246.202 121.046 245.822 119.908 245.822 118.437V101.642C245.822 98.9372 245.3 96.9683 244.256 95.7347C243.26 94.5012 241.694 93.8844 239.559 93.8844C236.95 93.8844 234.862 94.7147 233.297 96.3752C231.779 97.9883 231.019 100.147 231.019 102.851V118.437C231.019 121.473 229.525 122.991 226.536 122.991ZM278.058 123.134C274.12 123.134 270.728 122.398 267.881 120.928C265.034 119.457 262.828 117.369 261.262 114.665C259.744 111.961 258.985 108.758 258.985 105.058C258.985 101.452 259.72 98.2967 261.191 95.5924C262.709 92.8881 264.773 90.7768 267.383 89.2586C270.04 87.6929 273.052 86.9101 276.421 86.9101C278.888 86.9101 281.094 87.3134 283.039 88.1199C285.032 88.9265 286.716 90.0889 288.092 91.6071C289.515 93.1253 290.583 94.9756 291.295 97.1581C292.054 99.2931 292.433 101.713 292.433 104.417C292.433 105.271 292.125 105.935 291.508 106.41C290.939 106.837 290.109 107.05 289.017 107.05H266.173V101.926H286.171L285.032 102.994C285.032 100.811 284.7 98.9847 284.036 97.5139C283.419 96.0431 282.494 94.9282 281.26 94.1691C280.074 93.3625 278.58 92.9592 276.777 92.9592C274.784 92.9592 273.076 93.4337 271.653 94.3826C270.277 95.284 269.209 96.5887 268.45 98.2967C267.739 99.9573 267.383 101.95 267.383 104.275V104.773C267.383 108.663 268.284 111.581 270.087 113.526C271.937 115.424 274.642 116.373 278.2 116.373C279.434 116.373 280.809 116.231 282.328 115.946C283.893 115.614 285.364 115.068 286.74 114.309C287.736 113.74 288.614 113.503 289.373 113.597C290.132 113.645 290.725 113.906 291.152 114.38C291.627 114.855 291.911 115.448 292.006 116.159C292.101 116.824 291.959 117.512 291.579 118.223C291.247 118.935 290.654 119.552 289.8 120.074C288.14 121.117 286.218 121.9 284.036 122.422C281.901 122.897 279.908 123.134 278.058 123.134ZM308.089 123.134C305.575 123.134 303.321 122.659 301.328 121.71C299.383 120.714 297.841 119.386 296.703 117.725C295.611 116.065 295.066 114.191 295.066 112.103C295.066 109.541 295.73 107.525 297.059 106.054C298.387 104.536 300.546 103.444 303.535 102.78C306.524 102.116 310.533 101.784 315.562 101.784H319.12V106.908H315.633C312.691 106.908 310.343 107.05 308.587 107.335C306.832 107.62 305.575 108.118 304.816 108.829C304.104 109.494 303.748 110.442 303.748 111.676C303.748 113.242 304.294 114.523 305.385 115.519C306.476 116.515 307.994 117.013 309.94 117.013C311.505 117.013 312.881 116.658 314.067 115.946C315.301 115.187 316.273 114.167 316.985 112.886C317.697 111.605 318.053 110.134 318.053 108.474V100.289C318.053 97.9172 317.531 96.2092 316.487 95.1654C315.443 94.1216 313.688 93.5997 311.221 93.5997C309.845 93.5997 308.35 93.7658 306.737 94.0979C305.171 94.43 303.511 94.9993 301.755 95.8059C300.854 96.2329 300.048 96.3515 299.336 96.1617C298.672 95.972 298.15 95.5924 297.77 95.0231C297.391 94.4063 297.201 93.7421 297.201 93.0304C297.201 92.3188 297.391 91.6308 297.77 90.9666C298.15 90.2549 298.79 89.733 299.692 89.4009C301.874 88.4995 303.962 87.859 305.954 87.4794C307.994 87.0999 309.845 86.9101 311.505 86.9101C314.921 86.9101 317.72 87.432 319.903 88.4758C322.133 89.5195 323.793 91.1089 324.885 93.2439C325.976 95.3315 326.521 98.0358 326.521 101.357V118.437C326.521 119.908 326.166 121.046 325.454 121.853C324.742 122.612 323.722 122.991 322.394 122.991C321.065 122.991 320.022 122.612 319.262 121.853C318.551 121.046 318.195 119.908 318.195 118.437V115.021H318.764C318.432 116.681 317.768 118.128 316.772 119.362C315.823 120.548 314.613 121.473 313.142 122.137C311.671 122.802 309.987 123.134 308.089 123.134ZM337.259 122.991C335.788 122.991 334.649 122.612 333.843 121.853C333.084 121.046 332.704 119.908 332.704 118.437V91.5359C332.704 90.0651 333.084 88.9502 333.843 88.1911C334.602 87.432 335.669 87.0524 337.045 87.0524C338.421 87.0524 339.488 87.432 340.248 88.1911C341.007 88.9502 341.386 90.0651 341.386 91.5359V96.0194H340.675C341.339 93.1727 342.644 91.014 344.589 89.5433C346.534 88.0725 349.12 87.1948 352.346 86.9101C353.342 86.8152 354.125 87.0762 354.694 87.6929C355.311 88.2623 355.667 89.1637 355.762 90.3973C355.857 91.5834 355.572 92.556 354.908 93.3151C354.291 94.0267 353.342 94.4537 352.061 94.5961L350.496 94.7384C347.601 95.0231 345.419 95.9245 343.948 97.4427C342.477 98.9135 341.742 101.001 341.742 103.705V118.437C341.742 119.908 341.363 121.046 340.603 121.853C339.844 122.612 338.729 122.991 337.259 122.991ZM374.321 123.134C370.383 123.134 366.991 122.398 364.144 120.928C361.298 119.457 359.092 117.369 357.526 114.665C356.008 111.961 355.249 108.758 355.249 105.058C355.249 101.452 355.984 98.2967 357.455 95.5924C358.973 92.8881 361.037 90.7768 363.646 89.2586C366.303 87.6929 369.316 86.9101 372.684 86.9101C375.152 86.9101 377.358 87.3134 379.303 88.1199C381.296 88.9265 382.98 90.0889 384.356 91.6071C385.779 93.1253 386.847 94.9756 387.558 97.1581C388.317 99.2931 388.697 101.713 388.697 104.417C388.697 105.271 388.388 105.935 387.772 106.41C387.202 106.837 386.372 107.05 385.281 107.05H362.436V101.926H382.434L381.296 102.994C381.296 100.811 380.963 98.9847 380.299 97.5139C379.682 96.0431 378.757 94.9282 377.524 94.1691C376.338 93.3625 374.843 92.9592 373.04 92.9592C371.048 92.9592 369.34 93.4337 367.916 94.3826C366.54 95.284 365.473 96.5887 364.714 98.2967C364.002 99.9573 363.646 101.95 363.646 104.275V104.773C363.646 108.663 364.548 111.581 366.351 113.526C368.201 115.424 370.905 116.373 374.464 116.373C375.697 116.373 377.073 116.231 378.591 115.946C380.157 115.614 381.628 115.068 383.004 114.309C384 113.74 384.878 113.503 385.637 113.597C386.396 113.645 386.989 113.906 387.416 114.38C387.89 114.855 388.175 115.448 388.27 116.159C388.365 116.824 388.222 117.512 387.843 118.223C387.511 118.935 386.918 119.552 386.064 120.074C384.403 121.117 382.482 121.9 380.299 122.422C378.164 122.897 376.172 123.134 374.321 123.134ZM405.634 123.134C403.594 123.134 401.435 122.92 399.158 122.493C396.88 122.066 394.84 121.331 393.037 120.287C392.278 119.813 391.733 119.267 391.401 118.65C391.116 117.986 390.997 117.346 391.045 116.729C391.14 116.065 391.377 115.495 391.756 115.021C392.183 114.546 392.705 114.238 393.322 114.096C393.986 113.953 394.698 114.072 395.457 114.451C397.355 115.353 399.134 115.993 400.795 116.373C402.455 116.705 404.092 116.871 405.705 116.871C407.982 116.871 409.667 116.492 410.758 115.732C411.897 114.926 412.466 113.882 412.466 112.601C412.466 111.51 412.086 110.68 411.327 110.11C410.616 109.494 409.524 109.043 408.054 108.758L400.937 107.406C397.995 106.837 395.742 105.769 394.176 104.204C392.658 102.59 391.899 100.527 391.899 98.0121C391.899 95.7347 392.516 93.7658 393.749 92.1053C395.03 90.4447 396.786 89.1637 399.015 88.2623C401.245 87.3608 403.807 86.9101 406.701 86.9101C408.789 86.9101 410.734 87.1473 412.537 87.6218C414.387 88.0488 416.167 88.7367 417.875 89.6856C418.586 90.0652 419.061 90.5633 419.298 91.1801C419.583 91.7969 419.654 92.4374 419.511 93.1016C419.369 93.7184 419.084 94.2877 418.657 94.8096C418.23 95.284 417.685 95.5924 417.021 95.7347C416.404 95.8296 415.692 95.6873 414.886 95.3077C413.415 94.5486 411.991 94.003 410.616 93.6709C409.287 93.3388 408.006 93.1727 406.773 93.1727C404.448 93.1727 402.716 93.576 401.577 94.3826C400.486 95.1891 399.941 96.2566 399.941 97.5851C399.941 98.5814 400.273 99.4117 400.937 100.076C401.601 100.74 402.621 101.191 403.997 101.428L411.114 102.78C414.198 103.35 416.522 104.393 418.088 105.912C419.701 107.43 420.508 109.47 420.508 112.032C420.508 115.495 419.156 118.223 416.451 120.216C413.747 122.161 410.141 123.134 405.634 123.134ZM440.391 123.134C437.308 123.134 434.722 122.612 432.634 121.568C430.594 120.524 429.076 119.006 428.08 117.013C427.083 114.973 426.585 112.459 426.585 109.47V94.3114H422.885C421.746 94.3114 420.868 94.0267 420.251 93.4574C419.635 92.8406 419.326 92.0104 419.326 90.9666C419.326 89.8754 419.635 89.0451 420.251 88.4758C420.868 87.9064 421.746 87.6218 422.885 87.6218H426.585V81.1456C426.585 79.6749 426.965 78.5599 427.724 77.8008C428.53 77.0417 429.645 76.6622 431.069 76.6622C432.492 76.6622 433.583 77.0417 434.342 77.8008C435.101 78.5599 435.481 79.6749 435.481 81.1456V87.6218H443.025C444.163 87.6218 445.041 87.9064 445.658 88.4758C446.275 89.0451 446.583 89.8754 446.583 90.9666C446.583 92.0104 446.275 92.8406 445.658 93.4574C445.041 94.0267 444.163 94.3114 443.025 94.3114H435.481V108.972C435.481 111.249 435.979 112.957 436.975 114.096C437.972 115.234 439.585 115.804 441.815 115.804C442.621 115.804 443.333 115.732 443.95 115.59C444.567 115.448 445.112 115.353 445.587 115.305C446.156 115.258 446.63 115.448 447.01 115.875C447.389 116.254 447.579 117.061 447.579 118.294C447.579 119.243 447.413 120.097 447.081 120.856C446.796 121.568 446.251 122.066 445.444 122.351C444.827 122.541 444.021 122.707 443.025 122.849C442.028 123.039 441.151 123.134 440.391 123.134ZM478.129 123.134C476.089 123.134 473.93 122.92 471.653 122.493C469.376 122.066 467.335 121.331 465.533 120.287C464.774 119.813 464.228 119.267 463.896 118.65C463.611 117.986 463.493 117.346 463.54 116.729C463.635 116.065 463.872 115.495 464.252 115.021C464.679 114.546 465.201 114.238 465.817 114.096C466.481 113.953 467.193 114.072 467.952 114.451C469.85 115.353 471.629 115.993 473.29 116.373C474.95 116.705 476.587 116.871 478.2 116.871C480.478 116.871 482.162 116.492 483.253 115.732C484.392 114.926 484.961 113.882 484.961 112.601C484.961 111.51 484.581 110.68 483.822 110.11C483.111 109.494 482.019 109.043 480.549 108.758L473.432 107.406C470.491 106.837 468.237 105.769 466.671 104.204C465.153 102.59 464.394 100.527 464.394 98.0121C464.394 95.7347 465.011 93.7658 466.244 92.1053C467.525 90.4447 469.281 89.1637 471.511 88.2623C473.74 87.3608 476.302 86.9101 479.197 86.9101C481.284 86.9101 483.229 87.1473 485.032 87.6218C486.883 88.0488 488.662 88.7367 490.37 89.6856C491.081 90.0652 491.556 90.5633 491.793 91.1801C492.078 91.7969 492.149 92.4374 492.006 93.1016C491.864 93.7184 491.579 94.2877 491.152 94.8096C490.726 95.284 490.18 95.5924 489.516 95.7347C488.899 95.8296 488.187 95.6873 487.381 95.3077C485.91 94.5486 484.487 94.003 483.111 93.6709C481.782 93.3388 480.501 93.1727 479.268 93.1727C476.943 93.1727 475.211 93.576 474.073 94.3826C472.981 95.1891 472.436 96.2566 472.436 97.5851C472.436 98.5814 472.768 99.4117 473.432 100.076C474.096 100.74 475.116 101.191 476.492 101.428L483.609 102.78C486.693 103.35 489.018 104.393 490.583 105.912C492.196 107.43 493.003 109.47 493.003 112.032C493.003 115.495 491.651 118.223 488.946 120.216C486.242 122.161 482.636 123.134 478.129 123.134ZM512.887 123.134C509.803 123.134 507.217 122.612 505.129 121.568C503.089 120.524 501.571 119.006 500.575 117.013C499.578 114.973 499.08 112.459 499.08 109.47V94.3114H495.38C494.241 94.3114 493.363 94.0267 492.747 93.4574C492.13 92.8406 491.821 92.0104 491.821 90.9666C491.821 89.8754 492.13 89.0451 492.747 88.4758C493.363 87.9064 494.241 87.6218 495.38 87.6218H499.08V81.1456C499.08 79.6749 499.46 78.5599 500.219 77.8008C501.026 77.0417 502.14 76.6622 503.564 76.6622C504.987 76.6622 506.078 77.0417 506.837 77.8008C507.597 78.5599 507.976 79.6749 507.976 81.1456V87.6218H515.52C516.658 87.6218 517.536 87.9064 518.153 88.4758C518.77 89.0451 519.078 89.8754 519.078 90.9666C519.078 92.0104 518.77 92.8406 518.153 93.4574C517.536 94.0267 516.658 94.3114 515.52 94.3114H507.976V108.972C507.976 111.249 508.474 112.957 509.471 114.096C510.467 115.234 512.08 115.804 514.31 115.804C515.116 115.804 515.828 115.732 516.445 115.59C517.062 115.448 517.607 115.353 518.082 115.305C518.651 115.258 519.126 115.448 519.505 115.875C519.885 116.254 520.074 117.061 520.074 118.294C520.074 119.243 519.908 120.097 519.576 120.856C519.292 121.568 518.746 122.066 517.939 122.351C517.323 122.541 516.516 122.707 515.52 122.849C514.523 123.039 513.646 123.134 512.887 123.134ZM536.934 123.134C533.328 123.134 530.197 122.398 527.54 120.928C524.883 119.457 522.819 117.369 521.349 114.665C519.878 111.913 519.143 108.687 519.143 104.986C519.143 102.187 519.546 99.6963 520.352 97.5139C521.206 95.284 522.416 93.3862 523.982 91.8206C525.548 90.2075 527.422 88.9977 529.604 88.1911C531.786 87.3371 534.23 86.9101 536.934 86.9101C540.54 86.9101 543.671 87.6455 546.328 89.1163C548.985 90.587 551.049 92.6746 552.52 95.3789C553.99 98.0832 554.726 101.286 554.726 104.986C554.726 107.786 554.299 110.3 553.445 112.53C552.638 114.76 551.452 116.681 549.886 118.294C548.321 119.86 546.447 121.07 544.264 121.924C542.082 122.731 539.638 123.134 536.934 123.134ZM536.934 116.373C538.69 116.373 540.232 115.946 541.56 115.092C542.888 114.238 543.908 112.981 544.62 111.32C545.379 109.612 545.759 107.501 545.759 104.986C545.759 101.191 544.952 98.3679 543.339 96.5176C541.726 94.6198 539.591 93.6709 536.934 93.6709C535.179 93.6709 533.637 94.0979 532.308 94.9519C530.98 95.7585 529.936 97.0157 529.177 98.7237C528.465 100.384 528.11 102.472 528.11 104.986C528.11 108.734 528.916 111.581 530.529 113.526C532.142 115.424 534.277 116.373 536.934 116.373ZM563.776 122.991C562.305 122.991 561.167 122.612 560.36 121.853C559.601 121.046 559.221 119.908 559.221 118.437V91.5359C559.221 90.0651 559.601 88.9502 560.36 88.1911C561.119 87.432 562.187 87.0524 563.563 87.0524C564.938 87.0524 566.006 87.432 566.765 88.1911C567.524 88.9502 567.904 90.0651 567.904 91.5359V96.0194H567.192C567.856 93.1727 569.161 91.014 571.106 89.5433C573.051 88.0725 575.637 87.1948 578.863 86.9101C579.86 86.8152 580.643 87.0762 581.212 87.6929C581.829 88.2623 582.184 89.1637 582.279 90.3973C582.374 91.5834 582.09 92.556 581.425 93.3151C580.809 94.0267 579.86 94.4537 578.579 94.5961L577.013 94.7384C574.119 95.0231 571.937 95.9245 570.466 97.4427C568.995 98.9135 568.26 101.001 568.26 103.705V118.437C568.26 119.908 567.88 121.046 567.121 121.853C566.362 122.612 565.247 122.991 563.776 122.991ZM600.839 123.134C596.901 123.134 593.509 122.398 590.662 120.928C587.815 119.457 585.609 117.369 584.043 114.665C582.525 111.961 581.766 108.758 581.766 105.058C581.766 101.452 582.502 98.2967 583.972 95.5924C585.491 92.8881 587.554 90.7768 590.164 89.2586C592.821 87.6929 595.833 86.9101 599.202 86.9101C601.669 86.9101 603.875 87.3134 605.82 88.1199C607.813 88.9265 609.497 90.0889 610.873 91.6071C612.297 93.1253 613.364 94.9756 614.076 97.1581C614.835 99.2931 615.214 101.713 615.214 104.417C615.214 105.271 614.906 105.935 614.289 106.41C613.72 106.837 612.89 107.05 611.798 107.05H588.954V101.926H608.952L607.813 102.994C607.813 100.811 607.481 98.9847 606.817 97.5139C606.2 96.0431 605.275 94.9282 604.041 94.1691C602.855 93.3625 601.361 92.9592 599.558 92.9592C597.565 92.9592 595.857 93.4337 594.434 94.3826C593.058 95.284 591.99 96.5887 591.231 98.2967C590.52 99.9573 590.164 101.95 590.164 104.275V104.773C590.164 108.663 591.065 111.581 592.868 113.526C594.718 115.424 597.423 116.373 600.981 116.373C602.215 116.373 603.59 116.231 605.109 115.946C606.674 115.614 608.145 115.068 609.521 114.309C610.517 113.74 611.395 113.503 612.154 113.597C612.913 113.645 613.506 113.906 613.933 114.38C614.408 114.855 614.692 115.448 614.787 116.159C614.882 116.824 614.74 117.512 614.36 118.223C614.028 118.935 613.435 119.552 612.581 120.074C610.921 121.117 608.999 121.9 606.817 122.422C604.682 122.897 602.689 123.134 600.839 123.134ZM623.683 122.778C622.069 122.778 620.765 122.28 619.768 121.283C618.82 120.287 618.345 119.006 618.345 117.44C618.345 115.922 618.82 114.689 619.768 113.74C620.765 112.743 622.069 112.245 623.683 112.245C625.343 112.245 626.624 112.743 627.526 113.74C628.474 114.689 628.949 115.922 628.949 117.44C628.949 119.006 628.474 120.287 627.526 121.283C626.624 122.28 625.343 122.778 623.683 122.778Z" fill="#252525"/>
</svg>
