<svg width="382" height="38" viewBox="0 0 382 38" fill="none" xmlns="http://www.w3.org/2000/svg">
<path d="M5.008 12.3239C4.816 12.3239 4.66133 12.2759 4.544 12.1799C4.42667 12.0732 4.33067 11.9186 4.256 11.7159L0.72 1.61991C0.645333 1.39591 0.661333 1.20925 0.768 1.05991C0.885333 0.899914 1.06667 0.819914 1.312 0.819914C1.49333 0.819914 1.63733 0.867914 1.744 0.963914C1.85067 1.04925 1.94133 1.18791 2.016 1.37991L5.328 11.0919H4.768L8.144 1.42791C8.21867 1.22525 8.30933 1.07591 8.416 0.979914C8.52267 0.873247 8.66667 0.819914 8.848 0.819914C9.01867 0.819914 9.152 0.873247 9.248 0.979914C9.35467 1.07591 9.44533 1.22525 9.52 1.42791L12.848 11.0919H12.352L15.696 1.37991C15.7493 1.19858 15.8293 1.05991 15.936 0.963914C16.0533 0.867914 16.2027 0.819914 16.384 0.819914C16.608 0.819914 16.7733 0.894581 16.88 1.04391C16.9867 1.19325 16.9973 1.38525 16.912 1.61991L13.36 11.7159C13.2853 11.9186 13.1893 12.0732 13.072 12.1799C12.9653 12.2759 12.8107 12.3239 12.608 12.3239C12.416 12.3239 12.2613 12.2759 12.144 12.1799C12.0373 12.0732 11.9413 11.9186 11.856 11.7159L8.64 2.45191H8.992L5.744 11.7159C5.66933 11.9186 5.57867 12.0732 5.472 12.1799C5.36533 12.2759 5.21067 12.3239 5.008 12.3239ZM20.7999 12.3559C20.0425 12.3559 19.3865 12.1906 18.8319 11.8599C18.2772 11.5292 17.8452 11.0652 17.5359 10.4679C17.2372 9.85991 17.0879 9.14525 17.0879 8.32391C17.0879 7.70525 17.1732 7.15058 17.3439 6.65991C17.5145 6.15858 17.7652 5.73191 18.0959 5.37991C18.4265 5.02791 18.8159 4.76125 19.2639 4.57991C19.7225 4.38791 20.2345 4.29191 20.7999 4.29191C21.5572 4.29191 22.2132 4.45725 22.7679 4.78791C23.3225 5.11858 23.7492 5.58791 24.0479 6.19591C24.3572 6.79325 24.5119 7.50258 24.5119 8.32391C24.5119 8.94258 24.4265 9.49725 24.2559 9.98791C24.0852 10.4786 23.8345 10.9052 23.5039 11.2679C23.1732 11.6199 22.7785 11.8919 22.3199 12.0839C21.8719 12.2652 21.3652 12.3559 20.7999 12.3559ZM20.7999 11.3159C21.2799 11.3159 21.7012 11.1986 22.0639 10.9639C22.4265 10.7292 22.7039 10.3879 22.8959 9.93991C23.0985 9.49191 23.1999 8.95325 23.1999 8.32391C23.1999 7.35325 22.9812 6.61191 22.5439 6.09991C22.1172 5.58791 21.5359 5.33191 20.7999 5.33191C20.3092 5.33191 19.8825 5.44925 19.5199 5.68391C19.1679 5.90791 18.8905 6.24391 18.6879 6.69191C18.4959 7.12925 18.3999 7.67325 18.3999 8.32391C18.3999 9.28391 18.6185 10.0252 19.0559 10.5479C19.4932 11.0599 20.0745 11.3159 20.7999 11.3159ZM29.3705 12.3559C28.6132 12.3559 27.9572 12.1906 27.4025 11.8599C26.8478 11.5292 26.4158 11.0652 26.1065 10.4679C25.8078 9.85991 25.6585 9.14525 25.6585 8.32391C25.6585 7.70525 25.7438 7.15058 25.9145 6.65991C26.0852 6.15858 26.3358 5.73191 26.6665 5.37991C26.9972 5.02791 27.3865 4.76125 27.8345 4.57991C28.2932 4.38791 28.8052 4.29191 29.3705 4.29191C30.1278 4.29191 30.7838 4.45725 31.3385 4.78791C31.8932 5.11858 32.3198 5.58791 32.6185 6.19591C32.9278 6.79325 33.0825 7.50258 33.0825 8.32391C33.0825 8.94258 32.9972 9.49725 32.8265 9.98791C32.6558 10.4786 32.4052 10.9052 32.0745 11.2679C31.7438 11.6199 31.3492 11.8919 30.8905 12.0839C30.4425 12.2652 29.9358 12.3559 29.3705 12.3559ZM29.3705 11.3159C29.8505 11.3159 30.2718 11.1986 30.6345 10.9639C30.9972 10.7292 31.2745 10.3879 31.4665 9.93991C31.6692 9.49191 31.7705 8.95325 31.7705 8.32391C31.7705 7.35325 31.5518 6.61191 31.1145 6.09991C30.6878 5.58791 30.1065 5.33191 29.3705 5.33191C28.8798 5.33191 28.4532 5.44925 28.0905 5.68391C27.7385 5.90791 27.4612 6.24391 27.2585 6.69191C27.0665 7.12925 26.9705 7.67325 26.9705 8.32391C26.9705 9.28391 27.1892 10.0252 27.6265 10.5479C28.0638 11.0599 28.6452 11.3159 29.3705 11.3159ZM37.0771 12.3559C36.3091 12.3559 35.7225 12.1212 35.3171 11.6519C34.9118 11.1826 34.7091 10.5106 34.7091 9.63591V1.47591C34.7091 1.26258 34.7625 1.10258 34.8691 0.995914C34.9758 0.87858 35.1358 0.819914 35.3491 0.819914C35.5518 0.819914 35.7118 0.87858 35.8291 0.995914C35.9465 1.10258 36.0051 1.26258 36.0051 1.47591V9.53991C36.0051 10.1159 36.1171 10.5479 36.3411 10.8359C36.5758 11.1132 36.9171 11.2519 37.3651 11.2519C37.4611 11.2519 37.5465 11.2466 37.6211 11.2359C37.6958 11.2252 37.7705 11.2199 37.8451 11.2199C37.9625 11.2092 38.0425 11.2359 38.0851 11.2999C38.1385 11.3639 38.1651 11.4919 38.1651 11.6839C38.1651 11.8759 38.1225 12.0199 38.0371 12.1159C37.9518 12.2119 37.8131 12.2759 37.6211 12.3079C37.5358 12.3186 37.4451 12.3292 37.3491 12.3399C37.2531 12.3506 37.1625 12.3559 37.0771 12.3559ZM39.0595 12.3239C38.8888 12.3239 38.7502 12.2866 38.6435 12.2119C38.5475 12.1266 38.4888 12.0199 38.4675 11.8919C38.4568 11.7532 38.4888 11.5986 38.5635 11.4279L42.9635 1.41191C43.0595 1.19858 43.1715 1.04925 43.2995 0.963914C43.4382 0.867914 43.5875 0.819914 43.7475 0.819914C43.9075 0.819914 44.0515 0.867914 44.1795 0.963914C44.3182 1.04925 44.4302 1.19858 44.5155 1.41191L48.9315 11.4279C49.0168 11.5986 49.0488 11.7532 49.0275 11.8919C49.0168 12.0306 48.9635 12.1372 48.8675 12.2119C48.7715 12.2866 48.6382 12.3239 48.4675 12.3239C48.2755 12.3239 48.1208 12.2759 48.0035 12.1799C47.8862 12.0732 47.7902 11.9239 47.7155 11.7319L46.5315 8.99591L47.1715 9.33191H40.2915L40.9475 8.99591L39.7795 11.7319C39.6835 11.9346 39.5822 12.0839 39.4755 12.1799C39.3688 12.2759 39.2302 12.3239 39.0595 12.3239ZM43.7315 2.46791L41.1555 8.53191L40.7715 8.22791H46.6915L46.3395 8.53191L43.7635 2.46791H43.7315ZM51.0998 12.2919C50.8864 12.2919 50.7264 12.2332 50.6198 12.1159C50.5131 11.9879 50.4598 11.8119 50.4598 11.5879V5.04391C50.4598 4.81991 50.5131 4.64925 50.6198 4.53191C50.7264 4.41458 50.8864 4.35591 51.0998 4.35591C51.3024 4.35591 51.4624 4.41458 51.5798 4.53191C51.6971 4.64925 51.7558 4.81991 51.7558 5.04391V11.5879C51.7558 11.8119 51.6971 11.9879 51.5798 12.1159C51.4731 12.2332 51.3131 12.2919 51.0998 12.2919ZM51.0998 2.56391C50.8331 2.56391 50.6251 2.49458 50.4758 2.35591C50.3264 2.20658 50.2518 2.00925 50.2518 1.76391C50.2518 1.50791 50.3264 1.31591 50.4758 1.18791C50.6251 1.04925 50.8331 0.979914 51.0998 0.979914C51.3771 0.979914 51.5851 1.04925 51.7238 1.18791C51.8731 1.31591 51.9478 1.50791 51.9478 1.76391C51.9478 2.00925 51.8731 2.20658 51.7238 2.35591C51.5851 2.49458 51.3771 2.56391 51.0998 2.56391ZM56.8185 12.3559C56.1252 12.3559 55.5172 12.1906 54.9945 11.8599C54.4825 11.5292 54.0825 11.0652 53.7945 10.4679C53.5172 9.85991 53.3785 9.14525 53.3785 8.32391C53.3785 7.49191 53.5172 6.77725 53.7945 6.17991C54.0825 5.57191 54.4825 5.10791 54.9945 4.78791C55.5172 4.45725 56.1252 4.29191 56.8185 4.29191C57.5225 4.29191 58.1252 4.46791 58.6265 4.81991C59.1278 5.17191 59.4638 5.64658 59.6345 6.24391H59.4585V1.47591C59.4585 1.26258 59.5118 1.10258 59.6185 0.995914C59.7358 0.87858 59.9012 0.819914 60.1145 0.819914C60.3172 0.819914 60.4718 0.87858 60.5785 0.995914C60.6958 1.10258 60.7545 1.26258 60.7545 1.47591V11.6519C60.7545 11.8652 60.7012 12.0306 60.5945 12.1479C60.4878 12.2652 60.3278 12.3239 60.1145 12.3239C59.9118 12.3239 59.7518 12.2652 59.6345 12.1479C59.5278 12.0306 59.4745 11.8652 59.4745 11.6519V10.1319L59.6505 10.3559C59.4798 10.9639 59.1385 11.4492 58.6265 11.8119C58.1252 12.1746 57.5225 12.3559 56.8185 12.3559ZM57.0905 11.3159C57.5705 11.3159 57.9918 11.1986 58.3545 10.9639C58.7172 10.7292 58.9945 10.3879 59.1865 9.93991C59.3892 9.49191 59.4905 8.95325 59.4905 8.32391C59.4905 7.35325 59.2718 6.61191 58.8345 6.09991C58.4078 5.58791 57.8265 5.33191 57.0905 5.33191C56.5998 5.33191 56.1732 5.44925 55.8105 5.68391C55.4585 5.90791 55.1812 6.24391 54.9785 6.69191C54.7865 7.12925 54.6905 7.67325 54.6905 8.32391C54.6905 9.28391 54.9092 10.0252 55.3465 10.5479C55.7838 11.0599 56.3652 11.3159 57.0905 11.3159ZM68.9626 7.74791C68.792 7.74791 68.6586 7.69991 68.5626 7.60391C68.4666 7.50791 68.4186 7.37458 68.4186 7.20391V1.39591C68.4186 1.26791 68.44 1.16658 68.4826 1.09191C68.536 1.00658 68.6 0.947914 68.6746 0.915914C68.76 0.873247 68.8506 0.851913 68.9466 0.851913C69.1066 0.851913 69.224 0.87858 69.2986 0.931913C69.384 0.985247 69.464 1.08125 69.5386 1.21991L71.9546 5.57191H71.6346L74.0346 1.21991C74.12 1.08125 74.2 0.985247 74.2746 0.931913C74.36 0.87858 74.4826 0.851913 74.6426 0.851913C74.7813 0.851913 74.8986 0.899913 74.9946 0.995914C75.1013 1.08125 75.1546 1.21458 75.1546 1.39591V7.20391C75.1546 7.56658 74.984 7.74791 74.6426 7.74791C74.4613 7.74791 74.3226 7.69991 74.2266 7.60391C74.1413 7.50791 74.0986 7.37458 74.0986 7.20391V2.57991H74.3706L72.2106 6.46791C72.1573 6.55325 72.0933 6.61725 72.0186 6.65991C71.9546 6.70258 71.88 6.72391 71.7946 6.72391C71.7093 6.72391 71.6293 6.70258 71.5546 6.65991C71.4906 6.61725 71.432 6.55325 71.3786 6.46791L69.2026 2.57991H69.4906V7.20391C69.4906 7.56658 69.3146 7.74791 68.9626 7.74791ZM64.5786 7.74791C64.3866 7.74791 64.2426 7.69458 64.1466 7.58791C64.0506 7.48125 64.0026 7.33191 64.0026 7.13991V1.92391H62.2266C62.0453 1.92391 61.9066 1.88125 61.8106 1.79591C61.7253 1.71058 61.6826 1.58791 61.6826 1.42791C61.6826 1.26791 61.7253 1.14525 61.8106 1.05991C61.9066 0.97458 62.0453 0.931913 62.2266 0.931913H66.9626C67.1333 0.931913 67.2613 0.97458 67.3466 1.05991C67.4426 1.14525 67.4906 1.26791 67.4906 1.42791C67.4906 1.58791 67.4426 1.71058 67.3466 1.79591C67.2613 1.88125 67.1333 1.92391 66.9626 1.92391H65.1866V7.13991C65.1866 7.33191 65.1333 7.48125 65.0266 7.58791C64.9306 7.69458 64.7813 7.74791 64.5786 7.74791ZM83.5965 12.3559C83.0632 12.3559 82.5832 12.2546 82.1565 12.0519C81.7405 11.8386 81.4098 11.5506 81.1645 11.1879C80.9192 10.8252 80.7965 10.4199 80.7965 9.97191C80.7965 9.39591 80.9405 8.94258 81.2285 8.61191C81.5272 8.28125 82.0125 8.04658 82.6845 7.90791C83.3672 7.76925 84.2952 7.69991 85.4685 7.69991H86.1885V8.54791H85.4845C84.6205 8.54791 83.9378 8.59058 83.4365 8.67591C82.9458 8.75058 82.5992 8.88391 82.3965 9.07591C82.2045 9.26791 82.1085 9.53991 82.1085 9.89191C82.1085 10.3292 82.2578 10.6866 82.5565 10.9639C82.8658 11.2412 83.2818 11.3799 83.8045 11.3799C84.2312 11.3799 84.6045 11.2786 84.9245 11.0759C85.2552 10.8732 85.5112 10.5959 85.6925 10.2439C85.8845 9.89191 85.9805 9.48658 85.9805 9.02791V7.20391C85.9805 6.54258 85.8472 6.06791 85.5805 5.77991C85.3138 5.48125 84.8765 5.33191 84.2685 5.33191C83.8952 5.33191 83.5218 5.37991 83.1485 5.47591C82.7752 5.57191 82.3805 5.72658 81.9645 5.93991C81.8152 6.01458 81.6872 6.04125 81.5805 6.01991C81.4738 5.98791 81.3885 5.92925 81.3245 5.84391C81.2605 5.75858 81.2232 5.66258 81.2125 5.55591C81.2018 5.43858 81.2232 5.32658 81.2765 5.21991C81.3405 5.11325 81.4365 5.02791 81.5645 4.96391C82.0338 4.72925 82.4978 4.55858 82.9565 4.45191C83.4152 4.34525 83.8525 4.29191 84.2685 4.29191C84.9405 4.29191 85.4952 4.40391 85.9325 4.62791C86.3698 4.84125 86.6952 5.17191 86.9085 5.61991C87.1218 6.05725 87.2285 6.62258 87.2285 7.31591V11.6519C87.2285 11.8652 87.1752 12.0306 87.0685 12.1479C86.9725 12.2652 86.8285 12.3239 86.6365 12.3239C86.4338 12.3239 86.2792 12.2652 86.1725 12.1479C86.0658 12.0306 86.0125 11.8652 86.0125 11.6519V10.4039H86.1565C86.0712 10.8092 85.9058 11.1559 85.6605 11.4439C85.4258 11.7319 85.1325 11.9559 84.7805 12.1159C84.4285 12.2759 84.0338 12.3559 83.5965 12.3559ZM89.9529 12.3239C89.7395 12.3239 89.5795 12.2652 89.4729 12.1479C89.3662 12.0306 89.3129 11.8652 89.3129 11.6519V4.97991C89.3129 4.76658 89.3662 4.60658 89.4729 4.49991C89.5795 4.38258 89.7342 4.32391 89.9369 4.32391C90.1395 4.32391 90.2942 4.38258 90.4009 4.49991C90.5182 4.60658 90.5769 4.76658 90.5769 4.97991V6.35591L90.4009 6.16391C90.6249 5.54525 90.9875 5.08125 91.4889 4.77191C92.0009 4.45191 92.5875 4.29191 93.2489 4.29191C93.8675 4.29191 94.3795 4.40391 94.7849 4.62791C95.2009 4.85191 95.5102 5.19325 95.7129 5.65191C95.9155 6.09991 96.0169 6.67058 96.0169 7.36391V11.6519C96.0169 11.8652 95.9582 12.0306 95.8409 12.1479C95.7342 12.2652 95.5795 12.3239 95.3769 12.3239C95.1635 12.3239 94.9982 12.2652 94.8809 12.1479C94.7742 12.0306 94.7209 11.8652 94.7209 11.6519V7.44391C94.7209 6.71858 94.5769 6.19058 94.2889 5.85991C94.0115 5.51858 93.5635 5.34791 92.9449 5.34791C92.2302 5.34791 91.6595 5.57191 91.2329 6.01991C90.8169 6.45725 90.6089 7.04391 90.6089 7.77991V11.6519C90.6089 12.0999 90.3902 12.3239 89.9529 12.3239ZM101.047 12.3559C100.353 12.3559 99.7453 12.1906 99.2226 11.8599C98.7106 11.5292 98.3106 11.0652 98.0226 10.4679C97.7453 9.85991 97.6066 9.14525 97.6066 8.32391C97.6066 7.49191 97.7453 6.77725 98.0226 6.17991C98.3106 5.57191 98.7106 5.10791 99.2226 4.78791C99.7453 4.45725 100.353 4.29191 101.047 4.29191C101.751 4.29191 102.353 4.46791 102.855 4.81991C103.356 5.17191 103.692 5.64658 103.863 6.24391H103.687V1.47591C103.687 1.26258 103.74 1.10258 103.847 0.995914C103.964 0.87858 104.129 0.819914 104.343 0.819914C104.545 0.819914 104.7 0.87858 104.807 0.995914C104.924 1.10258 104.983 1.26258 104.983 1.47591V11.6519C104.983 11.8652 104.929 12.0306 104.823 12.1479C104.716 12.2652 104.556 12.3239 104.343 12.3239C104.14 12.3239 103.98 12.2652 103.863 12.1479C103.756 12.0306 103.703 11.8652 103.703 11.6519V10.1319L103.879 10.3559C103.708 10.9639 103.367 11.4492 102.855 11.8119C102.353 12.1746 101.751 12.3559 101.047 12.3559ZM101.319 11.3159C101.799 11.3159 102.22 11.1986 102.583 10.9639C102.945 10.7292 103.223 10.3879 103.415 9.93991C103.617 9.49191 103.719 8.95325 103.719 8.32391C103.719 7.35325 103.5 6.61191 103.063 6.09991C102.636 5.58791 102.055 5.33191 101.319 5.33191C100.828 5.33191 100.401 5.44925 100.039 5.68391C99.6866 5.90791 99.4093 6.24391 99.2066 6.69191C99.0146 7.12925 98.9186 7.67325 98.9186 8.32391C98.9186 9.28391 99.1373 10.0252 99.5746 10.5479C100.012 11.0599 100.593 11.3159 101.319 11.3159ZM111.732 12.3239C111.518 12.3239 111.353 12.2652 111.236 12.1479C111.129 12.0199 111.076 11.8492 111.076 11.6359V1.50791C111.076 1.28391 111.129 1.11325 111.236 0.995914C111.353 0.87858 111.518 0.819914 111.732 0.819914C111.945 0.819914 112.105 0.87858 112.212 0.995914C112.329 1.11325 112.388 1.28391 112.388 1.50791V5.92391H119.156V1.50791C119.156 1.28391 119.209 1.11325 119.316 0.995914C119.433 0.87858 119.598 0.819914 119.812 0.819914C120.025 0.819914 120.185 0.87858 120.292 0.995914C120.409 1.11325 120.468 1.28391 120.468 1.50791V11.6359C120.468 11.8492 120.409 12.0199 120.292 12.1479C120.185 12.2652 120.025 12.3239 119.812 12.3239C119.598 12.3239 119.433 12.2652 119.316 12.1479C119.209 12.0199 119.156 11.8492 119.156 11.6359V7.05991H112.388V11.6359C112.388 11.8492 112.334 12.0199 112.228 12.1479C112.121 12.2652 111.956 12.3239 111.732 12.3239ZM124.48 15.2039C124.32 15.2039 124.192 15.1612 124.096 15.0759C124 14.9906 123.941 14.8732 123.92 14.7239C123.909 14.5852 123.936 14.4412 124 14.2919L125.104 11.8119V12.3719L122.032 5.23591C121.968 5.07591 121.946 4.92658 121.968 4.78791C121.989 4.64925 122.053 4.53725 122.16 4.45191C122.266 4.36658 122.416 4.32391 122.608 4.32391C122.778 4.32391 122.912 4.36125 123.008 4.43591C123.104 4.51058 123.189 4.64391 123.264 4.83591L125.888 11.2679H125.456L128.112 4.83591C128.197 4.64391 128.288 4.51058 128.384 4.43591C128.48 4.36125 128.618 4.32391 128.8 4.32391C128.97 4.32391 129.098 4.36658 129.184 4.45191C129.28 4.53725 129.333 4.64925 129.344 4.78791C129.365 4.91591 129.344 5.05991 129.28 5.21991L125.184 14.6919C125.098 14.8839 125.002 15.0172 124.896 15.0919C124.8 15.1666 124.661 15.2039 124.48 15.2039ZM131.29 15.2039C131.077 15.2039 130.917 15.1452 130.81 15.0279C130.704 14.9212 130.65 14.7612 130.65 14.5479V4.97991C130.65 4.76658 130.704 4.60658 130.81 4.49991C130.917 4.38258 131.072 4.32391 131.274 4.32391C131.488 4.32391 131.648 4.38258 131.754 4.49991C131.872 4.60658 131.93 4.76658 131.93 4.97991V6.49991L131.754 6.27591C131.925 5.66791 132.261 5.18791 132.762 4.83591C133.274 4.47325 133.882 4.29191 134.586 4.29191C135.28 4.29191 135.882 4.45725 136.394 4.78791C136.917 5.10791 137.317 5.57191 137.594 6.17991C137.882 6.77725 138.026 7.49191 138.026 8.32391C138.026 9.14525 137.882 9.85991 137.594 10.4679C137.317 11.0652 136.922 11.5292 136.41 11.8599C135.898 12.1906 135.29 12.3559 134.586 12.3559C133.882 12.3559 133.28 12.1799 132.778 11.8279C132.277 11.4652 131.936 10.9852 131.754 10.3879H131.946V14.5479C131.946 14.7612 131.888 14.9212 131.77 15.0279C131.653 15.1452 131.493 15.2039 131.29 15.2039ZM134.314 11.3159C134.805 11.3159 135.226 11.1986 135.578 10.9639C135.941 10.7292 136.218 10.3879 136.41 9.93991C136.613 9.49191 136.714 8.95325 136.714 8.32391C136.714 7.35325 136.496 6.61191 136.058 6.09991C135.632 5.58791 135.05 5.33191 134.314 5.33191C133.834 5.33191 133.413 5.44925 133.05 5.68391C132.688 5.90791 132.405 6.24391 132.202 6.69191C132.01 7.12925 131.914 7.67325 131.914 8.32391C131.914 9.28391 132.133 10.0252 132.57 10.5479C133.008 11.0599 133.589 11.3159 134.314 11.3159ZM143.163 12.3559C142.341 12.3559 141.632 12.1959 141.035 11.8759C140.448 11.5452 139.989 11.0812 139.659 10.4839C139.339 9.88658 139.179 9.17191 139.179 8.33991C139.179 7.52925 139.339 6.82525 139.659 6.22791C139.979 5.61991 140.416 5.14525 140.971 4.80391C141.536 4.46258 142.187 4.29191 142.923 4.29191C143.445 4.29191 143.915 4.38258 144.331 4.56391C144.747 4.73458 145.099 4.98525 145.387 5.31591C145.685 5.64658 145.909 6.04658 146.059 6.51591C146.219 6.98525 146.299 7.51325 146.299 8.09991C146.299 8.27058 146.251 8.39858 146.155 8.48391C146.059 8.55858 145.92 8.59591 145.739 8.59591H140.171V7.74791H145.435L145.179 7.95591C145.179 7.37991 145.093 6.89458 144.923 6.49991C144.752 6.09458 144.501 5.78525 144.171 5.57191C143.851 5.35858 143.445 5.25191 142.955 5.25191C142.411 5.25191 141.947 5.37991 141.563 5.63591C141.189 5.88125 140.907 6.22791 140.715 6.67591C140.523 7.11325 140.427 7.62525 140.427 8.21191V8.30791C140.427 9.28925 140.661 10.0359 141.131 10.5479C141.611 11.0599 142.288 11.3159 143.163 11.3159C143.525 11.3159 143.883 11.2679 144.235 11.1719C144.597 11.0759 144.949 10.9159 145.291 10.6919C145.44 10.5959 145.573 10.5532 145.691 10.5639C145.819 10.5639 145.92 10.6012 145.995 10.6759C146.069 10.7399 146.117 10.8252 146.139 10.9319C146.171 11.0279 146.16 11.1346 146.107 11.2519C146.064 11.3692 145.973 11.4706 145.835 11.5559C145.483 11.8119 145.067 12.0092 144.587 12.1479C144.107 12.2866 143.632 12.3559 143.163 12.3559ZM148.51 12.3239C148.297 12.3239 148.131 12.2652 148.014 12.1479C147.907 12.0306 147.854 11.8652 147.854 11.6519V4.97991C147.854 4.76658 147.907 4.60658 148.014 4.49991C148.121 4.38258 148.275 4.32391 148.478 4.32391C148.681 4.32391 148.835 4.38258 148.942 4.49991C149.059 4.60658 149.118 4.76658 149.118 4.97991V6.27591H148.958C149.129 5.64658 149.454 5.16125 149.934 4.81991C150.414 4.47858 151.006 4.29725 151.71 4.27591C151.87 4.26525 151.998 4.30258 152.094 4.38791C152.19 4.46258 152.243 4.59591 152.254 4.78791C152.265 4.96925 152.222 5.11325 152.126 5.21991C152.03 5.32658 151.881 5.39058 151.678 5.41191L151.422 5.44391C150.697 5.50791 150.137 5.74258 149.742 6.14791C149.358 6.54258 149.166 7.08658 149.166 7.77991V11.6519C149.166 11.8652 149.107 12.0306 148.99 12.1479C148.883 12.2652 148.723 12.3239 148.51 12.3239ZM154.746 12.3239C154.544 12.3239 154.384 12.2652 154.266 12.1479C154.16 12.0306 154.106 11.8652 154.106 11.6519V5.44391H153.082C152.912 5.44391 152.773 5.40125 152.666 5.31591C152.57 5.21991 152.522 5.09191 152.522 4.93191C152.522 4.77191 152.57 4.64925 152.666 4.56391C152.773 4.47858 152.912 4.43591 153.082 4.43591H154.458L154.106 4.77191V4.16391C154.106 3.16125 154.346 2.39325 154.826 1.85991C155.317 1.32658 156.037 1.02258 156.986 0.947913L157.466 0.899914C157.626 0.889247 157.754 0.915914 157.85 0.979914C157.946 1.03325 158.005 1.10791 158.026 1.20391C158.058 1.29991 158.064 1.40125 158.042 1.50791C158.021 1.61458 157.973 1.70525 157.898 1.77991C157.834 1.85458 157.754 1.89725 157.658 1.90791L157.178 1.93991C156.549 1.98258 156.096 2.17991 155.818 2.53191C155.541 2.87325 155.402 3.36391 155.402 4.00391V4.67591L155.21 4.43591H159.562C159.765 4.43591 159.92 4.49458 160.026 4.61191C160.144 4.72925 160.202 4.89991 160.202 5.12391V11.5879C160.202 11.8119 160.149 11.9879 160.042 12.1159C159.936 12.2332 159.776 12.2919 159.562 12.2919C159.349 12.2919 159.184 12.2332 159.066 12.1159C158.96 11.9879 158.906 11.8119 158.906 11.5879V5.44391H155.402V11.6519C155.402 12.0999 155.184 12.3239 154.746 12.3239ZM159.578 2.56391C159.312 2.56391 159.104 2.49458 158.954 2.35591C158.816 2.20658 158.746 2.00925 158.746 1.76391C158.746 1.50791 158.816 1.31591 158.954 1.18791C159.104 1.04925 159.312 0.979914 159.578 0.979914C159.845 0.979914 160.048 1.04925 160.186 1.18791C160.336 1.31591 160.41 1.50791 160.41 1.76391C160.41 2.00925 160.336 2.20658 160.186 2.35591C160.048 2.49458 159.845 2.56391 159.578 2.56391ZM162.948 12.3239C162.735 12.3239 162.575 12.2652 162.468 12.1479C162.361 12.0306 162.308 11.8652 162.308 11.6519V4.97991C162.308 4.76658 162.361 4.60658 162.468 4.49991C162.575 4.38258 162.729 4.32391 162.932 4.32391C163.135 4.32391 163.289 4.38258 163.396 4.49991C163.513 4.60658 163.572 4.76658 163.572 4.97991V6.35591L163.396 6.16391C163.62 5.54525 163.983 5.08125 164.484 4.77191C164.996 4.45191 165.583 4.29191 166.244 4.29191C166.863 4.29191 167.375 4.40391 167.78 4.62791C168.196 4.85191 168.505 5.19325 168.708 5.65191C168.911 6.09991 169.012 6.67058 169.012 7.36391V11.6519C169.012 11.8652 168.953 12.0306 168.836 12.1479C168.729 12.2652 168.575 12.3239 168.372 12.3239C168.159 12.3239 167.993 12.2652 167.876 12.1479C167.769 12.0306 167.716 11.8652 167.716 11.6519V7.44391C167.716 6.71858 167.572 6.19058 167.284 5.85991C167.007 5.51858 166.559 5.34791 165.94 5.34791C165.225 5.34791 164.655 5.57191 164.228 6.01991C163.812 6.45725 163.604 7.04391 163.604 7.77991V11.6519C163.604 12.0999 163.385 12.3239 162.948 12.3239ZM174.586 12.3559C173.764 12.3559 173.055 12.1959 172.458 11.8759C171.871 11.5452 171.412 11.0812 171.082 10.4839C170.762 9.88658 170.602 9.17191 170.602 8.33991C170.602 7.52925 170.762 6.82525 171.082 6.22791C171.402 5.61991 171.839 5.14525 172.394 4.80391C172.959 4.46258 173.61 4.29191 174.346 4.29191C174.868 4.29191 175.338 4.38258 175.754 4.56391C176.17 4.73458 176.522 4.98525 176.81 5.31591C177.108 5.64658 177.332 6.04658 177.482 6.51591C177.642 6.98525 177.722 7.51325 177.722 8.09991C177.722 8.27058 177.674 8.39858 177.578 8.48391C177.482 8.55858 177.343 8.59591 177.162 8.59591H171.594V7.74791H176.858L176.602 7.95591C176.602 7.37991 176.516 6.89458 176.346 6.49991C176.175 6.09458 175.924 5.78525 175.594 5.57191C175.274 5.35858 174.868 5.25191 174.378 5.25191C173.834 5.25191 173.37 5.37991 172.986 5.63591C172.612 5.88125 172.33 6.22791 172.138 6.67591C171.946 7.11325 171.85 7.62525 171.85 8.21191V8.30791C171.85 9.28925 172.084 10.0359 172.554 10.5479C173.034 11.0599 173.711 11.3159 174.586 11.3159C174.948 11.3159 175.306 11.2679 175.658 11.1719C176.02 11.0759 176.372 10.9159 176.714 10.6919C176.863 10.5959 176.996 10.5532 177.114 10.5639C177.242 10.5639 177.343 10.6012 177.418 10.6759C177.492 10.7399 177.54 10.8252 177.562 10.9319C177.594 11.0279 177.583 11.1346 177.53 11.2519C177.487 11.3692 177.396 11.4706 177.258 11.5559C176.906 11.8119 176.49 12.0092 176.01 12.1479C175.53 12.2866 175.055 12.3559 174.586 12.3559ZM185.061 7.74791C184.89 7.74791 184.757 7.69991 184.661 7.60391C184.565 7.50791 184.517 7.37458 184.517 7.20391V1.39591C184.517 1.26791 184.538 1.16658 184.581 1.09191C184.634 1.00658 184.698 0.947914 184.773 0.915914C184.858 0.873247 184.949 0.851913 185.045 0.851913C185.205 0.851913 185.322 0.87858 185.397 0.931913C185.482 0.985247 185.562 1.08125 185.637 1.21991L188.053 5.57191H187.733L190.133 1.21991C190.218 1.08125 190.298 0.985247 190.373 0.931913C190.458 0.87858 190.581 0.851913 190.741 0.851913C190.879 0.851913 190.997 0.899913 191.093 0.995914C191.199 1.08125 191.253 1.21458 191.253 1.39591V7.20391C191.253 7.56658 191.082 7.74791 190.741 7.74791C190.559 7.74791 190.421 7.69991 190.325 7.60391C190.239 7.50791 190.197 7.37458 190.197 7.20391V2.57991H190.469L188.309 6.46791C188.255 6.55325 188.191 6.61725 188.117 6.65991C188.053 6.70258 187.978 6.72391 187.893 6.72391C187.807 6.72391 187.727 6.70258 187.653 6.65991C187.589 6.61725 187.53 6.55325 187.477 6.46791L185.301 2.57991H185.589V7.20391C185.589 7.56658 185.413 7.74791 185.061 7.74791ZM180.677 7.74791C180.485 7.74791 180.341 7.69458 180.245 7.58791C180.149 7.48125 180.101 7.33191 180.101 7.13991V1.92391H178.325C178.143 1.92391 178.005 1.88125 177.909 1.79591C177.823 1.71058 177.781 1.58791 177.781 1.42791C177.781 1.26791 177.823 1.14525 177.909 1.05991C178.005 0.97458 178.143 0.931913 178.325 0.931913H183.061C183.231 0.931913 183.359 0.97458 183.445 1.05991C183.541 1.14525 183.589 1.26791 183.589 1.42791C183.589 1.58791 183.541 1.71058 183.445 1.79591C183.359 1.88125 183.231 1.92391 183.061 1.92391H181.285V7.13991C181.285 7.33191 181.231 7.48125 181.125 7.58791C181.029 7.69458 180.879 7.74791 180.677 7.74791ZM199.695 12.3559C199.161 12.3559 198.681 12.2546 198.255 12.0519C197.839 11.8386 197.508 11.5506 197.263 11.1879C197.017 10.8252 196.895 10.4199 196.895 9.97191C196.895 9.39591 197.039 8.94258 197.327 8.61191C197.625 8.28125 198.111 8.04658 198.783 7.90791C199.465 7.76925 200.393 7.69991 201.567 7.69991H202.287V8.54791H201.583C200.719 8.54791 200.036 8.59058 199.535 8.67591C199.044 8.75058 198.697 8.88391 198.495 9.07591C198.303 9.26791 198.207 9.53991 198.207 9.89191C198.207 10.3292 198.356 10.6866 198.655 10.9639C198.964 11.2412 199.38 11.3799 199.903 11.3799C200.329 11.3799 200.703 11.2786 201.023 11.0759C201.353 10.8732 201.609 10.5959 201.791 10.2439C201.983 9.89191 202.079 9.48658 202.079 9.02791V7.20391C202.079 6.54258 201.945 6.06791 201.679 5.77991C201.412 5.48125 200.975 5.33191 200.367 5.33191C199.993 5.33191 199.62 5.37991 199.247 5.47591C198.873 5.57191 198.479 5.72658 198.063 5.93991C197.913 6.01458 197.785 6.04125 197.679 6.01991C197.572 5.98791 197.487 5.92925 197.423 5.84391C197.359 5.75858 197.321 5.66258 197.311 5.55591C197.3 5.43858 197.321 5.32658 197.375 5.21991C197.439 5.11325 197.535 5.02791 197.663 4.96391C198.132 4.72925 198.596 4.55858 199.055 4.45191C199.513 4.34525 199.951 4.29191 200.367 4.29191C201.039 4.29191 201.593 4.40391 202.031 4.62791C202.468 4.84125 202.793 5.17191 203.007 5.61991C203.22 6.05725 203.327 6.62258 203.327 7.31591V11.6519C203.327 11.8652 203.273 12.0306 203.167 12.1479C203.071 12.2652 202.927 12.3239 202.735 12.3239C202.532 12.3239 202.377 12.2652 202.271 12.1479C202.164 12.0306 202.111 11.8652 202.111 11.6519V10.4039H202.255C202.169 10.8092 202.004 11.1559 201.759 11.4439C201.524 11.7319 201.231 11.9559 200.879 12.1159C200.527 12.2759 200.132 12.3559 199.695 12.3559ZM206.067 12.3239C205.854 12.3239 205.688 12.2652 205.571 12.1479C205.464 12.0306 205.411 11.8652 205.411 11.6519V4.97991C205.411 4.76658 205.464 4.60658 205.571 4.49991C205.678 4.38258 205.832 4.32391 206.035 4.32391C206.238 4.32391 206.392 4.38258 206.499 4.49991C206.616 4.60658 206.675 4.76658 206.675 4.97991V6.27591H206.515C206.686 5.64658 207.011 5.16125 207.491 4.81991C207.971 4.47858 208.563 4.29725 209.267 4.27591C209.427 4.26525 209.555 4.30258 209.651 4.38791C209.747 4.46258 209.8 4.59591 209.811 4.78791C209.822 4.96925 209.779 5.11325 209.683 5.21991C209.587 5.32658 209.438 5.39058 209.235 5.41191L208.979 5.44391C208.254 5.50791 207.694 5.74258 207.299 6.14791C206.915 6.54258 206.723 7.08658 206.723 7.77991V11.6519C206.723 11.8652 206.664 12.0306 206.547 12.1479C206.44 12.2652 206.28 12.3239 206.067 12.3239ZM214.236 12.3559C213.414 12.3559 212.705 12.1959 212.108 11.8759C211.521 11.5452 211.062 11.0812 210.732 10.4839C210.412 9.88658 210.252 9.17191 210.252 8.33991C210.252 7.52925 210.412 6.82525 210.732 6.22791C211.052 5.61991 211.489 5.14525 212.044 4.80391C212.609 4.46258 213.26 4.29191 213.996 4.29191C214.518 4.29191 214.988 4.38258 215.404 4.56391C215.82 4.73458 216.172 4.98525 216.46 5.31591C216.758 5.64658 216.982 6.04658 217.132 6.51591C217.292 6.98525 217.372 7.51325 217.372 8.09991C217.372 8.27058 217.324 8.39858 217.228 8.48391C217.132 8.55858 216.993 8.59591 216.812 8.59591H211.244V7.74791H216.508L216.252 7.95591C216.252 7.37991 216.166 6.89458 215.996 6.49991C215.825 6.09458 215.574 5.78525 215.244 5.57191C214.924 5.35858 214.518 5.25191 214.028 5.25191C213.484 5.25191 213.02 5.37991 212.636 5.63591C212.262 5.88125 211.98 6.22791 211.788 6.67591C211.596 7.11325 211.5 7.62525 211.5 8.21191V8.30791C211.5 9.28925 211.734 10.0359 212.204 10.5479C212.684 11.0599 213.361 11.3159 214.236 11.3159C214.598 11.3159 214.956 11.2679 215.308 11.1719C215.67 11.0759 216.022 10.9159 216.364 10.6919C216.513 10.5959 216.646 10.5532 216.764 10.5639C216.892 10.5639 216.993 10.6012 217.068 10.6759C217.142 10.7399 217.19 10.8252 217.212 10.9319C217.244 11.0279 217.233 11.1346 217.18 11.2519C217.137 11.3692 217.046 11.4706 216.908 11.5559C216.556 11.8119 216.14 12.0092 215.66 12.1479C215.18 12.2866 214.705 12.3559 214.236 12.3559ZM225.852 12.3559C225.244 12.3559 224.732 12.2492 224.316 12.0359C223.911 11.8119 223.607 11.4919 223.404 11.0759C223.202 10.6492 223.1 10.1319 223.1 9.52391V5.44391H222.028C221.847 5.44391 221.708 5.40125 221.612 5.31591C221.516 5.21991 221.468 5.09191 221.468 4.93191C221.468 4.77191 221.516 4.64925 221.612 4.56391C221.708 4.47858 221.847 4.43591 222.028 4.43591H223.1V2.59591C223.1 2.38258 223.159 2.22258 223.276 2.11591C223.394 1.99858 223.554 1.93991 223.756 1.93991C223.959 1.93991 224.114 1.99858 224.22 2.11591C224.338 2.22258 224.396 2.38258 224.396 2.59591V4.43591H226.412C226.594 4.43591 226.732 4.47858 226.828 4.56391C226.924 4.64925 226.972 4.77191 226.972 4.93191C226.972 5.09191 226.924 5.21991 226.828 5.31591C226.732 5.40125 226.594 5.44391 226.412 5.44391H224.396V9.39591C224.396 10.0039 224.524 10.4679 224.78 10.7879C225.036 11.0972 225.452 11.2519 226.028 11.2519C226.231 11.2519 226.402 11.2306 226.54 11.1879C226.69 11.1452 226.812 11.1239 226.908 11.1239C227.004 11.1132 227.084 11.1452 227.148 11.2199C227.212 11.2946 227.244 11.4226 227.244 11.6039C227.244 11.7319 227.218 11.8492 227.164 11.9559C227.122 12.0626 227.042 12.1372 226.924 12.1799C226.796 12.2226 226.626 12.2599 226.412 12.2919C226.21 12.3346 226.023 12.3559 225.852 12.3559ZM228.662 12.3239C228.449 12.3239 228.283 12.2652 228.166 12.1479C228.059 12.0306 228.006 11.8652 228.006 11.6519V4.97991C228.006 4.76658 228.059 4.60658 228.166 4.49991C228.273 4.38258 228.427 4.32391 228.63 4.32391C228.833 4.32391 228.987 4.38258 229.094 4.49991C229.211 4.60658 229.27 4.76658 229.27 4.97991V6.27591H229.11C229.281 5.64658 229.606 5.16125 230.086 4.81991C230.566 4.47858 231.158 4.29725 231.862 4.27591C232.022 4.26525 232.15 4.30258 232.246 4.38791C232.342 4.46258 232.395 4.59591 232.406 4.78791C232.417 4.96925 232.374 5.11325 232.278 5.21991C232.182 5.32658 232.033 5.39058 231.83 5.41191L231.574 5.44391C230.849 5.50791 230.289 5.74258 229.894 6.14791C229.51 6.54258 229.318 7.08658 229.318 7.77991V11.6519C229.318 11.8652 229.259 12.0306 229.142 12.1479C229.035 12.2652 228.875 12.3239 228.662 12.3239ZM235.79 12.3559C235.257 12.3559 234.777 12.2546 234.35 12.0519C233.934 11.8386 233.604 11.5506 233.358 11.1879C233.113 10.8252 232.99 10.4199 232.99 9.97191C232.99 9.39591 233.134 8.94258 233.422 8.61191C233.721 8.28125 234.206 8.04658 234.878 7.90791C235.561 7.76925 236.489 7.69991 237.662 7.69991H238.382V8.54791H237.678C236.814 8.54791 236.132 8.59058 235.63 8.67591C235.14 8.75058 234.793 8.88391 234.59 9.07591C234.398 9.26791 234.302 9.53991 234.302 9.89191C234.302 10.3292 234.452 10.6866 234.75 10.9639C235.06 11.2412 235.476 11.3799 235.998 11.3799C236.425 11.3799 236.798 11.2786 237.118 11.0759C237.449 10.8732 237.705 10.5959 237.886 10.2439C238.078 9.89191 238.174 9.48658 238.174 9.02791V7.20391C238.174 6.54258 238.041 6.06791 237.774 5.77991C237.508 5.48125 237.07 5.33191 236.462 5.33191C236.089 5.33191 235.716 5.37991 235.342 5.47591C234.969 5.57191 234.574 5.72658 234.158 5.93991C234.009 6.01458 233.881 6.04125 233.774 6.01991C233.668 5.98791 233.582 5.92925 233.518 5.84391C233.454 5.75858 233.417 5.66258 233.406 5.55591C233.396 5.43858 233.417 5.32658 233.47 5.21991C233.534 5.11325 233.63 5.02791 233.758 4.96391C234.228 4.72925 234.692 4.55858 235.15 4.45191C235.609 4.34525 236.046 4.29191 236.462 4.29191C237.134 4.29191 237.689 4.40391 238.126 4.62791C238.564 4.84125 238.889 5.17191 239.102 5.61991C239.316 6.05725 239.422 6.62258 239.422 7.31591V11.6519C239.422 11.8652 239.369 12.0306 239.262 12.1479C239.166 12.2652 239.022 12.3239 238.83 12.3239C238.628 12.3239 238.473 12.2652 238.366 12.1479C238.26 12.0306 238.206 11.8652 238.206 11.6519V10.4039H238.35C238.265 10.8092 238.1 11.1559 237.854 11.4439C237.62 11.7319 237.326 11.9559 236.974 12.1159C236.622 12.2759 236.228 12.3559 235.79 12.3559ZM244.467 12.3559C243.773 12.3559 243.165 12.1906 242.643 11.8599C242.131 11.5292 241.731 11.0652 241.443 10.4679C241.165 9.85991 241.027 9.14525 241.027 8.32391C241.027 7.49191 241.165 6.77725 241.443 6.17991C241.731 5.57191 242.131 5.10791 242.643 4.78791C243.165 4.45725 243.773 4.29191 244.467 4.29191C245.171 4.29191 245.773 4.46791 246.275 4.81991C246.776 5.17191 247.112 5.64658 247.283 6.24391H247.107V1.47591C247.107 1.26258 247.16 1.10258 247.267 0.995914C247.384 0.87858 247.549 0.819914 247.763 0.819914C247.965 0.819914 248.12 0.87858 248.227 0.995914C248.344 1.10258 248.403 1.26258 248.403 1.47591V11.6519C248.403 11.8652 248.349 12.0306 248.243 12.1479C248.136 12.2652 247.976 12.3239 247.763 12.3239C247.56 12.3239 247.4 12.2652 247.283 12.1479C247.176 12.0306 247.123 11.8652 247.123 11.6519V10.1319L247.299 10.3559C247.128 10.9639 246.787 11.4492 246.275 11.8119C245.773 12.1746 245.171 12.3559 244.467 12.3559ZM244.739 11.3159C245.219 11.3159 245.64 11.1986 246.003 10.9639C246.365 10.7292 246.643 10.3879 246.835 9.93991C247.037 9.49191 247.139 8.95325 247.139 8.32391C247.139 7.35325 246.92 6.61191 246.483 6.09991C246.056 5.58791 245.475 5.33191 244.739 5.33191C244.248 5.33191 243.821 5.44925 243.459 5.68391C243.107 5.90791 242.829 6.24391 242.627 6.69191C242.435 7.12925 242.339 7.67325 242.339 8.32391C242.339 9.28391 242.557 10.0252 242.995 10.5479C243.432 11.0599 244.013 11.3159 244.739 11.3159ZM254.019 12.3559C253.197 12.3559 252.488 12.1959 251.891 11.8759C251.304 11.5452 250.845 11.0812 250.515 10.4839C250.195 9.88658 250.035 9.17191 250.035 8.33991C250.035 7.52925 250.195 6.82525 250.515 6.22791C250.835 5.61991 251.272 5.14525 251.827 4.80391C252.392 4.46258 253.043 4.29191 253.779 4.29191C254.301 4.29191 254.771 4.38258 255.187 4.56391C255.603 4.73458 255.955 4.98525 256.243 5.31591C256.541 5.64658 256.765 6.04658 256.915 6.51591C257.075 6.98525 257.155 7.51325 257.155 8.09991C257.155 8.27058 257.107 8.39858 257.011 8.48391C256.915 8.55858 256.776 8.59591 256.595 8.59591H251.027V7.74791H256.291L256.035 7.95591C256.035 7.37991 255.949 6.89458 255.779 6.49991C255.608 6.09458 255.357 5.78525 255.027 5.57191C254.707 5.35858 254.301 5.25191 253.811 5.25191C253.267 5.25191 252.803 5.37991 252.419 5.63591C252.045 5.88125 251.763 6.22791 251.571 6.67591C251.379 7.11325 251.283 7.62525 251.283 8.21191V8.30791C251.283 9.28925 251.517 10.0359 251.987 10.5479C252.467 11.0599 253.144 11.3159 254.019 11.3159C254.381 11.3159 254.739 11.2679 255.091 11.1719C255.453 11.0759 255.805 10.9159 256.147 10.6919C256.296 10.5959 256.429 10.5532 256.547 10.5639C256.675 10.5639 256.776 10.6012 256.851 10.6759C256.925 10.7399 256.973 10.8252 256.995 10.9319C257.027 11.0279 257.016 11.1346 256.963 11.2519C256.92 11.3692 256.829 11.4706 256.691 11.5559C256.339 11.8119 255.923 12.0092 255.443 12.1479C254.963 12.2866 254.488 12.3559 254.019 12.3559ZM259.382 12.3239C259.169 12.3239 259.009 12.2652 258.902 12.1479C258.796 12.0306 258.742 11.8652 258.742 11.6519V4.97991C258.742 4.76658 258.796 4.60658 258.902 4.49991C259.009 4.38258 259.164 4.32391 259.366 4.32391C259.569 4.32391 259.724 4.38258 259.83 4.49991C259.948 4.60658 260.006 4.76658 260.006 4.97991V6.38791L259.83 6.16391C260.033 5.56658 260.358 5.10791 260.806 4.78791C261.265 4.45725 261.809 4.29191 262.438 4.29191C263.1 4.29191 263.633 4.45191 264.038 4.77191C264.454 5.08125 264.732 5.56658 264.87 6.22791H264.63C264.822 5.63058 265.164 5.16125 265.654 4.81991C266.156 4.46791 266.737 4.29191 267.398 4.29191C267.985 4.29191 268.465 4.40391 268.838 4.62791C269.222 4.85191 269.51 5.19325 269.702 5.65191C269.894 6.09991 269.99 6.67058 269.99 7.36391V11.6519C269.99 11.8652 269.932 12.0306 269.814 12.1479C269.708 12.2652 269.548 12.3239 269.334 12.3239C269.132 12.3239 268.972 12.2652 268.854 12.1479C268.748 12.0306 268.694 11.8652 268.694 11.6519V7.42791C268.694 6.71325 268.572 6.19058 268.326 5.85991C268.081 5.51858 267.665 5.34791 267.078 5.34791C266.438 5.34791 265.932 5.57191 265.558 6.01991C265.196 6.45725 265.014 7.05458 265.014 7.81191V11.6519C265.014 11.8652 264.956 12.0306 264.838 12.1479C264.732 12.2652 264.572 12.3239 264.358 12.3239C264.156 12.3239 263.996 12.2652 263.878 12.1479C263.772 12.0306 263.718 11.8652 263.718 11.6519V7.42791C263.718 6.71325 263.59 6.19058 263.334 5.85991C263.089 5.51858 262.678 5.34791 262.102 5.34791C261.462 5.34791 260.956 5.57191 260.582 6.01991C260.22 6.45725 260.038 7.05458 260.038 7.81191V11.6519C260.038 12.0999 259.82 12.3239 259.382 12.3239ZM274.542 12.3559C274.008 12.3559 273.528 12.2546 273.102 12.0519C272.686 11.8386 272.355 11.5506 272.11 11.1879C271.864 10.8252 271.742 10.4199 271.742 9.97191C271.742 9.39591 271.886 8.94258 272.174 8.61191C272.472 8.28125 272.958 8.04658 273.63 7.90791C274.312 7.76925 275.24 7.69991 276.414 7.69991H277.134V8.54791H276.43C275.566 8.54791 274.883 8.59058 274.382 8.67591C273.891 8.75058 273.544 8.88391 273.342 9.07591C273.15 9.26791 273.054 9.53991 273.054 9.89191C273.054 10.3292 273.203 10.6866 273.502 10.9639C273.811 11.2412 274.227 11.3799 274.75 11.3799C275.176 11.3799 275.55 11.2786 275.87 11.0759C276.2 10.8732 276.456 10.5959 276.638 10.2439C276.83 9.89191 276.926 9.48658 276.926 9.02791V7.20391C276.926 6.54258 276.792 6.06791 276.526 5.77991C276.259 5.48125 275.822 5.33191 275.214 5.33191C274.84 5.33191 274.467 5.37991 274.094 5.47591C273.72 5.57191 273.326 5.72658 272.91 5.93991C272.76 6.01458 272.632 6.04125 272.526 6.01991C272.419 5.98791 272.334 5.92925 272.27 5.84391C272.206 5.75858 272.168 5.66258 272.158 5.55591C272.147 5.43858 272.168 5.32658 272.222 5.21991C272.286 5.11325 272.382 5.02791 272.51 4.96391C272.979 4.72925 273.443 4.55858 273.902 4.45191C274.36 4.34525 274.798 4.29191 275.214 4.29191C275.886 4.29191 276.44 4.40391 276.878 4.62791C277.315 4.84125 277.64 5.17191 277.854 5.61991C278.067 6.05725 278.174 6.62258 278.174 7.31591V11.6519C278.174 11.8652 278.12 12.0306 278.014 12.1479C277.918 12.2652 277.774 12.3239 277.582 12.3239C277.379 12.3239 277.224 12.2652 277.118 12.1479C277.011 12.0306 276.958 11.8652 276.958 11.6519V10.4039H277.102C277.016 10.8092 276.851 11.1559 276.606 11.4439C276.371 11.7319 276.078 11.9559 275.726 12.1159C275.374 12.2759 274.979 12.3559 274.542 12.3559ZM280.914 12.3239C280.701 12.3239 280.535 12.2652 280.418 12.1479C280.311 12.0306 280.258 11.8652 280.258 11.6519V4.97991C280.258 4.76658 280.311 4.60658 280.418 4.49991C280.525 4.38258 280.679 4.32391 280.882 4.32391C281.085 4.32391 281.239 4.38258 281.346 4.49991C281.463 4.60658 281.522 4.76658 281.522 4.97991V6.27591H281.362C281.533 5.64658 281.858 5.16125 282.338 4.81991C282.818 4.47858 283.41 4.29725 284.114 4.27591C284.274 4.26525 284.402 4.30258 284.498 4.38791C284.594 4.46258 284.647 4.59591 284.658 4.78791C284.669 4.96925 284.626 5.11325 284.53 5.21991C284.434 5.32658 284.285 5.39058 284.082 5.41191L283.826 5.44391C283.101 5.50791 282.541 5.74258 282.146 6.14791C281.762 6.54258 281.57 7.08658 281.57 7.77991V11.6519C281.57 11.8652 281.511 12.0306 281.394 12.1479C281.287 12.2652 281.127 12.3239 280.914 12.3239ZM286.312 12.3239C286.099 12.3239 285.939 12.2652 285.832 12.1479C285.726 12.0306 285.672 11.8652 285.672 11.6519V1.47591C285.672 1.26258 285.726 1.10258 285.832 0.995914C285.939 0.87858 286.099 0.819914 286.312 0.819914C286.515 0.819914 286.675 0.87858 286.792 0.995914C286.91 1.10258 286.968 1.26258 286.968 1.47591V7.89191H287L290.28 4.75591C290.43 4.61725 290.558 4.51058 290.664 4.43591C290.782 4.36125 290.936 4.32391 291.128 4.32391C291.299 4.32391 291.432 4.37191 291.528 4.46791C291.624 4.55325 291.667 4.66525 291.656 4.80391C291.656 4.93191 291.592 5.07058 291.464 5.21991L287.976 8.53191V7.82791L291.768 11.3959C291.918 11.5452 291.992 11.6892 291.992 11.8279C291.992 11.9666 291.939 12.0839 291.832 12.1799C291.736 12.2759 291.608 12.3239 291.448 12.3239C291.256 12.3239 291.102 12.2866 290.984 12.2119C290.867 12.1266 290.723 12.0039 290.552 11.8439L287 8.56391H286.968V11.6519C286.968 12.0999 286.75 12.3239 286.312 12.3239ZM295.836 12.3559C295.356 12.3559 294.87 12.2972 294.38 12.1799C293.9 12.0626 293.452 11.8599 293.036 11.5719C292.929 11.4972 292.854 11.4119 292.812 11.3159C292.769 11.2092 292.753 11.1079 292.764 11.0119C292.785 10.9052 292.828 10.8146 292.892 10.7399C292.966 10.6652 293.052 10.6226 293.148 10.6119C293.254 10.5906 293.372 10.6119 293.5 10.6759C293.916 10.9319 294.316 11.1132 294.7 11.2199C295.094 11.3159 295.484 11.3639 295.868 11.3639C296.476 11.3639 296.934 11.2519 297.244 11.0279C297.553 10.8039 297.708 10.4999 297.708 10.1159C297.708 9.81725 297.606 9.58258 297.404 9.41191C297.201 9.23058 296.881 9.09191 296.444 8.99591L294.988 8.67591C294.316 8.53725 293.814 8.29725 293.484 7.95591C293.164 7.61458 293.004 7.17191 293.004 6.62791C293.004 6.14791 293.126 5.73725 293.372 5.39591C293.628 5.04391 293.985 4.77191 294.444 4.57991C294.902 4.38791 295.436 4.29191 296.044 4.29191C296.513 4.29191 296.956 4.35591 297.372 4.48391C297.798 4.60125 298.182 4.79325 298.524 5.05991C298.63 5.13458 298.7 5.22525 298.732 5.33191C298.774 5.42791 298.78 5.52925 298.748 5.63591C298.726 5.73191 298.678 5.81725 298.604 5.89191C298.529 5.95591 298.438 5.99325 298.332 6.00391C298.225 6.01458 298.113 5.98258 297.996 5.90791C297.676 5.69458 297.35 5.53991 297.02 5.44391C296.689 5.33725 296.364 5.28391 296.044 5.28391C295.446 5.28391 294.993 5.40125 294.684 5.63591C294.374 5.87058 294.22 6.17991 294.22 6.56391C294.22 6.86258 294.316 7.10791 294.508 7.29991C294.7 7.49191 294.998 7.63058 295.404 7.71591L296.86 8.01991C297.553 8.16925 298.07 8.40925 298.412 8.73991C298.764 9.05991 298.94 9.49725 298.94 10.0519C298.94 10.7559 298.657 11.3159 298.092 11.7319C297.526 12.1479 296.774 12.3559 295.836 12.3559ZM307.632 12.3559C306.874 12.3559 306.218 12.1906 305.664 11.8599C305.109 11.5292 304.677 11.0652 304.368 10.4679C304.069 9.85991 303.92 9.14525 303.92 8.32391C303.92 7.70525 304.005 7.15058 304.176 6.65991C304.346 6.15858 304.597 5.73191 304.928 5.37991C305.258 5.02791 305.648 4.76125 306.096 4.57991C306.554 4.38791 307.066 4.29191 307.632 4.29191C308.389 4.29191 309.045 4.45725 309.6 4.78791C310.154 5.11858 310.581 5.58791 310.88 6.19591C311.189 6.79325 311.344 7.50258 311.344 8.32391C311.344 8.94258 311.258 9.49725 311.088 9.98791C310.917 10.4786 310.666 10.9052 310.336 11.2679C310.005 11.6199 309.61 11.8919 309.152 12.0839C308.704 12.2652 308.197 12.3559 307.632 12.3559ZM307.632 11.3159C308.112 11.3159 308.533 11.1986 308.896 10.9639C309.258 10.7292 309.536 10.3879 309.728 9.93991C309.93 9.49191 310.032 8.95325 310.032 8.32391C310.032 7.35325 309.813 6.61191 309.376 6.09991C308.949 5.58791 308.368 5.33191 307.632 5.33191C307.141 5.33191 306.714 5.44925 306.352 5.68391C306 5.90791 305.722 6.24391 305.52 6.69191C305.328 7.12925 305.232 7.67325 305.232 8.32391C305.232 9.28391 305.45 10.0252 305.888 10.5479C306.325 11.0599 306.906 11.3159 307.632 11.3159ZM313.948 12.3239C313.746 12.3239 313.586 12.2652 313.468 12.1479C313.362 12.0306 313.308 11.8652 313.308 11.6519V5.44391H312.284C312.114 5.44391 311.975 5.40125 311.868 5.31591C311.772 5.21991 311.724 5.09191 311.724 4.93191C311.724 4.77191 311.772 4.64925 311.868 4.56391C311.975 4.47858 312.114 4.43591 312.284 4.43591H313.66L313.308 4.77191V4.16391C313.308 3.15058 313.554 2.37725 314.044 1.84391C314.546 1.31058 315.276 1.00125 316.236 0.915914L316.7 0.867913C316.85 0.857247 316.967 0.883913 317.052 0.947913C317.148 1.01191 317.207 1.09191 317.228 1.18791C317.26 1.28391 317.266 1.38525 317.244 1.49191C317.223 1.58791 317.175 1.67325 317.1 1.74791C317.026 1.82258 316.935 1.86525 316.828 1.87591L316.46 1.90791C315.81 1.96125 315.335 2.15858 315.036 2.49991C314.748 2.84125 314.604 3.34258 314.604 4.00391V4.67591L314.412 4.43591H316.332C316.514 4.43591 316.652 4.47858 316.748 4.56391C316.844 4.64925 316.892 4.77191 316.892 4.93191C316.892 5.09191 316.844 5.21991 316.748 5.31591C316.652 5.40125 316.514 5.44391 316.332 5.44391H314.604V11.6519C314.604 12.0999 314.386 12.3239 313.948 12.3239ZM325.497 12.3239C325.305 12.3239 325.151 12.2759 325.033 12.1799C324.916 12.0732 324.82 11.9186 324.745 11.7159L321.209 1.61991C321.135 1.39591 321.151 1.20925 321.257 1.05991C321.375 0.899914 321.556 0.819914 321.801 0.819914C321.983 0.819914 322.127 0.867914 322.233 0.963914C322.34 1.04925 322.431 1.18791 322.505 1.37991L325.817 11.0919H325.257L328.633 1.42791C328.708 1.22525 328.799 1.07591 328.905 0.979914C329.012 0.873247 329.156 0.819914 329.337 0.819914C329.508 0.819914 329.641 0.873247 329.737 0.979914C329.844 1.07591 329.935 1.22525 330.009 1.42791L333.337 11.0919H332.841L336.185 1.37991C336.239 1.19858 336.319 1.05991 336.425 0.963914C336.543 0.867914 336.692 0.819914 336.873 0.819914C337.097 0.819914 337.263 0.894581 337.369 1.04391C337.476 1.19325 337.487 1.38525 337.401 1.61991L333.849 11.7159C333.775 11.9186 333.679 12.0732 333.561 12.1799C333.455 12.2759 333.3 12.3239 333.097 12.3239C332.905 12.3239 332.751 12.2759 332.633 12.1799C332.527 12.0732 332.431 11.9186 332.345 11.7159L329.129 2.45191H329.481L326.233 11.7159C326.159 11.9186 326.068 12.0732 325.961 12.1799C325.855 12.2759 325.7 12.3239 325.497 12.3239ZM341.289 12.3559C340.532 12.3559 339.876 12.1906 339.321 11.8599C338.767 11.5292 338.335 11.0652 338.025 10.4679C337.727 9.85991 337.577 9.14525 337.577 8.32391C337.577 7.70525 337.663 7.15058 337.833 6.65991C338.004 6.15858 338.255 5.73191 338.585 5.37991C338.916 5.02791 339.305 4.76125 339.753 4.57991C340.212 4.38791 340.724 4.29191 341.289 4.29191C342.047 4.29191 342.703 4.45725 343.257 4.78791C343.812 5.11858 344.239 5.58791 344.537 6.19591C344.847 6.79325 345.001 7.50258 345.001 8.32391C345.001 8.94258 344.916 9.49725 344.745 9.98791C344.575 10.4786 344.324 10.9052 343.993 11.2679C343.663 11.6199 343.268 11.8919 342.809 12.0839C342.361 12.2652 341.855 12.3559 341.289 12.3559ZM341.289 11.3159C341.769 11.3159 342.191 11.1986 342.553 10.9639C342.916 10.7292 343.193 10.3879 343.385 9.93991C343.588 9.49191 343.689 8.95325 343.689 8.32391C343.689 7.35325 343.471 6.61191 343.033 6.09991C342.607 5.58791 342.025 5.33191 341.289 5.33191C340.799 5.33191 340.372 5.44925 340.009 5.68391C339.657 5.90791 339.38 6.24391 339.177 6.69191C338.985 7.12925 338.889 7.67325 338.889 8.32391C338.889 9.28391 339.108 10.0252 339.545 10.5479C339.983 11.0599 340.564 11.3159 341.289 11.3159ZM349.86 12.3559C349.103 12.3559 348.447 12.1906 347.892 11.8599C347.337 11.5292 346.905 11.0652 346.596 10.4679C346.297 9.85991 346.148 9.14525 346.148 8.32391C346.148 7.70525 346.233 7.15058 346.404 6.65991C346.575 6.15858 346.825 5.73191 347.156 5.37991C347.487 5.02791 347.876 4.76125 348.324 4.57991C348.783 4.38791 349.295 4.29191 349.86 4.29191C350.617 4.29191 351.273 4.45725 351.828 4.78791C352.383 5.11858 352.809 5.58791 353.108 6.19591C353.417 6.79325 353.572 7.50258 353.572 8.32391C353.572 8.94258 353.487 9.49725 353.316 9.98791C353.145 10.4786 352.895 10.9052 352.564 11.2679C352.233 11.6199 351.839 11.8919 351.38 12.0839C350.932 12.2652 350.425 12.3559 349.86 12.3559ZM349.86 11.3159C350.34 11.3159 350.761 11.1986 351.124 10.9639C351.487 10.7292 351.764 10.3879 351.956 9.93991C352.159 9.49191 352.26 8.95325 352.26 8.32391C352.26 7.35325 352.041 6.61191 351.604 6.09991C351.177 5.58791 350.596 5.33191 349.86 5.33191C349.369 5.33191 348.943 5.44925 348.58 5.68391C348.228 5.90791 347.951 6.24391 347.748 6.69191C347.556 7.12925 347.46 7.67325 347.46 8.32391C347.46 9.28391 347.679 10.0252 348.116 10.5479C348.553 11.0599 349.135 11.3159 349.86 11.3159ZM357.567 12.3559C356.799 12.3559 356.212 12.1212 355.807 11.6519C355.401 11.1826 355.199 10.5106 355.199 9.63591V1.47591C355.199 1.26258 355.252 1.10258 355.359 0.995914C355.465 0.87858 355.625 0.819914 355.839 0.819914C356.041 0.819914 356.201 0.87858 356.319 0.995914C356.436 1.10258 356.495 1.26258 356.495 1.47591V9.53991C356.495 10.1159 356.607 10.5479 356.831 10.8359C357.065 11.1132 357.407 11.2519 357.855 11.2519C357.951 11.2519 358.036 11.2466 358.111 11.2359C358.185 11.2252 358.26 11.2199 358.335 11.2199C358.452 11.2092 358.532 11.2359 358.575 11.2999C358.628 11.3639 358.655 11.4919 358.655 11.6839C358.655 11.8759 358.612 12.0199 358.527 12.1159C358.441 12.2119 358.303 12.2759 358.111 12.3079C358.025 12.3186 357.935 12.3292 357.839 12.3399C357.743 12.3506 357.652 12.3559 357.567 12.3559ZM359.549 12.3239C359.378 12.3239 359.24 12.2866 359.133 12.2119C359.037 12.1266 358.978 12.0199 358.957 11.8919C358.946 11.7532 358.978 11.5986 359.053 11.4279L363.453 1.41191C363.549 1.19858 363.661 1.04925 363.789 0.963914C363.928 0.867914 364.077 0.819914 364.237 0.819914C364.397 0.819914 364.541 0.867914 364.669 0.963914C364.808 1.04925 364.92 1.19858 365.005 1.41191L369.421 11.4279C369.506 11.5986 369.538 11.7532 369.517 11.8919C369.506 12.0306 369.453 12.1372 369.357 12.2119C369.261 12.2866 369.128 12.3239 368.957 12.3239C368.765 12.3239 368.61 12.2759 368.493 12.1799C368.376 12.0732 368.28 11.9239 368.205 11.7319L367.021 8.99591L367.661 9.33191H360.781L361.437 8.99591L360.269 11.7319C360.173 11.9346 360.072 12.0839 359.965 12.1799C359.858 12.2759 359.72 12.3239 359.549 12.3239ZM364.221 2.46791L361.645 8.53191L361.261 8.22791H367.181L366.829 8.53191L364.253 2.46791H364.221ZM371.589 12.2919C371.376 12.2919 371.216 12.2332 371.109 12.1159C371.002 11.9879 370.949 11.8119 370.949 11.5879V5.04391C370.949 4.81991 371.002 4.64925 371.109 4.53191C371.216 4.41458 371.376 4.35591 371.589 4.35591C371.792 4.35591 371.952 4.41458 372.069 4.53191C372.186 4.64925 372.245 4.81991 372.245 5.04391V11.5879C372.245 11.8119 372.186 11.9879 372.069 12.1159C371.962 12.2332 371.802 12.2919 371.589 12.2919ZM371.589 2.56391C371.322 2.56391 371.114 2.49458 370.965 2.35591C370.816 2.20658 370.741 2.00925 370.741 1.76391C370.741 1.50791 370.816 1.31591 370.965 1.18791C371.114 1.04925 371.322 0.979914 371.589 0.979914C371.866 0.979914 372.074 1.04925 372.213 1.18791C372.362 1.31591 372.437 1.50791 372.437 1.76391C372.437 2.00925 372.362 2.20658 372.213 2.35591C372.074 2.49458 371.866 2.56391 371.589 2.56391ZM377.308 12.3559C376.615 12.3559 376.007 12.1906 375.484 11.8599C374.972 11.5292 374.572 11.0652 374.284 10.4679C374.007 9.85991 373.868 9.14525 373.868 8.32391C373.868 7.49191 374.007 6.77725 374.284 6.17991C374.572 5.57191 374.972 5.10791 375.484 4.78791C376.007 4.45725 376.615 4.29191 377.308 4.29191C378.012 4.29191 378.615 4.46791 379.116 4.81991C379.617 5.17191 379.953 5.64658 380.124 6.24391H379.948V1.47591C379.948 1.26258 380.001 1.10258 380.108 0.995914C380.225 0.87858 380.391 0.819914 380.604 0.819914C380.807 0.819914 380.961 0.87858 381.068 0.995914C381.185 1.10258 381.244 1.26258 381.244 1.47591V11.6519C381.244 11.8652 381.191 12.0306 381.084 12.1479C380.977 12.2652 380.817 12.3239 380.604 12.3239C380.401 12.3239 380.241 12.2652 380.124 12.1479C380.017 12.0306 379.964 11.8652 379.964 11.6519V10.1319L380.14 10.3559C379.969 10.9639 379.628 11.4492 379.116 11.8119C378.615 12.1746 378.012 12.3559 377.308 12.3559ZM377.58 11.3159C378.06 11.3159 378.481 11.1986 378.844 10.9639C379.207 10.7292 379.484 10.3879 379.676 9.93991C379.879 9.49191 379.98 8.95325 379.98 8.32391C379.98 7.35325 379.761 6.61191 379.324 6.09991C378.897 5.58791 378.316 5.33191 377.58 5.33191C377.089 5.33191 376.663 5.44925 376.3 5.68391C375.948 5.90791 375.671 6.24391 375.468 6.69191C375.276 7.12925 375.18 7.67325 375.18 8.32391C375.18 9.28391 375.399 10.0252 375.836 10.5479C376.273 11.0599 376.855 11.3159 377.58 11.3159ZM2.064 34.2119C1.85067 34.2119 1.68533 34.1532 1.568 34.0359C1.45067 33.9079 1.392 33.7372 1.392 33.5239V23.5399C1.392 23.3159 1.44533 23.1452 1.552 23.0279C1.66933 22.9106 1.83467 22.8519 2.048 22.8519C2.26133 22.8519 2.42133 22.9106 2.528 23.0279C2.64533 23.1452 2.704 23.3159 2.704 23.5399V33.0599H7.952C8.144 33.0599 8.29333 33.1132 8.4 33.2199C8.50667 33.3159 8.56 33.4546 8.56 33.6359C8.56 33.8172 8.50667 33.9612 8.4 34.0679C8.29333 34.1639 8.144 34.2119 7.952 34.2119H2.064ZM10.2235 34.2919C10.0102 34.2919 9.85017 34.2332 9.7435 34.1159C9.63683 33.9879 9.5835 33.8119 9.5835 33.5879V27.0439C9.5835 26.8199 9.63683 26.6492 9.7435 26.5319C9.85017 26.4146 10.0102 26.3559 10.2235 26.3559C10.4262 26.3559 10.5862 26.4146 10.7035 26.5319C10.8208 26.6492 10.8795 26.8199 10.8795 27.0439V33.5879C10.8795 33.8119 10.8208 33.9879 10.7035 34.1159C10.5968 34.2332 10.4368 34.2919 10.2235 34.2919ZM10.2235 24.5639C9.95683 24.5639 9.74883 24.4946 9.5995 24.3559C9.45017 24.2066 9.3755 24.0092 9.3755 23.7639C9.3755 23.5079 9.45017 23.3159 9.5995 23.1879C9.74883 23.0492 9.95683 22.9799 10.2235 22.9799C10.5008 22.9799 10.7088 23.0492 10.8475 23.1879C10.9968 23.3159 11.0715 23.5079 11.0715 23.7639C11.0715 24.0092 10.9968 24.2066 10.8475 24.3559C10.7088 24.4946 10.5008 24.5639 10.2235 24.5639ZM13.6542 34.3239C13.4409 34.3239 13.2809 34.2652 13.1742 34.1479C13.0676 34.0306 13.0142 33.8652 13.0142 33.6519V26.9799C13.0142 26.7666 13.0676 26.6066 13.1742 26.4999C13.2809 26.3826 13.4356 26.3239 13.6382 26.3239C13.8409 26.3239 13.9956 26.3826 14.1022 26.4999C14.2196 26.6066 14.2782 26.7666 14.2782 26.9799V28.3879L14.1022 28.1639C14.3049 27.5666 14.6302 27.1079 15.0782 26.7879C15.5369 26.4572 16.0809 26.2919 16.7102 26.2919C17.3716 26.2919 17.9049 26.4519 18.3102 26.7719C18.7262 27.0812 19.0036 27.5666 19.1423 28.2279H18.9022C19.0942 27.6306 19.4356 27.1612 19.9263 26.8199C20.4276 26.4679 21.0089 26.2919 21.6702 26.2919C22.2569 26.2919 22.7369 26.4039 23.1103 26.6279C23.4943 26.8519 23.7823 27.1932 23.9742 27.6519C24.1662 28.0999 24.2622 28.6706 24.2622 29.3639V33.6519C24.2622 33.8652 24.2036 34.0306 24.0863 34.1479C23.9796 34.2652 23.8196 34.3239 23.6062 34.3239C23.4036 34.3239 23.2436 34.2652 23.1263 34.1479C23.0196 34.0306 22.9663 33.8652 22.9663 33.6519V29.4279C22.9663 28.7132 22.8436 28.1906 22.5983 27.8599C22.3529 27.5186 21.9369 27.3479 21.3503 27.3479C20.7103 27.3479 20.2036 27.5719 19.8302 28.0199C19.4676 28.4572 19.2863 29.0546 19.2863 29.8119V33.6519C19.2863 33.8652 19.2276 34.0306 19.1102 34.1479C19.0036 34.2652 18.8436 34.3239 18.6302 34.3239C18.4276 34.3239 18.2676 34.2652 18.1502 34.1479C18.0436 34.0306 17.9903 33.8652 17.9903 33.6519V29.4279C17.9903 28.7132 17.8623 28.1906 17.6062 27.8599C17.3609 27.5186 16.9502 27.3479 16.3742 27.3479C15.7342 27.3479 15.2276 27.5719 14.8542 28.0199C14.4916 28.4572 14.3102 29.0546 14.3102 29.8119V33.6519C14.3102 34.0999 14.0916 34.3239 13.6542 34.3239ZM27.0054 34.2919C26.792 34.2919 26.632 34.2332 26.5254 34.1159C26.4187 33.9879 26.3654 33.8119 26.3654 33.5879V27.0439C26.3654 26.8199 26.4187 26.6492 26.5254 26.5319C26.632 26.4146 26.792 26.3559 27.0054 26.3559C27.208 26.3559 27.368 26.4146 27.4854 26.5319C27.6027 26.6492 27.6614 26.8199 27.6614 27.0439V33.5879C27.6614 33.8119 27.6027 33.9879 27.4854 34.1159C27.3787 34.2332 27.2187 34.2919 27.0054 34.2919ZM27.0054 24.5639C26.7387 24.5639 26.5307 24.4946 26.3814 24.3559C26.232 24.2066 26.1574 24.0092 26.1574 23.7639C26.1574 23.5079 26.232 23.3159 26.3814 23.1879C26.5307 23.0492 26.7387 22.9799 27.0054 22.9799C27.2827 22.9799 27.4907 23.0492 27.6294 23.1879C27.7787 23.3159 27.8534 23.5079 27.8534 23.7639C27.8534 24.0092 27.7787 24.2066 27.6294 24.3559C27.4907 24.4946 27.2827 24.5639 27.0054 24.5639ZM32.8841 34.3559C32.2761 34.3559 31.7641 34.2492 31.3481 34.0359C30.9428 33.8119 30.6388 33.4919 30.4361 33.0759C30.2335 32.6492 30.1321 32.1319 30.1321 31.5239V27.4439H29.0601C28.8788 27.4439 28.7401 27.4012 28.6441 27.3159C28.5481 27.2199 28.5001 27.0919 28.5001 26.9319C28.5001 26.7719 28.5481 26.6492 28.6441 26.5639C28.7401 26.4786 28.8788 26.4359 29.0601 26.4359H30.1321V24.5959C30.1321 24.3826 30.1908 24.2226 30.3081 24.1159C30.4255 23.9986 30.5855 23.9399 30.7881 23.9399C30.9908 23.9399 31.1455 23.9986 31.2521 24.1159C31.3695 24.2226 31.4281 24.3826 31.4281 24.5959V26.4359H33.4441C33.6255 26.4359 33.7641 26.4786 33.8601 26.5639C33.9561 26.6492 34.0041 26.7719 34.0041 26.9319C34.0041 27.0919 33.9561 27.2199 33.8601 27.3159C33.7641 27.4012 33.6255 27.4439 33.4441 27.4439H31.4281V31.3959C31.4281 32.0039 31.5561 32.4679 31.8121 32.7879C32.0681 33.0972 32.4841 33.2519 33.0601 33.2519C33.2628 33.2519 33.4335 33.2306 33.5721 33.1879C33.7215 33.1452 33.8441 33.1239 33.9401 33.1239C34.0361 33.1132 34.1161 33.1452 34.1801 33.2199C34.2441 33.2946 34.2761 33.4226 34.2761 33.6039C34.2761 33.7319 34.2495 33.8492 34.1961 33.9559C34.1535 34.0626 34.0735 34.1372 33.9561 34.1799C33.8281 34.2226 33.6575 34.2599 33.4441 34.2919C33.2415 34.3346 33.0548 34.3559 32.8841 34.3559ZM38.4638 34.3559C37.6424 34.3559 36.9331 34.1959 36.3358 33.8759C35.7491 33.5452 35.2904 33.0812 34.9598 32.4839C34.6398 31.8866 34.4798 31.1719 34.4798 30.3399C34.4798 29.5292 34.6398 28.8252 34.9598 28.2279C35.2798 27.6199 35.7171 27.1452 36.2718 26.8039C36.8371 26.4626 37.4878 26.2919 38.2238 26.2919C38.7464 26.2919 39.2158 26.3826 39.6318 26.5639C40.0478 26.7346 40.3998 26.9852 40.6878 27.3159C40.9864 27.6466 41.2104 28.0466 41.3598 28.5159C41.5198 28.9852 41.5998 29.5132 41.5998 30.0999C41.5998 30.2706 41.5518 30.3986 41.4558 30.4839C41.3598 30.5586 41.2211 30.5959 41.0398 30.5959H35.4718V29.7479H40.7358L40.4798 29.9559C40.4798 29.3799 40.3944 28.8946 40.2238 28.4999C40.0531 28.0946 39.8024 27.7852 39.4718 27.5719C39.1518 27.3586 38.7464 27.2519 38.2558 27.2519C37.7118 27.2519 37.2478 27.3799 36.8638 27.6359C36.4904 27.8812 36.2078 28.2279 36.0158 28.6759C35.8238 29.1132 35.7278 29.6252 35.7278 30.2119V30.3079C35.7278 31.2892 35.9624 32.0359 36.4318 32.5479C36.9118 33.0599 37.5891 33.3159 38.4638 33.3159C38.8264 33.3159 39.1838 33.2679 39.5358 33.1719C39.8984 33.0759 40.2504 32.9159 40.5918 32.6919C40.7411 32.5959 40.8744 32.5532 40.9918 32.5639C41.1198 32.5639 41.2211 32.6012 41.2958 32.6759C41.3704 32.7399 41.4184 32.8252 41.4398 32.9319C41.4718 33.0279 41.4611 33.1346 41.4078 33.2519C41.3651 33.3692 41.2744 33.4706 41.1358 33.5559C40.7838 33.8119 40.3678 34.0092 39.8878 34.1479C39.4078 34.2866 38.9331 34.3559 38.4638 34.3559ZM46.1154 34.3559C45.422 34.3559 44.814 34.1906 44.2914 33.8599C43.7794 33.5292 43.3794 33.0652 43.0914 32.4679C42.814 31.8599 42.6754 31.1452 42.6754 30.3239C42.6754 29.4919 42.814 28.7772 43.0914 28.1799C43.3794 27.5719 43.7794 27.1079 44.2914 26.7879C44.814 26.4572 45.422 26.2919 46.1154 26.2919C46.8194 26.2919 47.422 26.4679 47.9234 26.8199C48.4247 27.1719 48.7607 27.6466 48.9314 28.2439H48.7554V23.4759C48.7554 23.2626 48.8087 23.1026 48.9154 22.9959C49.0327 22.8786 49.198 22.8199 49.4114 22.8199C49.614 22.8199 49.7687 22.8786 49.8754 22.9959C49.9927 23.1026 50.0514 23.2626 50.0514 23.4759V33.6519C50.0514 33.8652 49.998 34.0306 49.8914 34.1479C49.7847 34.2652 49.6247 34.3239 49.4114 34.3239C49.2087 34.3239 49.0487 34.2652 48.9314 34.1479C48.8247 34.0306 48.7714 33.8652 48.7714 33.6519V32.1319L48.9474 32.3559C48.7767 32.9639 48.4354 33.4492 47.9234 33.8119C47.422 34.1746 46.8194 34.3559 46.1154 34.3559ZM46.3874 33.3159C46.8674 33.3159 47.2887 33.1986 47.6514 32.9639C48.014 32.7292 48.2914 32.3879 48.4834 31.9399C48.686 31.4919 48.7874 30.9532 48.7874 30.3239C48.7874 29.3532 48.5687 28.6119 48.1314 28.0999C47.7047 27.5879 47.1234 27.3319 46.3874 27.3319C45.8967 27.3319 45.47 27.4492 45.1074 27.6839C44.7554 27.9079 44.478 28.2439 44.2754 28.6919C44.0834 29.1292 43.9874 29.6732 43.9874 30.3239C43.9874 31.2839 44.206 32.0252 44.6434 32.5479C45.0807 33.0599 45.662 33.3159 46.3874 33.3159ZM52.7875 34.2759C52.5208 34.2759 52.3075 34.1959 52.1475 34.0359C51.9875 33.8652 51.9075 33.6519 51.9075 33.3959C51.9075 33.1399 51.9875 32.9319 52.1475 32.7719C52.3075 32.6012 52.5208 32.5159 52.7875 32.5159C53.0542 32.5159 53.2622 32.6012 53.4115 32.7719C53.5715 32.9319 53.6515 33.1399 53.6515 33.3959C53.6515 33.6519 53.5715 33.8652 53.4115 34.0359C53.2622 34.1959 53.0542 34.2759 52.7875 34.2759ZM59.2251 34.3239C59.0545 34.3239 58.9158 34.2866 58.8091 34.2119C58.7131 34.1266 58.6545 34.0199 58.6331 33.8919C58.6225 33.7532 58.6545 33.5986 58.7291 33.4279L63.1291 23.4119C63.2251 23.1986 63.3371 23.0492 63.4651 22.9639C63.6038 22.8679 63.7531 22.8199 63.9131 22.8199C64.0731 22.8199 64.2171 22.8679 64.3451 22.9639C64.4838 23.0492 64.5958 23.1986 64.6811 23.4119L69.0971 33.4279C69.1825 33.5986 69.2145 33.7532 69.1931 33.8919C69.1825 34.0306 69.1291 34.1372 69.0331 34.2119C68.9371 34.2866 68.8038 34.3239 68.6331 34.3239C68.4411 34.3239 68.2865 34.2759 68.1691 34.1799C68.0518 34.0732 67.9558 33.9239 67.8811 33.7319L66.6971 30.9959L67.3371 31.3319H60.4571L61.1131 30.9959L59.9451 33.7319C59.8491 33.9346 59.7478 34.0839 59.6411 34.1799C59.5345 34.2759 59.3958 34.3239 59.2251 34.3239ZM63.8971 24.4679L61.3211 30.5319L60.9371 30.2279H66.8571L66.5051 30.5319L63.9291 24.4679H63.8971ZM72.9934 34.3559C72.2254 34.3559 71.6387 34.1212 71.2334 33.6519C70.828 33.1826 70.6254 32.5106 70.6254 31.6359V23.4759C70.6254 23.2626 70.6787 23.1026 70.7854 22.9959C70.892 22.8786 71.052 22.8199 71.2654 22.8199C71.468 22.8199 71.628 22.8786 71.7454 22.9959C71.8627 23.1026 71.9214 23.2626 71.9214 23.4759V31.5399C71.9214 32.1159 72.0334 32.5479 72.2574 32.8359C72.492 33.1132 72.8334 33.2519 73.2814 33.2519C73.3774 33.2519 73.4627 33.2466 73.5374 33.2359C73.612 33.2252 73.6867 33.2199 73.7614 33.2199C73.8787 33.2092 73.9587 33.2359 74.0014 33.2999C74.0547 33.3639 74.0814 33.4919 74.0814 33.6839C74.0814 33.8759 74.0387 34.0199 73.9534 34.1159C73.868 34.2119 73.7294 34.2759 73.5374 34.3079C73.452 34.3186 73.3614 34.3292 73.2654 34.3399C73.1694 34.3506 73.0787 34.3559 72.9934 34.3559ZM77.4078 34.3559C76.6398 34.3559 76.0531 34.1212 75.6478 33.6519C75.2424 33.1826 75.0398 32.5106 75.0398 31.6359V23.4759C75.0398 23.2626 75.0931 23.1026 75.1998 22.9959C75.3064 22.8786 75.4664 22.8199 75.6798 22.8199C75.8824 22.8199 76.0424 22.8786 76.1598 22.9959C76.2771 23.1026 76.3358 23.2626 76.3358 23.4759V31.5399C76.3358 32.1159 76.4478 32.5479 76.6718 32.8359C76.9064 33.1132 77.2478 33.2519 77.6958 33.2519C77.7918 33.2519 77.8771 33.2466 77.9518 33.2359C78.0264 33.2252 78.1011 33.2199 78.1758 33.2199C78.2931 33.2092 78.3731 33.2359 78.4158 33.2999C78.4691 33.3639 78.4958 33.4919 78.4958 33.6839C78.4958 33.8759 78.4531 34.0199 78.3678 34.1159C78.2824 34.2119 78.1438 34.2759 77.9518 34.3079C77.8664 34.3186 77.7758 34.3292 77.6798 34.3399C77.5838 34.3506 77.4931 34.3559 77.4078 34.3559ZM84.0911 34.3239C83.8778 34.3239 83.7125 34.2652 83.5951 34.1479C83.4885 34.0199 83.4351 33.8492 83.4351 33.6359V23.6039C83.4351 23.3799 83.4938 23.2146 83.6111 23.1079C83.7285 22.9906 83.8938 22.9319 84.1071 22.9319H87.8991C89.1045 22.9319 90.0325 23.2146 90.6831 23.7799C91.3338 24.3452 91.6591 25.1506 91.6591 26.1959C91.6591 26.8572 91.5098 27.4332 91.2111 27.9239C90.9231 28.4039 90.4965 28.7719 89.9311 29.0279C89.3658 29.2732 88.6885 29.3959 87.8991 29.3959L88.0591 29.1879H88.3791C88.7951 29.1879 89.1578 29.2946 89.4671 29.5079C89.7765 29.7212 90.0591 30.0626 90.3151 30.5319L91.8511 33.3959C91.9365 33.5452 91.9738 33.6946 91.9631 33.8439C91.9631 33.9826 91.9151 34.0999 91.8191 34.1959C91.7231 34.2812 91.5845 34.3239 91.4031 34.3239C91.2218 34.3239 91.0725 34.2812 90.9551 34.1959C90.8378 34.1106 90.7365 33.9879 90.6511 33.8279L88.9071 30.5959C88.6618 30.1372 88.3791 29.8332 88.0591 29.6839C87.7391 29.5239 87.3178 29.4439 86.7951 29.4439H84.7471V33.6359C84.7471 33.8492 84.6938 34.0199 84.5871 34.1479C84.4805 34.2652 84.3151 34.3239 84.0911 34.3239ZM84.7471 28.4039H87.7071C88.5818 28.4039 89.2431 28.2226 89.6911 27.8599C90.1391 27.4866 90.3631 26.9319 90.3631 26.1959C90.3631 25.4812 90.1391 24.9426 89.6911 24.5799C89.2431 24.2066 88.5818 24.0199 87.7071 24.0199H84.7471V28.4039ZM94.2822 34.2919C94.0689 34.2919 93.9089 34.2332 93.8022 34.1159C93.6956 33.9879 93.6422 33.8119 93.6422 33.5879V27.0439C93.6422 26.8199 93.6956 26.6492 93.8022 26.5319C93.9089 26.4146 94.0689 26.3559 94.2822 26.3559C94.4849 26.3559 94.6449 26.4146 94.7622 26.5319C94.8796 26.6492 94.9382 26.8199 94.9382 27.0439V33.5879C94.9382 33.8119 94.8796 33.9879 94.7622 34.1159C94.6556 34.2332 94.4956 34.2919 94.2822 34.2919ZM94.2822 24.5639C94.0156 24.5639 93.8076 24.4946 93.6582 24.3559C93.5089 24.2066 93.4342 24.0092 93.4342 23.7639C93.4342 23.5079 93.5089 23.3159 93.6582 23.1879C93.8076 23.0492 94.0156 22.9799 94.2822 22.9799C94.5596 22.9799 94.7676 23.0492 94.9062 23.1879C95.0556 23.3159 95.1302 23.5079 95.1302 23.7639C95.1302 24.0092 95.0556 24.2066 94.9062 24.3559C94.7676 24.4946 94.5596 24.5639 94.2822 24.5639ZM100.481 37.2359C99.9157 37.2359 99.361 37.1666 98.817 37.0279C98.2837 36.8999 97.7983 36.6919 97.361 36.4039C97.233 36.3292 97.1477 36.2386 97.105 36.1319C97.073 36.0252 97.0677 35.9186 97.089 35.8119C97.1103 35.7159 97.1583 35.6252 97.233 35.5399C97.3077 35.4652 97.393 35.4172 97.489 35.3959C97.5957 35.3746 97.7023 35.3906 97.809 35.4439C98.2783 35.7319 98.7263 35.9292 99.153 36.0359C99.5797 36.1426 100.001 36.1959 100.417 36.1959C101.174 36.1959 101.745 35.9932 102.129 35.5879C102.524 35.1826 102.721 34.5959 102.721 33.8279V32.0199H102.881C102.721 32.6386 102.38 33.1292 101.857 33.4919C101.345 33.8546 100.742 34.0359 100.049 34.0359C99.3343 34.0359 98.7157 33.8759 98.193 33.5559C97.6703 33.2252 97.265 32.7666 96.977 32.1799C96.6997 31.5932 96.561 30.9159 96.561 30.1479C96.561 29.5719 96.641 29.0492 96.801 28.5799C96.961 28.0999 97.1903 27.6946 97.489 27.3639C97.7983 27.0226 98.1663 26.7612 98.593 26.5799C99.0303 26.3879 99.5157 26.2919 100.049 26.2919C100.753 26.2919 101.361 26.4732 101.873 26.8359C102.385 27.1879 102.716 27.6679 102.865 28.2759L102.705 28.4679V26.9799C102.705 26.7666 102.758 26.6066 102.865 26.4999C102.982 26.3826 103.142 26.3239 103.345 26.3239C103.558 26.3239 103.718 26.3826 103.825 26.4999C103.932 26.6066 103.985 26.7666 103.985 26.9799V33.6519C103.985 34.8359 103.686 35.7266 103.089 36.3239C102.502 36.9319 101.633 37.2359 100.481 37.2359ZM100.289 32.9799C100.79 32.9799 101.222 32.8679 101.585 32.6439C101.948 32.4092 102.225 32.0786 102.417 31.6519C102.62 31.2252 102.721 30.7239 102.721 30.1479C102.721 29.2839 102.502 28.6012 102.065 28.0999C101.628 27.5879 101.036 27.3319 100.289 27.3319C99.7983 27.3319 99.3717 27.4492 99.009 27.6839C98.6463 27.9079 98.3637 28.2332 98.161 28.6599C97.969 29.0759 97.873 29.5719 97.873 30.1479C97.873 31.0119 98.0917 31.6999 98.529 32.2119C98.9663 32.7239 99.553 32.9799 100.289 32.9799ZM106.736 34.3239C106.523 34.3239 106.363 34.2652 106.256 34.1479C106.149 34.0306 106.096 33.8652 106.096 33.6519V23.4759C106.096 23.2626 106.149 23.1026 106.256 22.9959C106.363 22.8786 106.523 22.8199 106.736 22.8199C106.939 22.8199 107.099 22.8786 107.216 22.9959C107.333 23.1026 107.392 23.2626 107.392 23.4759V28.1639H107.184C107.408 27.5452 107.771 27.0812 108.272 26.7719C108.784 26.4519 109.371 26.2919 110.032 26.2919C110.651 26.2919 111.163 26.4039 111.568 26.6279C111.984 26.8519 112.293 27.1932 112.496 27.6519C112.699 28.0999 112.8 28.6706 112.8 29.3639V33.6519C112.8 33.8652 112.741 34.0306 112.624 34.1479C112.517 34.2652 112.363 34.3239 112.16 34.3239C111.947 34.3239 111.781 34.2652 111.664 34.1479C111.557 34.0306 111.504 33.8652 111.504 33.6519V29.4439C111.504 28.7186 111.36 28.1906 111.072 27.8599C110.795 27.5186 110.347 27.3479 109.728 27.3479C109.013 27.3479 108.443 27.5719 108.016 28.0199C107.6 28.4572 107.392 29.0439 107.392 29.7799V33.6519C107.392 34.0999 107.173 34.3239 106.736 34.3239ZM117.99 34.3559C117.382 34.3559 116.87 34.2492 116.454 34.0359C116.048 33.8119 115.744 33.4919 115.542 33.0759C115.339 32.6492 115.238 32.1319 115.238 31.5239V27.4439H114.166C113.984 27.4439 113.846 27.4012 113.75 27.3159C113.654 27.2199 113.606 27.0919 113.606 26.9319C113.606 26.7719 113.654 26.6492 113.75 26.5639C113.846 26.4786 113.984 26.4359 114.166 26.4359H115.238V24.5959C115.238 24.3826 115.296 24.2226 115.414 24.1159C115.531 23.9986 115.691 23.9399 115.894 23.9399C116.096 23.9399 116.251 23.9986 116.358 24.1159C116.475 24.2226 116.534 24.3826 116.534 24.5959V26.4359H118.55C118.731 26.4359 118.87 26.4786 118.966 26.5639C119.062 26.6492 119.11 26.7719 119.11 26.9319C119.11 27.0919 119.062 27.2199 118.966 27.3159C118.87 27.4012 118.731 27.4439 118.55 27.4439H116.534V31.3959C116.534 32.0039 116.662 32.4679 116.918 32.7879C117.174 33.0972 117.59 33.2519 118.166 33.2519C118.368 33.2519 118.539 33.2306 118.678 33.1879C118.827 33.1452 118.95 33.1239 119.046 33.1239C119.142 33.1132 119.222 33.1452 119.286 33.2199C119.35 33.2946 119.382 33.4226 119.382 33.6039C119.382 33.7319 119.355 33.8492 119.302 33.9559C119.259 34.0626 119.179 34.1372 119.062 34.1799C118.934 34.2226 118.763 34.2599 118.55 34.2919C118.347 34.3346 118.16 34.3559 117.99 34.3559ZM122.767 34.3559C122.287 34.3559 121.802 34.2972 121.311 34.1799C120.831 34.0626 120.383 33.8599 119.967 33.5719C119.861 33.4972 119.786 33.4119 119.743 33.3159C119.701 33.2092 119.685 33.1079 119.695 33.0119C119.717 32.9052 119.759 32.8146 119.823 32.7399C119.898 32.6652 119.983 32.6226 120.079 32.6119C120.186 32.5906 120.303 32.6119 120.431 32.6759C120.847 32.9319 121.247 33.1132 121.631 33.2199C122.026 33.3159 122.415 33.3639 122.799 33.3639C123.407 33.3639 123.866 33.2519 124.175 33.0279C124.485 32.8039 124.639 32.4999 124.639 32.1159C124.639 31.8172 124.538 31.5826 124.335 31.4119C124.133 31.2306 123.813 31.0919 123.375 30.9959L121.919 30.6759C121.247 30.5372 120.746 30.2972 120.415 29.9559C120.095 29.6146 119.935 29.1719 119.935 28.6279C119.935 28.1479 120.058 27.7372 120.303 27.3959C120.559 27.0439 120.917 26.7719 121.375 26.5799C121.834 26.3879 122.367 26.2919 122.975 26.2919C123.445 26.2919 123.887 26.3559 124.303 26.4839C124.73 26.6012 125.114 26.7932 125.455 27.0599C125.562 27.1346 125.631 27.2252 125.663 27.3319C125.706 27.4279 125.711 27.5292 125.679 27.6359C125.658 27.7319 125.61 27.8172 125.535 27.8919C125.461 27.9559 125.37 27.9932 125.263 28.0039C125.157 28.0146 125.045 27.9826 124.927 27.9079C124.607 27.6946 124.282 27.5399 123.951 27.4439C123.621 27.3372 123.295 27.2839 122.975 27.2839C122.378 27.2839 121.925 27.4012 121.615 27.6359C121.306 27.8706 121.151 28.1799 121.151 28.5639C121.151 28.8626 121.247 29.1079 121.439 29.2999C121.631 29.4919 121.93 29.6306 122.335 29.7159L123.791 30.0199C124.485 30.1692 125.002 30.4092 125.343 30.7399C125.695 31.0599 125.871 31.4972 125.871 32.0519C125.871 32.7559 125.589 33.3159 125.023 33.7319C124.458 34.1479 123.706 34.3559 122.767 34.3559ZM132.164 34.3239C131.95 34.3239 131.785 34.2652 131.668 34.1479C131.561 34.0199 131.508 33.8492 131.508 33.6359V23.6039C131.508 23.3799 131.566 23.2146 131.684 23.1079C131.801 22.9906 131.966 22.9319 132.18 22.9319H135.972C137.177 22.9319 138.105 23.2146 138.756 23.7799C139.406 24.3452 139.732 25.1506 139.732 26.1959C139.732 26.8572 139.582 27.4332 139.284 27.9239C138.996 28.4039 138.569 28.7719 138.004 29.0279C137.438 29.2732 136.761 29.3959 135.972 29.3959L136.132 29.1879H136.452C136.868 29.1879 137.23 29.2946 137.54 29.5079C137.849 29.7212 138.132 30.0626 138.388 30.5319L139.924 33.3959C140.009 33.5452 140.046 33.6946 140.036 33.8439C140.036 33.9826 139.988 34.0999 139.892 34.1959C139.796 34.2812 139.657 34.3239 139.476 34.3239C139.294 34.3239 139.145 34.2812 139.028 34.1959C138.91 34.1106 138.809 33.9879 138.724 33.8279L136.98 30.5959C136.734 30.1372 136.452 29.8332 136.132 29.6839C135.812 29.5239 135.39 29.4439 134.868 29.4439H132.82V33.6359C132.82 33.8492 132.766 34.0199 132.66 34.1479C132.553 34.2652 132.388 34.3239 132.164 34.3239ZM132.82 28.4039H135.78C136.654 28.4039 137.316 28.2226 137.764 27.8599C138.212 27.4866 138.436 26.9319 138.436 26.1959C138.436 25.4812 138.212 24.9426 137.764 24.5799C137.316 24.2066 136.654 24.0199 135.78 24.0199H132.82V28.4039ZM145.047 34.3559C144.226 34.3559 143.516 34.1959 142.919 33.8759C142.332 33.5452 141.874 33.0812 141.543 32.4839C141.223 31.8866 141.063 31.1719 141.063 30.3399C141.063 29.5292 141.223 28.8252 141.543 28.2279C141.863 27.6199 142.3 27.1452 142.855 26.8039C143.42 26.4626 144.071 26.2919 144.807 26.2919C145.33 26.2919 145.799 26.3826 146.215 26.5639C146.631 26.7346 146.983 26.9852 147.271 27.3159C147.57 27.6466 147.794 28.0466 147.943 28.5159C148.103 28.9852 148.183 29.5132 148.183 30.0999C148.183 30.2706 148.135 30.3986 148.039 30.4839C147.943 30.5586 147.804 30.5959 147.623 30.5959H142.055V29.7479H147.319L147.063 29.9559C147.063 29.3799 146.978 28.8946 146.807 28.4999C146.636 28.0946 146.386 27.7852 146.055 27.5719C145.735 27.3586 145.33 27.2519 144.839 27.2519C144.295 27.2519 143.831 27.3799 143.447 27.6359C143.074 27.8812 142.791 28.2279 142.599 28.6759C142.407 29.1132 142.311 29.6252 142.311 30.2119V30.3079C142.311 31.2892 142.546 32.0359 143.015 32.5479C143.495 33.0599 144.172 33.3159 145.047 33.3159C145.41 33.3159 145.767 33.2679 146.119 33.1719C146.482 33.0759 146.834 32.9159 147.175 32.6919C147.324 32.5959 147.458 32.5532 147.575 32.5639C147.703 32.5639 147.804 32.6012 147.879 32.6759C147.954 32.7399 148.002 32.8252 148.023 32.9319C148.055 33.0279 148.044 33.1346 147.991 33.2519C147.948 33.3692 147.858 33.4706 147.719 33.5559C147.367 33.8119 146.951 34.0092 146.471 34.1479C145.991 34.2866 145.516 34.3559 145.047 34.3559ZM152.363 34.3559C151.883 34.3559 151.397 34.2972 150.907 34.1799C150.427 34.0626 149.979 33.8599 149.563 33.5719C149.456 33.4972 149.381 33.4119 149.339 33.3159C149.296 33.2092 149.28 33.1079 149.291 33.0119C149.312 32.9052 149.355 32.8146 149.419 32.7399C149.493 32.6652 149.579 32.6226 149.675 32.6119C149.781 32.5906 149.899 32.6119 150.027 32.6759C150.443 32.9319 150.843 33.1132 151.227 33.2199C151.621 33.3159 152.011 33.3639 152.395 33.3639C153.003 33.3639 153.461 33.2519 153.771 33.0279C154.08 32.8039 154.235 32.4999 154.235 32.1159C154.235 31.8172 154.133 31.5826 153.931 31.4119C153.728 31.2306 153.408 31.0919 152.971 30.9959L151.515 30.6759C150.843 30.5372 150.341 30.2972 150.011 29.9559C149.691 29.6146 149.531 29.1719 149.531 28.6279C149.531 28.1479 149.653 27.7372 149.899 27.3959C150.155 27.0439 150.512 26.7719 150.971 26.5799C151.429 26.3879 151.963 26.2919 152.571 26.2919C153.04 26.2919 153.483 26.3559 153.899 26.4839C154.325 26.6012 154.709 26.7932 155.051 27.0599C155.157 27.1346 155.227 27.2252 155.259 27.3319C155.301 27.4279 155.307 27.5292 155.275 27.6359C155.253 27.7319 155.205 27.8172 155.131 27.8919C155.056 27.9559 154.965 27.9932 154.859 28.0039C154.752 28.0146 154.64 27.9826 154.523 27.9079C154.203 27.6946 153.877 27.5399 153.547 27.4439C153.216 27.3372 152.891 27.2839 152.571 27.2839C151.973 27.2839 151.52 27.4012 151.211 27.6359C150.901 27.8706 150.747 28.1799 150.747 28.5639C150.747 28.8626 150.843 29.1079 151.035 29.2999C151.227 29.4919 151.525 29.6306 151.931 29.7159L153.387 30.0199C154.08 30.1692 154.597 30.4092 154.939 30.7399C155.291 31.0599 155.467 31.4972 155.467 32.0519C155.467 32.7559 155.184 33.3159 154.619 33.7319C154.053 34.1479 153.301 34.3559 152.363 34.3559ZM160.626 34.3559C159.804 34.3559 159.095 34.1959 158.498 33.8759C157.911 33.5452 157.452 33.0812 157.122 32.4839C156.802 31.8866 156.642 31.1719 156.642 30.3399C156.642 29.5292 156.802 28.8252 157.122 28.2279C157.442 27.6199 157.879 27.1452 158.434 26.8039C158.999 26.4626 159.65 26.2919 160.386 26.2919C160.908 26.2919 161.378 26.3826 161.794 26.5639C162.21 26.7346 162.562 26.9852 162.85 27.3159C163.148 27.6466 163.372 28.0466 163.522 28.5159C163.682 28.9852 163.762 29.5132 163.762 30.0999C163.762 30.2706 163.714 30.3986 163.618 30.4839C163.522 30.5586 163.383 30.5959 163.202 30.5959H157.634V29.7479H162.898L162.642 29.9559C162.642 29.3799 162.556 28.8946 162.386 28.4999C162.215 28.0946 161.964 27.7852 161.634 27.5719C161.314 27.3586 160.908 27.2519 160.418 27.2519C159.874 27.2519 159.41 27.3799 159.026 27.6359C158.652 27.8812 158.37 28.2279 158.178 28.6759C157.986 29.1132 157.89 29.6252 157.89 30.2119V30.3079C157.89 31.2892 158.124 32.0359 158.594 32.5479C159.074 33.0599 159.751 33.3159 160.626 33.3159C160.988 33.3159 161.346 33.2679 161.698 33.1719C162.06 33.0759 162.412 32.9159 162.754 32.6919C162.903 32.5959 163.036 32.5532 163.154 32.5639C163.282 32.5639 163.383 32.6012 163.458 32.6759C163.532 32.7399 163.58 32.8252 163.602 32.9319C163.634 33.0279 163.623 33.1346 163.57 33.2519C163.527 33.3692 163.436 33.4706 163.298 33.5559C162.946 33.8119 162.53 34.0092 162.05 34.1479C161.57 34.2866 161.095 34.3559 160.626 34.3559ZM165.973 34.3239C165.76 34.3239 165.595 34.2652 165.477 34.1479C165.371 34.0306 165.317 33.8652 165.317 33.6519V26.9799C165.317 26.7666 165.371 26.6066 165.477 26.4999C165.584 26.3826 165.739 26.3239 165.941 26.3239C166.144 26.3239 166.299 26.3826 166.405 26.4999C166.523 26.6066 166.581 26.7666 166.581 26.9799V28.2759H166.421C166.592 27.6466 166.917 27.1612 167.397 26.8199C167.877 26.4786 168.469 26.2972 169.173 26.2759C169.333 26.2652 169.461 26.3026 169.557 26.3879C169.653 26.4626 169.707 26.5959 169.717 26.7879C169.728 26.9692 169.685 27.1132 169.589 27.2199C169.493 27.3266 169.344 27.3906 169.141 27.4119L168.885 27.4439C168.16 27.5079 167.6 27.7426 167.205 28.1479C166.821 28.5426 166.629 29.0866 166.629 29.7799V33.6519C166.629 33.8652 166.571 34.0306 166.453 34.1479C166.347 34.2652 166.187 34.3239 165.973 34.3239ZM174.112 34.3239C173.931 34.3239 173.771 34.2759 173.632 34.1799C173.493 34.0732 173.376 33.9132 173.28 33.6999L170.512 27.2359C170.437 27.0759 170.411 26.9266 170.432 26.7879C170.453 26.6492 170.517 26.5372 170.624 26.4519C170.731 26.3666 170.88 26.3239 171.072 26.3239C171.243 26.3239 171.376 26.3612 171.472 26.4359C171.568 26.5106 171.653 26.6439 171.728 26.8359L174.352 33.2519H173.92L176.592 26.8359C176.667 26.6439 176.752 26.5106 176.848 26.4359C176.944 26.3612 177.083 26.3239 177.264 26.3239C177.435 26.3239 177.563 26.3666 177.648 26.4519C177.744 26.5372 177.797 26.6492 177.808 26.7879C177.829 26.9159 177.808 27.0599 177.744 27.2199L174.944 33.6999C174.869 33.9132 174.757 34.0732 174.608 34.1799C174.469 34.2759 174.304 34.3239 174.112 34.3239ZM182.525 34.3559C181.704 34.3559 180.994 34.1959 180.397 33.8759C179.81 33.5452 179.352 33.0812 179.021 32.4839C178.701 31.8866 178.541 31.1719 178.541 30.3399C178.541 29.5292 178.701 28.8252 179.021 28.2279C179.341 27.6199 179.778 27.1452 180.333 26.8039C180.898 26.4626 181.549 26.2919 182.285 26.2919C182.808 26.2919 183.277 26.3826 183.693 26.5639C184.109 26.7346 184.461 26.9852 184.749 27.3159C185.048 27.6466 185.272 28.0466 185.421 28.5159C185.581 28.9852 185.661 29.5132 185.661 30.0999C185.661 30.2706 185.613 30.3986 185.517 30.4839C185.421 30.5586 185.282 30.5959 185.101 30.5959H179.533V29.7479H184.797L184.541 29.9559C184.541 29.3799 184.456 28.8946 184.285 28.4999C184.114 28.0946 183.864 27.7852 183.533 27.5719C183.213 27.3586 182.808 27.2519 182.317 27.2519C181.773 27.2519 181.309 27.3799 180.925 27.6359C180.552 27.8812 180.269 28.2279 180.077 28.6759C179.885 29.1132 179.789 29.6252 179.789 30.2119V30.3079C179.789 31.2892 180.024 32.0359 180.493 32.5479C180.973 33.0599 181.65 33.3159 182.525 33.3159C182.888 33.3159 183.245 33.2679 183.597 33.1719C183.96 33.0759 184.312 32.9159 184.653 32.6919C184.802 32.5959 184.936 32.5532 185.053 32.5639C185.181 32.5639 185.282 32.6012 185.357 32.6759C185.432 32.7399 185.48 32.8252 185.501 32.9319C185.533 33.0279 185.522 33.1346 185.469 33.2519C185.426 33.3692 185.336 33.4706 185.197 33.5559C184.845 33.8119 184.429 34.0092 183.949 34.1479C183.469 34.2866 182.994 34.3559 182.525 34.3559ZM190.177 34.3559C189.483 34.3559 188.875 34.1906 188.353 33.8599C187.841 33.5292 187.441 33.0652 187.153 32.4679C186.875 31.8599 186.737 31.1452 186.737 30.3239C186.737 29.4919 186.875 28.7772 187.153 28.1799C187.441 27.5719 187.841 27.1079 188.353 26.7879C188.875 26.4572 189.483 26.2919 190.177 26.2919C190.881 26.2919 191.483 26.4679 191.985 26.8199C192.486 27.1719 192.822 27.6466 192.993 28.2439H192.817V23.4759C192.817 23.2626 192.87 23.1026 192.977 22.9959C193.094 22.8786 193.259 22.8199 193.473 22.8199C193.675 22.8199 193.83 22.8786 193.937 22.9959C194.054 23.1026 194.113 23.2626 194.113 23.4759V33.6519C194.113 33.8652 194.059 34.0306 193.953 34.1479C193.846 34.2652 193.686 34.3239 193.473 34.3239C193.27 34.3239 193.11 34.2652 192.993 34.1479C192.886 34.0306 192.833 33.8652 192.833 33.6519V32.1319L193.009 32.3559C192.838 32.9639 192.497 33.4492 191.985 33.8119C191.483 34.1746 190.881 34.3559 190.177 34.3559ZM190.449 33.3159C190.929 33.3159 191.35 33.1986 191.713 32.9639C192.075 32.7292 192.353 32.3879 192.545 31.9399C192.747 31.4919 192.849 30.9532 192.849 30.3239C192.849 29.3532 192.63 28.6119 192.193 28.0999C191.766 27.5879 191.185 27.3319 190.449 27.3319C189.958 27.3319 189.531 27.4492 189.169 27.6839C188.817 27.9079 188.539 28.2439 188.337 28.6919C188.145 29.1292 188.049 29.6732 188.049 30.3239C188.049 31.2839 188.267 32.0252 188.705 32.5479C189.142 33.0599 189.723 33.3159 190.449 33.3159ZM196.993 35.7319C196.886 35.8706 196.774 35.9506 196.657 35.9719C196.539 35.9932 196.438 35.9719 196.353 35.9079C196.267 35.8439 196.219 35.7532 196.209 35.6359C196.209 35.5186 196.262 35.3906 196.369 35.2519C196.539 35.0279 196.657 34.7986 196.721 34.5639C196.785 34.3399 196.817 34.1319 196.817 33.9399L196.881 34.2759C196.603 34.2759 196.379 34.1959 196.209 34.0359C196.049 33.8652 195.969 33.6519 195.969 33.3959C195.969 33.1399 196.043 32.9319 196.193 32.7719C196.353 32.6012 196.561 32.5159 196.817 32.5159C197.094 32.5159 197.313 32.6119 197.473 32.8039C197.633 32.9852 197.713 33.2519 197.713 33.6039C197.713 33.8279 197.691 34.0572 197.649 34.2919C197.606 34.5372 197.531 34.7826 197.425 35.0279C197.318 35.2732 197.174 35.5079 196.993 35.7319ZM204.198 34.2119C203.964 34.2119 203.788 34.1586 203.67 34.0519C203.564 33.9346 203.51 33.7799 203.51 33.5879C203.51 33.4706 203.537 33.3586 203.59 33.2519C203.654 33.1346 203.74 33.0172 203.846 32.8999L207.43 29.0599C207.974 28.4732 208.364 27.9346 208.598 27.4439C208.844 26.9426 208.966 26.4359 208.966 25.9239C208.966 25.2839 208.769 24.7986 208.374 24.4679C207.99 24.1266 207.425 23.9559 206.678 23.9559C206.198 23.9559 205.745 24.0306 205.318 24.1799C204.892 24.3292 204.481 24.5586 204.086 24.8679C203.948 24.9746 203.82 25.0226 203.702 25.0119C203.596 25.0012 203.5 24.9586 203.414 24.8839C203.329 24.8092 203.27 24.7132 203.238 24.5959C203.206 24.4786 203.206 24.3612 203.238 24.2439C203.281 24.1266 203.366 24.0199 203.494 23.9239C203.91 23.5826 204.412 23.3106 204.998 23.1079C205.585 22.8946 206.182 22.7879 206.79 22.7879C207.548 22.7879 208.188 22.9052 208.71 23.1399C209.233 23.3746 209.628 23.7212 209.894 24.1799C210.161 24.6279 210.294 25.1772 210.294 25.8279C210.294 26.2759 210.22 26.7186 210.07 27.1559C209.932 27.5826 209.713 28.0199 209.414 28.4679C209.126 28.9159 208.748 29.3799 208.278 29.8599L204.87 33.4599V33.0919H210.262C210.465 33.0919 210.614 33.1399 210.71 33.2359C210.817 33.3212 210.87 33.4546 210.87 33.6359C210.87 33.8279 210.817 33.9719 210.71 34.0679C210.614 34.1639 210.465 34.2119 210.262 34.2119H204.198ZM216.208 34.3559C214.917 34.3559 213.936 33.8599 213.264 32.8679C212.592 31.8759 212.256 30.4412 212.256 28.5639C212.256 27.3052 212.405 26.2492 212.704 25.3959C213.003 24.5319 213.445 23.8812 214.032 23.4439C214.629 23.0066 215.355 22.7879 216.208 22.7879C217.509 22.7879 218.491 23.2786 219.152 24.2599C219.824 25.2306 220.16 26.6599 220.16 28.5479C220.16 29.8066 220.011 30.8679 219.712 31.7319C219.413 32.5959 218.971 33.2519 218.384 33.6999C217.797 34.1372 217.072 34.3559 216.208 34.3559ZM216.208 33.2199C217.104 33.2199 217.765 32.8412 218.192 32.0839C218.629 31.3159 218.848 30.1372 218.848 28.5479C218.848 26.9479 218.629 25.7799 218.192 25.0439C217.765 24.2972 217.104 23.9239 216.208 23.9239C215.323 23.9239 214.661 24.2972 214.224 25.0439C213.787 25.7906 213.568 26.9586 213.568 28.5479C213.568 30.1372 213.787 31.3159 214.224 32.0839C214.661 32.8412 215.323 33.2199 216.208 33.2199ZM222.746 34.2119C222.511 34.2119 222.335 34.1586 222.218 34.0519C222.111 33.9346 222.058 33.7799 222.058 33.5879C222.058 33.4706 222.085 33.3586 222.138 33.2519C222.202 33.1346 222.287 33.0172 222.394 32.8999L225.978 29.0599C226.522 28.4732 226.911 27.9346 227.146 27.4439C227.391 26.9426 227.514 26.4359 227.514 25.9239C227.514 25.2839 227.317 24.7986 226.922 24.4679C226.538 24.1266 225.973 23.9559 225.226 23.9559C224.746 23.9559 224.293 24.0306 223.866 24.1799C223.439 24.3292 223.029 24.5586 222.634 24.8679C222.495 24.9746 222.367 25.0226 222.25 25.0119C222.143 25.0012 222.047 24.9586 221.962 24.8839C221.877 24.8092 221.818 24.7132 221.786 24.5959C221.754 24.4786 221.754 24.3612 221.786 24.2439C221.829 24.1266 221.914 24.0199 222.042 23.9239C222.458 23.5826 222.959 23.3106 223.546 23.1079C224.133 22.8946 224.73 22.7879 225.338 22.7879C226.095 22.7879 226.735 22.9052 227.258 23.1399C227.781 23.3746 228.175 23.7212 228.442 24.1799C228.709 24.6279 228.842 25.1772 228.842 25.8279C228.842 26.2759 228.767 26.7186 228.618 27.1559C228.479 27.5826 228.261 28.0199 227.962 28.4679C227.674 28.9159 227.295 29.3799 226.826 29.8599L223.418 33.4599V33.0919H228.81C229.013 33.0919 229.162 33.1399 229.258 33.2359C229.365 33.3212 229.418 33.4546 229.418 33.6359C229.418 33.8279 229.365 33.9719 229.258 34.0679C229.162 34.1639 229.013 34.2119 228.81 34.2119H222.746ZM234.628 34.3559C234.009 34.3559 233.385 34.2652 232.756 34.0839C232.137 33.9026 231.598 33.6359 231.14 33.2839C231.001 33.1879 230.91 33.0812 230.868 32.9639C230.825 32.8359 230.814 32.7186 230.836 32.6119C230.868 32.4946 230.926 32.3986 231.012 32.3239C231.097 32.2386 231.198 32.1906 231.316 32.1799C231.444 32.1692 231.582 32.2119 231.732 32.3079C232.201 32.6172 232.67 32.8412 233.14 32.9799C233.609 33.1186 234.094 33.1879 234.596 33.1879C235.14 33.1879 235.598 33.1079 235.972 32.9479C236.345 32.7879 236.628 32.5532 236.82 32.2439C237.012 31.9239 237.108 31.5346 237.108 31.0759C237.108 30.4146 236.889 29.9132 236.452 29.5719C236.014 29.2306 235.38 29.0599 234.548 29.0599H233.412C233.209 29.0599 233.054 29.0119 232.948 28.9159C232.841 28.8092 232.788 28.6652 232.788 28.4839C232.788 28.3132 232.841 28.1799 232.948 28.0839C233.054 27.9772 233.209 27.9239 233.412 27.9239H234.436C234.926 27.9239 235.342 27.8386 235.684 27.6679C236.036 27.4972 236.308 27.2572 236.5 26.9479C236.692 26.6279 236.788 26.2439 236.788 25.7959C236.788 25.1986 236.596 24.7452 236.212 24.4359C235.828 24.1159 235.273 23.9559 234.548 23.9559C234.068 23.9559 233.614 24.0252 233.188 24.1639C232.761 24.3026 232.34 24.5372 231.924 24.8679C231.796 24.9639 231.668 25.0119 231.54 25.0119C231.422 25.0012 231.321 24.9639 231.236 24.8999C231.161 24.8252 231.102 24.7292 231.06 24.6119C231.028 24.4946 231.033 24.3772 231.076 24.2599C231.118 24.1319 231.209 24.0146 231.348 23.9079C231.774 23.5452 232.276 23.2679 232.852 23.0759C233.428 22.8839 234.02 22.7879 234.628 22.7879C235.353 22.7879 235.972 22.9052 236.484 23.1399C237.006 23.3639 237.406 23.6946 237.684 24.1319C237.961 24.5586 238.1 25.0759 238.1 25.6839C238.1 26.1426 238.009 26.5639 237.828 26.9479C237.657 27.3212 237.412 27.6412 237.092 27.9079C236.782 28.1746 236.404 28.3666 235.956 28.4839V28.3079C236.734 28.4359 237.337 28.7559 237.764 29.2679C238.201 29.7692 238.42 30.4039 238.42 31.1719C238.42 31.8226 238.265 32.3879 237.956 32.8679C237.657 33.3372 237.225 33.7052 236.66 33.9719C236.094 34.2279 235.417 34.3559 234.628 34.3559ZM241.069 34.2759C240.803 34.2759 240.589 34.1959 240.429 34.0359C240.269 33.8652 240.189 33.6519 240.189 33.3959C240.189 33.1399 240.269 32.9319 240.429 32.7719C240.589 32.6012 240.803 32.5159 241.069 32.5159C241.336 32.5159 241.544 32.6012 241.693 32.7719C241.853 32.9319 241.933 33.1399 241.933 33.3959C241.933 33.6519 241.853 33.8652 241.693 34.0359C241.544 34.1959 241.336 34.2759 241.069 34.2759Z" fill="#252121"/>
</svg>
